<?xml version="1.0"?>
<svg width="336" height="290" xmlns="http://www.w3.org/2000/svg" xmlns:svg="http://www.w3.org/2000/svg" version="1.1">
 <g class="layer">
  <title>Layer 1</title>
  <g id="svg_79">
   <path d="m171.26,4.17c2.48,1.68 3.92,3.24 5.41,5.76c0.58,0.97 0.58,0.97 1.17,1.97c0.4,0.69 0.81,1.39 1.23,2.11c0.44,0.72 0.87,1.46 1.3,2.19c0.66,1.12 1.33,2.23 1.99,3.35c1.97,3.33 4.01,6.63 6.06,9.91c3.25,5.23 6.49,10.48 9.71,15.72c3.62,5.9 7.27,11.78 10.94,17.66c3.83,6.15 7.61,12.32 11.35,18.52c2.87,4.75 5.78,9.47 8.7,14.18c2.9,4.65 5.78,9.32 8.65,13.99c0.23,0.38 0.46,0.76 0.7,1.14c1.9,3.1 3.81,6.19 5.71,9.29c1.66,2.7 3.32,5.39 4.98,8.09c0.34,0.56 0.34,0.56 0.7,1.14c2.99,4.86 6,9.73 9.02,14.58c1.01,1.63 2.02,3.26 3.03,4.89c0.77,1.23 1.54,2.47 2.3,3.7c1.26,2.03 2.52,4.06 3.78,6.09c0.59,0.94 0.59,0.94 1.18,1.9c0.36,0.59 0.72,1.18 1.1,1.78c0.32,0.51 0.64,1.03 0.97,1.56c2.04,3.78 2.57,6.77 1.5,10.87c-2.1,3.79 -4.87,6.07 -9.11,7.43c-1.67,0.15 -1.67,0.15 -3.47,0.15c-0.69,0.01 -1.39,0.01 -2.09,0.01c-0.76,0 -1.52,-0.01 -2.3,-0.01c-0.81,0 -1.61,0.01 -2.45,0.01c-2.24,0.01 -4.47,0.01 -6.71,0.01c-2.41,-0.01 -4.83,0 -7.25,0.01c-4.72,0.01 -9.45,0.01 -14.18,0.01c-3.84,0 -7.69,0 -11.53,0.01c-0.82,0 -0.82,0 -1.65,0c-1.11,0 -2.23,0 -3.34,0c-10.42,0.01 -20.84,0.01 -31.27,0c-9.53,0 -19.07,0.01 -28.6,0.02c-9.79,0.01 -19.58,0.02 -29.37,0.01c-5.5,0 -10.99,0 -16.49,0.01c-4.68,0.01 -9.36,0.01 -14.04,0c-2.38,-0.01 -4.77,-0.01 -7.16,0c-2.59,0.01 -5.18,0.01 -7.77,-0.01c-0.75,0.01 -1.5,0.01 -2.28,0.02c-4.57,-0.03 -8.74,-0.24 -12.38,-3.19c-0.29,-0.37 -0.59,-0.74 -0.9,-1.12c-0.31,-0.37 -0.61,-0.74 -0.93,-1.13c-2.24,-3.07 -1.85,-6.71 -1.39,-10.3c1.09,-2.74 2.62,-5.12 4.27,-7.59c0.68,-1.06 1.35,-2.11 2.02,-3.17c0.7,-1.08 1.39,-2.16 2.09,-3.23c1.72,-2.63 3.39,-5.29 5.06,-7.95c0.8,-1.28 1.61,-2.55 2.41,-3.83c3.36,-5.3 6.62,-10.66 9.86,-16.04c2.88,-4.76 5.8,-9.51 8.74,-14.24c2.91,-4.68 5.81,-9.38 8.69,-14.08c3.62,-5.9 7.27,-11.78 10.94,-17.66c3.84,-6.15 7.61,-12.32 11.35,-18.52c2.87,-4.75 5.78,-9.47 8.7,-14.18c2.45,-3.92 4.87,-7.86 7.29,-11.79c0.94,-1.52 1.87,-3.04 2.81,-4.55c0.47,-0.76 0.94,-1.52 1.41,-2.29c0.23,-0.38 0.47,-0.76 0.71,-1.15c1.44,-2.35 2.88,-4.71 4.31,-7.06c0.94,-1.55 1.89,-3.09 2.84,-4.64c0.66,-1.08 1.31,-2.16 1.97,-3.25c0.4,-0.66 0.8,-1.31 1.22,-1.98c0.35,-0.58 0.7,-1.15 1.05,-1.74c4.37,-5.81 10.99,-6.56 17.42,-3.39z" fill="rgb(255, 255, 255)" id="svg_1"/>
   <path d="m171.26,4.17c2.48,1.68 3.92,3.24 5.41,5.76c0.58,0.97 0.58,0.97 1.17,1.97c0.4,0.69 0.81,1.39 1.23,2.11c0.44,0.72 0.87,1.46 1.3,2.19c0.66,1.12 1.33,2.23 1.99,3.35c1.97,3.33 4.01,6.63 6.06,9.91c3.25,5.23 6.49,10.48 9.71,15.72c3.62,5.9 7.27,11.78 10.94,17.66c3.83,6.15 7.61,12.32 11.35,18.52c2.87,4.75 5.78,9.47 8.7,14.18c2.9,4.65 5.78,9.32 8.65,13.99c0.23,0.38 0.46,0.76 0.7,1.14c1.9,3.1 3.81,6.19 5.71,9.29c1.66,2.7 3.32,5.39 4.98,8.09c0.34,0.56 0.34,0.56 0.7,1.14c2.99,4.86 6,9.73 9.02,14.58c1.01,1.63 2.02,3.26 3.03,4.89c0.77,1.23 1.54,2.47 2.3,3.7c1.26,2.03 2.52,4.06 3.78,6.09c0.59,0.94 0.59,0.94 1.18,1.9c0.36,0.59 0.72,1.18 1.1,1.78c0.32,0.51 0.64,1.03 0.97,1.56c2.04,3.78 2.57,6.77 1.5,10.87c-2.1,3.79 -4.87,6.07 -9.11,7.43c-1.67,0.15 -1.67,0.15 -3.47,0.15c-0.69,0.01 -1.39,0.01 -2.09,0.01c-0.76,0 -1.52,-0.01 -2.3,-0.01c-0.81,0 -1.61,0.01 -2.45,0.01c-2.24,0.01 -4.47,0.01 -6.71,0.01c-2.41,-0.01 -4.83,0 -7.25,0.01c-4.72,0.01 -9.45,0.01 -14.18,0.01c-3.84,0 -7.69,0 -11.53,0.01c-0.82,0 -0.82,0 -1.65,0c-1.11,0 -2.23,0 -3.34,0c-10.42,0.01 -20.84,0.01 -31.27,0c-9.53,0 -19.07,0.01 -28.6,0.02c-9.79,0.01 -19.58,0.02 -29.37,0.01c-5.5,0 -10.99,0 -16.49,0.01c-4.68,0.01 -9.36,0.01 -14.04,0c-2.38,-0.01 -4.77,-0.01 -7.16,0c-2.59,0.01 -5.18,0.01 -7.77,-0.01c-0.75,0.01 -1.5,0.01 -2.28,0.02c-4.57,-0.03 -8.74,-0.24 -12.38,-3.19c-0.29,-0.37 -0.59,-0.74 -0.9,-1.12c-0.31,-0.37 -0.61,-0.74 -0.93,-1.13c-2.24,-3.07 -1.85,-6.71 -1.39,-10.3c1.09,-2.74 2.62,-5.12 4.27,-7.59c0.68,-1.06 1.35,-2.11 2.02,-3.17c0.7,-1.08 1.39,-2.16 2.09,-3.23c1.72,-2.63 3.39,-5.29 5.06,-7.95c0.8,-1.28 1.61,-2.55 2.41,-3.83c3.36,-5.3 6.62,-10.66 9.86,-16.04c2.88,-4.76 5.8,-9.51 8.74,-14.24c2.91,-4.68 5.81,-9.38 8.69,-14.08c3.62,-5.9 7.27,-11.78 10.94,-17.66c3.84,-6.15 7.61,-12.32 11.35,-18.52c2.87,-4.75 5.78,-9.47 8.7,-14.18c2.45,-3.92 4.87,-7.86 7.29,-11.79c0.94,-1.52 1.87,-3.04 2.81,-4.55c0.47,-0.76 0.94,-1.52 1.41,-2.29c0.23,-0.38 0.47,-0.76 0.71,-1.15c1.44,-2.35 2.88,-4.71 4.31,-7.06c0.94,-1.55 1.89,-3.09 2.84,-4.64c0.66,-1.08 1.31,-2.16 1.97,-3.25c0.4,-0.66 0.8,-1.31 1.22,-1.98c0.35,-0.58 0.7,-1.15 1.05,-1.74c4.37,-5.81 10.99,-6.56 17.42,-3.39zm-7.16,19.83c-5.45,8.75 -10.86,17.53 -16.26,26.31c-0.23,0.37 -0.46,0.75 -0.7,1.13c-0.34,0.55 -0.34,0.55 -0.69,1.12c-1.7,2.77 -3.41,5.54 -5.12,8.3c-2.93,4.75 -5.86,9.5 -8.78,14.25c-3.16,5.14 -6.33,10.28 -9.51,15.42c-2.69,4.36 -5.38,8.72 -8.06,13.08c-3.16,5.14 -6.33,10.28 -9.51,15.42c-2.45,3.96 -4.89,7.92 -7.33,11.88c-1.44,2.34 -2.89,4.69 -4.33,7.04c-0.98,1.59 -1.96,3.18 -2.94,4.78c-0.81,1.32 -1.63,2.65 -2.45,3.97c-0.25,0.4 -0.49,0.79 -0.74,1.2c-1.46,2.37 -2.95,4.72 -4.44,7.07c-0.36,0.57 -0.72,1.14 -1.1,1.73c-0.71,1.12 -1.42,2.23 -2.13,3.34c-0.32,0.5 -0.64,1 -0.97,1.52c-0.29,0.45 -0.57,0.89 -0.87,1.35c-0.72,1.08 -0.72,1.08 -0.61,2.35c57.32,0 114.65,0 173.71,0c-1.04,-2.98 -1.93,-4.88 -3.62,-7.47c-0.53,-0.82 -1.06,-1.65 -1.59,-2.48c-0.46,-0.71 -0.46,-0.71 -0.92,-1.44c-2.11,-3.33 -4.17,-6.7 -6.23,-10.06c-0.48,-0.79 -0.96,-1.57 -1.44,-2.35c-0.98,-1.6 -1.96,-3.2 -2.95,-4.8c-2.1,-3.42 -4.2,-6.84 -6.31,-10.25c-1.15,-1.86 -2.29,-3.73 -3.44,-5.59c-0.23,-0.37 -0.46,-0.74 -0.69,-1.12c-1.41,-2.29 -2.82,-4.58 -4.23,-6.87c-4.37,-7.11 -8.74,-14.21 -13.15,-21.3c-6.71,-10.8 -13.37,-21.64 -20.01,-32.49c-3.55,-5.81 -7.13,-11.6 -10.73,-17.38c-1.51,-2.42 -3,-4.84 -4.48,-7.27c-0.39,-0.63 -0.77,-1.26 -1.18,-1.91c-0.74,-1.22 -1.49,-2.43 -2.23,-3.66c-0.5,-0.81 -0.5,-0.81 -1.01,-1.64c-0.44,-0.72 -0.44,-0.72 -0.89,-1.46c-0.72,-1.2 -0.72,-1.2 -2.09,-1.72z" fill="#E1272D" id="svg_2"/>
   <g fill="#000000" id="svg_3" transform="matrix(0.0347914 0 0 -0.0297905 -154.987 187.854)">
    <path d="m8802.51,4510.19c-105,-50 -164,-146 -164,-271c0,-124 56,-216 162,-269c117,-59 252,-37 343,54c62,62 85,123 85,221c0,220 -225,360 -426,265z" id="svg_4"/>
    <path d="m8765.51,3848.19c-48,-14 -61,-32 -188,-254c-56,-99 -117,-202 -134,-230c-18,-27 -68,-122 -113,-210l-81,-160l24,-175c74,-533 76,-542 128,-574c32,-20 101,-28 134,-15c36,13 92,67 105,99c7,18 -1,98 -29,292l-37,267l73,143c40,79 76,145 78,148c11,10 -4,-806 -15,-825c-5,-11 -26,-69 -45,-130c-44,-136 -125,-372 -167,-484c-66,-180 -190,-610 -190,-663c0,-62 29,-129 67,-154c31,-20 179,-38 236,-28c58,9 95,69 158,249c46,131 128,360 219,605c15,41 48,131 73,200c25,69 63,170 85,225c73,186 72,175 72,560l1,348l-26,38c-15,20 -64,82 -111,137c-75,89 -103,142 -75,142c11,0 131,-140 283,-331c59,-74 158,-195 219,-269c61,-74 144,-178 184,-231c41,-53 85,-106 99,-117c37,-28 103,-36 154,-18c45,16 53,23 90,70c25,32 31,111 11,148c-12,21 -183,235 -239,298c-17,19 -75,89 -127,155c-53,66 -113,140 -133,165c-137,168 -377,472 -409,518c-38,54 -71,65 -211,68c-69,2 -142,-2 -163,-7z" id="svg_5"/>
    <path d="m10015.51,2425.19l-29,-23l15,-51c9,-28 119,-230 245,-449c126,-219 260,-456 297,-528c76,-146 174,-320 215,-380c14,-22 32,-53 39,-70c24,-58 90,-83 115,-43c8,13 6,31 -8,70c-21,61 -125,262 -169,328c-16,25 -69,119 -117,210c-48,91 -110,208 -137,260c-28,52 -130,230 -226,395c-121,208 -181,301 -193,302c-11,2 -32,-8 -47,-21z" id="svg_6"/>
    <path d="m9209.51,2235.19c-6,-7 -17,-33 -25,-57c-8,-24 -42,-118 -75,-209c-33,-91 -61,-178 -61,-193c0,-31 7,-55 126,-427c111,-346 122,-375 165,-421l36,-39l106,0l107,0l39,39c74,74 75,150 4,334c-19,51 -64,173 -99,272c-36,99 -69,189 -74,200c-46,99 -78,175 -110,260c-94,249 -110,276 -139,241z" id="svg_7"/>
   </g>
   <ellipse cx="8.38" cy="70" fill="rgb(255, 255, 255)" id="svg_77" rx="0" ry="0.77"/>
   <g id="svg_78">
    <g id="svg_9">
     <path d="m57.23,198.71c2.49,0 4.99,0 7.48,0c-4.2,1.26 -6.7,4.13 -7.48,8.63c0,-2.88 0,-5.76 0,-8.63z" fill="#fefefe" id="svg_10"/>
    </g>
    <g id="svg_11">
     <path d="m64.72,198.71c66.14,0 132.28,0 198.42,0c4.41,1.32 6.91,4.35 7.48,9.11c0,23.56 0,47.11 0,70.67c-0.62,5.18 -3.37,8.33 -8.25,9.43c-65.63,0 -131.26,0 -196.9,0c-4.6,-1.03 -7.35,-3.96 -8.25,-8.79c0,-23.93 0,-47.86 0,-71.79c0.79,-4.5 3.28,-7.38 7.48,-8.63z" fill="#000000" id="svg_12"/>
    </g>
    <g id="svg_13">
     <path d="m65.63,202.39c65.53,-0.03 131.06,0 196.59,0.08c2.68,0.62 4.23,2.36 4.66,5.2c0.1,23.72 0.1,47.43 0,71.15c-0.44,2.75 -1.94,4.48 -4.51,5.2c-65.63,0.11 -131.26,0.11 -196.9,0c-2.49,-0.63 -3.99,-2.26 -4.51,-4.88c-0.1,-23.93 -0.1,-47.86 0,-71.79c0.56,-2.69 2.12,-4.35 4.66,-4.96z" fill="#fefefe" id="svg_14"/>
    </g>
    <g id="svg_15">
     <path d="m114.36,222.69c1.82,0.34 2.4,1.4 1.76,3.2c-1.12,1.1 -2.18,1.04 -3.21,-0.16c-0.48,-1.55 0.01,-2.56 1.45,-3.04z" fill="#020202" id="svg_16"/>
    </g>
    <g id="svg_17">
     <path d="m89.77,223.17c2.8,-0.03 5.6,0 8.4,0.08c3.4,1.1 4.45,3.37 3.13,6.8c-0.31,0.3 -0.59,0.62 -0.84,0.96c1.54,0.95 2.25,2.36 2.14,4.24c0.03,2.07 -0.83,3.56 -2.6,4.48c-0.94,0.36 -1.9,0.57 -2.9,0.64c-2.44,0.08 -4.89,0.11 -7.33,0.08c0,-5.76 0,-11.51 0,-17.27z" fill="#000000" id="svg_18"/>
    </g>
    <g id="svg_19">
     <path d="m105.04,223.17c1.12,0 2.24,0 3.36,0c-0.03,4.64 0,9.27 0.08,13.91c0.13,0.13 0.26,0.27 0.38,0.4c0.57,0.12 1.13,0.09 1.68,-0.08c0.21,1 0.36,2.02 0.46,3.04c-1.64,0.55 -3.22,0.42 -4.74,-0.4c-0.45,-0.36 -0.78,-0.82 -0.99,-1.36c-0.22,-5.16 -0.3,-10.33 -0.23,-15.51z" fill="#040404" id="svg_20"/>
    </g>
    <g id="svg_21">
     <path d="m140.17,223.17c1.12,0 2.24,0 3.36,0c0,5.76 0,11.51 0,17.27c-1.12,0 -2.24,0 -3.36,0c0.02,-0.22 0,-0.43 -0.08,-0.64c-3.38,1.75 -5.93,0.85 -7.64,-2.72c-0.92,-2.72 -0.62,-5.28 0.92,-7.67c1.96,-2.09 4.17,-2.47 6.64,-1.12c0.15,-1.7 0.2,-3.41 0.15,-5.12z" fill="#000000" id="svg_22"/>
    </g>
    <g id="svg_23">
     <path d="m153.46,223.17c2.91,-0.07 5.81,0.01 8.71,0.24c1.91,0.71 3,2.12 3.28,4.24c0.48,3.56 -0.92,5.77 -4.2,6.64c-1.48,0.08 -2.95,0.11 -4.43,0.08c0,2.03 0,4.05 0,6.08c-1.12,0 -2.24,0 -3.36,0c0,-5.76 0,-11.51 0,-17.27z" fill="#000000" id="svg_24"/>
    </g>
    <g id="svg_25">
     <path d="m93.13,226.21c1.32,-0.03 2.65,0 3.97,0.08c1.35,0.47 1.74,1.4 1.15,2.8c-0.26,0.34 -0.6,0.58 -0.99,0.72c-1.37,0.08 -2.75,0.11 -4.12,0.08c0,-1.23 0,-2.45 0,-3.68z" fill="#fefefe" id="svg_26"/>
    </g>
    <g id="svg_27">
     <path d="m156.82,226.37c1.28,-0.06 2.56,0.02 3.82,0.24c1.32,0.83 1.65,1.97 0.99,3.44c-0.25,0.39 -0.59,0.68 -0.99,0.88c-1.27,0.08 -2.54,0.11 -3.82,0.08c0,-1.55 0,-3.09 0,-4.64z" fill="#fefefe" id="svg_28"/>
    </g>
    <g id="svg_29">
     <path d="m124.44,227.49c1.54,-0.24 2.91,0.13 4.12,1.12c0.62,0.67 1.01,1.47 1.15,2.4c0.08,3.14 0.1,6.29 0.08,9.43c-1.12,0 -2.24,0 -3.36,0c0.03,-2.93 0,-5.86 -0.08,-8.79c-0.32,-0.76 -0.88,-1.14 -1.68,-1.12c-0.94,0.09 -1.6,0.57 -1.99,1.44c-0.08,2.82 -0.1,5.65 -0.08,8.47c-1.12,0 -2.24,0 -3.36,0c0,-4.21 0,-8.42 0,-12.63c1.12,0 2.24,0 3.36,0c-0.04,0.24 0.01,0.45 0.15,0.64c0.55,-0.37 1.11,-0.69 1.68,-0.96z" fill="#000000" id="svg_30"/>
    </g>
    <g id="svg_31">
     <path d="m171.79,227.49c5,-0.15 7.29,2.41 6.87,7.67c-2.75,-0.05 -5.5,0 -8.25,0.16c0.75,2.12 2.18,2.84 4.28,2.16c0.5,-0.19 0.93,-0.49 1.3,-0.88c0.61,0.72 1.2,1.47 1.76,2.24c-2.36,2.11 -4.96,2.46 -7.79,1.04c-2.59,-2.13 -3.43,-4.87 -2.52,-8.23c0.71,-2.25 2.16,-3.63 4.35,-4.16z" fill="#000000" id="svg_32"/>
    </g>
    <g id="svg_33">
     <path d="m186.61,227.49c0.51,0 1.02,0 1.53,0c0,1.12 0,2.24 0,3.36c-1.15,-0.16 -2.2,0.1 -3.13,0.8c-0.15,0.27 -0.31,0.53 -0.46,0.8c-0.22,2.65 -0.3,5.32 -0.23,7.99c-1.12,0 -2.24,0 -3.36,0c0,-4.21 0,-8.42 0,-12.63c1.12,0 2.24,0 3.36,0c-0.02,0.43 0,0.86 0.08,1.28c0.56,-0.82 1.29,-1.36 2.21,-1.6z" fill="#020202" id="svg_34"/>
    </g>
    <g id="svg_35">
     <path d="m193.18,227.49c1.94,-0.26 3.78,0.09 5.5,1.04c0.32,0.17 0.57,0.41 0.76,0.72c-0.56,0.77 -1.14,1.52 -1.76,2.24c-1.33,-1.08 -2.78,-1.32 -4.35,-0.72c-0.52,0.81 -0.31,1.35 0.61,1.6c1.42,0.27 2.8,0.69 4.12,1.28c1.65,1.25 2.09,2.87 1.3,4.88c-1.17,1.58 -2.72,2.33 -4.66,2.24c-2.04,0.04 -3.82,-0.63 -5.35,-2c0.59,-0.75 1.2,-1.47 1.83,-2.16c1.34,1.03 2.82,1.38 4.43,1.04c0.81,-0.53 0.81,-1.07 0,-1.6c-1.63,-0.36 -3.21,-0.89 -4.74,-1.6c-1.55,-1.48 -1.78,-3.16 -0.69,-5.04c0.8,-0.99 1.79,-1.63 2.98,-1.92z" fill="#010101" id="svg_36"/>
    </g>
    <g id="svg_37">
     <path d="m206.16,227.49c4.68,-0.43 7.13,1.81 7.33,6.72c-0.1,4.05 -2.09,6.24 -5.96,6.56c-2.85,-0.09 -4.76,-1.53 -5.73,-4.32c-0.73,-2.98 -0.1,-5.56 1.91,-7.75c0.77,-0.54 1.59,-0.94 2.44,-1.2z" fill="#000000" id="svg_38"/>
    </g>
    <g id="svg_39">
     <path d="m221.13,227.49c1.47,-0.24 2.8,0.1 3.97,1.04c0.39,0.46 0.72,0.97 0.99,1.52c0.22,3.46 0.3,6.92 0.23,10.39c-1.07,0 -2.14,0 -3.21,0c0.03,-2.72 0,-5.44 -0.08,-8.15c-0.06,-1.15 -0.64,-1.74 -1.76,-1.76c-1.05,0.05 -1.74,0.59 -2.06,1.6c-0.08,2.77 -0.1,5.54 -0.08,8.31c-1.11,0.05 -2.2,0 -3.28,-0.16c-0.08,-4.16 -0.1,-8.31 -0.08,-12.47c1.12,0 2.24,0 3.36,0c-0.02,0.27 0,0.54 0.08,0.8c0.57,-0.52 1.21,-0.9 1.91,-1.12z" fill="#010101" id="svg_40"/>
    </g>
    <g id="svg_41">
     <path d="m232.44,227.49c2.31,-0.31 4.4,0.24 6.26,1.68c-0.64,0.77 -1.27,1.55 -1.91,2.32c-1.2,-1.01 -2.55,-1.3 -4.05,-0.88c-0.64,0.38 -0.74,0.86 -0.31,1.44c1.37,0.45 2.74,0.88 4.12,1.28c2.35,1.19 2.93,3.03 1.76,5.52c-1.21,1.37 -2.71,2.01 -4.51,1.92c-2.02,0.01 -3.8,-0.65 -5.35,-2c0.59,-0.78 1.23,-1.5 1.91,-2.16c1.43,1.1 2.98,1.39 4.66,0.88c0.57,-0.58 0.47,-1.06 -0.31,-1.44c-1.51,-0.36 -2.99,-0.84 -4.43,-1.44c-1.79,-1.52 -2.07,-3.3 -0.84,-5.36c0.82,-0.95 1.81,-1.53 2.98,-1.76z" fill="#010101" id="svg_42"/>
    </g>
    <g id="svg_43">
     <path d="m112.98,227.81c1.07,0 2.14,0 3.21,0c0,4.21 0,8.42 0,12.63c-1.07,0 -2.14,0 -3.21,0c0,-4.21 0,-8.42 0,-12.63z" fill="#000000" id="svg_44"/>
    </g>
    <g id="svg_45">
     <path d="m172.4,230.36c1.73,-0.16 2.74,0.64 3.06,2.4c-1.63,0 -3.26,0 -4.89,0c0.16,-1.18 0.77,-1.98 1.83,-2.4z" fill="#fefefe" id="svg_46"/>
    </g>
    <g id="svg_47">
     <path d="m206.77,230.52c1.97,-0.15 3.12,0.81 3.44,2.88c0.4,2.36 -0.49,3.8 -2.67,4.32c-1.51,-0.23 -2.41,-1.13 -2.67,-2.72c-0.29,-1.96 0.35,-3.45 1.91,-4.48z" fill="#fefefe" id="svg_48"/>
    </g>
    <g id="svg_49">
     <path d="m137.88,230.52c1.99,0.29 2.75,1.49 2.29,3.6c0.49,2 -0.23,3.14 -2.14,3.44c-1.86,-0.35 -2.78,-1.52 -2.75,-3.52c0,-1.92 0.86,-3.1 2.6,-3.52z" fill="#fefefe" id="svg_50"/>
    </g>
    <g id="svg_51">
     <path d="m93.13,232.92c1.48,-0.03 2.95,0 4.43,0.08c1.36,0.63 1.74,1.67 1.15,3.12c-0.3,0.42 -0.68,0.71 -1.15,0.88c-1.48,0.08 -2.95,0.11 -4.43,0.08c0,-1.39 0,-2.77 0,-4.16z" fill="#fefefe" id="svg_52"/>
    </g>
    <g id="svg_53">
     <path d="m134.98,248.11c1.48,0 2.95,0 4.43,0c1.69,5.73 3.47,11.43 5.35,17.11c-1.26,0.21 -2.5,0.21 -3.74,0c-0.22,-0.96 -0.5,-1.89 -0.84,-2.8c-2.04,-0.11 -4.07,-0.11 -6.11,0c-0.31,0.96 -0.61,1.92 -0.92,2.88c-1.22,0.11 -2.44,0.11 -3.67,0c1.88,-5.71 3.71,-11.44 5.5,-17.19z" fill="#000000" id="svg_54"/>
    </g>
    <g id="svg_55">
     <path d="m146.59,248.11c1.12,0 2.24,0 3.36,0c-0.03,1.81 0,3.62 0.08,5.44c1.75,-1.18 3.56,-1.26 5.42,-0.24c0.55,0.47 0.99,1.03 1.3,1.68c0.22,3.46 0.3,6.92 0.23,10.39c-1.07,0 -2.14,0 -3.21,0c0.03,-2.77 0,-5.54 -0.08,-8.31c-0.13,-1.07 -0.71,-1.6 -1.76,-1.6c-0.9,0.11 -1.54,0.59 -1.91,1.44c-0.08,2.82 -0.1,5.65 -0.08,8.47c-1.12,0 -2.24,0 -3.36,0c0,-5.76 0,-11.51 0,-17.27z" fill="#000000" id="svg_56"/>
    </g>
    <g id="svg_57">
     <path d="m194.1,248.11c1.07,0 2.14,0 3.21,0c0,5.76 0,11.51 0,17.27c-1.07,0 -2.14,0 -3.21,0c0.02,-0.22 0,-0.43 -0.08,-0.64c-1.2,1.01 -2.55,1.3 -4.05,0.88c-2.76,-1.11 -4.13,-3.21 -4.12,-6.32c-0.1,-3.24 1.28,-5.45 4.12,-6.64c1.42,-0.28 2.74,-0.04 3.97,0.72c0.15,-1.76 0.2,-3.51 0.15,-5.28z" fill="#000000" id="svg_58"/>
    </g>
    <g id="svg_59">
     <path d="m137.12,251.95c0.8,2.41 1.52,4.86 2.14,7.35c-1.43,0.05 -2.85,0 -4.28,-0.16c0.71,-2.4 1.43,-4.8 2.14,-7.19z" fill="#fcfcfc" id="svg_60"/>
    </g>
    <g id="svg_61">
     <path d="m163.7,252.59c5.05,-0.2 7.44,2.35 7.18,7.67c-2.75,0 -5.5,0 -8.25,0c0.43,1.93 1.6,2.76 3.51,2.48c0.75,-0.18 1.41,-0.52 1.99,-1.04c0.56,0.75 1.12,1.49 1.68,2.24c-1.2,1.25 -2.65,1.89 -4.35,1.92c-4.58,-0.59 -6.62,-3.31 -6.11,-8.15c0.46,-2.64 1.91,-4.35 4.35,-5.12z" fill="#000000" id="svg_62"/>
    </g>
    <g id="svg_63">
     <path d="m176.68,252.59c1.23,-0.06 2.45,0.02 3.67,0.24c1.89,0.7 2.78,2.11 2.67,4.24c0.05,1.76 0.1,3.52 0.15,5.28c0.24,0.52 0.62,0.86 1.15,1.04c-0.44,0.62 -0.82,1.29 -1.15,2c-0.53,0.56 -1.11,0.58 -1.76,0.08c-0.33,-0.21 -0.63,-0.45 -0.92,-0.72c-2.06,1.29 -4.15,1.37 -6.26,0.24c-1.05,-0.74 -1.61,-1.77 -1.68,-3.12c0.16,-2.22 1.28,-3.58 3.36,-4.08c1.26,-0.22 2.54,-0.36 3.82,-0.4c0.13,-0.76 -0.12,-1.32 -0.76,-1.68c-1.57,-0.24 -3.05,0.05 -4.43,0.88c-0.56,-0.84 -0.94,-1.75 -1.15,-2.72c1.05,-0.6 2.14,-1.03 3.28,-1.28z" fill="#000000" id="svg_64"/>
    </g>
    <g id="svg_65">
     <path d="m164.31,255.47c1.88,-0.33 2.95,0.47 3.21,2.4c-1.58,0.03 -3.16,0 -4.74,-0.08c-0.05,-0.05 -0.1,-0.11 -0.15,-0.16c0.29,-0.96 0.85,-1.68 1.68,-2.16z" fill="#fdfdfd" id="svg_66"/>
    </g>
    <g id="svg_67">
     <path d="m191.5,255.63c1.14,-0.08 1.98,0.4 2.52,1.44c0.1,1.39 0.1,2.77 0,4.16c-1.37,1.8 -2.79,1.86 -4.28,0.16c-0.79,-1.72 -0.69,-3.37 0.31,-4.96c0.44,-0.38 0.93,-0.65 1.45,-0.8z" fill="#fefefe" id="svg_68"/>
    </g>
    <g id="svg_69">
     <path d="m178.21,260.1c0.51,0 1.02,0 1.53,0c0.45,1.85 -0.22,2.8 -1.99,2.88c-1.02,0.06 -1.63,-0.42 -1.83,-1.44c0.05,-0.35 0.21,-0.64 0.46,-0.88c0.61,-0.27 1.22,-0.45 1.83,-0.56z" fill="#fdfdfd" id="svg_70"/>
    </g>
    <g id="svg_71">
     <path d="m57.23,279.13c0.9,4.83 3.65,7.76 8.25,8.79c-2.75,0 -5.5,0 -8.25,0c0,-2.93 0,-5.86 0,-8.79z" fill="#fdfdfd" id="svg_72"/>
    </g>
   </g>
  </g>
 </g>
</svg>