<?xml version="1.0"?>
<svg width="336" height="290" xmlns="http://www.w3.org/2000/svg" xmlns:svg="http://www.w3.org/2000/svg" xmlns:xlink="http://www.w3.org/1999/xlink" version="1.1">
 <g class="layer">
  <title>Layer 1</title>
  <g id="svg_112">
   <path d="m166.26,4.17c2.48,1.68 3.92,3.24 5.41,5.76c0.58,0.97 0.58,0.97 1.17,1.97c0.4,0.69 0.81,1.39 1.23,2.11c0.44,0.72 0.87,1.46 1.3,2.19c0.66,1.12 1.33,2.23 1.99,3.35c1.97,3.33 4.01,6.63 6.06,9.91c3.25,5.23 6.49,10.48 9.71,15.72c3.62,5.9 7.27,11.78 10.94,17.66c3.83,6.15 7.61,12.32 11.35,18.52c2.87,4.75 5.78,9.47 8.7,14.18c2.9,4.65 5.78,9.32 8.65,13.99c0.23,0.38 0.46,0.76 0.7,1.14c1.9,3.1 3.81,6.19 5.71,9.29c1.66,2.7 3.32,5.39 4.98,8.09c0.34,0.56 0.34,0.56 0.7,1.14c2.99,4.86 6,9.73 9.02,14.58c1.01,1.63 2.02,3.26 3.03,4.89c0.77,1.23 1.54,2.47 2.3,3.7c1.26,2.03 2.52,4.06 3.78,6.09c0.59,0.94 0.59,0.94 1.18,1.9c0.36,0.59 0.72,1.18 1.1,1.78c0.32,0.51 0.64,1.03 0.97,1.56c2.04,3.78 2.57,6.77 1.5,10.87c-2.1,3.79 -4.87,6.07 -9.11,7.43c-1.67,0.15 -1.67,0.15 -3.47,0.15c-0.69,0.01 -1.39,0.01 -2.09,0.01c-0.76,0 -1.52,-0.01 -2.3,-0.01c-0.81,0 -1.61,0.01 -2.45,0.01c-2.24,0.01 -4.47,0.01 -6.71,0.01c-2.41,-0.01 -4.83,0 -7.25,0.01c-4.72,0.01 -9.45,0.01 -14.18,0.01c-3.84,0 -7.69,0 -11.53,0.01c-0.82,0 -0.82,0 -1.65,0c-1.11,0 -2.23,0 -3.34,0c-10.42,0.01 -20.84,0.01 -31.27,0c-9.53,0 -19.07,0.01 -28.6,0.02c-9.79,0.01 -19.58,0.02 -29.37,0.01c-5.5,0 -10.99,0 -16.49,0.01c-4.68,0.01 -9.36,0.01 -14.04,0c-2.38,-0.01 -4.77,-0.01 -7.16,0c-2.59,0.01 -5.18,0.01 -7.77,-0.01c-0.75,0.01 -1.5,0.01 -2.28,0.02c-4.57,-0.03 -8.74,-0.24 -12.38,-3.19c-0.29,-0.37 -0.59,-0.74 -0.9,-1.12c-0.31,-0.37 -0.61,-0.74 -0.93,-1.13c-2.24,-3.07 -1.85,-6.71 -1.39,-10.3c1.09,-2.74 2.62,-5.12 4.27,-7.59c0.68,-1.06 1.35,-2.11 2.02,-3.17c0.7,-1.08 1.39,-2.16 2.09,-3.23c1.72,-2.63 3.39,-5.29 5.06,-7.95c0.8,-1.28 1.61,-2.55 2.41,-3.83c3.36,-5.3 6.62,-10.66 9.86,-16.04c2.88,-4.76 5.8,-9.51 8.74,-14.24c2.91,-4.68 5.81,-9.38 8.69,-14.08c3.62,-5.9 7.27,-11.78 10.94,-17.66c3.84,-6.15 7.61,-12.32 11.35,-18.52c2.87,-4.75 5.78,-9.47 8.7,-14.18c2.45,-3.92 4.87,-7.86 7.29,-11.79c0.94,-1.52 1.87,-3.04 2.81,-4.55c0.47,-0.76 0.94,-1.52 1.41,-2.29c0.23,-0.38 0.47,-0.76 0.71,-1.15c1.44,-2.35 2.88,-4.71 4.31,-7.06c0.94,-1.55 1.89,-3.09 2.84,-4.64c0.66,-1.08 1.31,-2.16 1.97,-3.25c0.4,-0.66 0.8,-1.31 1.22,-1.98c0.35,-0.58 0.7,-1.15 1.05,-1.74c4.37,-5.81 10.99,-6.56 17.42,-3.39l0.02,0z" fill="rgb(255, 255, 255)" id="svg_1"/>
   <path d="m166.26,4.17c2.48,1.68 3.92,3.24 5.41,5.76c0.58,0.97 0.58,0.97 1.17,1.97c0.4,0.69 0.81,1.39 1.23,2.11c0.44,0.72 0.87,1.46 1.3,2.19c0.66,1.12 1.33,2.23 1.99,3.35c1.97,3.33 4.01,6.63 6.06,9.91c3.25,5.23 6.49,10.48 9.71,15.72c3.62,5.9 7.27,11.78 10.94,17.66c3.83,6.15 7.61,12.32 11.35,18.52c2.87,4.75 5.78,9.47 8.7,14.18c2.9,4.65 5.78,9.32 8.65,13.99c0.23,0.38 0.46,0.76 0.7,1.14c1.9,3.1 3.81,6.19 5.71,9.29c1.66,2.7 3.32,5.39 4.98,8.09c0.34,0.56 0.34,0.56 0.7,1.14c2.99,4.86 6,9.73 9.02,14.58c1.01,1.63 2.02,3.26 3.03,4.89c0.77,1.23 1.54,2.47 2.3,3.7c1.26,2.03 2.52,4.06 3.78,6.09c0.59,0.94 0.59,0.94 1.18,1.9c0.36,0.59 0.72,1.18 1.1,1.78c0.32,0.51 0.64,1.03 0.97,1.56c2.04,3.78 2.57,6.77 1.5,10.87c-2.1,3.79 -4.87,6.07 -9.11,7.43c-1.67,0.15 -1.67,0.15 -3.47,0.15c-0.69,0.01 -1.39,0.01 -2.09,0.01c-0.76,0 -1.52,-0.01 -2.3,-0.01c-0.81,0 -1.61,0.01 -2.45,0.01c-2.24,0.01 -4.47,0.01 -6.71,0.01c-2.41,-0.01 -4.83,0 -7.25,0.01c-4.72,0.01 -9.45,0.01 -14.18,0.01c-3.84,0 -7.69,0 -11.53,0.01c-0.82,0 -0.82,0 -1.65,0c-1.11,0 -2.23,0 -3.34,0c-10.42,0.01 -20.84,0.01 -31.27,0c-9.53,0 -19.07,0.01 -28.6,0.02c-9.79,0.01 -19.58,0.02 -29.37,0.01c-5.5,0 -10.99,0 -16.49,0.01c-4.68,0.01 -9.36,0.01 -14.04,0c-2.38,-0.01 -4.77,-0.01 -7.16,0c-2.59,0.01 -5.18,0.01 -7.77,-0.01c-0.75,0.01 -1.5,0.01 -2.28,0.02c-4.57,-0.03 -8.74,-0.24 -12.38,-3.19c-0.29,-0.37 -0.59,-0.74 -0.9,-1.12c-0.31,-0.37 -0.61,-0.74 -0.93,-1.13c-2.24,-3.07 -1.85,-6.71 -1.39,-10.3c1.09,-2.74 2.62,-5.12 4.27,-7.59c0.68,-1.06 1.35,-2.11 2.02,-3.17c0.7,-1.08 1.39,-2.16 2.09,-3.23c1.72,-2.63 3.39,-5.29 5.06,-7.95c0.8,-1.28 1.61,-2.55 2.41,-3.83c3.36,-5.3 6.62,-10.66 9.86,-16.04c2.88,-4.76 5.8,-9.51 8.74,-14.24c2.91,-4.68 5.81,-9.38 8.69,-14.08c3.62,-5.9 7.27,-11.78 10.94,-17.66c3.84,-6.15 7.61,-12.32 11.35,-18.52c2.87,-4.75 5.78,-9.47 8.7,-14.18c2.45,-3.92 4.87,-7.86 7.29,-11.79c0.94,-1.52 1.87,-3.04 2.81,-4.55c0.47,-0.76 0.94,-1.52 1.41,-2.29c0.23,-0.38 0.47,-0.76 0.71,-1.15c1.44,-2.35 2.88,-4.71 4.31,-7.06c0.94,-1.55 1.89,-3.09 2.84,-4.64c0.66,-1.08 1.31,-2.16 1.97,-3.25c0.4,-0.66 0.8,-1.31 1.22,-1.98c0.35,-0.58 0.7,-1.15 1.05,-1.74c4.37,-5.81 10.99,-6.56 17.42,-3.39l0.02,0zm-7.16,19.83c-5.45,8.75 -10.86,17.53 -16.26,26.31c-0.23,0.37 -0.46,0.75 -0.7,1.13c-0.34,0.55 -0.34,0.55 -0.69,1.12c-1.7,2.77 -3.41,5.54 -5.12,8.3c-2.93,4.75 -5.86,9.5 -8.78,14.25c-3.16,5.14 -6.33,10.28 -9.51,15.42c-2.69,4.36 -5.38,8.72 -8.06,13.08c-3.16,5.14 -6.33,10.28 -9.51,15.42c-2.45,3.96 -4.89,7.92 -7.33,11.88c-1.44,2.34 -2.89,4.69 -4.33,7.04c-0.98,1.59 -1.96,3.18 -2.94,4.78c-0.81,1.32 -1.63,2.65 -2.45,3.97c-0.25,0.4 -0.49,0.79 -0.74,1.2c-1.46,2.37 -2.95,4.72 -4.44,7.07c-0.36,0.57 -0.72,1.14 -1.1,1.73c-0.71,1.12 -1.42,2.23 -2.13,3.34c-0.32,0.5 -0.64,1 -0.97,1.52c-0.29,0.45 -0.57,0.89 -0.87,1.35c-0.72,1.08 -0.72,1.08 -0.61,2.35c57.32,0 114.65,0 173.71,0c-1.04,-2.98 -1.93,-4.88 -3.62,-7.47c-0.53,-0.82 -1.06,-1.65 -1.59,-2.48c-0.46,-0.71 -0.46,-0.71 -0.92,-1.44c-2.11,-3.33 -4.17,-6.7 -6.23,-10.06c-0.48,-0.79 -0.96,-1.57 -1.44,-2.35c-0.98,-1.6 -1.96,-3.2 -2.95,-4.8c-2.1,-3.42 -4.2,-6.84 -6.31,-10.25c-1.15,-1.86 -2.29,-3.73 -3.44,-5.59c-0.23,-0.37 -0.46,-0.74 -0.69,-1.12c-1.41,-2.29 -2.82,-4.58 -4.23,-6.87c-4.37,-7.11 -8.74,-14.21 -13.15,-21.3c-6.71,-10.8 -13.37,-21.64 -20.01,-32.49c-3.55,-5.81 -7.13,-11.6 -10.73,-17.38c-1.51,-2.42 -3,-4.84 -4.48,-7.27c-0.39,-0.63 -0.77,-1.26 -1.18,-1.91c-0.74,-1.22 -1.49,-2.43 -2.23,-3.66c-0.5,-0.81 -0.5,-0.81 -1.01,-1.64c-0.44,-0.72 -0.44,-0.72 -0.89,-1.46c-0.72,-1.2 -0.72,-1.2 -2.09,-1.72l0.02,0z" fill="#E1272D" id="svg_2"/>
   <ellipse cx="3.38" cy="70" fill="rgb(255, 255, 255)" id="svg_77" rx="0" ry="0.77"/>
   <g id="svg_78">
    <g id="svg_9">
     <path d="m52.23,198.71c2.49,0 4.99,0 7.48,0c-4.2,1.26 -6.7,4.13 -7.48,8.63c0,-2.88 0,-5.76 0,-8.63z" fill="#fefefe" id="svg_10"/>
    </g>
    <g id="svg_11">
     <path d="m59.72,198.71c66.14,0 132.28,0 198.42,0c4.41,1.32 6.91,4.35 7.48,9.11c0,23.56 0,47.11 0,70.67c-0.62,5.18 -3.37,8.33 -8.25,9.43c-65.63,0 -131.26,0 -196.9,0c-4.6,-1.03 -7.35,-3.96 -8.25,-8.79c0,-23.93 0,-47.86 0,-71.79c0.79,-4.5 3.28,-7.38 7.48,-8.63l0.02,0z" fill="#000000" id="svg_12"/>
    </g>
    <g id="svg_13">
     <path d="m60.63,202.39c65.53,-0.03 131.06,0 196.59,0.08c2.68,0.62 4.23,2.36 4.66,5.2c0.1,23.72 0.1,47.43 0,71.15c-0.44,2.75 -1.94,4.48 -4.51,5.2c-65.63,0.11 -131.26,0.11 -196.9,0c-2.49,-0.63 -3.99,-2.26 -4.51,-4.88c-0.1,-23.93 -0.1,-47.86 0,-71.79c0.56,-2.69 2.12,-4.35 4.66,-4.96l0.01,0z" fill="#fefefe" id="svg_14"/>
    </g>
    <g id="svg_15">
     <path d="m109.36,222.69c1.82,0.34 2.4,1.4 1.76,3.2c-1.12,1.1 -2.18,1.04 -3.21,-0.16c-0.48,-1.55 0.01,-2.56 1.45,-3.04z" fill="#020202" id="svg_16"/>
    </g>
    <g id="svg_17">
     <path d="m84.77,223.17c2.8,-0.03 5.6,0 8.4,0.08c3.4,1.1 4.45,3.37 3.13,6.8c-0.31,0.3 -0.59,0.62 -0.84,0.96c1.54,0.95 2.25,2.36 2.14,4.24c0.03,2.07 -0.83,3.56 -2.6,4.48c-0.94,0.36 -1.9,0.57 -2.9,0.64c-2.44,0.08 -4.89,0.11 -7.33,0.08c0,-5.76 0,-11.51 0,-17.27l0,-0.01z" fill="#000000" id="svg_18"/>
    </g>
    <g id="svg_19">
     <path d="m100.04,223.17c1.12,0 2.24,0 3.36,0c-0.03,4.64 0,9.27 0.08,13.91c0.13,0.13 0.26,0.27 0.38,0.4c0.57,0.12 1.13,0.09 1.68,-0.08c0.21,1 0.36,2.02 0.46,3.04c-1.64,0.55 -3.22,0.42 -4.74,-0.4c-0.45,-0.36 -0.78,-0.82 -0.99,-1.36c-0.22,-5.16 -0.3,-10.33 -0.23,-15.51z" fill="#040404" id="svg_20"/>
    </g>
    <g id="svg_21">
     <path d="m135.17,223.17c1.12,0 2.24,0 3.36,0c0,5.76 0,11.51 0,17.27c-1.12,0 -2.24,0 -3.36,0c0.02,-0.22 0,-0.43 -0.08,-0.64c-3.38,1.75 -5.93,0.85 -7.64,-2.72c-0.92,-2.72 -0.62,-5.28 0.92,-7.67c1.96,-2.09 4.17,-2.47 6.64,-1.12c0.15,-1.7 0.2,-3.41 0.15,-5.12l0.01,0z" fill="#000000" id="svg_22"/>
    </g>
    <g id="svg_23">
     <path d="m148.46,223.17c2.91,-0.07 5.81,0.01 8.71,0.24c1.91,0.71 3,2.12 3.28,4.24c0.48,3.56 -0.92,5.77 -4.2,6.64c-1.48,0.08 -2.95,0.11 -4.43,0.08c0,2.03 0,4.05 0,6.08c-1.12,0 -2.24,0 -3.36,0c0,-5.76 0,-11.51 0,-17.27l0,-0.01z" fill="#000000" id="svg_24"/>
    </g>
    <g id="svg_25">
     <path d="m88.13,226.21c1.32,-0.03 2.65,0 3.97,0.08c1.35,0.47 1.74,1.4 1.15,2.8c-0.26,0.34 -0.6,0.58 -0.99,0.72c-1.37,0.08 -2.75,0.11 -4.12,0.08c0,-1.23 0,-2.45 0,-3.68l-0.01,0z" fill="#fefefe" id="svg_26"/>
    </g>
    <g id="svg_27">
     <path d="m151.82,226.37c1.28,-0.06 2.56,0.02 3.82,0.24c1.32,0.83 1.65,1.97 0.99,3.44c-0.25,0.39 -0.59,0.68 -0.99,0.88c-1.27,0.08 -2.54,0.11 -3.82,0.08c0,-1.55 0,-3.09 0,-4.64z" fill="#fefefe" id="svg_28"/>
    </g>
    <g id="svg_29">
     <path d="m119.44,227.49c1.54,-0.24 2.91,0.13 4.12,1.12c0.62,0.67 1.01,1.47 1.15,2.4c0.08,3.14 0.1,6.29 0.08,9.43c-1.12,0 -2.24,0 -3.36,0c0.03,-2.93 0,-5.86 -0.08,-8.79c-0.32,-0.76 -0.88,-1.14 -1.68,-1.12c-0.94,0.09 -1.6,0.57 -1.99,1.44c-0.08,2.82 -0.1,5.65 -0.08,8.47c-1.12,0 -2.24,0 -3.36,0c0,-4.21 0,-8.42 0,-12.63c1.12,0 2.24,0 3.36,0c-0.04,0.24 0.01,0.45 0.15,0.64c0.55,-0.37 1.11,-0.69 1.68,-0.96l0.01,0z" fill="#000000" id="svg_30"/>
    </g>
    <g id="svg_31">
     <path d="m166.79,227.49c5,-0.15 7.29,2.41 6.87,7.67c-2.75,-0.05 -5.5,0 -8.25,0.16c0.75,2.12 2.18,2.84 4.28,2.16c0.5,-0.19 0.93,-0.49 1.3,-0.88c0.61,0.72 1.2,1.47 1.76,2.24c-2.36,2.11 -4.96,2.46 -7.79,1.04c-2.59,-2.13 -3.43,-4.87 -2.52,-8.23c0.71,-2.25 2.16,-3.63 4.35,-4.16z" fill="#000000" id="svg_32"/>
    </g>
    <g id="svg_33">
     <path d="m181.61,227.49c0.51,0 1.02,0 1.53,0c0,1.12 0,2.24 0,3.36c-1.15,-0.16 -2.2,0.1 -3.13,0.8c-0.15,0.27 -0.31,0.53 -0.46,0.8c-0.22,2.65 -0.3,5.32 -0.23,7.99c-1.12,0 -2.24,0 -3.36,0c0,-4.21 0,-8.42 0,-12.63c1.12,0 2.24,0 3.36,0c-0.02,0.43 0,0.86 0.08,1.28c0.56,-0.82 1.29,-1.36 2.21,-1.6z" fill="#020202" id="svg_34"/>
    </g>
    <g id="svg_35">
     <path d="m188.18,227.49c1.94,-0.26 3.78,0.09 5.5,1.04c0.32,0.17 0.57,0.41 0.76,0.72c-0.56,0.77 -1.14,1.52 -1.76,2.24c-1.33,-1.08 -2.78,-1.32 -4.35,-0.72c-0.52,0.81 -0.31,1.35 0.61,1.6c1.42,0.27 2.8,0.69 4.12,1.28c1.65,1.25 2.09,2.87 1.3,4.88c-1.17,1.58 -2.72,2.33 -4.66,2.24c-2.04,0.04 -3.82,-0.63 -5.35,-2c0.59,-0.75 1.2,-1.47 1.83,-2.16c1.34,1.03 2.82,1.38 4.43,1.04c0.81,-0.53 0.81,-1.07 0,-1.6c-1.63,-0.36 -3.21,-0.89 -4.74,-1.6c-1.55,-1.48 -1.78,-3.16 -0.69,-5.04c0.8,-0.99 1.79,-1.63 2.98,-1.92l0.02,0z" fill="#010101" id="svg_36"/>
    </g>
    <g id="svg_37">
     <path d="m201.16,227.49c4.68,-0.43 7.13,1.81 7.33,6.72c-0.1,4.05 -2.09,6.24 -5.96,6.56c-2.85,-0.09 -4.76,-1.53 -5.73,-4.32c-0.73,-2.98 -0.1,-5.56 1.91,-7.75c0.77,-0.54 1.59,-0.94 2.44,-1.2l0.01,-0.01z" fill="#000000" id="svg_38"/>
    </g>
    <g id="svg_39">
     <path d="m216.13,227.49c1.47,-0.24 2.8,0.1 3.97,1.04c0.39,0.46 0.72,0.97 0.99,1.52c0.22,3.46 0.3,6.92 0.23,10.39c-1.07,0 -2.14,0 -3.21,0c0.03,-2.72 0,-5.44 -0.08,-8.15c-0.06,-1.15 -0.64,-1.74 -1.76,-1.76c-1.05,0.05 -1.74,0.59 -2.06,1.6c-0.08,2.77 -0.1,5.54 -0.08,8.31c-1.11,0.05 -2.2,0 -3.28,-0.16c-0.08,-4.16 -0.1,-8.31 -0.08,-12.47c1.12,0 2.24,0 3.36,0c-0.02,0.27 0,0.54 0.08,0.8c0.57,-0.52 1.21,-0.9 1.91,-1.12l0.01,0z" fill="#010101" id="svg_40"/>
    </g>
    <g id="svg_41">
     <path d="m227.44,227.49c2.31,-0.31 4.4,0.24 6.26,1.68c-0.64,0.77 -1.27,1.55 -1.91,2.32c-1.2,-1.01 -2.55,-1.3 -4.05,-0.88c-0.64,0.38 -0.74,0.86 -0.31,1.44c1.37,0.45 2.74,0.88 4.12,1.28c2.35,1.19 2.93,3.03 1.76,5.52c-1.21,1.37 -2.71,2.01 -4.51,1.92c-2.02,0.01 -3.8,-0.65 -5.35,-2c0.59,-0.78 1.23,-1.5 1.91,-2.16c1.43,1.1 2.98,1.39 4.66,0.88c0.57,-0.58 0.47,-1.06 -0.31,-1.44c-1.51,-0.36 -2.99,-0.84 -4.43,-1.44c-1.79,-1.52 -2.07,-3.3 -0.84,-5.36c0.82,-0.95 1.81,-1.53 2.98,-1.76l0.02,0z" fill="#010101" id="svg_42"/>
    </g>
    <g id="svg_43">
     <path d="m107.98,227.81c1.07,0 2.14,0 3.21,0c0,4.21 0,8.42 0,12.63c-1.07,0 -2.14,0 -3.21,0c0,-4.21 0,-8.42 0,-12.63z" fill="#000000" id="svg_44"/>
    </g>
    <g id="svg_45">
     <path d="m167.4,230.36c1.73,-0.16 2.74,0.64 3.06,2.4c-1.63,0 -3.26,0 -4.89,0c0.16,-1.18 0.77,-1.98 1.83,-2.4z" fill="#fefefe" id="svg_46"/>
    </g>
    <g id="svg_47">
     <path d="m201.77,230.52c1.97,-0.15 3.12,0.81 3.44,2.88c0.4,2.36 -0.49,3.8 -2.67,4.32c-1.51,-0.23 -2.41,-1.13 -2.67,-2.72c-0.29,-1.96 0.35,-3.45 1.91,-4.48l-0.01,0z" fill="#fefefe" id="svg_48"/>
    </g>
    <g id="svg_49">
     <path d="m132.88,230.52c1.99,0.29 2.75,1.49 2.29,3.6c0.49,2 -0.23,3.14 -2.14,3.44c-1.86,-0.35 -2.78,-1.52 -2.75,-3.52c0,-1.92 0.86,-3.1 2.6,-3.52z" fill="#fefefe" id="svg_50"/>
    </g>
    <g id="svg_51">
     <path d="m88.13,232.92c1.48,-0.03 2.95,0 4.43,0.08c1.36,0.63 1.74,1.67 1.15,3.12c-0.3,0.42 -0.68,0.71 -1.15,0.88c-1.48,0.08 -2.95,0.11 -4.43,0.08c0,-1.39 0,-2.77 0,-4.16z" fill="#fefefe" id="svg_52"/>
    </g>
    <g id="svg_53">
     <path d="m129.98,248.11c1.48,0 2.95,0 4.43,0c1.69,5.73 3.47,11.43 5.35,17.11c-1.26,0.21 -2.5,0.21 -3.74,0c-0.22,-0.96 -0.5,-1.89 -0.84,-2.8c-2.04,-0.11 -4.07,-0.11 -6.11,0c-0.31,0.96 -0.61,1.92 -0.92,2.88c-1.22,0.11 -2.44,0.11 -3.67,0c1.88,-5.71 3.71,-11.44 5.5,-17.19z" fill="#000000" id="svg_54"/>
    </g>
    <g id="svg_55">
     <path d="m141.59,248.11c1.12,0 2.24,0 3.36,0c-0.03,1.81 0,3.62 0.08,5.44c1.75,-1.18 3.56,-1.26 5.42,-0.24c0.55,0.47 0.99,1.03 1.3,1.68c0.22,3.46 0.3,6.92 0.23,10.39c-1.07,0 -2.14,0 -3.21,0c0.03,-2.77 0,-5.54 -0.08,-8.31c-0.13,-1.07 -0.71,-1.6 -1.76,-1.6c-0.9,0.11 -1.54,0.59 -1.91,1.44c-0.08,2.82 -0.1,5.65 -0.08,8.47c-1.12,0 -2.24,0 -3.36,0c0,-5.76 0,-11.51 0,-17.27l0.01,0z" fill="#000000" id="svg_56"/>
    </g>
    <g id="svg_57">
     <path d="m189.1,248.11c1.07,0 2.14,0 3.21,0c0,5.76 0,11.51 0,17.27c-1.07,0 -2.14,0 -3.21,0c0.02,-0.22 0,-0.43 -0.08,-0.64c-1.2,1.01 -2.55,1.3 -4.05,0.88c-2.76,-1.11 -4.13,-3.21 -4.12,-6.32c-0.1,-3.24 1.28,-5.45 4.12,-6.64c1.42,-0.28 2.74,-0.04 3.97,0.72c0.15,-1.76 0.2,-3.51 0.15,-5.28l0.01,0.01z" fill="#000000" id="svg_58"/>
    </g>
    <g id="svg_59">
     <path d="m132.12,251.95c0.8,2.41 1.52,4.86 2.14,7.35c-1.43,0.05 -2.85,0 -4.28,-0.16c0.71,-2.4 1.43,-4.8 2.14,-7.19z" fill="#fcfcfc" id="svg_60"/>
    </g>
    <g id="svg_61">
     <path d="m158.7,252.59c5.05,-0.2 7.44,2.35 7.18,7.67c-2.75,0 -5.5,0 -8.25,0c0.43,1.93 1.6,2.76 3.51,2.48c0.75,-0.18 1.41,-0.52 1.99,-1.04c0.56,0.75 1.12,1.49 1.68,2.24c-1.2,1.25 -2.65,1.89 -4.35,1.92c-4.58,-0.59 -6.62,-3.31 -6.11,-8.15c0.46,-2.64 1.91,-4.35 4.35,-5.12z" fill="#000000" id="svg_62"/>
    </g>
    <g id="svg_63">
     <path d="m171.68,252.59c1.23,-0.06 2.45,0.02 3.67,0.24c1.89,0.7 2.78,2.11 2.67,4.24c0.05,1.76 0.1,3.52 0.15,5.28c0.24,0.52 0.62,0.86 1.15,1.04c-0.44,0.62 -0.82,1.29 -1.15,2c-0.53,0.56 -1.11,0.58 -1.76,0.08c-0.33,-0.21 -0.63,-0.45 -0.92,-0.72c-2.06,1.29 -4.15,1.37 -6.26,0.24c-1.05,-0.74 -1.61,-1.77 -1.68,-3.12c0.16,-2.22 1.28,-3.58 3.36,-4.08c1.26,-0.22 2.54,-0.36 3.82,-0.4c0.13,-0.76 -0.12,-1.32 -0.76,-1.68c-1.57,-0.24 -3.05,0.05 -4.43,0.88c-0.56,-0.84 -0.94,-1.75 -1.15,-2.72c1.05,-0.6 2.14,-1.03 3.28,-1.28l0.01,0z" fill="#000000" id="svg_64"/>
    </g>
    <g id="svg_65">
     <path d="m159.31,255.47c1.88,-0.33 2.95,0.47 3.21,2.4c-1.58,0.03 -3.16,0 -4.74,-0.08c-0.05,-0.05 -0.1,-0.11 -0.15,-0.16c0.29,-0.96 0.85,-1.68 1.68,-2.16z" fill="#fdfdfd" id="svg_66"/>
    </g>
    <g id="svg_67">
     <path d="m186.5,255.63c1.14,-0.08 1.98,0.4 2.52,1.44c0.1,1.39 0.1,2.77 0,4.16c-1.37,1.8 -2.79,1.86 -4.28,0.16c-0.79,-1.72 -0.69,-3.37 0.31,-4.96c0.44,-0.38 0.93,-0.65 1.45,-0.8z" fill="#fefefe" id="svg_68"/>
    </g>
    <g id="svg_69">
     <path d="m173.21,260.1c0.51,0 1.02,0 1.53,0c0.45,1.85 -0.22,2.8 -1.99,2.88c-1.02,0.06 -1.63,-0.42 -1.83,-1.44c0.05,-0.35 0.21,-0.64 0.46,-0.88c0.61,-0.27 1.22,-0.45 1.83,-0.56z" fill="#fdfdfd" id="svg_70"/>
    </g>
    <g id="svg_71">
     <path d="m52.23,279.13c0.9,4.83 3.65,7.76 8.25,8.79c-2.75,0 -5.5,0 -8.25,0c0,-2.93 0,-5.86 0,-8.79z" fill="#fdfdfd" id="svg_72"/>
    </g>
   </g>
   <g id="svg_93">
    <g id="svg_94" transform="matrix(11.9378 0 0 -9.57484 -270.288 12.9467)">
     <path d="m35.24,-9.16l0.18,0c1,0 1.58,-0.96 1.58,-1.6c0,-0.13 -0.03,-0.24 -0.17,-0.24c-0.3,0 -0.2,0.49 -0.44,0.9c-0.12,0.2 -0.5,0.57 -0.93,0.56l-0.16,0c-0.23,0.01 -0.66,-0.13 -0.95,-0.56c-0.37,-0.53 -0.13,-0.92 -0.43,-0.92c-0.05,0 -0.18,0.01 -0.18,0.23c0.01,1 0.92,1.63 1.5,1.63" fill="#000000" fill-rule="nonzero" id="svg_95"/>
    </g>
    <g id="svg_96" transform="matrix(11.9378 0 0 -9.57484 -268.656 65.5244)">
     <path d="m35.24,-9.16c0.38,0 0.67,0.38 0.67,0.64l0,0.55c0,1.12 1.17,1.56 1.17,2.67c0,1.05 -0.94,1.84 -1.84,1.84c-0.74,0 -1.25,-0.47 -1.44,-0.72c-0.57,-0.71 -0.24,-1.39 -0.65,-1.39c-0.12,0 -0.23,0.07 -0.23,0.3c-0.02,1.11 0.9,2.28 2.34,2.28c1.17,0 2.31,-0.92 2.31,-2.35c0,-1.32 -1.15,-1.59 -1.15,-2.75l0,-0.49c0,-0.51 -0.46,-1.09 -1.2,-1.1c-0.03,0.01 -0.06,0.02 -0.1,0.03c-0.13,0.04 -0.23,0.18 -0.19,0.32c0.03,0.12 0.15,0.15 0.3,0.17l0.01,0z" fill="#000000" fill-rule="nonzero" id="svg_97"/>
    </g>
    <g id="svg_98" transform="matrix(11.9378 0 0 -9.57484 -280.175 47.0757)">
     <path d="m35.24,-9.16l-0.29,-0.29l-0.81,0.79l0.29,0.3l0.81,-0.8z" fill="#000000" fill-rule="nonzero" id="svg_99"/>
    </g>
    <g id="svg_100" transform="matrix(11.9378 0 0 -9.57484 -280.36 37.371)">
     <path d="m35.24,-9.16c0,0.13 0.1,0.23 0.22,0.24c0.14,-0.01 0.24,-0.11 0.24,-0.24c0,-0.13 -0.1,-0.23 -0.24,-0.24c-0.12,0.01 -0.22,0.11 -0.22,0.24" fill="#000000" fill-rule="nonzero" id="svg_101"/>
    </g>
    <g id="svg_102" transform="matrix(11.9378 0 0 -9.57484 -271.478 30.2448)">
     <path d="m35.24,-9.16c0,0.13 0.11,0.24 0.24,0.24c0.12,0 0.23,-0.11 0.23,-0.24c0,-0.12 -0.11,-0.23 -0.23,-0.22c-0.13,-0.01 -0.24,0.1 -0.24,0.22" fill="#000000" fill-rule="nonzero" id="svg_103"/>
    </g>
    <g id="svg_104" transform="matrix(11.9378 0 0 -9.57484 -307.57 59.1743)">
     <path d="m35.24,-9.16c-0.01,0.13 0.1,0.23 0.23,0.22c0.12,0.01 0.23,-0.09 0.23,-0.22c0,-0.13 -0.11,-0.24 -0.23,-0.24c-0.13,0 -0.24,0.11 -0.23,0.24" fill="#000000" fill-rule="nonzero" id="svg_105"/>
    </g>
    <g id="svg_106" transform="matrix(11.9378 0 0 -9.57484 -298.663 52.0501)">
     <path d="m35.24,-9.16c0,0.13 0.1,0.24 0.24,0.24c0.12,-0.01 0.23,-0.11 0.22,-0.24c0.01,-0.13 -0.1,-0.23 -0.22,-0.24c-0.14,0.01 -0.24,0.11 -0.24,0.24" fill="#000000" fill-rule="nonzero" id="svg_107"/>
    </g>
    <g id="svg_108" transform="matrix(11.9378 0 0 -9.57484 -260.52 2.08079)">
     <path d="m35.24,-9.16c0.99,-0.25 1.79,-1 2.1,-1.98l0.37,0.12c-0.36,1.09 -1.24,1.94 -2.37,2.23l-0.1,-0.38l0,0.01z" fill="#000000" fill-rule="evenodd" id="svg_109"/>
    </g>
    <g id="svg_110" transform="matrix(11.9378 0 0 -9.57484 -258.118 -5.25887)">
     <path d="m35.24,-9.16l0.1,0.38c1.39,-0.35 2.5,-1.4 2.94,-2.75l-0.38,-0.13c-0.4,1.22 -1.41,2.18 -2.66,2.5" fill="#000000" fill-rule="evenodd" id="svg_111"/>
    </g>
   </g>
   <use id="svg_114" transform="matrix(0.153738 0 0 0.159881 -172.522 -326.823)" x="1457.41" xlink:href="#svg_113" y="3287.65"/>
  </g>
 </g>
 <defs>
  <symbol clip-rule="evenodd" fill-rule="evenodd" height="559px" id="svg_113" version="1.1" width="1398px" xmlns="http://www.w3.org/2000/svg" xmlns:xlink="http://www.w3.org/1999/xlink">
   <g>
    <path d="m-0.5,-0.5c18.33,0 36.67,0 55,0c-30.64,5.97 -48.97,24.31 -55,55c0,-18.33 0,-36.67 0,-55z" fill="#fdfdfd"/>
   </g>
   <g>
    <path d="m1339.5,-0.5c19.33,0 38.67,0 58,0c0,186.33 0,372.67 0,559c-18.33,0 -36.67,0 -55,0c27.54,-5.37 45.04,-21.7 52.5,-49c1.65,-150.65 1.98,-301.31 1,-452c-4.56,-33.39 -23.39,-52.72 -56.5,-58z" fill="#fefefe"/>
   </g>
   <g>
    <path d="m54.5,-0.5c428.33,0 856.67,0 1285,0c33.11,5.28 51.94,24.61 56.5,58c0.98,150.69 0.65,301.35 -1,452c-7.46,27.3 -24.96,43.63 -52.5,49c-429.67,0 -859.33,0 -1289,0c-30.58,-6.58 -48.58,-25.25 -54,-56c0,-149.33 0,-298.67 0,-448c6.03,-30.69 24.36,-49.03 55,-55z" fill="#000000"/>
   </g>
   <g>
    <path d="m54.5,23.5c429,-0.17 858,0 1287,0.5c17.54,3.9 27.7,14.74 30.5,32.5c0.67,148.33 0.67,296.67 0,445c-2.91,16.67 -12.41,27.5 -28.5,32.5c-430.33,0.67 -860.67,0.67 -1291,0c-15.27,-4.27 -24.77,-14.1 -28.5,-29.5c-0.67,-150 -0.67,-300 0,-450c3.68,-16.85 13.85,-27.18 30.5,-31z" fill="#fefefe"/>
   </g>
   <g>
    <path d="m540.5,150.5c5.3,0.47 10.46,1.47 15.5,3c0.13,6.07 -0.54,12.07 -2,18c-6.46,-3.11 -12.13,-2.11 -17,3c-0.5,2.65 -0.66,5.31 -0.5,8c4.67,0 9.33,0 14,0c0,6 0,12 0,18c-4.67,0 -9.33,0 -14,0c0,20.33 0,40.67 0,61c-7,0 -14,0 -21,0c0,-20.33 0,-40.67 0,-61c-4.33,0 -8.67,0 -13,0c0,-6 0,-12 0,-18c4.33,0 8.67,0 13,0c-2.59,-19.56 5.74,-30.23 25,-32z" fill="#010101"/>
   </g>
   <g>
    <path d="m227.5,153.5c17,-0.17 34,0 51,0.5c27.4,6.58 41.07,24.08 41,52.5c0.12,14.46 -4.04,27.46 -12.5,39c-7.53,7.85 -16.7,12.68 -27.5,14.5c-17.3,1.34 -34.64,1.84 -52,1.5c0,-36 0,-72 0,-108z" fill="#000000"/>
   </g>
   <g>
    <path d="m613.5,153.5c19.05,-0.45 38.05,0.05 57,1.5c10.4,2.74 17.24,9.24 20.5,19.5c3.5,12.51 2.16,24.51 -4,36c-5.96,6.9 -13.46,11.06 -22.5,12.5c-9.66,0.5 -19.33,0.67 -29,0.5c0,12.67 0,25.33 0,38c-7.33,0 -14.67,0 -22,0c0,-36 0,-72 0,-108z" fill="#000000"/>
   </g>
   <g>
    <path d="m250.5,173.5c8.34,-0.17 16.67,0 25,0.5c13.63,6.41 20.3,17.24 20,32.5c-1.67,28.38 -16.67,39.71 -45,34c0,-22.33 0,-44.67 0,-67z" fill="#fefefe"/>
   </g>
   <g>
    <path d="m636.5,173.5c8.39,-0.33 16.73,0.17 25,1.5c7.97,5.25 10.13,12.41 6.5,21.5c-1.94,2.61 -4.44,4.44 -7.5,5.5c-8.33,0.5 -16.66,0.67 -25,0.5c-0.31,-9.75 0.03,-19.42 1,-29z" fill="#fefefe"/>
   </g>
   <g>
    <path d="m362.5,180.5c32.79,-0.88 47.79,15.12 45,48c-18,-0.17 -36,0 -54,0.5c4.62,13.65 13.96,18.31 28,14c3.26,-1.21 6.09,-3.04 8.5,-5.5c4.02,4.52 7.86,9.19 11.5,14c-11.68,10.73 -25.34,14.23 -41,10.5c-18.93,-6.95 -28.6,-20.62 -29,-41c0.66,-21.25 10.99,-34.75 31,-40.5z" fill="#000000"/>
   </g>
   <g>
    <path d="m446.5,180.5c8.06,-0.32 16.06,0.18 24,1.5c9.14,3.82 14.64,10.65 16.5,20.5c0.33,12.67 0.67,25.33 1,38c1.28,3.78 3.78,6.45 7.5,8c-2.97,5.46 -6.13,10.8 -9.5,16c-5.79,-0.98 -10.63,-3.64 -14.5,-8c-13.69,8.54 -27.69,9.04 -42,1.5c-10.72,-9.41 -12.89,-20.58 -6.5,-33.5c4.44,-6.48 10.61,-10.31 18.5,-11.5c8.3,-1.22 16.63,-2.05 25,-2.5c0.32,-4.88 -1.68,-8.38 -6,-10.5c-9.95,-1.35 -19.28,0.49 -28,5.5c-3.63,-5.1 -6.63,-10.6 -9,-16.5c7.52,-3.56 15.19,-6.39 23,-8.5z" fill="#010101"/>
   </g>
   <g>
    <path d="m734.5,180.5c22.77,-2.39 37.27,7.28 43.5,29c1.19,6.28 1.69,12.61 1.5,19c-18,0 -36,0 -54,0c2.82,12.92 10.82,18.09 24,15.5c4.32,-0.91 8.15,-2.75 11.5,-5.5c1.94,0.94 3.61,2.27 5,4c2.36,2.86 4.53,5.86 6.5,9c-9.37,9.35 -20.7,13.18 -34,11.5c-19.24,-2.57 -30.74,-13.41 -34.5,-32.5c-2.82,-16.6 1.68,-30.76 13.5,-42.5c5.28,-3.65 10.95,-6.15 17,-7.5z" fill="#000000"/>
   </g>
   <g>
    <path d="m830.5,180.5c3.33,0 6.67,0 10,0c0,7 0,14 0,21c-9.47,-1.57 -16.97,1.43 -22.5,9c-1.29,16.6 -1.96,33.27 -2,50c-7.08,0.98 -14.25,1.31 -21.5,1c0,-26.33 0,-52.67 0,-79c7.33,0 14.67,0 22,0c-0.16,2.36 0,4.69 0.5,7c3.83,-4.15 8.33,-7.15 13.5,-9z" fill="#030303"/>
   </g>
   <g>
    <path d="m874.5,180.5c15.14,-1.97 28.81,1.53 41,10.5c-4.17,4.83 -8.33,9.67 -12.5,14.5c-7.88,-6.31 -16.71,-8.14 -26.5,-5.5c-5.04,3.63 -5.04,6.97 0,10c11.48,2.28 22.48,5.95 33,11c8.1,8.84 9.6,18.67 4.5,29.5c-4.2,6.18 -10.04,10.02 -17.5,11.5c-17.78,3.82 -33.78,0.15 -48,-11c3.82,-4.82 7.99,-9.32 12.5,-13.5c8.96,6.37 18.8,8.53 29.5,6.5c2.89,-1.28 4.05,-3.44 3.5,-6.5c-1.73,-2.12 -3.9,-3.62 -6.5,-4.5c-8.48,-1.87 -16.81,-4.2 -25,-7c-13.04,-9.07 -15.54,-20.57 -7.5,-34.5c5.62,-5.39 12.12,-9.05 19.5,-11z" fill="#010101"/>
   </g>
   <g>
    <path d="m958.5,180.5c30.26,-2.57 46.59,11.26 49,41.5c-1.5,27.83 -16.17,41.5 -44,41c-18.02,-2.09 -29.19,-11.92 -33.5,-29.5c-4.04,-18.36 0.79,-33.86 14.5,-46.5c4.65,-2.49 9.31,-4.66 14,-6.5z" fill="#000000"/>
   </g>
   <g>
    <path d="m1056.5,180.5c10.07,-1.53 19.07,0.81 27,7c4.09,4.17 6.59,9.17 7.5,15c0.5,19.66 0.67,39.33 0.5,59c-7.33,0 -14.67,0 -22,0c0.17,-18.34 0,-36.67 -0.5,-55c-2.03,-4.53 -5.53,-6.86 -10.5,-7c-6.34,0.41 -10.84,3.41 -13.5,9c-0.5,17.66 -0.67,35.33 -0.5,53c-7.33,0 -14.67,0 -22,0c0,-26.33 0,-52.67 0,-79c7.33,0 14.67,0 22,0c-0.16,1.7 0.01,3.37 0.5,5c3.51,-3 7.35,-5.33 11.5,-7z" fill="#000000"/>
   </g>
   <g>
    <path d="m1130.5,180.5c12.71,-1.54 24.71,0.63 36,6.5c2.09,1.04 3.75,2.54 5,4.5c-3.73,4.82 -7.89,9.15 -12.5,13c-7.11,-4.77 -14.94,-6.6 -23.5,-5.5c-6.05,1.65 -7.38,4.99 -4,10c10.38,3.18 20.71,6.51 31,10c10.83,7.81 13.66,17.98 8.5,30.5c-7.64,9.9 -17.81,14.57 -30.5,14c-10.29,-0.15 -19.96,-2.65 -29,-7.5c-2.48,-1.31 -4.48,-3.14 -6,-5.5c4.03,-4.36 8.03,-8.69 12,-13c8.78,6.43 18.44,8.6 29,6.5c5.33,-3.33 5.33,-6.67 0,-10c-10.7,-2.26 -21.03,-5.59 -31,-10c-9.72,-8.67 -11.55,-18.84 -5.5,-30.5c5.47,-6.67 12.31,-11 20.5,-13z" fill="#010101"/>
   </g>
   <g>
    <path d="m366.5,198.5c11.3,-1.02 17.97,3.98 20,15c-10.67,0 -21.33,0 -32,0c1.07,-7.4 5.07,-12.4 12,-15z" fill="#fefefe"/>
   </g>
   <g>
    <path d="m737.5,198.5c8.85,-0.99 15.35,2.34 19.5,10c0.49,1.63 0.66,3.3 0.5,5c-10.69,0.33 -21.35,0 -32,-1c1.58,-6.9 5.58,-11.57 12,-14z" fill="#fefefe"/>
   </g>
   <g>
    <path d="m963.5,199.5c9.94,-1.22 16.77,2.78 20.5,12c3.29,8.95 2.63,17.62 -2,26c-10.39,9.8 -20.05,9.13 -29,-2c-3.33,-8.67 -3.33,-17.33 0,-26c2.74,-4.24 6.24,-7.57 10.5,-10z" fill="#fefefe"/>
   </g>
   <g>
    <path d="m458.5,227.5c2.67,0 5.33,0 8,0c0.65,17.03 -7.02,22.19 -23,15.5c-3.42,-5.46 -2.42,-9.8 3,-13c4.14,-0.84 8.14,-1.67 12,-2.5z" fill="#fafafa"/>
   </g>
   <g>
    <path d="m508.5,309.5c9.67,0 19.33,0 29,0c11.06,35.84 22.72,71.51 35,107c-7.98,1.17 -15.98,1.33 -24,0.5c-1.85,-6.05 -3.85,-12.05 -6,-18c-13.33,-0.67 -26.67,-0.67 -40,0c-2,6 -4,12 -6,18c-7.66,0.5 -15.33,0.67 -23,0.5c11.27,-36.14 22.94,-72.14 35,-108z" fill="#000000"/>
   </g>
   <g>
    <path d="m584.5,309.5c7.33,0 14.67,0 22,0c-0.17,11.34 0,22.67 0.5,34c11.47,-7.4 23.3,-7.9 35.5,-1.5c3.99,2.99 6.82,6.82 8.5,11.5c1.47,21.27 1.97,42.6 1.5,64c-7,0 -14,0 -21,0c0.17,-17.34 0,-34.67 -0.5,-52c-0.84,-6.67 -4.67,-10 -11.5,-10c-5.92,0.7 -10.09,3.7 -12.5,9c-0.5,17.66 -0.67,35.33 -0.5,53c-7.33,0 -14.67,0 -22,0c0,-36 0,-72 0,-108z" fill="#000000"/>
   </g>
   <g>
    <path d="m895.5,309.5c7,0 14,0 21,0c0,36 0,72 0,108c-7,0 -14,0 -21,0c0.16,-1.37 -0.01,-2.71 -0.5,-4c-7.87,6.31 -16.7,8.14 -26.5,5.5c-18.05,-6.93 -27.05,-20.09 -27,-39.5c-0.63,-20.27 8.37,-34.1 27,-41.5c9.31,-1.72 17.97,-0.22 26,4.5c1,-10.98 1.33,-21.98 1,-33z" fill="#000000"/>
   </g>
   <g>
    <path d="m522.5,333.5c5.27,15.05 9.93,30.38 14,46c-9.36,0.33 -18.69,0 -28,-1c4.68,-15.03 9.34,-30.03 14,-45z" fill="#fdfdfd"/>
   </g>
   <g>
    <path d="m696.5,337.5c33.05,-1.28 48.72,14.72 47,48c-18,0 -36,0 -54,0c2.82,12.09 10.49,17.26 23,15.5c4.88,-1.11 9.21,-3.27 13,-6.5c3.67,4.67 7.33,9.33 11,14c-7.84,7.79 -17.34,11.79 -28.5,12c-30,-3.69 -43.34,-20.69 -40,-51c3.02,-16.52 12.52,-27.19 28.5,-32z" fill="#000000"/>
   </g>
   <g>
    <path d="m781.5,337.5c8.07,-0.36 16.07,0.14 24,1.5c11.93,4.66 17.76,13.49 17.5,26.5c0.33,11 0.67,22 1,33c1.56,3.23 4.06,5.39 7.5,6.5c-2.9,3.9 -5.4,8.07 -7.5,12.5c-3.45,3.49 -7.28,3.65 -11.5,0.5c-2.14,-1.31 -4.14,-2.81 -6,-4.5c-13.49,8.08 -27.15,8.58 -41,1.5c-6.89,-4.6 -10.55,-11.1 -11,-19.5c1.04,-13.88 8.37,-22.38 22,-25.5c8.28,-1.4 16.61,-2.24 25,-2.5c0.86,-4.78 -0.81,-8.28 -5,-10.5c-10.3,-1.51 -19.96,0.32 -29,5.5c-3.64,-5.28 -6.14,-10.95 -7.5,-17c6.86,-3.78 14.03,-6.45 21.5,-8z" fill="#010101"/>
   </g>
   <g>
    <path d="m700.5,355.5c12.31,-2.04 19.31,2.96 21,15c-10.34,0.17 -20.67,0 -31,-0.5c-0.33,-0.33 -0.67,-0.67 -1,-1c1.9,-5.98 5.57,-10.48 11,-13.5z" fill="#fefefe"/>
   </g>
   <g>
    <path d="m878.5,356.5c7.46,-0.52 12.96,2.48 16.5,9c0.67,8.67 0.67,17.33 0,26c-8.95,11.28 -18.28,11.61 -28,1c-5.16,-10.74 -4.5,-21.07 2,-31c2.91,-2.37 6.07,-4.04 9.5,-5z" fill="#fefefe"/>
   </g>
   <g>
    <path d="m791.5,384.5c3.33,0 6.67,0 10,0c2.92,11.54 -1.41,17.54 -13,18c-6.65,0.36 -10.65,-2.64 -12,-9c0.35,-2.2 1.35,-4.03 3,-5.5c3.98,-1.67 7.98,-2.84 12,-3.5z" fill="#fdfdfd"/>
   </g>
   <g>
    <path d="m-0.5,502.5c5.42,30.75 23.42,49.42 54,56c-18,0 -36,0 -54,0c0,-18.67 0,-37.33 0,-56z" fill="#fdfdfd"/>
   </g>
  </symbol>
 </defs>
</svg>