<?xml version="1.0"?>
<svg width="336" height="290" xmlns="http://www.w3.org/2000/svg" xmlns:svg="http://www.w3.org/2000/svg" xmlns:xlink="http://www.w3.org/1999/xlink" version="1.1">
 <g class="layer">
  <title>Layer 1</title>
  <g id="svg_96">
   <path d="m170.64,4.79c2.48,1.68 3.92,3.24 5.41,5.76c0.58,0.97 0.58,0.97 1.17,1.97c0.4,0.69 0.81,1.39 1.23,2.11c0.44,0.72 0.87,1.46 1.3,2.19c0.66,1.12 1.33,2.23 1.99,3.35c1.97,3.33 4.01,6.63 6.06,9.91c3.25,5.23 6.49,10.48 9.71,15.72c3.62,5.9 7.27,11.78 10.94,17.66c3.83,6.15 7.61,12.32 11.35,18.52c2.87,4.75 5.78,9.47 8.7,14.18c2.9,4.65 5.78,9.32 8.65,13.99c0.23,0.38 0.46,0.76 0.7,1.14c1.9,3.1 3.81,6.19 5.71,9.29c1.66,2.7 3.32,5.39 4.98,8.09c0.34,0.56 0.34,0.56 0.7,1.14c2.99,4.86 6,9.73 9.02,14.58c1.01,1.63 2.02,3.26 3.03,4.89c0.77,1.23 1.54,2.47 2.3,3.7c1.26,2.03 2.52,4.06 3.78,6.09c0.59,0.94 0.59,0.94 1.18,1.9c0.36,0.59 0.72,1.18 1.1,1.78c0.32,0.51 0.64,1.03 0.97,1.56c2.04,3.78 2.57,6.77 1.5,10.87c-2.1,3.79 -4.87,6.07 -9.11,7.43c-1.67,0.15 -1.67,0.15 -3.47,0.15c-0.69,0.01 -1.39,0.01 -2.09,0.01c-0.76,0 -1.52,-0.01 -2.3,-0.01c-0.81,0 -1.61,0.01 -2.45,0.01c-2.24,0.01 -4.47,0.01 -6.71,0.01c-2.41,-0.01 -4.83,0 -7.25,0.01c-4.72,0.01 -9.45,0.01 -14.18,0.01c-3.84,0 -7.69,0 -11.53,0.01c-0.82,0 -0.82,0 -1.65,0c-1.11,0 -2.23,0 -3.34,0c-10.42,0.01 -20.84,0.01 -31.27,0c-9.53,0 -19.07,0.01 -28.6,0.02c-9.79,0.01 -19.58,0.02 -29.37,0.01c-5.5,0 -10.99,0 -16.49,0.01c-4.68,0.01 -9.36,0.01 -14.04,0c-2.38,-0.01 -4.77,-0.01 -7.16,0c-2.59,0.01 -5.18,0.01 -7.77,-0.01c-0.75,0.01 -1.5,0.01 -2.28,0.02c-4.57,-0.03 -8.74,-0.24 -12.38,-3.19c-0.29,-0.37 -0.59,-0.74 -0.9,-1.12c-0.31,-0.37 -0.61,-0.74 -0.93,-1.13c-2.24,-3.07 -1.85,-6.71 -1.39,-10.3c1.09,-2.74 2.62,-5.12 4.27,-7.59c0.68,-1.06 1.35,-2.11 2.02,-3.17c0.7,-1.08 1.39,-2.16 2.09,-3.23c1.72,-2.63 3.39,-5.29 5.06,-7.95c0.8,-1.28 1.61,-2.55 2.41,-3.83c3.36,-5.3 6.62,-10.66 9.86,-16.04c2.88,-4.76 5.8,-9.51 8.74,-14.24c2.91,-4.68 5.81,-9.38 8.69,-14.08c3.62,-5.9 7.27,-11.78 10.94,-17.66c3.84,-6.15 7.61,-12.32 11.35,-18.52c2.87,-4.75 5.78,-9.47 8.7,-14.18c2.45,-3.92 4.87,-7.86 7.29,-11.79c0.94,-1.52 1.87,-3.04 2.81,-4.55c0.47,-0.76 0.94,-1.52 1.41,-2.29c0.23,-0.38 0.47,-0.76 0.71,-1.15c1.44,-2.35 2.88,-4.71 4.31,-7.06c0.94,-1.55 1.89,-3.09 2.84,-4.64c0.66,-1.08 1.31,-2.16 1.97,-3.25c0.4,-0.66 0.8,-1.31 1.22,-1.98c0.35,-0.58 0.7,-1.15 1.05,-1.74c4.37,-5.81 10.99,-6.56 17.42,-3.39l0.02,0z" fill="rgb(255, 255, 255)" id="svg_1"/>
   <path d="m170.64,4.79c2.48,1.68 3.92,3.24 5.41,5.76c0.58,0.97 0.58,0.97 1.17,1.97c0.4,0.69 0.81,1.39 1.23,2.11c0.44,0.72 0.87,1.46 1.3,2.19c0.66,1.12 1.33,2.23 1.99,3.35c1.97,3.33 4.01,6.63 6.06,9.91c3.25,5.23 6.49,10.48 9.71,15.72c3.62,5.9 7.27,11.78 10.94,17.66c3.83,6.15 7.61,12.32 11.35,18.52c2.87,4.75 5.78,9.47 8.7,14.18c2.9,4.65 5.78,9.32 8.65,13.99c0.23,0.38 0.46,0.76 0.7,1.14c1.9,3.1 3.81,6.19 5.71,9.29c1.66,2.7 3.32,5.39 4.98,8.09c0.34,0.56 0.34,0.56 0.7,1.14c2.99,4.86 6,9.73 9.02,14.58c1.01,1.63 2.02,3.26 3.03,4.89c0.77,1.23 1.54,2.47 2.3,3.7c1.26,2.03 2.52,4.06 3.78,6.09c0.59,0.94 0.59,0.94 1.18,1.9c0.36,0.59 0.72,1.18 1.1,1.78c0.32,0.51 0.64,1.03 0.97,1.56c2.04,3.78 2.57,6.77 1.5,10.87c-2.1,3.79 -4.87,6.07 -9.11,7.43c-1.67,0.15 -1.67,0.15 -3.47,0.15c-0.69,0.01 -1.39,0.01 -2.09,0.01c-0.76,0 -1.52,-0.01 -2.3,-0.01c-0.81,0 -1.61,0.01 -2.45,0.01c-2.24,0.01 -4.47,0.01 -6.71,0.01c-2.41,-0.01 -4.83,0 -7.25,0.01c-4.72,0.01 -9.45,0.01 -14.18,0.01c-3.84,0 -7.69,0 -11.53,0.01c-0.82,0 -0.82,0 -1.65,0c-1.11,0 -2.23,0 -3.34,0c-10.42,0.01 -20.84,0.01 -31.27,0c-9.53,0 -19.07,0.01 -28.6,0.02c-9.79,0.01 -19.58,0.02 -29.37,0.01c-5.5,0 -10.99,0 -16.49,0.01c-4.68,0.01 -9.36,0.01 -14.04,0c-2.38,-0.01 -4.77,-0.01 -7.16,0c-2.59,0.01 -5.18,0.01 -7.77,-0.01c-0.75,0.01 -1.5,0.01 -2.28,0.02c-4.57,-0.03 -8.74,-0.24 -12.38,-3.19c-0.29,-0.37 -0.59,-0.74 -0.9,-1.12c-0.31,-0.37 -0.61,-0.74 -0.93,-1.13c-2.24,-3.07 -1.85,-6.71 -1.39,-10.3c1.09,-2.74 2.62,-5.12 4.27,-7.59c0.68,-1.06 1.35,-2.11 2.02,-3.17c0.7,-1.08 1.39,-2.16 2.09,-3.23c1.72,-2.63 3.39,-5.29 5.06,-7.95c0.8,-1.28 1.61,-2.55 2.41,-3.83c3.36,-5.3 6.62,-10.66 9.86,-16.04c2.88,-4.76 5.8,-9.51 8.74,-14.24c2.91,-4.68 5.81,-9.38 8.69,-14.08c3.62,-5.9 7.27,-11.78 10.94,-17.66c3.84,-6.15 7.61,-12.32 11.35,-18.52c2.87,-4.75 5.78,-9.47 8.7,-14.18c2.45,-3.92 4.87,-7.86 7.29,-11.79c0.94,-1.52 1.87,-3.04 2.81,-4.55c0.47,-0.76 0.94,-1.52 1.41,-2.29c0.23,-0.38 0.47,-0.76 0.71,-1.15c1.44,-2.35 2.88,-4.71 4.31,-7.06c0.94,-1.55 1.89,-3.09 2.84,-4.64c0.66,-1.08 1.31,-2.16 1.97,-3.25c0.4,-0.66 0.8,-1.31 1.22,-1.98c0.35,-0.58 0.7,-1.15 1.05,-1.74c4.37,-5.81 10.99,-6.56 17.42,-3.39l0.02,0zm-7.16,19.83c-5.45,8.75 -10.86,17.53 -16.26,26.31c-0.23,0.37 -0.46,0.75 -0.7,1.13c-0.34,0.55 -0.34,0.55 -0.69,1.12c-1.7,2.77 -3.41,5.54 -5.12,8.3c-2.93,4.75 -5.86,9.5 -8.78,14.25c-3.16,5.14 -6.33,10.28 -9.51,15.42c-2.69,4.36 -5.38,8.72 -8.06,13.08c-3.16,5.14 -6.33,10.28 -9.51,15.42c-2.45,3.96 -4.89,7.92 -7.33,11.88c-1.44,2.34 -2.89,4.69 -4.33,7.04c-0.98,1.59 -1.96,3.18 -2.94,4.78c-0.81,1.32 -1.63,2.65 -2.45,3.97c-0.25,0.4 -0.49,0.79 -0.74,1.2c-1.46,2.37 -2.95,4.72 -4.44,7.07c-0.36,0.57 -0.72,1.14 -1.1,1.73c-0.71,1.12 -1.42,2.23 -2.13,3.34c-0.32,0.5 -0.64,1 -0.97,1.52c-0.29,0.45 -0.57,0.89 -0.87,1.35c-0.72,1.08 -0.72,1.08 -0.61,2.35c57.32,0 114.65,0 173.71,0c-1.04,-2.98 -1.93,-4.88 -3.62,-7.47c-0.53,-0.82 -1.06,-1.65 -1.59,-2.48c-0.46,-0.71 -0.46,-0.71 -0.92,-1.44c-2.11,-3.33 -4.17,-6.7 -6.23,-10.06c-0.48,-0.79 -0.96,-1.57 -1.44,-2.35c-0.98,-1.6 -1.96,-3.2 -2.95,-4.8c-2.1,-3.42 -4.2,-6.84 -6.31,-10.25c-1.15,-1.86 -2.29,-3.73 -3.44,-5.59c-0.23,-0.37 -0.46,-0.74 -0.69,-1.12c-1.41,-2.29 -2.82,-4.58 -4.23,-6.87c-4.37,-7.11 -8.74,-14.21 -13.15,-21.3c-6.71,-10.8 -13.37,-21.64 -20.01,-32.49c-3.55,-5.81 -7.13,-11.6 -10.73,-17.38c-1.51,-2.42 -3,-4.84 -4.48,-7.27c-0.39,-0.63 -0.77,-1.26 -1.18,-1.91c-0.74,-1.22 -1.49,-2.43 -2.23,-3.66c-0.5,-0.81 -0.5,-0.81 -1.01,-1.64c-0.44,-0.72 -0.44,-0.72 -0.89,-1.46c-0.72,-1.2 -0.72,-1.2 -2.09,-1.72l0.02,0z" fill="#E1272D" id="svg_2"/>
   <g id="svg_78">
    <g id="svg_9">
     <path d="m56.61,199.34c2.49,0 4.99,0 7.48,0c-4.2,1.26 -6.7,4.13 -7.48,8.63c0,-2.88 0,-5.76 0,-8.63z" fill="#fefefe" id="svg_10"/>
    </g>
    <g id="svg_11">
     <path d="m64.1,199.34c66.14,0 132.28,0 198.42,0c4.41,1.32 6.91,4.35 7.48,9.11c0,23.56 0,47.11 0,70.67c-0.62,5.18 -3.37,8.33 -8.25,9.43c-65.63,0 -131.26,0 -196.9,0c-4.6,-1.03 -7.35,-3.96 -8.25,-8.79c0,-23.93 0,-47.86 0,-71.79c0.79,-4.5 3.28,-7.38 7.48,-8.63l0.02,0z" fill="#000000" id="svg_12"/>
    </g>
    <g id="svg_13">
     <path d="m65.01,203.01c65.53,-0.03 131.06,0 196.59,0.08c2.68,0.62 4.23,2.36 4.66,5.2c0.1,23.72 0.1,47.43 0,71.15c-0.44,2.75 -1.94,4.48 -4.51,5.2c-65.63,0.11 -131.26,0.11 -196.9,0c-2.49,-0.63 -3.99,-2.26 -4.51,-4.88c-0.1,-23.93 -0.1,-47.86 0,-71.79c0.56,-2.69 2.12,-4.35 4.66,-4.96l0.01,0z" fill="#fefefe" id="svg_14"/>
    </g>
    <g id="svg_15">
     <path d="m113.74,223.31c1.82,0.34 2.4,1.4 1.76,3.2c-1.12,1.1 -2.18,1.04 -3.21,-0.16c-0.48,-1.55 0.01,-2.56 1.45,-3.04z" fill="#020202" id="svg_16"/>
    </g>
    <g id="svg_17">
     <path d="m89.15,223.79c2.8,-0.03 5.6,0 8.4,0.08c3.4,1.1 4.45,3.37 3.13,6.8c-0.31,0.3 -0.59,0.62 -0.84,0.96c1.54,0.95 2.25,2.36 2.14,4.24c0.03,2.07 -0.83,3.56 -2.6,4.48c-0.94,0.36 -1.9,0.57 -2.9,0.64c-2.44,0.08 -4.89,0.11 -7.33,0.08c0,-5.76 0,-11.51 0,-17.27l0,-0.01z" fill="#000000" id="svg_18"/>
    </g>
    <g id="svg_19">
     <path d="m104.42,223.79c1.12,0 2.24,0 3.36,0c-0.03,4.64 0,9.27 0.08,13.91c0.13,0.13 0.26,0.27 0.38,0.4c0.57,0.12 1.13,0.09 1.68,-0.08c0.21,1 0.36,2.02 0.46,3.04c-1.64,0.55 -3.22,0.42 -4.74,-0.4c-0.45,-0.36 -0.78,-0.82 -0.99,-1.36c-0.22,-5.16 -0.3,-10.33 -0.23,-15.51z" fill="#040404" id="svg_20"/>
    </g>
    <g id="svg_21">
     <path d="m139.55,223.79c1.12,0 2.24,0 3.36,0c0,5.76 0,11.51 0,17.27c-1.12,0 -2.24,0 -3.36,0c0.02,-0.22 0,-0.43 -0.08,-0.64c-3.38,1.75 -5.93,0.85 -7.64,-2.72c-0.92,-2.72 -0.62,-5.28 0.92,-7.67c1.96,-2.09 4.17,-2.47 6.64,-1.12c0.15,-1.7 0.2,-3.41 0.15,-5.12l0.01,0z" fill="#000000" id="svg_22"/>
    </g>
    <g id="svg_23">
     <path d="m152.84,223.79c2.91,-0.07 5.81,0.01 8.71,0.24c1.91,0.71 3,2.12 3.28,4.24c0.48,3.56 -0.92,5.77 -4.2,6.64c-1.48,0.08 -2.95,0.11 -4.43,0.08c0,2.03 0,4.05 0,6.08c-1.12,0 -2.24,0 -3.36,0c0,-5.76 0,-11.51 0,-17.27l0,-0.01z" fill="#000000" id="svg_24"/>
    </g>
    <g id="svg_25">
     <path d="m92.51,226.84c1.32,-0.03 2.65,0 3.97,0.08c1.35,0.47 1.74,1.4 1.15,2.8c-0.26,0.34 -0.6,0.58 -0.99,0.72c-1.37,0.08 -2.75,0.11 -4.12,0.08c0,-1.23 0,-2.45 0,-3.68l-0.01,0z" fill="#fefefe" id="svg_26"/>
    </g>
    <g id="svg_27">
     <path d="m156.2,227c1.28,-0.06 2.56,0.02 3.82,0.24c1.32,0.83 1.65,1.97 0.99,3.44c-0.25,0.39 -0.59,0.68 -0.99,0.88c-1.27,0.08 -2.54,0.11 -3.82,0.08c0,-1.55 0,-3.09 0,-4.64z" fill="#fefefe" id="svg_28"/>
    </g>
    <g id="svg_29">
     <path d="m123.82,228.12c1.54,-0.24 2.91,0.13 4.12,1.12c0.62,0.67 1.01,1.47 1.15,2.4c0.08,3.14 0.1,6.29 0.08,9.43c-1.12,0 -2.24,0 -3.36,0c0.03,-2.93 0,-5.86 -0.08,-8.79c-0.32,-0.76 -0.88,-1.14 -1.68,-1.12c-0.94,0.09 -1.6,0.57 -1.99,1.44c-0.08,2.82 -0.1,5.65 -0.08,8.47c-1.12,0 -2.24,0 -3.36,0c0,-4.21 0,-8.42 0,-12.63c1.12,0 2.24,0 3.36,0c-0.04,0.24 0.01,0.45 0.15,0.64c0.55,-0.37 1.11,-0.69 1.68,-0.96l0.01,0z" fill="#000000" id="svg_30"/>
    </g>
    <g id="svg_31">
     <path d="m171.17,228.12c5,-0.15 7.29,2.41 6.87,7.67c-2.75,-0.05 -5.5,0 -8.25,0.16c0.75,2.12 2.18,2.84 4.28,2.16c0.5,-0.19 0.93,-0.49 1.3,-0.88c0.61,0.72 1.2,1.47 1.76,2.24c-2.36,2.11 -4.96,2.46 -7.79,1.04c-2.59,-2.13 -3.43,-4.87 -2.52,-8.23c0.71,-2.25 2.16,-3.63 4.35,-4.16z" fill="#000000" id="svg_32"/>
    </g>
    <g id="svg_33">
     <path d="m185.99,228.12c0.51,0 1.02,0 1.53,0c0,1.12 0,2.24 0,3.36c-1.15,-0.16 -2.2,0.1 -3.13,0.8c-0.15,0.27 -0.31,0.53 -0.46,0.8c-0.22,2.65 -0.3,5.32 -0.23,7.99c-1.12,0 -2.24,0 -3.36,0c0,-4.21 0,-8.42 0,-12.63c1.12,0 2.24,0 3.36,0c-0.02,0.43 0,0.86 0.08,1.28c0.56,-0.82 1.29,-1.36 2.21,-1.6z" fill="#020202" id="svg_34"/>
    </g>
    <g id="svg_35">
     <path d="m192.56,228.12c1.94,-0.26 3.78,0.09 5.5,1.04c0.32,0.17 0.57,0.41 0.76,0.72c-0.56,0.77 -1.14,1.52 -1.76,2.24c-1.33,-1.08 -2.78,-1.32 -4.35,-0.72c-0.52,0.81 -0.31,1.35 0.61,1.6c1.42,0.27 2.8,0.69 4.12,1.28c1.65,1.25 2.09,2.87 1.3,4.88c-1.17,1.58 -2.72,2.33 -4.66,2.24c-2.04,0.04 -3.82,-0.63 -5.35,-2c0.59,-0.75 1.2,-1.47 1.83,-2.16c1.34,1.03 2.82,1.38 4.43,1.04c0.81,-0.53 0.81,-1.07 0,-1.6c-1.63,-0.36 -3.21,-0.89 -4.74,-1.6c-1.55,-1.48 -1.78,-3.16 -0.69,-5.04c0.8,-0.99 1.79,-1.63 2.98,-1.92l0.02,0z" fill="#010101" id="svg_36"/>
    </g>
    <g id="svg_37">
     <path d="m205.54,228.12c4.68,-0.43 7.13,1.81 7.33,6.72c-0.1,4.05 -2.09,6.24 -5.96,6.56c-2.85,-0.09 -4.76,-1.53 -5.73,-4.32c-0.73,-2.98 -0.1,-5.56 1.91,-7.75c0.77,-0.54 1.59,-0.94 2.44,-1.2l0.01,-0.01z" fill="#000000" id="svg_38"/>
    </g>
    <g id="svg_39">
     <path d="m220.51,228.12c1.47,-0.24 2.8,0.1 3.97,1.04c0.39,0.46 0.72,0.97 0.99,1.52c0.22,3.46 0.3,6.92 0.23,10.39c-1.07,0 -2.14,0 -3.21,0c0.03,-2.72 0,-5.44 -0.08,-8.15c-0.06,-1.15 -0.64,-1.74 -1.76,-1.76c-1.05,0.05 -1.74,0.59 -2.06,1.6c-0.08,2.77 -0.1,5.54 -0.08,8.31c-1.11,0.05 -2.2,0 -3.28,-0.16c-0.08,-4.16 -0.1,-8.31 -0.08,-12.47c1.12,0 2.24,0 3.36,0c-0.02,0.27 0,0.54 0.08,0.8c0.57,-0.52 1.21,-0.9 1.91,-1.12l0.01,0z" fill="#010101" id="svg_40"/>
    </g>
    <g id="svg_41">
     <path d="m231.82,228.12c2.31,-0.31 4.4,0.24 6.26,1.68c-0.64,0.77 -1.27,1.55 -1.91,2.32c-1.2,-1.01 -2.55,-1.3 -4.05,-0.88c-0.64,0.38 -0.74,0.86 -0.31,1.44c1.37,0.45 2.74,0.88 4.12,1.28c2.35,1.19 2.93,3.03 1.76,5.52c-1.21,1.37 -2.71,2.01 -4.51,1.92c-2.02,0.01 -3.8,-0.65 -5.35,-2c0.59,-0.78 1.23,-1.5 1.91,-2.16c1.43,1.1 2.98,1.39 4.66,0.88c0.57,-0.58 0.47,-1.06 -0.31,-1.44c-1.51,-0.36 -2.99,-0.84 -4.43,-1.44c-1.79,-1.52 -2.07,-3.3 -0.84,-5.36c0.82,-0.95 1.81,-1.53 2.98,-1.76l0.02,0z" fill="#010101" id="svg_42"/>
    </g>
    <g id="svg_43">
     <path d="m112.36,228.44c1.07,0 2.14,0 3.21,0c0,4.21 0,8.42 0,12.63c-1.07,0 -2.14,0 -3.21,0c0,-4.21 0,-8.42 0,-12.63z" fill="#000000" id="svg_44"/>
    </g>
    <g id="svg_45">
     <path d="m171.78,230.99c1.73,-0.16 2.74,0.64 3.06,2.4c-1.63,0 -3.26,0 -4.89,0c0.16,-1.18 0.77,-1.98 1.83,-2.4z" fill="#fefefe" id="svg_46"/>
    </g>
    <g id="svg_47">
     <path d="m206.15,231.15c1.97,-0.15 3.12,0.81 3.44,2.88c0.4,2.36 -0.49,3.8 -2.67,4.32c-1.51,-0.23 -2.41,-1.13 -2.67,-2.72c-0.29,-1.96 0.35,-3.45 1.91,-4.48l-0.01,0z" fill="#fefefe" id="svg_48"/>
    </g>
    <g id="svg_49">
     <path d="m137.26,231.15c1.99,0.29 2.75,1.49 2.29,3.6c0.49,2 -0.23,3.14 -2.14,3.44c-1.86,-0.35 -2.78,-1.52 -2.75,-3.52c0,-1.92 0.86,-3.1 2.6,-3.52z" fill="#fefefe" id="svg_50"/>
    </g>
    <g id="svg_51">
     <path d="m92.51,233.54c1.48,-0.03 2.95,0 4.43,0.08c1.36,0.63 1.74,1.67 1.15,3.12c-0.3,0.42 -0.68,0.71 -1.15,0.88c-1.48,0.08 -2.95,0.11 -4.43,0.08c0,-1.39 0,-2.77 0,-4.16z" fill="#fefefe" id="svg_52"/>
    </g>
    <g id="svg_53">
     <path d="m134.36,248.74c1.48,0 2.95,0 4.43,0c1.69,5.73 3.47,11.43 5.35,17.11c-1.26,0.21 -2.5,0.21 -3.74,0c-0.22,-0.96 -0.5,-1.89 -0.84,-2.8c-2.04,-0.11 -4.07,-0.11 -6.11,0c-0.31,0.96 -0.61,1.92 -0.92,2.88c-1.22,0.11 -2.44,0.11 -3.67,0c1.88,-5.71 3.71,-11.44 5.5,-17.19z" fill="#000000" id="svg_54"/>
    </g>
    <g id="svg_55">
     <path d="m145.97,248.74c1.12,0 2.24,0 3.36,0c-0.03,1.81 0,3.62 0.08,5.44c1.75,-1.18 3.56,-1.26 5.42,-0.24c0.55,0.47 0.99,1.03 1.3,1.68c0.22,3.46 0.3,6.92 0.23,10.39c-1.07,0 -2.14,0 -3.21,0c0.03,-2.77 0,-5.54 -0.08,-8.31c-0.13,-1.07 -0.71,-1.6 -1.76,-1.6c-0.9,0.11 -1.54,0.59 -1.91,1.44c-0.08,2.82 -0.1,5.65 -0.08,8.47c-1.12,0 -2.24,0 -3.36,0c0,-5.76 0,-11.51 0,-17.27l0.01,0z" fill="#000000" id="svg_56"/>
    </g>
    <g id="svg_57">
     <path d="m193.48,248.74c1.07,0 2.14,0 3.21,0c0,5.76 0,11.51 0,17.27c-1.07,0 -2.14,0 -3.21,0c0.02,-0.22 0,-0.43 -0.08,-0.64c-1.2,1.01 -2.55,1.3 -4.05,0.88c-2.76,-1.11 -4.13,-3.21 -4.12,-6.32c-0.1,-3.24 1.28,-5.45 4.12,-6.64c1.42,-0.28 2.74,-0.04 3.97,0.72c0.15,-1.76 0.2,-3.51 0.15,-5.28l0.01,0.01z" fill="#000000" id="svg_58"/>
    </g>
    <g id="svg_59">
     <path d="m136.5,252.57c0.8,2.41 1.52,4.86 2.14,7.35c-1.43,0.05 -2.85,0 -4.28,-0.16c0.71,-2.4 1.43,-4.8 2.14,-7.19z" fill="#fcfcfc" id="svg_60"/>
    </g>
    <g id="svg_61">
     <path d="m163.08,253.22c5.05,-0.2 7.44,2.35 7.18,7.67c-2.75,0 -5.5,0 -8.25,0c0.43,1.93 1.6,2.76 3.51,2.48c0.75,-0.18 1.41,-0.52 1.99,-1.04c0.56,0.75 1.12,1.49 1.68,2.24c-1.2,1.25 -2.65,1.89 -4.35,1.92c-4.58,-0.59 -6.62,-3.31 -6.11,-8.15c0.46,-2.64 1.91,-4.35 4.35,-5.12z" fill="#000000" id="svg_62"/>
    </g>
    <g id="svg_63">
     <path d="m176.06,253.22c1.23,-0.06 2.45,0.02 3.67,0.24c1.89,0.7 2.78,2.11 2.67,4.24c0.05,1.76 0.1,3.52 0.15,5.28c0.24,0.52 0.62,0.86 1.15,1.04c-0.44,0.62 -0.82,1.29 -1.15,2c-0.53,0.56 -1.11,0.58 -1.76,0.08c-0.33,-0.21 -0.63,-0.45 -0.92,-0.72c-2.06,1.29 -4.15,1.37 -6.26,0.24c-1.05,-0.74 -1.61,-1.77 -1.68,-3.12c0.16,-2.22 1.28,-3.58 3.36,-4.08c1.26,-0.22 2.54,-0.36 3.82,-0.4c0.13,-0.76 -0.12,-1.32 -0.76,-1.68c-1.57,-0.24 -3.05,0.05 -4.43,0.88c-0.56,-0.84 -0.94,-1.75 -1.15,-2.72c1.05,-0.6 2.14,-1.03 3.28,-1.28l0.01,0z" fill="#000000" id="svg_64"/>
    </g>
    <g id="svg_65">
     <path d="m163.69,256.1c1.88,-0.33 2.95,0.47 3.21,2.4c-1.58,0.03 -3.16,0 -4.74,-0.08c-0.05,-0.05 -0.1,-0.11 -0.15,-0.16c0.29,-0.96 0.85,-1.68 1.68,-2.16z" fill="#fdfdfd" id="svg_66"/>
    </g>
    <g id="svg_67">
     <path d="m190.88,256.25c1.14,-0.08 1.98,0.4 2.52,1.44c0.1,1.39 0.1,2.77 0,4.16c-1.37,1.8 -2.79,1.86 -4.28,0.16c-0.79,-1.72 -0.69,-3.37 0.31,-4.96c0.44,-0.38 0.93,-0.65 1.45,-0.8z" fill="#fefefe" id="svg_68"/>
    </g>
    <g id="svg_69">
     <path d="m177.59,260.73c0.51,0 1.02,0 1.53,0c0.45,1.85 -0.22,2.8 -1.99,2.88c-1.02,0.06 -1.63,-0.42 -1.83,-1.44c0.05,-0.35 0.21,-0.64 0.46,-0.88c0.61,-0.27 1.22,-0.45 1.83,-0.56z" fill="#fdfdfd" id="svg_70"/>
    </g>
    <g id="svg_71">
     <path d="m56.61,279.75c0.9,4.83 3.65,7.76 8.25,8.79c-2.75,0 -5.5,0 -8.25,0c0,-2.93 0,-5.86 0,-8.79z" fill="#fdfdfd" id="svg_72"/>
    </g>
   </g>
   <g id="svg_8">
    <g id="svg_95">
     <polyline fill="none" id="svg_73" opacity="0.5" points="176.1085970401764,134.933349609375 " stroke="#000000" stroke-linecap="round"/>
     <g id="svg_74">
      <path d="m161.34,81.96c-0.51,-0.13 -1.02,-0.18 -1.58,-0.18c-4.59,-0.86 -7.61,-3.23 -9.08,-7.07c-1.22,-4.22 0.02,-7.78 3.72,-10.69c4.27,-2.76 8.82,-3.09 13.6,-0.93c4.36,2.39 6.26,5.81 5.7,10.27c-1.54,5.61 -5.65,8.48 -12.36,8.62l0,-0.02z" fill="#010101" id="svg_75"/>
     </g>
     <g id="svg_76">
      <path d="m159.73,81.79c0.56,0 1.09,0.04 1.58,0.18c-0.56,0 -1.07,-0.07 -1.58,-0.18z" fill="#46484c" id="svg_80"/>
     </g>
     <g id="svg_81">
      <path d="m161.63,82.47c-0.96,0 -1.91,0.02 -2.87,0.09c0.58,-0.13 1.16,-0.18 1.78,-0.18c0.38,0 0.76,0.02 1.09,0.09z" fill="#4f4f55" id="svg_82"/>
     </g>
     <g id="svg_83">
      <path d="m161.63,82.47c4.74,0.68 7.81,3 9.17,6.98c0.09,0.42 0.2,0.86 0.29,1.28c0.04,3 0.07,6.03 0.04,9.04c5.59,-0.04 11.18,0 16.76,0.13c1.69,0.35 2.76,1.24 3.23,2.7c0.33,1.66 -0.24,3 -1.74,4.04c-0.4,0.24 -0.82,0.42 -1.29,0.51c-5.65,0.04 -11.31,0.07 -16.96,0.04c0,1.79 0,3.58 0,5.37c0.16,0 0.33,0 0.49,0c0,0.09 0.04,0.13 0.16,0.18c0.2,-0.04 0.4,-0.07 0.6,-0.09c6.63,0.13 13.27,0.2 19.9,0.27c0,-0.11 0,-0.22 0,-0.33c1.96,-0.02 3.9,0 5.85,0.04c1.56,0.33 2.85,0.99 3.92,2.01c5.23,7.49 10.51,14.93 15.83,22.38c0.16,0 0.33,-0.02 0.49,-0.09c1.14,-0.68 2.32,-1.28 3.56,-1.79c2.34,-0.55 4.41,-0.11 6.14,1.33c1.36,1.7 1.16,3.25 -0.6,4.64c-4.72,2.45 -9.42,4.95 -14.09,7.51c-0.09,0.07 -0.2,0.07 -0.29,0c-6.48,-7.47 -12.89,-14.96 -19.3,-22.47c-0.18,-0.15 -0.36,-0.31 -0.56,-0.46c-1.91,-0.04 -3.83,-0.07 -5.74,-0.04c-9.02,-0.02 -18.05,-0.11 -27.09,-0.27c-0.4,0.07 -0.85,0.13 -1.29,0.18c-2.4,-0.24 -4.45,-1.1 -6.1,-2.65c-1.87,-1.81 -2.89,-3.95 -3.07,-6.38c-0.09,-8.7 -0.07,-17.39 0.09,-26.09c0.62,-2.98 2.43,-5.28 5.41,-6.87c1.05,-0.46 2.14,-0.8 3.27,-0.97c0.96,-0.07 1.91,-0.09 2.87,-0.09l0.04,-0.02z" fill="#000000" id="svg_84"/>
     </g>
     <g id="svg_85">
      <path d="m145.75,97.73c0.09,2.74 0.13,5.5 0.09,8.26c-5.9,4.37 -9.35,9.92 -10.31,16.61c-0.16,0.44 -0.2,0.88 -0.2,1.37c-0.38,9.52 3.78,17.19 12.51,22.97c7.57,4.48 15.87,5.9 24.91,4.26c9.51,-2.23 16.41,-7.16 20.68,-14.78c0.71,-1.57 1.36,-3.16 1.94,-4.77c1.87,2.12 3.78,4.22 5.7,6.32c0.07,0.13 0.07,0.29 0,0.42c-4.63,8.88 -12.29,14.98 -22.91,18.34c-11.89,3.27 -23.09,2.03 -33.59,-3.71c-8.97,-5.39 -14.45,-12.72 -16.43,-22.02c-1.85,-11.38 1.94,-21.12 11.35,-29.2c1.94,-1.52 4.03,-2.87 6.26,-4.04l0,-0.02z" fill="#020202" id="svg_86"/>
     </g>
     <g id="svg_87">
      <path d="m145.71,97.78c0,-0.04 0.04,-0.07 0.11,-0.09c0.16,2.78 0.16,5.54 0,8.28c0.04,-2.74 0,-5.48 -0.11,-8.2z" fill="#000000" id="svg_88"/>
     </g>
     <g id="svg_89">
      <path d="m171.62,112.56c6.99,0 13.98,0 20.99,0c0,0.22 0,0.42 0,0.64c-6.75,-0.09 -13.49,-0.24 -20.24,-0.49c-0.2,0.02 -0.4,0.07 -0.6,0.15c-0.11,-0.04 -0.16,-0.15 -0.16,-0.31z" fill="#04040f" id="svg_90"/>
     </g>
     <g id="svg_91">
      <path d="m135.53,122.61c0,0.46 -0.07,0.93 -0.2,1.37c-0.02,-0.46 0.04,-0.93 0.2,-1.37z" fill="#727075" id="svg_92"/>
     </g>
     <g id="svg_93">
      <path d="m187.52,125.59c-9.48,0.02 -18.92,0 -28.38,-0.09c0.45,-0.04 0.89,-0.11 1.29,-0.18c9.04,0.13 18.05,0.22 27.09,0.27z" fill="#07061b" id="svg_94"/>
     </g>
    </g>
   </g>
  </g>
  <use id="svg_98" transform="matrix(0.153179 0 0 0.162124 -59.2639 -115.707)" x="756.46" xlink:href="#svg_97" y="1941.95"/>
 </g>
 <defs>
  <symbol clip-rule="evenodd" fill-rule="evenodd" height="560px" id="svg_97" version="1.1" width="1397px" xmlns="http://www.w3.org/2000/svg" xmlns:xlink="http://www.w3.org/1999/xlink">
   <g>
    <path d="m-0.5,-0.5c19,0 38,0 57,0c-31.7,5.03 -50.7,23.36 -57,55c0,-18.33 0,-36.67 0,-55z" fill="#fdfdfd"/>
   </g>
   <g>
    <path d="m1338.5,-0.5c19.33,0 38.67,0 58,0c0,19.33 0,38.67 0,58c-5,-33.67 -24.33,-53 -58,-58z" fill="#fdfdfd"/>
   </g>
   <g>
    <path d="m56.5,-0.5c427.33,0 854.67,0 1282,0c33.67,5 53,24.33 58,58c0,147.67 0,295.33 0,443c-4.36,31.86 -22.36,51.03 -54,57.5c-429.67,0.67 -859.33,0.67 -1289,0c-22.34,-3.42 -38.5,-15.25 -48.5,-35.5c-2.32,-6.32 -4.16,-12.65 -5.5,-19c0,-149.67 0,-299.33 0,-449c6.3,-31.64 25.3,-49.97 57,-55z" fill="#010100"/>
   </g>
   <g>
    <path d="m53.5,23.5c429.67,-0.17 859.33,0 1289,0.5c16.81,4.42 26.64,15.26 29.5,32.5c0.67,148.33 0.67,296.67 0,445c-2.91,16.67 -12.41,27.5 -28.5,32.5c-430.33,0.67 -860.67,0.67 -1291,0c-15.28,-4.28 -24.78,-14.11 -28.5,-29.5c-0.67,-150.33 -0.67,-300.67 0,-451c4.02,-15.85 13.85,-25.85 29.5,-30z" fill="#fefefe"/>
   </g>
   <g>
    <path d="m198.5,151.5c12.82,-1.35 18.32,4.32 16.5,17c-6.89,8.93 -14.22,9.27 -22,1c-3.03,-7.58 -1.2,-13.58 5.5,-18z" fill="#020202"/>
   </g>
   <g>
    <path d="m258.5,151.5c7.41,-0.35 14.74,0.15 22,1.5c0.6,1.06 0.93,2.23 1,3.5c-0.5,5.02 -1.17,10.02 -2,15c-11.47,-4.76 -17.47,-1.1 -18,11c4.67,0 9.33,0 14,0c0,6 0,12 0,18c-4.67,0 -9.33,0 -14,0c0,20.33 0,40.67 0,61c-7,0 -14,0 -21,0c0,-20.33 0,-40.67 0,-61c-4,0 -8,0 -12,0c0,-6 0,-12 0,-18c4,0 8,0 12,0c-2.37,-15.62 3.63,-25.96 18,-31z" fill="#010101"/>
   </g>
   <g>
    <path d="m316.5,151.5c7.41,-0.35 14.74,0.15 22,1.5c0.91,6.15 0.57,12.31 -1,18.5c-11.47,-4.76 -17.47,-1.1 -18,11c5,0 10,0 15,0c0,6 0,12 0,18c-5,0 -10,0 -15,0c0,20.33 0,40.67 0,61c-7,0 -14,0 -21,0c0,-20.33 0,-40.67 0,-61c-4,0 -8,0 -12,0c0,-6 0,-12 0,-18c4,0 8,0 12,0c-2.13,-15.45 3.87,-25.79 18,-31z" fill="#010101"/>
   </g>
   <g>
    <path d="m695.5,152.5c0.99,9.82 1.33,19.82 1,30c6.67,0 13.33,0 20,0c0,6 0,12 0,18c-6.67,0 -13.33,0 -20,0c-0.17,13 0,26 0.5,39c0.83,2.17 2.33,3.67 4.5,4.5c4.49,0.56 8.82,0.23 13,-1c1.33,5.33 2.67,10.67 4,16c-11.48,5.48 -23.14,5.81 -35,1c-2.93,-2.26 -5.1,-5.1 -6.5,-8.5c-1.46,-16.93 -1.96,-33.93 -1.5,-51c-4.33,0 -8.67,0 -13,0c0,-6 0,-12 0,-18c4.33,0 8.67,0 13,0c-0.33,-7.03 0,-14.03 1,-21c6.54,-2.78 12.88,-5.78 19,-9z" fill="#000000"/>
   </g>
   <g>
    <path d="m84.5,153.5c16.67,-0.17 33.34,0 50,0.5c27.54,6.4 41.21,23.9 41,52.5c0.97,19.22 -6.03,34.72 -21,46.5c-5.9,3.52 -12.23,5.86 -19,7c-16.97,1.34 -33.97,1.84 -51,1.5c0,-36 0,-72 0,-108z" fill="#010101"/>
   </g>
   <g>
    <path d="m731.5,153.5c7,0 14,0 21,0c-0.17,28.67 0,57.34 0.5,86c0.47,1.43 1.3,2.6 2.5,3.5c3.92,0.79 7.76,0.63 11.5,-0.5c1.45,6.24 2.29,12.58 2.5,19c-11.26,3.59 -21.92,2.43 -32,-3.5c-1.62,-2.08 -3.12,-4.25 -4.5,-6.5c-1.47,-32.62 -1.97,-65.28 -1.5,-98z" fill="#000000"/>
   </g>
   <g>
    <path d="m936.5,153.5c9.67,0 19.33,0 29,0c11.67,36 23.33,72 35,108c-8,0 -16,0 -24,0c-1.3,-6.72 -3.3,-13.22 -6,-19.5c-13.35,-0.83 -26.68,-0.67 -40,0.5c-1.91,6.22 -3.91,12.39 -6,18.5c-7.66,0.5 -15.33,0.67 -23,0.5c11.27,-36.13 22.93,-72.13 35,-108z" fill="#020202"/>
   </g>
   <g>
    <path d="m1012.5,153.5c7.33,0 14.67,0 22,0c-0.33,10.69 0,21.35 1,32c19.64,-9.47 35.47,-5.13 47.5,13c6.87,14.88 7.2,29.88 1,45c-8.65,15.74 -21.81,21.9 -39.5,18.5c-3.28,-0.97 -6.28,-2.47 -9,-4.5c-0.93,1.19 -1.26,2.52 -1,4c-7.25,0.31 -14.42,-0.02 -21.5,-1c-0.5,-35.66 -0.67,-71.33 -0.5,-107z" fill="#040404"/>
   </g>
   <g>
    <path d="m1103.5,153.5c7,0 14,0 21,0c-0.17,28 0,56 0.5,84c0.35,2.35 1.51,4.18 3.5,5.5c3.73,0.76 7.39,0.59 11,-0.5c1.25,6.3 2.25,12.64 3,19c-10.71,3.46 -21.05,2.62 -31,-2.5c-2.93,-2.26 -5.1,-5.1 -6.5,-8.5c-1.46,-32.29 -1.96,-64.62 -1.5,-97z" fill="#000000"/>
   </g>
   <g>
    <path d="m1292.5,153.5c7,0 14,0 21,0c0,36 0,72 0,108c-7,0 -14,0 -21,0c0.26,-1.48 -0.07,-2.81 -1,-4c-16.56,9.26 -31.4,6.92 -44.5,-7c-8.02,-11.48 -10.68,-24.15 -8,-38c4.68,-22.69 18.51,-33.19 41.5,-31.5c3.87,1.01 7.53,2.51 11,4.5c1,-10.65 1.33,-21.31 1,-32z" fill="#010101"/>
   </g>
   <g>
    <path d="m106.5,173.5c27.48,-5.99 42.81,4.84 46,32.5c-2.19,28.67 -17.53,40.17 -46,34.5c0,-22.33 0,-44.67 0,-67z" fill="#fefefe"/>
   </g>
   <g>
    <path d="m950.5,176.5c5.27,14.98 10.27,30.14 15,45.5c-9.67,0.67 -19.33,0.67 -29,0c4.97,-15.07 9.63,-30.23 14,-45.5z" fill="#fdfdfd"/>
   </g>
   <g>
    <path d="m376.5,180.5c31.21,-0.62 46.04,14.71 44.5,46c-17.6,1.98 -35.43,2.65 -53.5,2c0.48,6.79 3.81,11.63 10,14.5c9.31,2.91 17.81,1.41 25.5,-4.5c4.32,3.82 8.15,8.16 11.5,13c-12.74,11.41 -27.41,14.57 -44,9.5c-13.5,-5.83 -21.67,-15.99 -24.5,-30.5c-2.81,-16.63 1.69,-30.8 13.5,-42.5c5.28,-3.65 10.95,-6.15 17,-7.5z" fill="#010101"/>
   </g>
   <g>
    <path d="m472.5,180.5c3.33,0 6.67,0 10,0c0,7 0,14 0,21c-10.54,-1.78 -18.38,1.89 -23.5,11c-1.44,16.28 -1.94,32.61 -1.5,49c-7,0 -14,0 -21,0c0,-26.33 0,-52.67 0,-79c7,0 14,0 21,0c-0.16,2.69 0,5.35 0.5,8c4.01,-4.74 8.85,-8.07 14.5,-10z" fill="#010101"/>
   </g>
   <g>
    <path d="m522.5,180.5c31.18,-0.65 46.02,14.69 44.5,46c-17.6,1.98 -35.43,2.65 -53.5,2c0.48,6.79 3.81,11.63 10,14.5c9.32,2.91 17.82,1.41 25.5,-4.5c4.32,3.82 8.15,8.16 11.5,13c-7.87,8.1 -17.54,12.1 -29,12c-21.58,-1.03 -34.75,-12.03 -39.5,-33c-2.81,-16.6 1.69,-30.76 13.5,-42.5c5.28,-3.65 10.95,-6.15 17,-7.5z" fill="#000000"/>
   </g>
   <g>
    <path d="m616.5,180.5c11.64,-1.73 21.48,1.6 29.5,10c1.83,2.81 3.16,5.81 4,9c1.58,20.3 1.91,40.63 1,61c-7.08,0.98 -14.25,1.31 -21.5,1c0.17,-18 0,-36 -0.5,-54c-1.8,-5.08 -5.47,-7.75 -11,-8c-7.77,0.44 -12.44,4.44 -14,12c-0.5,16.66 -0.67,33.33 -0.5,50c-7,0 -14,0 -21,0c0,-26.33 0,-52.67 0,-79c7,0 14,0 21,0c-0.16,1.7 0.01,3.37 0.5,5c4.02,-2.75 8.18,-5.09 12.5,-7z" fill="#020202"/>
   </g>
   <g>
    <path d="m1181.5,180.5c22.34,-2.45 36.84,6.89 43.5,28c1.21,6.61 1.71,13.28 1.5,20c-18,0 -36,0 -54,0c2.82,12.92 10.82,18.09 24,15.5c4.81,-0.99 8.98,-3.16 12.5,-6.5c3.31,4.81 6.81,9.47 10.5,14c-9.36,9.35 -20.7,13.18 -34,11.5c-19.7,-2.7 -31.2,-13.87 -34.5,-33.5c-2.34,-16.16 2.16,-29.99 13.5,-41.5c5.28,-3.65 10.95,-6.15 17,-7.5z" fill="#010101"/>
   </g>
   <g>
    <path d="m193.5,182.5c7,0 14,0 21,0c0,26.33 0,52.67 0,79c-7,0 -14,0 -21,0c0,-26.33 0,-52.67 0,-79z" fill="#010101"/>
   </g>
   <g>
    <path d="m774.5,182.5c7.67,0 15.33,0 23,0c4.66,15.81 9.83,31.48 15.5,47c5.47,-15.23 10.63,-30.57 15.5,-46c7.64,-1.16 15.31,-1.33 23,-0.5c-10.77,31.63 -21.93,63.13 -33.5,94.5c-5.56,6.69 -12.73,10.02 -21.5,10c-5.84,-0.44 -11.51,-1.6 -17,-3.5c1.1,-5.7 2.77,-11.2 5,-16.5c4.53,1.78 9.2,2.28 14,1.5c2.24,-0.73 3.57,-2.23 4,-4.5c-9.54,-27.28 -18.87,-54.61 -28,-82z" fill="#010101"/>
   </g>
   <g>
    <path d="m379.5,198.5c8.85,-0.99 15.35,2.34 19.5,10c0.49,1.63 0.66,3.3 0.5,5c-10.67,0 -21.33,0 -32,0c1.08,-7.41 5.08,-12.41 12,-15z" fill="#fdfdfd"/>
   </g>
   <g>
    <path d="m525.5,198.5c8.85,-0.99 15.35,2.34 19.5,10c0.49,1.63 0.66,3.3 0.5,5c-10.67,0 -21.33,0 -32,0c1.08,-7.41 5.08,-12.41 12,-15z" fill="#fefefe"/>
   </g>
   <g>
    <path d="m1184.5,198.5c8.38,-0.89 14.88,2.11 19.5,9c0.5,1.97 0.66,3.97 0.5,6c-10.69,0.33 -21.35,0 -32,-1c1.58,-6.9 5.58,-11.57 12,-14z" fill="#fdfdfd"/>
   </g>
   <g>
    <path d="m1045.5,199.5c13.8,0.8 20.8,8.13 21,22c0.22,12.27 -5.61,19.6 -17.5,22c-6.06,-0.36 -10.73,-3.03 -14,-8c-0.67,-9 -0.67,-18 0,-27c2.49,-4.33 5.99,-7.33 10.5,-9z" fill="#fefefe"/>
   </g>
   <g>
    <path d="m1276.5,199.5c13.1,1.49 18.43,8.83 16,22c2.84,12.62 -1.99,19.96 -14.5,22c-12.4,-1.91 -18.57,-9.25 -18.5,-22c0.47,-11.69 6.13,-19.03 17,-22z" fill="#fdfdfd"/>
   </g>
   <g>
    <path d="m148.5,309.5c15,-0.17 30,0 45,0.5c21.81,1.48 33.15,13.15 34,35c-0.18,20.69 -10.51,32.36 -31,35c-8.66,0.5 -17.33,0.67 -26,0.5c0,12.33 0,24.67 0,37c-7.33,0 -14.67,0 -22,0c0,-36 0,-72 0,-108z" fill="#010101"/>
   </g>
   <g>
    <path d="m796.5,309.5c9.67,0 19.33,0 29,0c11.67,36 23.33,72 35,108c-8,0 -16,0 -24,0c-1.35,-6.07 -3.02,-12.07 -5,-18c-13.65,-1 -27.32,-1.33 -41,-1c-1.51,6.38 -3.18,12.71 -5,19c-8.03,0.33 -16.03,0 -24,-1c11.87,-35.62 23.54,-71.28 35,-107z" fill="#010101"/>
   </g>
   <g>
    <path d="m873.5,309.5c7,0 14,0 21,0c-0.33,11.35 0,22.69 1,34c12.72,-8.11 25.39,-7.95 38,0.5c4.25,4.67 6.75,10.17 7.5,16.5c0.5,19 0.67,38 0.5,57c-7.33,0 -14.67,0 -22,0c0.17,-18.34 0,-36.67 -0.5,-55c-6.79,-8.88 -14.13,-9.21 -22,-1c-0.86,1.59 -1.53,3.25 -2,5c-0.5,17 -0.67,34 -0.5,51c-7,0 -14,0 -21,0c0,-36 0,-72 0,-108z" fill="#000000"/>
   </g>
   <g>
    <path d="m1183.5,309.5c7.33,0 14.67,0 22,0c0,36 0,72 0,108c-7.33,0 -14.67,0 -22,0c0.16,-1.37 -0.01,-2.71 -0.5,-4c-8.93,7.05 -18.76,8.55 -29.5,4.5c-16.41,-8.12 -24.41,-21.46 -24,-40c1.95,-29.97 17.62,-42.97 47,-39c2.25,1.04 4.41,2.21 6.5,3.5c0.5,-11 0.67,-22 0.5,-33z" fill="#010101"/>
   </g>
   <g>
    <path d="m170.5,330.5c8.74,-0.38 17.4,0.12 26,1.5c7.56,5.02 9.73,11.86 6.5,20.5c-1.17,2.5 -3,4.33 -5.5,5.5c-8.92,1.41 -17.92,1.91 -27,1.5c0,-9.67 0,-19.33 0,-29z" fill="#fefefe"/>
   </g>
   <g>
    <path d="m810.5,333.5c0.62,0.11 1.12,0.44 1.5,1c4.4,14.7 8.9,29.37 13.5,44c-9.65,1.17 -19.32,1.33 -29,0.5c4.97,-15.07 9.63,-30.23 14,-45.5z" fill="#fdfdfd"/>
   </g>
   <g>
    <path d="m267.5,337.5c33.25,-1.41 48.59,14.59 46,48c-18,-0.17 -36,0 -54,0.5c5.3,14.52 15.3,18.86 30,13c2.25,-1.38 4.42,-2.88 6.5,-4.5c4.02,4.52 7.86,9.19 11.5,14c-11.51,10.34 -24.85,13.84 -40,10.5c-15.69,-4.35 -25.19,-14.52 -28.5,-30.5c-3.36,-16.75 0.81,-31.25 12.5,-43.5c5.04,-3.36 10.38,-5.86 16,-7.5z" fill="#010101"/>
   </g>
   <g>
    <path d="m364.5,337.5c3.67,0 7.33,0 11,0c0,7 0,14 0,21c-6.72,-0.75 -13.05,0.42 -19,3.5c-2.12,1.73 -3.62,3.9 -4.5,6.5c-1.45,16.26 -1.95,32.6 -1.5,49c-7.33,0 -14.67,0 -22,0c0,-26 0,-52 0,-78c7.33,0 14.67,0 22,0c-0.31,2.42 0.03,4.76 1,7c3.55,-4.23 7.88,-7.23 13,-9z" fill="#030303"/>
   </g>
   <g>
    <path d="m408.5,337.5c12.23,-1.37 23.89,0.46 35,5.5c2.31,1.31 4.31,2.98 6,5c-3.65,4.8 -7.65,9.3 -12,13.5c-8.26,-5.82 -17.26,-7.32 -27,-4.5c-3.48,2.71 -3.81,5.71 -1,9c11.26,2.9 22.26,6.56 33,11c9.3,8.1 11.46,17.94 6.5,29.5c-3.79,5.65 -8.95,9.48 -15.5,11.5c-18.57,4.97 -35.23,1.47 -50,-10.5c4.05,-4.55 8.22,-8.88 12.5,-13c8.23,6.02 17.4,8.18 27.5,6.5c5.25,-1.59 6.25,-4.59 3,-9c-10.87,-3.05 -21.54,-6.72 -32,-11c-13.54,-12.86 -13.21,-25.52 1,-38c4.24,-2.35 8.57,-4.18 13,-5.5z" fill="#010101"/>
   </g>
   <g>
    <path d="m492.5,337.5c30.96,-3.05 47.62,10.95 50,42c-4.64,33.17 -23.3,45.67 -56,37.5c-15.56,-7.77 -23.23,-20.43 -23,-38c-0.18,-20.95 9.49,-34.79 29,-41.5z" fill="#010101"/>
   </g>
   <g>
    <path d="m590.5,337.5c12.07,-2.12 22.23,1.22 30.5,10c1,2 2,4 3,6c1.47,21.27 1.97,42.6 1.5,64c-7,0 -14,0 -21,0c0.17,-17.34 0,-34.67 -0.5,-52c-1.24,-5.9 -4.9,-8.9 -11,-9c-7.07,0.19 -11.74,3.52 -14,10c-0.5,17 -0.67,34 -0.5,51c-7,0 -14,0 -21,0c0,-26 0,-52 0,-78c7,0 14,0 21,0c-0.26,1.48 0.07,2.81 1,4c3.6,-2.3 7.27,-4.3 11,-6z" fill="#000000"/>
   </g>
   <g>
    <path d="m664.5,337.5c15.6,-2.43 29.6,1.07 42,10.5c-3.82,4.82 -7.99,9.32 -12.5,13.5c-8.91,-6.31 -18.41,-7.48 -28.5,-3.5c-1.96,2.17 -2.3,4.5 -1,7c2,1 4,2 6,3c9.34,1.58 18.34,4.25 27,8c8.86,6.24 12.03,14.74 9.5,25.5c-2.9,8.57 -8.74,14.07 -17.5,16.5c-18.34,4.83 -35,1.5 -50,-10c4.17,-4.83 8.33,-9.67 12.5,-14.5c8.31,6.79 17.81,9.29 28.5,7.5c6.16,-2.8 6.49,-6.13 1,-10c-8.28,-2.49 -16.61,-4.82 -25,-7c-15.39,-7.51 -19.23,-19.01 -11.5,-34.5c5.25,-6.2 11.75,-10.2 19.5,-12z" fill="#010101"/>
   </g>
   <g>
    <path d="m984.5,337.5c33.78,-1.88 49.45,14.12 47,48c-18.01,-0.33 -36.01,0 -54,1c5.63,14.1 15.63,18.26 30,12.5c2.25,-1.38 4.42,-2.88 6.5,-4.5c3.83,4.5 7.67,9 11.5,13.5c-11.27,10.75 -24.6,14.42 -40,11c-20.01,-6.7 -30.01,-20.7 -30,-42c0.8,-19.94 10.47,-33.1 29,-39.5z" fill="#000000"/>
   </g>
   <g>
    <path d="m1069.5,337.5c8.4,-0.37 16.74,0.13 25,1.5c9.59,3.94 15.09,11.11 16.5,21.5c0.33,12.33 0.67,24.67 1,37c1.14,3.81 3.64,6.31 7.5,7.5c-3,5 -6,10 -9,15c-6.6,0.62 -11.77,-1.88 -15.5,-7.5c-6.33,5.25 -13.66,7.92 -22,8c-26.54,-2.77 -34.88,-16.44 -25,-41c4.5,-4.84 10,-8 16.5,-9.5c8.32,-1.12 16.65,-2.12 25,-3c0.59,-2.86 0.09,-5.69 -1.5,-8.5c-11.01,-3.45 -21.51,-2.12 -31.5,4c-3.63,-5.1 -6.63,-10.6 -9,-16.5c7.11,-3.75 14.44,-6.58 22,-8.5z" fill="#010101"/>
   </g>
   <g>
    <path d="m271.5,355.5c8.23,-1.3 14.73,1.37 19.5,8c0.98,2.24 1.48,4.57 1.5,7c-10.67,0 -21.33,0 -32,0c1,-7.02 4.67,-12.02 11,-15z" fill="#fdfdfd"/>
   </g>
   <g>
    <path d="m989.5,355.5c11.96,-1.55 18.96,3.45 21,15c-10.67,0 -21.33,0 -32,0c0.52,-7.39 4.19,-12.39 11,-15z" fill="#fcfcfc"/>
   </g>
   <g>
    <path d="m501.5,355.5c12.88,2.57 19.21,10.57 19,24c0.24,12.25 -5.6,19.59 -17.5,22c-12.43,-1.94 -18.6,-9.27 -18.5,-22c-0.16,-12.4 5.5,-20.4 17,-24z" fill="#fdfdfd"/>
   </g>
   <g>
    <path d="m1166.5,356.5c7.04,-0.4 12.54,2.27 16.5,8c0.67,9.33 0.67,18.67 0,28c-4.83,6.64 -11.33,8.81 -19.5,6.5c-9.79,-5.66 -13.62,-14.16 -11.5,-25.5c1.51,-8.67 6.34,-14.33 14.5,-17z" fill="#fefefe"/>
   </g>
   <g>
    <path d="m1079.5,384.5c3.33,0 6.67,0 10,0c1.37,17.25 -5.96,22.25 -22,15c-3.1,-4.81 -2.43,-8.98 2,-12.5c3.45,-0.88 6.79,-1.72 10,-2.5z" fill="#fdfdfd"/>
   </g>
   <g>
    <path d="m1396.5,500.5c0,19.67 0,39.33 0,59c-465.67,0 -931.33,0 -1397,0c0,-18.67 0,-37.33 0,-56c1.34,6.35 3.18,12.68 5.5,19c10,20.25 26.16,32.08 48.5,35.5c429.67,0.67 859.33,0.67 1289,0c31.64,-6.47 49.64,-25.64 54,-57.5z" fill="#fefefe"/>
   </g>
  </symbol>
 </defs>
</svg>