<?xml version="1.0" encoding="UTF-8" standalone="no"?>
<!-- Created with Inkscape (http://www.inkscape.org/) -->

<svg
   width="49.942535mm"
   height="93.334686mm"
   viewBox="0 0 49.942535 93.334686"
   version="1.1"
   id="svg1"
   inkscape:version="1.4 (86a8ad7, 2024-10-11)"
   sodipodi:docname="guarded 200m.svg"
   xmlns:inkscape="http://www.inkscape.org/namespaces/inkscape"
   xmlns:sodipodi="http://sodipodi.sourceforge.net/DTD/sodipodi-0.dtd"
   xmlns="http://www.w3.org/2000/svg"
   xmlns:svg="http://www.w3.org/2000/svg">
  <sodipodi:namedview
     id="namedview1"
     pagecolor="#ffffff"
     bordercolor="#000000"
     borderopacity="0.25"
     inkscape:showpageshadow="2"
     inkscape:pageopacity="0.0"
     inkscape:pagecheckerboard="0"
     inkscape:deskcolor="#d1d1d1"
     inkscape:document-units="mm"
     inkscape:zoom="1.4378367"
     inkscape:cx="109.88731"
     inkscape:cy="122.05837"
     inkscape:window-width="1920"
     inkscape:window-height="1009"
     inkscape:window-x="-8"
     inkscape:window-y="-8"
     inkscape:window-maximized="1"
     inkscape:current-layer="layer1" />
  <defs
     id="defs1">
    <inkscape:path-effect
       effect="fillet_chamfer"
       id="path-effect1"
       is_visible="true"
       lpeversion="1"
       nodesatellites_param="F,0,0,1,0,2.9104166,0,1 @ F,0,0,1,0,2.9104166,0,1 @ F,0,0,1,0,2.9104166,0,1"
       radius="11"
       unit="px"
       method="auto"
       mode="F"
       chamfer_steps="1"
       flexible="false"
       use_knot_distance="true"
       apply_no_radius="true"
       apply_with_radius="true"
       only_selected="false"
       hide_knots="false" />
    <clipPath
       clipPathUnits="userSpaceOnUse"
       id="clipPath1002">
      <path
         d="M 0,0 H 595.275 V 841.89 H 0 Z"
         id="path1002" />
    </clipPath>
    <clipPath
       clipPathUnits="userSpaceOnUse"
       id="clipPath1004">
      <path
         d="M 0,0 H 595.275 V 841.89 H 0 Z"
         transform="translate(-101.73201,-634.22102)"
         id="path1004" />
    </clipPath>
    <clipPath
       clipPathUnits="userSpaceOnUse"
       id="clipPath1006">
      <path
         d="m 130.837,639.801 h 50.41 v 50.409 h -50.41 z"
         transform="translate(-152.22501,-658.04501)"
         id="path1006" />
    </clipPath>
    <clipPath
       clipPathUnits="userSpaceOnUse"
       id="clipPath1008">
      <path
         d="m 130.837,639.801 h 50.41 v 50.409 h -50.41 z"
         transform="translate(-178.956,-680.39302)"
         id="path1008" />
    </clipPath>
    <clipPath
       clipPathUnits="userSpaceOnUse"
       id="clipPath1010">
      <path
         d="m 130.837,639.801 h 50.41 v 50.409 h -50.41 z"
         transform="translate(-183.22,-679.36802)"
         id="path1010" />
    </clipPath>
    <clipPath
       clipPathUnits="userSpaceOnUse"
       id="clipPath1012">
      <path
         d="m 130.837,639.801 h 50.41 v 50.409 h -50.41 z"
         transform="translate(-172.42701,-672.87502)"
         id="path1012" />
    </clipPath>
    <clipPath
       clipPathUnits="userSpaceOnUse"
       id="clipPath1030">
      <path
         d="M 0,0 H 595.275 V 841.89 H 0 Z"
         transform="translate(-182.46,-512.34001)"
         id="path1030" />
    </clipPath>
    <clipPath
       clipPathUnits="userSpaceOnUse"
       id="clipPath1032">
      <path
         d="M 0,0 H 595.275 V 841.89 H 0 Z"
         transform="translate(-182.46,-542.22701)"
         id="path1032" />
    </clipPath>
    <clipPath
       clipPathUnits="userSpaceOnUse"
       id="clipPath2088">
      <path
         d="M 0,0 H 595.275 V 841.89 H 0 Z"
         id="path2088" />
    </clipPath>
    <clipPath
       clipPathUnits="userSpaceOnUse"
       id="clipPath2092">
      <path
         d="M 0,0 H 595.275 V 841.89 H 0 Z"
         id="path2092" />
    </clipPath>
    <clipPath
       clipPathUnits="userSpaceOnUse"
       id="clipPath2094">
      <path
         d="M 0,0 H 595.275 V 841.89 H 0 Z"
         transform="translate(-101.73201,-269.43801)"
         id="path2094" />
    </clipPath>
    <clipPath
       clipPathUnits="userSpaceOnUse"
       id="clipPath2096">
      <path
         d="M 0,0 H 595.275 V 841.89 H 0 Z"
         transform="translate(-182.46,-147.55701)"
         id="path2096" />
    </clipPath>
    <clipPath
       clipPathUnits="userSpaceOnUse"
       id="clipPath2098">
      <path
         d="M 0,0 H 595.275 V 841.89 H 0 Z"
         transform="translate(-182.46,-177.444)"
         id="path2098" />
    </clipPath>
  </defs>
  <g
     inkscape:label="Layer 1"
     inkscape:groupmode="layer"
     id="layer1"
     transform="translate(-79.90416,-101.86459)">
    <path
       sodipodi:nodetypes="cccc"
       inkscape:connector-curvature="0"
       id="path818"
       d="m 126.39793,141.17502 -20.31206,-35.5461 a 1.6630955,1.6630955 4.4833584e-6 0 0 -2.88794,0 L 82.885874,141.175 a 1.6889809,1.6889809 59.872457 0 0 1.466446,2.52695 l 40.57916,2e-5 a 1.6889795,1.6889795 120.12757 0 0 1.46645,-2.52695 z"
       style="fill:#ffffff;fill-opacity:1;stroke:none;stroke-width:7.79951;stroke-linecap:butt;stroke-linejoin:round;stroke-miterlimit:4;stroke-dasharray:none;stroke-dashoffset:0;stroke-opacity:1"
       inkscape:path-effect="#path-effect1"
       inkscape:original-d="m 127.8419,143.70197 -23.2,-40.6 -23.199997,40.59998 z"
       transform="translate(0.18401633,-0.55204646)" />
    <path
       id="path2087"
       d="m 174.478,282.257 h 4.589 v 12.699 h -4.589 z m -11.914,0 h 4.592 v 12.699 h -4.592 z m -12.012,0 h 4.686 v 12.699 h -4.686 z m -11.921,0 h 4.69 v 12.699 h -4.69 z m 47.762,0 h 1.859 v -4.686 h -1.859 v -4.589 h -7.326 v 4.589 h -4.589 v -4.589 h -7.323 v 4.589 h -4.591 v -4.589 h -7.326 v 4.589 h -4.686 v -4.589 h -7.229 v 4.589 h -4.692 v -4.589 h -7.223 v 4.589 h -1.958 v 4.686 h 1.958 v 12.701 h -1.958 v 4.588 h 1.958 v 2.637 l 3.613,4.686 3.61,-4.686 v -2.637 h 4.692 v 2.637 l 3.612,4.686 3.617,-4.686 v -2.637 h 4.686 v 2.637 l 3.61,4.686 3.716,-4.686 v -2.637 h 4.591 v 2.637 l 3.613,4.686 3.71,-4.686 v -2.637 h 4.589 v 2.637 l 3.614,4.686 3.712,-4.686 v -2.637 h 1.859 v -4.588 h -1.859 v -12.701 12.701 z"
       style="fill:#000000;fill-opacity:1;fill-rule:nonzero;stroke:none"
       transform="matrix(0.35277776,0,0,-0.35277776,48.831503,236.27389)"
       clip-path="url(#clipPath2088)" />
    <path
       id="path2091"
       d="m 182.46,116.858 h -47.19 v 141.569 h 47.19 z"
       style="fill:#ffffff;fill-opacity:1;fill-rule:nonzero;stroke:#000000;stroke-width:0.852;stroke-linecap:butt;stroke-linejoin:miter;stroke-miterlimit:10;stroke-dasharray:none;stroke-opacity:1"
       transform="matrix(0.35277776,0,0,-0.35277776,48.831503,236.27389)"
       clip-path="url(#clipPath2092)" />
    <path
       id="path2093"
       d="M 0,0 57.133,97.325 114.267,0 Z M 126.883,0.258 95.314,54.032 63.745,107.811 c -2.938,5.005 -10.285,5.005 -13.224,0 L 18.95,54.032 -12.616,0.258 c -2.942,-5.008 0.732,-11.269 6.611,-11.269 h 63.139 63.137 c 5.877,0 9.551,6.261 6.612,11.269"
       style="fill:#e01f26;fill-opacity:1;fill-rule:nonzero;stroke:none"
       transform="matrix(0.35277776,0,0,-0.35277776,84.720292,141.22216)"
       clip-path="url(#clipPath2094)" />
    <path
       id="path2095"
       d="M 0,0 -47.19,47.19 V 59.774 L 0,12.584 Z"
       style="fill:#e01f26;fill-opacity:1;fill-rule:nonzero;stroke:none"
       transform="matrix(0.35277776,0,0,-0.35277776,113.19934,184.21906)"
       clip-path="url(#clipPath2096)" />
    <path
       id="path2097"
       d="M 0,0 -47.19,47.19 V 59.774 L 0,12.584 Z"
       style="fill:#e01f26;fill-opacity:1;fill-rule:nonzero;stroke:none"
       transform="matrix(0.35277776,0,0,-0.35277776,113.19934,173.6756)"
       clip-path="url(#clipPath2098)" />
  </g>
</svg>
