<?xml version="1.0" encoding="UTF-8" standalone="no"?>
<svg
   width="2402.2356"
   height="4858.0591"
   viewBox="0 0 2402.2356 4856.4044"
   version="1.1"
   id="svg3"
   xml:space="preserve"
   xmlns="http://www.w3.org/2000/svg"
   xmlns:svg="http://www.w3.org/2000/svg"><defs
     id="defs3"><clipPath
       clipPathUnits="userSpaceOnUse"
       id="clipPath2532"><path
         id="path2534"
         d="M 85.390158,81.854081 47.678955,16.536355 9.9677452,81.854038 Z"
         style="fill:#ffffff;fill-opacity:1;stroke:none;stroke-width:12.6128;stroke-linecap:butt;stroke-linejoin:round;stroke-miterlimit:4;stroke-dasharray:none;stroke-dashoffset:0;stroke-opacity:1" /></clipPath></defs><g
     id="surface1"
     transform="translate(679.02002,1922.5591)"><rect
       x="0"
       y="0"
       width="1000"
       height="2935"
       style="fill:#ffffff;fill-opacity:1;stroke:none"
       id="rect1" /><path
       style="fill:#000000;fill-opacity:1;fill-rule:nonzero;stroke:none"
       d="M 6.453125,6.449219 H 993.59375 V 2928.6094 H 6.453125 Z m 0,0"
       id="path1" /><path
       style="fill:#ffffff;fill-opacity:1;fill-rule:nonzero;stroke:none"
       d="M 16.128906,16.125 H 983.91406 V 2918.9336 H 16.128906 Z m 0,0"
       id="path2" /><path
       style="fill:#e31735;fill-opacity:1;fill-rule:nonzero;stroke:none"
       d="m 16.128906,1048.543 v 279.3281 l 967.785154,558.6445 v -279.3281 z m 0,0"
       id="path3" /></g><g
     id="layer1"
     transform="matrix(25.212686,0,0,22.708909,1.8955725,-121.34814)"><path
       id="path814"
       d="M 88.960492,84.416633 47.678877,12.914838 6.3974062,84.416579 Z"
       style="fill:none;fill-opacity:1;stroke:#ed1c24;stroke-width:12.58;stroke-linecap:butt;stroke-linejoin:round;stroke-miterlimit:4;stroke-dasharray:none;stroke-dashoffset:0;stroke-opacity:1" /><path
       id="path2526"
       d="M 88.960492,84.416633 47.678877,12.914838 6.3974062,84.416579 Z"
       style="fill:none;fill-opacity:1;stroke:#ed1c24;stroke-width:12.58;stroke-linecap:butt;stroke-linejoin:round;stroke-miterlimit:4;stroke-dasharray:none;stroke-dashoffset:0;stroke-opacity:1"
       clip-path="url(#clipPath2532)" /><path
       id="path2529"
       d="M 85.390157,81.854081 47.678956,16.536355 9.9677452,81.854038 Z"
       style="fill:#ffffff;fill-opacity:1;stroke:none;stroke-width:12.6128;stroke-linecap:butt;stroke-linejoin:round;stroke-miterlimit:4;stroke-dasharray:none;stroke-dashoffset:0;stroke-opacity:1" /><g
       id="g1273"><rect
         width="45.070938"
         height="3.2989969"
         x="25.143482"
         y="60.084209"
         fill="#000000"
         stroke="none"
         id="rect1106"
         style="fill-rule:evenodd;stroke-width:0.142522" /><rect
         width="45.070938"
         height="3.2989969"
         x="25.143482"
         y="72.317986"
         fill="#000000"
         stroke="none"
         id="rect1108"
         style="fill-rule:evenodd;stroke-width:0.142522" /><path
         style="fill-rule:evenodd;stroke-width:0.137458"
         d="m 62.112063,79.053437 v -20.61873 l 2.611706,-3.436455 2.611705,3.436455 v 20.61873"
         id="path1442" /><path
         style="fill-rule:evenodd;stroke-width:0.137458"
         d="m 53.589654,79.053437 v -20.61873 l 2.611706,-3.436455 2.611706,3.436455 v 20.61873"
         id="path1440" /><path
         style="fill-rule:evenodd;stroke-width:0.137458"
         d="m 45.067246,79.053437 v -20.61873 l 2.611706,-3.436455 2.611705,3.436455 v 20.61873"
         id="path1438" /><path
         style="fill-rule:evenodd;stroke-width:0.137458"
         d="m 36.544837,79.053437 v -20.61873 l 2.611706,-3.436455 2.611706,3.436455 v 20.61873"
         id="path1436" /><path
         style="fill-rule:evenodd;stroke-width:0.137458"
         d="m 28.022429,79.053437 v -20.61873 l 2.611706,-3.436455 2.611705,3.436455 v 20.61873"
         id="path1110" /></g></g></svg>
