<?xml version="1.0" encoding="UTF-8" standalone="no"?>
<!-- Created with Inkscape (http://www.inkscape.org/) -->

<svg
   width="359.59207"
   height="317.78671"
   viewBox="0 0 95.142067 84.081067"
   version="1.1"
   id="svg292"
   xml:space="preserve"
   inkscape:version="1.2.1 (9c6d41e410, 2022-07-14)"
   sodipodi:docname="Indian Road Sign II-40.svg"
   xmlns:inkscape="http://www.inkscape.org/namespaces/inkscape"
   xmlns:sodipodi="http://sodipodi.sourceforge.net/DTD/sodipodi-0.dtd"
   xmlns="http://www.w3.org/2000/svg"
   xmlns:svg="http://www.w3.org/2000/svg"><sodipodi:namedview
     id="namedview294"
     pagecolor="#505050"
     bordercolor="#eeeeee"
     borderopacity="1"
     inkscape:showpageshadow="0"
     inkscape:pageopacity="0"
     inkscape:pagecheckerboard="0"
     inkscape:deskcolor="#505050"
     inkscape:document-units="mm"
     showgrid="false"
     inkscape:zoom="1.6819304"
     inkscape:cx="266.3606"
     inkscape:cy="201.85139"
     inkscape:window-width="1920"
     inkscape:window-height="991"
     inkscape:window-x="-9"
     inkscape:window-y="-9"
     inkscape:window-maximized="1"
     inkscape:current-layer="layer1"
     showguides="true"><sodipodi:guide
       position="308.63595,39.942764"
       orientation="1,0"
       id="guide2243"
       inkscape:locked="false" /></sodipodi:namedview><defs
     id="defs289"><inkscape:path-effect
       effect="fillet_chamfer"
       id="path-effect2908"
       is_visible="true"
       lpeversion="1"
       nodesatellites_param="F,0,0,1,0,4.0878675,0,1 @ F,0,0,1,0,1.6885452,0,1 @ F,0,0,1,0,0.40570983,0,1 @ F,0,0,1,0,0.49262617,0,1 @ F,0,0,1,0,0.79618528,0,1 @ F,0,0,1,0,0,0,1 @ F,0,0,1,0,0,0,1 @ F,0,0,1,0,0,0,1 @ F,0,0,1,0,0,0,1 @ F,0,0,1,0,0,0,1 @ F,0,0,1,0,0,0,1 @ F,0,0,1,0,0.55617244,0,1 @ F,0,0,1,0,0,0,1 @ F,0,0,1,0,0,0,1 @ F,0,0,1,0,0,0,1 @ F,0,0,1,0,1.654086,0,1 @ F,0,0,1,0,0,0,1 @ F,0,0,1,0,0,0,1 @ F,0,0,1,0,0.98128185,0,1 @ F,0,0,1,0,0,0,1 @ F,0,0,1,0,0,0,1 | F,0,0,1,0,0.43103364,0,1 @ F,0,0,1,0,0.57302446,0,1 @ F,0,0,1,0,0,0,1 @ F,0,0,1,0,0,0,1 @ F,0,0,1,0,1.1123449,0,1 @ F,0,0,1,0,0,0,1 @ F,0,0,1,0,0,0,1"
       unit="px"
       method="auto"
       mode="F"
       radius="0"
       chamfer_steps="1"
       flexible="false"
       use_knot_distance="true"
       apply_no_radius="true"
       apply_with_radius="true"
       only_selected="false"
       hide_knots="false" /><clipPath
       id="clipPath2832"><path
         d="M -0.24,595.138 H 317.24 V -0.138 H -0.24 Z"
         id="path2834"
         inkscape:connector-curvature="0" /></clipPath><clipPath
       id="clipPath2840"><path
         d="M 0.03,595.32 H 317.49 V 0 H 0.03 Z"
         id="path2842"
         inkscape:connector-curvature="0" /></clipPath><clipPath
       id="clipPath2858"><path
         d="M -0.24,595.138 H 317.24 V -0.138 H -0.24 Z"
         id="path2860"
         inkscape:connector-curvature="0" /></clipPath><clipPath
       id="clipPath2864"><path
         d="M 0.03,595.32 H 317.49 V 0 H 0.03 Z"
         id="path2866"
         inkscape:connector-curvature="0" /></clipPath><clipPath
       id="clipPath3306"><path
         d="m 199.238,472.977 v -29.74 h 29.744 v 29.74"
         id="path3308"
         inkscape:connector-curvature="0" /></clipPath><clipPath
       id="clipPath3322"><path
         d="M -0.24,595.138 H 317.24 V -0.138 H -0.24 Z"
         id="path3324"
         inkscape:connector-curvature="0" /></clipPath><clipPath
       id="clipPath3330"><path
         d="M 0.03,595.32 H 317.49 V 0 H 0.03 Z"
         id="path3332"
         inkscape:connector-curvature="0" /></clipPath><clipPath
       id="clipPath3344"><path
         d="m 88.233,387.221 v -28.335 h 32.08 v 28.335"
         id="path3346"
         inkscape:connector-curvature="0" /></clipPath><clipPath
       id="clipPath3462"><path
         d="M -0.24,595.138 H 317.24 V -0.138 H -0.24 Z"
         id="path3464"
         inkscape:connector-curvature="0" /></clipPath><clipPath
       id="clipPath3470"><path
         d="M 0.03,595.32 H 317.49 V 0 H 0.03 Z"
         id="path3472"
         inkscape:connector-curvature="0" /></clipPath><clipPath
       id="clipPath3490"><path
         d="M -0.24,595.138 H 317.24 V -0.138 H -0.24 Z"
         id="path3492"
         inkscape:connector-curvature="0" /></clipPath><clipPath
       id="clipPath3496"><path
         d="M 0.03,595.32 H 317.49 V 0 H 0.03 Z"
         id="path3498"
         inkscape:connector-curvature="0" /></clipPath><clipPath
       id="clipPath3520"><path
         d="m 254.788,326.215 v -28.309 h 28.326 v 28.309"
         id="path3522"
         inkscape:connector-curvature="0" /></clipPath><clipPath
       id="clipPath3544"><path
         d="m 145.049,326.142 v -28.333 h 28.342 v 28.333"
         id="path3546"
         inkscape:connector-curvature="0" /></clipPath><clipPath
       id="clipPath3682"><path
         d="M -0.24,595.138 H 317.24 V -0.138 H -0.24 Z"
         id="path3684"
         inkscape:connector-curvature="0" /></clipPath><clipPath
       id="clipPath3690"><path
         d="M 0.03,595.32 H 317.49 V 0 H 0.03 Z"
         id="path3692"
         inkscape:connector-curvature="0" /></clipPath><clipPath
       id="clipPath3980"><path
         d="M -0.24,595.138 H 317.24 V -0.138 H -0.24 Z"
         id="path3982"
         inkscape:connector-curvature="0" /></clipPath><clipPath
       id="clipPath3988"><path
         d="M 0.03,595.32 H 317.49 V 0 H 0.03 Z"
         id="path3990"
         inkscape:connector-curvature="0" /></clipPath><clipPath
       id="clipPath4010"><path
         d="M -0.24,595.138 H 317.24 V -0.138 H -0.24 Z"
         id="path4012"
         inkscape:connector-curvature="0" /></clipPath><clipPath
       id="clipPath4016"><path
         d="M 0.03,595.32 H 317.49 V 0 H 0.03 Z"
         id="path4018"
         inkscape:connector-curvature="0" /></clipPath><clipPath
       id="clipPath4062"><path
         d="m 200.163,177.773 v -28.284 h 28.283 v 28.284"
         id="path4064"
         inkscape:connector-curvature="0" /></clipPath><clipPath
       id="clipPath4090"><path
         d="m 34.886,177.515 v -51.632 h 30.367 v 51.632"
         id="path4092"
         inkscape:connector-curvature="0" /></clipPath><clipPath
       id="clipPath4106"><path
         d="m 34.886,177.515 v -51.632 h 30.367 v 51.632"
         id="path4108"
         inkscape:connector-curvature="0" /></clipPath><clipPath
       id="clipPath4272"><path
         d="m 34.886,177.515 v -51.632 h 30.367 v 51.632"
         id="path4274"
         inkscape:connector-curvature="0" /></clipPath><clipPath
       id="clipPath4304"><path
         d="m 254.653,176.442 v -48.167 h 28.317 v 48.167"
         id="path4306"
         inkscape:connector-curvature="0" /></clipPath><clipPath
       id="clipPath4310"><path
         d="m 253.565,177.983 h 31.181 V 128.8 h -31.181 z"
         id="path4312"
         inkscape:connector-curvature="0" /></clipPath><clipPath
       id="clipPath4316"><path
         d="M -0.24,595.138 H 317.24 V -0.138 H -0.24 Z"
         id="path4318"
         inkscape:connector-curvature="0" /></clipPath><clipPath
       id="clipPath4322"><path
         d="M 0.03,595.32 H 317.49 V 0 H 0.03 Z"
         id="path4324"
         inkscape:connector-curvature="0" /></clipPath><clipPath
       id="clipPath4456"><path
         d="M -0.24,595.138 H 317.24 V -0.138 H -0.24 Z"
         id="path4458"
         inkscape:connector-curvature="0" /></clipPath><clipPath
       id="clipPath4464"><path
         d="M 0.03,595.32 H 317.49 V 0 H 0.03 Z"
         id="path4466"
         inkscape:connector-curvature="0" /></clipPath></defs><g
     inkscape:label="Layer 1"
     inkscape:groupmode="layer"
     id="layer1"
     transform="translate(-0.1079166,-6.6255169)"><path
       inkscape:connector-curvature="0"
       id="path814"
       d="M 88.960492,84.416633 47.678877,12.914838 6.3974062,84.416579 Z"
       inkscape:transform-center-y="-6.06719"
       inkscape:transform-center-x="0.31439696"
       style="fill:none;fill-opacity:1;stroke:#ed1c24;stroke-width:12.5799;stroke-linecap:butt;stroke-linejoin:round;stroke-miterlimit:4;stroke-dasharray:none;stroke-dashoffset:0;stroke-opacity:1"
       sodipodi:nodetypes="cccc" /><path
       sodipodi:nodetypes="cccc"
       inkscape:connector-curvature="0"
       id="path818"
       d="M 85.390157,81.854081 47.678956,16.536355 9.9677452,81.854038 Z"
       style="fill:#ffffff;fill-opacity:1;stroke:none;stroke-width:12.6128;stroke-linecap:butt;stroke-linejoin:round;stroke-miterlimit:4;stroke-dasharray:none;stroke-dashoffset:0;stroke-opacity:1" /><g
       id="g2918"
       style="opacity:1;fill:#000000;fill-opacity:1;stroke:none;stroke-opacity:1"
       transform="translate(-0.15730932)"><path
         id="path2831"
         style="opacity:1;fill:#000000;fill-opacity:1;stroke-width:0.264583"
         d="m 53.593083,40.840294 a 3.5394597,3.5394597 0 0 1 -3.53946,3.53946 3.5394597,3.5394597 0 0 1 -3.53946,-3.53946 3.5394597,3.5394597 0 0 1 3.53946,-3.53946 3.5394597,3.5394597 0 0 1 3.53946,3.53946 z" /><path
         id="path2904"
         style="opacity:1;fill:#000000;fill-opacity:1;stroke:none;stroke-width:0.264583;stroke-opacity:1"
         d="m 44.780614,43.646251 -6.423612,0.831497 c -1.065793,0.13796 -2.02275,0.72233 -2.632301,1.607426 l -3.903837,5.668547 c -0.149869,0.217616 -0.230115,0.475617 -0.230115,0.739847 v 0.187903 c 0,0.304834 0.162641,0.586508 0.426648,0.738902 l 2.520272,1.454787 c 0.397837,0.229645 0.571173,0.713372 0.409731,1.143427 l -9.080332,24.188485 h 2.355412 l 10.308414,-17.854724 5.505607,5.505607 v 12.349117 h 2.871143 V 67.234354 c 0,-0.365444 -0.08767,-0.725556 -0.255652,-1.050105 l -2.626859,-5.075236 0.280086,-1.044381 13.614118,7.852501 c -0.808725,1.839705 -2.320379,2.535536 -3.720811,2.769182 -0.897659,0.149763 -1.983199,0.663771 -2.396916,1.478246 l -4.08523,8.042511 H 79.863255 C 74.477035,73.908287 69.687831,64.176654 63.788147,60.830286 c -0.471084,-0.267204 -1.237492,-0.195152 -1.651001,0.154881 -2.065054,1.748057 -2.674843,4.218552 -3.829708,6.053293 l -9.47278,-5.459934 V 47.209347 c 0,-2.167382 -1.904595,-3.841329 -4.054044,-3.563096 z m -6.310645,3.87031 h 1.171519 c 0.257294,0 0.420088,0.276218 0.295457,0.501312 l -3.090186,5.581168 6.253365,3.610116 c 0.782207,-0.909089 1.329677,-2.008901 2.24847,-2.807012 0.461616,-0.400984 0.92188,-0.115085 0.92188,0.499246 v 5.199932 l -12.791984,-7.202145 4.281811,-5.05375 c 0.176729,-0.20859 0.436276,-0.328867 0.709668,-0.328867 z"
         sodipodi:nodetypes="ccccccccccccccccccccccccccccccsssccssccss" /></g></g></svg>
