<?xml version="1.0" encoding="UTF-8" standalone="no"?>
<!-- Created with Inkscape (http://www.inkscape.org/) -->

<svg
   width="359.59207"
   height="317.78671"
   viewBox="0 0 95.142067 84.081067"
   version="1.1"
   id="svg292"
   xml:space="preserve"
   inkscape:version="1.2.1 (9c6d41e410, 2022-07-14)"
   sodipodi:docname="Indian_Road_Sign_II-64.svg"
   xmlns:inkscape="http://www.inkscape.org/namespaces/inkscape"
   xmlns:sodipodi="http://sodipodi.sourceforge.net/DTD/sodipodi-0.dtd"
   xmlns="http://www.w3.org/2000/svg"
   xmlns:svg="http://www.w3.org/2000/svg"><sodipodi:namedview
     id="namedview294"
     pagecolor="#505050"
     bordercolor="#eeeeee"
     borderopacity="1"
     inkscape:showpageshadow="0"
     inkscape:pageopacity="0"
     inkscape:pagecheckerboard="0"
     inkscape:deskcolor="#505050"
     inkscape:document-units="mm"
     showgrid="false"
     inkscape:zoom="2.8284271"
     inkscape:cx="178.72124"
     inkscape:cy="189.32784"
     inkscape:window-width="1920"
     inkscape:window-height="991"
     inkscape:window-x="-9"
     inkscape:window-y="-9"
     inkscape:window-maximized="1"
     inkscape:current-layer="layer1"
     showguides="true"><sodipodi:guide
       position="308.63595,39.942764"
       orientation="1,0"
       id="guide2243"
       inkscape:locked="false" /></sodipodi:namedview><defs
     id="defs289"><inkscape:path-effect
       effect="fillet_chamfer"
       id="path-effect6935"
       is_visible="true"
       lpeversion="1"
       nodesatellites_param="F,0,0,1,0,0.98288796,0,1 @ F,0,1,1,0,0.98288796,0,1 @ F,0,0,1,0,1.683798,0,1 @ F,0,0,1,0,1.683798,0,1"
       unit="px"
       method="auto"
       mode="F"
       radius="0"
       chamfer_steps="1"
       flexible="false"
       use_knot_distance="true"
       apply_no_radius="true"
       apply_with_radius="true"
       only_selected="false"
       hide_knots="false" /><inkscape:path-effect
       effect="fillet_chamfer"
       id="path-effect6911"
       is_visible="true"
       lpeversion="1"
       nodesatellites_param="F,0,0,1,0,0.51472187,0,1 @ F,0,0,1,0,0.57277344,0,1 @ F,0,0,1,0,0.57277344,0,1 @ F,0,0,1,0,0,0,1 @ F,0,0,1,0,0,0,1 @ F,0,0,1,0,0,0,1 @ F,0,0,1,0,0.57277344,0,1 @ F,0,0,1,0,0.57277344,0,1 | F,0,0,1,0,0.51472187,0,1 @ F,0,0,1,0,0.57277344,0,1 @ F,0,0,1,0,0.57277344,0,1 @ F,0,0,1,0,0.5154376,0,1 @ F,0,1,1,0,0.5154376,0,1 @ F,0,0,1,0,0.57277344,0,1 @ F,0,0,1,0,0.57277344,0,1"
       unit="px"
       method="auto"
       mode="F"
       radius="0"
       chamfer_steps="1"
       flexible="false"
       use_knot_distance="true"
       apply_no_radius="true"
       apply_with_radius="true"
       only_selected="false"
       hide_knots="false" /><inkscape:path-effect
       effect="fillet_chamfer"
       id="path-effect1265"
       is_visible="true"
       lpeversion="1"
       nodesatellites_param="F,0,0,1,0,0.53381435,0,1 @ F,0,0,1,0,0.78338023,0,1 @ F,0,0,1,0,0,0,1 @ F,0,0,1,0,0,0,1 @ F,0,0,1,0,0,0,1 @ F,0,0,1,0,0,0,1 @ F,0,0,1,0,0.78338023,0,1 | F,0,0,1,0,0,0,1 @ F,0,0,1,0,0,0,1 @ F,0,0,1,0,0,0,1 @ F,0,0,1,0,0,0,1 @ F,0,0,1,0,0,0,1 @ F,0,0,1,0,0,0,1 @ F,0,0,1,0,0,0,1 @ F,0,0,1,0,0,0,1"
       unit="px"
       method="auto"
       mode="F"
       radius="0"
       chamfer_steps="1"
       flexible="false"
       use_knot_distance="true"
       apply_no_radius="true"
       apply_with_radius="true"
       only_selected="false"
       hide_knots="false" /><inkscape:path-effect
       effect="fillet_chamfer"
       id="path-effect2908"
       is_visible="true"
       lpeversion="1"
       nodesatellites_param="F,0,0,1,0,4.0878675,0,1 @ F,0,0,1,0,1.6885452,0,1 @ F,0,0,1,0,0.40570983,0,1 @ F,0,0,1,0,0.49262617,0,1 @ F,0,0,1,0,0.79618528,0,1 @ F,0,0,1,0,0,0,1 @ F,0,0,1,0,0,0,1 @ F,0,0,1,0,0,0,1 @ F,0,0,1,0,0,0,1 @ F,0,0,1,0,0,0,1 @ F,0,0,1,0,0,0,1 @ F,0,0,1,0,0.55617244,0,1 @ F,0,0,1,0,0,0,1 @ F,0,0,1,0,0,0,1 @ F,0,0,1,0,0,0,1 @ F,0,0,1,0,1.654086,0,1 @ F,0,0,1,0,0,0,1 @ F,0,0,1,0,0,0,1 @ F,0,0,1,0,0.98128185,0,1 @ F,0,0,1,0,0,0,1 @ F,0,0,1,0,0,0,1 | F,0,0,1,0,0.43103364,0,1 @ F,0,0,1,0,0.57302446,0,1 @ F,0,0,1,0,0,0,1 @ F,0,0,1,0,0,0,1 @ F,0,0,1,0,1.1123449,0,1 @ F,0,0,1,0,0,0,1 @ F,0,0,1,0,0,0,1"
       unit="px"
       method="auto"
       mode="F"
       radius="0"
       chamfer_steps="1"
       flexible="false"
       use_knot_distance="true"
       apply_no_radius="true"
       apply_with_radius="true"
       only_selected="false"
       hide_knots="false" /><clipPath
       id="clipPath2832"><path
         d="M -0.24,595.138 H 317.24 V -0.138 H -0.24 Z"
         id="path2834"
         inkscape:connector-curvature="0" /></clipPath><clipPath
       id="clipPath2840"><path
         d="M 0.03,595.32 H 317.49 V 0 H 0.03 Z"
         id="path2842"
         inkscape:connector-curvature="0" /></clipPath><clipPath
       id="clipPath2858"><path
         d="M -0.24,595.138 H 317.24 V -0.138 H -0.24 Z"
         id="path2860"
         inkscape:connector-curvature="0" /></clipPath><clipPath
       id="clipPath2864"><path
         d="M 0.03,595.32 H 317.49 V 0 H 0.03 Z"
         id="path2866"
         inkscape:connector-curvature="0" /></clipPath><clipPath
       id="clipPath3306"><path
         d="m 199.238,472.977 v -29.74 h 29.744 v 29.74"
         id="path3308"
         inkscape:connector-curvature="0" /></clipPath><clipPath
       id="clipPath3322"><path
         d="M -0.24,595.138 H 317.24 V -0.138 H -0.24 Z"
         id="path3324"
         inkscape:connector-curvature="0" /></clipPath><clipPath
       id="clipPath3330"><path
         d="M 0.03,595.32 H 317.49 V 0 H 0.03 Z"
         id="path3332"
         inkscape:connector-curvature="0" /></clipPath><clipPath
       id="clipPath3344"><path
         d="m 88.233,387.221 v -28.335 h 32.08 v 28.335"
         id="path3346"
         inkscape:connector-curvature="0" /></clipPath><clipPath
       id="clipPath3462"><path
         d="M -0.24,595.138 H 317.24 V -0.138 H -0.24 Z"
         id="path3464"
         inkscape:connector-curvature="0" /></clipPath><clipPath
       id="clipPath3470"><path
         d="M 0.03,595.32 H 317.49 V 0 H 0.03 Z"
         id="path3472"
         inkscape:connector-curvature="0" /></clipPath><clipPath
       id="clipPath3490"><path
         d="M -0.24,595.138 H 317.24 V -0.138 H -0.24 Z"
         id="path3492"
         inkscape:connector-curvature="0" /></clipPath><clipPath
       id="clipPath3496"><path
         d="M 0.03,595.32 H 317.49 V 0 H 0.03 Z"
         id="path3498"
         inkscape:connector-curvature="0" /></clipPath><clipPath
       id="clipPath3520"><path
         d="m 254.788,326.215 v -28.309 h 28.326 v 28.309"
         id="path3522"
         inkscape:connector-curvature="0" /></clipPath><clipPath
       id="clipPath3544"><path
         d="m 145.049,326.142 v -28.333 h 28.342 v 28.333"
         id="path3546"
         inkscape:connector-curvature="0" /></clipPath><clipPath
       id="clipPath3682"><path
         d="M -0.24,595.138 H 317.24 V -0.138 H -0.24 Z"
         id="path3684"
         inkscape:connector-curvature="0" /></clipPath><clipPath
       id="clipPath3690"><path
         d="M 0.03,595.32 H 317.49 V 0 H 0.03 Z"
         id="path3692"
         inkscape:connector-curvature="0" /></clipPath><clipPath
       id="clipPath3980"><path
         d="M -0.24,595.138 H 317.24 V -0.138 H -0.24 Z"
         id="path3982"
         inkscape:connector-curvature="0" /></clipPath><clipPath
       id="clipPath3988"><path
         d="M 0.03,595.32 H 317.49 V 0 H 0.03 Z"
         id="path3990"
         inkscape:connector-curvature="0" /></clipPath><clipPath
       id="clipPath4010"><path
         d="M -0.24,595.138 H 317.24 V -0.138 H -0.24 Z"
         id="path4012"
         inkscape:connector-curvature="0" /></clipPath><clipPath
       id="clipPath4016"><path
         d="M 0.03,595.32 H 317.49 V 0 H 0.03 Z"
         id="path4018"
         inkscape:connector-curvature="0" /></clipPath><clipPath
       id="clipPath4062"><path
         d="m 200.163,177.773 v -28.284 h 28.283 v 28.284"
         id="path4064"
         inkscape:connector-curvature="0" /></clipPath><clipPath
       id="clipPath4090"><path
         d="m 34.886,177.515 v -51.632 h 30.367 v 51.632"
         id="path4092"
         inkscape:connector-curvature="0" /></clipPath><clipPath
       id="clipPath4106"><path
         d="m 34.886,177.515 v -51.632 h 30.367 v 51.632"
         id="path4108"
         inkscape:connector-curvature="0" /></clipPath><clipPath
       id="clipPath4272"><path
         d="m 34.886,177.515 v -51.632 h 30.367 v 51.632"
         id="path4274"
         inkscape:connector-curvature="0" /></clipPath><clipPath
       id="clipPath4304"><path
         d="m 254.653,176.442 v -48.167 h 28.317 v 48.167"
         id="path4306"
         inkscape:connector-curvature="0" /></clipPath><clipPath
       id="clipPath4310"><path
         d="m 253.565,177.983 h 31.181 V 128.8 h -31.181 z"
         id="path4312"
         inkscape:connector-curvature="0" /></clipPath><clipPath
       id="clipPath4316"><path
         d="M -0.24,595.138 H 317.24 V -0.138 H -0.24 Z"
         id="path4318"
         inkscape:connector-curvature="0" /></clipPath><clipPath
       id="clipPath4322"><path
         d="M 0.03,595.32 H 317.49 V 0 H 0.03 Z"
         id="path4324"
         inkscape:connector-curvature="0" /></clipPath><clipPath
       id="clipPath4456"><path
         d="M -0.24,595.138 H 317.24 V -0.138 H -0.24 Z"
         id="path4458"
         inkscape:connector-curvature="0" /></clipPath><clipPath
       id="clipPath4464"><path
         d="M 0.03,595.32 H 317.49 V 0 H 0.03 Z"
         id="path4466"
         inkscape:connector-curvature="0" /></clipPath><inkscape:perspective
       sodipodi:type="inkscape:persp3d"
       inkscape:vp_x="0 : 47.625 : 1"
       inkscape:vp_y="0 : 1000 : 0"
       inkscape:vp_z="95.249998 : 47.625 : 1"
       inkscape:persp3d-origin="47.624999 : 31.75 : 1"
       id="perspective2757" /><inkscape:path-effect
       effect="fillet_chamfer"
       id="path-effect1250"
       is_visible="true"
       lpeversion="1"
       nodesatellites_param="F,0,0,1,0,3.86627,0,1 @ F,0,0,1,0,3.8662696,0,1 @ F,0,0,1,0,3.8662703,0,1 @ F,0,0,1,0,3.8662703,0,1"
       unit="px"
       method="auto"
       mode="F"
       radius="0"
       chamfer_steps="1"
       flexible="false"
       use_knot_distance="true"
       apply_no_radius="true"
       apply_with_radius="true"
       only_selected="false"
       hide_knots="false" /><inkscape:path-effect
       effect="fillet_chamfer"
       id="path-effect2969"
       is_visible="true"
       lpeversion="1"
       nodesatellites_param="F,0,0,1,0,5.0787595,0,1 @ F,0,0,1,0,5.078762,0,1 @ F,0,0,1,0,5.078762,0,1 @ F,0,0,1,0,5.078762,0,1"
       unit="px"
       method="auto"
       mode="F"
       radius="0"
       chamfer_steps="1"
       flexible="false"
       use_knot_distance="true"
       apply_no_radius="true"
       apply_with_radius="true"
       only_selected="false"
       hide_knots="false" /><inkscape:path-effect
       effect="fillet_chamfer"
       id="path-effect2963"
       is_visible="true"
       lpeversion="1"
       nodesatellites_param="F,0,0,1,0,5.0787595,0,1 @ F,0,0,1,0,5.078762,0,1 @ F,0,0,1,0,5.078762,0,1 @ F,0,0,1,0,5.078762,0,1"
       unit="px"
       method="auto"
       mode="F"
       radius="0"
       chamfer_steps="1"
       flexible="false"
       use_knot_distance="true"
       apply_no_radius="true"
       apply_with_radius="true"
       only_selected="false"
       hide_knots="false" /><inkscape:path-effect
       effect="fillet_chamfer"
       id="path-effect2888"
       is_visible="true"
       lpeversion="1"
       nodesatellites_param="F,0,0,1,0,5.0787595,0,1 @ F,0,0,1,0,5.078762,0,1 @ F,0,0,1,0,5.078762,0,1 @ F,0,0,1,0,5.078762,0,1"
       unit="px"
       method="auto"
       mode="F"
       radius="0"
       chamfer_steps="1"
       flexible="false"
       use_knot_distance="true"
       apply_no_radius="true"
       apply_with_radius="true"
       only_selected="false"
       hide_knots="false" /><inkscape:path-effect
       effect="fillet_chamfer"
       id="path-effect1250-3"
       is_visible="true"
       lpeversion="1"
       nodesatellites_param="F,0,0,1,0,3.86627,0,1 @ F,0,0,1,0,3.8662696,0,1 @ F,0,0,1,0,3.8662703,0,1 @ F,0,0,1,0,3.8662703,0,1"
       unit="px"
       method="auto"
       mode="F"
       radius="0"
       chamfer_steps="1"
       flexible="false"
       use_knot_distance="true"
       apply_no_radius="true"
       apply_with_radius="true"
       only_selected="false"
       hide_knots="false" /><inkscape:path-effect
       effect="fillet_chamfer"
       id="path-effect2969-8"
       is_visible="true"
       lpeversion="1"
       nodesatellites_param="F,0,0,1,0,5.0787595,0,1 @ F,0,0,1,0,5.078762,0,1 @ F,0,0,1,0,5.078762,0,1 @ F,0,0,1,0,5.078762,0,1"
       unit="px"
       method="auto"
       mode="F"
       radius="0"
       chamfer_steps="1"
       flexible="false"
       use_knot_distance="true"
       apply_no_radius="true"
       apply_with_radius="true"
       only_selected="false"
       hide_knots="false" /><inkscape:path-effect
       effect="fillet_chamfer"
       id="path-effect2963-9"
       is_visible="true"
       lpeversion="1"
       nodesatellites_param="F,0,0,1,0,5.0787595,0,1 @ F,0,0,1,0,5.078762,0,1 @ F,0,0,1,0,5.078762,0,1 @ F,0,0,1,0,5.078762,0,1"
       unit="px"
       method="auto"
       mode="F"
       radius="0"
       chamfer_steps="1"
       flexible="false"
       use_knot_distance="true"
       apply_no_radius="true"
       apply_with_radius="true"
       only_selected="false"
       hide_knots="false" /><inkscape:path-effect
       effect="fillet_chamfer"
       id="path-effect2888-3"
       is_visible="true"
       lpeversion="1"
       nodesatellites_param="F,0,0,1,0,5.0787595,0,1 @ F,0,0,1,0,5.078762,0,1 @ F,0,0,1,0,5.078762,0,1 @ F,0,0,1,0,5.078762,0,1"
       unit="px"
       method="auto"
       mode="F"
       radius="0"
       chamfer_steps="1"
       flexible="false"
       use_knot_distance="true"
       apply_no_radius="true"
       apply_with_radius="true"
       only_selected="false"
       hide_knots="false" /><clipPath
       clipPathUnits="userSpaceOnUse"
       id="clipPath2532"><path
         sodipodi:nodetypes="cccc"
         inkscape:connector-curvature="0"
         id="path2534"
         d="M 85.390158,81.854081 47.678955,16.536355 9.9677452,81.854038 Z"
         style="fill:#ffffff;fill-opacity:1;stroke:none;stroke-width:12.6128;stroke-linecap:butt;stroke-linejoin:round;stroke-miterlimit:4;stroke-dasharray:none;stroke-dashoffset:0;stroke-opacity:1" /></clipPath><clipPath
       clipPathUnits="userSpaceOnUse"
       id="clipPath2550"><path
         sodipodi:nodetypes="cccc"
         inkscape:connector-curvature="0"
         id="path2552"
         d="M 85.390158,81.854081 47.678955,16.536355 9.9677452,81.854038 Z"
         style="fill:#ffffff;fill-opacity:1;stroke:none;stroke-width:12.6128;stroke-linecap:butt;stroke-linejoin:round;stroke-miterlimit:4;stroke-dasharray:none;stroke-dashoffset:0;stroke-opacity:1" /></clipPath><clipPath
       clipPathUnits="userSpaceOnUse"
       id="clipPath2554"><path
         sodipodi:nodetypes="cccc"
         inkscape:connector-curvature="0"
         id="path2556"
         d="M 85.390158,81.854081 47.678955,16.536355 9.9677452,81.854038 Z"
         style="fill:#ffffff;fill-opacity:1;stroke:none;stroke-width:12.6128;stroke-linecap:butt;stroke-linejoin:round;stroke-miterlimit:4;stroke-dasharray:none;stroke-dashoffset:0;stroke-opacity:1" /></clipPath><clipPath
       clipPathUnits="userSpaceOnUse"
       id="clipPath2558"><path
         sodipodi:nodetypes="cccc"
         inkscape:connector-curvature="0"
         id="path2560"
         d="M 85.390158,81.854081 47.678955,16.536355 9.9677452,81.854038 Z"
         style="fill:#ffffff;fill-opacity:1;stroke:none;stroke-width:12.6128;stroke-linecap:butt;stroke-linejoin:round;stroke-miterlimit:4;stroke-dasharray:none;stroke-dashoffset:0;stroke-opacity:1" /></clipPath><clipPath
       clipPathUnits="userSpaceOnUse"
       id="clipPath2562"><path
         sodipodi:nodetypes="cccc"
         inkscape:connector-curvature="0"
         id="path2564"
         d="M 85.390158,81.854081 47.678955,16.536355 9.9677452,81.854038 Z"
         style="fill:#ffffff;fill-opacity:1;stroke:none;stroke-width:12.6128;stroke-linecap:butt;stroke-linejoin:round;stroke-miterlimit:4;stroke-dasharray:none;stroke-dashoffset:0;stroke-opacity:1" /></clipPath><clipPath
       clipPathUnits="userSpaceOnUse"
       id="clipPath2566"><path
         sodipodi:nodetypes="cccc"
         inkscape:connector-curvature="0"
         id="path2568"
         d="M -85.390158,81.854081 -47.678955,16.536355 -9.9677452,81.854038 Z"
         style="fill:#ffffff;fill-opacity:1;stroke:none;stroke-width:12.6128;stroke-linecap:butt;stroke-linejoin:round;stroke-miterlimit:4;stroke-dasharray:none;stroke-dashoffset:0;stroke-opacity:1" /></clipPath><clipPath
       clipPathUnits="userSpaceOnUse"
       id="clipPath2570"><path
         sodipodi:nodetypes="cccc"
         inkscape:connector-curvature="0"
         id="path2572"
         d="M -85.390158,81.854081 -47.678955,16.536355 -9.9677452,81.854038 Z"
         style="fill:#ffffff;fill-opacity:1;stroke:none;stroke-width:12.6128;stroke-linecap:butt;stroke-linejoin:round;stroke-miterlimit:4;stroke-dasharray:none;stroke-dashoffset:0;stroke-opacity:1" /></clipPath><clipPath
       clipPathUnits="userSpaceOnUse"
       id="clipPath2574"><path
         sodipodi:nodetypes="cccc"
         inkscape:connector-curvature="0"
         id="path2576"
         d="M 85.390158,81.854081 47.678955,16.536355 9.9677452,81.854038 Z"
         style="fill:#ffffff;fill-opacity:1;stroke:none;stroke-width:12.6128;stroke-linecap:butt;stroke-linejoin:round;stroke-miterlimit:4;stroke-dasharray:none;stroke-dashoffset:0;stroke-opacity:1" /></clipPath><clipPath
       clipPathUnits="userSpaceOnUse"
       id="clipPath2578"><path
         sodipodi:nodetypes="cccc"
         inkscape:connector-curvature="0"
         id="path2580"
         d="M 85.390158,81.854081 47.678955,16.536355 9.9677452,81.854038 Z"
         style="fill:#ffffff;fill-opacity:1;stroke:none;stroke-width:12.6128;stroke-linecap:butt;stroke-linejoin:round;stroke-miterlimit:4;stroke-dasharray:none;stroke-dashoffset:0;stroke-opacity:1" /></clipPath><inkscape:perspective
       sodipodi:type="inkscape:persp3d"
       inkscape:vp_x="0 : 47.625 : 1"
       inkscape:vp_y="0 : 1000 : 0"
       inkscape:vp_z="95.249998 : 47.625 : 1"
       inkscape:persp3d-origin="47.624999 : 31.75 : 1"
       id="perspective2757-1" /><inkscape:path-effect
       effect="fillet_chamfer"
       id="path-effect1250-0"
       is_visible="true"
       lpeversion="1"
       nodesatellites_param="F,0,0,1,0,3.86627,0,1 @ F,0,0,1,0,3.8662696,0,1 @ F,0,0,1,0,3.8662703,0,1 @ F,0,0,1,0,3.8662703,0,1"
       unit="px"
       method="auto"
       mode="F"
       radius="0"
       chamfer_steps="1"
       flexible="false"
       use_knot_distance="true"
       apply_no_radius="true"
       apply_with_radius="true"
       only_selected="false"
       hide_knots="false" /><inkscape:path-effect
       effect="fillet_chamfer"
       id="path-effect2969-6"
       is_visible="true"
       lpeversion="1"
       nodesatellites_param="F,0,0,1,0,5.0787595,0,1 @ F,0,0,1,0,5.078762,0,1 @ F,0,0,1,0,5.078762,0,1 @ F,0,0,1,0,5.078762,0,1"
       unit="px"
       method="auto"
       mode="F"
       radius="0"
       chamfer_steps="1"
       flexible="false"
       use_knot_distance="true"
       apply_no_radius="true"
       apply_with_radius="true"
       only_selected="false"
       hide_knots="false" /><inkscape:path-effect
       effect="fillet_chamfer"
       id="path-effect2963-99"
       is_visible="true"
       lpeversion="1"
       nodesatellites_param="F,0,0,1,0,5.0787595,0,1 @ F,0,0,1,0,5.078762,0,1 @ F,0,0,1,0,5.078762,0,1 @ F,0,0,1,0,5.078762,0,1"
       unit="px"
       method="auto"
       mode="F"
       radius="0"
       chamfer_steps="1"
       flexible="false"
       use_knot_distance="true"
       apply_no_radius="true"
       apply_with_radius="true"
       only_selected="false"
       hide_knots="false" /><inkscape:path-effect
       effect="fillet_chamfer"
       id="path-effect2888-1"
       is_visible="true"
       lpeversion="1"
       nodesatellites_param="F,0,0,1,0,5.0787595,0,1 @ F,0,0,1,0,5.078762,0,1 @ F,0,0,1,0,5.078762,0,1 @ F,0,0,1,0,5.078762,0,1"
       unit="px"
       method="auto"
       mode="F"
       radius="0"
       chamfer_steps="1"
       flexible="false"
       use_knot_distance="true"
       apply_no_radius="true"
       apply_with_radius="true"
       only_selected="false"
       hide_knots="false" /><inkscape:path-effect
       effect="fillet_chamfer"
       id="path-effect1250-3-4"
       is_visible="true"
       lpeversion="1"
       nodesatellites_param="F,0,0,1,0,3.86627,0,1 @ F,0,0,1,0,3.8662696,0,1 @ F,0,0,1,0,3.8662703,0,1 @ F,0,0,1,0,3.8662703,0,1"
       unit="px"
       method="auto"
       mode="F"
       radius="0"
       chamfer_steps="1"
       flexible="false"
       use_knot_distance="true"
       apply_no_radius="true"
       apply_with_radius="true"
       only_selected="false"
       hide_knots="false" /><inkscape:path-effect
       effect="fillet_chamfer"
       id="path-effect2969-8-0"
       is_visible="true"
       lpeversion="1"
       nodesatellites_param="F,0,0,1,0,5.0787595,0,1 @ F,0,0,1,0,5.078762,0,1 @ F,0,0,1,0,5.078762,0,1 @ F,0,0,1,0,5.078762,0,1"
       unit="px"
       method="auto"
       mode="F"
       radius="0"
       chamfer_steps="1"
       flexible="false"
       use_knot_distance="true"
       apply_no_radius="true"
       apply_with_radius="true"
       only_selected="false"
       hide_knots="false" /><inkscape:path-effect
       effect="fillet_chamfer"
       id="path-effect2963-9-9"
       is_visible="true"
       lpeversion="1"
       nodesatellites_param="F,0,0,1,0,5.0787595,0,1 @ F,0,0,1,0,5.078762,0,1 @ F,0,0,1,0,5.078762,0,1 @ F,0,0,1,0,5.078762,0,1"
       unit="px"
       method="auto"
       mode="F"
       radius="0"
       chamfer_steps="1"
       flexible="false"
       use_knot_distance="true"
       apply_no_radius="true"
       apply_with_radius="true"
       only_selected="false"
       hide_knots="false" /><inkscape:path-effect
       effect="fillet_chamfer"
       id="path-effect2888-3-6"
       is_visible="true"
       lpeversion="1"
       nodesatellites_param="F,0,0,1,0,5.0787595,0,1 @ F,0,0,1,0,5.078762,0,1 @ F,0,0,1,0,5.078762,0,1 @ F,0,0,1,0,5.078762,0,1"
       unit="px"
       method="auto"
       mode="F"
       radius="0"
       chamfer_steps="1"
       flexible="false"
       use_knot_distance="true"
       apply_no_radius="true"
       apply_with_radius="true"
       only_selected="false"
       hide_knots="false" /></defs><g
     inkscape:label="Layer 1"
     inkscape:groupmode="layer"
     id="layer1"
     transform="translate(-0.1079166,-6.6255169)"><path
       inkscape:connector-curvature="0"
       id="path814"
       d="M 88.960492,84.416633 47.678877,12.914838 6.3974062,84.416579 Z"
       inkscape:transform-center-y="-6.06719"
       inkscape:transform-center-x="0.31439696"
       style="fill:none;fill-opacity:1;stroke:#ed1c24;stroke-width:12.58;stroke-linecap:butt;stroke-linejoin:round;stroke-miterlimit:4;stroke-dasharray:none;stroke-dashoffset:0;stroke-opacity:1"
       sodipodi:nodetypes="cccc" /><path
       inkscape:connector-curvature="0"
       id="path2526"
       d="M 88.960492,84.416633 47.678877,12.914838 6.3974062,84.416579 Z"
       inkscape:transform-center-y="-6.06719"
       inkscape:transform-center-x="0.31439696"
       style="fill:none;fill-opacity:1;stroke:#ed1c24;stroke-width:12.58;stroke-linecap:butt;stroke-linejoin:round;stroke-miterlimit:4;stroke-dasharray:none;stroke-dashoffset:0;stroke-opacity:1"
       sodipodi:nodetypes="cccc"
       clip-path="url(#clipPath2532)" /><path
       sodipodi:nodetypes="cccc"
       inkscape:connector-curvature="0"
       id="path2529"
       d="M 85.390157,81.854081 47.678956,16.536355 9.9677452,81.854038 Z"
       style="fill:#ffffff;fill-opacity:1;stroke:none;stroke-width:12.6128;stroke-linecap:butt;stroke-linejoin:round;stroke-miterlimit:4;stroke-dasharray:none;stroke-dashoffset:0;stroke-opacity:1" /><path
       d="m 67.407994,62.481709 -0.142525,0.284879 v 0.142527 l -0.284883,0.427409 -0.427407,0.284936 h -0.284956 l -0.284884,0.142469 H 63.846397 L 63.418991,63.62146 H 63.134123 L 62.279354,63.336524 62.13683,63.193998 61.851888,63.051471 61.282062,62.48164 61.139538,62.196701 60.997,61.76929 60.854476,61.056983 v -1.851987 l 0.142524,-0.284954 0.142538,-0.42735 0.142524,-0.284937 0.284868,-0.284935 h 0.142538 l 0.427406,-0.284895 0.427348,-0.142526 0.284957,-0.142528 0.142524,-0.142527 0.427362,-0.142528 h 0.284927 l 0.284943,-0.284585 h 1.282115 l 0.284928,0.284891 H 65.9834 l 0.284896,0.427413 0.142525,0.284934 0.997217,0.997243 v 0.284875 l 0.284958,0.854766 v 0.569887 l 0.142523,0.284934 v 1.139642 l -0.142523,0.284952 -0.284958,0.142533 z"
       style="fill:#000000;fill-opacity:1;fill-rule:nonzero;stroke:none;stroke-width:0.593593"
       id="path1043"
       inkscape:connector-curvature="0" /><path
       d="m 71.396936,77.440178 h -2.706768 l -0.427407,0.142528 -0.142538,0.142526 H 67.550397 L 67.122991,77.86776 H 66.695629 L 66.268223,77.725232 H 65.840875 L 65.555933,77.440296 65.128585,77.29777 64.273758,76.870418 63.846397,76.585483 63.561469,76.442954 62.706701,75.588191 62.279354,75.303255 62.13683,74.875901 61.851873,74.590965 61.56693,74.021138 61.139583,73.451251 v -0.284878 l -0.284942,-0.569887 v -1.567054 l 0.142538,-0.854765 0.142524,-0.427411 v -0.427353 l 0.427347,-0.569888 0.142539,-0.712288 0.427406,-0.427411 0.142464,-0.284878 0.56987,-0.712363 0.56984,-0.569812 0.569886,-0.427414 0.427346,-0.142467 0.854769,-0.427412 h 0.427406 l 0.854769,-0.284936 h 1.139695 l 0.71229,0.142528 0.569885,0.142525 h 0.427362 l 0.284927,0.142529 h 0.284883 l 0.284928,0.142526 0.427421,0.142529 0.854769,0.569828 0.427346,0.569813 0.427407,0.427412 0.284958,0.712305 0.854767,1.424637 0.284868,0.569828 0.14254,0.427411 v 0.427354 l 0.142522,0.427411 0.142524,0.284877 v 3.276657 l -0.142524,0.284934 -0.142522,0.427355 -0.14254,0.284936 v 0.142526 l -0.854753,0.569829 -0.56984,0.569871 z"
       style="fill:#000000;fill-opacity:1;fill-rule:nonzero;stroke:none;stroke-width:0.593593"
       id="path1045"
       inkscape:connector-curvature="0" /><path
       d="m 58.717802,69.17741 0.284957,0.284893 0.142525,0.427413 v 0.854765 l -0.142404,0.569868 -0.284958,0.284896 -0.284927,0.142526 H 58.29053 l -0.427421,0.142527 H 57.57818 l -0.142477,0.14253 H 56.011048 L 55.583642,71.741873 55.441179,71.599346 54.871308,70.744583 V 70.317228 L 54.72877,70.174701 v -0.712348 l 0.142538,-0.284893 -0.142538,-0.284935 0.142538,-0.56983 0.142525,-0.142526 0.427406,-0.284952 0.284883,-0.142527 0.284926,-0.284895 h 0.427422 l 0.142464,0.14247 0.569885,0.142527 0.284943,0.142526 h 0.427347 l 0.142524,0.427411 0.284957,0.142469 z"
       style="fill:#000000;fill-opacity:1;fill-rule:nonzero;stroke:none;stroke-width:0.593593"
       id="path1047"
       inkscape:connector-curvature="0"
       sodipodi:nodetypes="ccccccccccccccccccccccccccccccccc" /><path
       d="m 55.013817,61.484465 v 1.282123 l -0.142525,0.42741 -0.427361,0.427412 -0.569885,0.427351 -0.284883,0.284955 -0.569885,0.28493 -0.427347,0.142473 -0.284942,0.142528 -0.427408,0.142526 H 51.45222 L 51.309696,64.76124 h -0.284942 l -0.142538,-0.427354 -0.284868,-0.569888 -0.284944,-0.427355 -0.284941,-0.284933 -0.142539,-0.427354 0.142539,-0.427417 v -0.284952 l 0.284941,-0.427352 0.284944,-0.569873 v -0.142526 -0.427353 l 0.142523,-0.427412 0.284898,-0.569831 0.427406,-0.142525 h 1.994465 l 0.854767,0.569871 0.427347,0.427353 v 0.569869 l 0.142538,0.284894 0.142525,0.142528 z"
       style="fill:#000000;fill-opacity:1;fill-rule:nonzero;stroke:none;stroke-width:0.593593"
       id="path1049"
       inkscape:connector-curvature="0" /><path
       d="m 53.589223,47.665662 h 1.139637 l 0.284957,0.284919 0.71229,0.284917 0.712348,0.427383 0.569826,0.284934 v 0.569835 l 0.284958,0.569855 0.142523,0.712306 0.142463,0.284944 v 1.282132 l 0.142524,0.142528 0.142539,0.284952 0.284928,0.427352 0.142525,0.569874 0.142477,0.142526 v 0.284876 l -0.142477,0.427412 -0.427409,0.427353 -0.569824,0.284952 -0.569871,0.427411 -0.284898,0.142527 -0.427407,0.427355 -0.427421,0.712304 -0.56981,0.569869 -0.427407,0.427355 -0.712303,0.284954 -0.71229,0.142526 H 52.59226 L 51.737447,58.208078 51.025158,58.065551 50.597796,57.780673 49.743042,57.495739 49.315621,57.210785 49.173098,56.92585 48.88817,56.640974 48.745691,55.928667 48.603168,55.358796 V 54.931444 L 48.460644,54.788916 V 53.791677 L 48.175686,53.506742 48.033163,53.221804 47.890668,52.794451 V 52.509499 L 47.74816,52.366973 v -0.854767 l 0.142508,-0.427367 0.427378,-0.854778 0.284957,-0.42739 0.427347,-0.569852 0.284942,-0.427383 0.712289,-0.712306 0.569886,-0.85477 0.427347,-0.284936 h 0.142523 l 0.284944,-0.142521 h 0.284897 0.142524 l 0.854767,0.569841 h 0.427407 z"
       style="fill:#000000;fill-opacity:1;fill-rule:nonzero;stroke:none;stroke-width:0.593593"
       id="path1051"
       inkscape:connector-curvature="0"
       sodipodi:nodetypes="cccccccccccccccccccccccccccccccccccccccccccccccccccccccccccccc" /><path
       d="m 42.904569,38.975481 0.427406,-0.142403 h 0.712305 l 0.142538,0.142523 0.284927,0.854768 0.142524,0.142518 v 0.854774 l -0.284927,0.427383 -0.142524,0.28492 -0.427362,0.142519 L 43.616932,41.825 H 43.047107 L 42.619686,41.682483 42.477162,41.397547 42.049815,40.970158 41.907277,40.542774 41.622349,40.115391 V 39.26062 l 0.427406,-0.284918 z"
       style="fill:#000000;fill-opacity:1;fill-rule:nonzero;stroke:none;stroke-width:0.593593"
       id="path1053"
       inkscape:connector-curvature="0"
       sodipodi:nodetypes="cccccccccccccccccccc" /><path
       d="m 46.893526,42.537032 0.569811,0.142517 0.284943,0.284933 0.142478,0.569842 -0.142478,0.569853 -0.284943,0.569855 -0.284943,0.427381 L 46.751047,45.5288 46.323626,45.81372 45.7538,46.383573 45.326394,46.526086 45.18387,46.383573 44.898988,46.241049 44.61406,45.956133 44.329103,45.813617 44.186579,45.386228 V 43.39177 l 0.142524,-0.569853 0.142523,-0.427382 0.427407,-0.284922 0.712304,-0.142518 0.569825,0.142518 0.427407,0.284922 z"
       style="fill:#000000;fill-opacity:1;fill-rule:nonzero;stroke:none;stroke-width:0.593593"
       id="path1055"
       inkscape:connector-curvature="0" /><path
       d="m 45.18393,47.808112 h 0.427407 l 0.284943,0.854769 v 0.997241 l -0.284943,0.427383 -0.427407,0.284917 -0.284897,0.14252 -0.427407,0.142517 -0.142523,-0.142517 v -0.284917 l -0.142524,-0.14252 v -0.427383 l -0.284883,-0.427389 v -0.569852 l 0.569826,-0.854769 0.284942,-0.142517 z"
       style="fill:#000000;fill-opacity:1;fill-rule:nonzero;stroke:none;stroke-width:0.593593"
       id="path1057"
       inkscape:connector-curvature="0" /><path
       d="m 38.869707,35.110861 0.188442,1.870158 v 0.854774 l 0.142538,0.569836 0.569826,0.284934 0.712289,0.427388 0.142524,0.569836 0.569825,1.139707 0.284944,0.284914 0.142523,0.427385 0.284957,0.427388 0.142524,0.569851 0.142464,0.569905 0.142524,0.712323 v 0.569837 l 0.56987,1.70954 v 0.427381 l 0.142478,0.284936 v 0.569837 0.712322 0.712306 l 0.284944,0.427383 0.142538,0.85477 0.284928,0.712308 -0.142524,0.427361 v 0.427408 l -0.142524,0.427412 v 0.712306 l 0.284943,0.427352 0.142539,0.71235 0.284868,0.712287 0.142524,0.712304 0.284942,0.56987 0.142524,0.56983 0.284897,0.569881 0.569871,1.424636 0.142524,0.854763 0.284897,0.854768 0.284928,0.712304 0.427422,0.854765 0.427347,0.569874 1.139695,1.424596 0.284958,0.42741 v 0.569831 l 0.142464,0.712347 v 0.56983 l 0.142538,0.427411 -0.142538,0.712287 0.142538,0.427354 v 0.427414 l 0.142525,0.712286 0.569869,0.569888 0.427347,0.569828 0.569901,0.427412 0.427346,0.569814 0.569885,0.427411 0.427363,0.427352 0.427451,0.427464 0.427362,0.569829 0.427406,0.712287 0.569826,0.569888 0.427421,0.569829 0.427347,0.71229 0.427406,0.42741 0.427406,0.569879 0.569886,0.854767 0.284882,0.569871 0.142524,0.427353 0.284943,0.569888 0.284942,0.427353 0.408149,1.282175 H 12.703487 Z"
       style="fill:#000000;fill-opacity:1;fill-rule:nonzero;stroke:none;stroke-width:0.593593"
       id="path1059"
       inkscape:connector-curvature="0"
       sodipodi:nodetypes="ccccccccccccccccccccccccccccccccccccccccccccccccccccccccccccccccccccccccc" /></g></svg>
