<?xml version="1.0" encoding="UTF-8" standalone="no"?>
<!-- Created with Inkscape (http://www.inkscape.org/) -->

<svg
   width="359.59207"
   height="317.78671"
   viewBox="0 0 95.142067 84.081067"
   version="1.1"
   id="svg292"
   xml:space="preserve"
   inkscape:version="1.2.1 (9c6d41e410, 2022-07-14)"
   sodipodi:docname="steep ascent.svg"
   xmlns:inkscape="http://www.inkscape.org/namespaces/inkscape"
   xmlns:sodipodi="http://sodipodi.sourceforge.net/DTD/sodipodi-0.dtd"
   xmlns="http://www.w3.org/2000/svg"
   xmlns:svg="http://www.w3.org/2000/svg"><sodipodi:namedview
     id="namedview294"
     pagecolor="#505050"
     bordercolor="#eeeeee"
     borderopacity="1"
     inkscape:showpageshadow="0"
     inkscape:pageopacity="0"
     inkscape:pagecheckerboard="0"
     inkscape:deskcolor="#505050"
     inkscape:document-units="mm"
     showgrid="false"
     inkscape:zoom="1.1893044"
     inkscape:cx="278.31395"
     inkscape:cy="156.81435"
     inkscape:window-width="1920"
     inkscape:window-height="991"
     inkscape:window-x="-9"
     inkscape:window-y="-9"
     inkscape:window-maximized="1"
     inkscape:current-layer="layer1"
     showguides="true"><sodipodi:guide
       position="308.63595,39.942764"
       orientation="1,0"
       id="guide2243"
       inkscape:locked="false" /></sodipodi:namedview><defs
     id="defs289"><clipPath
       id="clipPath2832"><path
         d="M -0.24,595.138 H 317.24 V -0.138 H -0.24 Z"
         id="path2834"
         inkscape:connector-curvature="0" /></clipPath><clipPath
       id="clipPath2840"><path
         d="M 0.03,595.32 H 317.49 V 0 H 0.03 Z"
         id="path2842"
         inkscape:connector-curvature="0" /></clipPath><clipPath
       id="clipPath2858"><path
         d="M -0.24,595.138 H 317.24 V -0.138 H -0.24 Z"
         id="path2860"
         inkscape:connector-curvature="0" /></clipPath><clipPath
       id="clipPath2864"><path
         d="M 0.03,595.32 H 317.49 V 0 H 0.03 Z"
         id="path2866"
         inkscape:connector-curvature="0" /></clipPath><clipPath
       id="clipPath3306"><path
         d="m 199.238,472.977 v -29.74 h 29.744 v 29.74"
         id="path3308"
         inkscape:connector-curvature="0" /></clipPath><clipPath
       id="clipPath3322"><path
         d="M -0.24,595.138 H 317.24 V -0.138 H -0.24 Z"
         id="path3324"
         inkscape:connector-curvature="0" /></clipPath><clipPath
       id="clipPath3330"><path
         d="M 0.03,595.32 H 317.49 V 0 H 0.03 Z"
         id="path3332"
         inkscape:connector-curvature="0" /></clipPath><clipPath
       id="clipPath3344"><path
         d="m 88.233,387.221 v -28.335 h 32.08 v 28.335"
         id="path3346"
         inkscape:connector-curvature="0" /></clipPath><clipPath
       id="clipPath3462"><path
         d="M -0.24,595.138 H 317.24 V -0.138 H -0.24 Z"
         id="path3464"
         inkscape:connector-curvature="0" /></clipPath><clipPath
       id="clipPath3470"><path
         d="M 0.03,595.32 H 317.49 V 0 H 0.03 Z"
         id="path3472"
         inkscape:connector-curvature="0" /></clipPath><clipPath
       id="clipPath3490"><path
         d="M -0.24,595.138 H 317.24 V -0.138 H -0.24 Z"
         id="path3492"
         inkscape:connector-curvature="0" /></clipPath><clipPath
       id="clipPath3496"><path
         d="M 0.03,595.32 H 317.49 V 0 H 0.03 Z"
         id="path3498"
         inkscape:connector-curvature="0" /></clipPath><clipPath
       id="clipPath3520"><path
         d="m 254.788,326.215 v -28.309 h 28.326 v 28.309"
         id="path3522"
         inkscape:connector-curvature="0" /></clipPath><clipPath
       id="clipPath3544"><path
         d="m 145.049,326.142 v -28.333 h 28.342 v 28.333"
         id="path3546"
         inkscape:connector-curvature="0" /></clipPath><clipPath
       id="clipPath3682"><path
         d="M -0.24,595.138 H 317.24 V -0.138 H -0.24 Z"
         id="path3684"
         inkscape:connector-curvature="0" /></clipPath><clipPath
       id="clipPath3690"><path
         d="M 0.03,595.32 H 317.49 V 0 H 0.03 Z"
         id="path3692"
         inkscape:connector-curvature="0" /></clipPath><clipPath
       id="clipPath3980"><path
         d="M -0.24,595.138 H 317.24 V -0.138 H -0.24 Z"
         id="path3982"
         inkscape:connector-curvature="0" /></clipPath><clipPath
       id="clipPath3988"><path
         d="M 0.03,595.32 H 317.49 V 0 H 0.03 Z"
         id="path3990"
         inkscape:connector-curvature="0" /></clipPath><clipPath
       id="clipPath4010"><path
         d="M -0.24,595.138 H 317.24 V -0.138 H -0.24 Z"
         id="path4012"
         inkscape:connector-curvature="0" /></clipPath><clipPath
       id="clipPath4016"><path
         d="M 0.03,595.32 H 317.49 V 0 H 0.03 Z"
         id="path4018"
         inkscape:connector-curvature="0" /></clipPath><clipPath
       id="clipPath4062"><path
         d="m 200.163,177.773 v -28.284 h 28.283 v 28.284"
         id="path4064"
         inkscape:connector-curvature="0" /></clipPath><clipPath
       id="clipPath4090"><path
         d="m 34.886,177.515 v -51.632 h 30.367 v 51.632"
         id="path4092"
         inkscape:connector-curvature="0" /></clipPath><clipPath
       id="clipPath4106"><path
         d="m 34.886,177.515 v -51.632 h 30.367 v 51.632"
         id="path4108"
         inkscape:connector-curvature="0" /></clipPath><clipPath
       id="clipPath4272"><path
         d="m 34.886,177.515 v -51.632 h 30.367 v 51.632"
         id="path4274"
         inkscape:connector-curvature="0" /></clipPath><clipPath
       id="clipPath4304"><path
         d="m 254.653,176.442 v -48.167 h 28.317 v 48.167"
         id="path4306"
         inkscape:connector-curvature="0" /></clipPath><clipPath
       id="clipPath4310"><path
         d="m 253.565,177.983 h 31.181 V 128.8 h -31.181 z"
         id="path4312"
         inkscape:connector-curvature="0" /></clipPath><clipPath
       id="clipPath4316"><path
         d="M -0.24,595.138 H 317.24 V -0.138 H -0.24 Z"
         id="path4318"
         inkscape:connector-curvature="0" /></clipPath><clipPath
       id="clipPath4322"><path
         d="M 0.03,595.32 H 317.49 V 0 H 0.03 Z"
         id="path4324"
         inkscape:connector-curvature="0" /></clipPath><clipPath
       id="clipPath4456"><path
         d="M -0.24,595.138 H 317.24 V -0.138 H -0.24 Z"
         id="path4458"
         inkscape:connector-curvature="0" /></clipPath><clipPath
       id="clipPath4464"><path
         d="M 0.03,595.32 H 317.49 V 0 H 0.03 Z"
         id="path4466"
         inkscape:connector-curvature="0" /></clipPath></defs><g
     inkscape:label="Layer 1"
     inkscape:groupmode="layer"
     id="layer1"
     transform="translate(-0.1079166,-6.6255169)"><path
       inkscape:connector-curvature="0"
       id="path814"
       d="M 88.960492,84.416633 47.678877,12.914838 6.3974062,84.416579 Z"
       inkscape:transform-center-y="-6.06719"
       inkscape:transform-center-x="0.31439696"
       style="fill:none;fill-opacity:1;stroke:#ed1c24;stroke-width:12.5799;stroke-linecap:butt;stroke-linejoin:round;stroke-miterlimit:4;stroke-dasharray:none;stroke-dashoffset:0;stroke-opacity:1"
       sodipodi:nodetypes="cccc" /><path
       sodipodi:nodetypes="cccc"
       inkscape:connector-curvature="0"
       id="path818"
       d="M 85.390157,81.854081 47.678956,16.536355 9.9677452,81.854038 Z"
       style="fill:#ffffff;fill-opacity:1;stroke:none;stroke-width:12.6128;stroke-linecap:butt;stroke-linejoin:round;stroke-miterlimit:4;stroke-dasharray:none;stroke-dashoffset:0;stroke-opacity:1" /><g
       id="g2338"
       transform="matrix(-1.3322209,-0.62938665,-0.62938665,1.3322209,244.77936,114.27744)"><path
         id="path2190"
         style="opacity:1;fill:#000000;stroke-width:0.264583"
         d="m 125.28695,17.578284 c -0.73743,0.143216 -2.36706,2.031044 -3.09697,3.096968 -1.17171,0.148181 -2.32462,0.371557 -3.42499,0.805122 -0.13519,0.03509 -0.0967,0.05558 -0.12467,0.168412 v 2.438144 c 0.19376,0.808766 1.22046,0.938031 2.08205,1.201994 h 19.86287 c 0.9033,-0.191461 1.80661,-0.290622 2.70991,-0.726054 0.10926,-0.721332 0.20453,-1.447328 0.0822,-2.245858 -2.6785,-0.83111 -5.05599,-1.279111 -7.15771,-1.376143 l -3.36207,-3.362585 z m 0.23564,0.747241 h 2.36006 c 3.8e-4,0.825789 0.1436,1.651579 0,2.477368 h -4.81779 c 0.594,-0.855734 1.88914,-2.468237 2.45773,-2.477368 z m 2.95983,-1.28e-4 4.27642,1.28e-4 2.38056,2.477368 h -6.5095 c -0.0463,-1.549688 -0.10963,-2.000933 -0.14748,-2.477496 z"
         sodipodi:nodetypes="cccccccccccccccccccccc" /><path
         id="path2317"
         style="opacity:1;fill:#ffffff;stroke-width:0.24047"
         d="m 125.69957,25.258686 a 2.5147889,2.5147889 0 0 1 -2.51479,2.514789 2.5147889,2.5147889 0 0 1 -2.51479,-2.514789 2.5147889,2.5147889 0 0 1 2.51479,-2.514789 2.5147889,2.5147889 0 0 1 2.51479,2.514789 z" /><path
         id="circle2319"
         style="opacity:0.481848;stroke-width:0.197924"
         d="m 123.18475,23.188794 a 2.0698509,2.0698509 0 0 0 -2.06964,2.069641 2.0698509,2.0698509 0 0 0 2.06964,2.070158 2.0698509,2.0698509 0 0 0 2.06964,-2.070158 2.0698509,2.0698509 0 0 0 -2.06964,-2.069641 z m 0,0.806669 a 1.2634009,1.2634009 0 0 1 1.26349,1.262972 1.2634009,1.2634009 0 0 1 -1.26349,1.263489 1.2634009,1.2634009 0 0 1 -1.26349,-1.263489 1.2634009,1.2634009 0 0 1 1.26349,-1.262972 z" /><path
         id="path2326"
         style="opacity:1;fill:#000000;fill-opacity:1;stroke-width:0.197924"
         d="m 123.18475,23.188794 a 2.0698509,2.0698509 0 0 0 -2.06964,2.069641 2.0698509,2.0698509 0 0 0 2.06964,2.070158 2.0698509,2.0698509 0 0 0 2.06964,-2.070158 2.0698509,2.0698509 0 0 0 -2.06964,-2.069641 z m 0,0.806669 a 1.2634009,1.2634009 0 0 1 1.26349,1.262972 1.2634009,1.2634009 0 0 1 -1.26349,1.263489 1.2634009,1.2634009 0 0 1 -1.26349,-1.263489 1.2634009,1.2634009 0 0 1 1.26349,-1.262972 z" /><path
         id="circle2328"
         style="opacity:1;fill:#ffffff;stroke-width:0.24047"
         d="m 140.69811,25.258686 a 2.5147889,2.5147889 0 0 1 -2.51479,2.514789 2.5147889,2.5147889 0 0 1 -2.51479,-2.514789 2.5147889,2.5147889 0 0 1 2.51479,-2.514789 2.5147889,2.5147889 0 0 1 2.51479,2.514789 z" /><path
         id="path2330"
         style="opacity:1;fill:#000000;fill-opacity:1;stroke-width:0.197924"
         d="m 138.18328,23.188794 a 2.0698509,2.0698509 0 0 0 -2.06964,2.069641 2.0698509,2.0698509 0 0 0 2.06964,2.070158 2.0698509,2.0698509 0 0 0 2.06964,-2.070158 2.0698509,2.0698509 0 0 0 -2.06964,-2.069641 z m 0,0.806669 a 1.2634009,1.2634009 0 0 1 1.26349,1.262972 1.2634009,1.2634009 0 0 1 -1.26349,1.263489 1.2634009,1.2634009 0 0 1 -1.26349,-1.263489 1.2634009,1.2634009 0 0 1 1.26349,-1.262972 z" /></g><path
       style="display:inline;opacity:1;fill:#000000;stroke-width:0.264583"
       d="M 13.582867,81.854037 81.775036,81.85408 28.24874,56.41513 Z"
       id="path2172"
       sodipodi:nodetypes="cccc" /></g></svg>
