<?xml version="1.0" encoding="UTF-8" standalone="no"?>
<!-- Created with Inkscape (http://www.inkscape.org/) -->

<svg
   width="359.59207"
   height="317.78671"
   viewBox="0 0 95.142067 84.081067"
   version="1.1"
   id="svg292"
   xml:space="preserve"
   inkscape:version="1.2.1 (9c6d41e410, 2022-07-14)"
   sodipodi:docname="Indian_Road_Sign_II-46.svg"
   xmlns:inkscape="http://www.inkscape.org/namespaces/inkscape"
   xmlns:sodipodi="http://sodipodi.sourceforge.net/DTD/sodipodi-0.dtd"
   xmlns="http://www.w3.org/2000/svg"
   xmlns:svg="http://www.w3.org/2000/svg"><sodipodi:namedview
     id="namedview294"
     pagecolor="#505050"
     bordercolor="#eeeeee"
     borderopacity="1"
     inkscape:showpageshadow="0"
     inkscape:pageopacity="0"
     inkscape:pagecheckerboard="0"
     inkscape:deskcolor="#505050"
     inkscape:document-units="mm"
     showgrid="false"
     inkscape:zoom="2"
     inkscape:cx="126.5"
     inkscape:cy="186.25"
     inkscape:window-width="1920"
     inkscape:window-height="991"
     inkscape:window-x="-9"
     inkscape:window-y="-9"
     inkscape:window-maximized="1"
     inkscape:current-layer="layer1"
     showguides="true"><sodipodi:guide
       position="308.63595,39.942764"
       orientation="1,0"
       id="guide2243"
       inkscape:locked="false" /></sodipodi:namedview><defs
     id="defs289"><clipPath
       id="clipPath2832"><path
         d="M -0.24,595.138 H 317.24 V -0.138 H -0.24 Z"
         id="path2834"
         inkscape:connector-curvature="0" /></clipPath><clipPath
       id="clipPath2840"><path
         d="M 0.03,595.32 H 317.49 V 0 H 0.03 Z"
         id="path2842"
         inkscape:connector-curvature="0" /></clipPath><clipPath
       id="clipPath2858"><path
         d="M -0.24,595.138 H 317.24 V -0.138 H -0.24 Z"
         id="path2860"
         inkscape:connector-curvature="0" /></clipPath><clipPath
       id="clipPath2864"><path
         d="M 0.03,595.32 H 317.49 V 0 H 0.03 Z"
         id="path2866"
         inkscape:connector-curvature="0" /></clipPath><clipPath
       id="clipPath3306"><path
         d="m 199.238,472.977 v -29.74 h 29.744 v 29.74"
         id="path3308"
         inkscape:connector-curvature="0" /></clipPath><clipPath
       id="clipPath3322"><path
         d="M -0.24,595.138 H 317.24 V -0.138 H -0.24 Z"
         id="path3324"
         inkscape:connector-curvature="0" /></clipPath><clipPath
       id="clipPath3330"><path
         d="M 0.03,595.32 H 317.49 V 0 H 0.03 Z"
         id="path3332"
         inkscape:connector-curvature="0" /></clipPath><clipPath
       id="clipPath3344"><path
         d="m 88.233,387.221 v -28.335 h 32.08 v 28.335"
         id="path3346"
         inkscape:connector-curvature="0" /></clipPath><clipPath
       id="clipPath3462"><path
         d="M -0.24,595.138 H 317.24 V -0.138 H -0.24 Z"
         id="path3464"
         inkscape:connector-curvature="0" /></clipPath><clipPath
       id="clipPath3470"><path
         d="M 0.03,595.32 H 317.49 V 0 H 0.03 Z"
         id="path3472"
         inkscape:connector-curvature="0" /></clipPath><clipPath
       id="clipPath3490"><path
         d="M -0.24,595.138 H 317.24 V -0.138 H -0.24 Z"
         id="path3492"
         inkscape:connector-curvature="0" /></clipPath><clipPath
       id="clipPath3496"><path
         d="M 0.03,595.32 H 317.49 V 0 H 0.03 Z"
         id="path3498"
         inkscape:connector-curvature="0" /></clipPath><clipPath
       id="clipPath3520"><path
         d="m 254.788,326.215 v -28.309 h 28.326 v 28.309"
         id="path3522"
         inkscape:connector-curvature="0" /></clipPath><clipPath
       id="clipPath3544"><path
         d="m 145.049,326.142 v -28.333 h 28.342 v 28.333"
         id="path3546"
         inkscape:connector-curvature="0" /></clipPath><clipPath
       id="clipPath3682"><path
         d="M -0.24,595.138 H 317.24 V -0.138 H -0.24 Z"
         id="path3684"
         inkscape:connector-curvature="0" /></clipPath><clipPath
       id="clipPath3690"><path
         d="M 0.03,595.32 H 317.49 V 0 H 0.03 Z"
         id="path3692"
         inkscape:connector-curvature="0" /></clipPath><clipPath
       id="clipPath3980"><path
         d="M -0.24,595.138 H 317.24 V -0.138 H -0.24 Z"
         id="path3982"
         inkscape:connector-curvature="0" /></clipPath><clipPath
       id="clipPath3988"><path
         d="M 0.03,595.32 H 317.49 V 0 H 0.03 Z"
         id="path3990"
         inkscape:connector-curvature="0" /></clipPath><clipPath
       id="clipPath4010"><path
         d="M -0.24,595.138 H 317.24 V -0.138 H -0.24 Z"
         id="path4012"
         inkscape:connector-curvature="0" /></clipPath><clipPath
       id="clipPath4016"><path
         d="M 0.03,595.32 H 317.49 V 0 H 0.03 Z"
         id="path4018"
         inkscape:connector-curvature="0" /></clipPath><clipPath
       id="clipPath4062"><path
         d="m 200.163,177.773 v -28.284 h 28.283 v 28.284"
         id="path4064"
         inkscape:connector-curvature="0" /></clipPath><clipPath
       id="clipPath4090"><path
         d="m 34.886,177.515 v -51.632 h 30.367 v 51.632"
         id="path4092"
         inkscape:connector-curvature="0" /></clipPath><clipPath
       id="clipPath4106"><path
         d="m 34.886,177.515 v -51.632 h 30.367 v 51.632"
         id="path4108"
         inkscape:connector-curvature="0" /></clipPath><clipPath
       id="clipPath4272"><path
         d="m 34.886,177.515 v -51.632 h 30.367 v 51.632"
         id="path4274"
         inkscape:connector-curvature="0" /></clipPath><clipPath
       id="clipPath4304"><path
         d="m 254.653,176.442 v -48.167 h 28.317 v 48.167"
         id="path4306"
         inkscape:connector-curvature="0" /></clipPath><clipPath
       id="clipPath4310"><path
         d="m 253.565,177.983 h 31.181 V 128.8 h -31.181 z"
         id="path4312"
         inkscape:connector-curvature="0" /></clipPath><clipPath
       id="clipPath4316"><path
         d="M -0.24,595.138 H 317.24 V -0.138 H -0.24 Z"
         id="path4318"
         inkscape:connector-curvature="0" /></clipPath><clipPath
       id="clipPath4322"><path
         d="M 0.03,595.32 H 317.49 V 0 H 0.03 Z"
         id="path4324"
         inkscape:connector-curvature="0" /></clipPath><clipPath
       id="clipPath4456"><path
         d="M -0.24,595.138 H 317.24 V -0.138 H -0.24 Z"
         id="path4458"
         inkscape:connector-curvature="0" /></clipPath><clipPath
       id="clipPath4464"><path
         d="M 0.03,595.32 H 317.49 V 0 H 0.03 Z"
         id="path4466"
         inkscape:connector-curvature="0" /></clipPath></defs><g
     inkscape:label="Layer 1"
     inkscape:groupmode="layer"
     id="layer1"
     transform="translate(-0.1079166,-6.6255169)"><path
       inkscape:connector-curvature="0"
       id="path814"
       d="M 88.960492,84.416633 47.678877,12.914838 6.3974062,84.416579 Z"
       inkscape:transform-center-y="-6.06719"
       inkscape:transform-center-x="0.31439696"
       style="fill:none;fill-opacity:1;stroke:#ed1c24;stroke-width:12.5799;stroke-linecap:butt;stroke-linejoin:round;stroke-miterlimit:4;stroke-dasharray:none;stroke-dashoffset:0;stroke-opacity:1"
       sodipodi:nodetypes="cccc" /><path
       sodipodi:nodetypes="cccc"
       inkscape:connector-curvature="0"
       id="path818"
       d="M 85.390157,81.854081 47.678956,16.536355 9.9677452,81.854038 Z"
       style="fill:#ffffff;fill-opacity:1;stroke:none;stroke-width:12.6128;stroke-linecap:butt;stroke-linejoin:round;stroke-miterlimit:4;stroke-dasharray:none;stroke-dashoffset:0;stroke-opacity:1" /><g
       id="g9240"
       inkscape:label="Cycle"
       transform="translate(0.28432306,0.27398501)"><path
         id="path8881"
         style="opacity:1;fill:#000000;fill-opacity:1;stroke:none;stroke-width:0.132292;stroke-opacity:1"
         d="m 37.44879,51.135978 c -0.793109,0.05587 -1.498592,3.554014 0.077,4.366659 0.423038,0.218192 -2.919719,10.894942 -2.919719,10.894942 l -1.885673,1.885673 c -0.273348,1.389542 0.190378,1.864784 1.601453,1.765267 l 2.350244,-2.385384 1.709456,-5.637382 8.100798,6.175334 1.333252,-1.870687 -8.747787,-6.577377 0.146762,-0.485241 h 12.43645 l 0.468705,0.81132 -1.864638,5.339868 1.642443,0.615329 1.925967,-5.450319 h 1.265039 l 1.354439,2.345594 -3.108337,5.383134 -0.04929,1.779736 h 9.567576 l -7.1453,-12.375472 -0.543636,-0.331763 0.403592,-1.385445 -1.968872,-0.527099 -0.583943,1.483113 c 0,0 -12.62587,0.22596 -12.756328,0 -0.130457,-0.225959 -0.894002,-3.335714 -0.894002,-3.335714 h 2.547648 c 0.473321,-0.826134 0.495892,-1.652267 0,-2.478401 h -4.386295 c -0.02569,-0.0056 -0.05141,-0.0075 -0.077,-0.0057 z m 20.239075,14.210502 1.702738,2.949691 h -3.257166 z"
         sodipodi:nodetypes="csccccccccccccccccccccccccsccccsccccc" /><path
         id="path9200"
         style="opacity:1;stroke-width:0.15372"
         d="m 33.503294,61.582886 a 7.7174077,7.7174077 0 0 0 -7.717358,7.717358 7.7174077,7.7174077 0 0 0 7.717358,7.717359 7.7174077,7.7174077 0 0 0 7.717359,-7.717359 7.7174077,7.7174077 0 0 0 -7.717359,-7.717358 z m 0,2.572453 a 5.1449384,5.1449384 0 0 1 5.144906,5.144905 5.1449384,5.1449384 0 0 1 -5.144906,5.144906 5.1449384,5.1449384 0 0 1 -5.144905,-5.144906 5.1449384,5.1449384 0 0 1 5.144905,-5.144905 z" /><path
         id="path9210"
         style="opacity:1;stroke-width:0.15372"
         d="m 61.285961,61.582886 a 7.7174077,7.7174077 0 0 0 -7.717358,7.717358 7.7174077,7.7174077 0 0 0 7.717358,7.717359 7.7174077,7.7174077 0 0 0 7.717359,-7.717359 7.7174077,7.7174077 0 0 0 -7.717359,-7.717358 z m 0,2.572453 a 5.1449384,5.1449384 0 0 1 5.144906,5.144905 5.1449384,5.1449384 0 0 1 -5.144906,5.144906 5.1449384,5.1449384 0 0 1 -5.144905,-5.144906 5.1449384,5.1449384 0 0 1 5.144905,-5.144905 z" /><path
         id="circle9214"
         style="opacity:1;stroke-width:0.272072"
         d="m 49.849583,65.39609 a 3.604948,3.604948 0 0 0 -3.604948,3.604948 3.604948,3.604948 0 0 0 3.604948,3.604948 3.604948,3.604948 0 0 0 3.604948,-3.604948 3.604948,3.604948 0 0 0 -3.604948,-3.604948 z m 0,1.554427 a 2.0505207,2.0505207 0 0 1 2.050521,2.050521 2.0505207,2.0505207 0 0 1 -2.050521,2.050521 2.0505207,2.0505207 0 0 1 -2.050521,-2.050521 2.0505207,2.0505207 0 0 1 2.050521,-2.050521 z" /><path
         style="opacity:1;fill:#000000;fill-opacity:1;stroke:none;stroke-width:0.132292;stroke-opacity:1"
         d="m 58.117097,54.099267 c -0.969758,0.598789 -1.555916,1.315608 -1.95398,2.090303 -0.08675,0.101729 -0.1986,0.04043 -0.324025,0.022 L 53.446228,55.859949 53.018934,55.22179 51.19482,55.011314 c -0.556947,-0.167553 -0.672023,-0.505927 -0.708915,-0.818672 -0.08827,-1.181365 0.817558,-1.147902 2.034316,-1.028829 1.390299,0.664859 2.238568,0.349896 3.067513,0 0.767578,-0.225246 3.037366,0.06496 2.529366,0.935445 z"
         id="path9224"
         sodipodi:nodetypes="ccccccccccc" /><path
         style="opacity:1;fill:#000000;fill-opacity:1;stroke:none;stroke-width:0.132292;stroke-opacity:1"
         d="m 50.347351,72.571454 0.233221,1.419573 c 0.279672,0.459757 0.402845,0.43845 0.960502,0.436374 l 2.097591,-0.239489 V 73.112151 L 52.199133,72.281039 V 71.73513 Z"
         id="path9226"
         sodipodi:nodetypes="cccccccc" /><path
         style="opacity:1;fill:#000000;fill-opacity:1;stroke:none;stroke-width:0.132292;stroke-opacity:1"
         d="m 49.365525,65.428737 -0.233221,-1.419573 c -0.279672,-0.459757 -0.402845,-0.43845 -0.960502,-0.436374 l -2.097591,0.239489 v 0.859439 l 1.439532,1.047434 v 0.545909 z"
         id="path9228"
         sodipodi:nodetypes="cccccccc" /></g><g
       id="g9470"
       inkscape:label="Path"><rect
         style="opacity:1;fill:#000000;fill-opacity:1;stroke:none;stroke-width:0.0724819;stroke-opacity:1"
         id="rect9385"
         width="3.8033853"
         height="1.7528644"
         x="20.964622"
         y="68.141144"
         rx="0"
         ry="0" /><rect
         style="opacity:1;fill:#000000;fill-opacity:1;stroke:none;stroke-width:0.0724819;stroke-opacity:1"
         id="rect9387"
         width="3.8033853"
         height="1.7528644"
         x="41.965324"
         y="68.141144"
         rx="0"
         ry="0" /><rect
         style="opacity:1;fill:#000000;fill-opacity:1;stroke:none;stroke-width:0.0724819;stroke-opacity:1"
         id="rect9389"
         width="3.8033853"
         height="1.7528644"
         x="70.589897"
         y="68.141144"
         rx="0"
         ry="0" /><rect
         style="opacity:1;fill:#000000;fill-opacity:1;stroke:none;stroke-width:0.0724819;stroke-opacity:1"
         id="rect9391"
         width="3.8033853"
         height="1.7528644"
         x="15.945488"
         y="78.898743"
         rx="0"
         ry="0" /><rect
         style="opacity:1;fill:#000000;fill-opacity:1;stroke:none;stroke-width:0.0724819;stroke-opacity:1"
         id="rect9433"
         width="3.8033853"
         height="1.7528644"
         x="21.369446"
         y="78.898743"
         rx="0"
         ry="0" /><rect
         style="opacity:1;fill:#000000;fill-opacity:1;stroke:none;stroke-width:0.0724819;stroke-opacity:1"
         id="rect9435"
         width="3.8033853"
         height="1.7528644"
         x="26.793404"
         y="78.898743"
         rx="0"
         ry="0" /><rect
         style="opacity:1;fill:#000000;fill-opacity:1;stroke:none;stroke-width:0.0724819;stroke-opacity:1"
         id="rect9437"
         width="3.8033853"
         height="1.7528644"
         x="32.217361"
         y="78.898743"
         rx="0"
         ry="0" /><rect
         style="opacity:1;fill:#000000;fill-opacity:1;stroke:none;stroke-width:0.0724819;stroke-opacity:1"
         id="rect9439"
         width="3.8033853"
         height="1.7528644"
         x="37.641319"
         y="78.898743"
         rx="0"
         ry="0" /><rect
         style="opacity:1;fill:#000000;fill-opacity:1;stroke:none;stroke-width:0.0724819;stroke-opacity:1"
         id="rect9441"
         width="3.8033853"
         height="1.7528644"
         x="43.065277"
         y="78.898743"
         rx="0"
         ry="0" /><rect
         style="opacity:1;fill:#000000;fill-opacity:1;stroke:none;stroke-width:0.0724819;stroke-opacity:1"
         id="rect9443"
         width="3.8033853"
         height="1.7528644"
         x="48.489235"
         y="78.898743"
         rx="0"
         ry="0" /><rect
         style="opacity:1;fill:#000000;fill-opacity:1;stroke:none;stroke-width:0.0724819;stroke-opacity:1"
         id="rect9445"
         width="3.8033853"
         height="1.7528644"
         x="53.913193"
         y="78.898743"
         rx="0"
         ry="0" /><rect
         style="opacity:1;fill:#000000;fill-opacity:1;stroke:none;stroke-width:0.0724819;stroke-opacity:1"
         id="rect9447"
         width="3.8033853"
         height="1.7528644"
         x="59.337151"
         y="78.898743"
         rx="0"
         ry="0" /><rect
         style="opacity:1;fill:#000000;fill-opacity:1;stroke:none;stroke-width:0.0724819;stroke-opacity:1"
         id="rect9449"
         width="3.8033853"
         height="1.7528644"
         x="64.761116"
         y="78.898743"
         rx="0"
         ry="0" /><rect
         style="opacity:1;fill:#000000;fill-opacity:1;stroke:none;stroke-width:0.0724819;stroke-opacity:1"
         id="rect9451"
         width="3.8033853"
         height="1.7528644"
         x="70.185074"
         y="78.898743"
         rx="0"
         ry="0" /><rect
         style="opacity:1;fill:#000000;fill-opacity:1;stroke:none;stroke-width:0.0724819;stroke-opacity:1"
         id="rect9453"
         width="3.8033853"
         height="1.7528644"
         x="75.609032"
         y="78.898743"
         rx="0"
         ry="0" /></g></g></svg>
