<?xml version="1.0" encoding="UTF-8" standalone="no"?>
<!-- Created with Inkscape (http://www.inkscape.org/) -->

<svg
   width="405"
   height="243"
   viewBox="0 0 107.15625 64.29375"
   version="1.1"
   id="svg292"
   xml:space="preserve"
   inkscape:version="1.2.1 (9c6d41e410, 2022-07-14)"
   sodipodi:docname="Indian Road Sign II-41.svg"
   xmlns:inkscape="http://www.inkscape.org/namespaces/inkscape"
   xmlns:sodipodi="http://sodipodi.sourceforge.net/DTD/sodipodi-0.dtd"
   xmlns="http://www.w3.org/2000/svg"
   xmlns:svg="http://www.w3.org/2000/svg"><sodipodi:namedview
     id="namedview294"
     pagecolor="#505050"
     bordercolor="#eeeeee"
     borderopacity="1"
     inkscape:showpageshadow="0"
     inkscape:pageopacity="0"
     inkscape:pagecheckerboard="0"
     inkscape:deskcolor="#505050"
     inkscape:document-units="mm"
     showgrid="false"
     inkscape:zoom="1.6819304"
     inkscape:cx="210.47244"
     inkscape:cy="50.834446"
     inkscape:window-width="1920"
     inkscape:window-height="991"
     inkscape:window-x="-9"
     inkscape:window-y="-9"
     inkscape:window-maximized="1"
     inkscape:current-layer="layer1"
     showguides="true"><sodipodi:guide
       position="308.63595,20.155446"
       orientation="1,0"
       id="guide2243"
       inkscape:locked="false" /></sodipodi:namedview><defs
     id="defs289"><inkscape:path-effect
       effect="fillet_chamfer"
       id="path-effect2908"
       is_visible="true"
       lpeversion="1"
       nodesatellites_param="F,0,0,1,0,4.0878675,0,1 @ F,0,0,1,0,1.6885452,0,1 @ F,0,0,1,0,0.40570983,0,1 @ F,0,0,1,0,0.49262617,0,1 @ F,0,0,1,0,0.79618528,0,1 @ F,0,0,1,0,0,0,1 @ F,0,0,1,0,0,0,1 @ F,0,0,1,0,0,0,1 @ F,0,0,1,0,0,0,1 @ F,0,0,1,0,0,0,1 @ F,0,0,1,0,0,0,1 @ F,0,0,1,0,0.55617244,0,1 @ F,0,0,1,0,0,0,1 @ F,0,0,1,0,0,0,1 @ F,0,0,1,0,0,0,1 @ F,0,0,1,0,1.654086,0,1 @ F,0,0,1,0,0,0,1 @ F,0,0,1,0,0,0,1 @ F,0,0,1,0,0.98128185,0,1 @ F,0,0,1,0,0,0,1 @ F,0,0,1,0,0,0,1 | F,0,0,1,0,0.43103364,0,1 @ F,0,0,1,0,0.57302446,0,1 @ F,0,0,1,0,0,0,1 @ F,0,0,1,0,0,0,1 @ F,0,0,1,0,1.1123449,0,1 @ F,0,0,1,0,0,0,1 @ F,0,0,1,0,0,0,1"
       unit="px"
       method="auto"
       mode="F"
       radius="0"
       chamfer_steps="1"
       flexible="false"
       use_knot_distance="true"
       apply_no_radius="true"
       apply_with_radius="true"
       only_selected="false"
       hide_knots="false" /><clipPath
       id="clipPath2832"><path
         d="M -0.24,595.138 H 317.24 V -0.138 H -0.24 Z"
         id="path2834"
         inkscape:connector-curvature="0" /></clipPath><clipPath
       id="clipPath2840"><path
         d="M 0.03,595.32 H 317.49 V 0 H 0.03 Z"
         id="path2842"
         inkscape:connector-curvature="0" /></clipPath><clipPath
       id="clipPath2858"><path
         d="M -0.24,595.138 H 317.24 V -0.138 H -0.24 Z"
         id="path2860"
         inkscape:connector-curvature="0" /></clipPath><clipPath
       id="clipPath2864"><path
         d="M 0.03,595.32 H 317.49 V 0 H 0.03 Z"
         id="path2866"
         inkscape:connector-curvature="0" /></clipPath><clipPath
       id="clipPath3306"><path
         d="m 199.238,472.977 v -29.74 h 29.744 v 29.74"
         id="path3308"
         inkscape:connector-curvature="0" /></clipPath><clipPath
       id="clipPath3322"><path
         d="M -0.24,595.138 H 317.24 V -0.138 H -0.24 Z"
         id="path3324"
         inkscape:connector-curvature="0" /></clipPath><clipPath
       id="clipPath3330"><path
         d="M 0.03,595.32 H 317.49 V 0 H 0.03 Z"
         id="path3332"
         inkscape:connector-curvature="0" /></clipPath><clipPath
       id="clipPath3344"><path
         d="m 88.233,387.221 v -28.335 h 32.08 v 28.335"
         id="path3346"
         inkscape:connector-curvature="0" /></clipPath><clipPath
       id="clipPath3462"><path
         d="M -0.24,595.138 H 317.24 V -0.138 H -0.24 Z"
         id="path3464"
         inkscape:connector-curvature="0" /></clipPath><clipPath
       id="clipPath3470"><path
         d="M 0.03,595.32 H 317.49 V 0 H 0.03 Z"
         id="path3472"
         inkscape:connector-curvature="0" /></clipPath><clipPath
       id="clipPath3490"><path
         d="M -0.24,595.138 H 317.24 V -0.138 H -0.24 Z"
         id="path3492"
         inkscape:connector-curvature="0" /></clipPath><clipPath
       id="clipPath3496"><path
         d="M 0.03,595.32 H 317.49 V 0 H 0.03 Z"
         id="path3498"
         inkscape:connector-curvature="0" /></clipPath><clipPath
       id="clipPath3520"><path
         d="m 254.788,326.215 v -28.309 h 28.326 v 28.309"
         id="path3522"
         inkscape:connector-curvature="0" /></clipPath><clipPath
       id="clipPath3544"><path
         d="m 145.049,326.142 v -28.333 h 28.342 v 28.333"
         id="path3546"
         inkscape:connector-curvature="0" /></clipPath><clipPath
       id="clipPath3682"><path
         d="M -0.24,595.138 H 317.24 V -0.138 H -0.24 Z"
         id="path3684"
         inkscape:connector-curvature="0" /></clipPath><clipPath
       id="clipPath3690"><path
         d="M 0.03,595.32 H 317.49 V 0 H 0.03 Z"
         id="path3692"
         inkscape:connector-curvature="0" /></clipPath><clipPath
       id="clipPath3980"><path
         d="M -0.24,595.138 H 317.24 V -0.138 H -0.24 Z"
         id="path3982"
         inkscape:connector-curvature="0" /></clipPath><clipPath
       id="clipPath3988"><path
         d="M 0.03,595.32 H 317.49 V 0 H 0.03 Z"
         id="path3990"
         inkscape:connector-curvature="0" /></clipPath><clipPath
       id="clipPath4010"><path
         d="M -0.24,595.138 H 317.24 V -0.138 H -0.24 Z"
         id="path4012"
         inkscape:connector-curvature="0" /></clipPath><clipPath
       id="clipPath4016"><path
         d="M 0.03,595.32 H 317.49 V 0 H 0.03 Z"
         id="path4018"
         inkscape:connector-curvature="0" /></clipPath><clipPath
       id="clipPath4062"><path
         d="m 200.163,177.773 v -28.284 h 28.283 v 28.284"
         id="path4064"
         inkscape:connector-curvature="0" /></clipPath><clipPath
       id="clipPath4090"><path
         d="m 34.886,177.515 v -51.632 h 30.367 v 51.632"
         id="path4092"
         inkscape:connector-curvature="0" /></clipPath><clipPath
       id="clipPath4106"><path
         d="m 34.886,177.515 v -51.632 h 30.367 v 51.632"
         id="path4108"
         inkscape:connector-curvature="0" /></clipPath><clipPath
       id="clipPath4272"><path
         d="m 34.886,177.515 v -51.632 h 30.367 v 51.632"
         id="path4274"
         inkscape:connector-curvature="0" /></clipPath><clipPath
       id="clipPath4304"><path
         d="m 254.653,176.442 v -48.167 h 28.317 v 48.167"
         id="path4306"
         inkscape:connector-curvature="0" /></clipPath><clipPath
       id="clipPath4310"><path
         d="m 253.565,177.983 h 31.181 V 128.8 h -31.181 z"
         id="path4312"
         inkscape:connector-curvature="0" /></clipPath><clipPath
       id="clipPath4316"><path
         d="M -0.24,595.138 H 317.24 V -0.138 H -0.24 Z"
         id="path4318"
         inkscape:connector-curvature="0" /></clipPath><clipPath
       id="clipPath4322"><path
         d="M 0.03,595.32 H 317.49 V 0 H 0.03 Z"
         id="path4324"
         inkscape:connector-curvature="0" /></clipPath><clipPath
       id="clipPath4456"><path
         d="M -0.24,595.138 H 317.24 V -0.138 H -0.24 Z"
         id="path4458"
         inkscape:connector-curvature="0" /></clipPath><clipPath
       id="clipPath4464"><path
         d="M 0.03,595.32 H 317.49 V 0 H 0.03 Z"
         id="path4466"
         inkscape:connector-curvature="0" /></clipPath></defs><g
     inkscape:label="Layer 1"
     inkscape:groupmode="layer"
     id="layer1"
     transform="translate(-0.1079166,-6.6255169)"><rect
       style="opacity:1;fill:#000000;fill-opacity:1;stroke:none;stroke-width:0.132292;stroke-dasharray:none;stroke-opacity:1"
       id="rect3128"
       width="107.15625"
       height="64.293747"
       x="0.1079166"
       y="6.6255169"
       rx="6.6069918"
       ry="6.6069918" /><rect
       style="opacity:1;fill:#ffffff;fill-opacity:1;stroke:none;stroke-width:0.117909;stroke-dasharray:none;stroke-opacity:1"
       id="rect3131"
       width="98.451797"
       height="55.589291"
       x="4.4601417"
       y="10.977743"
       rx="4.4799252"
       ry="4.3407111" /><g
       aria-label="END"
       id="text3188"
       style="font-size:37.5785px;line-height:0.95;stroke-width:0.939464"
       transform="translate(0.94385593)"><path
         d="m 12.738913,24.753851 h 0.513768 1.46791 0.587164 0.587164 0.587164 0.587164 1.46791 0.220187 0.220186 2.275261 0.513769 0.440373 0.513768 0.440373 0.366978 0.440373 0.293582 1.321119 0.807351 0.293582 0.293582 0.293582 0.293582 1.247723 0.220187 0.880746 v 4.40373 H 29.693274 29.326297 29.10611 28.812528 28.592342 27.124432 26.83085 26.463872 25.50973 25.216148 23.968425 23.748238 22.867492 22.57391 22.280328 22.060142 20.739023 19.784881 19.491299 18.243575 18.023389 17.142643 v 7.045969 q 0.0367,0.348628 0.366977,0.293582 h 0.513769 0.440373 0.513768 0.440374 0.513768 0.440373 1.247724 0.440373 0.366977 0.440373 0.293582 1.321119 0.807351 0.293582 0.293582 0.293582 0.293582 1.247724 0.220186 0.880746 v 4.330334 H 28.29876 27.858387 26.610663 26.390477 25.50973 24.555589 24.262007 23.014283 22.794097 21.913351 21.106 20.739023 19.784881 19.491299 18.243575 18.023389 17.142643 v 7.339551 q -0.01835,0.385326 0.293582,0.366978 h 0.220186 0.220187 1.46791 0.220187 0.220186 2.275261 0.513768 0.440373 0.513769 0.440373 0.366977 0.440373 0.293582 1.32112 0.80735 0.293582 0.293582 0.293582 0.293582 1.247724 0.220186 0.880746 v 4.330334 h -0.220186 -0.293582 -1.247724 -0.220186 -0.880746 -1.46791 -0.293582 -1.32112 -0.220186 -0.220187 -2.27526 -1.247724 -0.220186 -0.880746 -0.293582 -0.220187 -1.46791 -0.293582 -0.220187 -1.321119 -0.954141 -0.293582 -1.247724 -0.220186 -0.880747 V 52.570747 51.249628 50.662464 50.0753 49.855114 49.561532 48.240413 48.020226 46.552316 45.965152 45.67157 44.350451 44.130264 43.910078 41.634817 41.121048 40.900862 40.60728 39.286161 38.258624 38.038437 37.67146 37.451273 37.157691 36.937505 35.469595 34.221871 34.001684 33.120938 32.166797 31.873215 30.625491 30.405305 29.524559 28.717208 28.350231 27.396089 27.102507 25.854783 25.634597 24.753851 Z"
         style="font-family:Transport;-inkscape-font-specification:Transport"
         id="path3190" /><path
         d="m 38.886062,24.680455 h 0.220187 1.321119 0.954141 0.293582 1.247724 0.220186 0.880746 l 0.293582,0.513769 0.146791,0.146791 0.293582,0.513768 q 0.311931,0.422024 0.440373,0.733955 l 0.146791,0.0734 0.0734,0.146791 0.66056,1.027537 0.293582,0.440373 0.293582,0.440373 q 0.09174,0.0734 0.0734,0.146791 0.532118,0.568815 0.733955,1.100933 0.49542,0.550466 0.733955,1.027537 l 0.293582,0.366977 0.220187,0.440373 0.146791,0.220187 0.146791,0.146791 0.293582,0.513768 0.146791,0.146791 0.513768,0.807351 0.293582,0.440373 0.293582,0.440373 0.513769,0.733955 0.146791,0.146791 0.146791,0.220187 0.07339,0.220186 0.146791,0.220187 0.146791,0.146791 0.293583,0.513768 0.146791,0.146791 0.513768,0.807351 0.0734,0.146791 0.146791,0.220186 q 0.09174,0.0734 0.07339,0.146791 0.366978,0.403676 0.587164,0.733955 l 0.220187,0.366978 0.146791,0.293582 q 0.385326,0.403675 0.513768,0.80735 l 0.293582,0.440373 q 0.238536,0.183489 0.366978,0.440373 l 0.293582,0.440374 q 0.348628,0.513768 0.513768,0.880746 0.110094,0.09174 0.146791,0.220186 l 0.220187,0.146791 0.07339,0.220187 0.146791,0.146791 0.146791,0.220186 0.0734,0.220187 q 0.550466,0.623861 0.80735,1.100932 v -0.22019 -0.220187 -0.220186 -0.954142 -1.027537 -0.220186 -0.366978 -0.220186 -0.293583 -0.220186 -1.46791 -0.587164 -0.587164 -1.027537 -0.220187 -0.366977 -0.220187 -0.293582 -0.220186 -1.467911 -1.247723 -0.220187 -0.880746 -0.293582 -0.220186 -1.46791 -0.293582 -0.220187 -1.321119 -0.954142 -0.293582 -1.247723 -0.220187 -0.880746 h 0.293582 1.32112 0.293582 0.293582 0.293582 1.247723 0.587164 0.513769 v 28.110479 h -0.293582 -0.220187 -1.321119 -0.954141 -0.293582 -1.247724 -0.220187 -0.880746 l -0.293582,-0.513769 -0.146791,-0.146791 -0.07339,-0.220186 q -0.550466,-0.623862 -0.807351,-1.100933 l -0.0734,-0.146791 q -0.550467,-0.733955 -0.807351,-1.247723 l -0.366977,-0.440373 -0.733955,-1.100933 -0.0734,-0.146791 -0.146791,-0.146791 -0.293582,-0.513769 Q 52.812859,46.64406 52.684417,46.332129 52.31744,45.965152 52.170649,45.67157 51.913764,45.286243 51.803671,45.01101 51.675229,44.937615 51.65688,44.864219 l -0.146791,-0.146791 -0.0734,-0.220186 -0.146791,-0.146791 -0.07339,-0.220187 Q 50.831181,43.744938 50.629343,43.396309 L 49.675201,42.001795 49.52841,41.634817 q -0.440373,-0.422024 -0.587164,-0.880746 -0.532117,-0.568815 -0.733955,-1.100933 l -0.293582,-0.293582 -0.146791,-0.366977 -0.366977,-0.366978 -0.220187,-0.440373 -0.220186,-0.293582 q -0.311931,-0.422024 -0.440373,-0.733955 l -0.293582,-0.440373 q -0.128443,-0.07339 -0.146791,-0.146791 l -0.513769,-0.733955 q -0.348629,-0.513768 -0.513769,-0.880746 l -0.220186,-0.220186 -0.0734,-0.220187 -0.220186,-0.220187 -0.0734,-0.220186 q -0.128442,-0.0734 -0.146791,-0.146791 -0.09174,-0.0734 -0.07339,-0.146791 -0.550466,-0.623862 -0.807351,-1.100933 V 52.790934 H 43.143001 41.821882 41.5283 41.234718 40.941136 39.693413 39.473226 38.59248 v -0.293582 -1.321119 -0.587164 -0.587164 -0.220187 -0.293582 -1.321119 -0.220186 -1.467911 -0.587164 -0.293582 -1.321119 -0.220186 -0.220187 -2.27526 -0.513769 -0.220187 -0.293582 -1.321119 -1.027537 -0.220186 -0.366978 -0.220186 -0.293582 -0.220187 -1.46791 -1.247724 -0.220186 -0.880746 -0.954142 -0.293582 -1.247723 -0.220187 -0.880746 -0.80735 -0.366978 -0.954142 -0.293582 -1.247723 -0.220187 -0.880746 z"
         style="font-family:Transport;-inkscape-font-specification:Transport"
         id="path3192" /><path
         d="m 72.703042,24.753851 h 0.366978 2.27526 0.440373 0.366978 0.293582 0.220186 1.46791 0.954142 0.366978 1.027537 0.366977 0.293582 0.220187 0.366977 0.807351 l 0.220186,0.07339 h 0.220187 l 0.146791,-0.07339 h 0.293582 l 0.293582,0.07339 h 0.220186 l 1.174328,0.0734 0.366978,0.07339 0.293582,0.0734 0.146791,0.07339 0.587164,0.146791 1.100933,0.366978 0.733955,0.440373 0.220186,0.07339 q 0.385327,0.201838 0.587164,0.366978 0.128442,0.07339 0.146791,0.146791 0.66056,0.348629 1.027537,0.660559 5.743199,6.22027 4.550522,13.945146 Q 92.556526,53.433145 81.07013,52.790934 H 80.849943 80.482966 80.262779 79.969197 79.749011 78.2811 76.00584 74.978303 74.758116 74.391139 74.170952 73.87737 73.657184 72.189273 V 52.570747 52.277165 52.056979 51.763397 50.442278 49.855114 49.26795 49.047763 47.579853 47.286271 46.919293 46.625711 46.258734 45.304592 45.01101 43.763287 43.5431 42.662354 42.368772 42.001795 41.047653 40.754071 39.506347 39.286161 38.405415 37.891646 37.304482 36.717318 36.130154 35.909968 35.689781 33.41452 32.900752 32.460379 31.94661 31.506237 31.13926 30.698887 30.405305 29.084186 28.276835 27.983253 27.689671 27.396089 27.102507 25.854783 25.634597 24.753851 Z m 4.330335,23.706748 h 0.366977 1.027537 0.807351 0.220187 0.220186 0.220187 0.220186 0.220187 0.220186 0.220187 0.733955 0.220186 0.293582 0.220187 0.513768 l 0.220187,-0.0734 h 0.220186 l 1.174328,-0.146791 0.587164,-0.146791 q 0.642211,-0.385327 1.174329,-0.513769 0.07339,-0.128442 0.146791,-0.146791 l 0.220186,-0.0734 0.0734,-0.146791 0.220186,-0.07339 0.0734,-0.146791 0.220186,-0.0734 q 0.238536,-0.348628 0.513769,-0.513768 0.366977,-0.49542 0.733955,-0.807351 1.981678,-3.651426 1.908283,-7.266155 -0.238536,-5.87164 -4.477126,-8.587274 h -0.220187 q -0.64221,-0.366977 -1.174328,-0.440373 l -0.366977,-0.0734 -0.954142,-0.146791 h -0.29359 -0.220186 -1.46791 -0.220187 -1.321119 -0.220186 -2.275261 z"
         style="font-family:Transport;-inkscape-font-specification:Transport"
         id="path3194" /></g></g></svg>
