<?xml version="1.0" encoding="UTF-8" standalone="no"?>
<!-- Created with Inkscape (http://www.inkscape.org/) -->

<svg
   width="359.59207"
   height="317.78671"
   viewBox="0 0 95.142067 84.081067"
   version="1.1"
   id="svg292"
   xml:space="preserve"
   inkscape:version="1.2.1 (9c6d41e410, 2022-07-14)"
   sodipodi:docname="Indian_Road_Sign_II-50.svg"
   xmlns:inkscape="http://www.inkscape.org/namespaces/inkscape"
   xmlns:sodipodi="http://sodipodi.sourceforge.net/DTD/sodipodi-0.dtd"
   xmlns="http://www.w3.org/2000/svg"
   xmlns:svg="http://www.w3.org/2000/svg"><sodipodi:namedview
     id="namedview294"
     pagecolor="#505050"
     bordercolor="#eeeeee"
     borderopacity="1"
     inkscape:showpageshadow="0"
     inkscape:pageopacity="0"
     inkscape:pagecheckerboard="0"
     inkscape:deskcolor="#505050"
     inkscape:document-units="mm"
     showgrid="false"
     inkscape:zoom="2.8284271"
     inkscape:cx="190.56528"
     inkscape:cy="238.82531"
     inkscape:window-width="1920"
     inkscape:window-height="991"
     inkscape:window-x="-9"
     inkscape:window-y="-9"
     inkscape:window-maximized="1"
     inkscape:current-layer="layer1"
     showguides="true"><sodipodi:guide
       position="308.63595,39.942764"
       orientation="1,0"
       id="guide2243"
       inkscape:locked="false" /></sodipodi:namedview><defs
     id="defs289"><inkscape:path-effect
       effect="fillet_chamfer"
       id="path-effect13664"
       is_visible="true"
       lpeversion="1"
       nodesatellites_param="F,0,0,1,0,2.1332031,0,1 @ F,0,0,1,0,1.8007284,0,1 @ F,0,0,1,0,1.1103513,0,1 @ F,0,0,1,0,0,0,1 @ F,0,0,1,0,0.6840394,0,1 @ F,0,0,1,0,0,0,1 @ F,0,0,1,0,0,0,1 @ F,0,0,1,0,0,0,1 @ F,0,0,1,0,0,0,1 @ F,0,0,1,0,1.0687215,0,1 @ F,0,0,1,0,0,0,1 @ F,0,0,1,0,0,0,1 @ F,0,0,1,0,0,0,1 @ F,0,0,1,0,0.76550939,0,1"
       unit="px"
       method="auto"
       mode="F"
       radius="0"
       chamfer_steps="1"
       flexible="false"
       use_knot_distance="true"
       apply_no_radius="true"
       apply_with_radius="true"
       only_selected="false"
       hide_knots="false" /><clipPath
       id="clipPath2832"><path
         d="M -0.24,595.138 H 317.24 V -0.138 H -0.24 Z"
         id="path2834"
         inkscape:connector-curvature="0" /></clipPath><clipPath
       id="clipPath2840"><path
         d="M 0.03,595.32 H 317.49 V 0 H 0.03 Z"
         id="path2842"
         inkscape:connector-curvature="0" /></clipPath><clipPath
       id="clipPath2858"><path
         d="M -0.24,595.138 H 317.24 V -0.138 H -0.24 Z"
         id="path2860"
         inkscape:connector-curvature="0" /></clipPath><clipPath
       id="clipPath2864"><path
         d="M 0.03,595.32 H 317.49 V 0 H 0.03 Z"
         id="path2866"
         inkscape:connector-curvature="0" /></clipPath><clipPath
       id="clipPath3306"><path
         d="m 199.238,472.977 v -29.74 h 29.744 v 29.74"
         id="path3308"
         inkscape:connector-curvature="0" /></clipPath><clipPath
       id="clipPath3322"><path
         d="M -0.24,595.138 H 317.24 V -0.138 H -0.24 Z"
         id="path3324"
         inkscape:connector-curvature="0" /></clipPath><clipPath
       id="clipPath3330"><path
         d="M 0.03,595.32 H 317.49 V 0 H 0.03 Z"
         id="path3332"
         inkscape:connector-curvature="0" /></clipPath><clipPath
       id="clipPath3344"><path
         d="m 88.233,387.221 v -28.335 h 32.08 v 28.335"
         id="path3346"
         inkscape:connector-curvature="0" /></clipPath><clipPath
       id="clipPath3462"><path
         d="M -0.24,595.138 H 317.24 V -0.138 H -0.24 Z"
         id="path3464"
         inkscape:connector-curvature="0" /></clipPath><clipPath
       id="clipPath3470"><path
         d="M 0.03,595.32 H 317.49 V 0 H 0.03 Z"
         id="path3472"
         inkscape:connector-curvature="0" /></clipPath><clipPath
       id="clipPath3490"><path
         d="M -0.24,595.138 H 317.24 V -0.138 H -0.24 Z"
         id="path3492"
         inkscape:connector-curvature="0" /></clipPath><clipPath
       id="clipPath3496"><path
         d="M 0.03,595.32 H 317.49 V 0 H 0.03 Z"
         id="path3498"
         inkscape:connector-curvature="0" /></clipPath><clipPath
       id="clipPath3520"><path
         d="m 254.788,326.215 v -28.309 h 28.326 v 28.309"
         id="path3522"
         inkscape:connector-curvature="0" /></clipPath><clipPath
       id="clipPath3544"><path
         d="m 145.049,326.142 v -28.333 h 28.342 v 28.333"
         id="path3546"
         inkscape:connector-curvature="0" /></clipPath><clipPath
       id="clipPath3682"><path
         d="M -0.24,595.138 H 317.24 V -0.138 H -0.24 Z"
         id="path3684"
         inkscape:connector-curvature="0" /></clipPath><clipPath
       id="clipPath3690"><path
         d="M 0.03,595.32 H 317.49 V 0 H 0.03 Z"
         id="path3692"
         inkscape:connector-curvature="0" /></clipPath><clipPath
       id="clipPath3980"><path
         d="M -0.24,595.138 H 317.24 V -0.138 H -0.24 Z"
         id="path3982"
         inkscape:connector-curvature="0" /></clipPath><clipPath
       id="clipPath3988"><path
         d="M 0.03,595.32 H 317.49 V 0 H 0.03 Z"
         id="path3990"
         inkscape:connector-curvature="0" /></clipPath><clipPath
       id="clipPath4010"><path
         d="M -0.24,595.138 H 317.24 V -0.138 H -0.24 Z"
         id="path4012"
         inkscape:connector-curvature="0" /></clipPath><clipPath
       id="clipPath4016"><path
         d="M 0.03,595.32 H 317.49 V 0 H 0.03 Z"
         id="path4018"
         inkscape:connector-curvature="0" /></clipPath><clipPath
       id="clipPath4062"><path
         d="m 200.163,177.773 v -28.284 h 28.283 v 28.284"
         id="path4064"
         inkscape:connector-curvature="0" /></clipPath><clipPath
       id="clipPath4090"><path
         d="m 34.886,177.515 v -51.632 h 30.367 v 51.632"
         id="path4092"
         inkscape:connector-curvature="0" /></clipPath><clipPath
       id="clipPath4106"><path
         d="m 34.886,177.515 v -51.632 h 30.367 v 51.632"
         id="path4108"
         inkscape:connector-curvature="0" /></clipPath><clipPath
       id="clipPath4272"><path
         d="m 34.886,177.515 v -51.632 h 30.367 v 51.632"
         id="path4274"
         inkscape:connector-curvature="0" /></clipPath><clipPath
       id="clipPath4304"><path
         d="m 254.653,176.442 v -48.167 h 28.317 v 48.167"
         id="path4306"
         inkscape:connector-curvature="0" /></clipPath><clipPath
       id="clipPath4310"><path
         d="m 253.565,177.983 h 31.181 V 128.8 h -31.181 z"
         id="path4312"
         inkscape:connector-curvature="0" /></clipPath><clipPath
       id="clipPath4316"><path
         d="M -0.24,595.138 H 317.24 V -0.138 H -0.24 Z"
         id="path4318"
         inkscape:connector-curvature="0" /></clipPath><clipPath
       id="clipPath4322"><path
         d="M 0.03,595.32 H 317.49 V 0 H 0.03 Z"
         id="path4324"
         inkscape:connector-curvature="0" /></clipPath><clipPath
       id="clipPath4456"><path
         d="M -0.24,595.138 H 317.24 V -0.138 H -0.24 Z"
         id="path4458"
         inkscape:connector-curvature="0" /></clipPath><clipPath
       id="clipPath4464"><path
         d="M 0.03,595.32 H 317.49 V 0 H 0.03 Z"
         id="path4466"
         inkscape:connector-curvature="0" /></clipPath><clipPath
       clipPathUnits="userSpaceOnUse"
       id="clipPath9725"><path
         style="opacity:0.466997;fill:#000000;fill-opacity:1;stroke:none;stroke-width:0.132292;stroke-opacity:1"
         d="M 22.558556,63.687561 V 78.841744 H 71.575788 V 63.687561 Z"
         id="path9727" /></clipPath><clipPath
       clipPathUnits="userSpaceOnUse"
       id="clipPath10710"><rect
         style="opacity:0.457096;fill:#000000;fill-opacity:1;stroke:none;stroke-width:0.236208;stroke-opacity:1"
         id="rect10712"
         width="59.400654"
         height="15.805765"
         x="18.442606"
         y="63.877876" /></clipPath></defs><g
     inkscape:label="Layer 1"
     inkscape:groupmode="layer"
     id="layer1"
     transform="translate(-0.1079166,-6.6255169)"><path
       inkscape:connector-curvature="0"
       id="path814"
       d="M 88.960492,84.416633 47.678877,12.914838 6.3974062,84.416579 Z"
       inkscape:transform-center-y="-6.06719"
       inkscape:transform-center-x="0.31439696"
       style="fill:none;fill-opacity:1;stroke:#ed1c24;stroke-width:12.5799;stroke-linecap:butt;stroke-linejoin:round;stroke-miterlimit:4;stroke-dasharray:none;stroke-dashoffset:0;stroke-opacity:1"
       sodipodi:nodetypes="cccc" /><path
       sodipodi:nodetypes="cccc"
       inkscape:connector-curvature="0"
       id="path818"
       d="M 85.390157,81.854081 47.678956,16.536355 9.9677452,81.854038 Z"
       style="fill:#ffffff;fill-opacity:1;stroke:none;stroke-width:12.6128;stroke-linecap:butt;stroke-linejoin:round;stroke-miterlimit:4;stroke-dasharray:none;stroke-dashoffset:0;stroke-opacity:1" /><path
       style="opacity:1;fill:#000000;fill-opacity:1;stroke:none;stroke-width:0.132292;stroke-opacity:1"
       d="m 17.769479,73.998188 58.179505,0 c 0.994514,0 1.483777,-0.758088 0.852282,-1.519662 -1.226134,-1.478698 -3.361018,-3.289866 -5.401481,-5.066489 -0.462257,-0.402486 -0.901674,-1.225994 -1.06521,-1.81668 -0.566487,-2.04613 -1.883059,-3.545902 -5.260119,-3.544824 -2.0594,0.121202 -3.661912,0.888063 -3.810473,3.10492 -0.02525,0.376712 -0.24575,0.868994 -0.528275,1.119622 -0.916641,0.813155 -1.933156,1.892035 -3.098192,1.808784 -0.459693,-0.05946 -0.820523,-0.27546 -1.093141,-0.631125 -0.589617,-0.833154 -1.322697,-1.483269 -2.24552,-1.891297 -0.917554,-0.342832 -1.590404,-0.634901 -2.305438,-0.06532 -4.261902,3.374024 -6.089317,3.648878 -9.141345,2.013456 -0.520196,-0.278745 -1.206775,-0.139073 -1.602915,0.298153 -1.197204,1.321375 -2.586477,2.091578 -4.26305,2.022909 -2.004842,-0.257723 -3.166565,-1.211935 -3.144259,-3.144259 0.06641,-1.535425 -1.57852,-3.155048 -3.258964,-3.258964 -3.434009,-0.02169 -4.1969,1.808675 -5.094577,3.474275 -0.200456,0.371938 -0.68401,0.822191 -1.057193,1.020874 -2.554779,1.360169 -5.015262,2.838206 -7.207148,4.651991 -0.907363,0.750842 -0.632622,1.423636 0.545513,1.423636 z"
       id="path13660"
       sodipodi:nodetypes="ccccccccccccccc"
       inkscape:original-d="m 15.636276,73.998188 h 62.113436 c -0.594749,-1.780451 -4.157498,-4.646756 -7.184916,-7.317208 -0.408792,-2.578766 -1.539478,-4.631708 -5.49034,-4.630447 -2.258301,0.132908 -3.967197,1.042215 -3.811932,3.788546 -1.051457,0.782602 -2.232078,2.344316 -3.625008,2.24478 -0.459693,-0.05946 -0.820523,-0.27546 -1.093141,-0.631125 -0.589617,-0.833154 -1.322697,-1.483269 -2.24552,-1.891297 -0.917554,-0.342832 -1.590404,-0.634901 -2.305438,-0.06532 -4.676125,3.701953 -6.421541,3.673029 -10.069309,1.483562 -1.344585,1.81947 -2.936585,2.93293 -4.938001,2.850956 -2.004842,-0.257723 -3.166565,-1.211935 -3.144259,-3.144259 0.06641,-1.535425 -1.57852,-3.155048 -3.258964,-3.258964 -3.900068,-0.02463 -4.354776,2.339617 -5.474533,4.138287 -3.437633,1.79382 -6.734032,3.764181 -9.472075,6.432489 z"
       inkscape:path-effect="#path-effect13664" /></g></svg>
