<?xml version="1.0" encoding="UTF-8" standalone="no"?>
<!-- Created with Inkscape (http://www.inkscape.org/) -->

<svg
   width="359.59207"
   height="317.78671"
   viewBox="0 0 95.142067 84.081067"
   version="1.1"
   id="svg292"
   xml:space="preserve"
   inkscape:version="1.2.1 (9c6d41e410, 2022-07-14)"
   sodipodi:docname="Indian_Road_Sign_II-67.svg"
   xmlns:inkscape="http://www.inkscape.org/namespaces/inkscape"
   xmlns:sodipodi="http://sodipodi.sourceforge.net/DTD/sodipodi-0.dtd"
   xmlns="http://www.w3.org/2000/svg"
   xmlns:svg="http://www.w3.org/2000/svg"><sodipodi:namedview
     id="namedview294"
     pagecolor="#505050"
     bordercolor="#eeeeee"
     borderopacity="1"
     inkscape:showpageshadow="0"
     inkscape:pageopacity="0"
     inkscape:pagecheckerboard="0"
     inkscape:deskcolor="#505050"
     inkscape:document-units="mm"
     showgrid="false"
     inkscape:zoom="3.3638608"
     inkscape:cx="173.01548"
     inkscape:cy="202.59459"
     inkscape:window-width="1920"
     inkscape:window-height="991"
     inkscape:window-x="-9"
     inkscape:window-y="-9"
     inkscape:window-maximized="1"
     inkscape:current-layer="layer1"
     showguides="true"><sodipodi:guide
       position="308.63595,39.942764"
       orientation="1,0"
       id="guide2243"
       inkscape:locked="false" /></sodipodi:namedview><defs
     id="defs289"><inkscape:path-effect
       effect="fillet_chamfer"
       id="path-effect8259"
       is_visible="true"
       lpeversion="1"
       nodesatellites_param="F,0,0,1,0,0,0,1 @ F,0,0,1,0,0,0,1 @ F,0,0,1,0,0,0,1 @ F,0,1,1,0,1.5979427,0,1 @ F,0,0,1,0,1.5979427,0,1 @ F,0,0,1,0,0,0,1 @ F,0,0,1,0,0,0,1 @ F,0,0,1,0,0,0,1 @ F,0,0,1,0,0,0,1"
       unit="px"
       method="auto"
       mode="F"
       radius="0"
       chamfer_steps="1"
       flexible="false"
       use_knot_distance="true"
       apply_no_radius="true"
       apply_with_radius="true"
       only_selected="false"
       hide_knots="false" /><inkscape:path-effect
       effect="fillet_chamfer"
       id="path-effect2908"
       is_visible="true"
       lpeversion="1"
       nodesatellites_param="F,0,0,1,0,4.0878675,0,1 @ F,0,0,1,0,1.6885452,0,1 @ F,0,0,1,0,0.40570983,0,1 @ F,0,0,1,0,0.49262617,0,1 @ F,0,0,1,0,0.79618528,0,1 @ F,0,0,1,0,0,0,1 @ F,0,0,1,0,0,0,1 @ F,0,0,1,0,0,0,1 @ F,0,0,1,0,0,0,1 @ F,0,0,1,0,0,0,1 @ F,0,0,1,0,0,0,1 @ F,0,0,1,0,0.55617244,0,1 @ F,0,0,1,0,0,0,1 @ F,0,0,1,0,0,0,1 @ F,0,0,1,0,0,0,1 @ F,0,0,1,0,1.654086,0,1 @ F,0,0,1,0,0,0,1 @ F,0,0,1,0,0,0,1 @ F,0,0,1,0,0.98128185,0,1 @ F,0,0,1,0,0,0,1 @ F,0,0,1,0,0,0,1 | F,0,0,1,0,0.43103364,0,1 @ F,0,0,1,0,0.57302446,0,1 @ F,0,0,1,0,0,0,1 @ F,0,0,1,0,0,0,1 @ F,0,0,1,0,1.1123449,0,1 @ F,0,0,1,0,0,0,1 @ F,0,0,1,0,0,0,1"
       unit="px"
       method="auto"
       mode="F"
       radius="0"
       chamfer_steps="1"
       flexible="false"
       use_knot_distance="true"
       apply_no_radius="true"
       apply_with_radius="true"
       only_selected="false"
       hide_knots="false" /><clipPath
       id="clipPath2832"><path
         d="M -0.24,595.138 H 317.24 V -0.138 H -0.24 Z"
         id="path2834"
         inkscape:connector-curvature="0" /></clipPath><clipPath
       id="clipPath2840"><path
         d="M 0.03,595.32 H 317.49 V 0 H 0.03 Z"
         id="path2842"
         inkscape:connector-curvature="0" /></clipPath><clipPath
       id="clipPath2858"><path
         d="M -0.24,595.138 H 317.24 V -0.138 H -0.24 Z"
         id="path2860"
         inkscape:connector-curvature="0" /></clipPath><clipPath
       id="clipPath2864"><path
         d="M 0.03,595.32 H 317.49 V 0 H 0.03 Z"
         id="path2866"
         inkscape:connector-curvature="0" /></clipPath><clipPath
       id="clipPath3306"><path
         d="m 199.238,472.977 v -29.74 h 29.744 v 29.74"
         id="path3308"
         inkscape:connector-curvature="0" /></clipPath><clipPath
       id="clipPath3322"><path
         d="M -0.24,595.138 H 317.24 V -0.138 H -0.24 Z"
         id="path3324"
         inkscape:connector-curvature="0" /></clipPath><clipPath
       id="clipPath3330"><path
         d="M 0.03,595.32 H 317.49 V 0 H 0.03 Z"
         id="path3332"
         inkscape:connector-curvature="0" /></clipPath><clipPath
       id="clipPath3344"><path
         d="m 88.233,387.221 v -28.335 h 32.08 v 28.335"
         id="path3346"
         inkscape:connector-curvature="0" /></clipPath><clipPath
       id="clipPath3462"><path
         d="M -0.24,595.138 H 317.24 V -0.138 H -0.24 Z"
         id="path3464"
         inkscape:connector-curvature="0" /></clipPath><clipPath
       id="clipPath3470"><path
         d="M 0.03,595.32 H 317.49 V 0 H 0.03 Z"
         id="path3472"
         inkscape:connector-curvature="0" /></clipPath><clipPath
       id="clipPath3490"><path
         d="M -0.24,595.138 H 317.24 V -0.138 H -0.24 Z"
         id="path3492"
         inkscape:connector-curvature="0" /></clipPath><clipPath
       id="clipPath3496"><path
         d="M 0.03,595.32 H 317.49 V 0 H 0.03 Z"
         id="path3498"
         inkscape:connector-curvature="0" /></clipPath><clipPath
       id="clipPath3520"><path
         d="m 254.788,326.215 v -28.309 h 28.326 v 28.309"
         id="path3522"
         inkscape:connector-curvature="0" /></clipPath><clipPath
       id="clipPath3544"><path
         d="m 145.049,326.142 v -28.333 h 28.342 v 28.333"
         id="path3546"
         inkscape:connector-curvature="0" /></clipPath><clipPath
       id="clipPath3682"><path
         d="M -0.24,595.138 H 317.24 V -0.138 H -0.24 Z"
         id="path3684"
         inkscape:connector-curvature="0" /></clipPath><clipPath
       id="clipPath3690"><path
         d="M 0.03,595.32 H 317.49 V 0 H 0.03 Z"
         id="path3692"
         inkscape:connector-curvature="0" /></clipPath><clipPath
       id="clipPath3980"><path
         d="M -0.24,595.138 H 317.24 V -0.138 H -0.24 Z"
         id="path3982"
         inkscape:connector-curvature="0" /></clipPath><clipPath
       id="clipPath3988"><path
         d="M 0.03,595.32 H 317.49 V 0 H 0.03 Z"
         id="path3990"
         inkscape:connector-curvature="0" /></clipPath><clipPath
       id="clipPath4010"><path
         d="M -0.24,595.138 H 317.24 V -0.138 H -0.24 Z"
         id="path4012"
         inkscape:connector-curvature="0" /></clipPath><clipPath
       id="clipPath4016"><path
         d="M 0.03,595.32 H 317.49 V 0 H 0.03 Z"
         id="path4018"
         inkscape:connector-curvature="0" /></clipPath><clipPath
       id="clipPath4062"><path
         d="m 200.163,177.773 v -28.284 h 28.283 v 28.284"
         id="path4064"
         inkscape:connector-curvature="0" /></clipPath><clipPath
       id="clipPath4090"><path
         d="m 34.886,177.515 v -51.632 h 30.367 v 51.632"
         id="path4092"
         inkscape:connector-curvature="0" /></clipPath><clipPath
       id="clipPath4106"><path
         d="m 34.886,177.515 v -51.632 h 30.367 v 51.632"
         id="path4108"
         inkscape:connector-curvature="0" /></clipPath><clipPath
       id="clipPath4272"><path
         d="m 34.886,177.515 v -51.632 h 30.367 v 51.632"
         id="path4274"
         inkscape:connector-curvature="0" /></clipPath><clipPath
       id="clipPath4304"><path
         d="m 254.653,176.442 v -48.167 h 28.317 v 48.167"
         id="path4306"
         inkscape:connector-curvature="0" /></clipPath><clipPath
       id="clipPath4310"><path
         d="m 253.565,177.983 h 31.181 V 128.8 h -31.181 z"
         id="path4312"
         inkscape:connector-curvature="0" /></clipPath><clipPath
       id="clipPath4316"><path
         d="M -0.24,595.138 H 317.24 V -0.138 H -0.24 Z"
         id="path4318"
         inkscape:connector-curvature="0" /></clipPath><clipPath
       id="clipPath4322"><path
         d="M 0.03,595.32 H 317.49 V 0 H 0.03 Z"
         id="path4324"
         inkscape:connector-curvature="0" /></clipPath><clipPath
       id="clipPath4456"><path
         d="M -0.24,595.138 H 317.24 V -0.138 H -0.24 Z"
         id="path4458"
         inkscape:connector-curvature="0" /></clipPath><clipPath
       id="clipPath4464"><path
         d="M 0.03,595.32 H 317.49 V 0 H 0.03 Z"
         id="path4466"
         inkscape:connector-curvature="0" /></clipPath><inkscape:perspective
       sodipodi:type="inkscape:persp3d"
       inkscape:vp_x="0 : 47.625 : 1"
       inkscape:vp_y="0 : 1000 : 0"
       inkscape:vp_z="95.249998 : 47.625 : 1"
       inkscape:persp3d-origin="47.624999 : 31.75 : 1"
       id="perspective2757" /><inkscape:path-effect
       effect="fillet_chamfer"
       id="path-effect1250"
       is_visible="true"
       lpeversion="1"
       nodesatellites_param="F,0,0,1,0,3.86627,0,1 @ F,0,0,1,0,3.8662696,0,1 @ F,0,0,1,0,3.8662703,0,1 @ F,0,0,1,0,3.8662703,0,1"
       unit="px"
       method="auto"
       mode="F"
       radius="0"
       chamfer_steps="1"
       flexible="false"
       use_knot_distance="true"
       apply_no_radius="true"
       apply_with_radius="true"
       only_selected="false"
       hide_knots="false" /><inkscape:path-effect
       effect="fillet_chamfer"
       id="path-effect2969"
       is_visible="true"
       lpeversion="1"
       nodesatellites_param="F,0,0,1,0,5.0787595,0,1 @ F,0,0,1,0,5.078762,0,1 @ F,0,0,1,0,5.078762,0,1 @ F,0,0,1,0,5.078762,0,1"
       unit="px"
       method="auto"
       mode="F"
       radius="0"
       chamfer_steps="1"
       flexible="false"
       use_knot_distance="true"
       apply_no_radius="true"
       apply_with_radius="true"
       only_selected="false"
       hide_knots="false" /><inkscape:path-effect
       effect="fillet_chamfer"
       id="path-effect2963"
       is_visible="true"
       lpeversion="1"
       nodesatellites_param="F,0,0,1,0,5.0787595,0,1 @ F,0,0,1,0,5.078762,0,1 @ F,0,0,1,0,5.078762,0,1 @ F,0,0,1,0,5.078762,0,1"
       unit="px"
       method="auto"
       mode="F"
       radius="0"
       chamfer_steps="1"
       flexible="false"
       use_knot_distance="true"
       apply_no_radius="true"
       apply_with_radius="true"
       only_selected="false"
       hide_knots="false" /><inkscape:path-effect
       effect="fillet_chamfer"
       id="path-effect2888"
       is_visible="true"
       lpeversion="1"
       nodesatellites_param="F,0,0,1,0,5.0787595,0,1 @ F,0,0,1,0,5.078762,0,1 @ F,0,0,1,0,5.078762,0,1 @ F,0,0,1,0,5.078762,0,1"
       unit="px"
       method="auto"
       mode="F"
       radius="0"
       chamfer_steps="1"
       flexible="false"
       use_knot_distance="true"
       apply_no_radius="true"
       apply_with_radius="true"
       only_selected="false"
       hide_knots="false" /><inkscape:path-effect
       effect="fillet_chamfer"
       id="path-effect1250-3"
       is_visible="true"
       lpeversion="1"
       nodesatellites_param="F,0,0,1,0,3.86627,0,1 @ F,0,0,1,0,3.8662696,0,1 @ F,0,0,1,0,3.8662703,0,1 @ F,0,0,1,0,3.8662703,0,1"
       unit="px"
       method="auto"
       mode="F"
       radius="0"
       chamfer_steps="1"
       flexible="false"
       use_knot_distance="true"
       apply_no_radius="true"
       apply_with_radius="true"
       only_selected="false"
       hide_knots="false" /><inkscape:path-effect
       effect="fillet_chamfer"
       id="path-effect2969-8"
       is_visible="true"
       lpeversion="1"
       nodesatellites_param="F,0,0,1,0,5.0787595,0,1 @ F,0,0,1,0,5.078762,0,1 @ F,0,0,1,0,5.078762,0,1 @ F,0,0,1,0,5.078762,0,1"
       unit="px"
       method="auto"
       mode="F"
       radius="0"
       chamfer_steps="1"
       flexible="false"
       use_knot_distance="true"
       apply_no_radius="true"
       apply_with_radius="true"
       only_selected="false"
       hide_knots="false" /><inkscape:path-effect
       effect="fillet_chamfer"
       id="path-effect2963-9"
       is_visible="true"
       lpeversion="1"
       nodesatellites_param="F,0,0,1,0,5.0787595,0,1 @ F,0,0,1,0,5.078762,0,1 @ F,0,0,1,0,5.078762,0,1 @ F,0,0,1,0,5.078762,0,1"
       unit="px"
       method="auto"
       mode="F"
       radius="0"
       chamfer_steps="1"
       flexible="false"
       use_knot_distance="true"
       apply_no_radius="true"
       apply_with_radius="true"
       only_selected="false"
       hide_knots="false" /><inkscape:path-effect
       effect="fillet_chamfer"
       id="path-effect2888-3"
       is_visible="true"
       lpeversion="1"
       nodesatellites_param="F,0,0,1,0,5.0787595,0,1 @ F,0,0,1,0,5.078762,0,1 @ F,0,0,1,0,5.078762,0,1 @ F,0,0,1,0,5.078762,0,1"
       unit="px"
       method="auto"
       mode="F"
       radius="0"
       chamfer_steps="1"
       flexible="false"
       use_knot_distance="true"
       apply_no_radius="true"
       apply_with_radius="true"
       only_selected="false"
       hide_knots="false" /><clipPath
       clipPathUnits="userSpaceOnUse"
       id="clipPath2532"><path
         sodipodi:nodetypes="cccc"
         inkscape:connector-curvature="0"
         id="path2534"
         d="M 85.390158,81.854081 47.678955,16.536355 9.9677452,81.854038 Z"
         style="fill:#ffffff;fill-opacity:1;stroke:none;stroke-width:12.6128;stroke-linecap:butt;stroke-linejoin:round;stroke-miterlimit:4;stroke-dasharray:none;stroke-dashoffset:0;stroke-opacity:1" /></clipPath><clipPath
       clipPathUnits="userSpaceOnUse"
       id="clipPath2550"><path
         sodipodi:nodetypes="cccc"
         inkscape:connector-curvature="0"
         id="path2552"
         d="M 85.390158,81.854081 47.678955,16.536355 9.9677452,81.854038 Z"
         style="fill:#ffffff;fill-opacity:1;stroke:none;stroke-width:12.6128;stroke-linecap:butt;stroke-linejoin:round;stroke-miterlimit:4;stroke-dasharray:none;stroke-dashoffset:0;stroke-opacity:1" /></clipPath><clipPath
       clipPathUnits="userSpaceOnUse"
       id="clipPath2554"><path
         sodipodi:nodetypes="cccc"
         inkscape:connector-curvature="0"
         id="path2556"
         d="M 85.390158,81.854081 47.678955,16.536355 9.9677452,81.854038 Z"
         style="fill:#ffffff;fill-opacity:1;stroke:none;stroke-width:12.6128;stroke-linecap:butt;stroke-linejoin:round;stroke-miterlimit:4;stroke-dasharray:none;stroke-dashoffset:0;stroke-opacity:1" /></clipPath><clipPath
       clipPathUnits="userSpaceOnUse"
       id="clipPath2558"><path
         sodipodi:nodetypes="cccc"
         inkscape:connector-curvature="0"
         id="path2560"
         d="M 85.390158,81.854081 47.678955,16.536355 9.9677452,81.854038 Z"
         style="fill:#ffffff;fill-opacity:1;stroke:none;stroke-width:12.6128;stroke-linecap:butt;stroke-linejoin:round;stroke-miterlimit:4;stroke-dasharray:none;stroke-dashoffset:0;stroke-opacity:1" /></clipPath><clipPath
       clipPathUnits="userSpaceOnUse"
       id="clipPath2562"><path
         sodipodi:nodetypes="cccc"
         inkscape:connector-curvature="0"
         id="path2564"
         d="M 85.390158,81.854081 47.678955,16.536355 9.9677452,81.854038 Z"
         style="fill:#ffffff;fill-opacity:1;stroke:none;stroke-width:12.6128;stroke-linecap:butt;stroke-linejoin:round;stroke-miterlimit:4;stroke-dasharray:none;stroke-dashoffset:0;stroke-opacity:1" /></clipPath><clipPath
       clipPathUnits="userSpaceOnUse"
       id="clipPath2566"><path
         sodipodi:nodetypes="cccc"
         inkscape:connector-curvature="0"
         id="path2568"
         d="M -85.390158,81.854081 -47.678955,16.536355 -9.9677452,81.854038 Z"
         style="fill:#ffffff;fill-opacity:1;stroke:none;stroke-width:12.6128;stroke-linecap:butt;stroke-linejoin:round;stroke-miterlimit:4;stroke-dasharray:none;stroke-dashoffset:0;stroke-opacity:1" /></clipPath><clipPath
       clipPathUnits="userSpaceOnUse"
       id="clipPath2570"><path
         sodipodi:nodetypes="cccc"
         inkscape:connector-curvature="0"
         id="path2572"
         d="M -85.390158,81.854081 -47.678955,16.536355 -9.9677452,81.854038 Z"
         style="fill:#ffffff;fill-opacity:1;stroke:none;stroke-width:12.6128;stroke-linecap:butt;stroke-linejoin:round;stroke-miterlimit:4;stroke-dasharray:none;stroke-dashoffset:0;stroke-opacity:1" /></clipPath><clipPath
       clipPathUnits="userSpaceOnUse"
       id="clipPath2574"><path
         sodipodi:nodetypes="cccc"
         inkscape:connector-curvature="0"
         id="path2576"
         d="M 85.390158,81.854081 47.678955,16.536355 9.9677452,81.854038 Z"
         style="fill:#ffffff;fill-opacity:1;stroke:none;stroke-width:12.6128;stroke-linecap:butt;stroke-linejoin:round;stroke-miterlimit:4;stroke-dasharray:none;stroke-dashoffset:0;stroke-opacity:1" /></clipPath><clipPath
       clipPathUnits="userSpaceOnUse"
       id="clipPath2578"><path
         sodipodi:nodetypes="cccc"
         inkscape:connector-curvature="0"
         id="path2580"
         d="M 85.390158,81.854081 47.678955,16.536355 9.9677452,81.854038 Z"
         style="fill:#ffffff;fill-opacity:1;stroke:none;stroke-width:12.6128;stroke-linecap:butt;stroke-linejoin:round;stroke-miterlimit:4;stroke-dasharray:none;stroke-dashoffset:0;stroke-opacity:1" /></clipPath><inkscape:perspective
       sodipodi:type="inkscape:persp3d"
       inkscape:vp_x="0 : 47.625 : 1"
       inkscape:vp_y="0 : 1000 : 0"
       inkscape:vp_z="95.249998 : 47.625 : 1"
       inkscape:persp3d-origin="47.624999 : 31.75 : 1"
       id="perspective2757-1" /><inkscape:path-effect
       effect="fillet_chamfer"
       id="path-effect1250-0"
       is_visible="true"
       lpeversion="1"
       nodesatellites_param="F,0,0,1,0,3.86627,0,1 @ F,0,0,1,0,3.8662696,0,1 @ F,0,0,1,0,3.8662703,0,1 @ F,0,0,1,0,3.8662703,0,1"
       unit="px"
       method="auto"
       mode="F"
       radius="0"
       chamfer_steps="1"
       flexible="false"
       use_knot_distance="true"
       apply_no_radius="true"
       apply_with_radius="true"
       only_selected="false"
       hide_knots="false" /><inkscape:path-effect
       effect="fillet_chamfer"
       id="path-effect2969-6"
       is_visible="true"
       lpeversion="1"
       nodesatellites_param="F,0,0,1,0,5.0787595,0,1 @ F,0,0,1,0,5.078762,0,1 @ F,0,0,1,0,5.078762,0,1 @ F,0,0,1,0,5.078762,0,1"
       unit="px"
       method="auto"
       mode="F"
       radius="0"
       chamfer_steps="1"
       flexible="false"
       use_knot_distance="true"
       apply_no_radius="true"
       apply_with_radius="true"
       only_selected="false"
       hide_knots="false" /><inkscape:path-effect
       effect="fillet_chamfer"
       id="path-effect2963-99"
       is_visible="true"
       lpeversion="1"
       nodesatellites_param="F,0,0,1,0,5.0787595,0,1 @ F,0,0,1,0,5.078762,0,1 @ F,0,0,1,0,5.078762,0,1 @ F,0,0,1,0,5.078762,0,1"
       unit="px"
       method="auto"
       mode="F"
       radius="0"
       chamfer_steps="1"
       flexible="false"
       use_knot_distance="true"
       apply_no_radius="true"
       apply_with_radius="true"
       only_selected="false"
       hide_knots="false" /><inkscape:path-effect
       effect="fillet_chamfer"
       id="path-effect2888-1"
       is_visible="true"
       lpeversion="1"
       nodesatellites_param="F,0,0,1,0,5.0787595,0,1 @ F,0,0,1,0,5.078762,0,1 @ F,0,0,1,0,5.078762,0,1 @ F,0,0,1,0,5.078762,0,1"
       unit="px"
       method="auto"
       mode="F"
       radius="0"
       chamfer_steps="1"
       flexible="false"
       use_knot_distance="true"
       apply_no_radius="true"
       apply_with_radius="true"
       only_selected="false"
       hide_knots="false" /><inkscape:path-effect
       effect="fillet_chamfer"
       id="path-effect1250-3-4"
       is_visible="true"
       lpeversion="1"
       nodesatellites_param="F,0,0,1,0,3.86627,0,1 @ F,0,0,1,0,3.8662696,0,1 @ F,0,0,1,0,3.8662703,0,1 @ F,0,0,1,0,3.8662703,0,1"
       unit="px"
       method="auto"
       mode="F"
       radius="0"
       chamfer_steps="1"
       flexible="false"
       use_knot_distance="true"
       apply_no_radius="true"
       apply_with_radius="true"
       only_selected="false"
       hide_knots="false" /><inkscape:path-effect
       effect="fillet_chamfer"
       id="path-effect2969-8-0"
       is_visible="true"
       lpeversion="1"
       nodesatellites_param="F,0,0,1,0,5.0787595,0,1 @ F,0,0,1,0,5.078762,0,1 @ F,0,0,1,0,5.078762,0,1 @ F,0,0,1,0,5.078762,0,1"
       unit="px"
       method="auto"
       mode="F"
       radius="0"
       chamfer_steps="1"
       flexible="false"
       use_knot_distance="true"
       apply_no_radius="true"
       apply_with_radius="true"
       only_selected="false"
       hide_knots="false" /><inkscape:path-effect
       effect="fillet_chamfer"
       id="path-effect2963-9-9"
       is_visible="true"
       lpeversion="1"
       nodesatellites_param="F,0,0,1,0,5.0787595,0,1 @ F,0,0,1,0,5.078762,0,1 @ F,0,0,1,0,5.078762,0,1 @ F,0,0,1,0,5.078762,0,1"
       unit="px"
       method="auto"
       mode="F"
       radius="0"
       chamfer_steps="1"
       flexible="false"
       use_knot_distance="true"
       apply_no_radius="true"
       apply_with_radius="true"
       only_selected="false"
       hide_knots="false" /><inkscape:path-effect
       effect="fillet_chamfer"
       id="path-effect2888-3-6"
       is_visible="true"
       lpeversion="1"
       nodesatellites_param="F,0,0,1,0,5.0787595,0,1 @ F,0,0,1,0,5.078762,0,1 @ F,0,0,1,0,5.078762,0,1 @ F,0,0,1,0,5.078762,0,1"
       unit="px"
       method="auto"
       mode="F"
       radius="0"
       chamfer_steps="1"
       flexible="false"
       use_knot_distance="true"
       apply_no_radius="true"
       apply_with_radius="true"
       only_selected="false"
       hide_knots="false" /><inkscape:perspective
       sodipodi:type="inkscape:persp3d"
       inkscape:vp_x="0 : 47.625 : 1"
       inkscape:vp_y="0 : 1000 : 0"
       inkscape:vp_z="95.249998 : 47.625 : 1"
       inkscape:persp3d-origin="47.624999 : 31.75 : 1"
       id="perspective2757-4" /><inkscape:path-effect
       effect="fillet_chamfer"
       id="path-effect1250-5"
       is_visible="true"
       lpeversion="1"
       nodesatellites_param="F,0,0,1,0,3.86627,0,1 @ F,0,0,1,0,3.8662696,0,1 @ F,0,0,1,0,3.8662703,0,1 @ F,0,0,1,0,3.8662703,0,1"
       unit="px"
       method="auto"
       mode="F"
       radius="0"
       chamfer_steps="1"
       flexible="false"
       use_knot_distance="true"
       apply_no_radius="true"
       apply_with_radius="true"
       only_selected="false"
       hide_knots="false" /><inkscape:path-effect
       effect="fillet_chamfer"
       id="path-effect2969-3"
       is_visible="true"
       lpeversion="1"
       nodesatellites_param="F,0,0,1,0,5.0787595,0,1 @ F,0,0,1,0,5.078762,0,1 @ F,0,0,1,0,5.078762,0,1 @ F,0,0,1,0,5.078762,0,1"
       unit="px"
       method="auto"
       mode="F"
       radius="0"
       chamfer_steps="1"
       flexible="false"
       use_knot_distance="true"
       apply_no_radius="true"
       apply_with_radius="true"
       only_selected="false"
       hide_knots="false" /><inkscape:path-effect
       effect="fillet_chamfer"
       id="path-effect2963-1"
       is_visible="true"
       lpeversion="1"
       nodesatellites_param="F,0,0,1,0,5.0787595,0,1 @ F,0,0,1,0,5.078762,0,1 @ F,0,0,1,0,5.078762,0,1 @ F,0,0,1,0,5.078762,0,1"
       unit="px"
       method="auto"
       mode="F"
       radius="0"
       chamfer_steps="1"
       flexible="false"
       use_knot_distance="true"
       apply_no_radius="true"
       apply_with_radius="true"
       only_selected="false"
       hide_knots="false" /><inkscape:path-effect
       effect="fillet_chamfer"
       id="path-effect2888-7"
       is_visible="true"
       lpeversion="1"
       nodesatellites_param="F,0,0,1,0,5.0787595,0,1 @ F,0,0,1,0,5.078762,0,1 @ F,0,0,1,0,5.078762,0,1 @ F,0,0,1,0,5.078762,0,1"
       unit="px"
       method="auto"
       mode="F"
       radius="0"
       chamfer_steps="1"
       flexible="false"
       use_knot_distance="true"
       apply_no_radius="true"
       apply_with_radius="true"
       only_selected="false"
       hide_knots="false" /><inkscape:path-effect
       effect="fillet_chamfer"
       id="path-effect1250-3-5"
       is_visible="true"
       lpeversion="1"
       nodesatellites_param="F,0,0,1,0,3.86627,0,1 @ F,0,0,1,0,3.8662696,0,1 @ F,0,0,1,0,3.8662703,0,1 @ F,0,0,1,0,3.8662703,0,1"
       unit="px"
       method="auto"
       mode="F"
       radius="0"
       chamfer_steps="1"
       flexible="false"
       use_knot_distance="true"
       apply_no_radius="true"
       apply_with_radius="true"
       only_selected="false"
       hide_knots="false" /><inkscape:path-effect
       effect="fillet_chamfer"
       id="path-effect2969-8-00"
       is_visible="true"
       lpeversion="1"
       nodesatellites_param="F,0,0,1,0,5.0787595,0,1 @ F,0,0,1,0,5.078762,0,1 @ F,0,0,1,0,5.078762,0,1 @ F,0,0,1,0,5.078762,0,1"
       unit="px"
       method="auto"
       mode="F"
       radius="0"
       chamfer_steps="1"
       flexible="false"
       use_knot_distance="true"
       apply_no_radius="true"
       apply_with_radius="true"
       only_selected="false"
       hide_knots="false" /><inkscape:path-effect
       effect="fillet_chamfer"
       id="path-effect2963-9-6"
       is_visible="true"
       lpeversion="1"
       nodesatellites_param="F,0,0,1,0,5.0787595,0,1 @ F,0,0,1,0,5.078762,0,1 @ F,0,0,1,0,5.078762,0,1 @ F,0,0,1,0,5.078762,0,1"
       unit="px"
       method="auto"
       mode="F"
       radius="0"
       chamfer_steps="1"
       flexible="false"
       use_knot_distance="true"
       apply_no_radius="true"
       apply_with_radius="true"
       only_selected="false"
       hide_knots="false" /><inkscape:path-effect
       effect="fillet_chamfer"
       id="path-effect2888-3-8"
       is_visible="true"
       lpeversion="1"
       nodesatellites_param="F,0,0,1,0,5.0787595,0,1 @ F,0,0,1,0,5.078762,0,1 @ F,0,0,1,0,5.078762,0,1 @ F,0,0,1,0,5.078762,0,1"
       unit="px"
       method="auto"
       mode="F"
       radius="0"
       chamfer_steps="1"
       flexible="false"
       use_knot_distance="true"
       apply_no_radius="true"
       apply_with_radius="true"
       only_selected="false"
       hide_knots="false" /></defs><g
     inkscape:label="Layer 1"
     inkscape:groupmode="layer"
     id="layer1"
     transform="translate(-0.1079166,-6.6255169)"><path
       inkscape:connector-curvature="0"
       id="path814"
       d="M 88.960492,84.416633 47.678877,12.914838 6.3974062,84.416579 Z"
       inkscape:transform-center-y="-6.06719"
       inkscape:transform-center-x="0.31439696"
       style="fill:none;fill-opacity:1;stroke:#ed1c24;stroke-width:12.58;stroke-linecap:butt;stroke-linejoin:round;stroke-miterlimit:4;stroke-dasharray:none;stroke-dashoffset:0;stroke-opacity:1"
       sodipodi:nodetypes="cccc" /><path
       inkscape:connector-curvature="0"
       id="path2526"
       d="M 88.960492,84.416633 47.678877,12.914838 6.3974062,84.416579 Z"
       inkscape:transform-center-y="-6.06719"
       inkscape:transform-center-x="0.31439696"
       style="fill:none;fill-opacity:1;stroke:#ed1c24;stroke-width:12.58;stroke-linecap:butt;stroke-linejoin:round;stroke-miterlimit:4;stroke-dasharray:none;stroke-dashoffset:0;stroke-opacity:1"
       sodipodi:nodetypes="cccc"
       clip-path="url(#clipPath2532)" /><path
       sodipodi:nodetypes="cccc"
       inkscape:connector-curvature="0"
       id="path2529"
       d="M 85.390157,81.854081 47.678956,16.536355 9.9677452,81.854038 Z"
       style="fill:#ffffff;fill-opacity:1;stroke:none;stroke-width:12.6128;stroke-linecap:butt;stroke-linejoin:round;stroke-miterlimit:4;stroke-dasharray:none;stroke-dashoffset:0;stroke-opacity:1" /><path
       style="opacity:0.416961;fill:#000000;fill-opacity:1;stroke:none;stroke-width:12.58;stroke-dasharray:none;stroke-opacity:1"
       d="M 33.543096,70.418521 Z"
       id="path8253" /><g
       id="g13475"
       inkscape:label="गाड़ियाँ"><g
         id="g13386"
         transform="matrix(0.67555636,0,0,0.67555636,13.146091,14.162449)"><path
           sodipodi:nodetypes="cccccccccccccccccccccc"
           inkscape:connector-curvature="0"
           id="path13380"
           d="m 41.090882,42.165364 c -1.011509,0.0081 -1.815628,0.09246 -2.403846,0.145872 -0.494529,0.0491 -1.062758,0.388734 -1.231666,1.024004 l -0.536494,1.961306 c -0.268299,0.110989 -0.626939,0.500299 -0.63674,1.146727 l 0.167124,1.866618 c 0.03981,0.349607 0.174287,0.761442 0.460574,0.921524 l -2.53e-4,1.237784 1.298329,2.6e-4 2.75e-4,-1.22593 c 0.836217,0.05716 3.310237,0.08203 3.643482,0.07976 0.333242,0.0025 2.807488,-0.02159 3.64373,-0.07841 l -2.59e-4,1.22593 1.298111,2.61e-4 2.59e-4,-1.237786 c 0.286325,-0.159996 0.420986,-0.571781 0.460929,-0.921372 l 0.167903,-1.866575 c -0.0095,-0.646433 -0.368014,-1.035877 -0.636266,-1.146964 l -0.535671,-1.961504 c -0.168641,-0.635333 -0.736733,-0.975174 -1.231241,-1.02446 -0.588194,-0.05364 -1.392274,-0.138315 -2.403786,-0.146766 z"
           style="fill:#000000;fill-opacity:1;fill-rule:nonzero;stroke:none;stroke-width:0.0708244" /><path
           inkscape:connector-curvature="0"
           id="path13382"
           d="m 37.698028,45.19383 0.398154,-1.76372 c 0.07918,-0.2945 0.347313,-0.468906 0.590726,-0.505878 l 1.063744,-0.09482 c 0.456574,-0.04729 1.528975,-0.06847 2.102355,-0.07072 0.573383,0.0025 1.645772,0.02402 2.102327,0.07151 l 1.063923,0.09523 c 0.243396,0.03706 0.511238,0.211568 0.590295,0.506093 l 0.397419,1.763867 c -1.628639,-0.135011 -3.170709,-0.165674 -4.154434,-0.182648 -0.983737,0.01662 -2.525814,0.04671 -4.154509,0.181108 z"
           style="fill:#ffffff;fill-opacity:1;fill-rule:nonzero;stroke:none;stroke-width:0.0708244" /></g><g
         id="g13395"
         transform="matrix(0.67555636,0,0,0.67555636,24.393708,14.162449)"><path
           sodipodi:nodetypes="cccccccccccccccccccccc"
           inkscape:connector-curvature="0"
           id="path13391"
           d="m 41.090882,42.165364 c -1.011509,0.0081 -1.815628,0.09246 -2.403846,0.145872 -0.494529,0.0491 -1.062758,0.388734 -1.231666,1.024004 l -0.536494,1.961306 c -0.268299,0.110989 -0.626939,0.500299 -0.63674,1.146727 l 0.167124,1.866618 c 0.03981,0.349607 0.174287,0.761442 0.460574,0.921524 l -2.53e-4,1.237784 1.298329,2.6e-4 2.75e-4,-1.22593 c 0.836217,0.05716 3.310237,0.08203 3.643482,0.07976 0.333242,0.0025 2.807488,-0.02159 3.64373,-0.07841 l -2.59e-4,1.22593 1.298111,2.61e-4 2.59e-4,-1.237786 c 0.286325,-0.159996 0.420986,-0.571781 0.460929,-0.921372 l 0.167903,-1.866575 c -0.0095,-0.646433 -0.368014,-1.035877 -0.636266,-1.146964 l -0.535671,-1.961504 c -0.168641,-0.635333 -0.736733,-0.975174 -1.231241,-1.02446 -0.588194,-0.05364 -1.392274,-0.138315 -2.403786,-0.146766 z"
           style="fill:#000000;fill-opacity:1;fill-rule:nonzero;stroke:none;stroke-width:0.0708244" /><path
           inkscape:connector-curvature="0"
           id="path13393"
           d="m 37.698028,45.19383 0.398154,-1.76372 c 0.07918,-0.2945 0.347313,-0.468906 0.590726,-0.505878 l 1.063744,-0.09482 c 0.456574,-0.04729 1.528975,-0.06847 2.102355,-0.07072 0.573383,0.0025 1.645772,0.02402 2.102327,0.07151 l 1.063923,0.09523 c 0.243396,0.03706 0.511238,0.211568 0.590295,0.506093 l 0.397419,1.763867 c -1.628639,-0.135011 -3.170709,-0.165674 -4.154434,-0.182648 -0.983737,0.01662 -2.525814,0.04671 -4.154509,0.181108 z"
           style="fill:#ffffff;fill-opacity:1;fill-rule:nonzero;stroke:none;stroke-width:0.0708244" /></g><g
         id="g13401"
         transform="matrix(0.78919582,0,0,0.78919582,18.261185,14.444026)"><path
           sodipodi:nodetypes="cccccccccccccccccccccc"
           inkscape:connector-curvature="0"
           id="path13397"
           d="m 41.090882,42.165364 c -1.011509,0.0081 -1.815628,0.09246 -2.403846,0.145872 -0.494529,0.0491 -1.062758,0.388734 -1.231666,1.024004 l -0.536494,1.961306 c -0.268299,0.110989 -0.626939,0.500299 -0.63674,1.146727 l 0.167124,1.866618 c 0.03981,0.349607 0.174287,0.761442 0.460574,0.921524 l -2.53e-4,1.237784 1.298329,2.6e-4 2.75e-4,-1.22593 c 0.836217,0.05716 3.310237,0.08203 3.643482,0.07976 0.333242,0.0025 2.807488,-0.02159 3.64373,-0.07841 l -2.59e-4,1.22593 1.298111,2.61e-4 2.59e-4,-1.237786 c 0.286325,-0.159996 0.420986,-0.571781 0.460929,-0.921372 l 0.167903,-1.866575 c -0.0095,-0.646433 -0.368014,-1.035877 -0.636266,-1.146964 l -0.535671,-1.961504 c -0.168641,-0.635333 -0.736733,-0.975174 -1.231241,-1.02446 -0.588194,-0.05364 -1.392274,-0.138315 -2.403786,-0.146766 z"
           style="fill:#000000;fill-opacity:1;fill-rule:nonzero;stroke:none;stroke-width:0.0708244" /><path
           inkscape:connector-curvature="0"
           id="path13399"
           d="m 37.698028,45.19383 0.398154,-1.76372 c 0.07918,-0.2945 0.347313,-0.468906 0.590726,-0.505878 l 1.063744,-0.09482 c 0.456574,-0.04729 1.528975,-0.06847 2.102355,-0.07072 0.573383,0.0025 1.645772,0.02402 2.102327,0.07151 l 1.063923,0.09523 c 0.243396,0.03706 0.511238,0.211568 0.590295,0.506093 l 0.397419,1.763867 c -1.628639,-0.135011 -3.170709,-0.165674 -4.154434,-0.182648 -0.983737,0.01662 -2.525814,0.04671 -4.154509,0.181108 z"
           style="fill:#ffffff;fill-opacity:1;fill-rule:nonzero;stroke:none;stroke-width:0.0708244" /></g><g
         id="g13407"
         transform="matrix(0.78919582,0,0,0.78919582,7.0528958,14.444026)"><path
           sodipodi:nodetypes="cccccccccccccccccccccc"
           inkscape:connector-curvature="0"
           id="path13403"
           d="m 41.090882,42.165364 c -1.011509,0.0081 -1.815628,0.09246 -2.403846,0.145872 -0.494529,0.0491 -1.062758,0.388734 -1.231666,1.024004 l -0.536494,1.961306 c -0.268299,0.110989 -0.626939,0.500299 -0.63674,1.146727 l 0.167124,1.866618 c 0.03981,0.349607 0.174287,0.761442 0.460574,0.921524 l -2.53e-4,1.237784 1.298329,2.6e-4 2.75e-4,-1.22593 c 0.836217,0.05716 3.310237,0.08203 3.643482,0.07976 0.333242,0.0025 2.807488,-0.02159 3.64373,-0.07841 l -2.59e-4,1.22593 1.298111,2.61e-4 2.59e-4,-1.237786 c 0.286325,-0.159996 0.420986,-0.571781 0.460929,-0.921372 l 0.167903,-1.866575 c -0.0095,-0.646433 -0.368014,-1.035877 -0.636266,-1.146964 l -0.535671,-1.961504 c -0.168641,-0.635333 -0.736733,-0.975174 -1.231241,-1.02446 -0.588194,-0.05364 -1.392274,-0.138315 -2.403786,-0.146766 z"
           style="fill:#000000;fill-opacity:1;fill-rule:nonzero;stroke:none;stroke-width:0.0708244" /><path
           inkscape:connector-curvature="0"
           id="path13405"
           d="m 37.698028,45.19383 0.398154,-1.76372 c 0.07918,-0.2945 0.347313,-0.468906 0.590726,-0.505878 l 1.063744,-0.09482 c 0.456574,-0.04729 1.528975,-0.06847 2.102355,-0.07072 0.573383,0.0025 1.645772,0.02402 2.102327,0.07151 l 1.063923,0.09523 c 0.243396,0.03706 0.511238,0.211568 0.590295,0.506093 l 0.397419,1.763867 c -1.628639,-0.135011 -3.170709,-0.165674 -4.154434,-0.182648 -0.983737,0.01662 -2.525814,0.04671 -4.154509,0.181108 z"
           style="fill:#ffffff;fill-opacity:1;fill-rule:nonzero;stroke:none;stroke-width:0.0708244" /></g><g
         id="g13413"
         transform="matrix(0.88389537,0,0,0.88389537,3.246817,16.389412)"><path
           sodipodi:nodetypes="cccccccccccccccccccccc"
           inkscape:connector-curvature="0"
           id="path13409"
           d="m 41.090882,42.165364 c -1.011509,0.0081 -1.815628,0.09246 -2.403846,0.145872 -0.494529,0.0491 -1.062758,0.388734 -1.231666,1.024004 l -0.536494,1.961306 c -0.268299,0.110989 -0.626939,0.500299 -0.63674,1.146727 l 0.167124,1.866618 c 0.03981,0.349607 0.174287,0.761442 0.460574,0.921524 l -2.53e-4,1.237784 1.298329,2.6e-4 2.75e-4,-1.22593 c 0.836217,0.05716 3.310237,0.08203 3.643482,0.07976 0.333242,0.0025 2.807488,-0.02159 3.64373,-0.07841 l -2.59e-4,1.22593 1.298111,2.61e-4 2.59e-4,-1.237786 c 0.286325,-0.159996 0.420986,-0.571781 0.460929,-0.921372 l 0.167903,-1.866575 c -0.0095,-0.646433 -0.368014,-1.035877 -0.636266,-1.146964 l -0.535671,-1.961504 c -0.168641,-0.635333 -0.736733,-0.975174 -1.231241,-1.02446 -0.588194,-0.05364 -1.392274,-0.138315 -2.403786,-0.146766 z"
           style="fill:#000000;fill-opacity:1;fill-rule:nonzero;stroke:none;stroke-width:0.0708244" /><path
           inkscape:connector-curvature="0"
           id="path13411"
           d="m 37.698028,45.19383 0.398154,-1.76372 c 0.07918,-0.2945 0.347313,-0.468906 0.590726,-0.505878 l 1.063744,-0.09482 c 0.456574,-0.04729 1.528975,-0.06847 2.102355,-0.07072 0.573383,0.0025 1.645772,0.02402 2.102327,0.07151 l 1.063923,0.09523 c 0.243396,0.03706 0.511238,0.211568 0.590295,0.506093 l 0.397419,1.763867 c -1.628639,-0.135011 -3.170709,-0.165674 -4.154434,-0.182648 -0.983737,0.01662 -2.525814,0.04671 -4.154509,0.181108 z"
           style="fill:#ffffff;fill-opacity:1;fill-rule:nonzero;stroke:none;stroke-width:0.0708244" /></g><g
         id="g13419"
         transform="matrix(0.88389537,0,0,0.88389537,15.949545,16.389412)"><path
           sodipodi:nodetypes="cccccccccccccccccccccc"
           inkscape:connector-curvature="0"
           id="path13415"
           d="m 41.090882,42.165364 c -1.011509,0.0081 -1.815628,0.09246 -2.403846,0.145872 -0.494529,0.0491 -1.062758,0.388734 -1.231666,1.024004 l -0.536494,1.961306 c -0.268299,0.110989 -0.626939,0.500299 -0.63674,1.146727 l 0.167124,1.866618 c 0.03981,0.349607 0.174287,0.761442 0.460574,0.921524 l -2.53e-4,1.237784 1.298329,2.6e-4 2.75e-4,-1.22593 c 0.836217,0.05716 3.310237,0.08203 3.643482,0.07976 0.333242,0.0025 2.807488,-0.02159 3.64373,-0.07841 l -2.59e-4,1.22593 1.298111,2.61e-4 2.59e-4,-1.237786 c 0.286325,-0.159996 0.420986,-0.571781 0.460929,-0.921372 l 0.167903,-1.866575 c -0.0095,-0.646433 -0.368014,-1.035877 -0.636266,-1.146964 l -0.535671,-1.961504 c -0.168641,-0.635333 -0.736733,-0.975174 -1.231241,-1.02446 -0.588194,-0.05364 -1.392274,-0.138315 -2.403786,-0.146766 z"
           style="fill:#000000;fill-opacity:1;fill-rule:nonzero;stroke:none;stroke-width:0.0708244" /><path
           inkscape:connector-curvature="0"
           id="path13417"
           d="m 37.698028,45.19383 0.398154,-1.76372 c 0.07918,-0.2945 0.347313,-0.468906 0.590726,-0.505878 l 1.063744,-0.09482 c 0.456574,-0.04729 1.528975,-0.06847 2.102355,-0.07072 0.573383,0.0025 1.645772,0.02402 2.102327,0.07151 l 1.063923,0.09523 c 0.243396,0.03706 0.511238,0.211568 0.590295,0.506093 l 0.397419,1.763867 c -1.628639,-0.135011 -3.170709,-0.165674 -4.154434,-0.182648 -0.983737,0.01662 -2.525814,0.04671 -4.154509,0.181108 z"
           style="fill:#ffffff;fill-opacity:1;fill-rule:nonzero;stroke:none;stroke-width:0.0708244" /></g><g
         id="g13425"
         transform="matrix(0.99753483,0,0,0.99753483,14.300338,18.480046)"><path
           sodipodi:nodetypes="cccccccccccccccccccccc"
           inkscape:connector-curvature="0"
           id="path13421"
           d="m 41.090882,42.165364 c -1.011509,0.0081 -1.815628,0.09246 -2.403846,0.145872 -0.494529,0.0491 -1.062758,0.388734 -1.231666,1.024004 l -0.536494,1.961306 c -0.268299,0.110989 -0.626939,0.500299 -0.63674,1.146727 l 0.167124,1.866618 c 0.03981,0.349607 0.174287,0.761442 0.460574,0.921524 l -2.53e-4,1.237784 1.298329,2.6e-4 2.75e-4,-1.22593 c 0.836217,0.05716 3.310237,0.08203 3.643482,0.07976 0.333242,0.0025 2.807488,-0.02159 3.64373,-0.07841 l -2.59e-4,1.22593 1.298111,2.61e-4 2.59e-4,-1.237786 c 0.286325,-0.159996 0.420986,-0.571781 0.460929,-0.921372 l 0.167903,-1.866575 c -0.0095,-0.646433 -0.368014,-1.035877 -0.636266,-1.146964 l -0.535671,-1.961504 c -0.168641,-0.635333 -0.736733,-0.975174 -1.231241,-1.02446 -0.588194,-0.05364 -1.392274,-0.138315 -2.403786,-0.146766 z"
           style="fill:#000000;fill-opacity:1;fill-rule:nonzero;stroke:none;stroke-width:0.0708244" /><path
           inkscape:connector-curvature="0"
           id="path13423"
           d="m 37.698028,45.19383 0.398154,-1.76372 c 0.07918,-0.2945 0.347313,-0.468906 0.590726,-0.505878 l 1.063744,-0.09482 c 0.456574,-0.04729 1.528975,-0.06847 2.102355,-0.07072 0.573383,0.0025 1.645772,0.02402 2.102327,0.07151 l 1.063923,0.09523 c 0.243396,0.03706 0.511238,0.211568 0.590295,0.506093 l 0.397419,1.763867 c -1.628639,-0.135011 -3.170709,-0.165674 -4.154434,-0.182648 -0.983737,0.01662 -2.525814,0.04671 -4.154509,0.181108 z"
           style="fill:#ffffff;fill-opacity:1;fill-rule:nonzero;stroke:none;stroke-width:0.0708244" /></g><g
         id="g13431"
         transform="matrix(0.99753483,0,0,0.99753483,0.22115364,18.480046)"><path
           sodipodi:nodetypes="cccccccccccccccccccccc"
           inkscape:connector-curvature="0"
           id="path13427"
           d="m 41.090882,42.165364 c -1.011509,0.0081 -1.815628,0.09246 -2.403846,0.145872 -0.494529,0.0491 -1.062758,0.388734 -1.231666,1.024004 l -0.536494,1.961306 c -0.268299,0.110989 -0.626939,0.500299 -0.63674,1.146727 l 0.167124,1.866618 c 0.03981,0.349607 0.174287,0.761442 0.460574,0.921524 l -2.53e-4,1.237784 1.298329,2.6e-4 2.75e-4,-1.22593 c 0.836217,0.05716 3.310237,0.08203 3.643482,0.07976 0.333242,0.0025 2.807488,-0.02159 3.64373,-0.07841 l -2.59e-4,1.22593 1.298111,2.61e-4 2.59e-4,-1.237786 c 0.286325,-0.159996 0.420986,-0.571781 0.460929,-0.921372 l 0.167903,-1.866575 c -0.0095,-0.646433 -0.368014,-1.035877 -0.636266,-1.146964 l -0.535671,-1.961504 c -0.168641,-0.635333 -0.736733,-0.975174 -1.231241,-1.02446 -0.588194,-0.05364 -1.392274,-0.138315 -2.403786,-0.146766 z"
           style="fill:#000000;fill-opacity:1;fill-rule:nonzero;stroke:none;stroke-width:0.0708244" /><path
           inkscape:connector-curvature="0"
           id="path13429"
           d="m 37.698028,45.19383 0.398154,-1.76372 c 0.07918,-0.2945 0.347313,-0.468906 0.590726,-0.505878 l 1.063744,-0.09482 c 0.456574,-0.04729 1.528975,-0.06847 2.102355,-0.07072 0.573383,0.0025 1.645772,0.02402 2.102327,0.07151 l 1.063923,0.09523 c 0.243396,0.03706 0.511238,0.211568 0.590295,0.506093 l 0.397419,1.763867 c -1.628639,-0.135011 -3.170709,-0.165674 -4.154434,-0.182648 -0.983737,0.01662 -2.525814,0.04671 -4.154509,0.181108 z"
           style="fill:#ffffff;fill-opacity:1;fill-rule:nonzero;stroke:none;stroke-width:0.0708244" /></g><g
         id="g13437"
         transform="matrix(1.1528644,0,0,1.1528644,-3.5268213,19.229581)"><path
           sodipodi:nodetypes="cccccccccccccccccccccc"
           inkscape:connector-curvature="0"
           id="path13433"
           d="m 41.090882,42.165364 c -1.011509,0.0081 -1.815628,0.09246 -2.403846,0.145872 -0.494529,0.0491 -1.062758,0.388734 -1.231666,1.024004 l -0.536494,1.961306 c -0.268299,0.110989 -0.626939,0.500299 -0.63674,1.146727 l 0.167124,1.866618 c 0.03981,0.349607 0.174287,0.761442 0.460574,0.921524 l -2.53e-4,1.237784 1.298329,2.6e-4 2.75e-4,-1.22593 c 0.836217,0.05716 3.310237,0.08203 3.643482,0.07976 0.333242,0.0025 2.807488,-0.02159 3.64373,-0.07841 l -2.59e-4,1.22593 1.298111,2.61e-4 2.59e-4,-1.237786 c 0.286325,-0.159996 0.420986,-0.571781 0.460929,-0.921372 l 0.167903,-1.866575 c -0.0095,-0.646433 -0.368014,-1.035877 -0.636266,-1.146964 l -0.535671,-1.961504 c -0.168641,-0.635333 -0.736733,-0.975174 -1.231241,-1.02446 -0.588194,-0.05364 -1.392274,-0.138315 -2.403786,-0.146766 z"
           style="fill:#000000;fill-opacity:1;fill-rule:nonzero;stroke:none;stroke-width:0.0708244" /><path
           inkscape:connector-curvature="0"
           id="path13435"
           d="m 37.698028,45.19383 0.398154,-1.76372 c 0.07918,-0.2945 0.347313,-0.468906 0.590726,-0.505878 l 1.063744,-0.09482 c 0.456574,-0.04729 1.528975,-0.06847 2.102355,-0.07072 0.573383,0.0025 1.645772,0.02402 2.102327,0.07151 l 1.063923,0.09523 c 0.243396,0.03706 0.511238,0.211568 0.590295,0.506093 l 0.397419,1.763867 c -1.628639,-0.135011 -3.170709,-0.165674 -4.154434,-0.182648 -0.983737,0.01662 -2.525814,0.04671 -4.154509,0.181108 z"
           style="fill:#ffffff;fill-opacity:1;fill-rule:nonzero;stroke:none;stroke-width:0.0708244" /></g><g
         id="g13443"
         transform="matrix(1.1528644,0,0,1.1528644,11.260255,19.229581)"><path
           sodipodi:nodetypes="cccccccccccccccccccccc"
           inkscape:connector-curvature="0"
           id="path13439"
           d="m 41.090882,42.165364 c -1.011509,0.0081 -1.815628,0.09246 -2.403846,0.145872 -0.494529,0.0491 -1.062758,0.388734 -1.231666,1.024004 l -0.536494,1.961306 c -0.268299,0.110989 -0.626939,0.500299 -0.63674,1.146727 l 0.167124,1.866618 c 0.03981,0.349607 0.174287,0.761442 0.460574,0.921524 l -2.53e-4,1.237784 1.298329,2.6e-4 2.75e-4,-1.22593 c 0.836217,0.05716 3.310237,0.08203 3.643482,0.07976 0.333242,0.0025 2.807488,-0.02159 3.64373,-0.07841 l -2.59e-4,1.22593 1.298111,2.61e-4 2.59e-4,-1.237786 c 0.286325,-0.159996 0.420986,-0.571781 0.460929,-0.921372 l 0.167903,-1.866575 c -0.0095,-0.646433 -0.368014,-1.035877 -0.636266,-1.146964 l -0.535671,-1.961504 c -0.168641,-0.635333 -0.736733,-0.975174 -1.231241,-1.02446 -0.588194,-0.05364 -1.392274,-0.138315 -2.403786,-0.146766 z"
           style="fill:#000000;fill-opacity:1;fill-rule:nonzero;stroke:none;stroke-width:0.0708244" /><path
           inkscape:connector-curvature="0"
           id="path13441"
           d="m 37.698028,45.19383 0.398154,-1.76372 c 0.07918,-0.2945 0.347313,-0.468906 0.590726,-0.505878 l 1.063744,-0.09482 c 0.456574,-0.04729 1.528975,-0.06847 2.102355,-0.07072 0.573383,0.0025 1.645772,0.02402 2.102327,0.07151 l 1.063923,0.09523 c 0.243396,0.03706 0.511238,0.211568 0.590295,0.506093 l 0.397419,1.763867 c -1.628639,-0.135011 -3.170709,-0.165674 -4.154434,-0.182648 -0.983737,0.01662 -2.525814,0.04671 -4.154509,0.181108 z"
           style="fill:#ffffff;fill-opacity:1;fill-rule:nonzero;stroke:none;stroke-width:0.0708244" /></g></g></g></svg>
