<?xml version="1.0" encoding="UTF-8" standalone="no"?>
<!-- Created with Inkscape (http://www.inkscape.org/) -->

<svg
   width="359.59207"
   height="317.78671"
   viewBox="0 0 95.142067 84.081067"
   version="1.1"
   id="svg292"
   xml:space="preserve"
   inkscape:version="1.2.1 (9c6d41e410, 2022-07-14)"
   sodipodi:docname="Indian_Road_Sign_II-65.svg"
   xmlns:inkscape="http://www.inkscape.org/namespaces/inkscape"
   xmlns:sodipodi="http://sodipodi.sourceforge.net/DTD/sodipodi-0.dtd"
   xmlns="http://www.w3.org/2000/svg"
   xmlns:svg="http://www.w3.org/2000/svg"><sodipodi:namedview
     id="namedview294"
     pagecolor="#505050"
     bordercolor="#eeeeee"
     borderopacity="1"
     inkscape:showpageshadow="0"
     inkscape:pageopacity="0"
     inkscape:pagecheckerboard="0"
     inkscape:deskcolor="#505050"
     inkscape:document-units="mm"
     showgrid="false"
     inkscape:zoom="2"
     inkscape:cx="38.25"
     inkscape:cy="182.75"
     inkscape:window-width="1920"
     inkscape:window-height="991"
     inkscape:window-x="-9"
     inkscape:window-y="-9"
     inkscape:window-maximized="1"
     inkscape:current-layer="layer1"
     showguides="true"><sodipodi:guide
       position="308.63595,39.942764"
       orientation="1,0"
       id="guide2243"
       inkscape:locked="false" /></sodipodi:namedview><defs
     id="defs289"><inkscape:path-effect
       effect="fillet_chamfer"
       id="path-effect6935"
       is_visible="true"
       lpeversion="1"
       nodesatellites_param="F,0,0,1,0,0.98288796,0,1 @ F,0,1,1,0,0.98288796,0,1 @ F,0,0,1,0,1.683798,0,1 @ F,0,0,1,0,1.683798,0,1"
       unit="px"
       method="auto"
       mode="F"
       radius="0"
       chamfer_steps="1"
       flexible="false"
       use_knot_distance="true"
       apply_no_radius="true"
       apply_with_radius="true"
       only_selected="false"
       hide_knots="false" /><inkscape:path-effect
       effect="fillet_chamfer"
       id="path-effect6911"
       is_visible="true"
       lpeversion="1"
       nodesatellites_param="F,0,0,1,0,0.51472187,0,1 @ F,0,0,1,0,0.57277344,0,1 @ F,0,0,1,0,0.57277344,0,1 @ F,0,0,1,0,0,0,1 @ F,0,0,1,0,0,0,1 @ F,0,0,1,0,0,0,1 @ F,0,0,1,0,0.57277344,0,1 @ F,0,0,1,0,0.57277344,0,1 | F,0,0,1,0,0.51472187,0,1 @ F,0,0,1,0,0.57277344,0,1 @ F,0,0,1,0,0.57277344,0,1 @ F,0,0,1,0,0.5154376,0,1 @ F,0,1,1,0,0.5154376,0,1 @ F,0,0,1,0,0.57277344,0,1 @ F,0,0,1,0,0.57277344,0,1"
       unit="px"
       method="auto"
       mode="F"
       radius="0"
       chamfer_steps="1"
       flexible="false"
       use_knot_distance="true"
       apply_no_radius="true"
       apply_with_radius="true"
       only_selected="false"
       hide_knots="false" /><inkscape:path-effect
       effect="fillet_chamfer"
       id="path-effect1265"
       is_visible="true"
       lpeversion="1"
       nodesatellites_param="F,0,0,1,0,0.53381435,0,1 @ F,0,0,1,0,0.78338023,0,1 @ F,0,0,1,0,0,0,1 @ F,0,0,1,0,0,0,1 @ F,0,0,1,0,0,0,1 @ F,0,0,1,0,0,0,1 @ F,0,0,1,0,0.78338023,0,1 | F,0,0,1,0,0,0,1 @ F,0,0,1,0,0,0,1 @ F,0,0,1,0,0,0,1 @ F,0,0,1,0,0,0,1 @ F,0,0,1,0,0,0,1 @ F,0,0,1,0,0,0,1 @ F,0,0,1,0,0,0,1 @ F,0,0,1,0,0,0,1"
       unit="px"
       method="auto"
       mode="F"
       radius="0"
       chamfer_steps="1"
       flexible="false"
       use_knot_distance="true"
       apply_no_radius="true"
       apply_with_radius="true"
       only_selected="false"
       hide_knots="false" /><inkscape:path-effect
       effect="fillet_chamfer"
       id="path-effect2908"
       is_visible="true"
       lpeversion="1"
       nodesatellites_param="F,0,0,1,0,4.0878675,0,1 @ F,0,0,1,0,1.6885452,0,1 @ F,0,0,1,0,0.40570983,0,1 @ F,0,0,1,0,0.49262617,0,1 @ F,0,0,1,0,0.79618528,0,1 @ F,0,0,1,0,0,0,1 @ F,0,0,1,0,0,0,1 @ F,0,0,1,0,0,0,1 @ F,0,0,1,0,0,0,1 @ F,0,0,1,0,0,0,1 @ F,0,0,1,0,0,0,1 @ F,0,0,1,0,0.55617244,0,1 @ F,0,0,1,0,0,0,1 @ F,0,0,1,0,0,0,1 @ F,0,0,1,0,0,0,1 @ F,0,0,1,0,1.654086,0,1 @ F,0,0,1,0,0,0,1 @ F,0,0,1,0,0,0,1 @ F,0,0,1,0,0.98128185,0,1 @ F,0,0,1,0,0,0,1 @ F,0,0,1,0,0,0,1 | F,0,0,1,0,0.43103364,0,1 @ F,0,0,1,0,0.57302446,0,1 @ F,0,0,1,0,0,0,1 @ F,0,0,1,0,0,0,1 @ F,0,0,1,0,1.1123449,0,1 @ F,0,0,1,0,0,0,1 @ F,0,0,1,0,0,0,1"
       unit="px"
       method="auto"
       mode="F"
       radius="0"
       chamfer_steps="1"
       flexible="false"
       use_knot_distance="true"
       apply_no_radius="true"
       apply_with_radius="true"
       only_selected="false"
       hide_knots="false" /><clipPath
       id="clipPath2832"><path
         d="M -0.24,595.138 H 317.24 V -0.138 H -0.24 Z"
         id="path2834"
         inkscape:connector-curvature="0" /></clipPath><clipPath
       id="clipPath2840"><path
         d="M 0.03,595.32 H 317.49 V 0 H 0.03 Z"
         id="path2842"
         inkscape:connector-curvature="0" /></clipPath><clipPath
       id="clipPath2858"><path
         d="M -0.24,595.138 H 317.24 V -0.138 H -0.24 Z"
         id="path2860"
         inkscape:connector-curvature="0" /></clipPath><clipPath
       id="clipPath2864"><path
         d="M 0.03,595.32 H 317.49 V 0 H 0.03 Z"
         id="path2866"
         inkscape:connector-curvature="0" /></clipPath><clipPath
       id="clipPath3306"><path
         d="m 199.238,472.977 v -29.74 h 29.744 v 29.74"
         id="path3308"
         inkscape:connector-curvature="0" /></clipPath><clipPath
       id="clipPath3322"><path
         d="M -0.24,595.138 H 317.24 V -0.138 H -0.24 Z"
         id="path3324"
         inkscape:connector-curvature="0" /></clipPath><clipPath
       id="clipPath3330"><path
         d="M 0.03,595.32 H 317.49 V 0 H 0.03 Z"
         id="path3332"
         inkscape:connector-curvature="0" /></clipPath><clipPath
       id="clipPath3344"><path
         d="m 88.233,387.221 v -28.335 h 32.08 v 28.335"
         id="path3346"
         inkscape:connector-curvature="0" /></clipPath><clipPath
       id="clipPath3462"><path
         d="M -0.24,595.138 H 317.24 V -0.138 H -0.24 Z"
         id="path3464"
         inkscape:connector-curvature="0" /></clipPath><clipPath
       id="clipPath3470"><path
         d="M 0.03,595.32 H 317.49 V 0 H 0.03 Z"
         id="path3472"
         inkscape:connector-curvature="0" /></clipPath><clipPath
       id="clipPath3490"><path
         d="M -0.24,595.138 H 317.24 V -0.138 H -0.24 Z"
         id="path3492"
         inkscape:connector-curvature="0" /></clipPath><clipPath
       id="clipPath3496"><path
         d="M 0.03,595.32 H 317.49 V 0 H 0.03 Z"
         id="path3498"
         inkscape:connector-curvature="0" /></clipPath><clipPath
       id="clipPath3520"><path
         d="m 254.788,326.215 v -28.309 h 28.326 v 28.309"
         id="path3522"
         inkscape:connector-curvature="0" /></clipPath><clipPath
       id="clipPath3544"><path
         d="m 145.049,326.142 v -28.333 h 28.342 v 28.333"
         id="path3546"
         inkscape:connector-curvature="0" /></clipPath><clipPath
       id="clipPath3682"><path
         d="M -0.24,595.138 H 317.24 V -0.138 H -0.24 Z"
         id="path3684"
         inkscape:connector-curvature="0" /></clipPath><clipPath
       id="clipPath3690"><path
         d="M 0.03,595.32 H 317.49 V 0 H 0.03 Z"
         id="path3692"
         inkscape:connector-curvature="0" /></clipPath><clipPath
       id="clipPath3980"><path
         d="M -0.24,595.138 H 317.24 V -0.138 H -0.24 Z"
         id="path3982"
         inkscape:connector-curvature="0" /></clipPath><clipPath
       id="clipPath3988"><path
         d="M 0.03,595.32 H 317.49 V 0 H 0.03 Z"
         id="path3990"
         inkscape:connector-curvature="0" /></clipPath><clipPath
       id="clipPath4010"><path
         d="M -0.24,595.138 H 317.24 V -0.138 H -0.24 Z"
         id="path4012"
         inkscape:connector-curvature="0" /></clipPath><clipPath
       id="clipPath4016"><path
         d="M 0.03,595.32 H 317.49 V 0 H 0.03 Z"
         id="path4018"
         inkscape:connector-curvature="0" /></clipPath><clipPath
       id="clipPath4062"><path
         d="m 200.163,177.773 v -28.284 h 28.283 v 28.284"
         id="path4064"
         inkscape:connector-curvature="0" /></clipPath><clipPath
       id="clipPath4090"><path
         d="m 34.886,177.515 v -51.632 h 30.367 v 51.632"
         id="path4092"
         inkscape:connector-curvature="0" /></clipPath><clipPath
       id="clipPath4106"><path
         d="m 34.886,177.515 v -51.632 h 30.367 v 51.632"
         id="path4108"
         inkscape:connector-curvature="0" /></clipPath><clipPath
       id="clipPath4272"><path
         d="m 34.886,177.515 v -51.632 h 30.367 v 51.632"
         id="path4274"
         inkscape:connector-curvature="0" /></clipPath><clipPath
       id="clipPath4304"><path
         d="m 254.653,176.442 v -48.167 h 28.317 v 48.167"
         id="path4306"
         inkscape:connector-curvature="0" /></clipPath><clipPath
       id="clipPath4310"><path
         d="m 253.565,177.983 h 31.181 V 128.8 h -31.181 z"
         id="path4312"
         inkscape:connector-curvature="0" /></clipPath><clipPath
       id="clipPath4316"><path
         d="M -0.24,595.138 H 317.24 V -0.138 H -0.24 Z"
         id="path4318"
         inkscape:connector-curvature="0" /></clipPath><clipPath
       id="clipPath4322"><path
         d="M 0.03,595.32 H 317.49 V 0 H 0.03 Z"
         id="path4324"
         inkscape:connector-curvature="0" /></clipPath><clipPath
       id="clipPath4456"><path
         d="M -0.24,595.138 H 317.24 V -0.138 H -0.24 Z"
         id="path4458"
         inkscape:connector-curvature="0" /></clipPath><clipPath
       id="clipPath4464"><path
         d="M 0.03,595.32 H 317.49 V 0 H 0.03 Z"
         id="path4466"
         inkscape:connector-curvature="0" /></clipPath><inkscape:perspective
       sodipodi:type="inkscape:persp3d"
       inkscape:vp_x="0 : 47.625 : 1"
       inkscape:vp_y="0 : 1000 : 0"
       inkscape:vp_z="95.249998 : 47.625 : 1"
       inkscape:persp3d-origin="47.624999 : 31.75 : 1"
       id="perspective2757" /><inkscape:path-effect
       effect="fillet_chamfer"
       id="path-effect1250"
       is_visible="true"
       lpeversion="1"
       nodesatellites_param="F,0,0,1,0,3.86627,0,1 @ F,0,0,1,0,3.8662696,0,1 @ F,0,0,1,0,3.8662703,0,1 @ F,0,0,1,0,3.8662703,0,1"
       unit="px"
       method="auto"
       mode="F"
       radius="0"
       chamfer_steps="1"
       flexible="false"
       use_knot_distance="true"
       apply_no_radius="true"
       apply_with_radius="true"
       only_selected="false"
       hide_knots="false" /><inkscape:path-effect
       effect="fillet_chamfer"
       id="path-effect2969"
       is_visible="true"
       lpeversion="1"
       nodesatellites_param="F,0,0,1,0,5.0787595,0,1 @ F,0,0,1,0,5.078762,0,1 @ F,0,0,1,0,5.078762,0,1 @ F,0,0,1,0,5.078762,0,1"
       unit="px"
       method="auto"
       mode="F"
       radius="0"
       chamfer_steps="1"
       flexible="false"
       use_knot_distance="true"
       apply_no_radius="true"
       apply_with_radius="true"
       only_selected="false"
       hide_knots="false" /><inkscape:path-effect
       effect="fillet_chamfer"
       id="path-effect2963"
       is_visible="true"
       lpeversion="1"
       nodesatellites_param="F,0,0,1,0,5.0787595,0,1 @ F,0,0,1,0,5.078762,0,1 @ F,0,0,1,0,5.078762,0,1 @ F,0,0,1,0,5.078762,0,1"
       unit="px"
       method="auto"
       mode="F"
       radius="0"
       chamfer_steps="1"
       flexible="false"
       use_knot_distance="true"
       apply_no_radius="true"
       apply_with_radius="true"
       only_selected="false"
       hide_knots="false" /><inkscape:path-effect
       effect="fillet_chamfer"
       id="path-effect2888"
       is_visible="true"
       lpeversion="1"
       nodesatellites_param="F,0,0,1,0,5.0787595,0,1 @ F,0,0,1,0,5.078762,0,1 @ F,0,0,1,0,5.078762,0,1 @ F,0,0,1,0,5.078762,0,1"
       unit="px"
       method="auto"
       mode="F"
       radius="0"
       chamfer_steps="1"
       flexible="false"
       use_knot_distance="true"
       apply_no_radius="true"
       apply_with_radius="true"
       only_selected="false"
       hide_knots="false" /><inkscape:path-effect
       effect="fillet_chamfer"
       id="path-effect1250-3"
       is_visible="true"
       lpeversion="1"
       nodesatellites_param="F,0,0,1,0,3.86627,0,1 @ F,0,0,1,0,3.8662696,0,1 @ F,0,0,1,0,3.8662703,0,1 @ F,0,0,1,0,3.8662703,0,1"
       unit="px"
       method="auto"
       mode="F"
       radius="0"
       chamfer_steps="1"
       flexible="false"
       use_knot_distance="true"
       apply_no_radius="true"
       apply_with_radius="true"
       only_selected="false"
       hide_knots="false" /><inkscape:path-effect
       effect="fillet_chamfer"
       id="path-effect2969-8"
       is_visible="true"
       lpeversion="1"
       nodesatellites_param="F,0,0,1,0,5.0787595,0,1 @ F,0,0,1,0,5.078762,0,1 @ F,0,0,1,0,5.078762,0,1 @ F,0,0,1,0,5.078762,0,1"
       unit="px"
       method="auto"
       mode="F"
       radius="0"
       chamfer_steps="1"
       flexible="false"
       use_knot_distance="true"
       apply_no_radius="true"
       apply_with_radius="true"
       only_selected="false"
       hide_knots="false" /><inkscape:path-effect
       effect="fillet_chamfer"
       id="path-effect2963-9"
       is_visible="true"
       lpeversion="1"
       nodesatellites_param="F,0,0,1,0,5.0787595,0,1 @ F,0,0,1,0,5.078762,0,1 @ F,0,0,1,0,5.078762,0,1 @ F,0,0,1,0,5.078762,0,1"
       unit="px"
       method="auto"
       mode="F"
       radius="0"
       chamfer_steps="1"
       flexible="false"
       use_knot_distance="true"
       apply_no_radius="true"
       apply_with_radius="true"
       only_selected="false"
       hide_knots="false" /><inkscape:path-effect
       effect="fillet_chamfer"
       id="path-effect2888-3"
       is_visible="true"
       lpeversion="1"
       nodesatellites_param="F,0,0,1,0,5.0787595,0,1 @ F,0,0,1,0,5.078762,0,1 @ F,0,0,1,0,5.078762,0,1 @ F,0,0,1,0,5.078762,0,1"
       unit="px"
       method="auto"
       mode="F"
       radius="0"
       chamfer_steps="1"
       flexible="false"
       use_knot_distance="true"
       apply_no_radius="true"
       apply_with_radius="true"
       only_selected="false"
       hide_knots="false" /><clipPath
       clipPathUnits="userSpaceOnUse"
       id="clipPath2532"><path
         sodipodi:nodetypes="cccc"
         inkscape:connector-curvature="0"
         id="path2534"
         d="M 85.390158,81.854081 47.678955,16.536355 9.9677452,81.854038 Z"
         style="fill:#ffffff;fill-opacity:1;stroke:none;stroke-width:12.6128;stroke-linecap:butt;stroke-linejoin:round;stroke-miterlimit:4;stroke-dasharray:none;stroke-dashoffset:0;stroke-opacity:1" /></clipPath><clipPath
       clipPathUnits="userSpaceOnUse"
       id="clipPath2550"><path
         sodipodi:nodetypes="cccc"
         inkscape:connector-curvature="0"
         id="path2552"
         d="M 85.390158,81.854081 47.678955,16.536355 9.9677452,81.854038 Z"
         style="fill:#ffffff;fill-opacity:1;stroke:none;stroke-width:12.6128;stroke-linecap:butt;stroke-linejoin:round;stroke-miterlimit:4;stroke-dasharray:none;stroke-dashoffset:0;stroke-opacity:1" /></clipPath><clipPath
       clipPathUnits="userSpaceOnUse"
       id="clipPath2554"><path
         sodipodi:nodetypes="cccc"
         inkscape:connector-curvature="0"
         id="path2556"
         d="M 85.390158,81.854081 47.678955,16.536355 9.9677452,81.854038 Z"
         style="fill:#ffffff;fill-opacity:1;stroke:none;stroke-width:12.6128;stroke-linecap:butt;stroke-linejoin:round;stroke-miterlimit:4;stroke-dasharray:none;stroke-dashoffset:0;stroke-opacity:1" /></clipPath><clipPath
       clipPathUnits="userSpaceOnUse"
       id="clipPath2558"><path
         sodipodi:nodetypes="cccc"
         inkscape:connector-curvature="0"
         id="path2560"
         d="M 85.390158,81.854081 47.678955,16.536355 9.9677452,81.854038 Z"
         style="fill:#ffffff;fill-opacity:1;stroke:none;stroke-width:12.6128;stroke-linecap:butt;stroke-linejoin:round;stroke-miterlimit:4;stroke-dasharray:none;stroke-dashoffset:0;stroke-opacity:1" /></clipPath><clipPath
       clipPathUnits="userSpaceOnUse"
       id="clipPath2562"><path
         sodipodi:nodetypes="cccc"
         inkscape:connector-curvature="0"
         id="path2564"
         d="M 85.390158,81.854081 47.678955,16.536355 9.9677452,81.854038 Z"
         style="fill:#ffffff;fill-opacity:1;stroke:none;stroke-width:12.6128;stroke-linecap:butt;stroke-linejoin:round;stroke-miterlimit:4;stroke-dasharray:none;stroke-dashoffset:0;stroke-opacity:1" /></clipPath><clipPath
       clipPathUnits="userSpaceOnUse"
       id="clipPath2566"><path
         sodipodi:nodetypes="cccc"
         inkscape:connector-curvature="0"
         id="path2568"
         d="M -85.390158,81.854081 -47.678955,16.536355 -9.9677452,81.854038 Z"
         style="fill:#ffffff;fill-opacity:1;stroke:none;stroke-width:12.6128;stroke-linecap:butt;stroke-linejoin:round;stroke-miterlimit:4;stroke-dasharray:none;stroke-dashoffset:0;stroke-opacity:1" /></clipPath><clipPath
       clipPathUnits="userSpaceOnUse"
       id="clipPath2570"><path
         sodipodi:nodetypes="cccc"
         inkscape:connector-curvature="0"
         id="path2572"
         d="M -85.390158,81.854081 -47.678955,16.536355 -9.9677452,81.854038 Z"
         style="fill:#ffffff;fill-opacity:1;stroke:none;stroke-width:12.6128;stroke-linecap:butt;stroke-linejoin:round;stroke-miterlimit:4;stroke-dasharray:none;stroke-dashoffset:0;stroke-opacity:1" /></clipPath><clipPath
       clipPathUnits="userSpaceOnUse"
       id="clipPath2574"><path
         sodipodi:nodetypes="cccc"
         inkscape:connector-curvature="0"
         id="path2576"
         d="M 85.390158,81.854081 47.678955,16.536355 9.9677452,81.854038 Z"
         style="fill:#ffffff;fill-opacity:1;stroke:none;stroke-width:12.6128;stroke-linecap:butt;stroke-linejoin:round;stroke-miterlimit:4;stroke-dasharray:none;stroke-dashoffset:0;stroke-opacity:1" /></clipPath><clipPath
       clipPathUnits="userSpaceOnUse"
       id="clipPath2578"><path
         sodipodi:nodetypes="cccc"
         inkscape:connector-curvature="0"
         id="path2580"
         d="M 85.390158,81.854081 47.678955,16.536355 9.9677452,81.854038 Z"
         style="fill:#ffffff;fill-opacity:1;stroke:none;stroke-width:12.6128;stroke-linecap:butt;stroke-linejoin:round;stroke-miterlimit:4;stroke-dasharray:none;stroke-dashoffset:0;stroke-opacity:1" /></clipPath><inkscape:perspective
       sodipodi:type="inkscape:persp3d"
       inkscape:vp_x="0 : 47.625 : 1"
       inkscape:vp_y="0 : 1000 : 0"
       inkscape:vp_z="95.249998 : 47.625 : 1"
       inkscape:persp3d-origin="47.624999 : 31.75 : 1"
       id="perspective2757-1" /><inkscape:path-effect
       effect="fillet_chamfer"
       id="path-effect1250-0"
       is_visible="true"
       lpeversion="1"
       nodesatellites_param="F,0,0,1,0,3.86627,0,1 @ F,0,0,1,0,3.8662696,0,1 @ F,0,0,1,0,3.8662703,0,1 @ F,0,0,1,0,3.8662703,0,1"
       unit="px"
       method="auto"
       mode="F"
       radius="0"
       chamfer_steps="1"
       flexible="false"
       use_knot_distance="true"
       apply_no_radius="true"
       apply_with_radius="true"
       only_selected="false"
       hide_knots="false" /><inkscape:path-effect
       effect="fillet_chamfer"
       id="path-effect2969-6"
       is_visible="true"
       lpeversion="1"
       nodesatellites_param="F,0,0,1,0,5.0787595,0,1 @ F,0,0,1,0,5.078762,0,1 @ F,0,0,1,0,5.078762,0,1 @ F,0,0,1,0,5.078762,0,1"
       unit="px"
       method="auto"
       mode="F"
       radius="0"
       chamfer_steps="1"
       flexible="false"
       use_knot_distance="true"
       apply_no_radius="true"
       apply_with_radius="true"
       only_selected="false"
       hide_knots="false" /><inkscape:path-effect
       effect="fillet_chamfer"
       id="path-effect2963-99"
       is_visible="true"
       lpeversion="1"
       nodesatellites_param="F,0,0,1,0,5.0787595,0,1 @ F,0,0,1,0,5.078762,0,1 @ F,0,0,1,0,5.078762,0,1 @ F,0,0,1,0,5.078762,0,1"
       unit="px"
       method="auto"
       mode="F"
       radius="0"
       chamfer_steps="1"
       flexible="false"
       use_knot_distance="true"
       apply_no_radius="true"
       apply_with_radius="true"
       only_selected="false"
       hide_knots="false" /><inkscape:path-effect
       effect="fillet_chamfer"
       id="path-effect2888-1"
       is_visible="true"
       lpeversion="1"
       nodesatellites_param="F,0,0,1,0,5.0787595,0,1 @ F,0,0,1,0,5.078762,0,1 @ F,0,0,1,0,5.078762,0,1 @ F,0,0,1,0,5.078762,0,1"
       unit="px"
       method="auto"
       mode="F"
       radius="0"
       chamfer_steps="1"
       flexible="false"
       use_knot_distance="true"
       apply_no_radius="true"
       apply_with_radius="true"
       only_selected="false"
       hide_knots="false" /><inkscape:path-effect
       effect="fillet_chamfer"
       id="path-effect1250-3-4"
       is_visible="true"
       lpeversion="1"
       nodesatellites_param="F,0,0,1,0,3.86627,0,1 @ F,0,0,1,0,3.8662696,0,1 @ F,0,0,1,0,3.8662703,0,1 @ F,0,0,1,0,3.8662703,0,1"
       unit="px"
       method="auto"
       mode="F"
       radius="0"
       chamfer_steps="1"
       flexible="false"
       use_knot_distance="true"
       apply_no_radius="true"
       apply_with_radius="true"
       only_selected="false"
       hide_knots="false" /><inkscape:path-effect
       effect="fillet_chamfer"
       id="path-effect2969-8-0"
       is_visible="true"
       lpeversion="1"
       nodesatellites_param="F,0,0,1,0,5.0787595,0,1 @ F,0,0,1,0,5.078762,0,1 @ F,0,0,1,0,5.078762,0,1 @ F,0,0,1,0,5.078762,0,1"
       unit="px"
       method="auto"
       mode="F"
       radius="0"
       chamfer_steps="1"
       flexible="false"
       use_knot_distance="true"
       apply_no_radius="true"
       apply_with_radius="true"
       only_selected="false"
       hide_knots="false" /><inkscape:path-effect
       effect="fillet_chamfer"
       id="path-effect2963-9-9"
       is_visible="true"
       lpeversion="1"
       nodesatellites_param="F,0,0,1,0,5.0787595,0,1 @ F,0,0,1,0,5.078762,0,1 @ F,0,0,1,0,5.078762,0,1 @ F,0,0,1,0,5.078762,0,1"
       unit="px"
       method="auto"
       mode="F"
       radius="0"
       chamfer_steps="1"
       flexible="false"
       use_knot_distance="true"
       apply_no_radius="true"
       apply_with_radius="true"
       only_selected="false"
       hide_knots="false" /><inkscape:path-effect
       effect="fillet_chamfer"
       id="path-effect2888-3-6"
       is_visible="true"
       lpeversion="1"
       nodesatellites_param="F,0,0,1,0,5.0787595,0,1 @ F,0,0,1,0,5.078762,0,1 @ F,0,0,1,0,5.078762,0,1 @ F,0,0,1,0,5.078762,0,1"
       unit="px"
       method="auto"
       mode="F"
       radius="0"
       chamfer_steps="1"
       flexible="false"
       use_knot_distance="true"
       apply_no_radius="true"
       apply_with_radius="true"
       only_selected="false"
       hide_knots="false" /></defs><g
     inkscape:label="Layer 1"
     inkscape:groupmode="layer"
     id="layer1"
     transform="translate(-0.1079166,-6.6255169)"><path
       inkscape:connector-curvature="0"
       id="path814"
       d="M 88.960492,84.416633 47.678877,12.914838 6.3974062,84.416579 Z"
       inkscape:transform-center-y="-6.06719"
       inkscape:transform-center-x="0.31439696"
       style="fill:none;fill-opacity:1;stroke:#ed1c24;stroke-width:12.58;stroke-linecap:butt;stroke-linejoin:round;stroke-miterlimit:4;stroke-dasharray:none;stroke-dashoffset:0;stroke-opacity:1"
       sodipodi:nodetypes="cccc" /><path
       inkscape:connector-curvature="0"
       id="path2526"
       d="M 88.960492,84.416633 47.678877,12.914838 6.3974062,84.416579 Z"
       inkscape:transform-center-y="-6.06719"
       inkscape:transform-center-x="0.31439696"
       style="fill:none;fill-opacity:1;stroke:#ed1c24;stroke-width:12.58;stroke-linecap:butt;stroke-linejoin:round;stroke-miterlimit:4;stroke-dasharray:none;stroke-dashoffset:0;stroke-opacity:1"
       sodipodi:nodetypes="cccc"
       clip-path="url(#clipPath2532)" /><path
       sodipodi:nodetypes="cccc"
       inkscape:connector-curvature="0"
       id="path2529"
       d="M 85.390157,81.854081 47.678956,16.536355 9.9677452,81.854038 Z"
       style="fill:#ffffff;fill-opacity:1;stroke:none;stroke-width:12.6128;stroke-linecap:butt;stroke-linejoin:round;stroke-miterlimit:4;stroke-dasharray:none;stroke-dashoffset:0;stroke-opacity:1" /><path
       inkscape:connector-curvature="0"
       id="path18"
       style="fill:#000000;fill-opacity:1;fill-rule:nonzero;stroke:none;stroke-width:0.0314172"
       d="m 31.147808,51.629491 c -0.0099,-0.369915 0.01589,-0.999267 0.07572,-1.489311 0.153618,-1.258152 0.553276,-2.014555 0.650685,-1.967471 0.273986,0.132434 0.254533,3.385489 0.912203,3.951676 0.01346,-0.02911 0.710316,-0.769114 1.149486,-1.851281 0.568045,-1.399735 0.923469,-3.468901 1.00747,-3.50836 0.307413,-0.187585 0.574046,4.760622 0.574046,4.760622 0,0 1.471824,0.04267 1.477488,0.73342 -0.0053,0.684152 -1.035062,0.91723 -1.029398,1.254762 -0.0054,0.325296 1.02146,0.399011 1.166517,0.439167 1.031962,0.03315 1.384162,1.044333 1.944196,0.158321 1.05252,-1.665158 2.002242,-3.286219 3.590778,-3.080627 1.287959,0.16669 2.638419,1.933991 7.39352,3.481773 2.613048,0.726804 6.404843,0.416125 8.489616,-0.248447 2.107998,-0.582428 4.285472,-0.53128 6.233005,-0.123009 1.987949,0.377154 3.053456,2.546171 3.238099,3.795892 0.630534,3.844562 0.655116,3.132488 0.692239,6.995306 0.01472,0.189685 -0.0124,0.372255 0.188795,0.533272 0.693472,0.57358 1.116303,0.867924 1.10129,1.976252 0.01498,0.391488 -0.502222,2.871116 -0.503443,3.450601 -0.15881,-0.199013 -0.688307,-0.923196 -0.786642,-1.003811 -0.0987,-0.09129 -0.123275,-0.152676 -0.09439,-0.25096 0.02043,-0.09815 0.143547,-0.368076 0.157327,-0.909698 -0.01383,-1.348875 -0.888053,-1.213823 -0.881035,-2.415419 -0.0071,-0.283798 0.202327,-0.35745 0.157329,-1.129286 -0.100315,-2.316291 -0.398231,-5.390333 -0.912503,-7.622683 -0.03835,-0.15465 -0.08027,-0.155272 -0.125861,-0.156846 -0.04941,0.0018 -0.07778,0.06936 -0.06297,0.156846 0.03345,1.047098 0.139267,7.398799 -0.220262,8.595123 -0.07412,0.20867 -0.189047,0.765123 0.03148,1.129287 0.239198,0.355973 0.780977,0.945248 0.849568,1.035181 0.0627,0.07381 0.243354,0.253779 0.12586,0.784223 -0.577671,2.328055 -0.679932,4.634155 -0.503444,6.869831 0.01356,0.226791 -0.01114,0.365888 -0.0944,0.439168 -0.101412,0.07398 -0.187689,0.147651 -0.251722,0.188208 -0.05914,0.02081 -0.280736,0.06998 -0.251722,0.313692 0.02034,0.235017 0.09414,0.824157 0.125862,0.94107 0.02988,0.09191 0.07296,0.282072 -0.125862,0.345064 -0.80655,0.228053 -2.225235,0.39957 -3.020687,0.345053 -0.111073,0.0093 -0.283502,-0.06429 -0.157329,-0.313683 0.250785,-0.502407 0.360601,-0.584499 0.755175,-0.941078 0.146634,-0.141409 0.904002,-1.307588 0.912501,-3.199641 -0.0089,-1.864264 -0.587276,-3.361761 -1.290083,-4.485774 -0.939565,1.22436 -1.907126,3.822376 -1.793539,5.771906 -0.0036,0.249981 -0.07082,0.458642 -0.346114,0.501901 -0.291057,0.06731 -0.40213,0.09178 -0.503453,0.376435 -0.185013,0.488412 -0.175568,0.643062 -0.188788,0.97244 0.0132,0.117758 0.01918,0.219082 -0.157327,0.250951 -1.110102,0.112235 -1.467233,0.12463 -2.831892,0 -0.132782,-0.01787 -0.189733,-0.142886 -0.03149,-0.282321 0.831944,-0.737897 2.048888,-2.695669 2.049513,-4.705364 0.210393,-5.029091 -2.808244,-3.76113 -5.636578,-3.513334 -2.407421,0.208545 -5.011505,0.296532 -7.299985,-0.0941 -0.62207,-0.09976 -0.845474,0.202168 -0.881034,0.564643 0.0018,0.21284 0.0018,2.250606 0,2.415418 0.0264,0.178899 0.0018,0.498106 -0.06297,0.627376 -0.292628,0.523367 -0.575816,2.491393 -0.566381,3.231013 -0.0095,0.174977 0.0091,0.352906 -0.22026,0.470539 -0.201686,0.115659 -0.324718,0.195428 -0.346117,0.47054 -0.02801,0.265035 -0.07082,0.749907 -0.06297,0.846963 -0.02016,0.07478 -0.0018,0.271181 -0.314655,0.376426 -0.473555,0.166761 -1.904915,0.367366 -2.234046,0.376426 -0.198867,-0.0091 -0.223717,-0.144104 -0.09439,-0.313683 0.104151,-0.161017 0.4509,-0.621863 0.660771,-0.784233 0.08429,-0.05282 0.118941,-0.118725 0.220255,-0.376424 0.561659,-1.643211 0.898348,-3.859492 0.314657,-5.552328 -0.03398,-0.08581 -0.04058,-0.194201 -0.157329,-0.188216 -0.09628,-0.0062 -0.132148,0.09866 -0.157328,0.188216 -0.01918,0.05744 -0.449955,1.585741 -0.471977,1.662558 -0.0027,0.09508 -0.02738,0.187124 -0.12586,0.25096 -0.717419,0.633493 -1.010356,3.24058 -1.006896,3.419221 -0.01918,0.228152 -0.05191,0.383646 -0.283189,0.50191 -0.212076,0.110892 -0.359655,0.151822 -0.440517,0.345054 -0.0834,0.166886 -0.247638,0.666093 -0.251722,0.846965 -0.01231,0.162715 -0.02863,0.277307 -0.220264,0.345064 -0.543401,0.250826 -1.682455,0.268361 -2.171109,0.21958 -0.173697,-0.01725 -0.223092,-0.09912 -0.157331,-0.250951 0.134986,-0.29299 0.502186,-0.888506 0.8181,-1.097922 0.174945,-0.116913 0.347382,-0.321411 0.471986,-0.533272 0.507537,-0.868422 1.258617,-2.300605 1.258617,-3.576077 0,-0.479849 -0.07394,-1.105882 -0.12586,-1.348864 -0.02203,-0.248008 -0.09566,-1.365059 -0.0944,-1.599826 -8.78e-4,-0.231726 -0.0089,-0.755307 -0.629304,-0.784232 -1.588383,-0.07354 -2.357079,-2.386111 -2.42284,-2.760473 -0.526421,-2.460022 -2.290684,-5.296727 -3.524131,-6.399292 -0.63183,-0.542209 -0.879146,-0.606801 -1.856464,-0.690119 -0.384826,-0.04402 -3.105956,-0.277173 -3.240943,-0.282321 -0.160476,0.0053 -0.226238,8.78e-4 -0.377591,-0.06269 -0.160468,-0.08358 -0.603822,-0.247163 -0.881026,-0.250959 -0.264628,0.0036 -0.502508,0.09373 -0.723707,0.09411 -0.238824,-4.4e-4 -0.525786,-0.18859 -0.66078,-0.376435 -0.111385,-0.172211 -0.209871,-0.294867 -0.377582,-0.345054 -0.16079,-0.08092 -0.341397,-0.244682 -0.346117,-0.407798 0.0045,-0.147749 0.08688,-0.237781 0.188787,-0.313692 0.09503,-0.104142 4.421213,-3.89321 4.531028,-4.015235 0.111704,-0.123288 0.788843,-0.724939 0.881034,-0.784231 0.105096,-0.0634 0.264942,-0.167829 0.251722,-0.282323"
       sodipodi:nodetypes="csscscccccsscccccccccccccccccccccccccccccccccccccccccccccccccccccccccccccccccccsccccccccccccccccc" /></g></svg>
