<?xml version="1.0" encoding="utf-8"?>
<svg width="359.59207" height="317.78671" viewBox="0 0 95.142067 84.081067" version="1.1" id="svg292" xmlns="http://www.w3.org/2000/svg">
  <g id="layer1" transform="translate(-0.1079166,-6.6255169)">
    <path id="path814" d="M 88.960492,84.416633 47.678877,12.914838 6.3974062,84.416579 Z" style="fill:none;fill-opacity:1;stroke:#ed1c24;stroke-width:12.5799;stroke-linecap:butt;stroke-linejoin:round;stroke-miterlimit:4;stroke-dasharray:none;stroke-dashoffset:0;stroke-opacity:1"/>
    <path id="path818" d="M 85.390157,81.854081 47.678956,16.536355 9.9677452,81.854038 Z" style="fill-opacity: 1; stroke: none; stroke-width: 12.6128; stroke-linecap: butt; stroke-linejoin: round; stroke-miterlimit: 4; stroke-dasharray: none; stroke-dashoffset: 0; stroke-opacity: 1; fill: rgb(179, 247, 34);"/>
    <circle style="opacity:1;fill:#000000;stroke:none;stroke-width:0.264583;stroke-dasharray:none;stroke-opacity:1" id="path2018" cx="42.332806" cy="36.881298" r="3.5038865"/>
    <circle style="opacity:1;fill:#000000;stroke:none;stroke-width:0.248395;stroke-dasharray:none;stroke-opacity:1" id="circle2020" cx="57.238228" cy="43.221664" r="3.2895114"/>
    <path id="path2079" style="opacity:1;fill:#000000;stroke:none;stroke-width:0.264583;stroke-dasharray:none;stroke-opacity:1" d="M 52.679835,67.181892 48.9577,78.712513 c 0.505676,0.346417 1.031681,0.672503 1.828721,0.727556 l 5.088543,-11.8843 2.139675,-0.103243 4.423807,12.087198 c 1.137685,0.108596 1.432887,-0.395522 1.779751,-0.862068 L 61.022544,66.710071 m -21.625258,-26.357414 -0.206706,0.936377 -2.965193,1.25212 c -1.341274,3.344103 -2.946572,5.684366 -4.455542,8.391219 l 0.715718,2.671672 -1.779736,-0.476974 -1.443323,5.386235 6.107638,1.636592 v 9.320879 l -4.840532,9.947713 2.625163,1.516186 5.648234,-9.783382 1.594218,-5.534546 1.769918,4.089673 1.107942,11.365715 3.578593,-0.275436 -0.933793,-13.576432 -2.997233,-9.121407 c 0.563459,-2.102851 0.70938,-4.113031 1.690336,-6.308659 l 0.54467,1.825212 4.85035,1.508435 v 1.056783 l -1.028878,-0.02791 -0.834574,4.393531 4.560962,0.834574 -2.085661,5.255493 c 4.282065,1.374942 8.41878,1.204155 11.540381,-0.444934 L 59.052417,57.48184 c 0.160951,-0.439913 0.323177,-0.869857 0.448035,-1.670699 0.08245,-0.338826 0.345496,-0.25836 0.486124,0.05107 0.224225,0.493369 0.334352,1.508174 0.393925,1.875429 l 4.755266,3.142443 c 0.619065,-0.246114 0.856857,-0.70994 0.959631,-1.251082 l -3.800285,-3.854545 -2.345593,-6.573759 -1.927014,-2.00918 c -1.015954,0.233379 -2.031922,-0.10376 -3.047876,-0.432531 -3.102348,1.616874 -3.105184,2.688614 -4.718059,6.295739 L 46.249064,51.025391 44.022327,43.12148 c -1.694761,-0.831992 -1.857766,-1.432272 -1.848466,-2.006079 -0.951527,0.05855 -1.877484,-0.192064 -2.776575,-0.762744 z m -2.751253,8.458399 -0.625802,4.78317 c -0.05209,0.861247 -0.923796,1.240946 -1.251603,0.500745 l -0.444934,-2.169377 z m 16.226399,4.838981 1.056783,2.599841 c -0.218622,0.743439 -0.668919,0.676245 -1.18184,0.38964 l -0.570507,-1.877404 z"/>
  </g>
</svg>