<?xml version="1.0" encoding="UTF-8"?>
<svg version="1.1" xmlns="http://www.w3.org/2000/svg" width="336" height="290">
<path d="M0 0 C3.81472767 2.70854592 6.03382975 5.23290732 8.3125 9.3046875 C9.20267822 10.87440308 9.20267822 10.87440308 10.11083984 12.47583008 C10.7342627 13.59755615 11.35768555 14.71928223 12 15.875 C12.6662451 17.05497897 13.33374435 18.23425062 14.00244141 19.4128418 C15.02315768 21.2119404 16.04325982 23.01134528 17.0597229 24.81285095 C20.09405084 30.18883756 23.21915553 35.50723185 26.375 40.8125 C31.38262976 49.25428788 36.35465326 57.71642721 41.3125 66.1875 C46.88418832 75.70707917 52.48893628 85.20584622 58.125 94.6875 C64.02037563 104.60962127 69.81920551 114.58359272 75.57128906 124.58935547 C79.97942936 132.25079152 84.44752426 139.87410946 88.95483398 147.47753906 C93.40913023 154.99269144 97.83422445 162.52468096 102.25 170.0625 C102.60620422 170.67043396 102.96240845 171.27836792 103.32940674 171.90472412 C106.25495681 176.89779259 109.17951256 181.89144321 112.10400391 186.88513184 C114.65220484 191.2361934 117.20082379 195.58700975 119.75 199.9375 C120.28356613 200.84816223 120.28356613 200.84816223 120.82791138 201.77722168 C125.4309473 209.63230701 130.05036321 217.47748532 134.6875 225.3125 C136.24007329 227.94062903 137.79206403 230.5691009 139.34375 233.19775391 C140.52165194 235.19067231 141.7015506 237.18241115 142.8828125 239.17333984 C144.82314272 242.44571449 146.75590426 245.72246379 148.6875 249 C149.58891724 250.51460815 149.58891724 250.51460815 150.50854492 252.05981445 C151.06646729 253.00945068 151.62438965 253.95908691 152.19921875 254.9375 C152.69252686 255.77152344 153.18583496 256.60554688 153.6940918 257.46484375 C156.83238835 263.55721081 157.63692751 268.39298099 156 275 C152.76924342 281.11536066 148.52332879 284.78817848 142 287 C139.43895596 287.251849 139.43895596 287.251849 136.65942669 287.25447559 C135.59545278 287.26030779 134.53147888 287.26613998 133.43526334 287.27214891 C132.27243622 287.26836958 131.1096091 287.26459026 129.9115448 287.26069641 C128.67151728 287.26452196 127.43148977 287.26834751 126.15388566 287.27228898 C122.71447566 287.28082541 119.27527932 287.28038412 115.83587539 287.27610838 C112.12547101 287.27364331 108.41509183 287.28265267 104.70469666 287.29014587 C97.43618933 287.30290157 90.16771894 287.30468543 82.89920231 287.30234561 C76.99072798 287.30056305 71.08226487 287.30231076 65.17379189 287.30657005 C63.91270801 287.30746284 63.91270801 287.30746284 62.62614769 287.30837366 C60.91823321 287.3095854 59.21031873 287.31079954 57.50240425 287.31201603 C41.48138956 287.32289519 25.46039591 287.32072746 9.43938003 287.31463119 C-5.2145396 287.30946323 -19.86839273 287.3207136 -34.52229921 287.33972941 C-49.56974755 287.35910613 -64.61716444 287.367364 -79.66462535 287.36360615 C-88.11224759 287.36169366 -96.55981324 287.36418625 -105.00742531 287.37832069 C-112.20003742 287.39023344 -119.39255813 287.39164069 -126.5851715 287.37953053 C-130.25401451 287.37364071 -133.92269033 287.37254508 -137.59152222 287.38453293 C-141.57129565 287.39738545 -145.55081563 287.38692941 -149.53059387 287.3742218 C-150.68672882 287.38159609 -151.84286378 287.38897037 -153.03403312 287.39656812 C-160.06400403 287.34930004 -166.46822995 287.00904128 -172.05859375 282.24609375 C-172.51363281 281.64925781 -172.96867188 281.05242187 -173.4375 280.4375 C-173.91058594 279.83808594 -174.38367188 279.23867188 -174.87109375 278.62109375 C-178.32099569 273.66708231 -177.70722505 267.78710357 -177 262 C-175.33040315 257.57099842 -172.97064892 253.73598434 -170.4375 249.75 C-169.40433094 248.04477907 -168.37117521 246.33954985 -167.33889771 244.63378906 C-166.27497787 242.88674002 -165.19806699 241.14840465 -164.11669922 239.41210938 C-161.47380525 235.16482153 -158.90885367 230.8716607 -156.34155273 226.57836914 C-155.10903698 224.518076 -153.87283937 222.45998117 -152.63305664 220.40405273 C-147.46943269 211.83745204 -142.46137986 203.18642732 -137.47998047 194.51293945 C-133.05774746 186.81760759 -128.57444364 179.16151918 -124.04760742 171.52734375 C-119.5681113 163.97094673 -115.12460433 156.39382224 -110.6875 148.8125 C-105.11581168 139.29292083 -99.51106372 129.79415378 -93.875 120.3125 C-87.97962437 110.39037873 -82.18079449 100.41640728 -76.42871094 90.41064453 C-72.02138749 82.75062819 -67.55470255 75.12836945 -63.04736328 67.52685547 C-59.29479845 61.19688605 -55.56501726 54.85389703 -51.84814453 48.50292969 C-50.41219151 46.04935233 -48.97436679 43.59688909 -47.53466797 41.14550781 C-46.81345649 39.91732949 -46.09226514 38.68913936 -45.37109375 37.4609375 C-45.01265381 36.85052612 -44.65421387 36.24011475 -44.28491211 35.61120605 C-42.05898499 31.81666086 -39.84729564 28.01418673 -37.64509583 24.20582581 C-36.19917537 21.7088545 -34.74541281 19.21650496 -33.29019165 16.72494507 C-32.27467469 14.97990051 -31.26940561 13.228905 -30.2644043 11.4777832 C-29.64605713 10.42163818 -29.02770996 9.36549316 -28.390625 8.27734375 C-27.85469727 7.35171631 -27.31876953 6.42608887 -26.76660156 5.47241211 C-20.06058904 -3.91285445 -9.8704707 -5.11802184 0 0 Z " fill="#FBD102" transform="translate(178,3)"/>
<path d="M0 0 C3.81472767 2.70854592 6.03382975 5.23290732 8.3125 9.3046875 C9.20267822 10.87440308 9.20267822 10.87440308 10.11083984 12.47583008 C10.7342627 13.59755615 11.35768555 14.71928223 12 15.875 C12.6662451 17.05497897 13.33374435 18.23425062 14.00244141 19.4128418 C15.02315768 21.2119404 16.04325982 23.01134528 17.0597229 24.81285095 C20.09405084 30.18883756 23.21915553 35.50723185 26.375 40.8125 C31.38262976 49.25428788 36.35465326 57.71642721 41.3125 66.1875 C46.88418832 75.70707917 52.48893628 85.20584622 58.125 94.6875 C64.02037563 104.60962127 69.81920551 114.58359272 75.57128906 124.58935547 C79.97942936 132.25079152 84.44752426 139.87410946 88.95483398 147.47753906 C93.40913023 154.99269144 97.83422445 162.52468096 102.25 170.0625 C102.60620422 170.67043396 102.96240845 171.27836792 103.32940674 171.90472412 C106.25495681 176.89779259 109.17951256 181.89144321 112.10400391 186.88513184 C114.65220484 191.2361934 117.20082379 195.58700975 119.75 199.9375 C120.28356613 200.84816223 120.28356613 200.84816223 120.82791138 201.77722168 C125.4309473 209.63230701 130.05036321 217.47748532 134.6875 225.3125 C136.24007329 227.94062903 137.79206403 230.5691009 139.34375 233.19775391 C140.52165194 235.19067231 141.7015506 237.18241115 142.8828125 239.17333984 C144.82314272 242.44571449 146.75590426 245.72246379 148.6875 249 C149.58891724 250.51460815 149.58891724 250.51460815 150.50854492 252.05981445 C151.06646729 253.00945068 151.62438965 253.95908691 152.19921875 254.9375 C152.69252686 255.77152344 153.18583496 256.60554688 153.6940918 257.46484375 C156.83238835 263.55721081 157.63692751 268.39298099 156 275 C152.76924342 281.11536066 148.52332879 284.78817848 142 287 C139.43895596 287.251849 139.43895596 287.251849 136.65942669 287.25447559 C135.59545278 287.26030779 134.53147888 287.26613998 133.43526334 287.27214891 C132.27243622 287.26836958 131.1096091 287.26459026 129.9115448 287.26069641 C128.67151728 287.26452196 127.43148977 287.26834751 126.15388566 287.27228898 C122.71447566 287.28082541 119.27527932 287.28038412 115.83587539 287.27610838 C112.12547101 287.27364331 108.41509183 287.28265267 104.70469666 287.29014587 C97.43618933 287.30290157 90.16771894 287.30468543 82.89920231 287.30234561 C76.99072798 287.30056305 71.08226487 287.30231076 65.17379189 287.30657005 C63.91270801 287.30746284 63.91270801 287.30746284 62.62614769 287.30837366 C60.91823321 287.3095854 59.21031873 287.31079954 57.50240425 287.31201603 C41.48138956 287.32289519 25.46039591 287.32072746 9.43938003 287.31463119 C-5.2145396 287.30946323 -19.86839273 287.3207136 -34.52229921 287.33972941 C-49.56974755 287.35910613 -64.61716444 287.367364 -79.66462535 287.36360615 C-88.11224759 287.36169366 -96.55981324 287.36418625 -105.00742531 287.37832069 C-112.20003742 287.39023344 -119.39255813 287.39164069 -126.5851715 287.37953053 C-130.25401451 287.37364071 -133.92269033 287.37254508 -137.59152222 287.38453293 C-141.57129565 287.39738545 -145.55081563 287.38692941 -149.53059387 287.3742218 C-150.68672882 287.38159609 -151.84286378 287.38897037 -153.03403312 287.39656812 C-160.06400403 287.34930004 -166.46822995 287.00904128 -172.05859375 282.24609375 C-172.51363281 281.64925781 -172.96867188 281.05242187 -173.4375 280.4375 C-173.91058594 279.83808594 -174.38367188 279.23867188 -174.87109375 278.62109375 C-178.32099569 273.66708231 -177.70722505 267.78710357 -177 262 C-175.33040315 257.57099842 -172.97064892 253.73598434 -170.4375 249.75 C-169.40433094 248.04477907 -168.37117521 246.33954985 -167.33889771 244.63378906 C-166.27497787 242.88674002 -165.19806699 241.14840465 -164.11669922 239.41210938 C-161.47380525 235.16482153 -158.90885367 230.8716607 -156.34155273 226.57836914 C-155.10903698 224.518076 -153.87283937 222.45998117 -152.63305664 220.40405273 C-147.46943269 211.83745204 -142.46137986 203.18642732 -137.47998047 194.51293945 C-133.05774746 186.81760759 -128.57444364 179.16151918 -124.04760742 171.52734375 C-119.5681113 163.97094673 -115.12460433 156.39382224 -110.6875 148.8125 C-105.11581168 139.29292083 -99.51106372 129.79415378 -93.875 120.3125 C-87.97962437 110.39037873 -82.18079449 100.41640728 -76.42871094 90.41064453 C-72.02138749 82.75062819 -67.55470255 75.12836945 -63.04736328 67.52685547 C-59.29479845 61.19688605 -55.56501726 54.85389703 -51.84814453 48.50292969 C-50.41219151 46.04935233 -48.97436679 43.59688909 -47.53466797 41.14550781 C-46.81345649 39.91732949 -46.09226514 38.68913936 -45.37109375 37.4609375 C-45.01265381 36.85052612 -44.65421387 36.24011475 -44.28491211 35.61120605 C-42.05898499 31.81666086 -39.84729564 28.01418673 -37.64509583 24.20582581 C-36.19917537 21.7088545 -34.74541281 19.21650496 -33.29019165 16.72494507 C-32.27467469 14.97990051 -31.26940561 13.228905 -30.2644043 11.4777832 C-29.64605713 10.42163818 -29.02770996 9.36549316 -28.390625 8.27734375 C-27.85469727 7.35171631 -27.31876953 6.42608887 -26.76660156 5.47241211 C-20.06058904 -3.91285445 -9.8704707 -5.11802184 0 0 Z M-11 32 C-19.37185428 46.1345581 -27.6981257 60.29527568 -36.00172424 74.46998596 C-36.35564743 75.07414841 -36.70957062 75.67831085 -37.07421875 76.30078125 C-37.59549599 77.1906498 -37.59549599 77.1906498 -38.12730408 78.09849548 C-40.74632944 82.56873721 -43.37092052 87.035666 -46 91.5 C-50.51079258 99.16034006 -55.00531371 106.83020385 -59.5 114.5 C-64.36446261 122.80078768 -69.23143223 131.10004631 -74.11328125 139.390625 C-78.25157684 146.42157536 -82.37508866 153.46119305 -86.5 160.5 C-91.36446261 168.80078768 -96.23143223 177.10004631 -101.11328125 185.390625 C-104.87273639 191.77792671 -108.61974249 198.17251957 -112.36709595 204.56692505 C-114.58683776 208.354472 -116.80712001 212.14170219 -119.02738953 215.92893982 C-120.53507803 218.50074428 -122.04256422 221.07266637 -123.54931641 223.64501953 C-124.80275733 225.784741 -126.05724189 227.92384417 -127.3125 230.0625 C-127.68552246 230.69873291 -128.05854492 231.33496582 -128.44287109 231.99047852 C-130.68978565 235.81081511 -132.97042683 239.60925877 -135.26953125 243.3984375 C-135.82664795 244.31874756 -136.38376465 245.23905762 -136.95776367 246.18725586 C-138.0490098 247.98735655 -139.14408026 249.78514577 -140.2434082 251.58032227 C-140.73284912 252.38783936 -141.22229004 253.19535645 -141.7265625 254.02734375 C-142.16564941 254.74656006 -142.60473633 255.46577637 -143.05712891 256.20678711 C-144.1551296 257.95737116 -144.1551296 257.95737116 -144 260 C-55.89 260 32.22 260 123 260 C121.39686346 255.19059039 120.03685468 252.1239362 117.4375 247.9375 C116.62194111 246.60654366 115.80831545 245.27440175 114.99609375 243.94140625 C114.29589111 242.79309326 114.29589111 242.79309326 113.58154297 241.62158203 C110.33378012 236.23805665 107.17404198 230.80219185 104 225.375 C103.26170633 224.11381054 102.52334294 222.85266189 101.78491211 221.59155273 C100.27425037 219.01142139 98.76395565 216.43107571 97.25390625 213.85058594 C94.02343476 208.33076289 90.7883073 202.81367 87.55334473 197.29647827 C85.79063558 194.29017977 84.02809978 191.28377966 82.265625 188.27734375 C81.91578552 187.68059341 81.56594604 187.08384308 81.20550537 186.4690094 C79.0395255 182.77406415 76.87438912 179.07862593 74.70983887 175.38284302 C67.99112662 163.91128466 61.2706835 152.44099962 54.5 141 C44.1806507 123.56161621 33.95024479 106.07076827 23.75 88.5625 C18.28897848 79.19056241 12.78958068 69.84206403 7.2578125 60.51171875 C4.94452725 56.60707955 2.65114321 52.6913956 0.3671875 48.76953125 C-0.22763428 47.75197754 -0.82245605 46.73442383 -1.43530273 45.68603516 C-2.58222665 43.72330427 -3.72513061 41.75821744 -4.86352539 39.79052734 C-5.63297485 38.47689209 -5.63297485 38.47689209 -6.41796875 37.13671875 C-7.09508911 35.97209106 -7.09508911 35.97209106 -7.78588867 34.78393555 C-8.88800345 32.85274552 -8.88800345 32.85274552 -11 32 Z " fill="#E1272D" transform="translate(178,3)"/>
<path d="M0 0 C3.25490183 3.25490183 4.25954613 6.00870882 4.5625 10.5 C4.33460433 15.50526405 2.61901748 17.62773371 -1 21 C-4.31445118 23.20963412 -8.17869025 23.97118584 -12 25 C-10.82255417 27.89009431 -9.82835522 29.14303731 -7.375 31.1875 C-4.69038373 34.36665085 -4.4079303 36.16441583 -4.62109375 40.26953125 C-5.24619741 44.77414422 -6.31798025 49.16648257 -7.44140625 53.5703125 C-8.67325096 61.13366672 -5.93117778 67.22336907 -3.0625 74.0625 C-2.34350635 75.80274759 -1.62601923 77.5436185 -0.91015625 79.28515625 C-0.57113281 80.09919922 -0.23210937 80.91324219 0.1171875 81.75195312 C1 84 1 84 1.99609375 87.47265625 C2.78726735 90.10465306 2.78726735 90.10465306 4.9453125 91.4609375 C5.66460937 91.76257813 6.38390625 92.06421875 7.125 92.375 C8.21167969 92.85066406 8.21167969 92.85066406 9.3203125 93.3359375 C9.87460938 93.55507812 10.42890625 93.77421875 11 94 C11.495 93.401875 11.99 92.80375 12.5 92.1875 C14.94471794 90.0483718 15.89926714 89.6447931 18.875 88.8125 C22.72611315 87.54540547 24.00516229 85.89029734 26.0625 82.4375 C28.10083647 79.05309228 28.65788346 78.15838729 32.375 76.4375 C34.169375 76.2209375 34.169375 76.2209375 36 76 C36.67546875 75.89816406 37.3509375 75.79632813 38.046875 75.69140625 C40.125 75.5 40.125 75.5 44 76 C48.5529091 80.64276915 51.63260513 86.14959118 54.875 91.75 C55.42873291 92.69576904 55.98246582 93.64153809 56.55297852 94.6159668 C59.71769124 100.03307831 62.84805389 105.4698409 65.97265625 110.91015625 C66.30390503 111.48633698 66.63515381 112.0625177 66.97644043 112.65615845 C68.58868225 115.46102763 70.19697945 118.26800184 71.79833984 121.07910156 C74.97876561 126.63206081 78.25663452 132.02606924 81.93579102 137.2644043 C83 139 83 139 83 141 C55.28 141 27.56 141 -1 141 C0.12479924 130.87680685 0.12479924 130.87680685 1.33984375 126.9921875 C1.59830078 126.15042969 1.85675781 125.30867188 2.12304688 124.44140625 C2.39181641 123.59449219 2.66058594 122.74757813 2.9375 121.875 C3.4677812 120.16416577 3.99773532 118.45323012 4.52734375 116.7421875 C4.77871094 115.93539551 5.03007812 115.12860352 5.2890625 114.29736328 C7.99434627 107.14664585 7.99434627 107.14664585 7 100 C3.33708858 96.86425697 -0.56219638 94.93921058 -5.25 93.875 C-8.74441306 93.05963695 -10.50084543 92.49915457 -13 90 C-13.33 89.01 -13.66 88.02 -14 87 C-16.54540823 85.09291637 -16.54540823 85.09291637 -19.5625 83.3125 C-20.57441406 82.68988281 -21.58632812 82.06726563 -22.62890625 81.42578125 C-23.41136719 80.95527344 -24.19382812 80.48476562 -25 80 C-24.52820313 81.21558594 -24.05640625 82.43117188 -23.5703125 83.68359375 C-21.56047044 89.72847124 -21.23977167 95.73757222 -20.875 102.0625 C-20.79717285 103.24884033 -20.7193457 104.43518066 -20.63916016 105.6574707 C-20.41520238 109.10440155 -20.20640642 112.55198074 -20 116 C-19.88657414 117.77351191 -19.7721284 119.54695915 -19.65625 121.3203125 C-19.42539408 124.87953176 -19.20720691 128.43931275 -19 132 C-17.90558594 132.47050781 -16.81117188 132.94101563 -15.68359375 133.42578125 C-15.06798584 133.69044189 -14.45237793 133.95510254 -13.81811523 134.2277832 C-11.55919272 135.18722619 -9.28337611 136.1004882 -7 137 C-7 137.99 -7 138.98 -7 140 C-16.24 140 -25.48 140 -35 140 C-35.639375 135.936875 -36.27875 131.87375 -36.9375 127.6875 C-37.23708618 125.80164185 -37.23708618 125.80164185 -37.54272461 123.87768555 C-39.85575031 109.00557117 -39.85575031 109.00557117 -40 103 C-39.67 102.67 -39.34 102.34 -39 102 C-39 95.84862277 -41.35260897 92.91759539 -45.2109375 88.28125 C-47.89762816 84.8554261 -51 80.46879206 -51 76 C-51.66 76 -52.32 76 -53 76 C-53.13535156 76.52464844 -53.27070313 77.04929687 -53.41015625 77.58984375 C-54.19714169 80.42204883 -55.0831689 83.20678698 -56 86 C-56.2151123 86.6590332 -56.43022461 87.31806641 -56.65185547 87.99707031 C-60.36605461 99.02619932 -64.21131695 105.29077107 -74 112 C-76.93721702 114.13609456 -79.81560519 116.33971251 -82.6875 118.5625 C-83.40736084 119.08102539 -84.12722168 119.59955078 -84.86889648 120.13378906 C-88.62098617 122.94921301 -88.62098617 122.94921301 -90.50439453 127.08203125 C-90.6012944 131.55370512 -89.5428583 134.39761741 -87 138 C-87 138.66 -87 139.32 -87 140 C-90.12645202 140.50023232 -92.88573422 140.63921711 -96 140 C-98.7343302 137.7864946 -100.27460012 135.03367012 -102 132 C-102.57234375 131.05125 -103.1446875 130.1025 -103.734375 129.125 C-106.87717632 123.70438854 -106.87717632 123.70438854 -108 121 C-107.67 120.01 -107.34 119.02 -107 118 C-105.61554688 117.319375 -105.61554688 117.319375 -104.203125 116.625 C-100.65258677 114.82375134 -99.14392049 113.14316279 -96.75 110 C-93.48706262 105.85921653 -90.1836461 101.81910591 -86.6875 97.875 C-85.88699219 96.96492188 -85.08648437 96.05484375 -84.26171875 95.1171875 C-82.04921045 93.04606574 -80.95858855 92.33851128 -78 92 C-76.10573635 83.83772574 -74.23596413 75.66992214 -72.375 67.5 C-72.15690674 66.54464355 -71.93881348 65.58928711 -71.71411133 64.60498047 C-71.50681396 63.69377441 -71.2995166 62.78256836 -71.0859375 61.84375 C-70.9007959 61.03099609 -70.7156543 60.21824219 -70.52490234 59.38085938 C-69.98379122 56.92647997 -69.48498566 54.4660288 -69 52 C-70.258125 52.0825 -71.51625 52.165 -72.8125 52.25 C-76.69386662 52.24310592 -76.69386662 52.24310592 -79.125 50.3125 C-80 48 -80 48 -79.3125 45.375 C-78 43 -78 43 -76 41 C-75.32452973 37.34058415 -74.79440635 33.69332889 -74.3203125 30.00390625 C-73.52446573 24.55054713 -72.24040869 19.55209913 -69 15 C-66.4656891 13.14935573 -63.9469238 12.0572153 -61 11 C-60.24589844 10.70222656 -59.49179688 10.40445313 -58.71484375 10.09765625 C-51.08568324 7.40574108 -41.75772163 6.15148156 -34.0625 9.25 C-30.93989772 11.03434416 -27.99129758 13.00580161 -25 15 C-22.77397385 15.76939681 -22.77397385 15.76939681 -21 16 C-21.0825 14.80375 -21.165 13.6075 -21.25 12.375 C-21.25 7.88605784 -19.90913267 5.47479736 -17 2 C-11.73080413 -2.77520876 -6.399678 -2.53638614 0 0 Z " fill="#020200" transform="translate(194,110)"/>
<path d="M0 0 C0.03867188 1.32451172 0.03867188 1.32451172 0.078125 2.67578125 C0.54816369 12.62137267 1.94927834 20.94389631 8 29 C8 29.66 8 30.32 8 31 C3.87629797 29.47870918 0.16740127 27.5312727 -3.625 25.3125 C-5.31496094 24.34763672 -5.31496094 24.34763672 -7.0390625 23.36328125 C-10.78230715 20.37559917 -11.64149947 18.55046606 -13 14 C-12.83285063 10.41271734 -10.97714691 8.48518834 -8.625 5.875 C-8.01914063 5.19179687 -7.41328125 4.50859375 -6.7890625 3.8046875 C-3.01731602 0 -3.01731602 0 0 0 Z " fill="#EDC601" transform="translate(174,159)"/>
<path d="M0 0 C0.90492188 0.02320313 1.80984375 0.04640625 2.7421875 0.0703125 C4.10730469 0.09738281 4.10730469 0.09738281 5.5 0.125 C6.19867188 0.14820313 6.89734375 0.17140625 7.6171875 0.1953125 C7.01754393 3.11792487 6.15048633 5.19608247 4.47265625 7.65625 C4.04275391 8.29304687 3.61285156 8.92984375 3.16992188 9.5859375 C2.71939453 10.24078125 2.26886719 10.895625 1.8046875 11.5703125 C1.36576172 12.21742188 0.92683594 12.86453125 0.47460938 13.53125 C-0.39187233 14.80844146 -1.26047752 16.08419524 -2.13134766 17.35839844 C-3.90202965 19.95742523 -5.64304091 22.57551658 -7.3828125 25.1953125 C-8.3728125 24.8653125 -9.3628125 24.5353125 -10.3828125 24.1953125 C-9.43549408 20.5673414 -8.47310805 16.94353812 -7.5078125 13.3203125 C-7.10369141 11.77150391 -7.10369141 11.77150391 -6.69140625 10.19140625 C-6.29501953 8.71220703 -6.29501953 8.71220703 -5.890625 7.203125 C-5.52928467 5.83631592 -5.52928467 5.83631592 -5.16064453 4.44189453 C-4.09799245 1.37267781 -3.30550586 0.2709431 0 0 Z " fill="#EDC601" transform="translate(136.3828125,131.8046875)"/>
</svg>
