<?xml version="1.0" encoding="UTF-8" standalone="no"?>
<!-- Created with Inkscape (http://www.inkscape.org/) -->

<svg
   width="359.59207"
   height="317.78671"
   viewBox="0 0 95.142067 84.081067"
   version="1.1"
   id="svg292"
   xml:space="preserve"
   inkscape:version="1.4 (86a8ad7, 2024-10-11)"
   sodipodi:docname="two way traffic on crossroad.svg"
   xmlns:inkscape="http://www.inkscape.org/namespaces/inkscape"
   xmlns:sodipodi="http://sodipodi.sourceforge.net/DTD/sodipodi-0.dtd"
   xmlns="http://www.w3.org/2000/svg"
   xmlns:svg="http://www.w3.org/2000/svg"><sodipodi:namedview
     id="namedview294"
     pagecolor="#505050"
     bordercolor="#eeeeee"
     borderopacity="1"
     inkscape:showpageshadow="0"
     inkscape:pageopacity="0"
     inkscape:pagecheckerboard="0"
     inkscape:deskcolor="#505050"
     inkscape:document-units="mm"
     showgrid="false"
     inkscape:zoom="1.1893044"
     inkscape:cx="118.97711"
     inkscape:cy="152.61021"
     inkscape:window-width="1920"
     inkscape:window-height="1009"
     inkscape:window-x="-8"
     inkscape:window-y="-8"
     inkscape:window-maximized="1"
     inkscape:current-layer="layer1"
     showguides="true"><sodipodi:guide
       position="308.63595,39.942764"
       orientation="1,0"
       id="guide2243"
       inkscape:locked="false" /></sodipodi:namedview><defs
     id="defs289"><clipPath
       id="clipPath2832"><path
         d="M -0.24,595.138 H 317.24 V -0.138 H -0.24 Z"
         id="path2834"
         inkscape:connector-curvature="0" /></clipPath><clipPath
       id="clipPath2840"><path
         d="M 0.03,595.32 H 317.49 V 0 H 0.03 Z"
         id="path2842"
         inkscape:connector-curvature="0" /></clipPath><clipPath
       id="clipPath2858"><path
         d="M -0.24,595.138 H 317.24 V -0.138 H -0.24 Z"
         id="path2860"
         inkscape:connector-curvature="0" /></clipPath><clipPath
       id="clipPath2864"><path
         d="M 0.03,595.32 H 317.49 V 0 H 0.03 Z"
         id="path2866"
         inkscape:connector-curvature="0" /></clipPath><clipPath
       id="clipPath3306"><path
         d="m 199.238,472.977 v -29.74 h 29.744 v 29.74"
         id="path3308"
         inkscape:connector-curvature="0" /></clipPath><clipPath
       id="clipPath3322"><path
         d="M -0.24,595.138 H 317.24 V -0.138 H -0.24 Z"
         id="path3324"
         inkscape:connector-curvature="0" /></clipPath><clipPath
       id="clipPath3330"><path
         d="M 0.03,595.32 H 317.49 V 0 H 0.03 Z"
         id="path3332"
         inkscape:connector-curvature="0" /></clipPath><clipPath
       id="clipPath3344"><path
         d="m 88.233,387.221 v -28.335 h 32.08 v 28.335"
         id="path3346"
         inkscape:connector-curvature="0" /></clipPath><clipPath
       id="clipPath3462"><path
         d="M -0.24,595.138 H 317.24 V -0.138 H -0.24 Z"
         id="path3464"
         inkscape:connector-curvature="0" /></clipPath><clipPath
       id="clipPath3470"><path
         d="M 0.03,595.32 H 317.49 V 0 H 0.03 Z"
         id="path3472"
         inkscape:connector-curvature="0" /></clipPath><clipPath
       id="clipPath3490"><path
         d="M -0.24,595.138 H 317.24 V -0.138 H -0.24 Z"
         id="path3492"
         inkscape:connector-curvature="0" /></clipPath><clipPath
       id="clipPath3496"><path
         d="M 0.03,595.32 H 317.49 V 0 H 0.03 Z"
         id="path3498"
         inkscape:connector-curvature="0" /></clipPath><clipPath
       id="clipPath3520"><path
         d="m 254.788,326.215 v -28.309 h 28.326 v 28.309"
         id="path3522"
         inkscape:connector-curvature="0" /></clipPath><clipPath
       id="clipPath3544"><path
         d="m 145.049,326.142 v -28.333 h 28.342 v 28.333"
         id="path3546"
         inkscape:connector-curvature="0" /></clipPath><clipPath
       id="clipPath3682"><path
         d="M -0.24,595.138 H 317.24 V -0.138 H -0.24 Z"
         id="path3684"
         inkscape:connector-curvature="0" /></clipPath><clipPath
       id="clipPath3690"><path
         d="M 0.03,595.32 H 317.49 V 0 H 0.03 Z"
         id="path3692"
         inkscape:connector-curvature="0" /></clipPath><clipPath
       id="clipPath3980"><path
         d="M -0.24,595.138 H 317.24 V -0.138 H -0.24 Z"
         id="path3982"
         inkscape:connector-curvature="0" /></clipPath><clipPath
       id="clipPath3988"><path
         d="M 0.03,595.32 H 317.49 V 0 H 0.03 Z"
         id="path3990"
         inkscape:connector-curvature="0" /></clipPath><clipPath
       id="clipPath4010"><path
         d="M -0.24,595.138 H 317.24 V -0.138 H -0.24 Z"
         id="path4012"
         inkscape:connector-curvature="0" /></clipPath><clipPath
       id="clipPath4016"><path
         d="M 0.03,595.32 H 317.49 V 0 H 0.03 Z"
         id="path4018"
         inkscape:connector-curvature="0" /></clipPath><clipPath
       id="clipPath4062"><path
         d="m 200.163,177.773 v -28.284 h 28.283 v 28.284"
         id="path4064"
         inkscape:connector-curvature="0" /></clipPath><clipPath
       id="clipPath4090"><path
         d="m 34.886,177.515 v -51.632 h 30.367 v 51.632"
         id="path4092"
         inkscape:connector-curvature="0" /></clipPath><clipPath
       id="clipPath4106"><path
         d="m 34.886,177.515 v -51.632 h 30.367 v 51.632"
         id="path4108"
         inkscape:connector-curvature="0" /></clipPath><clipPath
       id="clipPath4272"><path
         d="m 34.886,177.515 v -51.632 h 30.367 v 51.632"
         id="path4274"
         inkscape:connector-curvature="0" /></clipPath><clipPath
       id="clipPath4304"><path
         d="m 254.653,176.442 v -48.167 h 28.317 v 48.167"
         id="path4306"
         inkscape:connector-curvature="0" /></clipPath><clipPath
       id="clipPath4310"><path
         d="m 253.565,177.983 h 31.181 V 128.8 h -31.181 z"
         id="path4312"
         inkscape:connector-curvature="0" /></clipPath><clipPath
       id="clipPath4316"><path
         d="M -0.24,595.138 H 317.24 V -0.138 H -0.24 Z"
         id="path4318"
         inkscape:connector-curvature="0" /></clipPath><clipPath
       id="clipPath4322"><path
         d="M 0.03,595.32 H 317.49 V 0 H 0.03 Z"
         id="path4324"
         inkscape:connector-curvature="0" /></clipPath><clipPath
       id="clipPath4456"><path
         d="M -0.24,595.138 H 317.24 V -0.138 H -0.24 Z"
         id="path4458"
         inkscape:connector-curvature="0" /></clipPath><clipPath
       id="clipPath4464"><path
         d="M 0.03,595.32 H 317.49 V 0 H 0.03 Z"
         id="path4466"
         inkscape:connector-curvature="0" /></clipPath></defs><g
     inkscape:label="Layer 1"
     inkscape:groupmode="layer"
     id="layer1"
     transform="translate(-0.1079166,-6.6255169)"><path
       inkscape:connector-curvature="0"
       id="path814"
       d="M 88.960492,84.416633 47.678877,12.914838 6.3974062,84.416579 Z"
       inkscape:transform-center-y="-6.06719"
       inkscape:transform-center-x="0.31439696"
       style="fill:none;fill-opacity:1;stroke:#ed1c24;stroke-width:12.5799;stroke-linecap:butt;stroke-linejoin:round;stroke-miterlimit:4;stroke-dasharray:none;stroke-dashoffset:0;stroke-opacity:1"
       sodipodi:nodetypes="cccc" /><path
       sodipodi:nodetypes="cccc"
       inkscape:connector-curvature="0"
       id="path818"
       d="M 85.390157,81.854081 47.678956,16.536355 9.9677452,81.854038 Z"
       style="fill:#ffffff;fill-opacity:1;stroke:none;stroke-width:12.6128;stroke-linecap:butt;stroke-linejoin:round;stroke-miterlimit:4;stroke-dasharray:none;stroke-dashoffset:0;stroke-opacity:1" /><g
       id="g3"
       transform="matrix(0.95213331,0,0,0.9332829,2.2483795,4.8475055)"><g
         id="g2"
         transform="matrix(-0.0172291,0.94639055,-0.93609179,-0.00584829,128.27026,117.25632)"><g
           id="svg_11-5"
           transform="matrix(0.04940224,0.05175632,-0.04886283,0.0522617,-64.289452,29.307952)"><path
             id="svg_12-5"
             d="m 539.99922,216.49956 c 10.67,72 21.33032,144.00084 32.00032,216.00084 1.05,0.15 2.05087,-0.0197 3.00087,-0.49969 16.03,-16.36 32.36023,-32.36084 49.00023,-48.00084 0.0111,-0.007 0.022,-0.009 0.0331,-0.0166 0.0166,-0.0173 0.0227,-0.0338 0.04,-0.0511 l 1.86789,-1.86929 7.39698,-7.40254 8.24878,-8.25498 c 2.43271,-2.60688 4.89185,-5.18908 7.36095,-7.7616 4.25661,-4.41616 8.56514,-8.78284 12.88181,-13.14017 0.8997,-0.91574 1.80702,-1.8244 2.72106,-2.72587 2.22149,-2.19093 4.49565,-4.32729 6.79935,-6.43143 0.29748,-0.30385 0.58721,-0.61528 0.88492,-0.91874 1.29608,-1.31951 2.59927,-2.62947 3.90418,-3.94027 1.53368,-1.55288 3.17015,-2.99851 4.80168,-4.44884 0.42198,-0.42047 0.8423,-0.84263 1.26459,-1.26277 1.95719,-1.94583 3.91478,-3.89122 5.89221,-5.81651 2.08619,-2.02365 4.1889,-4.03217 6.29126,-6.03901 1.423,-1.3714 2.84066,-2.74824 4.26596,-4.11718 0.11428,-0.21538 0.27754,-0.43802 0.4997,-0.66034 l 1.64837,-1.64962 3.63775,-3.64047 4.63727,-4.64075 2.19231,-2.19396 c 12.5981,-13.90722 25.6601,-27.42137 39.22922,-40.51869 0.48,-0.95 0.6502,-1.94849 0.5002,-2.99849 -70.28,-12.61 -140.62103,-24.94109 -211.00103,-37.00109 z" /></g><rect
           style="fill:#000000;stroke-width:0.180337"
           id="rect1-1"
           width="8.2313528"
           height="30.033312"
           x="-52.833488"
           y="77.739212"
           transform="rotate(-0.31743598)" /></g></g><g
       id="g1"
       transform="matrix(-0.00940237,0.95996382,-0.95208689,-0.00948015,104.40728,18.625713)"><g
         id="svg_11-5-1"
         transform="matrix(-0.04645708,-0.04873593,0.0465363,-0.04865201,53.139463,115.66783)"><path
           id="svg_12-5-1"
           d="m 539.99922,216.49956 c 10.67,72 21.33032,144.00084 32.00032,216.00084 1.05,0.15 2.05087,-0.0197 3.00087,-0.49969 16.03,-16.36 32.36023,-32.36084 49.00023,-48.00084 0.0111,-0.007 0.022,-0.009 0.0331,-0.0166 0.0166,-0.0173 0.0227,-0.0338 0.04,-0.0511 l 1.86789,-1.86929 7.39698,-7.40254 8.24878,-8.25498 c 2.43271,-2.60688 4.89185,-5.18908 7.36095,-7.7616 4.25661,-4.41616 8.56514,-8.78284 12.88181,-13.14017 0.8997,-0.91574 1.80702,-1.8244 2.72106,-2.72587 2.22149,-2.19093 4.49565,-4.32729 6.79935,-6.43143 0.29748,-0.30385 0.58721,-0.61528 0.88492,-0.91874 1.29608,-1.31951 2.59927,-2.62947 3.90418,-3.94027 1.53368,-1.55288 3.17015,-2.99851 4.80168,-4.44884 0.42198,-0.42047 0.8423,-0.84263 1.26459,-1.26277 1.95719,-1.94583 3.91478,-3.89122 5.89221,-5.81651 2.08619,-2.02365 4.1889,-4.03217 6.29126,-6.03901 1.423,-1.3714 2.84066,-2.74824 4.26596,-4.11718 0.11428,-0.21538 0.27754,-0.43802 0.4997,-0.66034 l 1.64837,-1.64962 3.63775,-3.64047 4.63727,-4.64075 2.19231,-2.19396 c 12.5981,-13.90722 25.6601,-27.42137 39.22922,-40.51869 0.48,-0.95 0.6502,-1.94849 0.5002,-2.99849 -70.28,-12.61 -140.62103,-24.94109 -211.00103,-37.00109 z" /></g><rect
         style="fill:#000000;stroke-width:0.169748"
         id="rect1-1-5"
         width="7.7896605"
         height="28.118629"
         x="-42.198116"
         y="-69.963181"
         transform="matrix(-0.99999987,-5.0933766e-4,4.5497819e-4,-0.9999999,0,0)" /></g></g></svg>
