<?xml version="1.0" encoding="UTF-8" standalone="no"?>
<svg
   width="2736.3455"
   height="5368.1338"
   viewBox="0 0 2736.3455 5366.3054"
   version="1.1"
   id="svg4"
   xml:space="preserve"
   sodipodi:docname="Unguarded_Level_Crossing_200_to_100_metres_ahead.svg"
   inkscape:version="1.4 (86a8ad7, 2024-10-11)"
   xmlns:inkscape="http://www.inkscape.org/namespaces/inkscape"
   xmlns:sodipodi="http://sodipodi.sourceforge.net/DTD/sodipodi-0.dtd"
   xmlns="http://www.w3.org/2000/svg"
   xmlns:svg="http://www.w3.org/2000/svg"><sodipodi:namedview
     id="namedview1"
     pagecolor="#ffffff"
     bordercolor="#000000"
     borderopacity="0.25"
     inkscape:showpageshadow="2"
     inkscape:pageopacity="0.0"
     inkscape:pagecheckerboard="0"
     inkscape:deskcolor="#d1d1d1"
     inkscape:zoom="0.15033157"
     inkscape:cx="1366.9783"
     inkscape:cy="2684.0669"
     inkscape:window-width="1920"
     inkscape:window-height="1009"
     inkscape:window-x="-8"
     inkscape:window-y="-8"
     inkscape:window-maximized="1"
     inkscape:current-layer="svg4" /><defs
     id="defs4"><clipPath
       clipPathUnits="userSpaceOnUse"
       id="clipPath2532"><path
         sodipodi:nodetypes="cccc"
         inkscape:connector-curvature="0"
         id="path2534"
         d="M 85.390158,81.854081 47.678955,16.536355 9.9677452,81.854038 Z"
         style="fill:#ffffff;fill-opacity:1;stroke:none;stroke-width:12.6128;stroke-linecap:butt;stroke-linejoin:round;stroke-miterlimit:4;stroke-dasharray:none;stroke-dashoffset:0;stroke-opacity:1" /></clipPath></defs><rect
     x="843.76489"
     y="2432.6335"
     width="1000"
     height="2935"
     style="fill:#ffffff;fill-opacity:1;stroke:none"
     id="rect1" /><path
     style="fill:#000000;fill-opacity:1;fill-rule:nonzero;stroke:none"
     d="m 850.218,2439.0827 h 987.1406 V 5361.2429 H 850.218 Z m 0,0"
     id="path1" /><path
     style="fill:#ffffff;fill-opacity:1;fill-rule:nonzero;stroke:none"
     d="M 859.89379,2448.7585 H 1827.6789 V 5351.5671 H 859.89379 Z m 0,0"
     id="path2" /><path
     style="fill:#e31735;fill-opacity:1;fill-rule:nonzero;stroke:none"
     d="m 859.89379,3852.0905 v 279.3282 l 967.78511,558.6445 v -279.3281 z m 0,0"
     id="path3" /><path
     style="fill:#e31735;fill-opacity:1;fill-rule:nonzero;stroke:none"
     d="m 859.89379,3110.2624 v 279.3281 l 967.78511,558.6446 v -279.3282 z m 0,0"
     id="path4" /><g
     id="g3"
     transform="matrix(28.750527,0,0,26.080531,-3.8653523,80.471922)"><path
       inkscape:connector-curvature="0"
       id="path814"
       d="M 88.960492,84.416633 47.678877,12.914838 6.3974062,84.416579 Z"
       inkscape:transform-center-y="-6.06719"
       inkscape:transform-center-x="0.31439696"
       style="fill:none;fill-opacity:1;stroke:#ed1c24;stroke-width:12.58;stroke-linecap:butt;stroke-linejoin:round;stroke-miterlimit:4;stroke-dasharray:none;stroke-dashoffset:0;stroke-opacity:1"
       sodipodi:nodetypes="cccc" /><g
       id="g2"><path
         inkscape:connector-curvature="0"
         id="path2526"
         d="M 88.960492,84.416633 47.678877,12.914838 6.3974062,84.416579 Z"
         inkscape:transform-center-y="-6.06719"
         inkscape:transform-center-x="0.31439696"
         style="fill:none;fill-opacity:1;stroke:#ed1c24;stroke-width:12.58;stroke-linecap:butt;stroke-linejoin:round;stroke-miterlimit:4;stroke-dasharray:none;stroke-dashoffset:0;stroke-opacity:1"
         sodipodi:nodetypes="cccc"
         clip-path="url(#clipPath2532)" /><path
         sodipodi:nodetypes="cccc"
         inkscape:connector-curvature="0"
         id="path2529"
         d="M 85.390157,81.854081 47.678956,16.536355 9.9677452,81.854038 Z"
         style="display:inline;fill:#ffffff;fill-opacity:1;stroke:none;stroke-width:12.6128;stroke-linecap:butt;stroke-linejoin:round;stroke-miterlimit:4;stroke-dasharray:none;stroke-dashoffset:0;stroke-opacity:1" /><path
         id="path1633"
         style="opacity:1;fill:#000000;fill-opacity:1;stroke-width:0.661458"
         d="m 63.385187,50.704398 c -7.132295,0.0045 -13.698971,0.286481 -26.44438,3.22771 -0.08254,0.01905 -0.164127,0.929063 -0.246497,0.951363 -1.21528,0.329019 -2.492432,0.337358 -3.839042,0.736906 v 12.820406 l 9.75341,1.612305 V 68.598396 C 49.699264,63.147548 56.804886,57.5631 63.385187,56.602746 Z m -3.154846,1.46141 v 1.184874 c -0.665442,0.196954 -0.681041,0.241004 -0.945679,0.343652 v -1.402953 z m -1.752348,0.232544 v 1.515781 l -1.848982,0.778652 v -1.779736 z m -3.684529,0.862479 -0.06925,2.197415 c -1.112917,0.718456 -2.134597,1.33328 -2.934188,2.077846 v -3.191089 z m -5.547465,2.099097 v 3.559699 c -1.740075,0.940893 -2.540077,2.118159 -3.810104,3.059052 V 57.08437 Z m -14.877645,1.195793 8.425842,0.417545 v 6.090068 l -8.425842,-0.52865 z m -0.215491,8.856823 c 0.467294,-2.24e-4 0.846167,0.378649 0.845943,0.845943 -6.1e-5,0.467093 -0.37885,0.845651 -0.845943,0.845427 -0.466891,-6.2e-5 -0.845365,-0.378536 -0.845426,-0.845427 -2.24e-4,-0.467092 0.378334,-0.845881 0.845426,-0.845943 z m 8.534363,0 c 0.467092,6.2e-5 0.84565,0.378851 0.845426,0.845943 -6.1e-5,0.466891 -0.378535,0.845365 -0.845426,0.845427 -0.466891,-6.1e-5 -0.845366,-0.378536 -0.845427,-0.845427 -2.24e-4,-0.467093 0.378334,-0.845882 0.845427,-0.845943 z"
         sodipodi:nodetypes="cssccccccccccccccccccccccccccccccccccccccccc" /><path
         style="opacity:1;fill:#000000;stroke-width:0.661458"
         d="m 32.855267,68.565922 -8.526041,9.555562 h 1.807561 l 7.823642,-9.372873 z"
         id="path1646" /><path
         style="opacity:1;fill:#000000;stroke-width:0.661458"
         d="m 40.072206,69.758931 -6.983264,9.085577 h 1.6129 l 6.755135,-8.856665"
         id="path1650" /><path
         style="opacity:1;fill:#000000;stroke-width:0.661458"
         d="m 31.114531,69.445193 -1.223582,1.223579 11.179067,1.501666 0.583983,-1.195771 z"
         id="path1652" /><path
         style="opacity:1;fill:#000000;stroke-width:0.661458"
         d="m 29.028884,71.419606 -1.167963,1.167961 12.180178,1.779752 0.444937,-1.376527 z"
         id="path1654"
         sodipodi:nodetypes="ccccc" /><path
         style="opacity:1;fill:#000000;stroke-width:0.661458"
         d="m 25.775274,73.755531 -1.028919,1.529474 13.459374,1.946603 0.389319,-1.668518 z"
         id="path1656"
         sodipodi:nodetypes="ccccc" /></g></g></svg>
