<?xml version="1.0" encoding="UTF-8" standalone="no"?>
<!-- Created with Inkscape (http://www.inkscape.org/) -->

<svg
   width="49.942535mm"
   height="93.334686mm"
   viewBox="0 0 49.942535 93.334686"
   version="1.1"
   id="svg1"
   inkscape:version="1.4 (86a8ad7, 2024-10-11)"
   sodipodi:docname="unguarded 200m.svg"
   xmlns:inkscape="http://www.inkscape.org/namespaces/inkscape"
   xmlns:sodipodi="http://sodipodi.sourceforge.net/DTD/sodipodi-0.dtd"
   xmlns="http://www.w3.org/2000/svg"
   xmlns:svg="http://www.w3.org/2000/svg">
  <sodipodi:namedview
     id="namedview1"
     pagecolor="#ffffff"
     bordercolor="#000000"
     borderopacity="0.25"
     inkscape:showpageshadow="2"
     inkscape:pageopacity="0.0"
     inkscape:pagecheckerboard="0"
     inkscape:deskcolor="#d1d1d1"
     inkscape:document-units="mm"
     inkscape:zoom="1.4378367"
     inkscape:cx="109.88731"
     inkscape:cy="122.05837"
     inkscape:window-width="1920"
     inkscape:window-height="1009"
     inkscape:window-x="-8"
     inkscape:window-y="-8"
     inkscape:window-maximized="1"
     inkscape:current-layer="layer1" />
  <defs
     id="defs1">
    <inkscape:path-effect
       effect="fillet_chamfer"
       id="path-effect1"
       is_visible="true"
       lpeversion="1"
       nodesatellites_param="F,0,0,1,0,2.9104166,0,1 @ F,0,0,1,0,2.9104166,0,1 @ F,0,0,1,0,2.9104166,0,1"
       radius="11"
       unit="px"
       method="auto"
       mode="F"
       chamfer_steps="1"
       flexible="false"
       use_knot_distance="true"
       apply_no_radius="true"
       apply_with_radius="true"
       only_selected="false"
       hide_knots="false" />
    <clipPath
       clipPathUnits="userSpaceOnUse"
       id="clipPath1002">
      <path
         d="M 0,0 H 595.275 V 841.89 H 0 Z"
         id="path1002" />
    </clipPath>
    <clipPath
       clipPathUnits="userSpaceOnUse"
       id="clipPath1004">
      <path
         d="M 0,0 H 595.275 V 841.89 H 0 Z"
         transform="translate(-101.73201,-634.22102)"
         id="path1004" />
    </clipPath>
    <clipPath
       clipPathUnits="userSpaceOnUse"
       id="clipPath1006">
      <path
         d="m 130.837,639.801 h 50.41 v 50.409 h -50.41 z"
         transform="translate(-152.22501,-658.04501)"
         id="path1006" />
    </clipPath>
    <clipPath
       clipPathUnits="userSpaceOnUse"
       id="clipPath1008">
      <path
         d="m 130.837,639.801 h 50.41 v 50.409 h -50.41 z"
         transform="translate(-178.956,-680.39302)"
         id="path1008" />
    </clipPath>
    <clipPath
       clipPathUnits="userSpaceOnUse"
       id="clipPath1010">
      <path
         d="m 130.837,639.801 h 50.41 v 50.409 h -50.41 z"
         transform="translate(-183.22,-679.36802)"
         id="path1010" />
    </clipPath>
    <clipPath
       clipPathUnits="userSpaceOnUse"
       id="clipPath1012">
      <path
         d="m 130.837,639.801 h 50.41 v 50.409 h -50.41 z"
         transform="translate(-172.42701,-672.87502)"
         id="path1012" />
    </clipPath>
    <clipPath
       clipPathUnits="userSpaceOnUse"
       id="clipPath1030">
      <path
         d="M 0,0 H 595.275 V 841.89 H 0 Z"
         transform="translate(-182.46,-512.34001)"
         id="path1030" />
    </clipPath>
    <clipPath
       clipPathUnits="userSpaceOnUse"
       id="clipPath1032">
      <path
         d="M 0,0 H 595.275 V 841.89 H 0 Z"
         transform="translate(-182.46,-542.22701)"
         id="path1032" />
    </clipPath>
  </defs>
  <g
     inkscape:label="Layer 1"
     inkscape:groupmode="layer"
     id="layer1"
     transform="translate(-79.90416,-101.86459)">
    <path
       sodipodi:nodetypes="cccc"
       inkscape:connector-curvature="0"
       id="path818"
       d="m 126.39793,141.17502 -20.31206,-35.5461 a 1.6630955,1.6630955 4.4833584e-6 0 0 -2.88794,0 L 82.885874,141.175 a 1.6889809,1.6889809 59.872457 0 0 1.466446,2.52695 l 40.57916,2e-5 a 1.6889795,1.6889795 120.12757 0 0 1.46645,-2.52695 z"
       style="fill:#ffffff;fill-opacity:1;stroke:none;stroke-width:7.79951;stroke-linecap:butt;stroke-linejoin:round;stroke-miterlimit:4;stroke-dasharray:none;stroke-dashoffset:0;stroke-opacity:1"
       inkscape:path-effect="#path-effect1"
       inkscape:original-d="m 127.8419,143.70197 -23.2,-40.6 -23.199997,40.59998 z" />
    <path
       id="path1001"
       d="M 182.46,481.641 H 135.27 V 623.21 h 47.19 z"
       style="fill:#ffffff;fill-opacity:1;fill-rule:nonzero;stroke:#000000;stroke-width:0.852;stroke-linecap:butt;stroke-linejoin:miter;stroke-miterlimit:10;stroke-dasharray:none;stroke-opacity:1"
       transform="matrix(0.35277776,0,0,-0.35277776,48.831503,364.96122)"
       clip-path="url(#clipPath1002)" />
    <path
       id="path1003"
       d="M 0,0 57.133,97.325 114.267,0 Z M 126.883,0.258 95.314,54.032 63.745,107.811 c -2.938,5.005 -10.285,5.005 -13.224,0 L 18.95,54.032 -12.616,0.258 c -2.942,-5.008 0.732,-11.269 6.611,-11.269 h 63.139 63.137 c 5.877,0 9.551,6.261 6.612,11.269"
       style="fill:#e01f26;fill-opacity:1;fill-rule:nonzero;stroke:none"
       transform="matrix(0.35277776,0,0,-0.35277776,84.720292,141.22215)"
       clip-path="url(#clipPath1004)" />
    <path
       id="path1005"
       d="m 0,0 -1.071,0.324 -1.075,-0.615 1.21,-0.367 -0.481,-0.345 -1.281,0.389 -1.353,-0.793 1.459,-0.443 -0.604,-0.439 -1.544,0.469 -1.582,-0.973 1.745,-0.53 -0.634,-0.484 -1.843,0.561 -1.91,-1.224 2.076,-0.634 -0.796,-0.643 -2.211,0.675 -2.068,-1.39 2.463,-0.755 -1.065,-0.893 -2.624,0.805 -2.572,-1.82 2.947,-0.907 -1.686,-1.497 -3.198,0.988 -3.692,-2.811 3.664,-1.137 -2.82,-2.722 2.609,-0.119 2.247,2.297 10.323,-1.805 -0.729,-1.029 2.158,-0.099 0.642,0.956 3.862,-0.151 1.594,2.966 -3.354,0.206 1.101,1.535 3.101,-0.227 1.123,1.969 -2.765,0.245 0.696,0.926 2.595,-0.249 0.91,1.532 -2.322,0.252 0.52,0.672 2.203,-0.25 0.83,1.372 -1.946,0.245 0.408,0.51 1.858,-0.24 0.692,1.107 -1.647,0.229 0.396,0.468 1.545,-0.22 0.584,0.922 -1.37,0.206 0.32,0.367 1.3,-0.2 0.461,0.72 -1.153,0.187 0.319,0.36 -8.083,1.885 z M 1.142,-0.329 1.604,0.012 7.26,-1.314 6.919,-1.676 Z m -1.35,-1.019 0.464,0.35 6.022,-1.384 -0.341,-0.368 z m -1.69,-1.309 0.571,0.448 6.456,-1.448 -0.413,-0.471 z m -1.912,-1.542 0.599,0.493 6.97,-1.519 -0.445,-0.51 z m -2.351,-1.969 0.765,0.652 7.555,-1.588 -0.564,-0.674 z m -2.737,-2.397 1.017,0.904 8.228,-1.659 -0.743,-0.932 z m -3.735,-3.465 1.605,1.511 9.075,-1.731 -1.17,-1.542 z"
       style="fill:#000000;fill-opacity:1;fill-rule:nonzero;stroke:none"
       transform="matrix(0.35277776,0,0,-0.35277776,102.5331,132.81757)"
       clip-path="url(#clipPath1006)" />
    <path
       id="path1007"
       d="M 0,0 0.182,-3.564 2.29,-2.252 V 0.615 Z"
       style="fill:#ffffff;fill-opacity:1;fill-rule:nonzero;stroke:none"
       transform="matrix(0.35277776,0,0,-0.35277776,111.9632,124.93369)"
       clip-path="url(#clipPath1008)" />
    <path
       id="path1009"
       d="m 0,0 -4.082,-2.54 -0.183,3.564 4.144,1.113 z"
       style="fill:none;stroke:#231f20;stroke-width:0.254;stroke-linecap:butt;stroke-linejoin:miter;stroke-miterlimit:4;stroke-dasharray:none;stroke-opacity:1"
       transform="matrix(0.35277776,0,0,-0.35277776,113.46745,125.29529)"
       clip-path="url(#clipPath1010)" />
    <path
       id="path1011"
       d="M 0,0 -0.235,5.035 5.117,6.902 5.319,3.385 Z m -9.561,-6.563 v 7.677 l 6.93,2.81 0.189,-5.242 z m -3.699,-8.562 c -0.712,0 -1.277,0.578 -1.277,1.277 0,0.702 0.565,1.279 1.277,1.279 0.709,0 1.279,-0.577 1.279,-1.279 0,-0.699 -0.57,-1.277 -1.279,-1.277 m -11.939,6.37 c -0.722,0 -1.298,0.345 -1.298,0.772 v 8.438 c 0,0.375 0.446,0.688 1.047,0.756 0.081,0.01 0.165,0.016 0.251,0.016 h 10.945 c 0.148,0 0.285,-0.019 0.417,-0.045 0.513,-0.104 0.881,-0.388 0.881,-0.727 v -8.438 c 0,-0.427 -0.578,-0.772 -1.299,-0.772 z m -0.669,-6.37 c -0.71,0 -1.278,0.578 -1.278,1.277 0,0.702 0.568,1.279 1.278,1.279 0.698,0 1.277,-0.577 1.277,-1.279 0,-0.699 -0.579,-1.277 -1.277,-1.277 m 43.921,26.28 c -0.744,0.254 -1.823,0.384 -3.203,0.384 -1.654,0 -3.701,-0.185 -5.998,-0.501 C 8.84,11.036 8.83,11.036 8.818,11.034 8.756,11.026 8.644,11.011 8.495,10.988 7.691,10.875 6.857,10.744 5.999,10.603 -1.727,9.382 -22.312,6.047 -22.284,6.043 -22.361,5.712 -22.275,4.739 -22.195,4.019 -24.089,3.508 -27.019,2.7 -28.044,2.411 l 0.027,-0.131 c -0.012,-0.011 -0.027,-0.026 -0.033,-0.04 -0.203,-0.457 -0.376,-4.047 -0.376,-7.971 v -3.947 c 0,-3.926 0.376,-8.217 0.832,-8.428 0.184,-0.081 0.872,-0.154 1.877,-0.214 l 1.979,-0.092 c 1.195,-0.041 2.587,-0.061 4.016,-0.061 1.328,0 2.707,0.04 3.947,0.122 l 1.918,0.152 c 1.387,0.152 2.363,0.345 2.455,0.558 l 0.008,0.01 c 0.247,0.231 3.474,3.268 7.834,6.857 C 3.243,-5.178 12.804,1.76 18.096,1.47 v 8.399 l 0.019,-0.003 0.026,1.26 z"
       style="fill:#000000;fill-opacity:1;fill-rule:nonzero;stroke:none"
       transform="matrix(0.35277776,0,0,-0.35277776,109.65992,127.58587)"
       clip-path="url(#clipPath1012)" />
    <path
       id="path1029"
       d="M 0,0 -47.19,47.19 V 59.774 L 0,12.584 Z"
       style="fill:#e01f26;fill-opacity:1;fill-rule:nonzero;stroke:none"
       transform="matrix(0.35277776,0,0,-0.35277776,113.19934,184.21905)"
       clip-path="url(#clipPath1030)" />
    <path
       id="path1031"
       d="M 0,0 -47.19,47.19 V 59.774 L 0,12.584 Z"
       style="fill:#e01f26;fill-opacity:1;fill-rule:nonzero;stroke:none"
       transform="matrix(0.35277776,0,0,-0.35277776,113.19934,173.67559)"
       clip-path="url(#clipPath1032)" />
  </g>
</svg>
