<svg xmlns="http://www.w3.org/2000/svg" xmlns:xlink="http://www.w3.org/1999/xlink" version="1.1" width="1000" height="1000" viewBox="0 0 1000 1000" xml:space="preserve">
<desc>Created with Fabric.js 3.5.0</desc>
<defs>
</defs>
<rect x="0" y="0" width="100%" height="100%" fill="#ffffff"/>
<g transform="matrix(-1.331 0 0 1.331 499.991 499.9921)" id="57498">
<g style="" vector-effect="non-scaling-stroke">
		<g transform="matrix(1 0 0 1 0 11.25)" id="path8023-2">
<path style="stroke: none; stroke-width: 1; stroke-dasharray: none; stroke-linecap: butt; stroke-dashoffset: 0; stroke-linejoin: miter; stroke-miterlimit: 4; is-custom-font: none; font-file-url: none; fill: rgb(227,24,55); fill-rule: nonzero; opacity: 1;" transform=" translate(515.7913, -653.5626)" d="m -849.21113 874.81255 l 294.44858 -509.99997 h 77.94229 l 294.44872 509.99998 l -38.97114 67.5 l -588.89731 -0.00001 z" stroke-linecap="round"/>
</g>
		<g transform="matrix(1.0228 0 0 1.0228 0.0098 7.5087)" id="path7094-5">
<path style="stroke: none; stroke-width: 50; stroke-dasharray: none; stroke-linecap: square; stroke-dashoffset: 0; stroke-linejoin: miter; stroke-miterlimit: 4; is-custom-font: none; font-file-url: none; fill: rgb(255,255,255); fill-rule: nonzero; opacity: 1;" transform=" translate(561.6064, -2.6186)" d="m -299.11433 229.94347 l -524.98424 0 l 262.49213 -454.64968 z" stroke-linecap="round"/>
</g>
		<g transform="matrix(-0.866 -0.5 0.5 -0.866 1.5071 -280.1105)" id="path7596-21">
<path style="stroke: none; stroke-width: 50; stroke-dasharray: none; stroke-linecap: square; stroke-dashoffset: 0; stroke-linejoin: miter; stroke-miterlimit: 4; is-custom-font: none; font-file-url: none; fill: rgb(227,24,55); fill-rule: nonzero; opacity: 1;" transform=" translate(-264.2822, 570.8182)" d="m 298.03217 -593.31824 a 45 45 0 0 1 -22.5 38.97115 a 45 45 0 0 1 -45 0 l 22.5 -38.97115 z" stroke-linecap="round"/>
</g>
		<g transform="matrix(0.866 -0.5 0.5 0.866 315.4414 268.8606)" id="path7596-2-9">
<path style="stroke: none; stroke-width: 50; stroke-dasharray: none; stroke-linecap: square; stroke-dashoffset: 0; stroke-linejoin: miter; stroke-miterlimit: 4; is-custom-font: none; font-file-url: none; fill: rgb(227,24,55); fill-rule: nonzero; opacity: 1;" transform=" translate(629.0947, -688.9241)" d="m -595.34467 666.42413 a 45 45 0 0 1 -22.5 38.97115 a 45 45 0 0 1 -45 0 l 22.5 -38.97115 z" stroke-linecap="round"/>
</g>
		<g transform="matrix(-0.866 -0.5 -0.5 0.866 -315.4415 268.8606)" id="path7596-2-4-2">
<path style="stroke: none; stroke-width: 50; stroke-dasharray: none; stroke-linecap: square; stroke-dashoffset: 0; stroke-linejoin: miter; stroke-miterlimit: 4; is-custom-font: none; font-file-url: none; fill: rgb(227,24,55); fill-rule: nonzero; opacity: 1;" transform=" translate(-264.2821, -1204.7155)" d="m 298.03214 1182.2155 a 45 45 0 0 1 -22.5 38.9711 a 45 45 0 0 1 -45 0 l 22.5 -38.9711 z" stroke-linecap="round"/>
</g>
		<g transform="matrix(1 0 0 1 0 77)" id="path216481">
<path style="stroke: none; stroke-width: 0.6604; stroke-dasharray: none; stroke-linecap: round; stroke-dashoffset: 0; stroke-linejoin: round; stroke-miterlimit: 10; is-custom-font: none; font-file-url: none; fill: rgb(0,0,0); fill-rule: nonzero; opacity: 1;" transform=" translate(-264.3594, -1474.1904)" d="m 418.43145 1595.7288 l -0.1092 -2.0912 l -0.33124 -2.0912 l -0.4953 -2.036 l -0.71448 -1.9812 l -0.88166 -1.9261 l -1.0998 -1.8161 l -1.26568 -1.651 l -1.37592 -1.5959 l -1.59692 -1.3756 l -1.65022 -1.266 l -1.81636 -1.1006 l -1.92608 -0.8803 l -1.98146 -0.7155 l -2.03632 -0.4953 l -2.09144 -0.3302 l -2.09092 -0.1092 l -2.09144 0.1092 l -2.09144 0.3302 l -2.03632 0.4953 l -1.9812 0.7155 l -1.92634 0.8803 l -1.8161 1.1006 l -1.65126 1.266 l -1.59588 1.3756 l -1.37592 1.5959 l -1.26594 1.651 l -1.10058 1.8161 l -0.88062 1.9261 l -0.71552 1.9812 l -0.4953 2.036 l -0.3302 2.0912 l -0.1092 2.0912 l 0.1092 2.0912 l 0.3302 2.0913 l 0.4953 2.0361 l 0.71552 1.9812 l 0.88062 1.8709 l 1.10058 1.8161 l 1.26594 1.7062 l 1.37592 1.5407 l 1.59588 1.4308 l 1.65126 1.2657 l 1.8161 1.0457 l 1.92634 0.9355 l 1.9812 0.7155 l 2.03632 0.4953 l 2.09144 0.3302 l 2.09144 0.1092 l 2.09092 -0.1092 l 2.09144 -0.3302 l 2.03632 -0.4953 l 1.98146 -0.7155 l 1.92608 -0.9355 l 1.81636 -1.0457 l 1.65022 -1.2657 l 1.59692 -1.4308 l 1.37592 -1.5407 l 1.26568 -1.7062 l 1.0998 -1.8161 l 0.88166 -1.8709 l 0.71448 -1.9812 l 0.4953 -2.0361 l 0.33124 -2.0913 z m -55.36622 -153.3739 l -0.3302 -1.3756 l -0.55042 -1.3208 l -0.71552 -1.2108 l -0.93548 -1.0455 l -1.04572 -0.9355 l -1.21082 -0.7706 l -1.26568 -0.5502 l -1.37592 -0.3302 l -1.43104 -0.1638 l -1.43078 0.1092 l -1.37592 0.2754 l -1.3208 0.5501 l -1.21082 0.7155 l -2.09118 1.3208 l -2.20168 1.1006 l -2.25628 0.9355 l -2.36652 0.7704 l -2.42164 0.5504 l -2.47676 0.2751 l -2.4765 0.1092 l -2.47676 -0.055 l -2.42138 -0.3302 l -2.42164 -0.5504 l -2.36652 -0.7153 l -2.31166 -0.9357 l -2.20142 -1.1555 l -2.09144 -1.3208 l -1.9812 -1.4859 l -1.8161 -1.651 l -1.70612 -1.8161 l -1.48616 -1.9812 l -1.37566 -2.036 l -2.4765 1.3759 l -2.58674 1.1554 l -2.64186 0.9906 l -2.75158 0.7707 l -2.75184 0.5501 l -2.80696 0.3302 l -2.86182 0.1092 l -2.80696 -0.1092 l -2.8067 -0.3302 l -2.80696 -0.5501 l -2.69672 -0.7707 l -2.69672 -0.9906 l -2.53162 -1.1554 l -2.47676 -1.3759 l -2.36652 -1.5959 l -2.25654 -1.7061 l -2.09118 -1.9261 l -1.92608 -2.036 l -1.76124 -2.2563 l -2.9718 0.7704 l -2.97206 0.5504 l -2.97206 0.3302 l -3.02692 0.1092 l -3.02692 -0.055 l -3.02692 -0.275 l -2.97206 -0.4953 l -2.91694 -0.7156 l -2.91694 -0.8803 l -2.8067 -1.0457 l -2.75184 -1.2657 l -2.64186 -1.4859 l -2.53162 -1.651 l -2.42164 -1.761 l -2.31114 -1.9812 l -2.14656 -2.146 l -1.9812 -2.2563 l -1.87122 -2.3665 l -1.651 -2.5314 l -1.54102 -2.6419 l -1.32106 -2.6964 l -1.10058 -2.8067 l -0.93574 -2.8616 l -0.77038 -2.9166 l -0.4953 -2.9718 l -0.3302 -3.0266 l -0.1638 -3.0269 l 0.1092 -3.0267 l 0.27508 -2.9718 l 0.4953 -2.9715 l 0.71552 -2.9718 l 0.88062 -2.8616 l 1.10084 -2.8067 l 1.26568 -2.7516 l 1.43104 -2.6416 l 1.651 -2.5313 l 1.8161 -2.4213 l 1.98146 -2.3114 l 2.09144 -2.1463 l 2.3114 -1.981 l 2.36626 -1.8712 l 2.53162 -1.651 l 2.58674 -1.4859 l 2.75184 -1.3208 l 2.80696 -1.1557 l 2.86182 -0.9357 l 2.91694 -0.7153 l 2.9718 -0.5504 l 3.02718 -0.3302 l 3.02692 -0.1092 l 3.02692 0.1092 l 2.97206 0.2753 l 2.9718 0.4953 l 2.97206 0.7153 l 2.86182 0.8806 l 2.8067 1.1009 l 2.75184 1.2656 l 2.6416 1.4859 l 2.53162 1.651 l 2.42164 1.8161 l 2.31166 1.981 l 2.1463 2.0912 l 1.9812 2.2565 l 1.81636 2.4213 l 3.302 -0.2754 l 3.24714 -0.055 l 3.30226 0.1638 l 3.24714 0.4402 l 3.19202 0.6053 l 3.19228 0.8806 l 3.08204 1.0455 l 2.97154 1.3208 l 2.91694 1.4859 l 2.80696 1.7058 l 2.69672 1.8713 l 2.53162 2.0911 l 2.36652 2.2563 l 2.25654 2.3665 l 2.03632 2.5865 l 1.87122 2.6965 l 3.96266 1.2657 l 3.85242 1.541 l 3.79756 1.7058 l 3.68732 1.9261 l 3.57734 2.0912 l 3.46736 2.3114 l 3.302 2.4765 l 3.19202 2.6415 l 3.08204 2.8064 l 2.91694 2.9721 l 2.69672 3.1369 l 2.58674 3.2466 l 2.36652 3.412 l 2.20142 3.5222 l 2.03632 3.632 l 1.81636 3.7421 l 1.59588 3.7973 l 1.43104 3.9072 l 1.21082 4.0173 l 0.9906 4.0172 l 0.77038 4.0724 l 0.55042 4.1275 l 0.3302 4.1273 l 0.1092 4.1823 v 12.9877 h -20.80364 v -14.8035 z m -126.03188 39.6232 h -54.59584 v -20.8021 h -61.0896 v 26.0301 h 23.39012 v 38.9625 h -36.37868 v 45.5115 h 13.0988 l -0.93574 2.4762 l -0.77038 2.5865 l -0.55042 2.6416 l -0.3302 2.6416 l -0.1092 2.6965 l 0.1092 2.6967 l 0.3302 2.6413 l 0.55042 2.6416 l 0.77038 2.5314 l 0.9906 2.5316 l 1.15596 2.4213 l 1.37592 2.2563 l 1.59588 2.2011 l 1.70612 2.0364 l 1.92634 1.926 l 2.03606 1.7059 l 2.20142 1.5961 l 2.31166 1.3206 l 2.36652 1.2108 l 2.53162 0.9906 l 2.58674 0.7153 l 2.58674 0.5504 l 2.69672 0.3302 l 2.6416 0.1638 l 2.69672 -0.1638 l 2.69698 -0.3302 l 2.58674 -0.5504 l 2.58648 -0.7153 l 2.47676 -0.9906 l 2.42164 -1.2108 l 2.3114 -1.3206 l 2.20142 -1.5961 l 2.03632 -1.7059 l 1.92634 -1.926 l 1.70586 -2.0364 l 1.59614 -2.2011 l 1.37592 -2.2563 l 1.1557 -2.4213 l 0.9906 -2.5316 l 0.77064 -2.5314 l 0.55016 -2.6416 l 0.3302 -2.6413 l 0.1092 -2.6967 l -0.1092 -2.6965 l -0.3302 -2.6416 l -0.55016 -2.6416 l -0.77064 -2.5865 l -0.93548 -2.4762 h 10.62178 l -0.9906 2.4762 l -0.77038 2.5865 l -0.55042 2.6416 l -0.3302 2.6416 l -0.1092 2.6965 l 0.1638 2.6967 l 0.3302 2.6413 l 0.55042 2.6416 l 0.77064 2.5314 l 0.93548 2.5316 l 1.21004 2.4213 l 1.37592 2.2563 l 1.5418 2.2011 l 1.76124 2.0364 l 1.87122 1.926 l 2.09118 1.7059 l 2.14656 1.5961 l 2.3114 1.3206 l 2.42164 1.2108 l 2.47676 0.9906 l 2.58674 0.7153 l 2.6416 0.5504 l 2.64186 0.3302 l 2.69646 0.1638 l 2.69672 -0.1638 l 2.6416 -0.3302 l 2.64186 -0.5504 l 2.58674 -0.7153 l 2.4765 -0.9906 l 2.42164 -1.2108 l 2.31166 -1.3206 l 2.1463 -1.5961 l 2.09144 -1.7059 l 1.87122 -1.926 l 1.76124 -2.0364 l 1.54076 -2.2011 l 1.37592 -2.2563 l 1.21082 -2.4213 l 0.93574 -2.5316 l 0.77038 -2.5314 l 0.55042 -2.6416 l 0.3302 -2.6413 l 0.1664 -2.6967 l -0.1092 -2.6965 l -0.3302 -2.6416 l -0.55042 -2.6416 l -0.77064 -2.5865 l -0.9906 -2.4762 h 10.62204 l -0.93548 2.4762 l -0.77064 2.5865 l -0.55042 2.6416 l -0.3302 2.6416 l -0.1092 2.6965 l 0.1092 2.6967 l 0.3302 2.6413 l 0.55042 2.6416 l 0.77064 2.5314 l 0.9906 2.5316 l 1.21082 2.4213 l 1.37566 2.2563 l 1.54102 2.2011 l 1.70612 2.0364 l 1.92608 1.926 l 2.03632 1.7059 l 2.20142 1.5961 l 2.31166 1.3206 l 2.42164 1.2108 l 2.4765 0.9906 l 2.58674 0.7153 l 2.64186 0.5504 l 2.6416 0.3302 l 2.69672 0.1638 l 2.64186 -0.1638 l 2.69672 -0.3302 l 2.58674 -0.5504 l 2.58674 -0.7153 l 2.53162 -0.9906 l 2.36652 -1.2108 l 2.31114 -1.3206 l 2.20168 -1.5961 l 2.03632 -1.7059 l 1.92608 -1.926 l 1.70612 -2.0364 l 1.59614 -2.2011 l 1.37592 -2.2563 l 1.1557 -2.4213 l 0.9906 -2.5316 l 0.77064 -2.5314 l 0.55042 -2.6416 l 0.3302 -2.6413 l 0.1092 -2.6967 l -0.1092 -2.6965 l -0.3302 -2.6416 l -0.55042 -2.6416 l -0.71552 -2.5865 l -0.9906 -2.4762 h 98.89932 v -23.3887 h -12.98856 v -66.3133 h -18.21664 v -5.173 l 0.1092 -1.0457 l 0.27534 -0.9906 l 0.4953 -0.8804 l 0.6604 -0.7704 l 0.77038 -0.6604 l 0.93574 -0.4953 l 0.93548 -0.2753 l 1.04572 -0.1092 v -10.401 h -41.60702 v 10.401 l 0.9906 0.1092 l 0.9906 0.2753 l 0.88062 0.4953 l 0.8255 0.6604 l 0.60528 0.7704 l 0.4953 0.8804 l 0.3302 0.9906 l 0.0546 1.0457 v 5.173 h -81.89324 v -3.9073 l -0.1092 -2.0361 l -0.3302 -2.0363 l -0.49556 -1.9261 l -0.77038 -1.9261 l -0.88062 -1.8161 l -1.1557 -1.7058 l -1.26594 -1.5959 l -1.43078 -1.431 l -1.59614 -1.3208 l -1.70612 -1.1006 h -19.48258 l -1.70612 1.1006 l -1.59614 1.3208 l -1.43078 1.431 l -1.3208 1.5959 l -1.10084 1.7058 l -0.93548 1.8161 l -0.71552 1.9261 l -0.55042 1.9261 l -0.3302 2.0363 l -0.1092 2.0361 z m 134.56248 113.7507 l -0.1092 -2.0912 l -0.27508 -2.0912 l -0.4953 -2.036 l -0.71552 -1.9812 l -0.93574 -1.9261 l -1.04572 -1.8161 l -1.26568 -1.651 l -1.43104 -1.5959 l -1.54102 -1.3756 l -1.70612 -1.266 l -1.8161 -1.1006 l -1.87122 -0.8803 l -1.9812 -0.7155 l -2.03658 -0.4953 l -2.09092 -0.3302 l -2.09144 -0.1092 l -2.1463 0.1092 l -2.03658 0.3302 l -2.09118 0.4953 l -1.98146 0.7155 l -1.87122 0.8803 l -1.8161 1.1006 l -1.70612 1.266 l -1.54102 1.3756 l -1.43104 1.5959 l -1.21082 1.651 l -1.10058 1.8161 l -0.88062 1.9261 l -0.71552 1.9812 l -0.55042 2.036 l -0.27508 2.0912 l -0.1092 2.0912 l 0.1092 2.0912 l 0.27508 2.0913 l 0.55042 2.0361 l 0.71552 1.9812 l 0.88062 1.8709 l 1.10058 1.8161 l 1.21082 1.7062 l 1.43104 1.5407 l 1.54102 1.4308 l 1.70612 1.2657 l 1.8161 1.0457 l 1.87122 0.9355 l 1.98146 0.7155 l 2.09118 0.4953 l 2.03658 0.3302 l 2.1463 0.1092 l 2.09144 -0.1092 l 2.09092 -0.3302 l 2.03658 -0.4953 l 1.9812 -0.7155 l 1.87122 -0.9355 l 1.8161 -1.0457 l 1.70612 -1.2657 l 1.54102 -1.4308 l 1.43104 -1.5407 l 1.26568 -1.7062 l 1.04572 -1.8161 l 0.93574 -1.8709 l 0.71552 -1.9812 l 0.4953 -2.0361 l 0.27508 -2.0913 z" stroke-linecap="round"/>
</g>
</g>
</g>
</svg>