<?xml version="1.0" encoding="UTF-8" standalone="no"?>
<!-- Created with Inkscape (http://www.inkscape.org/) -->

<svg
   width="44.999977mm"
   height="59.999737mm"
   viewBox="0 0 44.999977 59.999737"
   version="1.1"
   id="svg1"
   inkscape:version="1.4 (86a8ad7, 2024-10-11)"
   sodipodi:docname="bus stop.svg"
   xmlns:inkscape="http://www.inkscape.org/namespaces/inkscape"
   xmlns:sodipodi="http://sodipodi.sourceforge.net/DTD/sodipodi-0.dtd"
   xmlns="http://www.w3.org/2000/svg"
   xmlns:svg="http://www.w3.org/2000/svg">
  <sodipodi:namedview
     id="namedview1"
     pagecolor="#ffffff"
     bordercolor="#000000"
     borderopacity="0.25"
     inkscape:showpageshadow="2"
     inkscape:pageopacity="0.0"
     inkscape:pagecheckerboard="0"
     inkscape:deskcolor="#d1d1d1"
     inkscape:document-units="mm"
     inkscape:zoom="1.4378367"
     inkscape:cx="-75.11284"
     inkscape:cy="83.806456"
     inkscape:window-width="1920"
     inkscape:window-height="1009"
     inkscape:window-x="-8"
     inkscape:window-y="-8"
     inkscape:window-maximized="1"
     inkscape:current-layer="g4075" />
  <defs
     id="defs1">
    <inkscape:path-effect
       effect="fillet_chamfer"
       id="path-effect1"
       is_visible="true"
       lpeversion="1"
       nodesatellites_param="F,0,0,1,0,0,0,1 @ F,0,0,1,0,0,0,1 @ F,0,0,1,0,0,0,1 @ F,0,0,1,0,0,0,1"
       radius="0"
       unit="px"
       method="auto"
       mode="F"
       chamfer_steps="1"
       flexible="false"
       use_knot_distance="true"
       apply_no_radius="true"
       apply_with_radius="true"
       only_selected="false"
       hide_knots="false" />
    <clipPath
       clipPathUnits="userSpaceOnUse"
       id="clipPath4010">
      <path
         d="M 0,841.89 H 595.276 V 0 H 0 Z"
         transform="translate(-166.51401,-731.52902)"
         id="path4010" />
    </clipPath>
    <clipPath
       clipPathUnits="userSpaceOnUse"
       id="clipPath4012">
      <path
         d="M 0,841.89 H 595.276 V 0 H 0 Z"
         transform="translate(-59.355001,-725.79102)"
         id="path4012" />
    </clipPath>
    <clipPath
       clipPathUnits="userSpaceOnUse"
       id="clipPath4014">
      <path
         d="M 0,841.89 H 595.276 V 0 H 0 Z"
         id="path4014" />
    </clipPath>
    <clipPath
       clipPathUnits="userSpaceOnUse"
       id="clipPath4016">
      <path
         d="M 0,841.89 H 595.276 V 0 H 0 Z"
         transform="translate(-132.939,-632.53702)"
         id="path4016" />
    </clipPath>
    <clipPath
       clipPathUnits="userSpaceOnUse"
       id="clipPath4018">
      <path
         d="M 0,841.89 H 595.276 V 0 H 0 Z"
         transform="translate(-446.64601,-731.52902)"
         id="path4018" />
    </clipPath>
    <clipPath
       clipPathUnits="userSpaceOnUse"
       id="clipPath4020">
      <path
         d="M 0,841.89 H 595.276 V 0 H 0 Z"
         transform="translate(-339.48701,-725.79102)"
         id="path4020" />
    </clipPath>
    <clipPath
       clipPathUnits="userSpaceOnUse"
       id="clipPath4022">
      <path
         d="M 0,841.89 H 595.276 V 0 H 0 Z"
         id="path4022" />
    </clipPath>
    <clipPath
       clipPathUnits="userSpaceOnUse"
       id="clipPath4024">
      <path
         d="M 0,841.89 H 595.276 V 0 H 0 Z"
         transform="translate(-409.44701,-659.97202)"
         id="path4024" />
    </clipPath>
    <clipPath
       clipPathUnits="userSpaceOnUse"
       id="clipPath4028">
      <path
         d="M 0,841.89 H 595.276 V 0 H 0 Z"
         transform="translate(-166.51401,-483.03801)"
         id="path4028" />
    </clipPath>
    <clipPath
       clipPathUnits="userSpaceOnUse"
       id="clipPath4030">
      <path
         d="M 0,841.89 H 595.276 V 0 H 0 Z"
         transform="translate(-59.355001,-477.29901)"
         id="path4030" />
    </clipPath>
    <clipPath
       clipPathUnits="userSpaceOnUse"
       id="clipPath4032">
      <path
         d="M 0,841.89 H 595.276 V 0 H 0 Z"
         id="path4032" />
    </clipPath>
    <clipPath
       clipPathUnits="userSpaceOnUse"
       id="clipPath4034">
      <path
         d="M 0,841.89 H 595.276 V 0 H 0 Z"
         transform="translate(-126.208,-398.81301)"
         id="path4034" />
    </clipPath>
    <clipPath
       clipPathUnits="userSpaceOnUse"
       id="clipPath4052">
      <path
         d="M 0,841.89 H 595.276 V 0 H 0 Z"
         transform="translate(-446.64601,-484.03801)"
         id="path4052" />
    </clipPath>
    <clipPath
       clipPathUnits="userSpaceOnUse"
       id="clipPath4054">
      <path
         d="M 0,841.89 H 595.276 V 0 H 0 Z"
         transform="translate(-339.48701,-478.29901)"
         id="path4054" />
    </clipPath>
    <clipPath
       clipPathUnits="userSpaceOnUse"
       id="clipPath4056">
      <path
         d="M 0,841.89 H 595.276 V 0 H 0 Z"
         id="path4056" />
    </clipPath>
    <clipPath
       clipPathUnits="userSpaceOnUse"
       id="clipPath4058">
      <path
         d="M 0,841.89 H 595.276 V 0 H 0 Z"
         transform="translate(-390.32301,-383.39001)"
         id="path4058" />
    </clipPath>
    <clipPath
       clipPathUnits="userSpaceOnUse"
       id="clipPath4060">
      <path
         d="M 0,841.89 H 595.276 V 0 H 0 Z"
         transform="translate(-414.75501,-408.07801)"
         id="path4060" />
    </clipPath>
    <clipPath
       clipPathUnits="userSpaceOnUse"
       id="clipPath2032">
      <path
         d="M 0,6.109 H 350.911 V 841.89 H 0 Z"
         transform="translate(-202.28701,-239.73901)"
         id="path2032" />
    </clipPath>
    <clipPath
       clipPathUnits="userSpaceOnUse"
       id="clipPath2034">
      <path
         d="M 0,6.109 H 350.911 V 841.89 H 0 Z"
         transform="translate(-95.127602,-234.001)"
         id="path2034" />
    </clipPath>
    <clipPath
       clipPathUnits="userSpaceOnUse"
       id="clipPath2036">
      <path
         d="M 0,6.109 H 350.911 V 841.89 H 0 Z"
         id="path2036" />
    </clipPath>
    <clipPath
       clipPathUnits="userSpaceOnUse"
       id="clipPath2038">
      <path
         d="M 0,6.109 H 350.911 V 841.89 H 0 Z"
         transform="translate(-130.918,-151.443)"
         id="path2038" />
    </clipPath>
    <clipPath
       clipPathUnits="userSpaceOnUse"
       id="clipPath2040">
      <path
         d="M 0,6.109 H 350.911 V 841.89 H 0 Z"
         transform="translate(-163.501,-151.443)"
         id="path2040" />
    </clipPath>
    <clipPath
       clipPathUnits="userSpaceOnUse"
       id="clipPath2042">
      <path
         d="M 0,6.109 H 350.911 V 841.89 H 0 Z"
         transform="translate(-177.469,-165.54201)"
         id="path2042" />
    </clipPath>
  </defs>
  <g
     inkscape:label="Layer 1"
     inkscape:groupmode="layer"
     id="layer1"
     transform="translate(-82.549999,-118.53333)">
    <g
       id="g4075"
       transform="matrix(0.26458333,0,0,0.26458333,65.313981,79.600425)">
      <path
         style="fill:#ffffff;stroke:#ffffff;stroke-width:0.877059"
         id="rect1"
         width="169.20169"
         height="225.89459"
         x="65.582489"
         y="147.58603"
         inkscape:path-effect="#path-effect1"
         sodipodi:type="rect"
         d="M 65.582489,147.58603 H 234.78418 V 373.48062 H 65.582489 Z" />
      <path
         id="path4031"
         d="M 147.079,363.558 H 78.197 v 68.882 h 68.882 z"
         style="fill:#ffffff;fill-opacity:1;fill-rule:nonzero;stroke:none"
         transform="matrix(1.3333333,0,0,-1.3333333,-6.6248848e-4,791.19864)"
         clip-path="url(#clipPath4032)" />
      <path
         id="path2031"
         d="m 0,0 h -107.832 c -5.418,0 -9.824,-4.347 -9.824,-9.691 v -150.697 c 0,-5.341 4.406,-9.691 9.824,-9.691 H 0 c 5.459,0 9.903,4.35 9.903,9.691 V -9.691 C 9.903,-4.347 5.459,0 0,0 m 0,-0.573 c 5.145,0 9.33,-4.09 9.33,-9.118 v -150.697 c 0,-5.027 -4.185,-9.118 -9.33,-9.118 h -107.832 c -5.102,0 -9.251,4.091 -9.251,9.118 V -9.691 c 0,5.028 4.149,9.118 9.251,9.118 L 0,-0.573"
         style="fill:#4467a5;fill-opacity:1;fill-rule:nonzero;stroke:none"
         transform="matrix(1.3333333,0,0,-1.3333333,222.01867,147.14732)"
         clip-path="url(#clipPath2032)" />
      <path
         id="path2033"
         d="m 0,0 c -2.552,0 -4.628,-2.08 -4.628,-4.636 v -149.335 c 0,-2.554 2.076,-4.633 4.628,-4.633 h 106.485 c 2.594,0 4.704,2.079 4.704,4.633 V -4.636 c 0,2.556 -2.11,4.636 -4.704,4.636 z"
         style="fill:#4467a5;fill-opacity:1;fill-rule:nonzero;stroke:none"
         transform="matrix(1.3333333,0,0,-1.3333333,79.139465,154.79799)"
         clip-path="url(#clipPath2034)" />
      <path
         id="path2035"
         d="m 182.859,120.252 h -68.895 v 68.896 h 68.895 z"
         style="fill:#ffffff;fill-opacity:1;fill-rule:nonzero;stroke:none"
         transform="matrix(1.3333333,0,0,-1.3333333,-47.697335,466.79932)"
         clip-path="url(#clipPath2036)" />
      <path
         id="path2037"
         d="m 0,0 c -2.096,0 -3.797,-1.696 -3.797,-3.792 0,-2.095 1.701,-3.794 3.797,-3.794 2.095,0 3.796,1.699 3.796,3.794 C 3.796,-1.696 2.095,0 0,0 m 0,-5.357 c -0.865,0 -1.565,0.701 -1.565,1.565 0,0.862 0.7,1.564 1.565,1.564 0.864,0 1.566,-0.702 1.566,-1.564 0,-0.864 -0.702,-1.565 -1.566,-1.565"
         style="fill:#000000;fill-opacity:1;fill-rule:nonzero;stroke:none"
         transform="matrix(1.3333333,0,0,-1.3333333,126.86,264.87532)"
         clip-path="url(#clipPath2038)" />
      <path
         id="path2039"
         d="m 0,0 c -2.098,0 -3.797,-1.696 -3.797,-3.792 0,-2.095 1.699,-3.794 3.797,-3.794 2.097,0 3.796,1.699 3.796,3.794 C 3.796,-1.696 2.097,0 0,0 m 0,-5.357 c -0.867,0 -1.567,0.701 -1.567,1.565 0,0.862 0.7,1.564 1.567,1.564 0.864,0 1.564,-0.702 1.564,-1.564 0,-0.864 -0.7,-1.565 -1.564,-1.565"
         style="fill:#000000;fill-opacity:1;fill-rule:nonzero;stroke:none"
         transform="matrix(1.3333333,0,0,-1.3333333,170.304,264.87532)"
         clip-path="url(#clipPath2040)" />
      <path
         id="path2041"
         d="m 0,0 h -58.438 c -1.046,0 -1.378,-0.262 -1.511,-1.452 -0.087,-0.813 -0.349,-8.321 -0.349,-8.321 -0.406,0 -0.81,-0.325 -0.81,-0.813 0,-0.81 0.018,-5.373 0.018,-6.755 0,-1.129 1.222,-1.595 2.468,-1.595 h 7.496 c -0.076,0.338 -0.125,0.686 -0.125,1.045 0,2.592 2.105,4.693 4.699,4.693 2.595,0 4.702,-2.101 4.702,-4.693 0,-0.359 -0.05,-0.707 -0.129,-1.045 h 23.435 c -0.077,0.338 -0.124,0.686 -0.124,1.045 0,2.592 2.105,4.693 4.699,4.693 2.595,0 4.7,-2.101 4.7,-4.693 0,-0.323 -0.036,-0.638 -0.096,-0.941 l 13.446,2.545 V -4.071 C 4.081,-1.566 2.255,0 0,0 m -52.959,-15.939 c 0,-0.521 -0.419,-0.94 -0.94,-0.94 h -2.65 c -0.521,0 -0.94,0.419 -0.94,0.94 v 12.482 c 0,0.516 0.419,0.936 0.94,0.936 h 2.65 c 0.521,0 0.94,-0.42 0.94,-0.936 z m 14.257,9.387 c 0,-0.516 -0.422,-0.936 -0.944,-0.936 h -9.465 c -0.52,0 -0.944,0.42 -0.944,0.936 v 3.095 c 0,0.516 0.424,0.936 0.944,0.936 h 9.465 c 0.522,0 0.944,-0.42 0.944,-0.936 z m 13.451,0 c 0,-0.516 -0.422,-0.936 -0.941,-0.936 h -9.468 c -0.52,0 -0.941,0.42 -0.941,0.936 v 3.095 c 0,0.516 0.421,0.936 0.941,0.936 h 9.468 c 0.519,0 0.941,-0.42 0.941,-0.936 z m 13.451,0 c 0,-0.516 -0.419,-0.936 -0.938,-0.936 h -9.468 c -0.52,0 -0.941,0.42 -0.941,0.936 v 3.095 c 0,0.516 0.421,0.936 0.941,0.936 h 9.468 c 0.519,0 0.938,-0.42 0.938,-0.936 z M 2.19,-6.681 C 2.19,-7.198 1.767,-7.62 1.25,-7.62 h -9.469 c -0.519,0 -0.94,0.422 -0.94,0.939 v 3.091 c 0,0.52 0.421,0.943 0.94,0.943 h 7.187 c 2.145,0 3.222,-0.844 3.222,-2.756 z"
         style="fill:#000000;fill-opacity:1;fill-rule:nonzero;stroke:none"
         transform="matrix(1.3333333,0,0,-1.3333333,188.928,246.07665)"
         clip-path="url(#clipPath2042)" />
    </g>
  </g>
</svg>
