<?xml version="1.0" encoding="UTF-8" standalone="no"?>
<!-- Created with Inkscape (http://www.inkscape.org/) -->

<svg
   width="60.000088mm"
   height="45.000332mm"
   viewBox="0 0 60.000088 45.000332"
   version="1.1"
   id="svg1"
   inkscape:version="1.4 (86a8ad7, 2024-10-11)"
   sodipodi:docname="bus lane.svg"
   xmlns:inkscape="http://www.inkscape.org/namespaces/inkscape"
   xmlns:sodipodi="http://sodipodi.sourceforge.net/DTD/sodipodi-0.dtd"
   xmlns="http://www.w3.org/2000/svg"
   xmlns:svg="http://www.w3.org/2000/svg">
  <sodipodi:namedview
     id="namedview1"
     pagecolor="#ffffff"
     bordercolor="#000000"
     borderopacity="0.25"
     inkscape:showpageshadow="2"
     inkscape:pageopacity="0.0"
     inkscape:pagecheckerboard="0"
     inkscape:deskcolor="#d1d1d1"
     inkscape:document-units="mm"
     inkscape:zoom="0.71891836"
     inkscape:cx="342.18072"
     inkscape:cy="54.943651"
     inkscape:window-width="1920"
     inkscape:window-height="1009"
     inkscape:window-x="-8"
     inkscape:window-y="-8"
     inkscape:window-maximized="1"
     inkscape:current-layer="g4075" />
  <defs
     id="defs1">
    <inkscape:path-effect
       effect="fillet_chamfer"
       id="path-effect1"
       is_visible="true"
       lpeversion="1"
       nodesatellites_param="F,0,0,1,0,0,0,1 @ F,0,0,1,0,0,0,1 @ F,0,0,1,0,0,0,1 @ F,0,0,1,0,0,0,1"
       radius="0"
       unit="px"
       method="auto"
       mode="F"
       chamfer_steps="1"
       flexible="false"
       use_knot_distance="true"
       apply_no_radius="true"
       apply_with_radius="true"
       only_selected="false"
       hide_knots="false" />
    <clipPath
       clipPathUnits="userSpaceOnUse"
       id="clipPath4010">
      <path
         d="M 0,841.89 H 595.276 V 0 H 0 Z"
         transform="translate(-166.51401,-731.52902)"
         id="path4010" />
    </clipPath>
    <clipPath
       clipPathUnits="userSpaceOnUse"
       id="clipPath4012">
      <path
         d="M 0,841.89 H 595.276 V 0 H 0 Z"
         transform="translate(-59.355001,-725.79102)"
         id="path4012" />
    </clipPath>
    <clipPath
       clipPathUnits="userSpaceOnUse"
       id="clipPath4014">
      <path
         d="M 0,841.89 H 595.276 V 0 H 0 Z"
         id="path4014" />
    </clipPath>
    <clipPath
       clipPathUnits="userSpaceOnUse"
       id="clipPath4016">
      <path
         d="M 0,841.89 H 595.276 V 0 H 0 Z"
         transform="translate(-132.939,-632.53702)"
         id="path4016" />
    </clipPath>
    <clipPath
       clipPathUnits="userSpaceOnUse"
       id="clipPath4018">
      <path
         d="M 0,841.89 H 595.276 V 0 H 0 Z"
         transform="translate(-446.64601,-731.52902)"
         id="path4018" />
    </clipPath>
    <clipPath
       clipPathUnits="userSpaceOnUse"
       id="clipPath4020">
      <path
         d="M 0,841.89 H 595.276 V 0 H 0 Z"
         transform="translate(-339.48701,-725.79102)"
         id="path4020" />
    </clipPath>
    <clipPath
       clipPathUnits="userSpaceOnUse"
       id="clipPath4022">
      <path
         d="M 0,841.89 H 595.276 V 0 H 0 Z"
         id="path4022" />
    </clipPath>
    <clipPath
       clipPathUnits="userSpaceOnUse"
       id="clipPath4024">
      <path
         d="M 0,841.89 H 595.276 V 0 H 0 Z"
         transform="translate(-409.44701,-659.97202)"
         id="path4024" />
    </clipPath>
    <clipPath
       clipPathUnits="userSpaceOnUse"
       id="clipPath4028">
      <path
         d="M 0,841.89 H 595.276 V 0 H 0 Z"
         transform="translate(-166.51401,-483.03801)"
         id="path4028" />
    </clipPath>
    <clipPath
       clipPathUnits="userSpaceOnUse"
       id="clipPath4030">
      <path
         d="M 0,841.89 H 595.276 V 0 H 0 Z"
         transform="translate(-59.355001,-477.29901)"
         id="path4030" />
    </clipPath>
    <clipPath
       clipPathUnits="userSpaceOnUse"
       id="clipPath4032">
      <path
         d="M 0,841.89 H 595.276 V 0 H 0 Z"
         id="path4032" />
    </clipPath>
    <clipPath
       clipPathUnits="userSpaceOnUse"
       id="clipPath4034">
      <path
         d="M 0,841.89 H 595.276 V 0 H 0 Z"
         transform="translate(-126.208,-398.81301)"
         id="path4034" />
    </clipPath>
    <clipPath
       clipPathUnits="userSpaceOnUse"
       id="clipPath4052">
      <path
         d="M 0,841.89 H 595.276 V 0 H 0 Z"
         transform="translate(-446.64601,-484.03801)"
         id="path4052" />
    </clipPath>
    <clipPath
       clipPathUnits="userSpaceOnUse"
       id="clipPath4054">
      <path
         d="M 0,841.89 H 595.276 V 0 H 0 Z"
         transform="translate(-339.48701,-478.29901)"
         id="path4054" />
    </clipPath>
    <clipPath
       clipPathUnits="userSpaceOnUse"
       id="clipPath4056">
      <path
         d="M 0,841.89 H 595.276 V 0 H 0 Z"
         id="path4056" />
    </clipPath>
    <clipPath
       clipPathUnits="userSpaceOnUse"
       id="clipPath4058">
      <path
         d="M 0,841.89 H 595.276 V 0 H 0 Z"
         transform="translate(-390.32301,-383.39001)"
         id="path4058" />
    </clipPath>
    <clipPath
       clipPathUnits="userSpaceOnUse"
       id="clipPath4060">
      <path
         d="M 0,841.89 H 595.276 V 0 H 0 Z"
         transform="translate(-414.75501,-408.07801)"
         id="path4060" />
    </clipPath>
    <clipPath
       clipPathUnits="userSpaceOnUse"
       id="clipPath2032">
      <path
         d="M 0,6.109 H 350.911 V 841.89 H 0 Z"
         transform="translate(-202.28701,-239.73901)"
         id="path2032" />
    </clipPath>
    <clipPath
       clipPathUnits="userSpaceOnUse"
       id="clipPath2034">
      <path
         d="M 0,6.109 H 350.911 V 841.89 H 0 Z"
         transform="translate(-95.127602,-234.001)"
         id="path2034" />
    </clipPath>
    <clipPath
       clipPathUnits="userSpaceOnUse"
       id="clipPath2036">
      <path
         d="M 0,6.109 H 350.911 V 841.89 H 0 Z"
         id="path2036" />
    </clipPath>
    <clipPath
       clipPathUnits="userSpaceOnUse"
       id="clipPath2038">
      <path
         d="M 0,6.109 H 350.911 V 841.89 H 0 Z"
         transform="translate(-130.918,-151.443)"
         id="path2038" />
    </clipPath>
    <clipPath
       clipPathUnits="userSpaceOnUse"
       id="clipPath2040">
      <path
         d="M 0,6.109 H 350.911 V 841.89 H 0 Z"
         transform="translate(-163.501,-151.443)"
         id="path2040" />
    </clipPath>
    <clipPath
       clipPathUnits="userSpaceOnUse"
       id="clipPath2042">
      <path
         d="M 0,6.109 H 350.911 V 841.89 H 0 Z"
         transform="translate(-177.469,-165.54201)"
         id="path2042" />
    </clipPath>
    <clipPath
       clipPathUnits="userSpaceOnUse"
       id="clipPath2080">
      <path
         d="m 292.576,0 h 302.7 v 364.09 h -302.7 z"
         transform="translate(-495.56801,-228.232)"
         id="path2080" />
    </clipPath>
    <clipPath
       clipPathUnits="userSpaceOnUse"
       id="clipPath2082">
      <path
         d="m 292.576,0 h 302.7 v 364.09 h -302.7 z"
         transform="translate(-340.92001,-111.17001)"
         id="path2082" />
    </clipPath>
    <clipPath
       clipPathUnits="userSpaceOnUse"
       id="clipPath2084">
      <path
         d="m 292.576,0 h 302.7 v 364.09 h -302.7 z"
         transform="translate(-378.26301,-156.23001)"
         id="path2084" />
    </clipPath>
    <clipPath
       clipPathUnits="userSpaceOnUse"
       id="clipPath2086">
      <path
         d="m 292.576,0 h 302.7 v 364.09 h -302.7 z"
         transform="translate(-434.26201,-156.23001)"
         id="path2086" />
    </clipPath>
    <clipPath
       clipPathUnits="userSpaceOnUse"
       id="clipPath2088">
      <path
         d="m 292.576,0 h 302.7 v 364.09 h -302.7 z"
         transform="translate(-458.27001,-180.46101)"
         id="path2088" />
    </clipPath>
    <clipPath
       clipPathUnits="userSpaceOnUse"
       id="clipPath2090">
      <path
         d="m 292.576,0 h 302.7 v 364.09 h -302.7 z"
         id="path2090" />
    </clipPath>
  </defs>
  <g
     inkscape:label="Layer 1"
     inkscape:groupmode="layer"
     id="layer1"
     transform="translate(-75.786002,-126.76909)">
    <g
       id="g4075"
       transform="matrix(0.26458333,0,0,0.26458333,65.313981,79.600425)">
      <g
         id="g2">
        <path
           style="fill:#ffffff;stroke:#ffffff;stroke-width:0.877059"
           id="rect1"
           width="169.20169"
           height="225.89459"
           x="65.582489"
           y="147.58603"
           inkscape:path-effect="#path-effect1"
           sodipodi:type="rect"
           d="M 65.582489,147.58603 H 234.78418 V 373.48062 H 65.582489 Z"
           transform="rotate(-90,152.96528,260.53332)" />
        <path
           id="path2079"
           d="m 0,0 h -150.696 c -5.345,0 -9.692,-4.445 -9.692,-9.903 v -107.833 c 0,-5.417 4.347,-9.824 9.692,-9.824 H 0 c 5.343,0 9.691,4.407 9.691,9.824 V -9.903 C 9.691,-4.445 5.343,0 0,0 m 0,-0.572 c 5.028,0 9.118,-4.187 9.118,-9.331 v -107.833 c 0,-5.101 -4.09,-9.25 -9.118,-9.25 h -150.696 c -5.028,0 -9.118,4.149 -9.118,9.25 V -9.903 c 0,5.144 4.09,9.331 9.118,9.331 L 0,-0.572"
           style="fill:#4467a5;fill-opacity:1;fill-rule:nonzero;stroke:none"
           transform="matrix(1.3333333,0,0,-1.3333333,253.42995,178.27527)"
           clip-path="url(#clipPath2080)" />
        <g
           id="g1"
           transform="translate(-0.00333089,-0.00267192)">
          <path
             id="path2081"
             d="M 0,0 C 0,-2.552 2.079,-4.628 4.635,-4.628 H 153.97 c 2.554,0 4.634,2.076 4.634,4.628 v 106.484 c 0,2.595 -2.08,4.704 -4.634,4.704 H 4.635 C 2.079,111.188 0,109.079 0,106.484 Z"
             style="fill:#4467a5;fill-opacity:1;fill-rule:nonzero;stroke:none"
             transform="matrix(1.3333333,0,0,-1.3333333,47.23262,334.35794)"
             clip-path="url(#clipPath2082)" />
          <path
             id="path2083"
             d="m 0,0 c -3.601,0 -6.524,-2.916 -6.524,-6.518 0,-3.6 2.923,-6.52 6.524,-6.52 3.601,0 6.524,2.92 6.524,6.52 C 6.524,-2.916 3.601,0 0,0 m 0,-9.207 c -1.485,0 -2.689,1.205 -2.689,2.689 0,1.483 1.204,2.69 2.689,2.69 1.485,0 2.693,-1.207 2.693,-2.69 0,-1.484 -1.208,-2.689 -2.693,-2.689"
             style="fill:#ffffff;fill-opacity:1;fill-rule:nonzero;stroke:none"
             transform="matrix(1.3333333,0,0,-1.3333333,97.02329,274.27794)"
             clip-path="url(#clipPath2084)" />
          <path
             id="path2085"
             d="m 0,0 c -3.604,0 -6.524,-2.916 -6.524,-6.518 0,-3.6 2.92,-6.52 6.524,-6.52 3.605,0 6.525,2.92 6.525,6.52 C 6.525,-2.916 3.605,0 0,0 m 0,-9.207 c -1.489,0 -2.693,1.205 -2.693,2.689 0,1.483 1.204,2.69 2.693,2.69 1.486,0 2.689,-1.207 2.689,-2.69 0,-1.484 -1.203,-2.689 -2.689,-2.689"
             style="fill:#ffffff;fill-opacity:1;fill-rule:nonzero;stroke:none"
             transform="matrix(1.3333333,0,0,-1.3333333,171.68862,274.27794)"
             clip-path="url(#clipPath2086)" />
          <path
             id="path2087"
             d="m 0,0 h -100.433 c -1.8,0 -2.371,-0.45 -2.598,-2.496 -0.15,-1.399 -0.6,-14.303 -0.6,-14.303 -0.698,0 -1.394,-0.556 -1.394,-1.394 0,-1.394 0.033,-9.237 0.033,-11.612 0,-1.938 2.1,-2.739 4.241,-2.739 h 12.884 c -0.132,0.581 -0.216,1.178 -0.216,1.796 0,4.454 3.619,8.064 8.076,8.064 4.46,0 8.082,-3.61 8.082,-8.064 0,-0.618 -0.087,-1.215 -0.223,-1.796 h 40.278 c -0.133,0.581 -0.213,1.178 -0.213,1.796 0,4.454 3.615,8.064 8.075,8.064 4.461,0 8.079,-3.61 8.079,-8.064 0,-0.557 -0.062,-1.099 -0.167,-1.617 l 23.111,4.373 V -6.996 C 7.015,-2.693 3.875,0 0,0 m -91.018,-27.396 c 0,-0.893 -0.72,-1.614 -1.617,-1.614 h -4.552 c -0.897,0 -1.618,0.721 -1.618,1.614 v 21.454 c 0,0.884 0.721,1.61 1.618,1.61 h 4.552 c 0.897,0 1.617,-0.726 1.617,-1.61 z m 24.502,16.136 c 0,-0.888 -0.724,-1.609 -1.622,-1.609 h -16.268 c -0.892,0 -1.621,0.721 -1.621,1.609 v 5.318 c 0,0.884 0.729,1.61 1.621,1.61 h 16.268 c 0.898,0 1.622,-0.726 1.622,-1.61 z m 23.12,0 c 0,-0.888 -0.726,-1.609 -1.619,-1.609 h -16.272 c -0.893,0 -1.617,0.721 -1.617,1.609 v 5.318 c 0,0.884 0.724,1.61 1.617,1.61 h 16.272 c 0.893,0 1.619,-0.726 1.619,-1.61 z m 23.117,0 c 0,-0.888 -0.721,-1.609 -1.614,-1.609 h -16.271 c -0.894,0 -1.618,0.721 -1.618,1.609 v 5.318 c 0,0.884 0.724,1.61 1.618,1.61 h 16.271 c 0.893,0 1.614,-0.726 1.614,-1.61 z m 24.044,-0.222 c 0,-0.889 -0.728,-1.615 -1.617,-1.615 h -16.272 c -0.894,0 -1.617,0.726 -1.617,1.615 v 5.312 c 0,0.894 0.723,1.618 1.617,1.618 h 12.35 c 3.688,0 5.539,-1.449 5.539,-4.735 z"
             style="fill:#ffffff;fill-opacity:1;fill-rule:nonzero;stroke:none"
             transform="matrix(1.3333333,0,0,-1.3333333,203.69929,241.96994)"
             clip-path="url(#clipPath2088)" />
          <path
             id="path2089"
             d="m 487.365,109.178 h -9.213 v 110.551 h 9.213 z"
             style="fill:#ffffff;fill-opacity:1;fill-rule:nonzero;stroke:none"
             transform="matrix(1.3333333,0,0,-1.3333333,-407.32738,482.58461)"
             clip-path="url(#clipPath2090)" />
        </g>
      </g>
    </g>
  </g>
</svg>
