<?xml version="1.0" encoding="UTF-8" standalone="no"?>
<!-- Created with Inkscape (http://www.inkscape.org/) -->

<svg
   width="38.885635mm"
   height="51.847397mm"
   viewBox="0 0 38.885636 51.847397"
   version="1.1"
   id="svg1"
   inkscape:version="1.4 (86a8ad7, 2024-10-11)"
   sodipodi:docname="car parking.svg"
   xmlns:inkscape="http://www.inkscape.org/namespaces/inkscape"
   xmlns:sodipodi="http://sodipodi.sourceforge.net/DTD/sodipodi-0.dtd"
   xmlns="http://www.w3.org/2000/svg"
   xmlns:svg="http://www.w3.org/2000/svg">
  <sodipodi:namedview
     id="namedview1"
     pagecolor="#ffffff"
     bordercolor="#000000"
     borderopacity="0.25"
     inkscape:showpageshadow="2"
     inkscape:pageopacity="0.0"
     inkscape:pagecheckerboard="0"
     inkscape:deskcolor="#d1d1d1"
     inkscape:document-units="mm"
     inkscape:zoom="2.8756734"
     inkscape:cx="87.979393"
     inkscape:cy="124.31871"
     inkscape:window-width="1920"
     inkscape:window-height="1009"
     inkscape:window-x="-8"
     inkscape:window-y="-8"
     inkscape:window-maximized="1"
     inkscape:current-layer="layer1" />
  <defs
     id="defs1">
    <clipPath
       clipPathUnits="userSpaceOnUse"
       id="clipPath4">
      <path
         d="M 0,841.89 H 595.276 V 0 H 0 Z"
         transform="translate(-431.55501,-66.122927)"
         id="path4" />
    </clipPath>
    <clipPath
       clipPathUnits="userSpaceOnUse"
       id="clipPath6">
      <path
         d="M 0,841.89 H 595.276 V 0 H 0 Z"
         transform="translate(-545.64901,-182.217)"
         id="path6" />
    </clipPath>
    <clipPath
       clipPathUnits="userSpaceOnUse"
       id="clipPath8">
      <path
         d="M 0,841.89 H 595.276 V 0 H 0 Z"
         transform="translate(-501.30701,-127.005)"
         id="path8" />
    </clipPath>
    <clipPath
       clipPathUnits="userSpaceOnUse"
       id="clipPath5553">
      <path
         d="M 0,841.89 H 595.276 V 0 H 0 Z"
         transform="translate(-151.35801,-729.50702)"
         id="path5553" />
    </clipPath>
    <clipPath
       clipPathUnits="userSpaceOnUse"
       id="clipPath5555">
      <path
         d="M 0,841.89 H 595.276 V 0 H 0 Z"
         transform="translate(-58.177001,-587.26201)"
         id="path5555" />
    </clipPath>
    <clipPath
       clipPathUnits="userSpaceOnUse"
       id="clipPath5557">
      <path
         d="M 0,841.89 H 595.276 V 0 H 0 Z"
         transform="translate(-112.815,-696.64601)"
         id="path5557" />
    </clipPath>
    <clipPath
       clipPathUnits="userSpaceOnUse"
       id="clipPath5559">
      <path
         d="M 0,841.89 H 595.276 V 0 H 0 Z"
         transform="translate(-145.866,-593.51302)"
         id="path5559" />
    </clipPath>
    <clipPath
       clipPathUnits="userSpaceOnUse"
       id="clipPath5561">
      <path
         d="M 0,841.89 H 595.276 V 0 H 0 Z"
         transform="translate(-124.09,-615.17702)"
         id="path5561" />
    </clipPath>
    <clipPath
       clipPathUnits="userSpaceOnUse"
       id="clipPath5483">
      <path
         d="M 0,841.89 H 595.276 V 0 H 0 Z"
         transform="translate(-409.86901,-627.04301)"
         id="path5483" />
    </clipPath>
    <clipPath
       clipPathUnits="userSpaceOnUse"
       id="clipPath5493">
      <path
         d="M 0,841.89 H 595.276 V 0 H 0 Z"
         transform="translate(-65.578402,-373.09601)"
         id="path5493" />
    </clipPath>
    <clipPath
       clipPathUnits="userSpaceOnUse"
       id="clipPath5503">
      <path
         d="M 0,841.89 H 595.276 V 0 H 0 Z"
         transform="translate(-365.41501,-379.94401)"
         id="path5503" />
    </clipPath>
    <clipPath
       clipPathUnits="userSpaceOnUse"
       id="clipPath5505">
      <path
         d="M 0,841.89 H 595.276 V 0 H 0 Z"
         transform="translate(-409.65201,-379.94401)"
         id="path5505" />
    </clipPath>
    <clipPath
       clipPathUnits="userSpaceOnUse"
       id="clipPath5511">
      <path
         d="M 0,841.89 H 595.276 V 0 H 0 Z"
         transform="translate(-414.54801,-381.20801)"
         id="path5511" />
    </clipPath>
    <clipPath
       clipPathUnits="userSpaceOnUse"
       id="clipPath5521">
      <path
         d="M 0,841.89 H 595.276 V 0 H 0 Z"
         transform="translate(-79.369404,-123.3)"
         id="path5521" />
    </clipPath>
    <clipPath
       clipPathUnits="userSpaceOnUse"
       id="clipPath5523">
      <path
         d="M 0,841.89 H 595.276 V 0 H 0 Z"
         transform="translate(-124.434,-123.3)"
         id="path5523" />
    </clipPath>
    <clipPath
       clipPathUnits="userSpaceOnUse"
       id="clipPath5525">
      <path
         d="M 0,841.89 H 595.276 V 0 H 0 Z"
         transform="translate(-140.476,-127.638)"
         id="path5525" />
    </clipPath>
    <clipPath
       clipPathUnits="userSpaceOnUse"
       id="clipPath5527">
      <path
         d="M 0,841.89 H 595.276 V 0 H 0 Z"
         transform="translate(-88.025702,-134.602)"
         id="path5527" />
    </clipPath>
    <clipPath
       clipPathUnits="userSpaceOnUse"
       id="clipPath5529">
      <path
         d="M 0,841.89 H 595.276 V 0 H 0 Z"
         transform="translate(-120.747,-145.257)"
         id="path5529" />
    </clipPath>
    <clipPath
       clipPathUnits="userSpaceOnUse"
       id="clipPath5539">
      <path
         d="M 0,841.89 H 595.276 V 0 H 0 Z"
         transform="translate(-363.07201,-123.712)"
         id="path5539" />
    </clipPath>
    <clipPath
       clipPathUnits="userSpaceOnUse"
       id="clipPath5541">
      <path
         d="M 0,841.89 H 595.276 V 0 H 0 Z"
         transform="translate(-408.94301,-123.712)"
         id="path5541" />
    </clipPath>
    <clipPath
       clipPathUnits="userSpaceOnUse"
       id="clipPath5543">
      <path
         d="M 0,841.89 H 595.276 V 0 H 0 Z"
         transform="translate(-355.98201,-116.692)"
         id="path5543" />
    </clipPath>
    <clipPath
       clipPathUnits="userSpaceOnUse"
       id="clipPath5545">
      <path
         d="M 0,841.89 H 595.276 V 0 H 0 Z"
         transform="translate(-363.07201,-120.756)"
         id="path5545" />
    </clipPath>
    <clipPath
       clipPathUnits="userSpaceOnUse"
       id="clipPath5547">
      <path
         d="M 0,841.89 H 595.276 V 0 H 0 Z"
         transform="translate(-408.94301,-120.756)"
         id="path5547" />
    </clipPath>
    <clipPath
       clipPathUnits="userSpaceOnUse"
       id="clipPath5549">
      <path
         d="M 0,841.89 H 595.276 V 0 H 0 Z"
         transform="translate(-383.11601,-140.881)"
         id="path5549" />
    </clipPath>
    <clipPath
       clipPathUnits="userSpaceOnUse"
       id="clipPath5551">
      <path
         d="M 0,841.89 H 595.276 V 0 H 0 Z"
         transform="translate(-404.12301,-140.881)"
         id="path5551" />
    </clipPath>
  </defs>
  <rect
     style="fill:#ffffff;fill-opacity:1;stroke:none;stroke-width:2.221;stroke-opacity:1"
     id="rect1"
     width="36.664997"
     height="49.625999"
     x="86.666161"
     y="121.17709"
     transform="translate(-85.590467,-120.1014)" />
  <g
     inkscape:label="Layer 1"
     inkscape:groupmode="layer"
     id="layer1"
     transform="translate(-85.590466,-120.1014)">
    <path
       id="path5552"
       d="m 0,0 h -93.181 c -4.68,0 -8.488,-3.756 -8.488,-8.375 v -130.22 c 0,-4.616 3.808,-8.374 8.488,-8.374 H 0 c 4.716,0 8.558,3.758 8.558,8.374 V -8.375 C 8.558,-3.756 4.716,0 0,0 m 0,-0.495 c 4.445,0 8.063,-3.535 8.063,-7.88 v -130.22 c 0,-4.344 -3.618,-7.879 -8.063,-7.879 h -93.181 c -4.407,0 -7.993,3.535 -7.993,7.879 v 130.22 c 0,4.345 3.586,7.88 7.993,7.88 H 0"
       style="fill:#4467a5;fill-opacity:1;fill-rule:nonzero;stroke:none"
       transform="matrix(0.35277776,0,0,-0.35277776,121.45703,120.1014)"
       clip-path="url(#clipPath5553)" />
    <path
       id="path5554"
       d="m 0,0 c -0.824,0 -1.455,0.451 -1.839,0.83 -0.724,0.714 -1.138,1.742 -1.138,2.82 v 130.22 c 0,1.079 0.414,2.108 1.138,2.821 0.384,0.378 1.014,0.83 1.839,0.83 h 93.181 c 0.858,0 1.508,-0.459 1.902,-0.844 0.727,-0.712 1.144,-1.735 1.144,-2.807 V 3.65 C 96.227,2.579 95.81,1.557 95.082,0.845 94.688,0.459 94.039,0 93.181,0 Z"
       style="fill:#4467a5;fill-opacity:1;fill-rule:nonzero;stroke:none"
       transform="matrix(0.35277776,0,0,-0.35277776,88.584841,170.28228)"
       clip-path="url(#clipPath5555)" />
    <path
       id="path5556"
       d="m 0,0 c -0.81,-1.178 -1.914,-2.036 -3.325,-2.589 -1.411,-0.552 -4.222,-0.822 -8.418,-0.822 h -5.817 v 14.946 h 5.142 c 3.828,0 6.381,-0.11 7.657,-0.355 1.718,-0.307 3.154,-1.093 4.271,-2.332 C 0.639,7.596 1.203,6.014 1.203,4.1 1.203,2.54 0.798,1.179 0,0 m 9.117,14.505 c -2.036,2.65 -4.576,4.369 -7.595,5.154 -1.963,0.528 -6.185,0.797 -12.652,0.797 h -17.069 v -52.704 h 10.639 v 19.88 h 6.933 c 4.823,0 8.505,0.257 11.045,0.76 1.865,0.405 3.705,1.24 5.509,2.491 1.816,1.264 3.301,2.994 4.479,5.203 1.178,2.196 1.767,4.921 1.767,8.16 0,4.185 -1.019,7.608 -3.056,10.259"
       style="fill:#ffffff;fill-opacity:1;fill-rule:nonzero;stroke:none"
       transform="matrix(0.35277776,0,0,-0.35277776,107.85991,131.69403)"
       clip-path="url(#clipPath5557)" />
    <path
       id="path5558"
       d="m 0,0 h -82.127 c -1.699,0 -3.077,1.378 -3.077,3.077 v 57.965 c 0,1.7 1.378,3.078 3.077,3.078 H 0 c 1.699,0 3.077,-1.378 3.077,-3.078 V 3.077 C 3.077,1.378 1.699,0 0,0"
       style="fill:#ffffff;fill-opacity:1;fill-rule:nonzero;stroke:none"
       transform="matrix(0.35277776,0,0,-0.35277776,119.51957,168.07706)"
       clip-path="url(#clipPath5559)" />
    <path
       id="path5538"
       d="m 0,0 c 3.465,0 6.273,-2.81 6.273,-6.273 0,-3.465 -2.808,-6.275 -6.273,-6.275 -3.465,0 -6.273,2.81 -6.273,6.275 C -6.273,-2.81 -3.465,0 0,0"
       style="fill:#000000;fill-opacity:1;fill-rule:nonzero;stroke:none"
       transform="matrix(0.35277776,0,0,-0.35277776,95.820421,160.62342)"
       clip-path="url(#clipPath5539)" />
    <path
       id="path5540"
       d="m 0,0 c 3.465,0 6.273,-2.81 6.273,-6.273 0,-3.465 -2.808,-6.275 -6.273,-6.275 -3.464,0 -6.273,2.81 -6.273,6.275 C -6.273,-2.81 -3.464,0 0,0"
       style="fill:#000000;fill-opacity:1;fill-rule:nonzero;stroke:none"
       transform="matrix(0.35277776,0,0,-0.35277776,112.00269,160.62342)"
       clip-path="url(#clipPath5541)" />
    <path
       id="path5542"
       d="m 0,0 c 0.241,0 -0.036,0.5 -0.036,0.746 0,3.936 3.19,7.127 7.127,7.127 3.936,0 7.128,-3.191 7.128,-7.127 0,-0.254 -0.014,-0.5 -0.039,-0.746 h 31.69 c -0.023,0.239 -0.036,0.5 -0.036,0.746 0,3.936 3.191,7.127 7.127,7.127 3.936,0 7.128,-3.191 7.128,-7.127 0,-0.254 -0.014,-0.5 -0.039,-0.746 l 9.169,0.848 v 9.893 c 0,0 0.325,1.498 -1.834,1.963 -2.16,0.464 -3.276,0.976 -5.111,2.88 l -7.849,8.189 c 0,0 -3.382,3.981 -10.313,3.981 H 30.2 c 0,0 -3.24,0.406 -5.052,-2.381 L 18.6,15.479 0.762,13.11 c 0,0 -3.588,-0.348 -3.588,-3.518 V 3.146 C -2.826,3.146 -2.678,0 0,0"
       style="fill:#000000;fill-opacity:1;fill-rule:nonzero;stroke:none"
       transform="matrix(0.35277776,0,0,-0.35277776,93.319227,163.09992)"
       clip-path="url(#clipPath5543)" />
    <path
       id="path5544"
       d="M 0,0 C 1.832,0 3.317,-1.485 3.317,-3.317 3.317,-5.15 1.832,-6.636 0,-6.636 c -1.832,0 -3.317,1.486 -3.317,3.319 C -3.317,-1.485 -1.832,0 0,0"
       style="fill:#ffffff;fill-opacity:1;fill-rule:nonzero;stroke:none"
       transform="matrix(0.35277776,0,0,-0.35277776,95.820421,161.66623)"
       clip-path="url(#clipPath5545)" />
    <path
       id="path5546"
       d="M 0,0 C 1.832,0 3.317,-1.485 3.317,-3.317 3.317,-5.15 1.832,-6.636 0,-6.636 c -1.832,0 -3.317,1.486 -3.317,3.319 C -3.317,-1.485 -1.832,0 0,0"
       style="fill:#ffffff;fill-opacity:1;fill-rule:nonzero;stroke:none"
       transform="matrix(0.35277776,0,0,-0.35277776,112.00269,161.66623)"
       clip-path="url(#clipPath5547)" />
    <path
       id="path5548"
       d="M 0,0 -5.644,-8.709 H 12.089 V 0 Z"
       style="fill:#ffffff;fill-opacity:1;fill-rule:nonzero;stroke:none"
       transform="matrix(0.35277776,0,0,-0.35277776,102.8915,154.56658)"
       clip-path="url(#clipPath5549)" />
    <path
       id="path5550"
       d="M 0,0 8.223,-8.709 H -7.226 V 0 Z"
       style="fill:#ffffff;fill-opacity:1;fill-rule:nonzero;stroke:none"
       transform="matrix(0.35277776,0,0,-0.35277776,110.3023,154.56658)"
       clip-path="url(#clipPath5551)" />
  </g>
</svg>
