<?xml version="1.0" encoding="UTF-8" standalone="no"?>
<!-- Created with Inkscape (http://www.inkscape.org/) -->

<svg
   width="44.999977mm"
   height="59.999737mm"
   viewBox="0 0 44.999977 59.999737"
   version="1.1"
   id="svg1"
   inkscape:version="1.4 (86a8ad7, 2024-10-11)"
   sodipodi:docname="chair lift.svg"
   xmlns:inkscape="http://www.inkscape.org/namespaces/inkscape"
   xmlns:sodipodi="http://sodipodi.sourceforge.net/DTD/sodipodi-0.dtd"
   xmlns="http://www.w3.org/2000/svg"
   xmlns:svg="http://www.w3.org/2000/svg">
  <sodipodi:namedview
     id="namedview1"
     pagecolor="#ffffff"
     bordercolor="#000000"
     borderopacity="0.25"
     inkscape:showpageshadow="2"
     inkscape:pageopacity="0.0"
     inkscape:pagecheckerboard="0"
     inkscape:deskcolor="#d1d1d1"
     inkscape:document-units="mm"
     inkscape:zoom="1.4378367"
     inkscape:cx="151.96441"
     inkscape:cy="131.09973"
     inkscape:window-width="1920"
     inkscape:window-height="1009"
     inkscape:window-x="-8"
     inkscape:window-y="-8"
     inkscape:window-maximized="1"
     inkscape:current-layer="g4075" />
  <defs
     id="defs1">
    <inkscape:path-effect
       effect="fillet_chamfer"
       id="path-effect1"
       is_visible="true"
       lpeversion="1"
       nodesatellites_param="F,0,0,1,0,0,0,1 @ F,0,0,1,0,0,0,1 @ F,0,0,1,0,0,0,1 @ F,0,0,1,0,0,0,1"
       radius="0"
       unit="px"
       method="auto"
       mode="F"
       chamfer_steps="1"
       flexible="false"
       use_knot_distance="true"
       apply_no_radius="true"
       apply_with_radius="true"
       only_selected="false"
       hide_knots="false" />
    <clipPath
       clipPathUnits="userSpaceOnUse"
       id="clipPath4010">
      <path
         d="M 0,841.89 H 595.276 V 0 H 0 Z"
         transform="translate(-166.51401,-731.52902)"
         id="path4010" />
    </clipPath>
    <clipPath
       clipPathUnits="userSpaceOnUse"
       id="clipPath4012">
      <path
         d="M 0,841.89 H 595.276 V 0 H 0 Z"
         transform="translate(-59.355001,-725.79102)"
         id="path4012" />
    </clipPath>
    <clipPath
       clipPathUnits="userSpaceOnUse"
       id="clipPath4014">
      <path
         d="M 0,841.89 H 595.276 V 0 H 0 Z"
         id="path4014" />
    </clipPath>
    <clipPath
       clipPathUnits="userSpaceOnUse"
       id="clipPath4016">
      <path
         d="M 0,841.89 H 595.276 V 0 H 0 Z"
         transform="translate(-132.939,-632.53702)"
         id="path4016" />
    </clipPath>
    <clipPath
       clipPathUnits="userSpaceOnUse"
       id="clipPath4018">
      <path
         d="M 0,841.89 H 595.276 V 0 H 0 Z"
         transform="translate(-446.64601,-731.52902)"
         id="path4018" />
    </clipPath>
    <clipPath
       clipPathUnits="userSpaceOnUse"
       id="clipPath4020">
      <path
         d="M 0,841.89 H 595.276 V 0 H 0 Z"
         transform="translate(-339.48701,-725.79102)"
         id="path4020" />
    </clipPath>
    <clipPath
       clipPathUnits="userSpaceOnUse"
       id="clipPath4022">
      <path
         d="M 0,841.89 H 595.276 V 0 H 0 Z"
         id="path4022" />
    </clipPath>
    <clipPath
       clipPathUnits="userSpaceOnUse"
       id="clipPath4024">
      <path
         d="M 0,841.89 H 595.276 V 0 H 0 Z"
         transform="translate(-409.44701,-659.97202)"
         id="path4024" />
    </clipPath>
    <clipPath
       clipPathUnits="userSpaceOnUse"
       id="clipPath1000">
      <path
         d="M 0,0 H 595.276 V 841.89 H 0 Z"
         transform="translate(-166.51401,-731.47102)"
         id="path1000" />
    </clipPath>
    <clipPath
       clipPathUnits="userSpaceOnUse"
       id="clipPath1002">
      <path
         d="M 0,0 H 595.276 V 841.89 H 0 Z"
         transform="translate(-59.354602,-725.73102)"
         id="path1002" />
    </clipPath>
    <clipPath
       clipPathUnits="userSpaceOnUse"
       id="clipPath1004">
      <path
         d="M 0,0 H 595.276 V 841.89 H 0 Z"
         transform="translate(-94.148605,-610.35401)"
         id="path1004" />
    </clipPath>
    <clipPath
       clipPathUnits="userSpaceOnUse"
       id="clipPath1006">
      <path
         d="M 0,0 H 595.276 V 841.89 H 0 Z"
         id="path1006" />
    </clipPath>
    <clipPath
       clipPathUnits="userSpaceOnUse"
       id="clipPath1008">
      <path
         d="M 0,0 H 595.276 V 841.89 H 0 Z"
         transform="translate(-141.47001,-653.96302)"
         id="path1008" />
    </clipPath>
    <clipPath
       clipPathUnits="userSpaceOnUse"
       id="clipPath1010">
      <path
         d="M 0,0 H 595.276 V 841.89 H 0 Z"
         id="path1010" />
    </clipPath>
    <clipPath
       clipPathUnits="userSpaceOnUse"
       id="clipPath1012">
      <path
         d="M 0,0 H 595.276 V 841.89 H 0 Z"
         transform="translate(-122.364,-682.30502)"
         id="path1012" />
    </clipPath>
    <clipPath
       clipPathUnits="userSpaceOnUse"
       id="clipPath1156">
      <path
         d="M 0,841.89 H 595.276 V 0 H 0 Z"
         transform="translate(-446.60801,-731.50002)"
         id="path1156" />
    </clipPath>
    <clipPath
       clipPathUnits="userSpaceOnUse"
       id="clipPath1158">
      <path
         d="M 0,841.89 H 595.276 V 0 H 0 Z"
         transform="translate(-339.44801,-725.76202)"
         id="path1158" />
    </clipPath>
    <clipPath
       clipPathUnits="userSpaceOnUse"
       id="clipPath1160">
      <path
         d="M 0,841.89 H 595.276 V 0 H 0 Z"
         id="path1160" />
    </clipPath>
    <clipPath
       clipPathUnits="userSpaceOnUse"
       id="clipPath1162">
      <path
         d="M 0,841.89 H 595.276 V 0 H 0 Z"
         transform="translate(-399.90201,-688.14002)"
         id="path1162" />
    </clipPath>
    <clipPath
       clipPathUnits="userSpaceOnUse"
       id="clipPath1166">
      <path
         d="M 0,841.89 H 595.276 V 0 H 0 Z"
         transform="translate(-168.13701,-485.24801)"
         id="path1166" />
    </clipPath>
    <clipPath
       clipPathUnits="userSpaceOnUse"
       id="clipPath1168">
      <path
         d="M 0,841.89 H 595.276 V 0 H 0 Z"
         transform="translate(-60.977702,-479.51001)"
         id="path1168" />
    </clipPath>
    <clipPath
       clipPathUnits="userSpaceOnUse"
       id="clipPath1170">
      <path
         d="M 0,841.89 H 595.276 V 0 H 0 Z"
         transform="translate(-138.622,-407.33201)"
         id="path1170" />
    </clipPath>
    <clipPath
       clipPathUnits="userSpaceOnUse"
       id="clipPath1014">
      <path
         d="M 0,0 H 595.276 V 841.89 H 0 Z"
         transform="translate(-446.64601,-483.13801)"
         id="path1014" />
    </clipPath>
    <clipPath
       clipPathUnits="userSpaceOnUse"
       id="clipPath1016">
      <path
         d="M 0,0 H 595.276 V 841.89 H 0 Z"
         transform="translate(-339.48601,-477.40001)"
         id="path1016" />
    </clipPath>
    <clipPath
       clipPathUnits="userSpaceOnUse"
       id="clipPath1018">
      <path
         d="M 0,0 H 595.276 V 841.89 H 0 Z"
         id="path1018" />
    </clipPath>
    <clipPath
       clipPathUnits="userSpaceOnUse"
       id="clipPath1020">
      <path
         d="M 0,0 H 595.276 V 841.89 H 0 Z"
         transform="translate(-372.54301,-363.65801)"
         id="path1020" />
    </clipPath>
    <clipPath
       clipPathUnits="userSpaceOnUse"
       id="clipPath1022">
      <path
         d="M 0,0 H 595.276 V 841.89 H 0 Z"
         transform="translate(-387.08701,-419.46101)"
         id="path1022" />
    </clipPath>
    <clipPath
       clipPathUnits="userSpaceOnUse"
       id="clipPath1024">
      <path
         d="M 0,0 H 595.276 V 841.89 H 0 Z"
         transform="translate(-374.19801,-401.77601)"
         id="path1024" />
    </clipPath>
    <clipPath
       clipPathUnits="userSpaceOnUse"
       id="clipPath1032">
      <path
         d="M 0,0 H 595.276 V 841.89 H 0 Z"
         transform="translate(-92.411305,-116.979)"
         id="path1032" />
    </clipPath>
    <clipPath
       clipPathUnits="userSpaceOnUse"
       id="clipPath1034">
      <path
         d="M 0,0 H 595.276 V 841.89 H 0 Z"
         transform="translate(-99.0763,-172.504)"
         id="path1034" />
    </clipPath>
    <clipPath
       clipPathUnits="userSpaceOnUse"
       id="clipPath1036">
      <path
         d="M 0,0 H 595.276 V 841.89 H 0 Z"
         transform="translate(-114.007,-151.57401)"
         id="path1036" />
    </clipPath>
    <clipPath
       clipPathUnits="userSpaceOnUse"
       id="clipPath1086">
      <path
         d="M 0,0 H 595.276 V 841.89 H 0 Z"
         transform="translate(-377.37101,-157.879)"
         id="path1086" />
    </clipPath>
    <clipPath
       clipPathUnits="userSpaceOnUse"
       id="clipPath1042">
      <path
         d="M 0,0 H 595.276 V 841.89 H 0 Z"
         id="path1042" />
    </clipPath>
    <clipPath
       clipPathUnits="userSpaceOnUse"
       id="clipPath1086-1">
      <path
         d="M 0,0 H 595.276 V 841.89 H 0 Z"
         transform="translate(-377.37101,-157.879)"
         id="path1086-6" />
    </clipPath>
  </defs>
  <g
     inkscape:label="Layer 1"
     inkscape:groupmode="layer"
     id="layer1"
     transform="translate(-82.549999,-118.53333)">
    <g
       id="g4075"
       transform="matrix(0.26458333,0,0,0.26458333,65.313981,79.600425)">
      <g
         id="g1">
        <path
           style="fill:#ffffff;stroke:#ffffff;stroke-width:0.877059"
           id="rect1"
           width="169.20169"
           height="225.89459"
           x="65.582489"
           y="147.58603"
           sodipodi:type="rect"
           d="M 65.582489,147.58603 H 234.78418 V 373.48062 H 65.582489 Z"
           inkscape:path-effect="#path-effect1" />
        <path
           id="path1013"
           d="m 0,0 h -107.832 c -5.417,0 -9.823,-4.346 -9.823,-9.69 v -150.697 c 0,-5.342 4.406,-9.691 9.823,-9.691 H 0 c 5.458,0 9.903,4.349 9.903,9.691 V -9.69 C 9.903,-4.346 5.458,0 0,0 m 0,-0.571 c 5.146,0 9.331,-4.092 9.331,-9.119 v -150.697 c 0,-5.028 -4.185,-9.119 -9.331,-9.119 h -107.832 c -5.101,0 -9.251,4.091 -9.251,9.119 V -9.69 c 0,5.027 4.15,9.119 9.251,9.119 L 0,-0.571"
           style="fill:#4467a5;fill-opacity:1;fill-rule:nonzero;stroke:none"
           transform="matrix(1.3333333,0,0,-1.3333333,222.018,147.14799)"
           clip-path="url(#clipPath1014)" />
        <path
           id="path1015"
           d="m 0,0 c -2.552,0 -4.628,-2.079 -4.628,-4.636 v -149.335 c 0,-2.553 2.076,-4.633 4.628,-4.633 h 106.485 c 2.594,0 4.704,2.08 4.704,4.633 V -4.636 c 0,2.557 -2.11,4.636 -4.704,4.636 z"
           style="fill:#4467a5;fill-opacity:1;fill-rule:nonzero;stroke:none"
           transform="matrix(1.3333333,0,0,-1.3333333,79.138,154.79866)"
           clip-path="url(#clipPath1016)" />
        <path
           id="path1041"
           d="m 427.211,116.98 h -68.883 v 68.882 h 68.883 z"
           style="fill:#ffffff;fill-opacity:1;fill-rule:nonzero;stroke:none"
           transform="matrix(1.3333333,0,0,-1.3333333,-373.50932,462.42798)"
           clip-path="url(#clipPath1042)" />
        <path
           id="path1085"
           d="m 0,0 c 0.229,-0.306 0.002,-1.352 0.002,-1.761 0,-0.482 0.517,-0.771 0.033,-0.771 -0.169,0 -0.273,0.048 -0.338,0.131 -0.127,0.151 -0.106,0.43 -0.106,0.75 0,0.48 -0.248,1.745 0.236,1.745 C -0.097,0.094 -0.041,0.06 0,0 m -0.173,5.398 c -0.314,5.506 2.875,7.746 10.243,7.119 h 1.618 v 6.919 c 0.216,0.149 0.4,0.343 0.537,0.568 l 37.606,5.829 v 2.143 L 12.104,22.127 c -0.002,0.002 -0.004,0.004 -0.006,0.008 v -0.001 c -0.042,0.053 -0.087,0.103 -0.135,0.152 -0.342,0.349 -0.819,0.566 -1.348,0.566 -0.811,0 -1.504,-0.513 -1.77,-1.231 l -27.883,-4.32 v -2.142 l 28.406,4.403 c 0.2,-0.174 0.44,-0.309 0.702,-0.386 v -0.005 c 0.002,-10e-4 0.004,-0.002 0.007,-0.002 V 14.385 C 10.033,14.387 9.988,14.389 9.942,14.39 1.675,14.21 -2.279,12.42 -1.919,9.019 -2.054,5.48 -2.29,1.811 -2.29,-1.861 c -1.168,-3.896 -2.101,-7.925 -3.269,-11.952 -0.09,-1.052 0.039,-1.84 0.391,-2.364 0.518,-0.76 1.509,-0.956 2.973,-0.585 v -0.009 c 0.002,0 0.004,0 0.007,0.001 v -7.515 c 1.681,-1.077 8.524,-0.482 9.601,-0.363 4.673,0.507 3.033,1.737 7.779,2.248 v -0.011 c 0.002,0 0.004,0.001 0.006,0.001 0.154,-4.505 2.403,-8.008 2.049,-10.482 -0.318,-2.228 -0.207,-3.426 0.18,-3.946 0.266,-0.349 0.661,-0.379 1.135,-0.202 2.875,0.852 5.526,0.852 8.086,0.136 1.399,0.566 1.812,1.254 1.189,2.057 -0.462,0.59 -1.478,1.243 -3.068,1.961 0,0.002 0,0.004 0.001,0.006 -0.003,0.001 -0.006,0.002 -0.008,0.003 0.515,7.905 0.006,12.75 -1.467,14.475 -0.452,0.523 -0.995,0.756 -1.626,0.693 -1.084,-0.091 -1.683,-0.302 -1.798,-0.633 0.078,-0.179 0.139,-0.371 0.181,-0.577 -0.003,0.004 -0.005,0.007 -0.008,0.011 v -0.002 c -0.178,0.223 -0.237,0.414 -0.181,0.577 -0.096,0.222 -0.221,0.421 -0.372,0.602 -1.328,1.565 -4.661,1.586 -9.01,0.291 -10e-4,0.003 -10e-4,0.005 -0.002,0.009 -10e-4,-10e-4 -0.002,-10e-4 -0.004,-0.002 -1.056,6.376 -2.378,10.677 -4.126,12.85 -0.631,0.782 -1.319,1.287 -2.069,1.514 0.002,10e-4 0.004,0.003 0.006,0.004 -0.004,10e-4 -0.008,0.002 -0.012,0.002 2.997,1.98 3.067,6.222 1.06,8.543 -0.67,0.773 -1.57,1.332 -2.671,1.522 -2.156,0 -2.875,-0.627 -2.83,-1.61 C -0.17,5.438 -0.172,5.486 -0.174,5.533 -0.175,5.489 -0.176,5.444 -0.173,5.398"
           style="fill:#000000;fill-opacity:1;fill-rule:nonzero;stroke:none"
           transform="matrix(1.3333333,0,0,-1.3333333,129.65201,251.92265)"
           clip-path="url(#clipPath1086-1)" />
      </g>
    </g>
  </g>
</svg>
