<?xml version="1.0" encoding="UTF-8" standalone="no"?>
<!-- Created with Inkscape (http://www.inkscape.org/) -->

<svg
   width="41.353668mm"
   height="55.137985mm"
   viewBox="0 0 41.353668 55.137986"
   version="1.1"
   id="svg1"
   inkscape:version="1.4 (86a8ad7, 2024-10-11)"
   sodipodi:docname="charging station.svg"
   xmlns:inkscape="http://www.inkscape.org/namespaces/inkscape"
   xmlns:sodipodi="http://sodipodi.sourceforge.net/DTD/sodipodi-0.dtd"
   xmlns="http://www.w3.org/2000/svg"
   xmlns:svg="http://www.w3.org/2000/svg">
  <sodipodi:namedview
     id="namedview1"
     pagecolor="#ffffff"
     bordercolor="#000000"
     borderopacity="0.25"
     inkscape:showpageshadow="2"
     inkscape:pageopacity="0.0"
     inkscape:pagecheckerboard="0"
     inkscape:deskcolor="#d1d1d1"
     inkscape:document-units="mm"
     inkscape:zoom="2.8756735"
     inkscape:cx="143.44466"
     inkscape:cy="99.628836"
     inkscape:window-width="1920"
     inkscape:window-height="1009"
     inkscape:window-x="-8"
     inkscape:window-y="-8"
     inkscape:window-maximized="1"
     inkscape:current-layer="g4075" />
  <defs
     id="defs1">
    <inkscape:path-effect
       effect="fillet_chamfer"
       id="path-effect1"
       is_visible="true"
       lpeversion="1"
       nodesatellites_param="F,0,0,1,0,0,0,1 @ F,0,0,1,0,0,0,1 @ F,0,0,1,0,0,0,1 @ F,0,0,1,0,0,0,1"
       radius="0"
       unit="px"
       method="auto"
       mode="F"
       chamfer_steps="1"
       flexible="false"
       use_knot_distance="true"
       apply_no_radius="true"
       apply_with_radius="true"
       only_selected="false"
       hide_knots="false" />
    <clipPath
       clipPathUnits="userSpaceOnUse"
       id="clipPath4010">
      <path
         d="M 0,841.89 H 595.276 V 0 H 0 Z"
         transform="translate(-166.51401,-731.52902)"
         id="path4010" />
    </clipPath>
    <clipPath
       clipPathUnits="userSpaceOnUse"
       id="clipPath4012">
      <path
         d="M 0,841.89 H 595.276 V 0 H 0 Z"
         transform="translate(-59.355001,-725.79102)"
         id="path4012" />
    </clipPath>
    <clipPath
       clipPathUnits="userSpaceOnUse"
       id="clipPath4014">
      <path
         d="M 0,841.89 H 595.276 V 0 H 0 Z"
         id="path4014" />
    </clipPath>
    <clipPath
       clipPathUnits="userSpaceOnUse"
       id="clipPath4016">
      <path
         d="M 0,841.89 H 595.276 V 0 H 0 Z"
         transform="translate(-132.939,-632.53702)"
         id="path4016" />
    </clipPath>
    <clipPath
       clipPathUnits="userSpaceOnUse"
       id="clipPath4018">
      <path
         d="M 0,841.89 H 595.276 V 0 H 0 Z"
         transform="translate(-446.64601,-731.52902)"
         id="path4018" />
    </clipPath>
    <clipPath
       clipPathUnits="userSpaceOnUse"
       id="clipPath4020">
      <path
         d="M 0,841.89 H 595.276 V 0 H 0 Z"
         transform="translate(-339.48701,-725.79102)"
         id="path4020" />
    </clipPath>
    <clipPath
       clipPathUnits="userSpaceOnUse"
       id="clipPath4022">
      <path
         d="M 0,841.89 H 595.276 V 0 H 0 Z"
         id="path4022" />
    </clipPath>
    <clipPath
       clipPathUnits="userSpaceOnUse"
       id="clipPath4024">
      <path
         d="M 0,841.89 H 595.276 V 0 H 0 Z"
         transform="translate(-409.44701,-659.97202)"
         id="path4024" />
    </clipPath>
    <clipPath
       clipPathUnits="userSpaceOnUse"
       id="clipPath4028">
      <path
         d="M 0,841.89 H 595.276 V 0 H 0 Z"
         transform="translate(-166.51401,-483.03801)"
         id="path4028" />
    </clipPath>
    <clipPath
       clipPathUnits="userSpaceOnUse"
       id="clipPath4030">
      <path
         d="M 0,841.89 H 595.276 V 0 H 0 Z"
         transform="translate(-59.355001,-477.29901)"
         id="path4030" />
    </clipPath>
    <clipPath
       clipPathUnits="userSpaceOnUse"
       id="clipPath4032">
      <path
         d="M 0,841.89 H 595.276 V 0 H 0 Z"
         id="path4032" />
    </clipPath>
    <clipPath
       clipPathUnits="userSpaceOnUse"
       id="clipPath4034">
      <path
         d="M 0,841.89 H 595.276 V 0 H 0 Z"
         transform="translate(-126.208,-398.81301)"
         id="path4034" />
    </clipPath>
    <clipPath
       clipPathUnits="userSpaceOnUse"
       id="clipPath4052">
      <path
         d="M 0,841.89 H 595.276 V 0 H 0 Z"
         transform="translate(-446.64601,-484.03801)"
         id="path4052" />
    </clipPath>
    <clipPath
       clipPathUnits="userSpaceOnUse"
       id="clipPath4054">
      <path
         d="M 0,841.89 H 595.276 V 0 H 0 Z"
         transform="translate(-339.48701,-478.29901)"
         id="path4054" />
    </clipPath>
    <clipPath
       clipPathUnits="userSpaceOnUse"
       id="clipPath4056">
      <path
         d="M 0,841.89 H 595.276 V 0 H 0 Z"
         id="path4056" />
    </clipPath>
    <clipPath
       clipPathUnits="userSpaceOnUse"
       id="clipPath4058">
      <path
         d="M 0,841.89 H 595.276 V 0 H 0 Z"
         transform="translate(-390.32301,-383.39001)"
         id="path4058" />
    </clipPath>
    <clipPath
       clipPathUnits="userSpaceOnUse"
       id="clipPath4060">
      <path
         d="M 0,841.89 H 595.276 V 0 H 0 Z"
         transform="translate(-414.75501,-408.07801)"
         id="path4060" />
    </clipPath>
    <clipPath
       clipPathUnits="userSpaceOnUse"
       id="clipPath2032">
      <path
         d="M 0,6.109 H 350.911 V 841.89 H 0 Z"
         transform="translate(-202.28701,-239.73901)"
         id="path2032" />
    </clipPath>
    <clipPath
       clipPathUnits="userSpaceOnUse"
       id="clipPath2034">
      <path
         d="M 0,6.109 H 350.911 V 841.89 H 0 Z"
         transform="translate(-95.127602,-234.001)"
         id="path2034" />
    </clipPath>
    <clipPath
       clipPathUnits="userSpaceOnUse"
       id="clipPath2036">
      <path
         d="M 0,6.109 H 350.911 V 841.89 H 0 Z"
         id="path2036" />
    </clipPath>
    <clipPath
       clipPathUnits="userSpaceOnUse"
       id="clipPath2038">
      <path
         d="M 0,6.109 H 350.911 V 841.89 H 0 Z"
         transform="translate(-130.918,-151.443)"
         id="path2038" />
    </clipPath>
    <clipPath
       clipPathUnits="userSpaceOnUse"
       id="clipPath2040">
      <path
         d="M 0,6.109 H 350.911 V 841.89 H 0 Z"
         transform="translate(-163.501,-151.443)"
         id="path2040" />
    </clipPath>
    <clipPath
       clipPathUnits="userSpaceOnUse"
       id="clipPath2042">
      <path
         d="M 0,6.109 H 350.911 V 841.89 H 0 Z"
         transform="translate(-177.469,-165.54201)"
         id="path2042" />
    </clipPath>
    <clipPath
       clipPathUnits="userSpaceOnUse"
       id="clipPath3044">
      <path
         d="M 0,841.89 H 595.276 V 0 H 0 Z"
         transform="translate(-401.96101,-456.03201)"
         id="path3044" />
    </clipPath>
    <clipPath
       clipPathUnits="userSpaceOnUse"
       id="clipPath3048">
      <path
         d="M 0,841.89 H 595.276 V 0 H 0 Z"
         transform="translate(-371.89201,-481.43101)"
         id="path3048" />
    </clipPath>
    <clipPath
       clipPathUnits="userSpaceOnUse"
       id="clipPath176">
      <path
         d="M 0,841.89 H 595.276 V 0 H 0 Z"
         transform="translate(-369.97101,-682.58302)"
         id="path176" />
    </clipPath>
    <clipPath
       clipPathUnits="userSpaceOnUse"
       id="clipPath178">
      <path
         d="M 0,841.89 H 595.276 V 0 H 0 Z"
         transform="translate(-279.17001,-677.72102)"
         id="path178" />
    </clipPath>
    <clipPath
       clipPathUnits="userSpaceOnUse"
       id="clipPath180">
      <path
         d="M 0,841.89 H 595.276 V 0 H 0 Z"
         id="path180" />
    </clipPath>
    <clipPath
       clipPathUnits="userSpaceOnUse"
       id="clipPath182">
      <path
         d="M 0,841.89 H 595.276 V 0 H 0 Z"
         id="path182" />
    </clipPath>
    <clipPath
       clipPathUnits="userSpaceOnUse"
       id="clipPath184">
      <path
         d="M 0,841.89 H 595.276 V 0 H 0 Z"
         id="path184" />
    </clipPath>
    <clipPath
       clipPathUnits="userSpaceOnUse"
       id="clipPath186">
      <path
         d="M 0,841.89 H 595.276 V 0 H 0 Z"
         id="path186" />
    </clipPath>
    <clipPath
       clipPathUnits="userSpaceOnUse"
       id="clipPath188">
      <path
         d="M 0,841.89 H 595.276 V 0 H 0 Z"
         id="path188" />
    </clipPath>
    <clipPath
       clipPathUnits="userSpaceOnUse"
       id="clipPath190">
      <path
         d="M 0,841.89 H 595.276 V 0 H 0 Z"
         transform="translate(-334.17901,-550.46002)"
         id="path190" />
    </clipPath>
    <clipPath
       clipPathUnits="userSpaceOnUse"
       id="clipPath166">
      <path
         d="M 0,841.89 H 595.276 V 0 H 0 Z"
         id="path166" />
    </clipPath>
    <clipPath
       clipPathUnits="userSpaceOnUse"
       id="clipPath168">
      <path
         d="M 0,841.89 H 595.276 V 0 H 0 Z"
         id="path168" />
    </clipPath>
    <clipPath
       clipPathUnits="userSpaceOnUse"
       id="clipPath170">
      <path
         d="M 0,841.89 H 595.276 V 0 H 0 Z"
         transform="translate(-491.91301,-599.62501)"
         id="path170" />
    </clipPath>
    <clipPath
       clipPathUnits="userSpaceOnUse"
       id="clipPath172">
      <path
         d="M 0,841.89 H 595.276 V 0 H 0 Z"
         transform="translate(-483.60101,-644.35202)"
         id="path172" />
    </clipPath>
    <clipPath
       clipPathUnits="userSpaceOnUse"
       id="clipPath174">
      <path
         d="M 0,841.89 H 595.276 V 0 H 0 Z"
         transform="translate(-488.84801,-651.57302)"
         id="path174" />
    </clipPath>
    <clipPath
       clipPathUnits="userSpaceOnUse"
       id="clipPath131">
      <path
         d="M 0,841.89 H 595.276 V 0 H 0 Z"
         transform="translate(-157.15,-226.76001)"
         id="path131" />
    </clipPath>
    <clipPath
       clipPathUnits="userSpaceOnUse"
       id="clipPath133">
      <path
         d="M 0,841.89 H 595.276 V 0 H 0 Z"
         transform="translate(-58.674802,-221.48601)"
         id="path133" />
    </clipPath>
    <clipPath
       clipPathUnits="userSpaceOnUse"
       id="clipPath135">
      <path
         d="M 0,841.89 H 595.276 V 0 H 0 Z"
         transform="translate(-58.829101,-130.94601)"
         id="path135" />
    </clipPath>
    <clipPath
       clipPathUnits="userSpaceOnUse"
       id="clipPath137">
      <path
         d="M 0,841.89 H 595.276 V 0 H 0 Z"
         transform="translate(-129.217,-153.00801)"
         id="path137" />
    </clipPath>
    <clipPath
       clipPathUnits="userSpaceOnUse"
       id="clipPath139">
      <path
         d="M 0,841.89 H 595.276 V 0 H 0 Z"
         transform="translate(-117.604,-153.00801)"
         id="path139" />
    </clipPath>
    <clipPath
       clipPathUnits="userSpaceOnUse"
       id="clipPath141">
      <path
         d="M 0,841.89 H 595.276 V 0 H 0 Z"
         transform="translate(-103.759,-153.00801)"
         id="path141" />
    </clipPath>
    <clipPath
       clipPathUnits="userSpaceOnUse"
       id="clipPath143">
      <path
         d="M 0,841.89 H 595.276 V 0 H 0 Z"
         transform="translate(-90.790502,-153.00801)"
         id="path143" />
    </clipPath>
    <clipPath
       clipPathUnits="userSpaceOnUse"
       id="clipPath145">
      <path
         d="M 0,841.89 H 595.276 V 0 H 0 Z"
         transform="translate(-78.638199,-153.00801)"
         id="path145" />
    </clipPath>
    <clipPath
       clipPathUnits="userSpaceOnUse"
       id="clipPath147">
      <path
         d="M 0,841.89 H 595.276 V 0 H 0 Z"
         transform="translate(-92.432605,-171.943)"
         id="path147" />
    </clipPath>
    <clipPath
       clipPathUnits="userSpaceOnUse"
       id="clipPath149">
      <path
         d="M 0,841.89 H 595.276 V 0 H 0 Z"
         transform="translate(-106.5,-193.771)"
         id="path149" />
    </clipPath>
    <clipPath
       clipPathUnits="userSpaceOnUse"
       id="clipPath151">
      <path
         d="M 0,841.89 H 595.276 V 0 H 0 Z"
         transform="translate(-340.06601,-226.76001)"
         id="path151" />
    </clipPath>
    <clipPath
       clipPathUnits="userSpaceOnUse"
       id="clipPath153">
      <path
         d="M 0,841.89 H 595.276 V 0 H 0 Z"
         transform="translate(-241.59001,-221.48601)"
         id="path153" />
    </clipPath>
    <clipPath
       clipPathUnits="userSpaceOnUse"
       id="clipPath155">
      <path
         d="M 0,841.89 H 595.276 V 0 H 0 Z"
         transform="translate(-241.74501,-130.94601)"
         id="path155" />
    </clipPath>
    <clipPath
       clipPathUnits="userSpaceOnUse"
       id="clipPath157">
      <path
         d="M 0,841.89 H 595.276 V 0 H 0 Z"
         transform="translate(-329.47501,-140.11101)"
         id="path157" />
    </clipPath>
    <clipPath
       clipPathUnits="userSpaceOnUse"
       id="clipPath328">
      <path
         d="M 0,841.89 H 595.276 V 0 H 0 Z"
         transform="translate(-525.35801,-225.01701)"
         id="path328" />
    </clipPath>
    <clipPath
       clipPathUnits="userSpaceOnUse"
       id="clipPath330">
      <path
         d="M 0,841.89 H 595.276 V 0 H 0 Z"
         transform="translate(-427.06801,-219.754)"
         id="path330" />
    </clipPath>
    <clipPath
       clipPathUnits="userSpaceOnUse"
       id="clipPath332">
      <path
         d="M 0,841.89 H 595.276 V 0 H 0 Z"
         id="path332" />
    </clipPath>
    <clipPath
       clipPathUnits="userSpaceOnUse"
       id="clipPath334">
      <path
         d="M 0,841.89 H 595.276 V 0 H 0 Z"
         transform="translate(-471.41301,-180.82)"
         id="path334" />
    </clipPath>
    <clipPath
       clipPathUnits="userSpaceOnUse"
       id="clipPath336">
      <path
         d="M 0,841.89 H 595.276 V 0 H 0 Z"
         transform="translate(-467.10001,-160.585)"
         id="path336" />
    </clipPath>
    <clipPath
       clipPathUnits="userSpaceOnUse"
       id="clipPath338">
      <path
         d="M 0,841.89 H 595.276 V 0 H 0 Z"
         transform="translate(-470.10101,-142.929)"
         id="path338" />
    </clipPath>
  </defs>
  <g
     inkscape:label="Layer 1"
     inkscape:groupmode="layer"
     id="layer1"
     transform="translate(-84.373155,-120.9642)">
    <g
       id="g4075"
       transform="matrix(0.26458333,0,0,0.26458333,65.313981,79.600425)">
      <path
         style="fill:#ffffff;stroke:#ffffff;stroke-width:0.877059"
         id="rect1"
         width="169.20169"
         height="225.89459"
         x="65.582489"
         y="147.58603"
         sodipodi:type="rect"
         d="M 65.582489,147.58603 H 234.78418 V 373.48062 H 65.582489 Z"
         inkscape:path-effect="#path-effect1"
         transform="matrix(0.91896989,0,0,0.91896641,12.169376,21.11193)" />
      <path
         id="path327"
         d="m 0,0 h -98.907 c -4.969,0 -9.01,-3.986 -9.01,-8.89 v -138.222 c 0,-4.901 4.041,-8.889 9.01,-8.889 H 0 c 5.006,0 9.083,3.988 9.083,8.889 V -8.89 C 9.083,-3.986 5.006,0 0,0 m 0,-0.525 c 4.719,0 8.558,-3.752 8.558,-8.365 v -138.222 c 0,-4.612 -3.839,-8.364 -8.558,-8.364 h -98.907 c -4.679,0 -8.485,3.752 -8.485,8.364 V -8.89 c 0,4.613 3.806,8.365 8.485,8.365 H 0"
         style="fill:#4467a5;fill-opacity:1;fill-rule:nonzero;stroke:none"
         transform="matrix(1.3333333,0,0,-1.3333333,216.07267,156.53263)"
         clip-path="url(#clipPath328)" />
      <path
         id="path329"
         d="m 0,0 c -2.34,0 -4.244,-1.907 -4.244,-4.252 v -136.975 c 0,-2.342 1.904,-4.249 4.244,-4.249 h 97.672 c 2.379,0 4.314,1.907 4.314,4.249 V -4.252 c 0,2.345 -1.935,4.252 -4.314,4.252 z"
         style="fill:#4467a5;fill-opacity:1;fill-rule:nonzero;stroke:none"
         transform="matrix(1.3333333,0,0,-1.3333333,85.01934,163.54997)"
         clip-path="url(#clipPath330)" />
      <g
         id="text330"
         style="font-size:16px;stroke-width:1.33333"
         aria-label="CHARGINGSTATION">
        <path
           style="font-weight:700;font-size:18.5801px;font-family:Arial;fill:#ffffff"
           d="m 109.46627,317.53464 2.60376,0.82558 q -0.59878,2.17736 -1.99591,3.23882 -1.38807,1.05239 -3.52913,1.05239 -2.64912,0 -4.35471,-1.80539 -1.7056,-1.81446 -1.7056,-4.95348 0,-3.32047 1.71467,-5.15308 1.71467,-1.84168 4.50894,-1.84168 2.44045,0 3.9646,1.4425 0.90723,0.8528 1.36085,2.44952 l -2.65819,0.63507 q -0.23588,-1.03425 -0.98888,-1.63302 -0.74393,-0.59877 -1.81447,-0.59877 -1.47878,0 -2.40416,1.06146 -0.9163,1.06146 -0.9163,3.4384 0,2.52211 0.90723,3.59264 0.90723,1.07053 2.3588,1.07053 1.07053,0 1.84168,-0.68042 0.77115,-0.68042 1.10682,-2.14107 z m 4.9172,4.88998 v -13.30001 h 2.6854 v 5.23472 h 5.26194 v -5.23472 h 2.68541 v 13.30001 h -2.68541 v -5.81535 h -5.26194 v 5.81535 z m 25.40248,0 h -2.92129 l -1.16125,-3.02108 h -5.31638 l -1.09775,3.02108 h -2.84871 l 5.18029,-13.30001 h 2.83964 z m -4.94441,-5.26194 -1.83261,-4.93534 -1.79632,4.93534 z m 6.37783,5.26194 v -13.30001 h 5.65205 q 2.132,0 3.09366,0.36289 0.97074,0.35382 1.55137,1.27013 0.58063,0.9163 0.58063,2.0957 0,1.49693 -0.88002,2.47674 -0.88001,0.97074 -2.63097,1.22476 0.87094,0.50805 1.43343,1.1159 0.57155,0.60784 1.53322,2.15921 l 1.62394,2.59468 h -3.2116 l -1.94147,-2.89407 q -1.03425,-1.55136 -1.41528,-1.95054 -0.38104,-0.40826 -0.80744,-0.55342 -0.4264,-0.15422 -1.35177,-0.15422 h -0.54434 v 5.55225 z m 2.68541,-7.67518 h 1.98683 q 1.93241,0 2.41324,-0.1633 0.48083,-0.1633 0.753,-0.56248 0.27217,-0.39918 0.27217,-0.99796 0,-0.67135 -0.36289,-1.0796 -0.35382,-0.41733 -1.00703,-0.5262 -0.3266,-0.0454 -1.95962,-0.0454 h -2.0957 z m 16.91079,2.7852 v -2.24086 h 5.78814 v 5.29823 q -0.84373,0.81651 -2.44953,1.4425 -1.59672,0.61692 -3.23881,0.61692 -2.08664,0 -3.638,-0.87094 -1.55137,-0.88002 -2.33159,-2.50396 -0.78022,-1.63302 -0.78022,-3.54728 0,-2.07756 0.87095,-3.69243 0.87094,-1.61487 2.54932,-2.47674 1.27919,-0.66228 3.18438,-0.66228 2.47674,0 3.8648,1.04332 1.39714,1.03424 1.79632,2.86685 l -2.66726,0.49898 q -0.28124,-0.97981 -1.06146,-1.5423 -0.77114,-0.57155 -1.9324,-0.57155 -1.76003,0 -2.80335,1.11589 -1.03424,1.1159 -1.03424,3.3114 0,2.36787 1.05239,3.55634 1.05239,1.1794 2.75798,1.1794 0.84373,0 1.68745,-0.3266 0.8528,-0.33567 1.46065,-0.80744 v -1.68745 z m 8.18323,4.88998 v -13.30001 h 2.6854 v 13.30001 z m 5.27102,0 v -13.30001 h 2.61282 l 5.44339,8.88179 v -8.88179 h 2.49489 v 13.30001 h -2.69448 l -5.36174,-8.67313 v 8.67313 z m 19.57804,-4.88998 v -2.24086 h 5.78814 v 5.29823 q -0.84373,0.81651 -2.44953,1.4425 -1.59672,0.61692 -3.23881,0.61692 -2.08663,0 -3.638,-0.87094 -1.55137,-0.88002 -2.33158,-2.50396 -0.78022,-1.63302 -0.78022,-3.54728 0,-2.07756 0.87094,-3.69243 0.87094,-1.61487 2.54932,-2.47674 1.27919,-0.66228 3.18438,-0.66228 2.47674,0 3.86481,1.04332 1.39713,1.03424 1.79631,2.86685 l -2.66726,0.49898 q -0.28124,-0.97981 -1.06146,-1.5423 -0.77114,-0.57155 -1.9324,-0.57155 -1.76003,0 -2.80334,1.11589 -1.03425,1.1159 -1.03425,3.3114 0,2.36787 1.05239,3.55634 1.05239,1.1794 2.75798,1.1794 0.84373,0 1.68745,-0.3266 0.8528,-0.33567 1.46065,-0.80744 v -1.68745 z"
           id="path4" />
        <path
           style="font-weight:700;font-size:18.5801px;font-family:Arial;fill:#ffffff"
           d="m 111.46126,342.66009 2.61283,-0.25403 q 0.23588,1.31549 0.95259,1.9324 0.72579,0.61692 1.95055,0.61692 1.29734,0 1.95055,-0.54434 0.66227,-0.55341 0.66227,-1.28827 0,-0.47176 -0.28124,-0.79836 -0.27217,-0.33568 -0.96166,-0.58063 -0.47176,-0.1633 -2.15014,-0.58063 -2.15921,-0.53526 -3.03015,-1.31548 -1.22477,-1.09775 -1.22477,-2.67633 0,-1.0161 0.57156,-1.89612 0.58063,-0.88908 1.66023,-1.35177 1.08868,-0.46269 2.6219,-0.46269 2.50396,0 3.76501,1.09775 1.27013,1.09775 1.33363,2.93036 l -2.6854,0.11794 q -0.17238,-1.02517 -0.74393,-1.46972 -0.56249,-0.45361 -1.69653,-0.45361 -1.17032,0 -1.8326,0.48083 -0.4264,0.30846 -0.4264,0.82558 0,0.47176 0.39918,0.80744 0.50805,0.42639 2.46767,0.88908 1.95962,0.46269 2.89407,0.96167 0.94352,0.4899 1.46971,1.35177 0.53527,0.8528 0.53527,2.11385 0,1.14311 -0.63506,2.14107 -0.63507,0.99795 -1.79632,1.48786 -1.16126,0.48083 -2.89407,0.48083 -2.5221,0 -3.87388,-1.16126 -1.35177,-1.17033 -1.61487,-3.40211 z m 16.06707,4.32749 V 335.9375 h -3.94646 v -2.24993 h 10.56925 v 2.24993 h -3.93739 v 11.05008 z m 18.96684,0 h -2.92129 l -1.16125,-3.02108 h -5.31638 l -1.09775,3.02108 h -2.84871 l 5.18029,-13.30001 h 2.83964 z m -4.94441,-5.26194 -1.83261,-4.93534 -1.79632,4.93534 z m 7.9877,5.26194 V 335.9375 H 145.592 v -2.24993 h 10.56925 v 2.24993 h -3.93739 v 11.05008 z m 8.27395,0 v -13.30001 h 2.6854 v 13.30001 z m 4.69945,-6.56836 q 0,-2.03219 0.60785,-3.41119 0.45361,-1.0161 1.23383,-1.82353 0.78929,-0.80744 1.72374,-1.19755 1.24291,-0.52619 2.86685,-0.52619 2.93943,0 4.69946,1.82353 1.7691,1.82354 1.7691,5.07143 0,3.22067 -1.75095,5.0442 -1.75096,1.81447 -4.68132,1.81447 -2.96665,0 -4.7176,-1.80539 -1.75096,-1.81447 -1.75096,-4.98978 z m 2.76706,-0.0907 q 0,2.25901 1.04331,3.42934 1.04332,1.16125 2.64912,1.16125 1.6058,0 2.63097,-1.15218 1.03424,-1.16126 1.03424,-3.4747 0,-2.28622 -1.00702,-3.41119 -0.99796,-1.12497 -2.65819,-1.12497 -1.66023,0 -2.67633,1.14312 -1.0161,1.13404 -1.0161,3.42933 z m 12.2567,6.65908 v -13.30001 h 2.61282 l 5.44339,8.88179 v -8.88179 h 2.49489 v 13.30001 h -2.69448 l -5.36174,-8.67313 v 8.67313 z"
           id="path5" />
      </g>
      <path
         id="path331"
         d="m 517.386,123.838 h -82.891 v 85.171 h 82.891 z"
         style="fill:#ffffff;fill-opacity:1;fill-rule:nonzero;stroke:none"
         transform="matrix(1.3333333,0,0,-1.3333333,-484.40466,456.5553)"
         clip-path="url(#clipPath332)" />
      <path
         id="path333"
         d="M 0,0 C 2.403,0 4.806,-0.004 7.209,0.001 9.011,0.004 9.453,0.41 9.458,2.158 9.469,5.854 9.462,9.55 9.446,13.245 9.439,14.748 9.022,15.201 7.575,15.206 2.501,15.222 -2.572,15.222 -7.646,15.202 -9.022,15.197 -9.477,14.722 -9.484,13.345 -9.504,9.604 -9.512,5.864 -9.499,2.124 -9.493,0.436 -9.061,0.018 -7.342,0.005 -4.895,-0.013 -2.447,0.001 0,0 m 14.124,-10.934 h -0.768 v -32.274 h 12.811 v -4.922 c -15.277,-0.037 -30.523,-0.008 -45.878,-0.014 v 4.912 h 6.423 c 0.03,0.547 0.071,0.939 0.071,1.332 0.002,19.074 -10e-4,38.149 -0.003,57.223 0,2.514 0.883,3.392 3.363,3.39 6.636,-0.005 13.274,0.003 19.912,0.005 2.29,0 3.222,-0.942 3.222,-3.247 C 13.275,8.384 13.275,1.296 13.274,-5.791 v -1.166 c 0.555,-0.07 1.024,-0.145 1.496,-0.188 1.679,-0.15 2.263,-0.75 2.263,-2.477 -0.001,-2.764 -0.065,-5.527 -0.069,-8.291 -0.007,-4.635 -0.016,-9.271 0.036,-13.904 0.022,-1.967 0.333,-3.912 1.083,-5.747 0.41,-1.003 0.949,-1.931 2.2,-2.094 1.565,-0.203 2.74,0.438 3.18,1.991 0.299,1.056 0.484,2.197 0.438,3.289 -0.121,2.889 -0.212,5.799 -0.646,8.649 -0.905,5.929 -1.116,11.879 -1.058,17.856 0.031,3.12 -0.038,6.241 0.029,9.36 0.027,1.289 -0.376,2.352 -1.136,3.33 -0.246,0.317 -0.495,0.632 -0.765,0.928 -1.285,1.412 -1.994,3 -1.818,4.977 0.116,1.317 0.021,2.653 0.021,4.065 0.698,0.079 1.255,0.142 1.965,0.223 v 5.26 h 1.64 v -5.283 h 2.804 v 5.284 h 1.689 v -5.23 c 0.705,-0.084 1.266,-0.151 2.067,-0.247 0,-1.056 -0.094,-2.114 0.019,-3.149 C 28.981,9.173 28.289,7.1 26.536,5.323 25.431,4.204 24.992,2.834 25.019,1.198 c 0.087,-5.392 -0.092,-10.792 0.102,-16.178 0.137,-3.818 0.709,-7.621 1.092,-11.429 0.334,-3.32 0.929,-6.634 0.415,-9.982 -0.153,-1.001 -0.414,-2.013 -0.808,-2.944 -0.912,-2.161 -2.699,-3.134 -4.965,-3.226 -2.101,-0.085 -3.663,0.888 -4.755,2.667 -1.202,1.956 -1.722,4.153 -1.79,6.37 -0.168,5.475 -0.142,10.958 -0.184,16.437 -0.015,2 -0.002,4.001 -0.002,6.153"
         style="fill:#00a551;fill-opacity:1;fill-rule:nonzero;stroke:none"
         transform="matrix(1.3333333,0,0,-1.3333333,144.14601,215.46197)"
         clip-path="url(#clipPath334)" />
      <path
         id="path335"
         d="M 0,0 V 11.764 H 8.723 V 9.774 H 2.375 V 7.166 H 8.281 V 5.184 H 2.375 V 1.981 H 8.947 V 0 Z"
         style="fill:#ffffff;fill-opacity:1;fill-rule:nonzero;stroke:none"
         transform="matrix(1.3333333,0,0,-1.3333333,138.39534,242.44197)"
         clip-path="url(#clipPath336)" />
      <path
         id="path337"
         d="m 0,0 -4.204,11.764 h 2.575 l 2.978,-8.706 2.88,8.706 h 2.52 L 2.536,0 Z"
         style="fill:#ffffff;fill-opacity:1;fill-rule:nonzero;stroke:none"
         transform="matrix(1.3333333,0,0,-1.3333333,142.39667,265.9833)"
         clip-path="url(#clipPath338)" />
    </g>
  </g>
</svg>
