<?xml version="1.0" encoding="UTF-8" standalone="no"?>
<!-- Created with Inkscape (http://www.inkscape.org/) -->

<svg
   width="60.000088mm"
   height="45.000332mm"
   viewBox="0 0 60.000088 45.000332"
   version="1.1"
   id="svg1"
   inkscape:version="1.4 (86a8ad7, 2024-10-11)"
   sodipodi:docname="contra flow cycle lane.svg"
   xmlns:inkscape="http://www.inkscape.org/namespaces/inkscape"
   xmlns:sodipodi="http://sodipodi.sourceforge.net/DTD/sodipodi-0.dtd"
   xmlns="http://www.w3.org/2000/svg"
   xmlns:svg="http://www.w3.org/2000/svg">
  <sodipodi:namedview
     id="namedview1"
     pagecolor="#ffffff"
     bordercolor="#000000"
     borderopacity="0.25"
     inkscape:showpageshadow="2"
     inkscape:pageopacity="0.0"
     inkscape:pagecheckerboard="0"
     inkscape:deskcolor="#d1d1d1"
     inkscape:document-units="mm"
     inkscape:zoom="2.8756734"
     inkscape:cx="101.54143"
     inkscape:cy="126.75292"
     inkscape:window-width="1920"
     inkscape:window-height="1009"
     inkscape:window-x="-8"
     inkscape:window-y="-8"
     inkscape:window-maximized="1"
     inkscape:current-layer="g4075" />
  <defs
     id="defs1">
    <inkscape:path-effect
       effect="fillet_chamfer"
       id="path-effect1"
       is_visible="true"
       lpeversion="1"
       nodesatellites_param="F,0,0,1,0,0,0,1 @ F,0,0,1,0,0,0,1 @ F,0,0,1,0,0,0,1 @ F,0,0,1,0,0,0,1"
       radius="0"
       unit="px"
       method="auto"
       mode="F"
       chamfer_steps="1"
       flexible="false"
       use_knot_distance="true"
       apply_no_radius="true"
       apply_with_radius="true"
       only_selected="false"
       hide_knots="false" />
    <clipPath
       clipPathUnits="userSpaceOnUse"
       id="clipPath4010">
      <path
         d="M 0,841.89 H 595.276 V 0 H 0 Z"
         transform="translate(-166.51401,-731.52902)"
         id="path4010" />
    </clipPath>
    <clipPath
       clipPathUnits="userSpaceOnUse"
       id="clipPath4012">
      <path
         d="M 0,841.89 H 595.276 V 0 H 0 Z"
         transform="translate(-59.355001,-725.79102)"
         id="path4012" />
    </clipPath>
    <clipPath
       clipPathUnits="userSpaceOnUse"
       id="clipPath4014">
      <path
         d="M 0,841.89 H 595.276 V 0 H 0 Z"
         id="path4014" />
    </clipPath>
    <clipPath
       clipPathUnits="userSpaceOnUse"
       id="clipPath4016">
      <path
         d="M 0,841.89 H 595.276 V 0 H 0 Z"
         transform="translate(-132.939,-632.53702)"
         id="path4016" />
    </clipPath>
    <clipPath
       clipPathUnits="userSpaceOnUse"
       id="clipPath4018">
      <path
         d="M 0,841.89 H 595.276 V 0 H 0 Z"
         transform="translate(-446.64601,-731.52902)"
         id="path4018" />
    </clipPath>
    <clipPath
       clipPathUnits="userSpaceOnUse"
       id="clipPath4020">
      <path
         d="M 0,841.89 H 595.276 V 0 H 0 Z"
         transform="translate(-339.48701,-725.79102)"
         id="path4020" />
    </clipPath>
    <clipPath
       clipPathUnits="userSpaceOnUse"
       id="clipPath4022">
      <path
         d="M 0,841.89 H 595.276 V 0 H 0 Z"
         id="path4022" />
    </clipPath>
    <clipPath
       clipPathUnits="userSpaceOnUse"
       id="clipPath4024">
      <path
         d="M 0,841.89 H 595.276 V 0 H 0 Z"
         transform="translate(-409.44701,-659.97202)"
         id="path4024" />
    </clipPath>
    <clipPath
       clipPathUnits="userSpaceOnUse"
       id="clipPath4028">
      <path
         d="M 0,841.89 H 595.276 V 0 H 0 Z"
         transform="translate(-166.51401,-483.03801)"
         id="path4028" />
    </clipPath>
    <clipPath
       clipPathUnits="userSpaceOnUse"
       id="clipPath4030">
      <path
         d="M 0,841.89 H 595.276 V 0 H 0 Z"
         transform="translate(-59.355001,-477.29901)"
         id="path4030" />
    </clipPath>
    <clipPath
       clipPathUnits="userSpaceOnUse"
       id="clipPath4032">
      <path
         d="M 0,841.89 H 595.276 V 0 H 0 Z"
         id="path4032" />
    </clipPath>
    <clipPath
       clipPathUnits="userSpaceOnUse"
       id="clipPath4034">
      <path
         d="M 0,841.89 H 595.276 V 0 H 0 Z"
         transform="translate(-126.208,-398.81301)"
         id="path4034" />
    </clipPath>
    <clipPath
       clipPathUnits="userSpaceOnUse"
       id="clipPath4052">
      <path
         d="M 0,841.89 H 595.276 V 0 H 0 Z"
         transform="translate(-446.64601,-484.03801)"
         id="path4052" />
    </clipPath>
    <clipPath
       clipPathUnits="userSpaceOnUse"
       id="clipPath4054">
      <path
         d="M 0,841.89 H 595.276 V 0 H 0 Z"
         transform="translate(-339.48701,-478.29901)"
         id="path4054" />
    </clipPath>
    <clipPath
       clipPathUnits="userSpaceOnUse"
       id="clipPath4056">
      <path
         d="M 0,841.89 H 595.276 V 0 H 0 Z"
         id="path4056" />
    </clipPath>
    <clipPath
       clipPathUnits="userSpaceOnUse"
       id="clipPath4058">
      <path
         d="M 0,841.89 H 595.276 V 0 H 0 Z"
         transform="translate(-390.32301,-383.39001)"
         id="path4058" />
    </clipPath>
    <clipPath
       clipPathUnits="userSpaceOnUse"
       id="clipPath4060">
      <path
         d="M 0,841.89 H 595.276 V 0 H 0 Z"
         transform="translate(-414.75501,-408.07801)"
         id="path4060" />
    </clipPath>
    <clipPath
       clipPathUnits="userSpaceOnUse"
       id="clipPath2032">
      <path
         d="M 0,6.109 H 350.911 V 841.89 H 0 Z"
         transform="translate(-202.28701,-239.73901)"
         id="path2032" />
    </clipPath>
    <clipPath
       clipPathUnits="userSpaceOnUse"
       id="clipPath2034">
      <path
         d="M 0,6.109 H 350.911 V 841.89 H 0 Z"
         transform="translate(-95.127602,-234.001)"
         id="path2034" />
    </clipPath>
    <clipPath
       clipPathUnits="userSpaceOnUse"
       id="clipPath2036">
      <path
         d="M 0,6.109 H 350.911 V 841.89 H 0 Z"
         id="path2036" />
    </clipPath>
    <clipPath
       clipPathUnits="userSpaceOnUse"
       id="clipPath2038">
      <path
         d="M 0,6.109 H 350.911 V 841.89 H 0 Z"
         transform="translate(-130.918,-151.443)"
         id="path2038" />
    </clipPath>
    <clipPath
       clipPathUnits="userSpaceOnUse"
       id="clipPath2040">
      <path
         d="M 0,6.109 H 350.911 V 841.89 H 0 Z"
         transform="translate(-163.501,-151.443)"
         id="path2040" />
    </clipPath>
    <clipPath
       clipPathUnits="userSpaceOnUse"
       id="clipPath2042">
      <path
         d="M 0,6.109 H 350.911 V 841.89 H 0 Z"
         transform="translate(-177.469,-165.54201)"
         id="path2042" />
    </clipPath>
    <clipPath
       clipPathUnits="userSpaceOnUse"
       id="clipPath2080">
      <path
         d="m 292.576,0 h 302.7 v 364.09 h -302.7 z"
         transform="translate(-495.56801,-228.232)"
         id="path2080" />
    </clipPath>
    <clipPath
       clipPathUnits="userSpaceOnUse"
       id="clipPath2082">
      <path
         d="m 292.576,0 h 302.7 v 364.09 h -302.7 z"
         transform="translate(-340.92001,-111.17001)"
         id="path2082" />
    </clipPath>
    <clipPath
       clipPathUnits="userSpaceOnUse"
       id="clipPath2084">
      <path
         d="m 292.576,0 h 302.7 v 364.09 h -302.7 z"
         transform="translate(-378.26301,-156.23001)"
         id="path2084" />
    </clipPath>
    <clipPath
       clipPathUnits="userSpaceOnUse"
       id="clipPath2086">
      <path
         d="m 292.576,0 h 302.7 v 364.09 h -302.7 z"
         transform="translate(-434.26201,-156.23001)"
         id="path2086" />
    </clipPath>
    <clipPath
       clipPathUnits="userSpaceOnUse"
       id="clipPath2088">
      <path
         d="m 292.576,0 h 302.7 v 364.09 h -302.7 z"
         transform="translate(-458.27001,-180.46101)"
         id="path2088" />
    </clipPath>
    <clipPath
       clipPathUnits="userSpaceOnUse"
       id="clipPath2090">
      <path
         d="m 292.576,0 h 302.7 v 364.09 h -302.7 z"
         id="path2090" />
    </clipPath>
    <clipPath
       clipPathUnits="userSpaceOnUse"
       id="clipPath2990">
      <path
         d="M 0,841.89 H 595.276 V 0 H 0 Z"
         transform="translate(-210.28701,-754.90402)"
         id="path2990" />
    </clipPath>
    <clipPath
       clipPathUnits="userSpaceOnUse"
       id="clipPath2992">
      <path
         d="M 0,841.89 H 595.276 V 0 H 0 Z"
         transform="translate(-55.637201,-637.84202)"
         id="path2992" />
    </clipPath>
    <clipPath
       clipPathUnits="userSpaceOnUse"
       id="clipPath2994">
      <path
         d="M 0,841.89 H 595.276 V 0 H 0 Z"
         transform="translate(-147.859,-709.68602)"
         id="path2994" />
    </clipPath>
    <clipPath
       clipPathUnits="userSpaceOnUse"
       id="clipPath2996">
      <path
         d="M 0,841.89 H 595.276 V 0 H 0 Z"
         transform="translate(-185.32,-709.68602)"
         id="path2996" />
    </clipPath>
    <clipPath
       clipPathUnits="userSpaceOnUse"
       id="clipPath2998">
      <path
         d="M 0,841.89 H 595.276 V 0 H 0 Z"
         transform="translate(-201.38001,-725.89602)"
         id="path2998" />
    </clipPath>
    <clipPath
       clipPathUnits="userSpaceOnUse"
       id="clipPath3000">
      <path
         d="M 0,841.89 H 595.276 V 0 H 0 Z"
         id="path3000" />
    </clipPath>
    <clipPath
       clipPathUnits="userSpaceOnUse"
       id="clipPath3002">
      <path
         d="M 0,841.89 H 595.276 V 0 H 0 Z"
         transform="translate(-77.893104,-700.55302)"
         id="path3002" />
    </clipPath>
    <clipPath
       clipPathUnits="userSpaceOnUse"
       id="clipPath3004">
      <path
         d="M 0,841.89 H 595.276 V 0 H 0 Z"
         transform="translate(-173.232,-664.50302)"
         id="path3004" />
    </clipPath>
    <clipPath
       clipPathUnits="userSpaceOnUse"
       id="clipPath3006">
      <path
         d="M 0,841.89 H 595.276 V 0 H 0 Z"
         transform="translate(-456.08401,-762.46702)"
         id="path3006" />
    </clipPath>
    <clipPath
       clipPathUnits="userSpaceOnUse"
       id="clipPath3008">
      <path
         d="M 0,841.89 H 595.276 V 0 H 0 Z"
         transform="translate(-301.43601,-645.40402)"
         id="path3008" />
    </clipPath>
    <clipPath
       clipPathUnits="userSpaceOnUse"
       id="clipPath3010">
      <path
         d="M 0,841.89 H 595.276 V 0 H 0 Z"
         id="path3010" />
    </clipPath>
    <clipPath
       clipPathUnits="userSpaceOnUse"
       id="clipPath3012">
      <path
         d="M 0,841.89 H 595.276 V 0 H 0 Z"
         transform="translate(-404.66801,-702.70202)"
         id="path3012" />
    </clipPath>
    <clipPath
       clipPathUnits="userSpaceOnUse"
       id="clipPath3020">
      <path
         d="M 0,841.89 H 595.276 V 0 H 0 Z"
         id="path3020" />
    </clipPath>
    <clipPath
       clipPathUnits="userSpaceOnUse"
       id="clipPath3022">
      <path
         d="M 0,841.89 H 595.276 V 0 H 0 Z"
         transform="translate(-166.60701,-516.33601)"
         id="path3022" />
    </clipPath>
    <clipPath
       clipPathUnits="userSpaceOnUse"
       id="clipPath3024">
      <path
         d="M 0,841.89 H 595.276 V 0 H 0 Z"
         transform="translate(-44.418001,-487.91501)"
         id="path3024" />
    </clipPath>
    <clipPath
       clipPathUnits="userSpaceOnUse"
       id="clipPath3026">
      <path
         d="M 0,841.89 H 595.276 V 0 H 0 Z"
         transform="translate(-67.293902,-487.91501)"
         id="path3026" />
    </clipPath>
    <clipPath
       clipPathUnits="userSpaceOnUse"
       id="clipPath3028">
      <path
         d="M 0,841.89 H 595.276 V 0 H 0 Z"
         transform="translate(-149.41401,-456.52801)"
         id="path3028" />
    </clipPath>
    <clipPath
       clipPathUnits="userSpaceOnUse"
       id="clipPath3030">
      <path
         d="M 0,841.89 H 595.276 V 0 H 0 Z"
         transform="translate(-124.242,-479.11501)"
         id="path3030" />
    </clipPath>
  </defs>
  <g
     inkscape:label="Layer 1"
     inkscape:groupmode="layer"
     id="layer1"
     transform="translate(-75.786002,-126.76909)">
    <g
       id="g4075"
       transform="matrix(0.26458333,0,0,0.26458333,65.313981,79.600425)">
      <path
         style="fill:#ffffff;stroke:#ffffff;stroke-width:0.877059"
         id="rect1"
         width="169.20169"
         height="225.89459"
         x="65.582489"
         y="147.58603"
         inkscape:path-effect="#path-effect1"
         sodipodi:type="rect"
         d="M 65.582489,147.58603 H 234.78418 V 373.48062 H 65.582489 Z"
         transform="rotate(-90,152.96529,260.53332)" />
      <path
         id="path3005"
         d="m 0,0 h -150.696 c -5.345,0 -9.692,-4.445 -9.692,-9.903 v -107.833 c 0,-5.417 4.347,-9.825 9.692,-9.825 H 0 c 5.343,0 9.691,4.408 9.691,9.825 V -9.903 C 9.691,-4.445 5.343,0 0,0 m 0,-0.573 c 5.028,0 9.118,-4.186 9.118,-9.33 v -107.833 c 0,-5.101 -4.09,-9.25 -9.118,-9.25 h -150.696 c -5.028,0 -9.118,4.149 -9.118,9.25 V -9.903 c 0,5.144 4.09,9.33 9.118,9.33 L 0,-0.573"
         style="fill:#4467a5;fill-opacity:1;fill-rule:nonzero;stroke:none"
         transform="matrix(1.3333333,0,0,-1.3333333,253.42995,178.2746)"
         clip-path="url(#clipPath3006)" />
      <path
         id="path3007"
         d="M 0,0 C 0,-2.552 2.079,-4.628 4.635,-4.628 H 153.97 c 2.554,0 4.634,2.076 4.634,4.628 v 106.484 c 0,2.594 -2.08,4.704 -4.634,4.704 H 4.635 C 2.079,111.188 0,109.078 0,106.484 Z"
         style="fill:#4467a5;fill-opacity:1;fill-rule:nonzero;stroke:none"
         transform="matrix(1.3333333,0,0,-1.3333333,47.23262,334.3586)"
         clip-path="url(#clipPath3008)" />
      <g
         id="g5058"
         transform="translate(7.3859512,-215.04141)">
        <path
           id="path3019"
           d="m 99.268,427.846 h -9.213 v 110.553 h 9.213 z"
           style="fill:#ffffff;fill-opacity:1;fill-rule:nonzero;stroke:none"
           transform="matrix(1.3333333,0,0,-1.3333333,0,1122.52)"
           clip-path="url(#clipPath3020)" />
        <path
           id="path3021"
           d="m 0,0 c -1.656,0.003 -3.231,-0.331 -4.665,-0.937 l -4.772,8.243 0.896,2.604 c 0,0 0.462,0.1 1.139,0.245 0.678,0.145 1.63,1.383 1.975,2.133 0.347,0.751 -0.264,0.798 -0.264,0.798 h -10.337 c -0.969,0 -1.674,-1.516 -0.245,-1.954 l 4.64,-1.058 -1.059,-3.012 h -21.972 c 0,0 0.238,0.874 0.526,2.194 0.289,1.32 -0.408,1.821 -1.256,2.687 -0.847,0.87 0.324,1.143 0.324,1.143 h 4.64 v 3.01 h -5.617 c 0,0 -1.928,-0.127 -2.683,-1.384 -0.538,-0.888 -0.855,-3.489 0.665,-4.242 1.513,-0.755 0.471,-2.671 0.471,-2.671 0,0 -1.193,-4.49 -2.297,-8.584 -1.315,0.498 -2.733,0.784 -4.218,0.785 -6.615,0.011 -11.972,-5.343 -11.972,-11.961 0.003,-6.615 5.369,-11.99 11.98,-12 6.613,-0.01 11.972,5.347 11.967,11.963 -0.002,4.033 -1.999,7.595 -5.054,9.769 l 0.41,1.561 13.985,-9.828 c -0.142,-0.461 -0.242,-0.943 -0.242,-1.451 0,-2.749 2.232,-4.98 4.981,-4.98 0.5,0 0.974,0.097 1.429,0.234 l 0.76,-1.634 h -1.302 v -1.628 h 1.302 c 0,0 0.725,-0.694 1.464,-0.569 0.741,0.126 0.896,0.569 0.896,0.569 h 1.303 v 1.628 h -2.115 l -1.028,2.21 c 1.073,0.696 1.856,1.792 2.144,3.076 l 0.021,0.002 h 1.266 c 0.548,-6.11 5.674,-10.912 11.925,-10.921 6.609,-0.011 11.969,5.346 11.967,11.962 C 11.976,-5.38 6.611,-0.01 0,0 m -35.595,-11.998 c 0.002,-2.273 -0.878,-4.41 -2.481,-6.014 -1.605,-1.604 -3.737,-2.486 -6.005,-2.486 h -0.018 c -4.697,0.004 -8.518,3.833 -8.518,8.538 -0.004,2.272 0.878,4.41 2.481,6.013 1.606,1.605 3.736,2.486 6.002,2.486 1.185,-0.003 2.31,-0.246 3.33,-0.682 -0.45,-1.651 -0.797,-2.891 -0.895,-3.169 -0.365,-1.029 -1.192,-1.896 -1.607,-2.426 -0.419,-0.532 -2.719,-1.418 -1.774,-2.893 0.983,-1.535 2.782,0.119 3.312,0.342 1.727,0.724 2.955,3.809 2.955,3.809 l 0.667,2.557 c 1.573,-1.551 2.551,-3.7 2.551,-6.075 m -0.29,14.421 0.408,1.63 h 21.647 l -4.008,-11.041 c -0.074,0.004 -0.141,0.022 -0.216,0.022 -0.505,0 -0.976,-0.096 -1.435,-0.236 l -0.768,1.651 h 1.381 v 1.628 h -1.381 c 0,0 -0.563,0.65 -1.385,0.569 -0.821,-0.081 -0.895,-0.569 -0.895,-0.569 h -1.384 v -1.628 h 2.115 l 1.038,-2.229 c -0.105,-0.068 -0.194,-0.147 -0.293,-0.221 z m 17.833,-17.618 c -1.796,0 -3.256,1.455 -3.256,3.248 0,1.793 1.46,3.249 3.256,3.249 1.792,0 3.251,-1.456 3.251,-3.249 0,-1.793 -1.459,-3.248 -3.251,-3.248 m 4.849,4.349 c -0.258,1.134 -0.907,2.109 -1.792,2.804 l 4.256,11.685 3.492,-6.092 c -2.587,-1.972 -4.349,-4.969 -4.663,-8.397 z m 7.695,5.366 3.07,-5.36 -5.989,-0.005 c 0.238,1.851 1.066,3.561 2.403,4.898 0.167,0.165 0.339,0.318 0.516,0.467 M 6.035,-18.012 c -1.606,-1.604 -3.736,-2.486 -6.002,-2.486 h -0.02 c -4.33,0.004 -7.911,3.264 -8.445,7.459 h 8.52 c 1.761,0 1.73,1.147 0.933,2.269 l -3.931,6.796 c 0.915,0.33 1.886,0.513 2.889,0.513 4.714,-0.007 8.539,-3.836 8.539,-8.537 10e-4,-2.273 -0.881,-4.41 -2.483,-6.014"
           style="fill:#ffffff;fill-opacity:1;fill-rule:nonzero;stroke:none"
           transform="matrix(1.3333333,0,0,-1.3333333,222.14267,434.072)"
           clip-path="url(#clipPath3022)" />
        <path
           id="path3023"
           d="M 0,0 V -28.181 H 9.268 V 0 h 4.633 L 4.634,16.053 -4.634,0 Z"
           style="fill:#ffffff;fill-opacity:1;fill-rule:nonzero;stroke:none"
           transform="matrix(1.3333333,0,0,-1.3333333,59.224,471.96667)"
           clip-path="url(#clipPath3024)" />
        <path
           id="path3025"
           d="M 0,0 V -28.181 H 9.268 V 0 h 4.633 L 4.634,16.053 -4.634,0 Z"
           style="fill:#ffffff;fill-opacity:1;fill-rule:nonzero;stroke:none"
           transform="matrix(1.3333333,0,0,-1.3333333,89.7252,471.96667)"
           clip-path="url(#clipPath3026)" />
        <path
           id="path3027"
           d="M 0,0 V 18.094 H -9.347 V 0 H -14.02 L -4.673,-16.189 4.674,0 Z"
           style="fill:#ffffff;fill-opacity:1;fill-rule:nonzero;stroke:none"
           transform="matrix(1.3333333,0,0,-1.3333333,199.21867,513.816)"
           clip-path="url(#clipPath3028)" />
        <path
           id="path3029"
           d="m 0,0 c -0.463,0 -1.136,-0.814 -1.136,-2.092 v -39.114 c 0,-1.26 0.673,-2.065 1.136,-2.065 h 40.997 c 0.464,0 1.137,0.805 1.137,2.065 V -2.092 C 42.134,-0.814 41.461,0 40.997,0 Z M 40.997,-46.271 H 0 c -2.319,0 -4.136,2.226 -4.136,5.065 V -2.092 C -4.136,0.764 -2.319,3 0,3 h 40.997 c 2.319,0 4.137,-2.236 4.137,-5.092 v -39.114 c 0,-2.839 -1.818,-5.065 -4.137,-5.065"
           style="fill:#ffffff;fill-opacity:1;fill-rule:nonzero;stroke:none"
           transform="matrix(1.3333333,0,0,-1.3333333,165.656,483.7)"
           clip-path="url(#clipPath3030)" />
      </g>
    </g>
  </g>
</svg>
