<?xml version="1.0" encoding="UTF-8" standalone="no"?>
<!-- Created with Inkscape (http://www.inkscape.org/) -->

<svg
   width="60.000088mm"
   height="45.000332mm"
   viewBox="0 0 60.000088 45.000332"
   version="1.1"
   id="svg1"
   inkscape:version="1.4 (86a8ad7, 2024-10-11)"
   sodipodi:docname="contra flow bus lane.svg"
   xmlns:inkscape="http://www.inkscape.org/namespaces/inkscape"
   xmlns:sodipodi="http://sodipodi.sourceforge.net/DTD/sodipodi-0.dtd"
   xmlns="http://www.w3.org/2000/svg"
   xmlns:svg="http://www.w3.org/2000/svg">
  <sodipodi:namedview
     id="namedview1"
     pagecolor="#ffffff"
     bordercolor="#000000"
     borderopacity="0.25"
     inkscape:showpageshadow="2"
     inkscape:pageopacity="0.0"
     inkscape:pagecheckerboard="0"
     inkscape:deskcolor="#d1d1d1"
     inkscape:document-units="mm"
     inkscape:zoom="2.8756734"
     inkscape:cx="84.84969"
     inkscape:cy="110.75667"
     inkscape:window-width="1920"
     inkscape:window-height="1009"
     inkscape:window-x="-8"
     inkscape:window-y="-8"
     inkscape:window-maximized="1"
     inkscape:current-layer="g4075" />
  <defs
     id="defs1">
    <inkscape:path-effect
       effect="fillet_chamfer"
       id="path-effect1"
       is_visible="true"
       lpeversion="1"
       nodesatellites_param="F,0,0,1,0,0,0,1 @ F,0,0,1,0,0,0,1 @ F,0,0,1,0,0,0,1 @ F,0,0,1,0,0,0,1"
       radius="0"
       unit="px"
       method="auto"
       mode="F"
       chamfer_steps="1"
       flexible="false"
       use_knot_distance="true"
       apply_no_radius="true"
       apply_with_radius="true"
       only_selected="false"
       hide_knots="false" />
    <clipPath
       clipPathUnits="userSpaceOnUse"
       id="clipPath4010">
      <path
         d="M 0,841.89 H 595.276 V 0 H 0 Z"
         transform="translate(-166.51401,-731.52902)"
         id="path4010" />
    </clipPath>
    <clipPath
       clipPathUnits="userSpaceOnUse"
       id="clipPath4012">
      <path
         d="M 0,841.89 H 595.276 V 0 H 0 Z"
         transform="translate(-59.355001,-725.79102)"
         id="path4012" />
    </clipPath>
    <clipPath
       clipPathUnits="userSpaceOnUse"
       id="clipPath4014">
      <path
         d="M 0,841.89 H 595.276 V 0 H 0 Z"
         id="path4014" />
    </clipPath>
    <clipPath
       clipPathUnits="userSpaceOnUse"
       id="clipPath4016">
      <path
         d="M 0,841.89 H 595.276 V 0 H 0 Z"
         transform="translate(-132.939,-632.53702)"
         id="path4016" />
    </clipPath>
    <clipPath
       clipPathUnits="userSpaceOnUse"
       id="clipPath4018">
      <path
         d="M 0,841.89 H 595.276 V 0 H 0 Z"
         transform="translate(-446.64601,-731.52902)"
         id="path4018" />
    </clipPath>
    <clipPath
       clipPathUnits="userSpaceOnUse"
       id="clipPath4020">
      <path
         d="M 0,841.89 H 595.276 V 0 H 0 Z"
         transform="translate(-339.48701,-725.79102)"
         id="path4020" />
    </clipPath>
    <clipPath
       clipPathUnits="userSpaceOnUse"
       id="clipPath4022">
      <path
         d="M 0,841.89 H 595.276 V 0 H 0 Z"
         id="path4022" />
    </clipPath>
    <clipPath
       clipPathUnits="userSpaceOnUse"
       id="clipPath4024">
      <path
         d="M 0,841.89 H 595.276 V 0 H 0 Z"
         transform="translate(-409.44701,-659.97202)"
         id="path4024" />
    </clipPath>
    <clipPath
       clipPathUnits="userSpaceOnUse"
       id="clipPath4028">
      <path
         d="M 0,841.89 H 595.276 V 0 H 0 Z"
         transform="translate(-166.51401,-483.03801)"
         id="path4028" />
    </clipPath>
    <clipPath
       clipPathUnits="userSpaceOnUse"
       id="clipPath4030">
      <path
         d="M 0,841.89 H 595.276 V 0 H 0 Z"
         transform="translate(-59.355001,-477.29901)"
         id="path4030" />
    </clipPath>
    <clipPath
       clipPathUnits="userSpaceOnUse"
       id="clipPath4032">
      <path
         d="M 0,841.89 H 595.276 V 0 H 0 Z"
         id="path4032" />
    </clipPath>
    <clipPath
       clipPathUnits="userSpaceOnUse"
       id="clipPath4034">
      <path
         d="M 0,841.89 H 595.276 V 0 H 0 Z"
         transform="translate(-126.208,-398.81301)"
         id="path4034" />
    </clipPath>
    <clipPath
       clipPathUnits="userSpaceOnUse"
       id="clipPath4052">
      <path
         d="M 0,841.89 H 595.276 V 0 H 0 Z"
         transform="translate(-446.64601,-484.03801)"
         id="path4052" />
    </clipPath>
    <clipPath
       clipPathUnits="userSpaceOnUse"
       id="clipPath4054">
      <path
         d="M 0,841.89 H 595.276 V 0 H 0 Z"
         transform="translate(-339.48701,-478.29901)"
         id="path4054" />
    </clipPath>
    <clipPath
       clipPathUnits="userSpaceOnUse"
       id="clipPath4056">
      <path
         d="M 0,841.89 H 595.276 V 0 H 0 Z"
         id="path4056" />
    </clipPath>
    <clipPath
       clipPathUnits="userSpaceOnUse"
       id="clipPath4058">
      <path
         d="M 0,841.89 H 595.276 V 0 H 0 Z"
         transform="translate(-390.32301,-383.39001)"
         id="path4058" />
    </clipPath>
    <clipPath
       clipPathUnits="userSpaceOnUse"
       id="clipPath4060">
      <path
         d="M 0,841.89 H 595.276 V 0 H 0 Z"
         transform="translate(-414.75501,-408.07801)"
         id="path4060" />
    </clipPath>
    <clipPath
       clipPathUnits="userSpaceOnUse"
       id="clipPath2032">
      <path
         d="M 0,6.109 H 350.911 V 841.89 H 0 Z"
         transform="translate(-202.28701,-239.73901)"
         id="path2032" />
    </clipPath>
    <clipPath
       clipPathUnits="userSpaceOnUse"
       id="clipPath2034">
      <path
         d="M 0,6.109 H 350.911 V 841.89 H 0 Z"
         transform="translate(-95.127602,-234.001)"
         id="path2034" />
    </clipPath>
    <clipPath
       clipPathUnits="userSpaceOnUse"
       id="clipPath2036">
      <path
         d="M 0,6.109 H 350.911 V 841.89 H 0 Z"
         id="path2036" />
    </clipPath>
    <clipPath
       clipPathUnits="userSpaceOnUse"
       id="clipPath2038">
      <path
         d="M 0,6.109 H 350.911 V 841.89 H 0 Z"
         transform="translate(-130.918,-151.443)"
         id="path2038" />
    </clipPath>
    <clipPath
       clipPathUnits="userSpaceOnUse"
       id="clipPath2040">
      <path
         d="M 0,6.109 H 350.911 V 841.89 H 0 Z"
         transform="translate(-163.501,-151.443)"
         id="path2040" />
    </clipPath>
    <clipPath
       clipPathUnits="userSpaceOnUse"
       id="clipPath2042">
      <path
         d="M 0,6.109 H 350.911 V 841.89 H 0 Z"
         transform="translate(-177.469,-165.54201)"
         id="path2042" />
    </clipPath>
    <clipPath
       clipPathUnits="userSpaceOnUse"
       id="clipPath2080">
      <path
         d="m 292.576,0 h 302.7 v 364.09 h -302.7 z"
         transform="translate(-495.56801,-228.232)"
         id="path2080" />
    </clipPath>
    <clipPath
       clipPathUnits="userSpaceOnUse"
       id="clipPath2082">
      <path
         d="m 292.576,0 h 302.7 v 364.09 h -302.7 z"
         transform="translate(-340.92001,-111.17001)"
         id="path2082" />
    </clipPath>
    <clipPath
       clipPathUnits="userSpaceOnUse"
       id="clipPath2084">
      <path
         d="m 292.576,0 h 302.7 v 364.09 h -302.7 z"
         transform="translate(-378.26301,-156.23001)"
         id="path2084" />
    </clipPath>
    <clipPath
       clipPathUnits="userSpaceOnUse"
       id="clipPath2086">
      <path
         d="m 292.576,0 h 302.7 v 364.09 h -302.7 z"
         transform="translate(-434.26201,-156.23001)"
         id="path2086" />
    </clipPath>
    <clipPath
       clipPathUnits="userSpaceOnUse"
       id="clipPath2088">
      <path
         d="m 292.576,0 h 302.7 v 364.09 h -302.7 z"
         transform="translate(-458.27001,-180.46101)"
         id="path2088" />
    </clipPath>
    <clipPath
       clipPathUnits="userSpaceOnUse"
       id="clipPath2090">
      <path
         d="m 292.576,0 h 302.7 v 364.09 h -302.7 z"
         id="path2090" />
    </clipPath>
    <clipPath
       clipPathUnits="userSpaceOnUse"
       id="clipPath2990">
      <path
         d="M 0,841.89 H 595.276 V 0 H 0 Z"
         transform="translate(-210.28701,-754.90402)"
         id="path2990" />
    </clipPath>
    <clipPath
       clipPathUnits="userSpaceOnUse"
       id="clipPath2992">
      <path
         d="M 0,841.89 H 595.276 V 0 H 0 Z"
         transform="translate(-55.637201,-637.84202)"
         id="path2992" />
    </clipPath>
    <clipPath
       clipPathUnits="userSpaceOnUse"
       id="clipPath2994">
      <path
         d="M 0,841.89 H 595.276 V 0 H 0 Z"
         transform="translate(-147.859,-709.68602)"
         id="path2994" />
    </clipPath>
    <clipPath
       clipPathUnits="userSpaceOnUse"
       id="clipPath2996">
      <path
         d="M 0,841.89 H 595.276 V 0 H 0 Z"
         transform="translate(-185.32,-709.68602)"
         id="path2996" />
    </clipPath>
    <clipPath
       clipPathUnits="userSpaceOnUse"
       id="clipPath2998">
      <path
         d="M 0,841.89 H 595.276 V 0 H 0 Z"
         transform="translate(-201.38001,-725.89602)"
         id="path2998" />
    </clipPath>
    <clipPath
       clipPathUnits="userSpaceOnUse"
       id="clipPath3000">
      <path
         d="M 0,841.89 H 595.276 V 0 H 0 Z"
         id="path3000" />
    </clipPath>
    <clipPath
       clipPathUnits="userSpaceOnUse"
       id="clipPath3002">
      <path
         d="M 0,841.89 H 595.276 V 0 H 0 Z"
         transform="translate(-77.893104,-700.55302)"
         id="path3002" />
    </clipPath>
    <clipPath
       clipPathUnits="userSpaceOnUse"
       id="clipPath3004">
      <path
         d="M 0,841.89 H 595.276 V 0 H 0 Z"
         transform="translate(-173.232,-664.50302)"
         id="path3004" />
    </clipPath>
  </defs>
  <g
     inkscape:label="Layer 1"
     inkscape:groupmode="layer"
     id="layer1"
     transform="translate(-75.786002,-126.76909)">
    <g
       id="g4075"
       transform="matrix(0.26458333,0,0,0.26458333,65.313981,79.600425)">
      <path
         style="fill:#ffffff;stroke:#ffffff;stroke-width:0.877059"
         id="rect1"
         width="169.20169"
         height="225.89459"
         x="65.582489"
         y="147.58603"
         inkscape:path-effect="#path-effect1"
         sodipodi:type="rect"
         d="M 65.582489,147.58603 H 234.78418 V 373.48062 H 65.582489 Z"
         transform="rotate(-90,152.96529,260.53332)" />
      <path
         id="path2989"
         d="m 0,0 h -150.697 c -5.345,0 -9.692,-4.444 -9.692,-9.902 v -107.833 c 0,-5.417 4.347,-9.824 9.692,-9.824 H 0 c 5.342,0 9.691,4.407 9.691,9.824 V -9.902 C 9.691,-4.444 5.342,0 0,0 m 0,-0.571 c 5.027,0 9.118,-4.188 9.118,-9.331 v -107.833 c 0,-5.102 -4.091,-9.25 -9.118,-9.25 h -150.697 c -5.028,0 -9.118,4.148 -9.118,9.25 V -9.902 c 0,5.143 4.09,9.331 9.118,9.331 L 0,-0.571"
         style="fill:#4467a5;fill-opacity:1;fill-rule:nonzero;stroke:none"
         transform="matrix(1.3333333,0,0,-1.3333333,253.43062,178.27594)"
         clip-path="url(#clipPath2990)" />
      <path
         id="path2991"
         d="M 0,0 C 0,-2.552 2.079,-4.628 4.635,-4.628 H 153.97 c 2.554,0 4.634,2.076 4.634,4.628 v 106.485 c 0,2.594 -2.08,4.704 -4.634,4.704 H 4.635 C 2.079,111.189 0,109.079 0,106.485 Z"
         style="fill:#4467a5;fill-opacity:1;fill-rule:nonzero;stroke:none"
         transform="matrix(1.3333333,0,0,-1.3333333,47.23088,334.35861)"
         clip-path="url(#clipPath2992)" />
      <path
         id="path2993"
         d="m 0,0 c -2.408,0 -4.364,-1.949 -4.364,-4.358 0,-2.411 1.956,-4.364 4.364,-4.364 2.408,0 4.364,1.953 4.364,4.364 C 4.364,-1.949 2.408,0 0,0 m 0,-6.159 c -0.994,0 -1.799,0.806 -1.799,1.801 0,0.99 0.805,1.797 1.799,1.797 0.994,0 1.802,-0.807 1.802,-1.797 0,-0.995 -0.808,-1.801 -1.802,-1.801"
         style="fill:#ffffff;fill-opacity:1;fill-rule:nonzero;stroke:none"
         transform="matrix(1.3333333,0,0,-1.3333333,170.19328,238.56661)"
         clip-path="url(#clipPath2994)" />
      <path
         id="path2995"
         d="m 0,0 c -2.411,0 -4.364,-1.949 -4.364,-4.358 0,-2.411 1.953,-4.364 4.364,-4.364 2.411,0 4.365,1.953 4.365,4.364 C 4.365,-1.949 2.411,0 0,0 m 0,-6.159 c -0.996,0 -1.802,0.806 -1.802,1.801 0,0.99 0.806,1.797 1.802,1.797 0.994,0 1.8,-0.807 1.8,-1.797 0,-0.995 -0.806,-1.801 -1.8,-1.801"
         style="fill:#ffffff;fill-opacity:1;fill-rule:nonzero;stroke:none"
         transform="matrix(1.3333333,0,0,-1.3333333,220.14128,238.56661)"
         clip-path="url(#clipPath2996)" />
      <path
         id="path2997"
         d="m 0,0 h -67.186 c -1.204,0 -1.585,-0.302 -1.738,-1.67 -0.099,-0.934 -0.4,-9.567 -0.4,-9.567 -0.468,0 -0.934,-0.372 -0.934,-0.934 0,-0.933 0.023,-6.179 0.023,-7.766 0,-1.297 1.405,-1.834 2.837,-1.834 h 8.619 c -0.088,0.389 -0.145,0.789 -0.145,1.203 0,2.978 2.421,5.394 5.403,5.394 2.983,0 5.407,-2.416 5.407,-5.394 0,-0.414 -0.059,-0.814 -0.15,-1.203 h 26.944 c -0.089,0.389 -0.142,0.789 -0.142,1.203 0,2.978 2.418,5.394 5.401,5.394 2.985,0 5.405,-2.416 5.405,-5.394 0,-0.372 -0.041,-0.736 -0.112,-1.082 l 15.46,2.923 V -4.681 C 4.692,-1.802 2.592,0 0,0 m -60.887,-18.327 c 0,-0.598 -0.482,-1.078 -1.082,-1.078 h -3.046 c -0.599,0 -1.081,0.48 -1.081,1.078 v 14.351 c 0,0.592 0.482,1.079 1.081,1.079 h 3.046 c 0.6,0 1.082,-0.487 1.082,-1.079 z m 16.391,10.796 c 0,-0.597 -0.485,-1.077 -1.085,-1.077 h -10.883 c -0.598,0 -1.085,0.48 -1.085,1.077 v 3.555 c 0,0.592 0.487,1.079 1.085,1.079 h 10.883 c 0.6,0 1.085,-0.487 1.085,-1.079 z m 15.465,0 c 0,-0.597 -0.486,-1.077 -1.082,-1.077 h -10.886 c -0.597,0 -1.081,0.48 -1.081,1.077 v 3.555 c 0,0.592 0.484,1.079 1.081,1.079 h 10.886 c 0.596,0 1.082,-0.487 1.082,-1.079 z m 15.465,0 c 0,-0.597 -0.482,-1.077 -1.08,-1.077 H -25.53 c -0.598,0 -1.083,0.48 -1.083,1.077 v 3.555 c 0,0.592 0.485,1.079 1.083,1.079 h 10.884 c 0.598,0 1.08,-0.487 1.08,-1.079 z M 2.519,-7.682 c 0,-0.593 -0.488,-1.079 -1.082,-1.079 H -9.449 c -0.597,0 -1.081,0.486 -1.081,1.079 v 3.554 c 0,0.599 0.484,1.083 1.081,1.083 h 8.262 c 2.467,0 3.706,-0.97 3.706,-3.168 z"
         style="fill:#ffffff;fill-opacity:1;fill-rule:nonzero;stroke:none"
         transform="matrix(1.3333333,0,0,-1.3333333,241.55462,216.95328)"
         clip-path="url(#clipPath2998)" />
      <path
         id="path2999"
         d="m 121.963,635.85 h -9.213 v 110.551 h 9.213 z"
         style="fill:#ffffff;fill-opacity:1;fill-rule:nonzero;stroke:none"
         transform="matrix(1.3333333,0,0,-1.3333333,-26.952053,1184.8146)"
         clip-path="url(#clipPath3000)" />
      <path
         id="path3001"
         d="M 0,0 V -52.102 H 17.135 V 0 h 8.567 L 8.567,29.68 -8.567,0 Z"
         style="fill:#ffffff;fill-opacity:1;fill-rule:nonzero;stroke:none"
         transform="matrix(1.3333333,0,0,-1.3333333,76.905417,250.74394)"
         clip-path="url(#clipPath3002)" />
      <path
         id="path3003"
         d="M 0,0 V 28.181 H -9.268 V 0 h -4.633 L -4.634,-16.052 4.634,0 Z"
         style="fill:#ffffff;fill-opacity:1;fill-rule:nonzero;stroke:none"
         transform="matrix(1.3333333,0,0,-1.3333333,204.02395,298.81061)"
         clip-path="url(#clipPath3004)" />
    </g>
  </g>
</svg>
