<?xml version="1.0" encoding="UTF-8" standalone="no"?>
<!-- Created with Inkscape (http://www.inkscape.org/) -->

<svg
   width="44.999977mm"
   height="59.999737mm"
   viewBox="0 0 44.999977 59.999737"
   version="1.1"
   id="svg1"
   inkscape:version="1.4 (86a8ad7, 2024-10-11)"
   sodipodi:docname="country border.svg"
   xmlns:inkscape="http://www.inkscape.org/namespaces/inkscape"
   xmlns:sodipodi="http://sodipodi.sourceforge.net/DTD/sodipodi-0.dtd"
   xmlns="http://www.w3.org/2000/svg"
   xmlns:svg="http://www.w3.org/2000/svg">
  <sodipodi:namedview
     id="namedview1"
     pagecolor="#ffffff"
     bordercolor="#000000"
     borderopacity="0.25"
     inkscape:showpageshadow="2"
     inkscape:pageopacity="0.0"
     inkscape:pagecheckerboard="0"
     inkscape:deskcolor="#d1d1d1"
     inkscape:document-units="mm"
     inkscape:zoom="2.8756734"
     inkscape:cx="56.682376"
     inkscape:cy="148.66083"
     inkscape:window-width="1920"
     inkscape:window-height="1009"
     inkscape:window-x="-8"
     inkscape:window-y="-8"
     inkscape:window-maximized="1"
     inkscape:current-layer="g4075"
     showguides="true">
    <sodipodi:guide
       position="-28.430296,-28.051378"
       orientation="0,-1"
       id="guide1"
       inkscape:locked="false" />
  </sodipodi:namedview>
  <defs
     id="defs1">
    <rect
       x="7.650382"
       y="169.35164"
       width="218.38363"
       height="59.464333"
       id="rect3" />
    <rect
       x="26.080848"
       y="26.776337"
       width="146.05275"
       height="37.556421"
       id="rect2" />
    <inkscape:path-effect
       effect="fillet_chamfer"
       id="path-effect1"
       is_visible="true"
       lpeversion="1"
       nodesatellites_param="F,0,0,1,0,0,0,1 @ F,0,0,1,0,0,0,1 @ F,0,0,1,0,0,0,1 @ F,0,0,1,0,0,0,1"
       radius="0"
       unit="px"
       method="auto"
       mode="F"
       chamfer_steps="1"
       flexible="false"
       use_knot_distance="true"
       apply_no_radius="true"
       apply_with_radius="true"
       only_selected="false"
       hide_knots="false" />
    <clipPath
       clipPathUnits="userSpaceOnUse"
       id="clipPath4010">
      <path
         d="M 0,841.89 H 595.276 V 0 H 0 Z"
         transform="translate(-166.51401,-731.52902)"
         id="path4010" />
    </clipPath>
    <clipPath
       clipPathUnits="userSpaceOnUse"
       id="clipPath4012">
      <path
         d="M 0,841.89 H 595.276 V 0 H 0 Z"
         transform="translate(-59.355001,-725.79102)"
         id="path4012" />
    </clipPath>
    <clipPath
       clipPathUnits="userSpaceOnUse"
       id="clipPath4014">
      <path
         d="M 0,841.89 H 595.276 V 0 H 0 Z"
         id="path4014" />
    </clipPath>
    <clipPath
       clipPathUnits="userSpaceOnUse"
       id="clipPath4016">
      <path
         d="M 0,841.89 H 595.276 V 0 H 0 Z"
         transform="translate(-132.939,-632.53702)"
         id="path4016" />
    </clipPath>
    <clipPath
       clipPathUnits="userSpaceOnUse"
       id="clipPath4018">
      <path
         d="M 0,841.89 H 595.276 V 0 H 0 Z"
         transform="translate(-446.64601,-731.52902)"
         id="path4018" />
    </clipPath>
    <clipPath
       clipPathUnits="userSpaceOnUse"
       id="clipPath4020">
      <path
         d="M 0,841.89 H 595.276 V 0 H 0 Z"
         transform="translate(-339.48701,-725.79102)"
         id="path4020" />
    </clipPath>
    <clipPath
       clipPathUnits="userSpaceOnUse"
       id="clipPath4022">
      <path
         d="M 0,841.89 H 595.276 V 0 H 0 Z"
         id="path4022" />
    </clipPath>
    <clipPath
       clipPathUnits="userSpaceOnUse"
       id="clipPath4024">
      <path
         d="M 0,841.89 H 595.276 V 0 H 0 Z"
         transform="translate(-409.44701,-659.97202)"
         id="path4024" />
    </clipPath>
    <clipPath
       clipPathUnits="userSpaceOnUse"
       id="clipPath1000">
      <path
         d="M 0,0 H 595.276 V 841.89 H 0 Z"
         transform="translate(-166.51401,-731.47102)"
         id="path1000" />
    </clipPath>
    <clipPath
       clipPathUnits="userSpaceOnUse"
       id="clipPath1002">
      <path
         d="M 0,0 H 595.276 V 841.89 H 0 Z"
         transform="translate(-59.354602,-725.73102)"
         id="path1002" />
    </clipPath>
    <clipPath
       clipPathUnits="userSpaceOnUse"
       id="clipPath1004">
      <path
         d="M 0,0 H 595.276 V 841.89 H 0 Z"
         transform="translate(-94.148605,-610.35401)"
         id="path1004" />
    </clipPath>
    <clipPath
       clipPathUnits="userSpaceOnUse"
       id="clipPath1006">
      <path
         d="M 0,0 H 595.276 V 841.89 H 0 Z"
         id="path1006" />
    </clipPath>
    <clipPath
       clipPathUnits="userSpaceOnUse"
       id="clipPath1008">
      <path
         d="M 0,0 H 595.276 V 841.89 H 0 Z"
         transform="translate(-141.47001,-653.96302)"
         id="path1008" />
    </clipPath>
    <clipPath
       clipPathUnits="userSpaceOnUse"
       id="clipPath1010">
      <path
         d="M 0,0 H 595.276 V 841.89 H 0 Z"
         id="path1010" />
    </clipPath>
    <clipPath
       clipPathUnits="userSpaceOnUse"
       id="clipPath1012">
      <path
         d="M 0,0 H 595.276 V 841.89 H 0 Z"
         transform="translate(-122.364,-682.30502)"
         id="path1012" />
    </clipPath>
    <clipPath
       clipPathUnits="userSpaceOnUse"
       id="clipPath1156">
      <path
         d="M 0,841.89 H 595.276 V 0 H 0 Z"
         transform="translate(-446.60801,-731.50002)"
         id="path1156" />
    </clipPath>
    <clipPath
       clipPathUnits="userSpaceOnUse"
       id="clipPath1158">
      <path
         d="M 0,841.89 H 595.276 V 0 H 0 Z"
         transform="translate(-339.44801,-725.76202)"
         id="path1158" />
    </clipPath>
    <clipPath
       clipPathUnits="userSpaceOnUse"
       id="clipPath1160">
      <path
         d="M 0,841.89 H 595.276 V 0 H 0 Z"
         id="path1160" />
    </clipPath>
    <clipPath
       clipPathUnits="userSpaceOnUse"
       id="clipPath1162">
      <path
         d="M 0,841.89 H 595.276 V 0 H 0 Z"
         transform="translate(-399.90201,-688.14002)"
         id="path1162" />
    </clipPath>
    <clipPath
       clipPathUnits="userSpaceOnUse"
       id="clipPath1166">
      <path
         d="M 0,841.89 H 595.276 V 0 H 0 Z"
         transform="translate(-168.13701,-485.24801)"
         id="path1166" />
    </clipPath>
    <clipPath
       clipPathUnits="userSpaceOnUse"
       id="clipPath1168">
      <path
         d="M 0,841.89 H 595.276 V 0 H 0 Z"
         transform="translate(-60.977702,-479.51001)"
         id="path1168" />
    </clipPath>
    <clipPath
       clipPathUnits="userSpaceOnUse"
       id="clipPath1170">
      <path
         d="M 0,841.89 H 595.276 V 0 H 0 Z"
         transform="translate(-138.622,-407.33201)"
         id="path1170" />
    </clipPath>
    <clipPath
       clipPathUnits="userSpaceOnUse"
       id="clipPath1007">
      <path
         d="M 0,841.89 H 595.276 V 0 H 0 Z"
         transform="translate(-166.752,-731.50002)"
         id="path1007" />
    </clipPath>
    <clipPath
       clipPathUnits="userSpaceOnUse"
       id="clipPath1009">
      <path
         d="M 0,841.89 H 595.276 V 0 H 0 Z"
         transform="translate(-59.592802,-725.76202)"
         id="path1009" />
    </clipPath>
    <clipPath
       clipPathUnits="userSpaceOnUse"
       id="clipPath1011">
      <path
         d="M 0,841.89 H 595.276 V 0 H 0 Z"
         id="path1011" />
    </clipPath>
    <clipPath
       clipPathUnits="userSpaceOnUse"
       id="clipPath1013">
      <path
         d="M 0,841.89 H 595.276 V 0 H 0 Z"
         transform="translate(-118.70601,-673.88102)"
         id="path1013" />
    </clipPath>
    <clipPath
       clipPathUnits="userSpaceOnUse"
       id="clipPath1015">
      <path
         d="M 0,841.89 H 595.276 V 0 H 0 Z"
         transform="translate(-123.664,-640.92401)"
         id="path1015" />
    </clipPath>
    <clipPath
       clipPathUnits="userSpaceOnUse"
       id="clipPath1023">
      <path
         d="M 0,841.89 H 595.276 V 0 H 0 Z"
         transform="translate(-375.64601,-621.74402)"
         id="path1023" />
    </clipPath>
    <clipPath
       clipPathUnits="userSpaceOnUse"
       id="clipPath1029">
      <path
         d="M 0,841.89 H 595.276 V 0 H 0 Z"
         id="path1029" />
    </clipPath>
    <clipPath
       clipPathUnits="userSpaceOnUse"
       id="clipPath1031">
      <path
         d="m 86.891,371.984 h 51.97 v 51.969 h -51.97 z"
         transform="translate(-108.942,-390.79301)"
         id="path1031" />
    </clipPath>
    <clipPath
       clipPathUnits="userSpaceOnUse"
       id="clipPath1033">
      <path
         d="m 86.891,371.984 h 51.97 v 51.969 h -51.97 z"
         transform="translate(-148.42401,-407.59701)"
         id="path1033" />
    </clipPath>
    <clipPath
       clipPathUnits="userSpaceOnUse"
       id="clipPath1035">
      <path
         d="m 86.891,371.984 h 51.97 v 51.969 h -51.97 z"
         transform="translate(-116.1,-390.48901)"
         id="path1035" />
    </clipPath>
    <clipPath
       clipPathUnits="userSpaceOnUse"
       id="clipPath1037">
      <path
         d="m 86.891,371.984 h 51.97 v 51.969 h -51.97 z"
         transform="translate(-118.399,-396.10401)"
         id="path1037" />
    </clipPath>
    <clipPath
       clipPathUnits="userSpaceOnUse"
       id="clipPath1039">
      <path
         d="m 86.891,371.984 h 51.97 v 51.969 h -51.97 z"
         transform="translate(-100.858,-408.56701)"
         id="path1039" />
    </clipPath>
    <clipPath
       clipPathUnits="userSpaceOnUse"
       id="clipPath1041">
      <path
         d="m 86.891,371.984 h 51.97 v 51.969 h -51.97 z"
         transform="translate(-116.412,-406.55201)"
         id="path1041" />
    </clipPath>
    <clipPath
       clipPathUnits="userSpaceOnUse"
       id="clipPath1043">
      <path
         d="m 86.891,371.984 h 51.97 v 51.969 h -51.97 z"
         transform="translate(-116.1,-393.12401)"
         id="path1043" />
    </clipPath>
    <clipPath
       clipPathUnits="userSpaceOnUse"
       id="clipPath1045">
      <path
         d="m 86.891,371.984 h 51.97 v 51.969 h -51.97 z"
         transform="translate(-103.10001,-393.12401)"
         id="path1045" />
    </clipPath>
    <clipPath
       clipPathUnits="userSpaceOnUse"
       id="clipPath1047">
      <path
         d="m 86.891,371.984 h 51.97 v 51.969 h -51.97 z"
         transform="translate(-100.852,-408.39101)"
         id="path1047" />
    </clipPath>
    <clipPath
       clipPathUnits="userSpaceOnUse"
       id="clipPath1049">
      <path
         d="m 86.891,371.984 h 51.97 v 51.969 h -51.97 z"
         transform="translate(-148.318,-416.40201)"
         id="path1049" />
    </clipPath>
    <clipPath
       clipPathUnits="userSpaceOnUse"
       id="clipPath1051">
      <path
         d="m 86.891,371.984 h 51.97 v 51.969 h -51.97 z"
         transform="translate(-127.252,-404.72201)"
         id="path1051" />
    </clipPath>
    <clipPath
       clipPathUnits="userSpaceOnUse"
       id="clipPath1053">
      <path
         d="m 86.891,371.984 h 51.97 v 51.969 h -51.97 z"
         transform="translate(-135.25401,-409.57201)"
         id="path1053" />
    </clipPath>
    <clipPath
       clipPathUnits="userSpaceOnUse"
       id="clipPath1055">
      <path
         d="m 86.891,371.984 h 51.97 v 51.969 h -51.97 z"
         transform="translate(-136.5,-413.83301)"
         id="path1055" />
    </clipPath>
    <clipPath
       clipPathUnits="userSpaceOnUse"
       id="clipPath1057">
      <path
         d="m 86.891,371.984 h 51.97 v 51.969 h -51.97 z"
         transform="translate(-140.895,-412.77601)"
         id="path1057" />
    </clipPath>
    <clipPath
       clipPathUnits="userSpaceOnUse"
       id="clipPath1059">
      <path
         d="m 86.891,371.984 h 51.97 v 51.969 h -51.97 z"
         transform="translate(-106.993,-409.35601)"
         id="path1059" />
    </clipPath>
    <clipPath
       clipPathUnits="userSpaceOnUse"
       id="clipPath9">
      <path
         d="M 0,841.89 H 595.276 V 0 H 0 Z"
         transform="translate(-84.240205,-145.804)"
         id="path9" />
    </clipPath>
    <clipPath
       clipPathUnits="userSpaceOnUse"
       id="clipPath5020">
      <path
         d="M 0,841.89 H 595.276 V 0 H 0 Z"
         transform="translate(-373.87801,-350.72801)"
         id="path5020" />
    </clipPath>
    <clipPath
       clipPathUnits="userSpaceOnUse"
       id="clipPath5016">
      <path
         d="M 0,841.89 H 595.276 V 0 H 0 Z"
         transform="translate(-373.87901,-350.72901)"
         id="path5016" />
    </clipPath>
    <clipPath
       clipPathUnits="userSpaceOnUse"
       id="clipPath2054">
      <path
         d="M 0,10.472 H 327.347 V 841.889 H 0 Z"
         transform="translate(-129.478,-649.72702)"
         id="path2054" />
    </clipPath>
    <clipPath
       clipPathUnits="userSpaceOnUse"
       id="clipPath2128">
      <path
         d="M 281.893,262.692 H 595.277 V 841.89 H 281.893 Z"
         id="path2128" />
    </clipPath>
    <clipPath
       clipPathUnits="userSpaceOnUse"
       id="clipPath2130">
      <path
         d="M 281.893,262.692 H 595.277 V 841.89 H 281.893 Z"
         id="path2130" />
    </clipPath>
    <clipPath
       clipPathUnits="userSpaceOnUse"
       id="clipPath2190">
      <path
         d="M 0,0 H 329.093 V 840.145 H 0 Z"
         transform="translate(-155.80401,-421.09501)"
         id="path2190" />
    </clipPath>
    <clipPath
       clipPathUnits="userSpaceOnUse"
       id="clipPath2192">
      <path
         d="M 0,0 H 329.093 V 840.145 H 0 Z"
         id="path2192" />
    </clipPath>
    <clipPath
       clipPathUnits="userSpaceOnUse"
       id="clipPath2246">
      <path
         d="M 285.383,244.365 H 595.276 V 841.889 H 285.383 Z"
         transform="translate(-454.11501,-478.35401)"
         id="path2246" />
    </clipPath>
    <clipPath
       clipPathUnits="userSpaceOnUse"
       id="clipPath2248">
      <path
         d="M 285.383,244.365 H 595.276 V 841.889 H 285.383 Z"
         transform="translate(-346.95601,-472.61601)"
         id="path2248" />
    </clipPath>
    <clipPath
       clipPathUnits="userSpaceOnUse"
       id="clipPath2250">
      <path
         d="M 285.383,244.365 H 595.276 V 841.889 H 285.383 Z"
         id="path2250" />
    </clipPath>
    <clipPath
       clipPathUnits="userSpaceOnUse"
       id="clipPath2252">
      <path
         d="M 285.383,244.365 H 595.276 V 841.889 H 285.383 Z"
         transform="translate(-405.81501,-396.62501)"
         id="path2252" />
    </clipPath>
    <clipPath
       clipPathUnits="userSpaceOnUse"
       id="clipPath2254">
      <path
         d="M 285.383,244.365 H 595.276 V 841.889 H 285.383 Z"
         transform="translate(-403.93601,-397.51401)"
         id="path2254" />
    </clipPath>
    <clipPath
       clipPathUnits="userSpaceOnUse"
       id="clipPath2256">
      <path
         d="M 285.383,244.365 H 595.276 V 841.889 H 285.383 Z"
         transform="translate(-388.78901,-394.39001)"
         id="path2256" />
    </clipPath>
    <clipPath
       clipPathUnits="userSpaceOnUse"
       id="clipPath2258">
      <path
         d="M 285.383,244.365 H 595.276 V 841.889 H 285.383 Z"
         transform="translate(-396.20701,-382.47201)"
         id="path2258" />
    </clipPath>
    <clipPath
       clipPathUnits="userSpaceOnUse"
       id="clipPath2260">
      <path
         d="M 285.383,244.365 H 595.276 V 841.889 H 285.383 Z"
         transform="translate(-387.70101,-380.09901)"
         id="path2260" />
    </clipPath>
    <clipPath
       clipPathUnits="userSpaceOnUse"
       id="clipPath2262">
      <path
         d="M 285.383,244.365 H 595.276 V 841.889 H 285.383 Z"
         transform="translate(-431.93001,-361.80401)"
         id="path2262" />
    </clipPath>
    <clipPath
       clipPathUnits="userSpaceOnUse"
       id="clipPath2264">
      <path
         d="M 285.383,244.365 H 595.276 V 841.889 H 285.383 Z"
         transform="translate(-394.73601,-371.99301)"
         id="path2264" />
    </clipPath>
    <clipPath
       clipPathUnits="userSpaceOnUse"
       id="clipPath2266">
      <path
         d="M 285.383,244.365 H 595.276 V 841.889 H 285.383 Z"
         transform="translate(-398.22901,-406.41601)"
         id="path2266" />
    </clipPath>
    <clipPath
       clipPathUnits="userSpaceOnUse"
       id="clipPath2268">
      <path
         d="M 285.383,244.365 H 595.276 V 841.889 H 285.383 Z"
         transform="translate(-399.09401,-415.27001)"
         id="path2268" />
    </clipPath>
    <clipPath
       clipPathUnits="userSpaceOnUse"
       id="clipPath2270">
      <path
         d="M 285.383,244.365 H 595.276 V 841.889 H 285.383 Z"
         id="path2270" />
    </clipPath>
    <clipPath
       clipPathUnits="userSpaceOnUse"
       id="clipPath2272">
      <path
         d="M 285.383,244.365 H 595.276 V 841.889 H 285.383 Z"
         transform="translate(-433.72101,-360.91401)"
         id="path2272" />
    </clipPath>
    <clipPath
       clipPathUnits="userSpaceOnUse"
       id="clipPath2274">
      <path
         d="M 285.383,244.365 H 595.276 V 841.889 H 285.383 Z"
         transform="translate(-405.81601,-396.62501)"
         id="path2274" />
    </clipPath>
    <clipPath
       clipPathUnits="userSpaceOnUse"
       id="clipPath2276">
      <path
         d="M 285.383,244.365 H 595.276 V 841.889 H 285.383 Z"
         transform="translate(-403.93601,-397.51501)"
         id="path2276" />
    </clipPath>
    <clipPath
       clipPathUnits="userSpaceOnUse"
       id="clipPath2278">
      <path
         d="M 285.383,244.365 H 595.276 V 841.889 H 285.383 Z"
         transform="translate(-388.78801,-394.39101)"
         id="path2278" />
    </clipPath>
    <clipPath
       clipPathUnits="userSpaceOnUse"
       id="clipPath2280">
      <path
         d="M 285.383,244.365 H 595.276 V 841.889 H 285.383 Z"
         transform="translate(-396.20701,-382.47201)"
         id="path2280" />
    </clipPath>
    <clipPath
       clipPathUnits="userSpaceOnUse"
       id="clipPath2282">
      <path
         d="M 285.383,244.365 H 595.276 V 841.889 H 285.383 Z"
         transform="translate(-387.70001,-380.09801)"
         id="path2282" />
    </clipPath>
    <clipPath
       clipPathUnits="userSpaceOnUse"
       id="clipPath2284">
      <path
         d="M 285.383,244.365 H 595.276 V 841.889 H 285.383 Z"
         transform="translate(-431.93201,-361.80301)"
         id="path2284" />
    </clipPath>
    <clipPath
       clipPathUnits="userSpaceOnUse"
       id="clipPath2286">
      <path
         d="M 285.383,244.365 H 595.276 V 841.889 H 285.383 Z"
         transform="translate(-394.73601,-371.99101)"
         id="path2286" />
    </clipPath>
    <clipPath
       clipPathUnits="userSpaceOnUse"
       id="clipPath2288">
      <path
         d="M 285.383,244.365 H 595.276 V 841.889 H 285.383 Z"
         transform="translate(-398.22901,-406.41701)"
         id="path2288" />
    </clipPath>
    <clipPath
       clipPathUnits="userSpaceOnUse"
       id="clipPath2290">
      <path
         d="M 285.383,244.365 H 595.276 V 841.889 H 285.383 Z"
         transform="translate(-399.09401,-415.27101)"
         id="path2290" />
    </clipPath>
    <clipPath
       clipPathUnits="userSpaceOnUse"
       id="clipPath2292">
      <path
         d="M 285.383,244.365 H 595.276 V 841.889 H 285.383 Z"
         id="path2292" />
    </clipPath>
    <clipPath
       clipPathUnits="userSpaceOnUse"
       id="clipPath2294">
      <path
         d="M 285.383,244.365 H 595.276 V 841.889 H 285.383 Z"
         transform="translate(-433.72201,-360.91201)"
         id="path2294" />
    </clipPath>
    <clipPath
       clipPathUnits="userSpaceOnUse"
       id="clipPath2296">
      <path
         d="M 285.383,244.365 H 595.276 V 841.889 H 285.383 Z"
         transform="translate(-412.44801,-390.79501)"
         id="path2296" />
    </clipPath>
    <clipPath
       clipPathUnits="userSpaceOnUse"
       id="clipPath2298">
      <path
         d="M 285.383,244.365 H 595.276 V 841.889 H 285.383 Z"
         transform="translate(-412.44801,-390.79601)"
         id="path2298" />
    </clipPath>
    <clipPath
       clipPathUnits="userSpaceOnUse"
       id="clipPath2300">
      <path
         d="M 285.383,244.365 H 595.276 V 841.889 H 285.383 Z"
         transform="translate(-412.44801,-389.70701)"
         id="path2300" />
    </clipPath>
    <clipPath
       clipPathUnits="userSpaceOnUse"
       id="clipPath2302">
      <path
         d="M 285.383,244.365 H 595.276 V 841.889 H 285.383 Z"
         transform="translate(-412.44801,-389.70801)"
         id="path2302" />
    </clipPath>
    <clipPath
       clipPathUnits="userSpaceOnUse"
       id="clipPath2304">
      <path
         d="M 285.383,244.365 H 595.276 V 841.889 H 285.383 Z"
         transform="translate(-403.39101,-385.94001)"
         id="path2304" />
    </clipPath>
    <clipPath
       clipPathUnits="userSpaceOnUse"
       id="clipPath2306">
      <path
         d="M 285.383,244.365 H 595.276 V 841.889 H 285.383 Z"
         transform="translate(-403.39101,-385.94201)"
         id="path2306" />
    </clipPath>
    <clipPath
       clipPathUnits="userSpaceOnUse"
       id="clipPath2308">
      <path
         d="M 285.383,244.365 H 595.276 V 841.889 H 285.383 Z"
         transform="translate(-403.04501,-384.65501)"
         id="path2308" />
    </clipPath>
    <clipPath
       clipPathUnits="userSpaceOnUse"
       id="clipPath2310">
      <path
         d="M 285.383,244.365 H 595.276 V 841.889 H 285.383 Z"
         transform="translate(-403.04501,-384.65601)"
         id="path2310" />
    </clipPath>
    <clipPath
       clipPathUnits="userSpaceOnUse"
       id="clipPath2404">
      <path
         d="M 293.809,0 H 595.277 V 354.475 H 293.809 Z"
         transform="translate(-430.31001,-172.059)"
         id="path2404" />
    </clipPath>
  </defs>
  <g
     inkscape:label="Layer 1"
     inkscape:groupmode="layer"
     id="layer1"
     transform="translate(-82.549999,-118.53333)">
    <g
       id="g4075"
       transform="matrix(0.26458333,0,0,0.26458333,65.313981,79.600425)">
      <g
         id="g1">
        <path
           style="fill:#ffffff;stroke:#ffffff;stroke-width:0.877059"
           id="rect1"
           width="169.20169"
           height="225.89459"
           x="65.582489"
           y="147.58603"
           inkscape:path-effect="#path-effect1"
           sodipodi:type="rect"
           d="M 65.582489,147.58603 H 234.78418 V 373.48062 H 65.582489 Z"
           transform="translate(4.63e-5)" />
        <path
           id="path2245"
           d="m 0,0 h -107.832 c -5.417,0 -9.823,-4.347 -9.823,-9.691 v -150.697 c 0,-5.342 4.406,-9.691 9.823,-9.691 H 0 c 5.459,0 9.904,4.349 9.904,9.691 V -9.691 C 9.904,-4.347 5.459,0 0,0 m 0,-0.573 c 5.146,0 9.331,-4.09 9.331,-9.118 v -150.697 c 0,-5.028 -4.185,-9.119 -9.331,-9.119 h -107.832 c -5.101,0 -9.25,4.091 -9.25,9.119 V -9.691 c 0,5.028 4.149,9.118 9.25,9.118 L 0,-0.573"
           style="fill:#4467a5;fill-opacity:1;fill-rule:nonzero;stroke:none"
           transform="matrix(1.3333333,0,0,-1.3333333,222.01738,147.14732)"
           clip-path="url(#clipPath2246)" />
        <path
           id="path2247"
           d="m 0,0 c -2.552,0 -4.628,-2.08 -4.628,-4.636 v -149.335 c 0,-2.554 2.076,-4.633 4.628,-4.633 h 106.484 c 2.594,0 4.704,2.079 4.704,4.633 V -4.636 c 0,2.556 -2.11,4.636 -4.704,4.636 z"
           style="fill:#4467a5;fill-opacity:1;fill-rule:nonzero;stroke:none"
           transform="matrix(1.3333333,0,0,-1.3333333,79.143382,154.79732)"
           clip-path="url(#clipPath2248)" />
        <path
           id="path2249"
           d="m 434.68,358.874 h -68.882 v 68.882 h 68.882 z"
           style="fill:#ffffff;fill-opacity:1;fill-rule:nonzero;stroke:none"
           transform="matrix(1.3333333,0,0,-1.3333333,-383.46865,784.95331)"
           clip-path="url(#clipPath2250)" />
        <path
           id="path2403"
           d="m 0,0 1.741,-1.405 2.253,1.312 -1.181,-2.175 1.749,-1.396 -2.471,0.06 -1.172,-2.175 -0.347,2.212 -2.473,0.051 2.257,1.307 z m -36.786,10.26 1.743,-1.406 2.252,1.314 -1.18,-2.174 1.748,-1.398 -2.47,0.06 -1.173,-2.177 -0.346,2.212 -2.475,0.055 2.258,1.305 z M -9.505,8.018 -7.32,7.536 -5.888,9.715 -5.977,7.243 -3.788,6.771 -6.027,5.725 -6.106,3.254 -7.402,5.079 -9.641,4.023 l 1.44,2.174 z m -37.503,-7.21 2.186,-0.482 1.431,2.18 -0.088,-2.474 2.189,-0.47 -2.24,-1.046 -0.079,-2.472 -1.296,1.826 -2.238,-1.056 1.439,2.174 z m 37.676,-37.839 1.741,-1.407 2.252,1.315 -1.18,-2.176 1.748,-1.396 -2.47,0.06 -1.172,-2.177 -0.347,2.212 -2.474,0.054 2.257,1.306 z m -36.786,10.26 1.742,-1.407 2.253,1.315 -1.181,-2.174 1.749,-1.4 -2.471,0.063 -1.173,-2.178 -0.346,2.213 -2.474,0.053 2.257,1.306 z m 44.762,-2.521 2.185,-0.481 1.432,2.177 -0.088,-2.47 2.189,-0.472 -2.241,-1.047 -0.079,-2.472 -1.296,1.827 -2.237,-1.055 1.438,2.174 z m -37.502,-7.21 2.184,-0.48 1.432,2.178 -0.087,-2.471 2.188,-0.473 -2.241,-1.047 -0.078,-2.472 -1.297,1.828 -2.237,-1.055 1.439,2.174 z m -9.452,23.474 0.801,-2.09 2.608,0.005 -2.113,-1.288 0.811,-2.087 -2.107,1.294 -2.106,-1.294 0.811,2.087 -2.113,1.288 2.608,-0.005 z m 53.325,0 0.8,-2.09 2.609,0.005 -2.113,-1.288 0.811,-2.087 -2.107,1.294 -2.107,-1.294 0.812,2.087 -2.114,1.288 2.609,-0.005 z m -26.662,-27.341 0.8,-2.091 2.608,0.005 -2.113,-1.287 0.812,-2.087 -2.107,1.294 -2.107,-1.294 0.812,2.087 -2.114,1.287 2.608,-0.005 z m 0,54.682 0.8,-2.09 2.608,0.005 -2.113,-1.29 0.812,-2.085 -2.107,1.293 -2.107,-1.293 0.812,2.085 -2.114,1.29 2.608,-0.005 z m 16.601,-31.114 -0.97,3.155 -0.963,-3.155 z m 0.568,-1.896 h -3.089 l -0.424,-1.449 h -2.773 l 3.3,8.777 h 2.956 l 3.301,-8.777 h -2.839 z m -10.063,7.328 h 2.718 v -8.777 h -2.718 z m -6.897,-1.988 v -4.795 h 0.665 c 0.567,0 0.969,0.061 1.209,0.188 0.239,0.124 0.427,0.345 0.564,0.656 0.135,0.315 0.202,0.824 0.202,1.527 0,0.928 -0.151,1.565 -0.453,1.908 -0.306,0.344 -0.808,0.516 -1.511,0.516 z m -2.712,1.988 h 4.03 c 0.793,0 1.434,-0.11 1.925,-0.323 0.488,-0.216 0.893,-0.527 1.212,-0.928 0.319,-0.404 0.549,-0.872 0.694,-1.408 0.144,-0.536 0.215,-1.102 0.215,-1.701 0,-0.938 -0.107,-1.666 -0.321,-2.182 -0.212,-0.518 -0.509,-0.95 -0.889,-1.297 -0.378,-0.352 -0.785,-0.584 -1.22,-0.699 -0.595,-0.16 -1.134,-0.239 -1.616,-0.239 h -4.03 z m -10.233,0 h 2.534 l 3.305,-4.857 v 4.857 h 2.557 v -8.777 h -2.557 l -3.288,4.818 v -4.818 h -2.551 z m -4.68,0 h 2.718 v -8.777 h -2.718 z"
           style="fill:#231f20;fill-opacity:1;fill-rule:nonzero;stroke:none"
           transform="matrix(1.3333333,0,0,-1.3333333,179.046,239.52265)"
           clip-path="url(#clipPath2404)" />
      </g>
    </g>
  </g>
</svg>
