<?xml version="1.0" encoding="UTF-8" standalone="no"?>
<!-- Created with Inkscape (http://www.inkscape.org/) -->

<svg
   width="396.53134"
   height="250.96724"
   viewBox="0 0 104.91558 66.401749"
   version="1.1"
   id="svg5"
   xml:space="preserve"
   sodipodi:docname="yellow.svg"
   inkscape:version="1.4 (86a8ad7, 2024-10-11)"
   xmlns:inkscape="http://www.inkscape.org/namespaces/inkscape"
   xmlns:sodipodi="http://sodipodi.sourceforge.net/DTD/sodipodi-0.dtd"
   xmlns="http://www.w3.org/2000/svg"
   xmlns:svg="http://www.w3.org/2000/svg"><sodipodi:namedview
     id="namedview1"
     pagecolor="#ffffff"
     bordercolor="#000000"
     borderopacity="0.25"
     inkscape:showpageshadow="2"
     inkscape:pageopacity="0.0"
     inkscape:pagecheckerboard="0"
     inkscape:deskcolor="#d1d1d1"
     inkscape:zoom="2.2737437"
     inkscape:cx="203.84883"
     inkscape:cy="134.35991"
     inkscape:window-width="1920"
     inkscape:window-height="1009"
     inkscape:window-x="-8"
     inkscape:window-y="-8"
     inkscape:window-maximized="1"
     inkscape:current-layer="svg5"
     showgrid="false" /><defs
     id="defs2"><rect
       x="34.744461"
       y="137.65844"
       width="321.93602"
       height="82.683022"
       id="rect1" /><rect
       x="38.262888"
       y="134.57981"
       width="320.17681"
       height="94.117908"
       id="rect14" /></defs><path
     style="fill:#ffcc00;stroke-width:0.0018182"
     d=""
     id="path7" /><g
     id="g18"
     transform="translate(-0.34909386,-0.34909387)"><g
       id="g14"><path
         style="fill:none;stroke-width:0.0809693"
         d="M 26.580905,61.672371 C 25.107043,61.317269 23.843576,60.173658 23.347994,58.746145 L 23.160373,58.205704 V 30.620037 3.0343711 l 0.187621,-0.54044 c 0.502027,-1.446082 1.763763,-2.57658902 3.270097,-2.92998702 0.459519,-0.107807 5.844441,-0.121803 46.86219,-0.121803 40.523749,0 46.406649,0.01493 46.849839,0.118935 1.23732,0.29036 2.44595,1.205791 3.01053,2.28022102 0.53391,1.016071 0.4973,-1.10214502 0.4973,28.7787399 0,23.302436 -0.0166,27.259823 -0.11643,27.728628 -0.33452,1.571167 -1.72829,2.940066 -3.39068,3.330165 -0.75175,0.17641 -93.017317,0.170051 -93.749935,-0.0065 z"
         id="path1" /><path
         style="fill:none;stroke-width:0.0809693"
         d="M 26.580905,61.672371 C 25.107043,61.317269 23.843576,60.173658 23.347994,58.746145 L 23.160373,58.205704 V 30.620037 3.0343711 l 0.187621,-0.54044 c 0.502027,-1.446082 1.763763,-2.57658902 3.270097,-2.92998702 0.459519,-0.107807 5.844441,-0.121803 46.86219,-0.121803 40.523749,0 46.406649,0.01493 46.849839,0.118935 1.23732,0.29036 2.44595,1.205791 3.01053,2.28022102 0.53391,1.016071 0.4973,-1.10214502 0.4973,28.7787399 0,23.302436 -0.0166,27.259823 -0.11643,27.728628 -0.33452,1.571167 -1.72829,2.940066 -3.39068,3.330165 -0.75175,0.17641 -93.017317,0.170051 -93.749935,-0.0065 z"
         id="path2" /><g
         id="g1"><path
           id="rect1247-2"
           style="fill:#ffcc27;fill-opacity:1;stroke:none;stroke-width:0.530237"
           d="M 6.1006496,1.3758233 H 98.814933 a 4.716011,4.4119731 0 0 1 4.716007,4.411973 V 60.613954 a 4.716011,4.4119731 0 0 1 -4.716007,4.41197 H 6.1006496 a 4.716011,4.4119731 0 0 1 -4.71601,-4.41197 V 5.7877963 a 4.716011,4.4119731 0 0 1 4.71601,-4.411973 z" /><path
           id="rect1247"
           style="fill:#1a1a1a;fill-opacity:1;stroke:none;stroke-width:0.521776"
           d="m 6.732262,1.9576477 h 91.45107 a 4.6517566,4.3313138 0 0 1 4.651748,4.331313 V 60.11279 A 4.6517566,4.3313138 0 0 1 98.183332,64.4441 H 6.732262 A 4.6517566,4.3313138 0 0 1 2.080502,60.11279 V 6.2889607 a 4.6517566,4.3313138 0 0 1 4.65176,-4.331313 z" /><path
           id="rect1247-9"
           style="fill:#ffcc27;fill-opacity:1;stroke:none;stroke-width:0.511026"
           d="M 7.4799303,2.7336475 H 97.435641 a 4.5756934,4.2237351 0 0 1 4.575709,4.2237351 V 59.444365 A 4.5756934,4.2237351 0 0 1 97.435641,63.6681 H 7.4799303 A 4.5756934,4.2237351 0 0 1 2.9042371,59.444365 V 6.9573826 A 4.5756934,4.2237351 0 0 1 7.4799303,2.7336475 Z" /></g><g
         id="g2"
         transform="matrix(0.10673562,0,0,0.10479726,2.8156215,3.231102)"
         style="clip-rule:evenodd;fill:#000000;fill-opacity:1;fill-rule:evenodd;image-rendering:optimizeQuality;shape-rendering:geometricPrecision;text-rendering:geometricPrecision"><path
           style="opacity:1;fill:#000000;fill-opacity:1"
           fill="#000000"
           d="m 842.5,25.5 c 10.672,-0.1665 21.339,2e-4 32,0.5 3.413,1.0774 5.913,3.2441 7.5,6.5 1.324,65.3259 1.824,130.659 1.5,196 -15.008,0.278 -30.008,0.445 -45,0.5 -1.167,-0.5 -2,-1.333 -2.5,-2.5 -1.949,-20.617 -12.782,-34.117 -32.5,-40.5 -20.183,-4.273 -36.35,1.893 -48.5,18.5 -3.834,7.847 -6.668,16.014 -8.5,24.5 -75.669,0.833 -151.336,0.667 -227,-0.5 -5.517,-33.005 -24.85,-46.838 -58,-41.5 -10.836,3.171 -19.002,9.671 -24.5,19.5 -3.258,7.028 -5.591,14.361 -7,22 -5.082,1.137 -10.249,1.304 -15.5,0.5 -4.062,-14.807 -8.062,-29.64 -12,-44.5 -5.446,7.718 -12.779,12.385 -22,14 0.167,12.671 0,25.338 -0.5,38 -2.167,2.833 -4.333,5.667 -6.5,8.5 -1.845,1.128 -3.845,1.628 -6,1.5 -1.71,-22.875 -13.877,-35.875 -36.5,-39 -22.287,3.453 -33.787,16.453 -34.5,39 -51.667,0 -103.333,0 -155,0 -0.76,-22.571 -12.26,-35.238 -34.5,-38 -23.0048,2.173 -34.8382,14.84 -35.5,38 -15.2851,-0.496 -30.4518,-1.829 -45.5,-4 -0.6667,-17.667 -0.6667,-35.333 0,-53 0.4652,-1.431 1.2986,-2.597 2.5,-3.5 8.5206,-2.171 16.5206,-5.504 24,-10 17.7229,-17.389 35.0562,-35.055 52,-53 13.723,-9.603 29.057,-14.269 46,-14 25,-0.667 50,-0.667 75,0 6.009,1.756 11.175,4.923 15.5,9.5 11.376,16.92 22.876,33.753 34.5,50.5 20.644,2.997 41.311,5.831 62,8.5 3.34,-0.597 3.84,-2.264 1.5,-5 -12.502,-2.917 -25.002,-6.084 -37.5,-9.5 3.211,-1.153 6.544,-1.82 10,-2 9,-0.333 18,-0.667 27,-1 1.117,-3.073 1.284,-6.24 0.5,-9.5 -2.707,-3.365 -6.04,-6.032 -10,-8 -1.366,-1.87 -2.533,-3.87 -3.5,-6 0.333,-0.333 0.667,-0.667 1,-1 6.051,2.763 12.384,4.429 19,5 2.757,-1.588 3.59,-3.921 2.5,-7 -4.819,-8.968 -10.152,-17.635 -16,-26 -1.508,-3.425 -2.841,-6.758 -4,-10 1.171,1.3932 2.671,2.2265 4.5,2.5 9.389,9.725 19.056,19.058 29,28 3.03,0.288 5.864,0.455 8.5,0.5 1.883,-9.808 2.883,-19.808 3,-30 1.202,-3.2735 2.202,-6.6069 3,-10 1.75,2.7464 2.75,5.7464 3,9 0.67,9.376 1.67,18.709 3,28 1.463,3.607 3.963,5.441 7.5,5.5 3.195,-2.29 6.528,-4.29 10,-6 2.24,-0.977 4.573,-1.477 7,-1.5 -0.392,4.683 -2.225,8.683 -5.5,12 -1.69,4.958 -0.023,7.958 5,9 2.151,-0.143 3.818,-1.143 5,-3 2.934,-19.009 5.934,-38.009 9,-57 2.403,-12.7363 9.903,-20.5697 22.5,-23.5 26.667,-0.6667 53.333,-0.6667 80,0 1.549,1.214 2.715,2.714 3.5,4.5 0.333,20.3333 0.667,40.667 1,61 6.076,0.976 12.242,1.31 18.5,1 -0.167,-31.6684 0,-63.3351 0.5,-95 1.167,-2.5 3,-4.3333 5.5,-5.5 97.168,-0.167 194.168,-0.667 291,-1.5 z"
           id="path2-4" /></g><g
         id="g3"
         transform="matrix(0.10673562,0,0,0.10479726,2.8156215,3.231102)"
         style="clip-rule:evenodd;fill:#ffcc27;fill-opacity:1;fill-rule:evenodd;image-rendering:optimizeQuality;shape-rendering:geometricPrecision;text-rendering:geometricPrecision"><path
           style="opacity:1;fill:#ffcc27;fill-opacity:1"
           fill="#fefefe"
           d="m 444.5,76.5 c 14.579,-0.3237 29.079,0.0096 43.5,1 1.456,16.5966 1.956,33.263 1.5,50 -19.667,0 -39.333,0 -59,0 2.173,-14.73 4.673,-29.3971 7.5,-44 1.425,-3.1063 3.592,-5.4396 6.5,-7 z"
           id="path3" /></g><g
         id="g4"
         transform="matrix(0.10673562,0,0,0.10479726,2.8156215,3.231102)"
         style="clip-rule:evenodd;fill:#ffcc27;fill-opacity:1;fill-rule:evenodd;image-rendering:optimizeQuality;shape-rendering:geometricPrecision;text-rendering:geometricPrecision"><path
           style="opacity:1;fill:#ffcc27;fill-opacity:1"
           fill="#fefefe"
           d="m 128.5,128.5 c 12,0 24,0 36,0 0,13.667 0,27.333 0,41 -24.669,0.167 -49.336,0 -74,-0.5 13.485,-12.865 26.152,-26.365 38,-40.5 z"
           id="path4" /></g><g
         id="g5"
         transform="matrix(0.10673562,0,0,0.10479726,2.8156215,3.231102)"
         style="clip-rule:evenodd;fill:#ffcc27;fill-opacity:1;fill-rule:evenodd;image-rendering:optimizeQuality;shape-rendering:geometricPrecision;text-rendering:geometricPrecision"><path
           style="opacity:1;fill:#ffcc27;fill-opacity:1"
           fill="#fefefe"
           d="m 174.5,128.5 c 19.669,-0.167 39.336,0 59,0.5 8.47,13.302 17.137,26.469 26,39.5 -28.325,1 -56.659,1.333 -85,1 0,-13.667 0,-27.333 0,-41 z"
           id="path5" /></g><g
         id="g6"
         transform="matrix(0.10673562,0,0,0.10479726,2.8156215,3.231102)"
         style="clip-rule:evenodd;fill-rule:evenodd;image-rendering:optimizeQuality;shape-rendering:geometricPrecision;text-rendering:geometricPrecision"><path
           style="opacity:1"
           fill="#000000"
           d="m 783.5,187.5 c 23.712,-2.238 39.545,7.762 47.5,30 5.08,24.679 -4.087,41.512 -27.5,50.5 -19.826,4.498 -35.326,-1.669 -46.5,-18.5 -9.447,-20.433 -5.947,-38.267 10.5,-53.5 4.983,-3.656 10.316,-6.489 16,-8.5 z"
           id="path6" /></g><g
         id="g7"
         transform="matrix(0.10673562,0,0,0.10479726,2.8156215,3.231102)"
         style="clip-rule:evenodd;fill-rule:evenodd;image-rendering:optimizeQuality;shape-rendering:geometricPrecision;text-rendering:geometricPrecision"><path
           style="opacity:1"
           fill="#000000"
           d="m 467.5,188.5 c 35.193,0.361 50.693,18.027 46.5,53 -10.149,23.324 -27.649,32.158 -52.5,26.5 -23.734,-10.638 -31.901,-28.471 -24.5,-53.5 5.802,-13.981 15.968,-22.647 30.5,-26 z"
           id="path7-8" /></g><g
         id="g8"
         transform="matrix(0.10673562,0,0,0.10479726,2.8156215,3.231102)"
         style="clip-rule:evenodd;fill:#ffcc27;fill-opacity:1;fill-rule:evenodd;image-rendering:optimizeQuality;shape-rendering:geometricPrecision;text-rendering:geometricPrecision"><path
           style="opacity:1;fill:#ffcc27;fill-opacity:1"
           fill="#fefffe"
           d="m 471.5,210.5 c 15.478,-0.023 22.978,7.643 22.5,23 -5.755,14.252 -15.588,18.086 -29.5,11.5 -10.667,-10.333 -10.667,-20.667 0,-31 2.425,-1.213 4.759,-2.379 7,-3.5 z"
           id="path8" /></g><g
         id="g9"
         transform="matrix(0.10673562,0,0,0.10479726,2.8156215,3.231102)"
         style="clip-rule:evenodd;fill-rule:evenodd;image-rendering:optimizeQuality;shape-rendering:geometricPrecision;text-rendering:geometricPrecision"><path
           style="opacity:1"
           fill="#000000"
           d="m 100.5,211.5 c 23.163,-0.505 35.497,10.829 37,34 -2.07,14.908 -10.403,24.408 -25,28.5 -19.97,1.692 -32.47,-7.141 -37.5,-26.5 -0.5802,-18.527 7.9198,-30.527 25.5,-36 z"
           id="path9" /></g><g
         id="g10"
         transform="matrix(0.10673562,0,0,0.10479726,2.8156215,3.231102)"
         style="clip-rule:evenodd;fill-rule:evenodd;image-rendering:optimizeQuality;shape-rendering:geometricPrecision;text-rendering:geometricPrecision"><path
           style="opacity:1"
           fill="#000000"
           d="m 327.5,211.5 c 23.385,-0.114 35.051,11.719 35,35.5 -3.722,16.54 -14.055,25.707 -31,27.5 -18.916,-2.082 -29.249,-12.582 -31,-31.5 1.328,-17.156 10.328,-27.656 27,-31.5 z"
           id="path10" /></g><g
         id="g11"
         transform="matrix(0.10673562,0,0,0.10479726,2.8156215,3.231102)"
         style="clip-rule:evenodd;fill:#ffcc27;fill-opacity:1;fill-rule:evenodd;image-rendering:optimizeQuality;shape-rendering:geometricPrecision;text-rendering:geometricPrecision"><path
           style="opacity:1;fill:#ffcc27;fill-opacity:1"
           fill="#fefffe"
           d="m 788.5,211.5 c 16.48,0.64 22.98,8.973 19.5,25 -8.864,12.059 -18.864,13.059 -30,3 -6.252,-13.084 -2.752,-22.417 10.5,-28 z"
           id="path11" /></g><g
         id="g12"
         transform="matrix(0.10673562,0,0,0.10479726,2.8156215,3.231102)"
         style="clip-rule:evenodd;fill:#ffcc27;fill-opacity:1;fill-rule:evenodd;image-rendering:optimizeQuality;shape-rendering:geometricPrecision;text-rendering:geometricPrecision"><path
           style="opacity:1;fill:#ffcc27;fill-opacity:1"
           fill="#fefffe"
           d="m 102.5,227.5 c 12.939,-0.227 18.773,6.106 17.5,19 -3.726,9.693 -10.56,12.859 -20.5,9.5 -8.6977,-6.392 -10.1977,-14.225 -4.5,-23.5 2.4256,-1.952 4.9256,-3.619 7.5,-5 z"
           id="path12" /></g><g
         id="g13"
         transform="matrix(0.10673562,0,0,0.10479726,2.8156215,3.231102)"
         style="clip-rule:evenodd;fill:#ffcc27;fill-opacity:1;fill-rule:evenodd;image-rendering:optimizeQuality;shape-rendering:geometricPrecision;text-rendering:geometricPrecision"><path
           style="opacity:1;fill:#ffcc27;fill-opacity:1"
           fill="#fefffe"
           d="m 327.5,227.5 c 15.642,0.618 20.808,8.285 15.5,23 -8,8 -16,8 -24,0 -4.739,-10.627 -1.906,-18.294 8.5,-23 z"
           id="path13" /></g></g></g><path
     style="font-weight:bold;font-size:32px;font-family:Arial;-inkscape-font-specification:'Arial, Bold';white-space:pre"
     d="m 117.35352,158.4309 4.48437,1.42187 q -1.03125,3.75 -3.4375,5.57813 -2.39062,1.8125 -6.07812,1.8125 -4.5625,0 -7.5,-3.10938 -2.9375,-3.125 -2.9375,-8.53125 0,-5.71875 2.95312,-8.875 2.95313,-3.17187 7.76563,-3.17187 4.20312,0 6.82812,2.48437 1.5625,1.46875 2.34375,4.21875 l -4.57812,1.09375 q -0.40625,-1.78125 -1.70313,-2.8125 -1.28125,-1.03125 -3.125,-1.03125 -2.54687,0 -4.14062,1.82813 -1.57813,1.82812 -1.57813,5.92187 0,4.34375 1.5625,6.1875 1.5625,1.84375 4.0625,1.84375 1.84375,0 3.17188,-1.17187 1.32812,-1.17188 1.90625,-3.6875 z m 29.10937,8.42187 h -5.03125 l -2,-5.20312 h -9.15625 l -1.89062,5.20312 h -4.90625 l 8.92187,-22.90625 h 4.89063 z m -8.51562,-9.0625 -3.15625,-8.5 -3.09375,8.5 z m 10.9375,-13.84375 h 4.625 v 12.40625 q 0,2.95313 0.17187,3.82813 0.29688,1.40625 1.40625,2.26562 1.125,0.84375 3.0625,0.84375 1.96875,0 2.96875,-0.79687 1,-0.8125 1.20313,-1.98438 0.20312,-1.17187 0.20312,-3.89062 v -12.67188 h 4.625 v 12.03125 q 0,4.125 -0.375,5.82813 -0.375,1.70312 -1.39062,2.875 -1,1.17187 -2.6875,1.875 -1.6875,0.6875 -4.40625,0.6875 -3.28125,0 -4.98438,-0.75 -1.6875,-0.76563 -2.67187,-1.96875 -0.98438,-1.21875 -1.29688,-2.54688 -0.45312,-1.96875 -0.45312,-5.8125 z m 28.29687,22.90625 v -19.03125 h -6.79687 v -3.875 h 18.20312 v 3.875 h -6.78125 v 19.03125 z m 14.25,0 v -22.90625 h 4.625 v 22.90625 z m 8.09375,-11.3125 q 0,-3.5 1.04688,-5.875 0.78125,-1.75 2.125,-3.14062 1.35937,-1.39063 2.96875,-2.0625 2.14062,-0.90625 4.9375,-0.90625 5.0625,0 8.09375,3.14062 3.04687,3.14063 3.04687,8.73438 0,5.54687 -3.01562,8.6875 -3.01563,3.125 -8.0625,3.125 -5.10938,0 -8.125,-3.10938 -3.01563,-3.125 -3.01563,-8.59375 z m 4.76563,-0.15625 q 0,3.89063 1.79687,5.90625 1.79688,2 4.5625,2 2.76563,0 4.53125,-1.98437 1.78125,-2 1.78125,-5.98438 0,-3.9375 -1.73437,-5.875 -1.71875,-1.9375 -4.57813,-1.9375 -2.85937,0 -4.60937,1.96875 -1.75,1.95313 -1.75,5.90625 z m 21.10937,11.46875 v -22.90625 h 4.5 l 9.375,15.29688 v -15.29688 h 4.29688 v 22.90625 h -4.64063 l -9.23437,-14.9375 v 14.9375 z m -173.671874,31.94855 4.484375,1.42188 q -1.03125,3.75 -3.4375,5.57812 -2.390625,1.8125 -6.078125,1.8125 -4.5625,0 -7.5,-3.10937 -2.9375,-3.125 -2.9375,-8.53125 0,-5.71875 2.953125,-8.875 2.953125,-3.17188 7.765625,-3.17188 4.203125,0 6.828125,2.48438 1.5625,1.46875 2.34375,4.21875 l -4.578125,1.09375 q -0.40625,-1.78125 -1.703125,-2.8125 -1.28125,-1.03125 -3.125,-1.03125 -2.546875,0 -4.140625,1.82812 -1.578125,1.82813 -1.578125,5.92188 0,4.34375 1.5625,6.1875 1.5625,1.84375 4.0625,1.84375 1.84375,0 3.171875,-1.17188 1.328125,-1.17187 1.90625,-3.6875 z m 12.625,8.42188 h -4.390625 v -16.59375 h 4.078125 v 2.35937 q 1.046875,-1.67187 1.875,-2.20312 0.84375,-0.53125 1.90625,-0.53125 1.5,0 2.890625,0.82812 l -1.359375,3.82813 q -1.109375,-0.71875 -2.0625,-0.71875 -0.921875,0 -1.5625,0.51562 -0.640625,0.5 -1.015625,1.82813 -0.359375,1.32812 -0.359375,5.5625 z m 11.53125,-11.53125 -3.984375,-0.71875 q 0.671875,-2.40625 2.3125,-3.5625 1.640625,-1.15625 4.875,-1.15625 2.9375,0 4.375,0.70312 1.4375,0.6875 2.015625,1.76563 0.59375,1.0625 0.59375,3.92187 l -0.04687,5.125 q 0,2.1875 0.203125,3.23438 0.21875,1.03125 0.796875,2.21875 h -4.34375 q -0.171875,-0.4375 -0.421875,-1.29688 -0.109375,-0.39062 -0.15625,-0.51562 -1.125,1.09375 -2.40625,1.64062 -1.28125,0.54688 -2.734375,0.54688 -2.5625,0 -4.046875,-1.39063 -1.46875,-1.39062 -1.46875,-3.51562 0,-1.40625 0.671875,-2.5 0.671875,-1.10938 1.875,-1.6875 1.21875,-0.59375 3.5,-1.03125 3.078125,-0.57813 4.265625,-1.07813 v -0.4375 q 0,-1.26562 -0.625,-1.79687 -0.625,-0.54688 -2.359375,-0.54688 -1.171875,0 -1.828125,0.46875 -0.65625,0.45313 -1.0625,1.60938 z m 5.875,3.5625 q -0.84375,0.28125 -2.671875,0.67187 -1.828125,0.39063 -2.390625,0.76563 -0.859375,0.60937 -0.859375,1.54687 0,0.92188 0.6875,1.59375 0.6875,0.67188 1.75,0.67188 1.1875,0 2.265625,-0.78125 0.796875,-0.59375 1.046875,-1.45313 0.171875,-0.5625 0.171875,-2.14062 z m 7.09375,3.23437 4.40625,-0.67187 q 0.28125,1.28125 1.140625,1.95312 0.859375,0.65625 2.40625,0.65625 1.703125,0 2.5625,-0.625 0.578125,-0.4375 0.578125,-1.17187 0,-0.5 -0.3125,-0.82813 -0.328125,-0.3125 -1.46875,-0.57812 -5.3125,-1.17188 -6.734375,-2.14063 -1.96875,-1.34375 -1.96875,-3.73437 0,-2.15625 1.703125,-3.625 1.703125,-1.46875 5.28125,-1.46875 3.40625,0 5.062504,1.10937 1.65625,1.10938 2.28125,3.28125 l -4.140629,0.76563 q -0.265625,-0.96875 -1.015625,-1.48438 -0.734375,-0.51562 -2.109375,-0.51562 -1.734375,0 -2.484375,0.48437 -0.5,0.34375 -0.5,0.89063 0,0.46875 0.4375,0.79687 0.59375,0.4375 4.09375,1.23438 3.515624,0.79687 4.906254,1.95312 1.375,1.17188 1.375,3.26563 0,2.28125 -1.90625,3.92187 -1.90625,1.64063 -5.640629,1.64063 -3.390625,0 -5.375,-1.375 -1.96875,-1.375 -2.578125,-3.73438 z m 23.718754,-18.17187 v 8.42187 q 2.125,-2.48437 5.07812,-2.48437 1.51563,0 2.73438,0.5625 1.21875,0.5625 1.82812,1.4375 0.625,0.875 0.84375,1.9375 0.23438,1.0625 0.23438,3.29687 v 9.73438 h -4.39063 v -8.76563 q 0,-2.60937 -0.25,-3.3125 -0.25,-0.70312 -0.89062,-1.10937 -0.625,-0.42188 -1.57813,-0.42188 -1.09375,0 -1.95312,0.53125 -0.85938,0.53125 -1.26563,1.60938 -0.39062,1.0625 -0.39062,3.15625 v 8.3125 h -4.39063 v -22.90625 z m 24.09375,22.90625 v -22.90625 h 7.42187 q 4.21875,0 5.5,0.34375 1.96875,0.51562 3.29688,2.25 1.32812,1.71875 1.32812,4.45312 0,2.10938 -0.76562,3.54688 -0.76563,1.4375 -1.95313,2.26562 -1.17187,0.8125 -2.39062,1.07813 -1.65625,0.32812 -4.79688,0.32812 h -3.01562 v 8.64063 z m 4.625,-19.03125 v 6.5 h 2.53125 q 2.73437,0 3.65625,-0.35938 0.92187,-0.35937 1.4375,-1.125 0.53125,-0.76562 0.53125,-1.78125 0,-1.25 -0.73438,-2.0625 -0.73437,-0.8125 -1.85937,-1.01562 -0.82813,-0.15625 -3.32813,-0.15625 z m 20.89062,19.03125 h -4.39062 v -16.59375 h 4.07812 v 2.35937 q 1.04688,-1.67187 1.875,-2.20312 0.84375,-0.53125 1.90625,-0.53125 1.5,0 2.89063,0.82812 l -1.35938,3.82813 q -1.10937,-0.71875 -2.0625,-0.71875 -0.92187,0 -1.5625,0.51562 -0.64062,0.5 -1.01562,1.82813 -0.35938,1.32812 -0.35938,5.5625 z m 7.23438,-8.53125 q 0,-2.1875 1.07812,-4.23438 1.07813,-2.04687 3.04688,-3.125 1.98437,-1.07812 4.42187,-1.07812 3.76563,0 6.17188,2.45312 2.40625,2.4375 2.40625,6.17188 0,3.76562 -2.4375,6.25 -2.42188,2.46875 -6.10938,2.46875 -2.28125,0 -4.35937,-1.03125 -2.0625,-1.03125 -3.14063,-3.01563 -1.07812,-2 -1.07812,-4.85937 z m 4.5,0.23437 q 0,2.46875 1.17187,3.78125 1.17188,1.3125 2.89063,1.3125 1.71875,0 2.875,-1.3125 1.17187,-1.3125 1.17187,-3.8125 0,-2.4375 -1.17187,-3.75 -1.15625,-1.3125 -2.875,-1.3125 -1.71875,0 -2.89063,1.3125 -1.17187,1.3125 -1.17187,3.78125 z m 31.15625,8.29688 h -4.39063 v -8.46875 q 0,-2.6875 -0.28125,-3.46875 -0.28125,-0.79688 -0.92187,-1.23438 -0.625,-0.4375 -1.51563,-0.4375 -1.14062,0 -2.04687,0.625 -0.90625,0.625 -1.25,1.65625 -0.32813,1.03125 -0.32813,3.8125 v 7.51563 h -4.39062 v -16.59375 h 4.07812 v 2.4375 q 2.17188,-2.8125 5.46875,-2.8125 1.45313,0 2.65625,0.53125 1.20313,0.51562 1.8125,1.32812 0.625,0.8125 0.85938,1.84375 0.25,1.03125 0.25,2.95313 z m 14.0625,-5.28125 4.375,0.73437 q -0.84375,2.40625 -2.67188,3.67188 -1.8125,1.25 -4.54687,1.25 -4.32813,0 -6.40625,-2.82813 -1.64063,-2.26562 -1.64063,-5.71875 0,-4.125 2.15625,-6.45312 2.15625,-2.34375 5.45313,-2.34375 3.70312,0 5.84375,2.45312 2.14062,2.4375 2.04687,7.48438 h -11 q 0.0469,1.95312 1.0625,3.04687 1.01563,1.07813 2.53125,1.07813 1.03125,0 1.73438,-0.5625 0.70312,-0.5625 1.0625,-1.8125 z m 0.25,-4.4375 q -0.0469,-1.90625 -0.98438,-2.89063 -0.9375,-1 -2.28125,-1 -1.4375,0 -2.375,1.04688 -0.9375,1.04687 -0.92187,2.84375 z m 36.32812,9.71875 h -5.03125 l -2,-5.20313 h -9.15625 l -1.89062,5.20313 h -4.90625 l 8.92187,-22.90625 h 4.89063 z m -8.51562,-9.0625 -3.15625,-8.5 -3.09375,8.5 z m 15.14062,9.0625 h -4.39062 v -16.59375 h 4.07812 v 2.35937 q 1.04688,-1.67187 1.875,-2.20312 0.84375,-0.53125 1.90625,-0.53125 1.5,0 2.89063,0.82812 l -1.35938,3.82813 q -1.10937,-0.71875 -2.0625,-0.71875 -0.92187,0 -1.5625,0.51562 -0.64062,0.5 -1.01562,1.82813 -0.35938,1.32812 -0.35938,5.5625 z m 17.85938,-5.28125 4.375,0.73437 q -0.84375,2.40625 -2.67188,3.67188 -1.8125,1.25 -4.54687,1.25 -4.32813,0 -6.40625,-2.82813 -1.64063,-2.26562 -1.64063,-5.71875 0,-4.125 2.15625,-6.45312 2.15625,-2.34375 5.45313,-2.34375 3.70312,0 5.84375,2.45312 2.14062,2.4375 2.04687,7.48438 h -11 q 0.0469,1.95312 1.0625,3.04687 1.01563,1.07813 2.53125,1.07813 1.03125,0 1.73438,-0.5625 0.70312,-0.5625 1.0625,-1.8125 z m 0.25,-4.4375 q -0.0469,-1.90625 -0.98438,-2.89063 -0.9375,-1 -2.28125,-1 -1.4375,0 -2.375,1.04688 -0.9375,1.04687 -0.92187,2.84375 z m 11.21875,-1.8125 -3.98438,-0.71875 q 0.67188,-2.40625 2.3125,-3.5625 1.64063,-1.15625 4.875,-1.15625 2.9375,0 4.375,0.70312 1.4375,0.6875 2.01563,1.76563 0.59375,1.0625 0.59375,3.92187 l -0.0469,5.125 q 0,2.1875 0.20313,3.23438 0.21875,1.03125 0.79687,2.21875 h -4.34375 q -0.17187,-0.4375 -0.42187,-1.29688 -0.10938,-0.39062 -0.15625,-0.51562 -1.125,1.09375 -2.40625,1.64062 -1.28125,0.54688 -2.73438,0.54688 -2.5625,0 -4.04687,-1.39063 -1.46875,-1.39062 -1.46875,-3.51562 0,-1.40625 0.67187,-2.5 0.67188,-1.10938 1.875,-1.6875 1.21875,-0.59375 3.5,-1.03125 3.07813,-0.57813 4.26563,-1.07813 v -0.4375 q 0,-1.26562 -0.625,-1.79687 -0.625,-0.54688 -2.35938,-0.54688 -1.17187,0 -1.82812,0.46875 -0.65625,0.45313 -1.0625,1.60938 z m 5.875,3.5625 q -0.84375,0.28125 -2.67188,0.67187 -1.82812,0.39063 -2.39062,0.76563 -0.85938,0.60937 -0.85938,1.54687 0,0.92188 0.6875,1.59375 0.6875,0.67188 1.75,0.67188 1.1875,0 2.26563,-0.78125 0.79687,-0.59375 1.04687,-1.45313 0.17188,-0.5625 0.17188,-2.14062 z"
     id="text1"
     transform="matrix(0.32882941,0,0,0.35177789,-4.611443,-17.394994)"
     aria-label="      CAUTION&#10;Crash Prone Area" /><text
     xml:space="preserve"
     style="font-style:normal;font-variant:normal;font-weight:bold;font-stretch:normal;font-size:9.87777px;font-family:Arial;-inkscape-font-specification:'Arial, Bold';font-variant-ligatures:normal;font-variant-caps:normal;font-variant-numeric:normal;font-variant-east-asian:normal;text-align:start;writing-mode:lr-tb;direction:ltr;text-anchor:start;fill:#000000;fill-opacity:1;stroke-width:0.264583"
     x="22.691101"
     y="37.585773"
     id="text2"><tspan
       sodipodi:role="line"
       id="tspan2"
       style="stroke-width:0.264583"
       x="22.691101"
       y="37.585773" /></text></svg>
