<?xml version="1.0" encoding="UTF-8" standalone="no"?>
<!-- Created with Inkscape (http://www.inkscape.org/) -->

<svg
   width="38.885635mm"
   height="51.847397mm"
   viewBox="0 0 38.885636 51.847397"
   version="1.1"
   id="svg1"
   inkscape:version="1.4 (86a8ad7, 2024-10-11)"
   sodipodi:docname="cycle parking.svg"
   xmlns:inkscape="http://www.inkscape.org/namespaces/inkscape"
   xmlns:sodipodi="http://sodipodi.sourceforge.net/DTD/sodipodi-0.dtd"
   xmlns="http://www.w3.org/2000/svg"
   xmlns:svg="http://www.w3.org/2000/svg">
  <sodipodi:namedview
     id="namedview1"
     pagecolor="#ffffff"
     bordercolor="#000000"
     borderopacity="0.25"
     inkscape:showpageshadow="2"
     inkscape:pageopacity="0.0"
     inkscape:pagecheckerboard="0"
     inkscape:deskcolor="#d1d1d1"
     inkscape:document-units="mm"
     inkscape:zoom="2.8756734"
     inkscape:cx="87.979393"
     inkscape:cy="124.31871"
     inkscape:window-width="1920"
     inkscape:window-height="1009"
     inkscape:window-x="-8"
     inkscape:window-y="-8"
     inkscape:window-maximized="1"
     inkscape:current-layer="layer1" />
  <defs
     id="defs1">
    <clipPath
       clipPathUnits="userSpaceOnUse"
       id="clipPath4">
      <path
         d="M 0,841.89 H 595.276 V 0 H 0 Z"
         transform="translate(-431.55501,-66.122927)"
         id="path4" />
    </clipPath>
    <clipPath
       clipPathUnits="userSpaceOnUse"
       id="clipPath6">
      <path
         d="M 0,841.89 H 595.276 V 0 H 0 Z"
         transform="translate(-545.64901,-182.217)"
         id="path6" />
    </clipPath>
    <clipPath
       clipPathUnits="userSpaceOnUse"
       id="clipPath8">
      <path
         d="M 0,841.89 H 595.276 V 0 H 0 Z"
         transform="translate(-501.30701,-127.005)"
         id="path8" />
    </clipPath>
    <clipPath
       clipPathUnits="userSpaceOnUse"
       id="clipPath5553">
      <path
         d="M 0,841.89 H 595.276 V 0 H 0 Z"
         transform="translate(-151.35801,-729.50702)"
         id="path5553" />
    </clipPath>
    <clipPath
       clipPathUnits="userSpaceOnUse"
       id="clipPath5555">
      <path
         d="M 0,841.89 H 595.276 V 0 H 0 Z"
         transform="translate(-58.177001,-587.26201)"
         id="path5555" />
    </clipPath>
    <clipPath
       clipPathUnits="userSpaceOnUse"
       id="clipPath5557">
      <path
         d="M 0,841.89 H 595.276 V 0 H 0 Z"
         transform="translate(-112.815,-696.64601)"
         id="path5557" />
    </clipPath>
    <clipPath
       clipPathUnits="userSpaceOnUse"
       id="clipPath5559">
      <path
         d="M 0,841.89 H 595.276 V 0 H 0 Z"
         transform="translate(-145.866,-593.51302)"
         id="path5559" />
    </clipPath>
    <clipPath
       clipPathUnits="userSpaceOnUse"
       id="clipPath5561">
      <path
         d="M 0,841.89 H 595.276 V 0 H 0 Z"
         transform="translate(-124.09,-615.17702)"
         id="path5561" />
    </clipPath>
    <clipPath
       clipPathUnits="userSpaceOnUse"
       id="clipPath5483">
      <path
         d="M 0,841.89 H 595.276 V 0 H 0 Z"
         transform="translate(-409.86901,-627.04301)"
         id="path5483" />
    </clipPath>
  </defs>
  <rect
     style="fill:#ffffff;fill-opacity:1;stroke:none;stroke-width:2.221;stroke-opacity:1"
     id="rect1"
     width="36.664997"
     height="49.625999"
     x="86.666161"
     y="121.17709"
     transform="translate(-85.590467,-120.1014)" />
  <g
     inkscape:label="Layer 1"
     inkscape:groupmode="layer"
     id="layer1"
     transform="translate(-85.590466,-120.1014)">
    <path
       id="path5552"
       d="m 0,0 h -93.181 c -4.68,0 -8.488,-3.756 -8.488,-8.375 v -130.22 c 0,-4.616 3.808,-8.374 8.488,-8.374 H 0 c 4.716,0 8.558,3.758 8.558,8.374 V -8.375 C 8.558,-3.756 4.716,0 0,0 m 0,-0.495 c 4.445,0 8.063,-3.535 8.063,-7.88 v -130.22 c 0,-4.344 -3.618,-7.879 -8.063,-7.879 h -93.181 c -4.407,0 -7.993,3.535 -7.993,7.879 v 130.22 c 0,4.345 3.586,7.88 7.993,7.88 H 0"
       style="fill:#4467a5;fill-opacity:1;fill-rule:nonzero;stroke:none"
       transform="matrix(0.35277776,0,0,-0.35277776,121.45703,120.1014)"
       clip-path="url(#clipPath5553)" />
    <path
       id="path5554"
       d="m 0,0 c -0.824,0 -1.455,0.451 -1.839,0.83 -0.724,0.714 -1.138,1.742 -1.138,2.82 v 130.22 c 0,1.079 0.414,2.108 1.138,2.821 0.384,0.378 1.014,0.83 1.839,0.83 h 93.181 c 0.858,0 1.508,-0.459 1.902,-0.844 0.727,-0.712 1.144,-1.735 1.144,-2.807 V 3.65 C 96.227,2.579 95.81,1.557 95.082,0.845 94.688,0.459 94.039,0 93.181,0 Z"
       style="fill:#4467a5;fill-opacity:1;fill-rule:nonzero;stroke:none"
       transform="matrix(0.35277776,0,0,-0.35277776,88.584841,170.28228)"
       clip-path="url(#clipPath5555)" />
    <path
       id="path5556"
       d="m 0,0 c -0.81,-1.178 -1.914,-2.036 -3.325,-2.589 -1.411,-0.552 -4.222,-0.822 -8.418,-0.822 h -5.817 v 14.946 h 5.142 c 3.828,0 6.381,-0.11 7.657,-0.355 1.718,-0.307 3.154,-1.093 4.271,-2.332 C 0.639,7.596 1.203,6.014 1.203,4.1 1.203,2.54 0.798,1.179 0,0 m 9.117,14.505 c -2.036,2.65 -4.576,4.369 -7.595,5.154 -1.963,0.528 -6.185,0.797 -12.652,0.797 h -17.069 v -52.704 h 10.639 v 19.88 h 6.933 c 4.823,0 8.505,0.257 11.045,0.76 1.865,0.405 3.705,1.24 5.509,2.491 1.816,1.264 3.301,2.994 4.479,5.203 1.178,2.196 1.767,4.921 1.767,8.16 0,4.185 -1.019,7.608 -3.056,10.259"
       style="fill:#ffffff;fill-opacity:1;fill-rule:nonzero;stroke:none"
       transform="matrix(0.35277776,0,0,-0.35277776,107.85991,131.69403)"
       clip-path="url(#clipPath5557)" />
    <path
       id="path5558"
       d="m 0,0 h -82.127 c -1.699,0 -3.077,1.378 -3.077,3.077 v 57.965 c 0,1.7 1.378,3.078 3.077,3.078 H 0 c 1.699,0 3.077,-1.378 3.077,-3.078 V 3.077 C 3.077,1.378 1.699,0 0,0"
       style="fill:#ffffff;fill-opacity:1;fill-rule:nonzero;stroke:none"
       transform="matrix(0.35277776,0,0,-0.35277776,119.51957,168.07706)"
       clip-path="url(#clipPath5559)" />
    <path
       id="path5482"
       d="m 0,0 c -1.59,0.003 -3.1,-0.313 -4.479,-0.895 l -4.574,7.866 0.859,2.485 c 0,0 0.441,0.095 1.092,0.23 0.649,0.142 1.561,1.32 1.895,2.037 0.333,0.716 -0.257,0.759 -0.257,0.759 h -9.914 c -0.929,0 -1.608,-1.443 -0.236,-1.861 l 4.451,-1.013 -1.016,-2.87 h -21.08 c 0,0 0.228,0.834 0.504,2.091 0.276,1.262 -0.391,1.738 -1.207,2.567 -0.815,0.829 0.313,1.086 0.313,1.086 h 4.451 v 2.873 h -5.387 c 0,0 -1.849,-0.119 -2.576,-1.32 -0.514,-0.847 -0.818,-3.33 0.636,-4.049 1.456,-0.716 0.456,-2.547 0.456,-2.547 0,0 -1.147,-4.283 -2.202,-8.188 -1.265,0.477 -2.624,0.746 -4.049,0.749 -6.346,0.011 -11.49,-5.099 -11.488,-11.411 0.003,-6.313 5.15,-11.44 11.493,-11.447 6.343,-0.007 11.486,5.098 11.484,11.412 0,3.846 -1.921,7.245 -4.849,9.32 l 0.393,1.486 13.417,-9.372 c -0.139,-0.443 -0.231,-0.899 -0.231,-1.386 0,-2.626 2.138,-4.749 4.779,-4.749 0.477,0 0.933,0.091 1.372,0.221 l 0.728,-1.555 h -1.249 v -1.555 h 1.249 c 0,0 0.695,-0.663 1.406,-0.546 0.71,0.122 0.858,0.546 0.858,0.546 h 1.249 v 1.555 h -2.031 l -0.985,2.103 c 1.029,0.666 1.783,1.711 2.057,2.938 h 0.023 1.212 c 0.529,-5.829 5.447,-10.411 11.441,-10.418 6.344,-0.007 11.487,5.098 11.484,11.412 C 11.489,-5.135 6.344,-0.011 0,0 m -34.154,-11.446 c 0.003,-2.17 -0.841,-4.207 -2.382,-5.737 -1.538,-1.532 -3.585,-2.371 -5.759,-2.371 h -0.016 c -4.506,0.005 -8.172,3.654 -8.172,8.143 -0.006,2.17 0.839,4.207 2.38,5.736 1.539,1.532 3.585,2.371 5.759,2.371 1.134,0 2.213,-0.235 3.198,-0.647 -0.436,-1.578 -0.769,-2.759 -0.865,-3.027 -0.347,-0.981 -1.14,-1.804 -1.54,-2.312 -0.4,-0.507 -2.608,-1.354 -1.703,-2.761 0.943,-1.464 2.672,0.115 3.177,0.326 1.656,0.692 2.839,3.636 2.839,3.636 l 0.635,2.438 c 1.51,-1.477 2.449,-3.53 2.449,-5.795 m -0.277,13.76 0.39,1.551 h 20.77 l -3.843,-10.532 c -0.072,0.003 -0.139,0.021 -0.208,0.021 -0.485,0 -0.941,-0.091 -1.379,-0.227 l -0.736,1.575 h 1.326 v 1.556 h -1.326 c 0,0 -0.539,0.619 -1.331,0.543 -0.787,-0.076 -0.858,-0.543 -0.858,-0.543 h -1.323 v -1.556 h 2.025 l 0.997,-2.123 c -0.099,-0.066 -0.187,-0.141 -0.282,-0.212 z m 17.109,-16.813 c -1.72,0 -3.122,1.39 -3.122,3.101 0,1.71 1.402,3.1 3.122,3.1 1.72,0 3.121,-1.39 3.121,-3.1 0,-1.711 -1.401,-3.101 -3.121,-3.101 m 4.651,4.153 c -0.246,1.081 -0.869,2.01 -1.715,2.673 l 4.082,11.151 3.351,-5.816 c -2.485,-1.881 -4.174,-4.739 -4.477,-8.008 z m 7.387,5.117 2.943,-5.114 -5.746,-0.003 c 0.229,1.768 1.022,3.397 2.309,4.671 0.156,0.158 0.322,0.304 0.494,0.446 M 5.79,-17.183 C 4.248,-18.715 2.203,-19.554 0.028,-19.554 H 0.011 c -4.157,0.005 -7.59,3.114 -8.1,7.114 h 8.174 c 1.689,0 1.659,1.095 0.894,2.167 l -3.771,6.482 c 0.877,0.316 1.811,0.487 2.772,0.487 4.523,-0.005 8.189,-3.659 8.189,-8.142 0.003,-2.17 -0.843,-4.207 -2.379,-5.737"
       style="fill:#000000;fill-opacity:1;fill-rule:nonzero;stroke:none"
       transform="matrix(0.35277776,0,0,-0.35277776,112.30284,155.65841)"
       clip-path="url(#clipPath5483)" />
  </g>
</svg>
