<?xml version="1.0" encoding="UTF-8" standalone="no"?>
<!-- Created with Inkscape (http://www.inkscape.org/) -->

<svg
   width="44.999977mm"
   height="59.999737mm"
   viewBox="0 0 44.999977 59.999737"
   version="1.1"
   id="svg1"
   inkscape:version="1.4 (86a8ad7, 2024-10-11)"
   sodipodi:docname="cycle rickshaw stand.svg"
   xmlns:inkscape="http://www.inkscape.org/namespaces/inkscape"
   xmlns:sodipodi="http://sodipodi.sourceforge.net/DTD/sodipodi-0.dtd"
   xmlns="http://www.w3.org/2000/svg"
   xmlns:svg="http://www.w3.org/2000/svg">
  <sodipodi:namedview
     id="namedview1"
     pagecolor="#ffffff"
     bordercolor="#000000"
     borderopacity="0.25"
     inkscape:showpageshadow="2"
     inkscape:pageopacity="0.0"
     inkscape:pagecheckerboard="0"
     inkscape:deskcolor="#d1d1d1"
     inkscape:document-units="mm"
     inkscape:zoom="1.4378367"
     inkscape:cx="-128.66552"
     inkscape:cy="137.35913"
     inkscape:window-width="1920"
     inkscape:window-height="1009"
     inkscape:window-x="-8"
     inkscape:window-y="-8"
     inkscape:window-maximized="1"
     inkscape:current-layer="g4075" />
  <defs
     id="defs1">
    <rect
       x="7.650382"
       y="169.35164"
       width="218.38363"
       height="59.464333"
       id="rect3" />
    <rect
       x="26.080848"
       y="26.776337"
       width="146.05275"
       height="37.556421"
       id="rect2" />
    <inkscape:path-effect
       effect="fillet_chamfer"
       id="path-effect1"
       is_visible="true"
       lpeversion="1"
       nodesatellites_param="F,0,0,1,0,0,0,1 @ F,0,0,1,0,0,0,1 @ F,0,0,1,0,0,0,1 @ F,0,0,1,0,0,0,1"
       radius="0"
       unit="px"
       method="auto"
       mode="F"
       chamfer_steps="1"
       flexible="false"
       use_knot_distance="true"
       apply_no_radius="true"
       apply_with_radius="true"
       only_selected="false"
       hide_knots="false" />
    <clipPath
       clipPathUnits="userSpaceOnUse"
       id="clipPath4010">
      <path
         d="M 0,841.89 H 595.276 V 0 H 0 Z"
         transform="translate(-166.51401,-731.52902)"
         id="path4010" />
    </clipPath>
    <clipPath
       clipPathUnits="userSpaceOnUse"
       id="clipPath4012">
      <path
         d="M 0,841.89 H 595.276 V 0 H 0 Z"
         transform="translate(-59.355001,-725.79102)"
         id="path4012" />
    </clipPath>
    <clipPath
       clipPathUnits="userSpaceOnUse"
       id="clipPath4014">
      <path
         d="M 0,841.89 H 595.276 V 0 H 0 Z"
         id="path4014" />
    </clipPath>
    <clipPath
       clipPathUnits="userSpaceOnUse"
       id="clipPath4016">
      <path
         d="M 0,841.89 H 595.276 V 0 H 0 Z"
         transform="translate(-132.939,-632.53702)"
         id="path4016" />
    </clipPath>
    <clipPath
       clipPathUnits="userSpaceOnUse"
       id="clipPath4018">
      <path
         d="M 0,841.89 H 595.276 V 0 H 0 Z"
         transform="translate(-446.64601,-731.52902)"
         id="path4018" />
    </clipPath>
    <clipPath
       clipPathUnits="userSpaceOnUse"
       id="clipPath4020">
      <path
         d="M 0,841.89 H 595.276 V 0 H 0 Z"
         transform="translate(-339.48701,-725.79102)"
         id="path4020" />
    </clipPath>
    <clipPath
       clipPathUnits="userSpaceOnUse"
       id="clipPath4022">
      <path
         d="M 0,841.89 H 595.276 V 0 H 0 Z"
         id="path4022" />
    </clipPath>
    <clipPath
       clipPathUnits="userSpaceOnUse"
       id="clipPath4024">
      <path
         d="M 0,841.89 H 595.276 V 0 H 0 Z"
         transform="translate(-409.44701,-659.97202)"
         id="path4024" />
    </clipPath>
    <clipPath
       clipPathUnits="userSpaceOnUse"
       id="clipPath1000">
      <path
         d="M 0,0 H 595.276 V 841.89 H 0 Z"
         transform="translate(-166.51401,-731.47102)"
         id="path1000" />
    </clipPath>
    <clipPath
       clipPathUnits="userSpaceOnUse"
       id="clipPath1002">
      <path
         d="M 0,0 H 595.276 V 841.89 H 0 Z"
         transform="translate(-59.354602,-725.73102)"
         id="path1002" />
    </clipPath>
    <clipPath
       clipPathUnits="userSpaceOnUse"
       id="clipPath1004">
      <path
         d="M 0,0 H 595.276 V 841.89 H 0 Z"
         transform="translate(-94.148605,-610.35401)"
         id="path1004" />
    </clipPath>
    <clipPath
       clipPathUnits="userSpaceOnUse"
       id="clipPath1006">
      <path
         d="M 0,0 H 595.276 V 841.89 H 0 Z"
         id="path1006" />
    </clipPath>
    <clipPath
       clipPathUnits="userSpaceOnUse"
       id="clipPath1008">
      <path
         d="M 0,0 H 595.276 V 841.89 H 0 Z"
         transform="translate(-141.47001,-653.96302)"
         id="path1008" />
    </clipPath>
    <clipPath
       clipPathUnits="userSpaceOnUse"
       id="clipPath1010">
      <path
         d="M 0,0 H 595.276 V 841.89 H 0 Z"
         id="path1010" />
    </clipPath>
    <clipPath
       clipPathUnits="userSpaceOnUse"
       id="clipPath1012">
      <path
         d="M 0,0 H 595.276 V 841.89 H 0 Z"
         transform="translate(-122.364,-682.30502)"
         id="path1012" />
    </clipPath>
    <clipPath
       clipPathUnits="userSpaceOnUse"
       id="clipPath1156">
      <path
         d="M 0,841.89 H 595.276 V 0 H 0 Z"
         transform="translate(-446.60801,-731.50002)"
         id="path1156" />
    </clipPath>
    <clipPath
       clipPathUnits="userSpaceOnUse"
       id="clipPath1158">
      <path
         d="M 0,841.89 H 595.276 V 0 H 0 Z"
         transform="translate(-339.44801,-725.76202)"
         id="path1158" />
    </clipPath>
    <clipPath
       clipPathUnits="userSpaceOnUse"
       id="clipPath1160">
      <path
         d="M 0,841.89 H 595.276 V 0 H 0 Z"
         id="path1160" />
    </clipPath>
    <clipPath
       clipPathUnits="userSpaceOnUse"
       id="clipPath1162">
      <path
         d="M 0,841.89 H 595.276 V 0 H 0 Z"
         transform="translate(-399.90201,-688.14002)"
         id="path1162" />
    </clipPath>
    <clipPath
       clipPathUnits="userSpaceOnUse"
       id="clipPath1166">
      <path
         d="M 0,841.89 H 595.276 V 0 H 0 Z"
         transform="translate(-168.13701,-485.24801)"
         id="path1166" />
    </clipPath>
    <clipPath
       clipPathUnits="userSpaceOnUse"
       id="clipPath1168">
      <path
         d="M 0,841.89 H 595.276 V 0 H 0 Z"
         transform="translate(-60.977702,-479.51001)"
         id="path1168" />
    </clipPath>
    <clipPath
       clipPathUnits="userSpaceOnUse"
       id="clipPath1170">
      <path
         d="M 0,841.89 H 595.276 V 0 H 0 Z"
         transform="translate(-138.622,-407.33201)"
         id="path1170" />
    </clipPath>
    <clipPath
       clipPathUnits="userSpaceOnUse"
       id="clipPath1007">
      <path
         d="M 0,841.89 H 595.276 V 0 H 0 Z"
         transform="translate(-166.752,-731.50002)"
         id="path1007" />
    </clipPath>
    <clipPath
       clipPathUnits="userSpaceOnUse"
       id="clipPath1009">
      <path
         d="M 0,841.89 H 595.276 V 0 H 0 Z"
         transform="translate(-59.592802,-725.76202)"
         id="path1009" />
    </clipPath>
    <clipPath
       clipPathUnits="userSpaceOnUse"
       id="clipPath1011">
      <path
         d="M 0,841.89 H 595.276 V 0 H 0 Z"
         id="path1011" />
    </clipPath>
    <clipPath
       clipPathUnits="userSpaceOnUse"
       id="clipPath1013">
      <path
         d="M 0,841.89 H 595.276 V 0 H 0 Z"
         transform="translate(-118.70601,-673.88102)"
         id="path1013" />
    </clipPath>
    <clipPath
       clipPathUnits="userSpaceOnUse"
       id="clipPath1015">
      <path
         d="M 0,841.89 H 595.276 V 0 H 0 Z"
         transform="translate(-123.664,-640.92401)"
         id="path1015" />
    </clipPath>
    <clipPath
       clipPathUnits="userSpaceOnUse"
       id="clipPath1023">
      <path
         d="M 0,841.89 H 595.276 V 0 H 0 Z"
         transform="translate(-375.64601,-621.74402)"
         id="path1023" />
    </clipPath>
    <clipPath
       clipPathUnits="userSpaceOnUse"
       id="clipPath1029">
      <path
         d="M 0,841.89 H 595.276 V 0 H 0 Z"
         id="path1029" />
    </clipPath>
    <clipPath
       clipPathUnits="userSpaceOnUse"
       id="clipPath1031">
      <path
         d="m 86.891,371.984 h 51.97 v 51.969 h -51.97 z"
         transform="translate(-108.942,-390.79301)"
         id="path1031" />
    </clipPath>
    <clipPath
       clipPathUnits="userSpaceOnUse"
       id="clipPath1033">
      <path
         d="m 86.891,371.984 h 51.97 v 51.969 h -51.97 z"
         transform="translate(-148.42401,-407.59701)"
         id="path1033" />
    </clipPath>
    <clipPath
       clipPathUnits="userSpaceOnUse"
       id="clipPath1035">
      <path
         d="m 86.891,371.984 h 51.97 v 51.969 h -51.97 z"
         transform="translate(-116.1,-390.48901)"
         id="path1035" />
    </clipPath>
    <clipPath
       clipPathUnits="userSpaceOnUse"
       id="clipPath1037">
      <path
         d="m 86.891,371.984 h 51.97 v 51.969 h -51.97 z"
         transform="translate(-118.399,-396.10401)"
         id="path1037" />
    </clipPath>
    <clipPath
       clipPathUnits="userSpaceOnUse"
       id="clipPath1039">
      <path
         d="m 86.891,371.984 h 51.97 v 51.969 h -51.97 z"
         transform="translate(-100.858,-408.56701)"
         id="path1039" />
    </clipPath>
    <clipPath
       clipPathUnits="userSpaceOnUse"
       id="clipPath1041">
      <path
         d="m 86.891,371.984 h 51.97 v 51.969 h -51.97 z"
         transform="translate(-116.412,-406.55201)"
         id="path1041" />
    </clipPath>
    <clipPath
       clipPathUnits="userSpaceOnUse"
       id="clipPath1043">
      <path
         d="m 86.891,371.984 h 51.97 v 51.969 h -51.97 z"
         transform="translate(-116.1,-393.12401)"
         id="path1043" />
    </clipPath>
    <clipPath
       clipPathUnits="userSpaceOnUse"
       id="clipPath1045">
      <path
         d="m 86.891,371.984 h 51.97 v 51.969 h -51.97 z"
         transform="translate(-103.10001,-393.12401)"
         id="path1045" />
    </clipPath>
    <clipPath
       clipPathUnits="userSpaceOnUse"
       id="clipPath1047">
      <path
         d="m 86.891,371.984 h 51.97 v 51.969 h -51.97 z"
         transform="translate(-100.852,-408.39101)"
         id="path1047" />
    </clipPath>
    <clipPath
       clipPathUnits="userSpaceOnUse"
       id="clipPath1049">
      <path
         d="m 86.891,371.984 h 51.97 v 51.969 h -51.97 z"
         transform="translate(-148.318,-416.40201)"
         id="path1049" />
    </clipPath>
    <clipPath
       clipPathUnits="userSpaceOnUse"
       id="clipPath1051">
      <path
         d="m 86.891,371.984 h 51.97 v 51.969 h -51.97 z"
         transform="translate(-127.252,-404.72201)"
         id="path1051" />
    </clipPath>
    <clipPath
       clipPathUnits="userSpaceOnUse"
       id="clipPath1053">
      <path
         d="m 86.891,371.984 h 51.97 v 51.969 h -51.97 z"
         transform="translate(-135.25401,-409.57201)"
         id="path1053" />
    </clipPath>
    <clipPath
       clipPathUnits="userSpaceOnUse"
       id="clipPath1055">
      <path
         d="m 86.891,371.984 h 51.97 v 51.969 h -51.97 z"
         transform="translate(-136.5,-413.83301)"
         id="path1055" />
    </clipPath>
    <clipPath
       clipPathUnits="userSpaceOnUse"
       id="clipPath1057">
      <path
         d="m 86.891,371.984 h 51.97 v 51.969 h -51.97 z"
         transform="translate(-140.895,-412.77601)"
         id="path1057" />
    </clipPath>
    <clipPath
       clipPathUnits="userSpaceOnUse"
       id="clipPath1059">
      <path
         d="m 86.891,371.984 h 51.97 v 51.969 h -51.97 z"
         transform="translate(-106.993,-409.35601)"
         id="path1059" />
    </clipPath>
    <clipPath
       clipPathUnits="userSpaceOnUse"
       id="clipPath9">
      <path
         d="M 0,841.89 H 595.276 V 0 H 0 Z"
         transform="translate(-84.240205,-145.804)"
         id="path9" />
    </clipPath>
  </defs>
  <g
     inkscape:label="Layer 1"
     inkscape:groupmode="layer"
     id="layer1"
     transform="translate(-82.549999,-118.53333)">
    <g
       id="g4075"
       transform="matrix(0.26458333,0,0,0.26458333,65.313981,79.600425)">
      <g
         id="g3">
        <path
           style="fill:#ffffff;stroke:#ffffff;stroke-width:0.877059"
           id="rect1"
           width="169.20169"
           height="225.89459"
           x="65.582489"
           y="147.58603"
           inkscape:path-effect="#path-effect1"
           sodipodi:type="rect"
           d="M 65.582489,147.58603 H 234.78418 V 373.48062 H 65.582489 Z" />
        <path
           id="path1006-8"
           d="m 0,0 h -107.833 c -5.417,0 -9.823,-4.346 -9.823,-9.691 v -150.697 c 0,-5.342 4.406,-9.691 9.823,-9.691 H 0 c 5.458,0 9.903,4.349 9.903,9.691 V -9.691 C 9.903,-4.346 5.458,0 0,0 m 0,-0.572 c 5.145,0 9.331,-4.091 9.331,-9.119 v -150.697 c 0,-5.027 -4.186,-9.118 -9.331,-9.118 h -107.833 c -5.101,0 -9.25,4.091 -9.25,9.118 V -9.691 c 0,5.028 4.149,9.119 9.25,9.119 L 0,-0.572"
           style="fill:#4467a5;fill-opacity:1;fill-rule:nonzero;stroke:none"
           transform="matrix(1.3333333,0,0,-1.3333333,222.01867,147.14732)"
           clip-path="url(#clipPath1007)" />
        <path
           id="path1008-8"
           d="m 0,0 c -2.552,0 -4.627,-2.08 -4.627,-4.636 v -149.335 c 0,-2.554 2.075,-4.633 4.627,-4.633 h 106.485 c 2.594,0 4.704,2.079 4.704,4.633 V -4.636 c 0,2.556 -2.11,4.636 -4.704,4.636 z"
           style="fill:#4467a5;fill-opacity:1;fill-rule:nonzero;stroke:none"
           transform="matrix(1.3333333,0,0,-1.3333333,79.139732,154.79798)"
           clip-path="url(#clipPath1009)" />
        <path
           id="path1028"
           d="M 147.317,363.528 H 78.435 v 68.882 h 68.882 z"
           style="fill:#ffffff;fill-opacity:1;fill-rule:nonzero;stroke:none"
           transform="matrix(1.3333333,0,0,-1.3333333,-0.31799581,791.15864)"
           clip-path="url(#clipPath1029)" />
        <path
           id="path8"
           d="m 0,0 c 0.002,-4.046 3.285,-7.332 7.331,-7.34 4.044,-0.004 7.322,3.272 7.32,7.319 0,2.467 -1.222,4.645 -3.09,5.978 l 0.248,0.954 8.557,-6.012 C 20.278,0.617 20.218,0.322 20.218,0.01 c 0,-1.682 1.367,-3.046 3.046,-3.046 0.309,0 0.597,0.06 0.875,0.141 l 0.465,-1 h -0.795 v -0.996 h 0.795 c 0,0 0.443,-0.421 0.895,-0.346 0.454,0.078 0.55,0.346 0.55,0.346 h 0.797 v 0.998 h -1.295 l -0.63,1.353 c 0.657,0.425 1.138,1.095 1.312,1.882 l 0.014,0.002 h 0.775 3.782 l 4.986,-0.033 c 0.359,-3.684 3.484,-6.562 7.29,-6.562 4.045,0 7.327,3.252 7.327,7.267 0,4.013 -3.282,7.267 -7.327,7.267 -0.833,0 -1.636,-0.139 -2.384,-0.393 l -0.389,0.865 c 0.866,0.308 1.8,0.476 2.773,0.476 2.174,0 4.152,-0.835 5.629,-2.199 9.888,4.416 8.687,6.87 8.311,7.788 -0.492,1.202 -0.447,1.194 -0.825,1.701 -0.621,0.842 -1.609,0.508 -2.372,-0.065 C 51.709,13.863 47.732,10.749 40.549,10.443 32.405,10.096 30.622,2.595 30.622,2.594 l -2.085,9.196 0.549,1.593 c 0,0 0.283,0.061 0.697,0.148 0.415,0.092 0.996,0.848 1.207,1.307 0.214,0.459 -0.16,0.488 -0.16,0.488 h -6.325 c -0.593,0 -1.025,-0.925 -0.15,-1.196 l 2.839,-0.647 -0.647,-1.84 H 13.103 c 0,0 0.146,0.53 0.321,1.34 0.177,0.806 -0.249,1.113 -0.769,1.646 -0.519,0.528 0.2,0.697 0.2,0.697 h 2.839 v 1.843 h -3.436 c 0,0 -1.18,-0.078 -1.643,-0.849 -0.327,-0.543 -0.521,-2.135 0.407,-2.596 0.926,-0.461 0.289,-1.632 0.289,-1.632 0,0 -0.729,-2.747 -1.405,-5.253 C 9.102,7.144 8.235,7.317 7.325,7.321 3.279,7.325 0,4.051 0,0 M 39.245,6.207 C 37.317,5.031 35.982,2.992 35.783,0.632 l -0.954,0.012 c 0.21,2.728 1.767,5.09 4.011,6.425 z M 40.113,4.354 41.884,0.57 37.782,0.613 c 0.186,1.562 1.066,2.914 2.331,3.741 m -2.317,-5.058 6.344,-0.043 -2.597,5.759 c 0.469,0.134 0.961,0.209 1.473,0.209 2.905,0 5.267,-2.341 5.267,-5.212 0,-2.872 -2.362,-5.209 -5.267,-5.209 -2.662,0 -4.868,1.959 -5.22,4.496 M 25.205,2.586 27.741,9.55 29.217,2.589 Z M 21.275,0.01 c 0,1.096 0.895,1.988 1.989,1.988 1.099,0 1.991,-0.892 1.991,-1.988 0,-1.097 -0.892,-1.988 -1.991,-1.988 -1.094,0 -1.989,0.891 -1.989,1.988 m -8.918,8.792 0.25,0.996 H 25.85 L 23.398,3.043 c -0.044,0.004 -0.087,0.015 -0.134,0.015 -0.307,0 -0.598,-0.06 -0.877,-0.145 l -0.471,1.01 h 0.847 v 0.996 h -0.847 c 0,0 -0.343,0.398 -0.847,0.349 C 20.567,5.217 20.522,4.919 20.522,4.919 H 19.676 V 3.923 h 1.295 L 21.604,2.561 C 21.542,2.52 21.485,2.471 21.426,2.425 Z M 2.12,0.003 C 2.118,1.394 2.657,2.699 3.637,3.683 4.62,4.663 5.924,5.201 7.311,5.201 8.034,5.201 8.722,5.055 9.348,4.787 9.071,3.775 8.859,3.016 8.802,2.845 8.577,2.217 8.071,1.687 7.817,1.361 7.561,1.039 6.152,0.495 6.732,-0.408 c 0.601,-0.941 1.701,0.073 2.024,0.211 1.059,0.441 1.808,2.329 1.808,2.329 l 0.408,1.564 c 0.963,-0.948 1.564,-2.263 1.564,-3.718 0,-1.39 -0.539,-2.696 -1.522,-3.678 -0.98,-0.982 -2.285,-1.52 -3.672,-1.52 H 7.333 C 4.459,-5.218 2.12,-2.875 2.12,0.003"
           style="fill:#000000;fill-opacity:1;fill-rule:nonzero;stroke:none"
           transform="matrix(1.3333333,0,0,-1.3333333,112.00254,267.08598)"
           clip-path="url(#clipPath9)" />
      </g>
    </g>
  </g>
</svg>
