<?xml version="1.0" encoding="UTF-8" standalone="no"?>
<!-- Created with Inkscape (http://www.inkscape.org/) -->

<svg
   width="60.000088mm"
   height="45.000332mm"
   viewBox="0 0 60.000088 45.000332"
   version="1.1"
   id="svg1"
   inkscape:version="1.4 (86a8ad7, 2024-10-11)"
   sodipodi:docname="cycle lane.svg"
   xmlns:inkscape="http://www.inkscape.org/namespaces/inkscape"
   xmlns:sodipodi="http://sodipodi.sourceforge.net/DTD/sodipodi-0.dtd"
   xmlns="http://www.w3.org/2000/svg"
   xmlns:svg="http://www.w3.org/2000/svg">
  <sodipodi:namedview
     id="namedview1"
     pagecolor="#ffffff"
     bordercolor="#000000"
     borderopacity="0.25"
     inkscape:showpageshadow="2"
     inkscape:pageopacity="0.0"
     inkscape:pagecheckerboard="0"
     inkscape:deskcolor="#d1d1d1"
     inkscape:document-units="mm"
     inkscape:zoom="2.8756734"
     inkscape:cx="101.54143"
     inkscape:cy="126.75292"
     inkscape:window-width="1920"
     inkscape:window-height="1009"
     inkscape:window-x="-8"
     inkscape:window-y="-8"
     inkscape:window-maximized="1"
     inkscape:current-layer="g4075" />
  <defs
     id="defs1">
    <inkscape:path-effect
       effect="fillet_chamfer"
       id="path-effect1"
       is_visible="true"
       lpeversion="1"
       nodesatellites_param="F,0,0,1,0,0,0,1 @ F,0,0,1,0,0,0,1 @ F,0,0,1,0,0,0,1 @ F,0,0,1,0,0,0,1"
       radius="0"
       unit="px"
       method="auto"
       mode="F"
       chamfer_steps="1"
       flexible="false"
       use_knot_distance="true"
       apply_no_radius="true"
       apply_with_radius="true"
       only_selected="false"
       hide_knots="false" />
    <clipPath
       clipPathUnits="userSpaceOnUse"
       id="clipPath4010">
      <path
         d="M 0,841.89 H 595.276 V 0 H 0 Z"
         transform="translate(-166.51401,-731.52902)"
         id="path4010" />
    </clipPath>
    <clipPath
       clipPathUnits="userSpaceOnUse"
       id="clipPath4012">
      <path
         d="M 0,841.89 H 595.276 V 0 H 0 Z"
         transform="translate(-59.355001,-725.79102)"
         id="path4012" />
    </clipPath>
    <clipPath
       clipPathUnits="userSpaceOnUse"
       id="clipPath4014">
      <path
         d="M 0,841.89 H 595.276 V 0 H 0 Z"
         id="path4014" />
    </clipPath>
    <clipPath
       clipPathUnits="userSpaceOnUse"
       id="clipPath4016">
      <path
         d="M 0,841.89 H 595.276 V 0 H 0 Z"
         transform="translate(-132.939,-632.53702)"
         id="path4016" />
    </clipPath>
    <clipPath
       clipPathUnits="userSpaceOnUse"
       id="clipPath4018">
      <path
         d="M 0,841.89 H 595.276 V 0 H 0 Z"
         transform="translate(-446.64601,-731.52902)"
         id="path4018" />
    </clipPath>
    <clipPath
       clipPathUnits="userSpaceOnUse"
       id="clipPath4020">
      <path
         d="M 0,841.89 H 595.276 V 0 H 0 Z"
         transform="translate(-339.48701,-725.79102)"
         id="path4020" />
    </clipPath>
    <clipPath
       clipPathUnits="userSpaceOnUse"
       id="clipPath4022">
      <path
         d="M 0,841.89 H 595.276 V 0 H 0 Z"
         id="path4022" />
    </clipPath>
    <clipPath
       clipPathUnits="userSpaceOnUse"
       id="clipPath4024">
      <path
         d="M 0,841.89 H 595.276 V 0 H 0 Z"
         transform="translate(-409.44701,-659.97202)"
         id="path4024" />
    </clipPath>
    <clipPath
       clipPathUnits="userSpaceOnUse"
       id="clipPath4028">
      <path
         d="M 0,841.89 H 595.276 V 0 H 0 Z"
         transform="translate(-166.51401,-483.03801)"
         id="path4028" />
    </clipPath>
    <clipPath
       clipPathUnits="userSpaceOnUse"
       id="clipPath4030">
      <path
         d="M 0,841.89 H 595.276 V 0 H 0 Z"
         transform="translate(-59.355001,-477.29901)"
         id="path4030" />
    </clipPath>
    <clipPath
       clipPathUnits="userSpaceOnUse"
       id="clipPath4032">
      <path
         d="M 0,841.89 H 595.276 V 0 H 0 Z"
         id="path4032" />
    </clipPath>
    <clipPath
       clipPathUnits="userSpaceOnUse"
       id="clipPath4034">
      <path
         d="M 0,841.89 H 595.276 V 0 H 0 Z"
         transform="translate(-126.208,-398.81301)"
         id="path4034" />
    </clipPath>
    <clipPath
       clipPathUnits="userSpaceOnUse"
       id="clipPath4052">
      <path
         d="M 0,841.89 H 595.276 V 0 H 0 Z"
         transform="translate(-446.64601,-484.03801)"
         id="path4052" />
    </clipPath>
    <clipPath
       clipPathUnits="userSpaceOnUse"
       id="clipPath4054">
      <path
         d="M 0,841.89 H 595.276 V 0 H 0 Z"
         transform="translate(-339.48701,-478.29901)"
         id="path4054" />
    </clipPath>
    <clipPath
       clipPathUnits="userSpaceOnUse"
       id="clipPath4056">
      <path
         d="M 0,841.89 H 595.276 V 0 H 0 Z"
         id="path4056" />
    </clipPath>
    <clipPath
       clipPathUnits="userSpaceOnUse"
       id="clipPath4058">
      <path
         d="M 0,841.89 H 595.276 V 0 H 0 Z"
         transform="translate(-390.32301,-383.39001)"
         id="path4058" />
    </clipPath>
    <clipPath
       clipPathUnits="userSpaceOnUse"
       id="clipPath4060">
      <path
         d="M 0,841.89 H 595.276 V 0 H 0 Z"
         transform="translate(-414.75501,-408.07801)"
         id="path4060" />
    </clipPath>
    <clipPath
       clipPathUnits="userSpaceOnUse"
       id="clipPath2032">
      <path
         d="M 0,6.109 H 350.911 V 841.89 H 0 Z"
         transform="translate(-202.28701,-239.73901)"
         id="path2032" />
    </clipPath>
    <clipPath
       clipPathUnits="userSpaceOnUse"
       id="clipPath2034">
      <path
         d="M 0,6.109 H 350.911 V 841.89 H 0 Z"
         transform="translate(-95.127602,-234.001)"
         id="path2034" />
    </clipPath>
    <clipPath
       clipPathUnits="userSpaceOnUse"
       id="clipPath2036">
      <path
         d="M 0,6.109 H 350.911 V 841.89 H 0 Z"
         id="path2036" />
    </clipPath>
    <clipPath
       clipPathUnits="userSpaceOnUse"
       id="clipPath2038">
      <path
         d="M 0,6.109 H 350.911 V 841.89 H 0 Z"
         transform="translate(-130.918,-151.443)"
         id="path2038" />
    </clipPath>
    <clipPath
       clipPathUnits="userSpaceOnUse"
       id="clipPath2040">
      <path
         d="M 0,6.109 H 350.911 V 841.89 H 0 Z"
         transform="translate(-163.501,-151.443)"
         id="path2040" />
    </clipPath>
    <clipPath
       clipPathUnits="userSpaceOnUse"
       id="clipPath2042">
      <path
         d="M 0,6.109 H 350.911 V 841.89 H 0 Z"
         transform="translate(-177.469,-165.54201)"
         id="path2042" />
    </clipPath>
    <clipPath
       clipPathUnits="userSpaceOnUse"
       id="clipPath2080">
      <path
         d="m 292.576,0 h 302.7 v 364.09 h -302.7 z"
         transform="translate(-495.56801,-228.232)"
         id="path2080" />
    </clipPath>
    <clipPath
       clipPathUnits="userSpaceOnUse"
       id="clipPath2082">
      <path
         d="m 292.576,0 h 302.7 v 364.09 h -302.7 z"
         transform="translate(-340.92001,-111.17001)"
         id="path2082" />
    </clipPath>
    <clipPath
       clipPathUnits="userSpaceOnUse"
       id="clipPath2084">
      <path
         d="m 292.576,0 h 302.7 v 364.09 h -302.7 z"
         transform="translate(-378.26301,-156.23001)"
         id="path2084" />
    </clipPath>
    <clipPath
       clipPathUnits="userSpaceOnUse"
       id="clipPath2086">
      <path
         d="m 292.576,0 h 302.7 v 364.09 h -302.7 z"
         transform="translate(-434.26201,-156.23001)"
         id="path2086" />
    </clipPath>
    <clipPath
       clipPathUnits="userSpaceOnUse"
       id="clipPath2088">
      <path
         d="m 292.576,0 h 302.7 v 364.09 h -302.7 z"
         transform="translate(-458.27001,-180.46101)"
         id="path2088" />
    </clipPath>
    <clipPath
       clipPathUnits="userSpaceOnUse"
       id="clipPath2090">
      <path
         d="m 292.576,0 h 302.7 v 364.09 h -302.7 z"
         id="path2090" />
    </clipPath>
    <clipPath
       clipPathUnits="userSpaceOnUse"
       id="clipPath2990">
      <path
         d="M 0,841.89 H 595.276 V 0 H 0 Z"
         transform="translate(-210.28701,-754.90402)"
         id="path2990" />
    </clipPath>
    <clipPath
       clipPathUnits="userSpaceOnUse"
       id="clipPath2992">
      <path
         d="M 0,841.89 H 595.276 V 0 H 0 Z"
         transform="translate(-55.637201,-637.84202)"
         id="path2992" />
    </clipPath>
    <clipPath
       clipPathUnits="userSpaceOnUse"
       id="clipPath2994">
      <path
         d="M 0,841.89 H 595.276 V 0 H 0 Z"
         transform="translate(-147.859,-709.68602)"
         id="path2994" />
    </clipPath>
    <clipPath
       clipPathUnits="userSpaceOnUse"
       id="clipPath2996">
      <path
         d="M 0,841.89 H 595.276 V 0 H 0 Z"
         transform="translate(-185.32,-709.68602)"
         id="path2996" />
    </clipPath>
    <clipPath
       clipPathUnits="userSpaceOnUse"
       id="clipPath2998">
      <path
         d="M 0,841.89 H 595.276 V 0 H 0 Z"
         transform="translate(-201.38001,-725.89602)"
         id="path2998" />
    </clipPath>
    <clipPath
       clipPathUnits="userSpaceOnUse"
       id="clipPath3000">
      <path
         d="M 0,841.89 H 595.276 V 0 H 0 Z"
         id="path3000" />
    </clipPath>
    <clipPath
       clipPathUnits="userSpaceOnUse"
       id="clipPath3002">
      <path
         d="M 0,841.89 H 595.276 V 0 H 0 Z"
         transform="translate(-77.893104,-700.55302)"
         id="path3002" />
    </clipPath>
    <clipPath
       clipPathUnits="userSpaceOnUse"
       id="clipPath3004">
      <path
         d="M 0,841.89 H 595.276 V 0 H 0 Z"
         transform="translate(-173.232,-664.50302)"
         id="path3004" />
    </clipPath>
    <clipPath
       clipPathUnits="userSpaceOnUse"
       id="clipPath3006">
      <path
         d="M 0,841.89 H 595.276 V 0 H 0 Z"
         transform="translate(-456.08401,-762.46702)"
         id="path3006" />
    </clipPath>
    <clipPath
       clipPathUnits="userSpaceOnUse"
       id="clipPath3008">
      <path
         d="M 0,841.89 H 595.276 V 0 H 0 Z"
         transform="translate(-301.43601,-645.40402)"
         id="path3008" />
    </clipPath>
    <clipPath
       clipPathUnits="userSpaceOnUse"
       id="clipPath3010">
      <path
         d="M 0,841.89 H 595.276 V 0 H 0 Z"
         id="path3010" />
    </clipPath>
    <clipPath
       clipPathUnits="userSpaceOnUse"
       id="clipPath3012">
      <path
         d="M 0,841.89 H 595.276 V 0 H 0 Z"
         transform="translate(-404.66801,-702.70202)"
         id="path3012" />
    </clipPath>
  </defs>
  <g
     inkscape:label="Layer 1"
     inkscape:groupmode="layer"
     id="layer1"
     transform="translate(-75.786002,-126.76909)">
    <g
       id="g4075"
       transform="matrix(0.26458333,0,0,0.26458333,65.313981,79.600425)">
      <g
         id="g1">
        <path
           style="fill:#ffffff;stroke:#ffffff;stroke-width:0.877059"
           id="rect1"
           width="169.20169"
           height="225.89459"
           x="65.582489"
           y="147.58603"
           inkscape:path-effect="#path-effect1"
           sodipodi:type="rect"
           d="M 65.582489,147.58603 H 234.78418 V 373.48062 H 65.582489 Z"
           transform="rotate(-90,152.96529,260.53332)" />
        <path
           id="path3005"
           d="m 0,0 h -150.696 c -5.345,0 -9.692,-4.445 -9.692,-9.903 v -107.833 c 0,-5.417 4.347,-9.825 9.692,-9.825 H 0 c 5.343,0 9.691,4.408 9.691,9.825 V -9.903 C 9.691,-4.445 5.343,0 0,0 m 0,-0.573 c 5.028,0 9.118,-4.186 9.118,-9.33 v -107.833 c 0,-5.101 -4.09,-9.25 -9.118,-9.25 h -150.696 c -5.028,0 -9.118,4.149 -9.118,9.25 V -9.903 c 0,5.144 4.09,9.33 9.118,9.33 L 0,-0.573"
           style="fill:#4467a5;fill-opacity:1;fill-rule:nonzero;stroke:none"
           transform="matrix(1.3333333,0,0,-1.3333333,253.42995,178.2746)"
           clip-path="url(#clipPath3006)" />
        <path
           id="path3007"
           d="M 0,0 C 0,-2.552 2.079,-4.628 4.635,-4.628 H 153.97 c 2.554,0 4.634,2.076 4.634,4.628 v 106.484 c 0,2.594 -2.08,4.704 -4.634,4.704 H 4.635 C 2.079,111.188 0,109.078 0,106.484 Z"
           style="fill:#4467a5;fill-opacity:1;fill-rule:nonzero;stroke:none"
           transform="matrix(1.3333333,0,0,-1.3333333,47.23262,334.3586)"
           clip-path="url(#clipPath3008)" />
        <path
           id="path3009"
           d="m 447.881,643.41 h -9.213 v 110.553 h 9.213 z"
           style="fill:#ffffff;fill-opacity:1;fill-rule:nonzero;stroke:none"
           transform="matrix(1.3333333,0,0,-1.3333333,-354.68205,1194.8973)"
           clip-path="url(#clipPath3010)" />
        <path
           id="path3011"
           d="m 0,0 c -2.529,0.005 -4.936,-0.506 -7.125,-1.432 l -7.288,12.589 1.368,3.979 c 0,0 0.705,0.151 1.739,0.375 1.037,0.22 2.49,2.11 3.017,3.257 0.53,1.146 -0.404,1.218 -0.404,1.218 H -24.48 c -1.479,0 -2.557,-2.313 -0.374,-2.985 l 7.087,-1.615 -1.618,-4.599 h -33.558 c 0,0 0.364,1.332 0.804,3.349 0.441,2.017 -0.624,2.782 -1.919,4.106 -1.295,1.326 0.495,1.744 0.495,1.744 h 7.087 v 4.597 h -8.58 c 0,0 -2.943,-0.194 -4.097,-2.114 -0.822,-1.356 -1.305,-5.329 1.014,-6.48 2.313,-1.152 0.721,-4.079 0.721,-4.079 0,0 -1.822,-6.857 -3.508,-13.11 -2.009,0.762 -4.174,1.198 -6.443,1.2 -10.102,0.017 -18.284,-8.161 -18.284,-18.269 0.004,-10.103 8.199,-18.312 18.298,-18.327 10.097,-0.013 18.284,8.165 18.277,18.271 -0.004,6.16 -3.054,11.598 -7.719,14.92 l 0.624,2.384 21.361,-15.01 c -0.217,-0.705 -0.371,-1.441 -0.371,-2.217 0,-4.199 3.411,-7.606 7.609,-7.606 0.764,0 1.488,0.149 2.182,0.357 l 1.162,-2.494 h -1.99 v -2.488 h 1.99 c 0,0 1.107,-1.06 2.235,-0.869 1.132,0.193 1.368,0.869 1.368,0.869 h 1.989 v 2.488 h -3.23 l -1.569,3.375 c 1.639,1.063 2.833,2.736 3.274,4.698 l 0.034,0.002 h 1.932 c 0.838,-9.332 8.667,-16.665 18.214,-16.679 10.094,-0.014 18.28,8.164 18.277,18.27 C 18.291,-8.218 10.098,-0.016 0,0 m -54.365,-18.325 c 0.004,-3.473 -1.341,-6.737 -3.79,-9.184 -2.449,-2.451 -5.707,-3.798 -9.17,-3.798 h -0.028 c -7.174,0.005 -13.01,5.854 -13.01,13.04 -0.005,3.472 1.341,6.736 3.79,9.184 2.451,2.451 5.705,3.797 9.167,3.797 1.808,-0.005 3.528,-0.376 5.086,-1.039 -0.687,-2.525 -1.218,-4.418 -1.368,-4.842 -0.558,-1.572 -1.819,-2.897 -2.453,-3.707 -0.641,-0.811 -4.155,-2.165 -2.71,-4.418 1.501,-2.345 4.248,0.185 5.059,0.521 2.636,1.106 4.512,5.818 4.512,5.818 l 1.018,3.906 c 2.403,-2.366 3.897,-5.651 3.897,-9.278 m -0.443,22.025 0.623,2.487 h 33.061 l -6.119,-16.861 c -0.114,0.005 -0.218,0.034 -0.331,0.034 -0.771,0 -1.492,-0.147 -2.193,-0.361 l -1.171,2.522 h 2.109 v 2.488 h -2.109 c 0,0 -0.861,0.99 -2.116,0.869 -1.255,-0.122 -1.368,-0.869 -1.368,-0.869 h -2.113 v -2.488 h 3.231 l 1.585,-3.404 c -0.161,-0.102 -0.297,-0.223 -0.447,-0.338 z m 27.238,-26.908 c -2.744,0 -4.973,2.223 -4.973,4.96 0,2.739 2.229,4.963 4.973,4.963 2.735,0 4.965,-2.224 4.965,-4.963 0,-2.737 -2.23,-4.96 -4.965,-4.96 m 7.404,6.645 c -0.394,1.73 -1.385,3.218 -2.736,4.279 l 6.5,17.846 5.333,-9.303 c -3.952,-3.011 -6.641,-7.59 -7.121,-12.822 z m 11.753,8.192 4.689,-8.186 -9.147,-0.005 c 0.363,2.825 1.628,5.436 3.67,7.479 0.255,0.251 0.518,0.485 0.788,0.712 M 9.217,-27.509 C 6.765,-29.96 3.511,-31.307 0.05,-31.307 H 0.02 c -6.615,0.005 -12.083,4.984 -12.898,11.391 H 0.134 c 2.689,0 2.642,1.756 1.425,3.469 l -6.004,10.379 c 1.398,0.504 2.88,0.782 4.412,0.782 7.201,-0.012 13.041,-5.86 13.041,-13.039 0.003,-3.473 -1.345,-6.737 -3.791,-9.184"
           style="fill:#ffffff;fill-opacity:1;fill-rule:nonzero;stroke:none"
           transform="matrix(1.3333333,0,0,-1.3333333,184.87528,257.96127)"
           clip-path="url(#clipPath3012)" />
      </g>
    </g>
  </g>
</svg>
