<?xml version="1.0" encoding="UTF-8" standalone="no"?>
<!-- Created with Inkscape (http://www.inkscape.org/) -->

<svg
   width="38.885635mm"
   height="51.847397mm"
   viewBox="0 0 38.885636 51.847397"
   version="1.1"
   id="svg1"
   inkscape:version="1.4 (86a8ad7, 2024-10-11)"
   sodipodi:docname="cycle rickshaw parking.svg"
   xmlns:inkscape="http://www.inkscape.org/namespaces/inkscape"
   xmlns:sodipodi="http://sodipodi.sourceforge.net/DTD/sodipodi-0.dtd"
   xmlns="http://www.w3.org/2000/svg"
   xmlns:svg="http://www.w3.org/2000/svg">
  <sodipodi:namedview
     id="namedview1"
     pagecolor="#ffffff"
     bordercolor="#000000"
     borderopacity="0.25"
     inkscape:showpageshadow="2"
     inkscape:pageopacity="0.0"
     inkscape:pagecheckerboard="0"
     inkscape:deskcolor="#d1d1d1"
     inkscape:document-units="mm"
     inkscape:zoom="2.8756734"
     inkscape:cx="87.979393"
     inkscape:cy="124.31871"
     inkscape:window-width="1920"
     inkscape:window-height="1009"
     inkscape:window-x="-8"
     inkscape:window-y="-8"
     inkscape:window-maximized="1"
     inkscape:current-layer="layer1" />
  <defs
     id="defs1">
    <clipPath
       clipPathUnits="userSpaceOnUse"
       id="clipPath4">
      <path
         d="M 0,841.89 H 595.276 V 0 H 0 Z"
         transform="translate(-431.55501,-66.122927)"
         id="path4" />
    </clipPath>
    <clipPath
       clipPathUnits="userSpaceOnUse"
       id="clipPath6">
      <path
         d="M 0,841.89 H 595.276 V 0 H 0 Z"
         transform="translate(-545.64901,-182.217)"
         id="path6" />
    </clipPath>
    <clipPath
       clipPathUnits="userSpaceOnUse"
       id="clipPath8">
      <path
         d="M 0,841.89 H 595.276 V 0 H 0 Z"
         transform="translate(-501.30701,-127.005)"
         id="path8" />
    </clipPath>
    <clipPath
       clipPathUnits="userSpaceOnUse"
       id="clipPath5553">
      <path
         d="M 0,841.89 H 595.276 V 0 H 0 Z"
         transform="translate(-151.35801,-729.50702)"
         id="path5553" />
    </clipPath>
    <clipPath
       clipPathUnits="userSpaceOnUse"
       id="clipPath5555">
      <path
         d="M 0,841.89 H 595.276 V 0 H 0 Z"
         transform="translate(-58.177001,-587.26201)"
         id="path5555" />
    </clipPath>
    <clipPath
       clipPathUnits="userSpaceOnUse"
       id="clipPath5557">
      <path
         d="M 0,841.89 H 595.276 V 0 H 0 Z"
         transform="translate(-112.815,-696.64601)"
         id="path5557" />
    </clipPath>
    <clipPath
       clipPathUnits="userSpaceOnUse"
       id="clipPath5559">
      <path
         d="M 0,841.89 H 595.276 V 0 H 0 Z"
         transform="translate(-145.866,-593.51302)"
         id="path5559" />
    </clipPath>
    <clipPath
       clipPathUnits="userSpaceOnUse"
       id="clipPath5561">
      <path
         d="M 0,841.89 H 595.276 V 0 H 0 Z"
         transform="translate(-124.09,-615.17702)"
         id="path5561" />
    </clipPath>
    <clipPath
       clipPathUnits="userSpaceOnUse"
       id="clipPath5483">
      <path
         d="M 0,841.89 H 595.276 V 0 H 0 Z"
         transform="translate(-409.86901,-627.04301)"
         id="path5483" />
    </clipPath>
    <clipPath
       clipPathUnits="userSpaceOnUse"
       id="clipPath5493">
      <path
         d="M 0,841.89 H 595.276 V 0 H 0 Z"
         transform="translate(-65.578402,-373.09601)"
         id="path5493" />
    </clipPath>
  </defs>
  <rect
     style="fill:#ffffff;fill-opacity:1;stroke:none;stroke-width:2.221;stroke-opacity:1"
     id="rect1"
     width="36.664997"
     height="49.625999"
     x="86.666161"
     y="121.17709"
     transform="translate(-85.590467,-120.1014)" />
  <g
     inkscape:label="Layer 1"
     inkscape:groupmode="layer"
     id="layer1"
     transform="translate(-85.590466,-120.1014)">
    <path
       id="path5552"
       d="m 0,0 h -93.181 c -4.68,0 -8.488,-3.756 -8.488,-8.375 v -130.22 c 0,-4.616 3.808,-8.374 8.488,-8.374 H 0 c 4.716,0 8.558,3.758 8.558,8.374 V -8.375 C 8.558,-3.756 4.716,0 0,0 m 0,-0.495 c 4.445,0 8.063,-3.535 8.063,-7.88 v -130.22 c 0,-4.344 -3.618,-7.879 -8.063,-7.879 h -93.181 c -4.407,0 -7.993,3.535 -7.993,7.879 v 130.22 c 0,4.345 3.586,7.88 7.993,7.88 H 0"
       style="fill:#4467a5;fill-opacity:1;fill-rule:nonzero;stroke:none"
       transform="matrix(0.35277776,0,0,-0.35277776,121.45703,120.1014)"
       clip-path="url(#clipPath5553)" />
    <path
       id="path5554"
       d="m 0,0 c -0.824,0 -1.455,0.451 -1.839,0.83 -0.724,0.714 -1.138,1.742 -1.138,2.82 v 130.22 c 0,1.079 0.414,2.108 1.138,2.821 0.384,0.378 1.014,0.83 1.839,0.83 h 93.181 c 0.858,0 1.508,-0.459 1.902,-0.844 0.727,-0.712 1.144,-1.735 1.144,-2.807 V 3.65 C 96.227,2.579 95.81,1.557 95.082,0.845 94.688,0.459 94.039,0 93.181,0 Z"
       style="fill:#4467a5;fill-opacity:1;fill-rule:nonzero;stroke:none"
       transform="matrix(0.35277776,0,0,-0.35277776,88.584841,170.28228)"
       clip-path="url(#clipPath5555)" />
    <path
       id="path5556"
       d="m 0,0 c -0.81,-1.178 -1.914,-2.036 -3.325,-2.589 -1.411,-0.552 -4.222,-0.822 -8.418,-0.822 h -5.817 v 14.946 h 5.142 c 3.828,0 6.381,-0.11 7.657,-0.355 1.718,-0.307 3.154,-1.093 4.271,-2.332 C 0.639,7.596 1.203,6.014 1.203,4.1 1.203,2.54 0.798,1.179 0,0 m 9.117,14.505 c -2.036,2.65 -4.576,4.369 -7.595,5.154 -1.963,0.528 -6.185,0.797 -12.652,0.797 h -17.069 v -52.704 h 10.639 v 19.88 h 6.933 c 4.823,0 8.505,0.257 11.045,0.76 1.865,0.405 3.705,1.24 5.509,2.491 1.816,1.264 3.301,2.994 4.479,5.203 1.178,2.196 1.767,4.921 1.767,8.16 0,4.185 -1.019,7.608 -3.056,10.259"
       style="fill:#ffffff;fill-opacity:1;fill-rule:nonzero;stroke:none"
       transform="matrix(0.35277776,0,0,-0.35277776,107.85991,131.69403)"
       clip-path="url(#clipPath5557)" />
    <path
       id="path5558"
       d="m 0,0 h -82.127 c -1.699,0 -3.077,1.378 -3.077,3.077 v 57.965 c 0,1.7 1.378,3.078 3.077,3.078 H 0 c 1.699,0 3.077,-1.378 3.077,-3.078 V 3.077 C 3.077,1.378 1.699,0 0,0"
       style="fill:#ffffff;fill-opacity:1;fill-rule:nonzero;stroke:none"
       transform="matrix(0.35277776,0,0,-0.35277776,119.51957,168.07706)"
       clip-path="url(#clipPath5559)" />
    <path
       id="path5492"
       d="m 0,0 c 0.002,-5.497 4.429,-9.966 9.887,-9.974 5.462,-0.005 9.886,4.446 9.884,9.945 0,3.352 -1.654,6.314 -4.174,8.123 l 0.338,1.295 11.544,-8.167 c -0.115,-0.386 -0.2,-0.787 -0.2,-1.207 0,-2.291 1.841,-4.144 4.112,-4.144 0.413,0 0.807,0.083 1.182,0.194 L 33.2,-5.291 H 32.125 V -6.645 H 33.2 c 0,0 0.601,-0.578 1.206,-0.472 0.614,0.103 0.741,0.472 0.741,0.472 h 1.08 v 1.354 h -1.748 l -0.851,1.838 c 0.884,0.578 1.534,1.489 1.77,2.557 h 0.021 1.041 5.102 l 6.732,-0.043 c 0.484,-5.003 4.703,-8.917 9.838,-8.917 5.461,0 9.887,4.423 9.887,9.873 0,5.458 -4.426,9.88 -9.887,9.88 -1.123,0 -2.205,-0.191 -3.217,-0.538 l -0.53,1.178 c 1.175,0.42 2.435,0.651 3.747,0.651 2.932,0 5.6,-1.138 7.6,-2.991 13.339,6.004 11.718,9.333 11.21,10.581 -0.664,1.636 -0.605,1.624 -1.115,2.314 -0.84,1.142 -2.17,0.69 -3.199,-0.091 C 69.776,18.838 64.409,14.606 54.715,14.187 43.726,13.717 41.323,3.526 41.32,3.52 l -2.814,12.501 0.741,2.165 c 0,0 0.382,0.082 0.941,0.205 0.558,0.117 1.342,1.148 1.627,1.77 0.289,0.626 -0.215,0.664 -0.215,0.664 h -8.537 c -0.795,0 -1.379,-1.26 -0.202,-1.624 l 3.831,-0.884 -0.874,-2.498 H 17.682 c 0,0 0.195,0.725 0.434,1.824 0.238,1.097 -0.339,1.514 -1.039,2.234 -0.7,0.719 0.266,0.948 0.266,0.948 h 3.831 v 2.501 h -4.635 c 0,0 -1.591,-0.105 -2.218,-1.15 -0.439,-0.738 -0.704,-2.902 0.551,-3.527 1.251,-0.625 0.388,-2.219 0.388,-2.219 0,0 -0.986,-3.732 -1.894,-7.135 C 12.282,9.706 11.109,9.947 9.884,9.947 4.421,9.956 0,5.502 0,0 M 52.956,8.435 C 50.355,6.831 48.551,4.065 48.286,0.86 L 47,0.875 c 0.279,3.708 2.385,6.914 5.411,8.731 z M 54.128,5.916 56.52,0.771 50.985,0.834 c 0.245,2.119 1.438,3.957 3.143,5.082 m -3.125,-6.873 8.56,-0.06 -3.504,7.826 c 0.632,0.181 1.294,0.282 1.985,0.282 3.922,0 7.108,-3.175 7.108,-7.079 0,-3.906 -3.186,-7.082 -7.108,-7.082 -3.589,0 -6.569,2.666 -7.041,6.113 m -16.992,4.468 3.423,9.467 1.991,-9.461 z M 28.709,0.015 c 0,1.488 1.205,2.701 2.685,2.701 1.482,0 2.684,-1.213 2.684,-2.701 0,-1.493 -1.202,-2.702 -2.684,-2.702 -1.48,0 -2.685,1.209 -2.685,2.702 m -12.035,11.946 0.336,1.356 h 17.869 l -3.31,-9.183 c -0.057,0.003 -0.116,0.02 -0.178,0.02 -0.412,0 -0.808,-0.079 -1.185,-0.196 l -0.634,1.37 h 1.144 v 1.355 h -1.144 c 0,0 -0.465,0.543 -1.143,0.474 C 27.751,7.091 27.69,6.683 27.69,6.683 H 26.551 V 5.328 h 1.743 L 29.153,3.479 C 29.068,3.421 28.989,3.358 28.909,3.294 Z M 2.857,0.003 C 2.855,1.891 3.581,3.667 4.908,5 6.23,6.336 7.993,7.066 9.863,7.066 10.838,7.063 11.769,6.864 12.614,6.503 12.239,5.126 11.952,4.098 11.871,3.866 11.57,3.012 10.889,2.29 10.546,1.85 10.2,1.409 8.299,0.669 9.083,-0.555 c 0.808,-1.277 2.294,0.1 2.733,0.284 1.425,0.6 2.437,3.166 2.437,3.166 l 0.55,2.126 c 1.301,-1.287 2.107,-3.078 2.107,-5.05 0.002,-1.892 -0.722,-3.668 -2.048,-5 -1.325,-1.333 -3.085,-2.065 -4.955,-2.065 H 9.891 C 6.014,-7.091 2.857,-3.908 2.857,0.003"
       style="fill:#000000;fill-opacity:1;fill-rule:nonzero;stroke:none"
       transform="matrix(0.35277776,0,0,-0.35277776,91.227284,159.28704)"
       clip-path="url(#clipPath5493)" />
  </g>
</svg>
