<?xml version="1.0" encoding="UTF-8" standalone="no"?>
<!-- Created with Inkscape (http://www.inkscape.org/) -->

<svg
   width="44.999977mm"
   height="59.999737mm"
   viewBox="0 0 44.999977 59.999737"
   version="1.1"
   id="svg1"
   inkscape:version="1.4 (86a8ad7, 2024-10-11)"
   sodipodi:docname="eating place.svg"
   xmlns:inkscape="http://www.inkscape.org/namespaces/inkscape"
   xmlns:sodipodi="http://sodipodi.sourceforge.net/DTD/sodipodi-0.dtd"
   xmlns="http://www.w3.org/2000/svg"
   xmlns:svg="http://www.w3.org/2000/svg">
  <sodipodi:namedview
     id="namedview1"
     pagecolor="#ffffff"
     bordercolor="#000000"
     borderopacity="0.25"
     inkscape:showpageshadow="2"
     inkscape:pageopacity="0.0"
     inkscape:pagecheckerboard="0"
     inkscape:deskcolor="#d1d1d1"
     inkscape:document-units="mm"
     inkscape:zoom="2.8756734"
     inkscape:cx="55.291397"
     inkscape:cy="113.19088"
     inkscape:window-width="1920"
     inkscape:window-height="1009"
     inkscape:window-x="-8"
     inkscape:window-y="-8"
     inkscape:window-maximized="1"
     inkscape:current-layer="g4075" />
  <defs
     id="defs1">
    <inkscape:path-effect
       effect="fillet_chamfer"
       id="path-effect1"
       is_visible="true"
       lpeversion="1"
       nodesatellites_param="F,0,0,1,0,0,0,1 @ F,0,0,1,0,0,0,1 @ F,0,0,1,0,0,0,1 @ F,0,0,1,0,0,0,1"
       radius="0"
       unit="px"
       method="auto"
       mode="F"
       chamfer_steps="1"
       flexible="false"
       use_knot_distance="true"
       apply_no_radius="true"
       apply_with_radius="true"
       only_selected="false"
       hide_knots="false" />
    <clipPath
       clipPathUnits="userSpaceOnUse"
       id="clipPath4010">
      <path
         d="M 0,841.89 H 595.276 V 0 H 0 Z"
         transform="translate(-166.51401,-731.52902)"
         id="path4010" />
    </clipPath>
    <clipPath
       clipPathUnits="userSpaceOnUse"
       id="clipPath4012">
      <path
         d="M 0,841.89 H 595.276 V 0 H 0 Z"
         transform="translate(-59.355001,-725.79102)"
         id="path4012" />
    </clipPath>
    <clipPath
       clipPathUnits="userSpaceOnUse"
       id="clipPath4014">
      <path
         d="M 0,841.89 H 595.276 V 0 H 0 Z"
         id="path4014" />
    </clipPath>
    <clipPath
       clipPathUnits="userSpaceOnUse"
       id="clipPath4016">
      <path
         d="M 0,841.89 H 595.276 V 0 H 0 Z"
         transform="translate(-132.939,-632.53702)"
         id="path4016" />
    </clipPath>
    <clipPath
       clipPathUnits="userSpaceOnUse"
       id="clipPath4018">
      <path
         d="M 0,841.89 H 595.276 V 0 H 0 Z"
         transform="translate(-446.64601,-731.52902)"
         id="path4018" />
    </clipPath>
    <clipPath
       clipPathUnits="userSpaceOnUse"
       id="clipPath4020">
      <path
         d="M 0,841.89 H 595.276 V 0 H 0 Z"
         transform="translate(-339.48701,-725.79102)"
         id="path4020" />
    </clipPath>
    <clipPath
       clipPathUnits="userSpaceOnUse"
       id="clipPath4022">
      <path
         d="M 0,841.89 H 595.276 V 0 H 0 Z"
         id="path4022" />
    </clipPath>
    <clipPath
       clipPathUnits="userSpaceOnUse"
       id="clipPath4024">
      <path
         d="M 0,841.89 H 595.276 V 0 H 0 Z"
         transform="translate(-409.44701,-659.97202)"
         id="path4024" />
    </clipPath>
    <clipPath
       clipPathUnits="userSpaceOnUse"
       id="clipPath4010-4">
      <path
         d="M 0,841.89 H 595.276 V 0 H 0 Z"
         transform="translate(-166.51401,-731.52902)"
         id="path4010-8" />
    </clipPath>
    <clipPath
       clipPathUnits="userSpaceOnUse"
       id="clipPath4012-8">
      <path
         d="M 0,841.89 H 595.276 V 0 H 0 Z"
         transform="translate(-59.355001,-725.79102)"
         id="path4012-2" />
    </clipPath>
    <clipPath
       clipPathUnits="userSpaceOnUse"
       id="clipPath4014-4">
      <path
         d="M 0,841.89 H 595.276 V 0 H 0 Z"
         id="path4014-5" />
    </clipPath>
    <clipPath
       clipPathUnits="userSpaceOnUse"
       id="clipPath4016-5">
      <path
         d="M 0,841.89 H 595.276 V 0 H 0 Z"
         transform="translate(-132.939,-632.53702)"
         id="path4016-1" />
    </clipPath>
  </defs>
  <g
     inkscape:label="Layer 1"
     inkscape:groupmode="layer"
     id="layer1"
     transform="translate(-82.549999,-118.53333)">
    <g
       id="g4075"
       transform="matrix(0.26458333,0,0,0.26458333,65.313981,79.600425)">
      <g
         id="g3">
        <path
           style="fill:#ffffff;stroke:#ffffff;stroke-width:0.877059"
           id="rect1"
           width="169.20169"
           height="225.89459"
           x="65.582489"
           y="147.58603"
           inkscape:path-effect="#path-effect1"
           sodipodi:type="rect"
           d="M 65.582489,147.58603 H 234.78418 V 373.48062 H 65.582489 Z" />
        <g
           id="g2"
           transform="translate(-4.7056266e-6,-1.0455656e-5)">
          <path
             id="path4009"
             d="m 0,0 h -107.833 c -5.417,0 -9.823,-4.346 -9.823,-9.69 v -150.697 c 0,-5.342 4.406,-9.691 9.823,-9.691 H 0 c 5.458,0 9.903,4.349 9.903,9.691 V -9.69 C 9.903,-4.346 5.458,0 0,0 m 0,-0.571 c 5.145,0 9.33,-4.092 9.33,-9.119 v -150.697 c 0,-5.028 -4.185,-9.119 -9.33,-9.119 h -107.833 c -5.101,0 -9.25,4.091 -9.25,9.119 V -9.69 c 0,5.027 4.149,9.119 9.25,9.119 L 0,-0.571"
             style="fill:#4467a5;fill-opacity:1;fill-rule:nonzero;stroke:none"
             transform="matrix(1.3333333,0,0,-1.3333333,222.01867,147.148)"
             clip-path="url(#clipPath4010-4)" />
          <path
             id="path4011"
             d="m 0,0 c -2.552,0 -4.628,-2.079 -4.628,-4.636 v -149.335 c 0,-2.553 2.076,-4.633 4.628,-4.633 h 106.484 c 2.594,0 4.704,2.08 4.704,4.633 V -4.636 c 0,2.557 -2.11,4.636 -4.704,4.636 z"
             style="fill:#4467a5;fill-opacity:1;fill-rule:nonzero;stroke:none"
             transform="matrix(1.3333333,0,0,-1.3333333,79.14,154.79867)"
             clip-path="url(#clipPath4012-8)" />
          <path
             id="path4013"
             d="M 147.079,624.708 H 78.197 v 68.882 h 68.882 z"
             style="fill:#ffffff;fill-opacity:1;fill-rule:nonzero;stroke:none"
             transform="matrix(1.3333333,0,0,-1.3333333,-6.6248848e-4,1139.3986)"
             clip-path="url(#clipPath4014-4)" />
          <path
             id="path4015"
             d="m 0,0 -18.043,26.703 3.713,6.901 h 4.776 c 0.356,0 0.708,0.356 1.063,0.71 l 8.845,15.384 c 0.707,1.595 -1.237,2.299 -1.945,1.063 L -9.554,37.849 c -1.058,-1.592 -3.534,-0.355 -2.121,1.769 l 7.604,13.087 c 0.709,1.238 -1.064,2.479 -2.121,0.885 l -7.607,-12.734 c -1.237,-2.125 -3.361,-0.177 -2.475,1.061 l 7.428,13.087 c 0.887,1.589 -0.883,2.652 -1.59,1.237 l -9.377,-14.857 c -0.354,-0.705 -0.354,-1.06 -0.177,-1.238 l 2.475,-4.417 -3.18,-4.782 -3.185,4.606 c 0,0 4.599,5.476 -1.77,12.732 -6.191,7.424 -11.495,9.721 -13.973,7.956 -1.946,-1.414 -2.652,-8.31 1.414,-16.095 4.073,-7.956 9.73,-6.896 11.143,-6.716 l 3.717,-6.548 -17.158,-26.704 c -1.591,-2.476 0,-4.245 1.061,-4.78 1.059,-0.526 3.358,-1.235 4.953,1.772 L -20.695,22.109 -5.487,-3.714 C -4.602,-5.128 -2.653,-5.837 -1.24,-4.773 -0.532,-4.247 1.59,-2.476 0,0"
             style="fill:#000000;fill-opacity:1;fill-rule:nonzero;stroke:none"
             transform="matrix(1.3333333,0,0,-1.3333333,177.25171,294.94459)"
             clip-path="url(#clipPath4016-5)" />
        </g>
      </g>
    </g>
  </g>
</svg>
