<?xml version="1.0" encoding="UTF-8" standalone="no"?>
<!-- Created with Inkscape (http://www.inkscape.org/) -->

<svg
   width="44.999977mm"
   height="59.999737mm"
   viewBox="0 0 44.999977 59.999737"
   version="1.1"
   id="svg1"
   inkscape:version="1.4 (86a8ad7, 2024-10-11)"
   sodipodi:docname="emergency sos facility.svg"
   xmlns:inkscape="http://www.inkscape.org/namespaces/inkscape"
   xmlns:sodipodi="http://sodipodi.sourceforge.net/DTD/sodipodi-0.dtd"
   xmlns="http://www.w3.org/2000/svg"
   xmlns:svg="http://www.w3.org/2000/svg">
  <sodipodi:namedview
     id="namedview1"
     pagecolor="#ffffff"
     bordercolor="#000000"
     borderopacity="0.25"
     inkscape:showpageshadow="2"
     inkscape:pageopacity="0.0"
     inkscape:pagecheckerboard="0"
     inkscape:deskcolor="#d1d1d1"
     inkscape:document-units="mm"
     inkscape:zoom="2.0334082"
     inkscape:cx="160.81375"
     inkscape:cy="141.38824"
     inkscape:window-width="1920"
     inkscape:window-height="1009"
     inkscape:window-x="-8"
     inkscape:window-y="-8"
     inkscape:window-maximized="1"
     inkscape:current-layer="g4075" />
  <defs
     id="defs1">
    <inkscape:path-effect
       effect="fillet_chamfer"
       id="path-effect1"
       is_visible="true"
       lpeversion="1"
       nodesatellites_param="F,0,0,1,0,0,0,1 @ F,0,0,1,0,0,0,1 @ F,0,0,1,0,0,0,1 @ F,0,0,1,0,0,0,1"
       radius="0"
       unit="px"
       method="auto"
       mode="F"
       chamfer_steps="1"
       flexible="false"
       use_knot_distance="true"
       apply_no_radius="true"
       apply_with_radius="true"
       only_selected="false"
       hide_knots="false" />
    <clipPath
       clipPathUnits="userSpaceOnUse"
       id="clipPath4010">
      <path
         d="M 0,841.89 H 595.276 V 0 H 0 Z"
         transform="translate(-166.51401,-731.52902)"
         id="path4010" />
    </clipPath>
    <clipPath
       clipPathUnits="userSpaceOnUse"
       id="clipPath4012">
      <path
         d="M 0,841.89 H 595.276 V 0 H 0 Z"
         transform="translate(-59.355001,-725.79102)"
         id="path4012" />
    </clipPath>
    <clipPath
       clipPathUnits="userSpaceOnUse"
       id="clipPath4014">
      <path
         d="M 0,841.89 H 595.276 V 0 H 0 Z"
         id="path4014" />
    </clipPath>
    <clipPath
       clipPathUnits="userSpaceOnUse"
       id="clipPath4016">
      <path
         d="M 0,841.89 H 595.276 V 0 H 0 Z"
         transform="translate(-132.939,-632.53702)"
         id="path4016" />
    </clipPath>
    <clipPath
       clipPathUnits="userSpaceOnUse"
       id="clipPath4018">
      <path
         d="M 0,841.89 H 595.276 V 0 H 0 Z"
         transform="translate(-446.64601,-731.52902)"
         id="path4018" />
    </clipPath>
    <clipPath
       clipPathUnits="userSpaceOnUse"
       id="clipPath4020">
      <path
         d="M 0,841.89 H 595.276 V 0 H 0 Z"
         transform="translate(-339.48701,-725.79102)"
         id="path4020" />
    </clipPath>
    <clipPath
       clipPathUnits="userSpaceOnUse"
       id="clipPath4022">
      <path
         d="M 0,841.89 H 595.276 V 0 H 0 Z"
         id="path4022" />
    </clipPath>
    <clipPath
       clipPathUnits="userSpaceOnUse"
       id="clipPath4024">
      <path
         d="M 0,841.89 H 595.276 V 0 H 0 Z"
         transform="translate(-409.44701,-659.97202)"
         id="path4024" />
    </clipPath>
    <clipPath
       clipPathUnits="userSpaceOnUse"
       id="clipPath1000">
      <path
         d="M 0,0 H 595.276 V 841.89 H 0 Z"
         transform="translate(-166.51401,-731.47102)"
         id="path1000" />
    </clipPath>
    <clipPath
       clipPathUnits="userSpaceOnUse"
       id="clipPath1002">
      <path
         d="M 0,0 H 595.276 V 841.89 H 0 Z"
         transform="translate(-59.354602,-725.73102)"
         id="path1002" />
    </clipPath>
    <clipPath
       clipPathUnits="userSpaceOnUse"
       id="clipPath1004">
      <path
         d="M 0,0 H 595.276 V 841.89 H 0 Z"
         transform="translate(-94.148605,-610.35401)"
         id="path1004" />
    </clipPath>
    <clipPath
       clipPathUnits="userSpaceOnUse"
       id="clipPath1006">
      <path
         d="M 0,0 H 595.276 V 841.89 H 0 Z"
         id="path1006" />
    </clipPath>
    <clipPath
       clipPathUnits="userSpaceOnUse"
       id="clipPath1008">
      <path
         d="M 0,0 H 595.276 V 841.89 H 0 Z"
         transform="translate(-141.47001,-653.96302)"
         id="path1008" />
    </clipPath>
    <clipPath
       clipPathUnits="userSpaceOnUse"
       id="clipPath1010">
      <path
         d="M 0,0 H 595.276 V 841.89 H 0 Z"
         id="path1010" />
    </clipPath>
    <clipPath
       clipPathUnits="userSpaceOnUse"
       id="clipPath1012">
      <path
         d="M 0,0 H 595.276 V 841.89 H 0 Z"
         transform="translate(-122.364,-682.30502)"
         id="path1012" />
    </clipPath>
    <clipPath
       clipPathUnits="userSpaceOnUse"
       id="clipPath1156">
      <path
         d="M 0,841.89 H 595.276 V 0 H 0 Z"
         transform="translate(-446.60801,-731.50002)"
         id="path1156" />
    </clipPath>
    <clipPath
       clipPathUnits="userSpaceOnUse"
       id="clipPath1158">
      <path
         d="M 0,841.89 H 595.276 V 0 H 0 Z"
         transform="translate(-339.44801,-725.76202)"
         id="path1158" />
    </clipPath>
    <clipPath
       clipPathUnits="userSpaceOnUse"
       id="clipPath1160">
      <path
         d="M 0,841.89 H 595.276 V 0 H 0 Z"
         id="path1160" />
    </clipPath>
    <clipPath
       clipPathUnits="userSpaceOnUse"
       id="clipPath1162">
      <path
         d="M 0,841.89 H 595.276 V 0 H 0 Z"
         transform="translate(-399.90201,-688.14002)"
         id="path1162" />
    </clipPath>
  </defs>
  <g
     inkscape:label="Layer 1"
     inkscape:groupmode="layer"
     id="layer1"
     transform="translate(-82.549999,-118.53333)">
    <g
       id="g4075"
       transform="matrix(0.26458333,0,0,0.26458333,65.313981,79.600425)">
      <path
         style="fill:#ffffff;stroke:#ffffff;stroke-width:0.877059"
         id="rect1"
         width="169.20169"
         height="225.89459"
         x="65.582489"
         y="147.58603"
         inkscape:path-effect="#path-effect1"
         sodipodi:type="rect"
         d="M 65.582489,147.58603 H 234.78418 V 373.48062 H 65.582489 Z" />
      <path
         id="path1155"
         d="m 0,0 h -107.833 c -5.417,0 -9.823,-4.346 -9.823,-9.691 v -150.697 c 0,-5.342 4.406,-9.691 9.823,-9.691 H 0 c 5.458,0 9.903,4.349 9.903,9.691 V -9.691 C 9.903,-4.346 5.458,0 0,0 m 0,-0.572 c 5.145,0 9.33,-4.091 9.33,-9.119 v -150.697 c 0,-5.027 -4.185,-9.118 -9.33,-9.118 h -107.833 c -5.101,0 -9.25,4.091 -9.25,9.118 V -9.691 c 0,5.028 4.149,9.119 9.25,9.119 L 0,-0.572"
         style="fill:#4467a5;fill-opacity:1;fill-rule:nonzero;stroke:none"
         transform="matrix(1.3333333,0,0,-1.3333333,222.01867,147.14732)"
         clip-path="url(#clipPath1156)" />
      <path
         id="path1157"
         d="m 0,0 c -2.552,0 -4.627,-2.08 -4.627,-4.636 v -149.335 c 0,-2.554 2.075,-4.633 4.627,-4.633 h 106.485 c 2.594,0 4.704,2.079 4.704,4.633 V -4.636 c 0,2.556 -2.11,4.636 -4.704,4.636 z"
         style="fill:#4467a5;fill-opacity:1;fill-rule:nonzero;stroke:none"
         transform="matrix(1.3333333,0,0,-1.3333333,79.138665,154.79798)"
         clip-path="url(#clipPath1158)" />
      <path
         style="font-weight:900;font-size:40.8402px;font-family:Arial;fill:#ffffff;stroke-width:1.50108"
         d="m 124.05961,294.87238 8.59479,-0.53842 q 0.27918,2.09385 1.13666,3.19064 1.39591,1.77479 3.9883,1.77479 1.93433,0 2.97129,-0.89737 1.0569,-0.91731 1.0569,-2.1138 0,-1.13666 -0.99708,-2.03403 -0.99708,-0.89737 -4.62643,-1.69503 -5.94257,-1.33608 -8.47514,-3.54958 -2.55251,-2.21351 -2.55251,-5.64345 0,-2.25339 1.2962,-4.24754 1.31614,-2.01409 3.92847,-3.15076 2.63228,-1.1566 7.19889,-1.1566 5.60356,0 8.53496,2.09385 2.95134,2.07392 3.5097,6.62058 l -8.51502,0.49854 q -0.339,-1.97421 -1.43579,-2.87158 -1.07684,-0.89736 -2.99122,-0.89736 -1.57538,0 -2.37304,0.67801 -0.79766,0.65807 -0.79766,1.61526 0,0.69795 0.65807,1.25631 0.63813,0.57831 3.03111,1.07684 5.92262,1.27626 8.47514,2.5924 2.57245,1.2962 3.72906,3.23052 1.17655,1.93433 1.17655,4.32731 0,2.81175 -1.55544,5.18479 -1.55544,2.37304 -4.34725,3.60941 -2.79181,1.21643 -7.03935,1.21643 -7.45812,0 -10.3297,-2.87157 -2.87157,-2.87158 -3.25046,-7.29859 z m 29.93219,-4.92555 q 0,-7.159 3.9883,-11.1473 3.9883,-3.9883 11.10742,-3.9883 7.29859,0 11.24701,3.92847 3.94842,3.90854 3.94842,10.96783 0,5.12496 -1.73491,8.41531 -1.71497,3.27041 -4.98538,5.10503 -3.25047,1.81467 -8.11619,1.81467 -4.94549,0 -8.19596,-1.57537 -3.23052,-1.57538 -5.24462,-4.98538 -2.01409,-3.41 -2.01409,-8.53496 z m 9.0335,0.0399 q 0,4.42701 1.63521,6.36134 1.65514,1.93432 4.48684,1.93432 2.91145,0 4.50678,-1.89444 1.59532,-1.89444 1.59532,-6.80005 0,-4.12789 -1.67509,-6.02233 -1.65515,-1.91439 -4.50678,-1.91439 -2.73199,0 -4.38713,1.93433 -1.65515,1.93432 -1.65515,6.40122 z m 24.54799,4.88567 8.59479,-0.53842 q 0.27918,2.09385 1.13667,3.19064 1.3959,1.77479 3.9883,1.77479 1.93432,0 2.97128,-0.89737 1.0569,-0.91731 1.0569,-2.1138 0,-1.13666 -0.99707,-2.03403 -0.99708,-0.89737 -4.62643,-1.69503 -5.94257,-1.33608 -8.47514,-3.54958 -2.55251,-2.21351 -2.55251,-5.64345 0,-2.25339 1.29619,-4.24754 1.31614,-2.01409 3.92848,-3.15076 2.63228,-1.1566 7.19888,-1.1566 5.60357,0 8.53497,2.09385 2.95134,2.07392 3.5097,6.62058 l -8.51502,0.49854 q -0.33901,-1.97421 -1.43579,-2.87158 -1.07684,-0.89736 -2.99122,-0.89736 -1.57538,0 -2.37304,0.67801 -0.79766,0.65807 -0.79766,1.61526 0,0.69795 0.65807,1.25631 0.63812,0.57831 3.03111,1.07684 5.92262,1.27626 8.47513,2.5924 2.57246,1.2962 3.72907,3.23052 1.17654,1.93433 1.17654,4.32731 0,2.81175 -1.55543,5.18479 -1.55544,2.37304 -4.34725,3.60941 -2.79181,1.21643 -7.03935,1.21643 -7.45812,0 -10.3297,-2.87157 -2.87158,-2.87158 -3.25047,-7.29859 z"
         id="text1158"
         transform="scale(0.88825117,1.1258077)"
         aria-label="SOS" />
      <path
         id="path1159"
         d="M 427.172,624.678 H 358.29 v 68.882 h 68.882 z"
         style="fill:#ffffff;fill-opacity:1;fill-rule:nonzero;stroke:none"
         transform="matrix(1.3333333,0,0,-1.3333333,-373.45866,1122.4807)"
         clip-path="url(#clipPath1160)" />
      <path
         id="path1161"
         d="m 0,0 c 0.51,-0.283 1.026,-0.555 1.527,-0.852 0.72,-0.424 0.89,-1.143 0.639,-1.887 -0.396,-1.179 -0.83,-2.346 -1.246,-3.519 -0.693,-1.948 -1.387,-3.895 -2.077,-5.845 -0.435,-1.229 -0.851,-2.465 -1.301,-3.69 -0.379,-1.028 -0.98,-1.362 -2.071,-1.18 -0.93,0.156 -1.859,0.319 -2.785,0.499 -1.555,0.304 -2.836,-0.159 -3.835,-1.823 -0.888,-1.478 -1.264,-3.128 -1.483,-4.803 -0.572,-4.353 -0.499,-8.702 0.274,-13.029 0.231,-1.291 0.591,-2.55 1.183,-3.728 0.401,-0.797 0.888,-1.521 1.667,-2.016 0.758,-0.481 1.564,-0.6 2.428,-0.417 0.886,0.187 1.771,0.375 2.656,0.567 1.495,0.326 1.979,0.063 2.542,-1.368 1.598,-4.062 3.2,-8.124 4.8,-12.185 0.052,-0.132 0.101,-0.264 0.144,-0.399 0.285,-0.897 0.076,-1.501 -0.729,-2.013 -0.61,-0.388 -1.241,-0.744 -1.856,-1.125 -0.972,-0.603 -2.026,-0.853 -3.166,-0.789 -1.224,0.069 -2.448,0.153 -3.673,0.159 -1.328,0.005 -2.39,0.517 -3.34,1.418 -1.63,1.545 -3.005,3.289 -4.175,5.196 -2.327,3.789 -3.89,7.891 -4.953,12.196 -0.822,3.331 -1.311,6.708 -1.44,10.138 -0.161,4.279 0.281,8.502 1.209,12.678 0.546,2.454 1.28,4.851 2.214,7.184 0.953,2.378 2.121,4.648 3.594,6.748 0.889,1.267 1.893,2.442 3.03,3.498 0.641,0.595 1.382,0.963 2.258,1.035 1.523,0.125 3.047,0.242 4.569,0.368 1.018,0.085 1.951,-0.173 2.832,-0.663 C -0.371,0.245 -0.177,0.138 0.017,0.03 0.011,0.021 0.006,0.01 0,0"
         style="fill:#000000;fill-opacity:1;fill-rule:nonzero;stroke:none"
         transform="matrix(1.3333333,0,0,-1.3333333,159.74401,204.96065)"
         clip-path="url(#clipPath1162)" />
    </g>
  </g>
</svg>
