<?xml version="1.0" encoding="UTF-8" standalone="no"?>
<!-- Created with Inkscape (http://www.inkscape.org/) -->

<svg
   width="38.130692mm"
   height="50.840569mm"
   viewBox="0 0 38.130691 50.840569"
   version="1.1"
   id="svg1"
   inkscape:version="1.4 (86a8ad7, 2024-10-11)"
   sodipodi:docname="emergency lay-by.svg"
   xmlns:inkscape="http://www.inkscape.org/namespaces/inkscape"
   xmlns:sodipodi="http://sodipodi.sourceforge.net/DTD/sodipodi-0.dtd"
   xmlns="http://www.w3.org/2000/svg"
   xmlns:svg="http://www.w3.org/2000/svg">
  <sodipodi:namedview
     id="namedview1"
     pagecolor="#ffffff"
     bordercolor="#000000"
     borderopacity="0.25"
     inkscape:showpageshadow="2"
     inkscape:pageopacity="0.0"
     inkscape:pagecheckerboard="0"
     inkscape:deskcolor="#d1d1d1"
     inkscape:document-units="mm"
     inkscape:zoom="5.7513468"
     inkscape:cx="93.630243"
     inkscape:cy="226.81644"
     inkscape:window-width="1920"
     inkscape:window-height="1009"
     inkscape:window-x="-8"
     inkscape:window-y="-8"
     inkscape:window-maximized="1"
     inkscape:current-layer="g4075" />
  <defs
     id="defs1">
    <inkscape:path-effect
       effect="fillet_chamfer"
       id="path-effect1"
       is_visible="true"
       lpeversion="1"
       nodesatellites_param="F,0,0,1,0,0,0,1 @ F,0,0,1,0,0,0,1 @ F,0,0,1,0,0,0,1 @ F,0,0,1,0,0,0,1"
       radius="0"
       unit="px"
       method="auto"
       mode="F"
       chamfer_steps="1"
       flexible="false"
       use_knot_distance="true"
       apply_no_radius="true"
       apply_with_radius="true"
       only_selected="false"
       hide_knots="false" />
    <clipPath
       clipPathUnits="userSpaceOnUse"
       id="clipPath4010">
      <path
         d="M 0,841.89 H 595.276 V 0 H 0 Z"
         transform="translate(-166.51401,-731.52902)"
         id="path4010" />
    </clipPath>
    <clipPath
       clipPathUnits="userSpaceOnUse"
       id="clipPath4012">
      <path
         d="M 0,841.89 H 595.276 V 0 H 0 Z"
         transform="translate(-59.355001,-725.79102)"
         id="path4012" />
    </clipPath>
    <clipPath
       clipPathUnits="userSpaceOnUse"
       id="clipPath4014">
      <path
         d="M 0,841.89 H 595.276 V 0 H 0 Z"
         id="path4014" />
    </clipPath>
    <clipPath
       clipPathUnits="userSpaceOnUse"
       id="clipPath4016">
      <path
         d="M 0,841.89 H 595.276 V 0 H 0 Z"
         transform="translate(-132.939,-632.53702)"
         id="path4016" />
    </clipPath>
    <clipPath
       clipPathUnits="userSpaceOnUse"
       id="clipPath4018">
      <path
         d="M 0,841.89 H 595.276 V 0 H 0 Z"
         transform="translate(-446.64601,-731.52902)"
         id="path4018" />
    </clipPath>
    <clipPath
       clipPathUnits="userSpaceOnUse"
       id="clipPath4020">
      <path
         d="M 0,841.89 H 595.276 V 0 H 0 Z"
         transform="translate(-339.48701,-725.79102)"
         id="path4020" />
    </clipPath>
    <clipPath
       clipPathUnits="userSpaceOnUse"
       id="clipPath4022">
      <path
         d="M 0,841.89 H 595.276 V 0 H 0 Z"
         id="path4022" />
    </clipPath>
    <clipPath
       clipPathUnits="userSpaceOnUse"
       id="clipPath4024">
      <path
         d="M 0,841.89 H 595.276 V 0 H 0 Z"
         transform="translate(-409.44701,-659.97202)"
         id="path4024" />
    </clipPath>
    <clipPath
       clipPathUnits="userSpaceOnUse"
       id="clipPath4028">
      <path
         d="M 0,841.89 H 595.276 V 0 H 0 Z"
         transform="translate(-166.51401,-483.03801)"
         id="path4028" />
    </clipPath>
    <clipPath
       clipPathUnits="userSpaceOnUse"
       id="clipPath4030">
      <path
         d="M 0,841.89 H 595.276 V 0 H 0 Z"
         transform="translate(-59.355001,-477.29901)"
         id="path4030" />
    </clipPath>
    <clipPath
       clipPathUnits="userSpaceOnUse"
       id="clipPath4032">
      <path
         d="M 0,841.89 H 595.276 V 0 H 0 Z"
         id="path4032" />
    </clipPath>
    <clipPath
       clipPathUnits="userSpaceOnUse"
       id="clipPath4034">
      <path
         d="M 0,841.89 H 595.276 V 0 H 0 Z"
         transform="translate(-126.208,-398.81301)"
         id="path4034" />
    </clipPath>
    <clipPath
       clipPathUnits="userSpaceOnUse"
       id="clipPath4052">
      <path
         d="M 0,841.89 H 595.276 V 0 H 0 Z"
         transform="translate(-446.64601,-484.03801)"
         id="path4052" />
    </clipPath>
    <clipPath
       clipPathUnits="userSpaceOnUse"
       id="clipPath4054">
      <path
         d="M 0,841.89 H 595.276 V 0 H 0 Z"
         transform="translate(-339.48701,-478.29901)"
         id="path4054" />
    </clipPath>
    <clipPath
       clipPathUnits="userSpaceOnUse"
       id="clipPath4056">
      <path
         d="M 0,841.89 H 595.276 V 0 H 0 Z"
         id="path4056" />
    </clipPath>
    <clipPath
       clipPathUnits="userSpaceOnUse"
       id="clipPath4058">
      <path
         d="M 0,841.89 H 595.276 V 0 H 0 Z"
         transform="translate(-390.32301,-383.39001)"
         id="path4058" />
    </clipPath>
    <clipPath
       clipPathUnits="userSpaceOnUse"
       id="clipPath4060">
      <path
         d="M 0,841.89 H 595.276 V 0 H 0 Z"
         transform="translate(-414.75501,-408.07801)"
         id="path4060" />
    </clipPath>
    <clipPath
       clipPathUnits="userSpaceOnUse"
       id="clipPath2032">
      <path
         d="M 0,6.109 H 350.911 V 841.89 H 0 Z"
         transform="translate(-202.28701,-239.73901)"
         id="path2032" />
    </clipPath>
    <clipPath
       clipPathUnits="userSpaceOnUse"
       id="clipPath2034">
      <path
         d="M 0,6.109 H 350.911 V 841.89 H 0 Z"
         transform="translate(-95.127602,-234.001)"
         id="path2034" />
    </clipPath>
    <clipPath
       clipPathUnits="userSpaceOnUse"
       id="clipPath2036">
      <path
         d="M 0,6.109 H 350.911 V 841.89 H 0 Z"
         id="path2036" />
    </clipPath>
    <clipPath
       clipPathUnits="userSpaceOnUse"
       id="clipPath2038">
      <path
         d="M 0,6.109 H 350.911 V 841.89 H 0 Z"
         transform="translate(-130.918,-151.443)"
         id="path2038" />
    </clipPath>
    <clipPath
       clipPathUnits="userSpaceOnUse"
       id="clipPath2040">
      <path
         d="M 0,6.109 H 350.911 V 841.89 H 0 Z"
         transform="translate(-163.501,-151.443)"
         id="path2040" />
    </clipPath>
    <clipPath
       clipPathUnits="userSpaceOnUse"
       id="clipPath2042">
      <path
         d="M 0,6.109 H 350.911 V 841.89 H 0 Z"
         transform="translate(-177.469,-165.54201)"
         id="path2042" />
    </clipPath>
    <clipPath
       clipPathUnits="userSpaceOnUse"
       id="clipPath3044">
      <path
         d="M 0,841.89 H 595.276 V 0 H 0 Z"
         transform="translate(-401.96101,-456.03201)"
         id="path3044" />
    </clipPath>
    <clipPath
       clipPathUnits="userSpaceOnUse"
       id="clipPath3048">
      <path
         d="M 0,841.89 H 595.276 V 0 H 0 Z"
         transform="translate(-371.89201,-481.43101)"
         id="path3048" />
    </clipPath>
    <clipPath
       clipPathUnits="userSpaceOnUse"
       id="clipPath176">
      <path
         d="M 0,841.89 H 595.276 V 0 H 0 Z"
         transform="translate(-369.97101,-682.58302)"
         id="path176" />
    </clipPath>
    <clipPath
       clipPathUnits="userSpaceOnUse"
       id="clipPath178">
      <path
         d="M 0,841.89 H 595.276 V 0 H 0 Z"
         transform="translate(-279.17001,-677.72102)"
         id="path178" />
    </clipPath>
    <clipPath
       clipPathUnits="userSpaceOnUse"
       id="clipPath180">
      <path
         d="M 0,841.89 H 595.276 V 0 H 0 Z"
         id="path180" />
    </clipPath>
    <clipPath
       clipPathUnits="userSpaceOnUse"
       id="clipPath182">
      <path
         d="M 0,841.89 H 595.276 V 0 H 0 Z"
         id="path182" />
    </clipPath>
    <clipPath
       clipPathUnits="userSpaceOnUse"
       id="clipPath184">
      <path
         d="M 0,841.89 H 595.276 V 0 H 0 Z"
         id="path184" />
    </clipPath>
    <clipPath
       clipPathUnits="userSpaceOnUse"
       id="clipPath186">
      <path
         d="M 0,841.89 H 595.276 V 0 H 0 Z"
         id="path186" />
    </clipPath>
    <clipPath
       clipPathUnits="userSpaceOnUse"
       id="clipPath188">
      <path
         d="M 0,841.89 H 595.276 V 0 H 0 Z"
         id="path188" />
    </clipPath>
    <clipPath
       clipPathUnits="userSpaceOnUse"
       id="clipPath190">
      <path
         d="M 0,841.89 H 595.276 V 0 H 0 Z"
         transform="translate(-334.17901,-550.46002)"
         id="path190" />
    </clipPath>
  </defs>
  <g
     inkscape:label="Layer 1"
     inkscape:groupmode="layer"
     id="layer1"
     transform="translate(-85.984643,-123.11291)">
    <g
       id="g4075"
       transform="matrix(0.26458333,0,0,0.26458333,65.313981,79.600425)">
      <path
         style="fill:#ffffff;stroke:#ffffff;stroke-width:0.877059"
         id="rect1"
         width="169.20169"
         height="225.89459"
         x="65.582489"
         y="147.58603"
         sodipodi:type="rect"
         d="M 65.582489,147.58603 H 234.78418 V 373.48062 H 65.582489 Z"
         inkscape:path-effect="#path-effect1"
         transform="matrix(0.84735486,0,0,0.84735057,22.924756,39.770258)" />
      <path
         id="path175"
         d="m 0,0 h -91.371 c -4.59,0 -8.324,-3.683 -8.324,-8.212 v -127.691 c 0,-4.528 3.734,-8.212 8.324,-8.212 H 0 c 4.625,0 8.392,3.684 8.392,8.212 V -8.212 C 8.392,-3.683 4.625,0 0,0 m 0,-0.485 c 4.359,0 7.906,-3.466 7.906,-7.727 v -127.691 c 0,-4.261 -3.547,-7.727 -7.906,-7.727 h -91.371 c -4.322,0 -7.839,3.466 -7.839,7.727 V -8.212 c 0,4.261 3.517,7.727 7.839,7.727 H 0"
         style="fill:#4467a5;fill-opacity:1;fill-rule:nonzero;stroke:none"
         transform="matrix(1.3333333,0,0,-1.3333333,211.052,164.45666)"
         clip-path="url(#clipPath176)" />
      <path
         id="path177"
         d="m 0,0 c -2.162,0 -3.921,-1.763 -3.921,-3.928 v -126.538 c 0,-2.165 1.759,-3.926 3.921,-3.926 h 90.229 c 2.199,0 3.987,1.761 3.987,3.926 V -3.928 C 94.216,-1.763 92.428,0 90.229,0 Z"
         style="fill:#4467a5;fill-opacity:1;fill-rule:nonzero;stroke:none"
         transform="matrix(1.3333333,0,0,-1.3333333,89.984,170.93933)"
         clip-path="url(#clipPath178)" />
      <path
         id="path179"
         d="m 358.107,646.107 h -9.738 v 24.483 h 9.738 z"
         style="fill:#ffffff;fill-opacity:1;fill-rule:nonzero;stroke:none"
         transform="matrix(1.3333333,0,0,-1.3333333,-282.24267,1074.5673)"
         clip-path="url(#clipPath180)" />
      <path
         id="path181"
         d="m 358.107,551.065 h -9.738 v 24.483 h 9.738 z"
         style="fill:#ffffff;fill-opacity:1;fill-rule:nonzero;stroke:none"
         transform="matrix(1.3333333,0,0,-1.3333333,-282.24267,1074.5673)"
         clip-path="url(#clipPath182)" />
      <path
         id="path183"
         d="m 358.107,583.722 h -9.738 v 12.623 h 9.738 z"
         style="fill:#ffffff;fill-opacity:1;fill-rule:nonzero;stroke:none"
         transform="matrix(1.3333333,0,0,-1.3333333,-282.24267,1074.5673)"
         clip-path="url(#clipPath184)" />
      <path
         id="path185"
         d="m 358.107,604.516 h -9.738 v 12.624 h 9.738 z"
         style="fill:#ffffff;fill-opacity:1;fill-rule:nonzero;stroke:none"
         transform="matrix(1.3333333,0,0,-1.3333333,-282.24267,1074.5673)"
         clip-path="url(#clipPath186)" />
      <path
         id="path187"
         d="m 358.107,625.312 h -9.738 v 12.623 h 9.738 z"
         style="fill:#ffffff;fill-opacity:1;fill-rule:nonzero;stroke:none"
         transform="matrix(1.3333333,0,0,-1.3333333,-282.24267,1074.5673)"
         clip-path="url(#clipPath188)" />
      <path
         id="path189"
         d="m 0,0 h -9.32 v 16.937 l -42.572,24.687 v 36.803 l 42.572,24.738 v 16.967 H 0 V 97.801 L -42.571,73.063 V 46.994 L 0,22.308 Z"
         style="fill:#ffffff;fill-opacity:1;fill-rule:nonzero;stroke:none"
         transform="matrix(1.3333333,0,0,-1.3333333,163.32933,340.62066)"
         clip-path="url(#clipPath190)" />
    </g>
  </g>
</svg>
