<?xml version="1.0" encoding="UTF-8" standalone="no"?>
<!-- Created with Inkscape (http://www.inkscape.org/) -->

<svg
   width="60.000088mm"
   height="45.000332mm"
   viewBox="0 0 60.000088 45.000332"
   version="1.1"
   id="svg1"
   inkscape:version="1.4 (86a8ad7, 2024-10-11)"
   sodipodi:docname="emergency exit (b).svg"
   xmlns:inkscape="http://www.inkscape.org/namespaces/inkscape"
   xmlns:sodipodi="http://sodipodi.sourceforge.net/DTD/sodipodi-0.dtd"
   xmlns="http://www.w3.org/2000/svg"
   xmlns:svg="http://www.w3.org/2000/svg">
  <sodipodi:namedview
     id="namedview1"
     pagecolor="#ffffff"
     bordercolor="#000000"
     borderopacity="0.25"
     inkscape:showpageshadow="2"
     inkscape:pageopacity="0.0"
     inkscape:pagecheckerboard="0"
     inkscape:deskcolor="#d1d1d1"
     inkscape:document-units="mm"
     inkscape:zoom="2.8756734"
     inkscape:cx="101.54143"
     inkscape:cy="126.75292"
     inkscape:window-width="1920"
     inkscape:window-height="1009"
     inkscape:window-x="-8"
     inkscape:window-y="-8"
     inkscape:window-maximized="1"
     inkscape:current-layer="g4075" />
  <defs
     id="defs1">
    <inkscape:path-effect
       effect="fillet_chamfer"
       id="path-effect1"
       is_visible="true"
       lpeversion="1"
       nodesatellites_param="F,0,0,1,0,0,0,1 @ F,0,0,1,0,0,0,1 @ F,0,0,1,0,0,0,1 @ F,0,0,1,0,0,0,1"
       radius="0"
       unit="px"
       method="auto"
       mode="F"
       chamfer_steps="1"
       flexible="false"
       use_knot_distance="true"
       apply_no_radius="true"
       apply_with_radius="true"
       only_selected="false"
       hide_knots="false" />
    <clipPath
       clipPathUnits="userSpaceOnUse"
       id="clipPath4010">
      <path
         d="M 0,841.89 H 595.276 V 0 H 0 Z"
         transform="translate(-166.51401,-731.52902)"
         id="path4010" />
    </clipPath>
    <clipPath
       clipPathUnits="userSpaceOnUse"
       id="clipPath4012">
      <path
         d="M 0,841.89 H 595.276 V 0 H 0 Z"
         transform="translate(-59.355001,-725.79102)"
         id="path4012" />
    </clipPath>
    <clipPath
       clipPathUnits="userSpaceOnUse"
       id="clipPath4014">
      <path
         d="M 0,841.89 H 595.276 V 0 H 0 Z"
         id="path4014" />
    </clipPath>
    <clipPath
       clipPathUnits="userSpaceOnUse"
       id="clipPath4016">
      <path
         d="M 0,841.89 H 595.276 V 0 H 0 Z"
         transform="translate(-132.939,-632.53702)"
         id="path4016" />
    </clipPath>
    <clipPath
       clipPathUnits="userSpaceOnUse"
       id="clipPath4018">
      <path
         d="M 0,841.89 H 595.276 V 0 H 0 Z"
         transform="translate(-446.64601,-731.52902)"
         id="path4018" />
    </clipPath>
    <clipPath
       clipPathUnits="userSpaceOnUse"
       id="clipPath4020">
      <path
         d="M 0,841.89 H 595.276 V 0 H 0 Z"
         transform="translate(-339.48701,-725.79102)"
         id="path4020" />
    </clipPath>
    <clipPath
       clipPathUnits="userSpaceOnUse"
       id="clipPath4022">
      <path
         d="M 0,841.89 H 595.276 V 0 H 0 Z"
         id="path4022" />
    </clipPath>
    <clipPath
       clipPathUnits="userSpaceOnUse"
       id="clipPath4024">
      <path
         d="M 0,841.89 H 595.276 V 0 H 0 Z"
         transform="translate(-409.44701,-659.97202)"
         id="path4024" />
    </clipPath>
    <clipPath
       clipPathUnits="userSpaceOnUse"
       id="clipPath4028">
      <path
         d="M 0,841.89 H 595.276 V 0 H 0 Z"
         transform="translate(-166.51401,-483.03801)"
         id="path4028" />
    </clipPath>
    <clipPath
       clipPathUnits="userSpaceOnUse"
       id="clipPath4030">
      <path
         d="M 0,841.89 H 595.276 V 0 H 0 Z"
         transform="translate(-59.355001,-477.29901)"
         id="path4030" />
    </clipPath>
    <clipPath
       clipPathUnits="userSpaceOnUse"
       id="clipPath4032">
      <path
         d="M 0,841.89 H 595.276 V 0 H 0 Z"
         id="path4032" />
    </clipPath>
    <clipPath
       clipPathUnits="userSpaceOnUse"
       id="clipPath4034">
      <path
         d="M 0,841.89 H 595.276 V 0 H 0 Z"
         transform="translate(-126.208,-398.81301)"
         id="path4034" />
    </clipPath>
    <clipPath
       clipPathUnits="userSpaceOnUse"
       id="clipPath4052">
      <path
         d="M 0,841.89 H 595.276 V 0 H 0 Z"
         transform="translate(-446.64601,-484.03801)"
         id="path4052" />
    </clipPath>
    <clipPath
       clipPathUnits="userSpaceOnUse"
       id="clipPath4054">
      <path
         d="M 0,841.89 H 595.276 V 0 H 0 Z"
         transform="translate(-339.48701,-478.29901)"
         id="path4054" />
    </clipPath>
    <clipPath
       clipPathUnits="userSpaceOnUse"
       id="clipPath4056">
      <path
         d="M 0,841.89 H 595.276 V 0 H 0 Z"
         id="path4056" />
    </clipPath>
    <clipPath
       clipPathUnits="userSpaceOnUse"
       id="clipPath4058">
      <path
         d="M 0,841.89 H 595.276 V 0 H 0 Z"
         transform="translate(-390.32301,-383.39001)"
         id="path4058" />
    </clipPath>
    <clipPath
       clipPathUnits="userSpaceOnUse"
       id="clipPath4060">
      <path
         d="M 0,841.89 H 595.276 V 0 H 0 Z"
         transform="translate(-414.75501,-408.07801)"
         id="path4060" />
    </clipPath>
    <clipPath
       clipPathUnits="userSpaceOnUse"
       id="clipPath2032">
      <path
         d="M 0,6.109 H 350.911 V 841.89 H 0 Z"
         transform="translate(-202.28701,-239.73901)"
         id="path2032" />
    </clipPath>
    <clipPath
       clipPathUnits="userSpaceOnUse"
       id="clipPath2034">
      <path
         d="M 0,6.109 H 350.911 V 841.89 H 0 Z"
         transform="translate(-95.127602,-234.001)"
         id="path2034" />
    </clipPath>
    <clipPath
       clipPathUnits="userSpaceOnUse"
       id="clipPath2036">
      <path
         d="M 0,6.109 H 350.911 V 841.89 H 0 Z"
         id="path2036" />
    </clipPath>
    <clipPath
       clipPathUnits="userSpaceOnUse"
       id="clipPath2038">
      <path
         d="M 0,6.109 H 350.911 V 841.89 H 0 Z"
         transform="translate(-130.918,-151.443)"
         id="path2038" />
    </clipPath>
    <clipPath
       clipPathUnits="userSpaceOnUse"
       id="clipPath2040">
      <path
         d="M 0,6.109 H 350.911 V 841.89 H 0 Z"
         transform="translate(-163.501,-151.443)"
         id="path2040" />
    </clipPath>
    <clipPath
       clipPathUnits="userSpaceOnUse"
       id="clipPath2042">
      <path
         d="M 0,6.109 H 350.911 V 841.89 H 0 Z"
         transform="translate(-177.469,-165.54201)"
         id="path2042" />
    </clipPath>
    <clipPath
       clipPathUnits="userSpaceOnUse"
       id="clipPath2080">
      <path
         d="m 292.576,0 h 302.7 v 364.09 h -302.7 z"
         transform="translate(-495.56801,-228.232)"
         id="path2080" />
    </clipPath>
    <clipPath
       clipPathUnits="userSpaceOnUse"
       id="clipPath2082">
      <path
         d="m 292.576,0 h 302.7 v 364.09 h -302.7 z"
         transform="translate(-340.92001,-111.17001)"
         id="path2082" />
    </clipPath>
    <clipPath
       clipPathUnits="userSpaceOnUse"
       id="clipPath2084">
      <path
         d="m 292.576,0 h 302.7 v 364.09 h -302.7 z"
         transform="translate(-378.26301,-156.23001)"
         id="path2084" />
    </clipPath>
    <clipPath
       clipPathUnits="userSpaceOnUse"
       id="clipPath2086">
      <path
         d="m 292.576,0 h 302.7 v 364.09 h -302.7 z"
         transform="translate(-434.26201,-156.23001)"
         id="path2086" />
    </clipPath>
    <clipPath
       clipPathUnits="userSpaceOnUse"
       id="clipPath2088">
      <path
         d="m 292.576,0 h 302.7 v 364.09 h -302.7 z"
         transform="translate(-458.27001,-180.46101)"
         id="path2088" />
    </clipPath>
    <clipPath
       clipPathUnits="userSpaceOnUse"
       id="clipPath2090">
      <path
         d="m 292.576,0 h 302.7 v 364.09 h -302.7 z"
         id="path2090" />
    </clipPath>
    <clipPath
       clipPathUnits="userSpaceOnUse"
       id="clipPath2990">
      <path
         d="M 0,841.89 H 595.276 V 0 H 0 Z"
         transform="translate(-210.28701,-754.90402)"
         id="path2990" />
    </clipPath>
    <clipPath
       clipPathUnits="userSpaceOnUse"
       id="clipPath2992">
      <path
         d="M 0,841.89 H 595.276 V 0 H 0 Z"
         transform="translate(-55.637201,-637.84202)"
         id="path2992" />
    </clipPath>
    <clipPath
       clipPathUnits="userSpaceOnUse"
       id="clipPath2994">
      <path
         d="M 0,841.89 H 595.276 V 0 H 0 Z"
         transform="translate(-147.859,-709.68602)"
         id="path2994" />
    </clipPath>
    <clipPath
       clipPathUnits="userSpaceOnUse"
       id="clipPath2996">
      <path
         d="M 0,841.89 H 595.276 V 0 H 0 Z"
         transform="translate(-185.32,-709.68602)"
         id="path2996" />
    </clipPath>
    <clipPath
       clipPathUnits="userSpaceOnUse"
       id="clipPath2998">
      <path
         d="M 0,841.89 H 595.276 V 0 H 0 Z"
         transform="translate(-201.38001,-725.89602)"
         id="path2998" />
    </clipPath>
    <clipPath
       clipPathUnits="userSpaceOnUse"
       id="clipPath3000">
      <path
         d="M 0,841.89 H 595.276 V 0 H 0 Z"
         id="path3000" />
    </clipPath>
    <clipPath
       clipPathUnits="userSpaceOnUse"
       id="clipPath3002">
      <path
         d="M 0,841.89 H 595.276 V 0 H 0 Z"
         transform="translate(-77.893104,-700.55302)"
         id="path3002" />
    </clipPath>
    <clipPath
       clipPathUnits="userSpaceOnUse"
       id="clipPath3004">
      <path
         d="M 0,841.89 H 595.276 V 0 H 0 Z"
         transform="translate(-173.232,-664.50302)"
         id="path3004" />
    </clipPath>
    <clipPath
       clipPathUnits="userSpaceOnUse"
       id="clipPath3006">
      <path
         d="M 0,841.89 H 595.276 V 0 H 0 Z"
         transform="translate(-456.08401,-762.46702)"
         id="path3006" />
    </clipPath>
    <clipPath
       clipPathUnits="userSpaceOnUse"
       id="clipPath3008">
      <path
         d="M 0,841.89 H 595.276 V 0 H 0 Z"
         transform="translate(-301.43601,-645.40402)"
         id="path3008" />
    </clipPath>
    <clipPath
       clipPathUnits="userSpaceOnUse"
       id="clipPath3010">
      <path
         d="M 0,841.89 H 595.276 V 0 H 0 Z"
         id="path3010" />
    </clipPath>
    <clipPath
       clipPathUnits="userSpaceOnUse"
       id="clipPath3012">
      <path
         d="M 0,841.89 H 595.276 V 0 H 0 Z"
         transform="translate(-404.66801,-702.70202)"
         id="path3012" />
    </clipPath>
    <clipPath
       clipPathUnits="userSpaceOnUse"
       id="clipPath3020">
      <path
         d="M 0,841.89 H 595.276 V 0 H 0 Z"
         id="path3020" />
    </clipPath>
    <clipPath
       clipPathUnits="userSpaceOnUse"
       id="clipPath3022">
      <path
         d="M 0,841.89 H 595.276 V 0 H 0 Z"
         transform="translate(-166.60701,-516.33601)"
         id="path3022" />
    </clipPath>
    <clipPath
       clipPathUnits="userSpaceOnUse"
       id="clipPath3024">
      <path
         d="M 0,841.89 H 595.276 V 0 H 0 Z"
         transform="translate(-44.418001,-487.91501)"
         id="path3024" />
    </clipPath>
    <clipPath
       clipPathUnits="userSpaceOnUse"
       id="clipPath3026">
      <path
         d="M 0,841.89 H 595.276 V 0 H 0 Z"
         transform="translate(-67.293902,-487.91501)"
         id="path3026" />
    </clipPath>
    <clipPath
       clipPathUnits="userSpaceOnUse"
       id="clipPath3028">
      <path
         d="M 0,841.89 H 595.276 V 0 H 0 Z"
         transform="translate(-149.41401,-456.52801)"
         id="path3028" />
    </clipPath>
    <clipPath
       clipPathUnits="userSpaceOnUse"
       id="clipPath3030">
      <path
         d="M 0,841.89 H 595.276 V 0 H 0 Z"
         transform="translate(-124.242,-479.11501)"
         id="path3030" />
    </clipPath>
    <clipPath
       clipPathUnits="userSpaceOnUse"
       id="clipPath5029">
      <path
         d="M 0,841.89 H 595.276 V 0 H 0 Z"
         transform="translate(-199.13301,-332.54801)"
         id="path5029" />
    </clipPath>
    <clipPath
       clipPathUnits="userSpaceOnUse"
       id="clipPath5031">
      <path
         d="M 0,841.89 H 595.276 V 0 H 0 Z"
         transform="translate(-34.793501,-225.388)"
         id="path5031" />
    </clipPath>
    <clipPath
       clipPathUnits="userSpaceOnUse"
       id="clipPath5033">
      <path
         d="M 0,841.89 H 595.276 V 0 H 0 Z"
         transform="translate(-77.293502,-303.35801)"
         id="path5033" />
    </clipPath>
    <clipPath
       clipPathUnits="userSpaceOnUse"
       id="clipPath5037">
      <path
         d="M 0,841.89 H 595.276 V 0 H 0 Z"
         transform="translate(-149.92401,-323.22201)"
         id="path5037" />
    </clipPath>
    <clipPath
       clipPathUnits="userSpaceOnUse"
       id="clipPath5039">
      <path
         d="M 0,841.89 H 595.276 V 0 H 0 Z"
         transform="translate(-152.25801,-315.52101)"
         id="path5039" />
    </clipPath>
    <clipPath
       clipPathUnits="userSpaceOnUse"
       id="clipPath5041">
      <path
         d="M 0,841.89 H 595.276 V 0 H 0 Z"
         transform="translate(-124.03701,-291.871)"
         id="path5041" />
    </clipPath>
    <clipPath
       clipPathUnits="userSpaceOnUse"
       id="clipPath5043">
      <path
         d="M 0,841.89 H 595.276 V 0 H 0 Z"
         transform="translate(-476.61301,-332.54801)"
         id="path5043" />
    </clipPath>
    <clipPath
       clipPathUnits="userSpaceOnUse"
       id="clipPath5045">
      <path
         d="M 0,841.89 H 595.276 V 0 H 0 Z"
         transform="translate(-312.27301,-225.388)"
         id="path5045" />
    </clipPath>
    <clipPath
       clipPathUnits="userSpaceOnUse"
       id="clipPath5047">
      <path
         d="M 0,841.89 H 595.276 V 0 H 0 Z"
         transform="translate(-428.37401,-303.35801)"
         id="path5047" />
    </clipPath>
    <clipPath
       clipPathUnits="userSpaceOnUse"
       id="clipPath5049">
      <path
         d="M 0,841.89 H 595.276 V 0 H 0 Z"
         transform="translate(-355.74301,-323.22201)"
         id="path5049" />
    </clipPath>
    <clipPath
       clipPathUnits="userSpaceOnUse"
       id="clipPath5051">
      <path
         d="M 0,841.89 H 595.276 V 0 H 0 Z"
         transform="translate(-353.41001,-315.52101)"
         id="path5051" />
    </clipPath>
    <clipPath
       clipPathUnits="userSpaceOnUse"
       id="clipPath5053">
      <path
         d="M 0,841.89 H 595.276 V 0 H 0 Z"
         transform="translate(-381.63101,-291.871)"
         id="path5053" />
    </clipPath>
  </defs>
  <g
     inkscape:label="Layer 1"
     inkscape:groupmode="layer"
     id="layer1"
     transform="translate(-75.786002,-126.76909)">
    <g
       id="g4075"
       transform="matrix(0.26458333,0,0,0.26458333,65.313981,79.600425)">
      <g
         id="g5059"
         transform="translate(-369.13272,-487.6434)">
        <path
           id="path5042"
           d="m 0,0 v -107.833 c 0,-5.417 -4.348,-9.823 -9.691,-9.823 h -150.696 c -5.345,0 -9.692,4.406 -9.692,9.823 V 0 c 0,5.458 4.347,9.902 9.692,9.902 H -9.691 C -4.348,9.902 0,5.458 0,0"
           style="fill:#fed402;fill-opacity:1;fill-rule:nonzero;stroke:none"
           transform="matrix(1.3333333,0,0,-1.3333333,635.484,679.12267)"
           clip-path="url(#clipPath5043)" />
        <path
           id="path5044"
           d="M 0,0 C 0,-2.552 2.079,-4.627 4.635,-4.627 H 153.97 c 2.555,0 4.633,2.075 4.633,4.627 v 106.485 c 0,2.594 -2.078,4.704 -4.633,4.704 H 4.635 C 2.079,111.189 0,109.079 0,106.485 Z"
           style="fill:#00a551;fill-opacity:1;fill-rule:nonzero;stroke:none"
           transform="matrix(1.3333333,0,0,-1.3333333,416.364,822.00267)"
           clip-path="url(#clipPath5045)" />
        <path
           id="path5046"
           d="m 0,0 -0.534,1.946 c 0.755,1.544 1.691,2.232 1.691,5.897 0,3.664 -2.361,8.258 -6.187,8.258 -3.826,0 -6.434,-3.593 -6.434,-8.122 0,-5.564 2.478,-7.522 5.624,-8.746 l 0.237,-2.898 -1.715,-1.508 -0.085,-12.648 -12.263,-1.994 -0.586,-5.972 17.415,0.161 2.77,4.863 2.757,-8.879 -9.023,-8.676 0.836,-22.214 -6.894,-2.638 0.063,-2.772 9.681,-0.302 2.37,0.39 0.445,22.615 c 0.833,1.204 1.864,1.305 2.498,3.612 1.683,-0.096 3.762,-0.743 5.643,0.54 l 2.793,-7.581 c 1.961,-5.014 1.512,-4.719 5.536,-4.306 4.16,0.429 7.779,0.384 12.363,1.181 l 2.353,-7.248 2.168,-1.196 -0.978,12.687 1.291,-0.389 -0.313,3.375 -2.322,-0.177 -12.11,-0.372 c -2.194,0.508 -2.556,4.116 -2.423,7.725 2.969,10.506 -5.532,18.482 -7.018,28.913 l 6.933,-2.461 6.458,-12.929 1.831,1.121 c 1.501,0.917 1.28,1.113 0.633,3.297 -0.546,1.842 -1.335,3.669 -2.165,5.87 -1.064,2.824 -2.113,6.483 -4.056,8.546 C 13.4,3.213 4.114,0.996 0,0"
           style="fill:#ffffff;fill-opacity:1;fill-rule:nonzero;stroke:none"
           transform="matrix(1.3333333,0,0,-1.3333333,571.16533,718.04267)"
           clip-path="url(#clipPath5047)" />
        <path
           id="path5048"
           d="m 0,0 h -32.829 c -1.088,0 -1.977,-1.244 -1.977,-2.75 v -83.602 c 0,-1.506 0.894,-2.75 1.977,-2.75 H 0 c 1.083,0 1.977,1.238 1.977,2.75 V -2.75 C 1.977,-1.237 1.087,0 0,0"
           style="fill:#ffffff;fill-opacity:1;fill-rule:nonzero;stroke:none"
           transform="matrix(1.3333333,0,0,-1.3333333,474.324,691.55733)"
           clip-path="url(#clipPath5049)" />
        <path
           id="path5050"
           d="m 0,0 -17.126,-6.325 c -0.523,-0.193 -0.966,-1.034 -0.962,-2.275 l 0.197,-58.426 c 0.004,-1.242 0.441,-2.14 0.963,-2.275 L 0,-73.701 c 0.522,-0.136 0.962,1.023 0.962,2.274 V -2.274 C 0.962,-1.023 0.522,0.192 0,0"
           style="fill:#00a551;fill-opacity:1;fill-rule:nonzero;stroke:none"
           transform="matrix(1.3333333,0,0,-1.3333333,471.21333,701.82533)"
           clip-path="url(#clipPath5051)" />
        <path
           id="path5052"
           d="m 0,0 h -9.49 l -10.082,-13.75 8.303,-12.65 H 0 l -4.597,7.126 -0.008,0.299 h 22.002 v 11.55 H -4.935 l -0.008,0.275 z"
           style="fill:#ffffff;fill-opacity:1;fill-rule:nonzero;stroke:none"
           transform="matrix(1.3333333,0,0,-1.3333333,508.84133,733.35867)"
           clip-path="url(#clipPath5053)" />
      </g>
    </g>
  </g>
</svg>
