<?xml version="1.0" encoding="UTF-8" standalone="no"?>
<!-- Created with Inkscape (http://www.inkscape.org/) -->

<svg
   width="45.000332mm"
   height="45.000332mm"
   viewBox="0 0 45.000332 45.000332"
   version="1.1"
   id="svg1"
   inkscape:version="1.4 (86a8ad7, 2024-10-11)"
   sodipodi:docname="end of expressway.svg"
   xmlns:inkscape="http://www.inkscape.org/namespaces/inkscape"
   xmlns:sodipodi="http://sodipodi.sourceforge.net/DTD/sodipodi-0.dtd"
   xmlns="http://www.w3.org/2000/svg"
   xmlns:svg="http://www.w3.org/2000/svg">
  <sodipodi:namedview
     id="namedview1"
     pagecolor="#ffffff"
     bordercolor="#000000"
     borderopacity="0.25"
     inkscape:showpageshadow="2"
     inkscape:pageopacity="0.0"
     inkscape:pagecheckerboard="0"
     inkscape:deskcolor="#d1d1d1"
     inkscape:document-units="mm"
     inkscape:zoom="2.0334082"
     inkscape:cx="71.800636"
     inkscape:cy="108.43863"
     inkscape:window-width="1920"
     inkscape:window-height="1009"
     inkscape:window-x="-8"
     inkscape:window-y="-8"
     inkscape:window-maximized="1"
     inkscape:current-layer="layer1" />
  <defs
     id="defs1">
    <clipPath
       clipPathUnits="userSpaceOnUse"
       id="clipPath2044">
      <path
         d="M 0,5.236 H 343.057 V 841.89 H 0 Z"
         transform="translate(-82.445905,-348.20101)"
         id="path2044" />
    </clipPath>
    <clipPath
       clipPathUnits="userSpaceOnUse"
       id="clipPath2046">
      <path
         d="M 0,5.236 H 343.057 V 841.89 H 0 Z"
         transform="translate(-196.54101,-462.27801)"
         id="path2046" />
    </clipPath>
    <clipPath
       clipPathUnits="userSpaceOnUse"
       id="clipPath2048">
      <path
         d="M 0,5.236 H 343.057 V 841.89 H 0 Z"
         transform="translate(-135.70701,-422.22101)"
         id="path2048" />
    </clipPath>
    <clipPath
       clipPathUnits="userSpaceOnUse"
       id="clipPath2050">
      <path
         d="M 0,5.236 H 343.057 V 841.89 H 0 Z"
         transform="translate(-119.154,-402.45801)"
         id="path2050" />
    </clipPath>
    <clipPath
       clipPathUnits="userSpaceOnUse"
       id="clipPath2052">
      <path
         d="M 0,5.236 H 343.057 V 841.89 H 0 Z"
         transform="translate(-145.744,-422.22101)"
         id="path2052" />
    </clipPath>
    <clipPath
       clipPathUnits="userSpaceOnUse"
       id="clipPath2054">
      <path
         d="M 0,5.236 H 343.057 V 841.89 H 0 Z"
         transform="translate(-162.295,-402.45801)"
         id="path2054" />
    </clipPath>
    <clipPath
       clipPathUnits="userSpaceOnUse"
       id="clipPath2056">
      <path
         d="M 0,5.236 H 343.057 V 841.89 H 0 Z"
         transform="translate(-168.387,-408.90801)"
         id="path2056" />
    </clipPath>
    <clipPath
       clipPathUnits="userSpaceOnUse"
       id="clipPath2072">
      <path
         d="m 359.057,462.41 c -3.677,0 -6.656,-2.979 -6.656,-6.655 v 0 -102.908 c 0,-3.678 2.979,-6.656 6.656,-6.656 v 0 h 102.908 c 3.676,0 6.657,2.978 6.657,6.656 v 0 102.908 c 0,3.676 -2.981,6.655 -6.657,6.655 v 0 z"
         transform="translate(-359.60601,-345.55101)"
         id="path2072" />
    </clipPath>
  </defs>
  <g
     inkscape:label="Layer 1"
     inkscape:groupmode="layer"
     id="layer1"
     transform="translate(-82.499834,-125.99983)">
    <rect
       style="fill:#ffffff;stroke-width:1.70385"
       id="rect1"
       width="45"
       height="45"
       x="82.5"
       y="126" />
    <path
       id="path2043"
       d="m 0,0 v 100.596 c 0,4.313 3.498,7.811 7.813,7.811 h 100.594 c 4.316,0 7.814,-3.498 7.814,-7.811 V 0 c 0,-4.313 -3.498,-7.812 -7.814,-7.812 H 7.813 C 3.498,-7.812 0,-4.313 0,0"
       style="fill:#4467a5;fill-opacity:1;fill-rule:nonzero;stroke:none"
       transform="matrix(0.35277776,0,0,-0.35277776,84.500048,166.24367)"
       clip-path="url(#clipPath2044)" />
    <path
       id="path2045"
       d="m 0,0 h -111.969 c -4.305,0 -7.796,-3.489 -7.796,-7.796 v -111.969 c 0,-4.303 3.491,-7.795 7.796,-7.795 H 0 c 4.306,0 7.795,3.492 7.795,7.795 V -7.796 C 7.795,-3.489 4.306,0 0,0 m 0,-0.572 c 3.982,0 7.222,-3.241 7.222,-7.224 v -111.969 c 0,-3.982 -3.24,-7.22 -7.222,-7.22 h -111.969 c -3.982,0 -7.222,3.238 -7.222,7.22 V -7.796 c 0,3.983 3.24,7.224 7.222,7.224 L 0,-0.572"
       style="fill:#4467a5;fill-opacity:1;fill-rule:nonzero;stroke:none"
       transform="matrix(0.35277776,0,0,-0.35277776,124.75026,125.99983)"
       clip-path="url(#clipPath2046)" />
    <path
       id="path2047"
       d="M 0,0 0.772,23.434 H -7.941 L -12.613,0 Z"
       style="fill:#ffffff;fill-opacity:1;fill-rule:nonzero;stroke:none"
       transform="matrix(0.35277776,0,0,-0.35277776,103.28938,140.13106)"
       clip-path="url(#clipPath2048)" />
    <path
       id="path2049"
       d="M 0,0 -10.054,-50.434 H 14.237 L 15.9,0 Z"
       style="fill:#ffffff;fill-opacity:1;fill-rule:nonzero;stroke:none"
       transform="matrix(0.35277776,0,0,-0.35277776,97.449849,147.103)"
       clip-path="url(#clipPath2050)" />
    <path
       id="path2051"
       d="M 0,0 -0.772,23.434 H 7.941 L 12.612,0 Z"
       style="fill:#ffffff;fill-opacity:1;fill-rule:nonzero;stroke:none"
       transform="matrix(0.35277776,0,0,-0.35277776,106.83021,140.13106)"
       clip-path="url(#clipPath2052)" />
    <path
       id="path2053"
       d="m 0,0 10.054,-50.434 h -24.29 L -15.9,0 Z"
       style="fill:#ffffff;fill-opacity:1;fill-rule:nonzero;stroke:none"
       transform="matrix(0.35277776,0,0,-0.35277776,112.66903,147.103)"
       clip-path="url(#clipPath2054)" />
    <path
       id="path2055"
       d="m 0,0 c 3.345,0 3.859,-3.293 3.859,-3.293 l 2.059,-9.624 h 7.462 v 8.39 C 13.38,-0.051 16.622,0 16.622,0 h 8.389 V 7.411 H -80.336 V 0 h 8.39 c 0,0 3.241,-0.051 3.241,-4.527 v -8.39 h 7.463 l 2.058,9.624 c 0,0 0.515,3.293 3.86,3.293 z"
       style="fill:#ffffff;fill-opacity:1;fill-rule:nonzero;stroke:none"
       transform="matrix(0.35277776,0,0,-0.35277776,114.81816,144.82758)"
       clip-path="url(#clipPath2056)" />
    <path
       id="path2071"
       d="M 0,0 H -6.045 C -7.235,0 -8.2,0.965 -8.2,2.154 v 6.073 l 109.897,109.274 h 6.157 c 1.192,0 2.157,-0.965 2.157,-2.155 v -5.956 z"
       style="fill:#ce202f;fill-opacity:1;fill-rule:nonzero;stroke:none"
       transform="matrix(0.35277776,0,0,-0.35277776,87.041675,169.22551)"
       clip-path="url(#clipPath2072)" />
  </g>
</svg>
