<?xml version="1.0" encoding="UTF-8" standalone="no"?>
<!-- Created with Inkscape (http://www.inkscape.org/) -->

<svg
   width="415.19385"
   height="158.01056"
   viewBox="0 0 109.85338 41.806958"
   version="1.1"
   id="svg5"
   xml:space="preserve"
   inkscape:version="1.4 (86a8ad7, 2024-10-11)"
   sodipodi:docname="Expressway ahead.svg"
   xmlns:inkscape="http://www.inkscape.org/namespaces/inkscape"
   xmlns:sodipodi="http://sodipodi.sourceforge.net/DTD/sodipodi-0.dtd"
   xmlns="http://www.w3.org/2000/svg"
   xmlns:svg="http://www.w3.org/2000/svg"><sodipodi:namedview
     id="namedview7"
     pagecolor="#505050"
     bordercolor="#eeeeee"
     borderopacity="1"
     inkscape:showpageshadow="0"
     inkscape:pageopacity="0"
     inkscape:pagecheckerboard="0"
     inkscape:deskcolor="#505050"
     inkscape:document-units="mm"
     showgrid="false"
     showguides="true"
     inkscape:zoom="2.0000001"
     inkscape:cx="205.99999"
     inkscape:cy="77.249996"
     inkscape:window-width="1920"
     inkscape:window-height="1009"
     inkscape:window-x="-8"
     inkscape:window-y="-8"
     inkscape:window-maximized="1"
     inkscape:current-layer="layer1"><sodipodi:guide
       position="-5.5340442,-62.572443"
       orientation="0,-1"
       id="guide1252"
       inkscape:locked="false" /></sodipodi:namedview><defs
     id="defs2"><inkscape:path-effect
       effect="fillet_chamfer"
       id="path-effect10971"
       is_visible="true"
       lpeversion="1"
       nodesatellites_param="F,0,0,1,0,2.2904396,0,1 @ F,0,0,1,0,2.2904396,0,1 @ F,0,0,1,0,2.2904396,0,1 @ F,0,0,1,0,2.2904396,0,1 @ F,0,0,1,0,2.6253564,0,1"
       unit="px"
       method="auto"
       mode="F"
       radius="0"
       chamfer_steps="1"
       flexible="false"
       use_knot_distance="true"
       apply_no_radius="true"
       apply_with_radius="true"
       only_selected="false"
       hide_knots="false" /><inkscape:path-effect
       effect="fillet_chamfer"
       id="path-effect4076"
       is_visible="true"
       lpeversion="1"
       nodesatellites_param="F,0,0,1,0,2.6003413,0,1 @ F,0,0,1,0,2.6177529,0,1 @ F,0,0,1,0,2.6177529,0,1 @ F,0,0,1,0,2.7633989,0,1 @ F,0,0,1,0,2.6177529,0,1"
       unit="px"
       method="auto"
       mode="F"
       radius="0"
       chamfer_steps="1"
       flexible="false"
       use_knot_distance="true"
       apply_no_radius="true"
       apply_with_radius="true"
       only_selected="false"
       hide_knots="false" /><inkscape:path-effect
       effect="fillet_chamfer"
       id="path-effect4070"
       is_visible="true"
       lpeversion="1"
       nodesatellites_param="F,0,1,1,0,3.3072916,0,1 @ F,0,1,1,0,3.3072916,0,1 @ F,0,0,1,0,3.3072916,0,1 @ F,0,1,1,0,3.3072916,0,1 @ F,0,1,1,0,3.3072916,0,1"
       unit="px"
       method="auto"
       mode="F"
       radius="0"
       chamfer_steps="1"
       flexible="false"
       use_knot_distance="true"
       apply_no_radius="true"
       apply_with_radius="true"
       only_selected="false"
       hide_knots="false" /><inkscape:path-effect
       effect="fillet_chamfer"
       id="path-effect1818"
       is_visible="true"
       lpeversion="1"
       nodesatellites_param="F,0,1,1,0,2.6995468,0,1 @ F,0,0,1,0,2.6995468,0,1 @ F,0,1,1,0,2.6995468,0,1 @ F,0,1,1,0,2.6995468,0,1 @ F,0,1,1,0,2.6995468,0,1"
       unit="px"
       method="auto"
       mode="F"
       radius="0"
       chamfer_steps="1"
       flexible="false"
       use_knot_distance="true"
       apply_no_radius="true"
       apply_with_radius="true"
       only_selected="false"
       hide_knots="false" /><inkscape:path-effect
       effect="fillet_chamfer"
       id="path-effect1761"
       is_visible="true"
       lpeversion="1"
       nodesatellites_param="F,0,0,1,0,0,0,1 @ F,0,0,1,0,2.2161018,0,1 @ F,0,0,1,0,4.0044309,0,1 @ F,0,0,1,0,0,0,1 @ F,0,0,1,0,0,0,1"
       unit="px"
       method="auto"
       mode="F"
       radius="0"
       chamfer_steps="1"
       flexible="false"
       use_knot_distance="true"
       apply_no_radius="true"
       apply_with_radius="true"
       only_selected="false"
       hide_knots="false" /><inkscape:path-effect
       effect="fillet_chamfer"
       id="path-effect1250"
       is_visible="true"
       lpeversion="1"
       nodesatellites_param="F,0,0,1,0,3.86627,0,1 @ F,0,0,1,0,3.8662696,0,1 @ F,0,0,1,0,3.8662703,0,1 @ F,0,0,1,0,3.8662703,0,1"
       unit="px"
       method="auto"
       mode="F"
       radius="0"
       chamfer_steps="1"
       flexible="false"
       use_knot_distance="true"
       apply_no_radius="true"
       apply_with_radius="true"
       only_selected="false"
       hide_knots="false" /><inkscape:path-effect
       effect="fillet_chamfer"
       id="path-effect2969"
       is_visible="true"
       lpeversion="1"
       nodesatellites_param="F,0,0,1,0,5.0787595,0,1 @ F,0,0,1,0,5.078762,0,1 @ F,0,0,1,0,5.078762,0,1 @ F,0,0,1,0,5.078762,0,1"
       unit="px"
       method="auto"
       mode="F"
       radius="0"
       chamfer_steps="1"
       flexible="false"
       use_knot_distance="true"
       apply_no_radius="true"
       apply_with_radius="true"
       only_selected="false"
       hide_knots="false" /><inkscape:path-effect
       effect="fillet_chamfer"
       id="path-effect2963"
       is_visible="true"
       lpeversion="1"
       nodesatellites_param="F,0,0,1,0,5.0787595,0,1 @ F,0,0,1,0,5.078762,0,1 @ F,0,0,1,0,5.078762,0,1 @ F,0,0,1,0,5.078762,0,1"
       unit="px"
       method="auto"
       mode="F"
       radius="0"
       chamfer_steps="1"
       flexible="false"
       use_knot_distance="true"
       apply_no_radius="true"
       apply_with_radius="true"
       only_selected="false"
       hide_knots="false" /><inkscape:path-effect
       effect="fillet_chamfer"
       id="path-effect2888"
       is_visible="true"
       lpeversion="1"
       nodesatellites_param="F,0,0,1,0,5.0787595,0,1 @ F,0,0,1,0,5.078762,0,1 @ F,0,0,1,0,5.078762,0,1 @ F,0,0,1,0,5.078762,0,1"
       unit="px"
       method="auto"
       mode="F"
       radius="0"
       chamfer_steps="1"
       flexible="false"
       use_knot_distance="true"
       apply_no_radius="true"
       apply_with_radius="true"
       only_selected="false"
       hide_knots="false" /><inkscape:path-effect
       effect="fillet_chamfer"
       id="path-effect1250-3"
       is_visible="true"
       lpeversion="1"
       nodesatellites_param="F,0,0,1,0,3.86627,0,1 @ F,0,0,1,0,3.8662696,0,1 @ F,0,0,1,0,3.8662703,0,1 @ F,0,0,1,0,3.8662703,0,1"
       unit="px"
       method="auto"
       mode="F"
       radius="0"
       chamfer_steps="1"
       flexible="false"
       use_knot_distance="true"
       apply_no_radius="true"
       apply_with_radius="true"
       only_selected="false"
       hide_knots="false" /><inkscape:path-effect
       effect="fillet_chamfer"
       id="path-effect2969-8"
       is_visible="true"
       lpeversion="1"
       nodesatellites_param="F,0,0,1,0,5.0787595,0,1 @ F,0,0,1,0,5.078762,0,1 @ F,0,0,1,0,5.078762,0,1 @ F,0,0,1,0,5.078762,0,1"
       unit="px"
       method="auto"
       mode="F"
       radius="0"
       chamfer_steps="1"
       flexible="false"
       use_knot_distance="true"
       apply_no_radius="true"
       apply_with_radius="true"
       only_selected="false"
       hide_knots="false" /><inkscape:path-effect
       effect="fillet_chamfer"
       id="path-effect2963-9"
       is_visible="true"
       lpeversion="1"
       nodesatellites_param="F,0,0,1,0,5.0787595,0,1 @ F,0,0,1,0,5.078762,0,1 @ F,0,0,1,0,5.078762,0,1 @ F,0,0,1,0,5.078762,0,1"
       unit="px"
       method="auto"
       mode="F"
       radius="0"
       chamfer_steps="1"
       flexible="false"
       use_knot_distance="true"
       apply_no_radius="true"
       apply_with_radius="true"
       only_selected="false"
       hide_knots="false" /><inkscape:path-effect
       effect="fillet_chamfer"
       id="path-effect2888-3"
       is_visible="true"
       lpeversion="1"
       nodesatellites_param="F,0,0,1,0,5.0787595,0,1 @ F,0,0,1,0,5.078762,0,1 @ F,0,0,1,0,5.078762,0,1 @ F,0,0,1,0,5.078762,0,1"
       unit="px"
       method="auto"
       mode="F"
       radius="0"
       chamfer_steps="1"
       flexible="false"
       use_knot_distance="true"
       apply_no_radius="true"
       apply_with_radius="true"
       only_selected="false"
       hide_knots="false" /><inkscape:path-effect
       effect="fillet_chamfer"
       id="path-effect1250-6"
       is_visible="true"
       lpeversion="1"
       nodesatellites_param="F,0,0,1,0,3.86627,0,1 @ F,0,0,1,0,3.8662696,0,1 @ F,0,0,1,0,3.8662703,0,1 @ F,0,0,1,0,3.8662703,0,1"
       unit="px"
       method="auto"
       mode="F"
       radius="0"
       chamfer_steps="1"
       flexible="false"
       use_knot_distance="true"
       apply_no_radius="true"
       apply_with_radius="true"
       only_selected="false"
       hide_knots="false" /><inkscape:path-effect
       effect="fillet_chamfer"
       id="path-effect2969-4"
       is_visible="true"
       lpeversion="1"
       nodesatellites_param="F,0,0,1,0,5.0787595,0,1 @ F,0,0,1,0,5.078762,0,1 @ F,0,0,1,0,5.078762,0,1 @ F,0,0,1,0,5.078762,0,1"
       unit="px"
       method="auto"
       mode="F"
       radius="0"
       chamfer_steps="1"
       flexible="false"
       use_knot_distance="true"
       apply_no_radius="true"
       apply_with_radius="true"
       only_selected="false"
       hide_knots="false" /><inkscape:path-effect
       effect="fillet_chamfer"
       id="path-effect2963-6"
       is_visible="true"
       lpeversion="1"
       nodesatellites_param="F,0,0,1,0,5.0787595,0,1 @ F,0,0,1,0,5.078762,0,1 @ F,0,0,1,0,5.078762,0,1 @ F,0,0,1,0,5.078762,0,1"
       unit="px"
       method="auto"
       mode="F"
       radius="0"
       chamfer_steps="1"
       flexible="false"
       use_knot_distance="true"
       apply_no_radius="true"
       apply_with_radius="true"
       only_selected="false"
       hide_knots="false" /><inkscape:path-effect
       effect="fillet_chamfer"
       id="path-effect2888-9"
       is_visible="true"
       lpeversion="1"
       nodesatellites_param="F,0,0,1,0,5.0787595,0,1 @ F,0,0,1,0,5.078762,0,1 @ F,0,0,1,0,5.078762,0,1 @ F,0,0,1,0,5.078762,0,1"
       unit="px"
       method="auto"
       mode="F"
       radius="0"
       chamfer_steps="1"
       flexible="false"
       use_knot_distance="true"
       apply_no_radius="true"
       apply_with_radius="true"
       only_selected="false"
       hide_knots="false" /><inkscape:path-effect
       effect="fillet_chamfer"
       id="path-effect1250-9"
       is_visible="true"
       lpeversion="1"
       nodesatellites_param="F,0,0,1,0,3.86627,0,1 @ F,0,0,1,0,3.8662696,0,1 @ F,0,0,1,0,3.8662703,0,1 @ F,0,0,1,0,3.8662703,0,1"
       unit="px"
       method="auto"
       mode="F"
       radius="0"
       chamfer_steps="1"
       flexible="false"
       use_knot_distance="true"
       apply_no_radius="true"
       apply_with_radius="true"
       only_selected="false"
       hide_knots="false" /><inkscape:path-effect
       effect="fillet_chamfer"
       id="path-effect2969-2"
       is_visible="true"
       lpeversion="1"
       nodesatellites_param="F,0,0,1,0,5.0787595,0,1 @ F,0,0,1,0,5.078762,0,1 @ F,0,0,1,0,5.078762,0,1 @ F,0,0,1,0,5.078762,0,1"
       unit="px"
       method="auto"
       mode="F"
       radius="0"
       chamfer_steps="1"
       flexible="false"
       use_knot_distance="true"
       apply_no_radius="true"
       apply_with_radius="true"
       only_selected="false"
       hide_knots="false" /><inkscape:path-effect
       effect="fillet_chamfer"
       id="path-effect2963-1"
       is_visible="true"
       lpeversion="1"
       nodesatellites_param="F,0,0,1,0,5.0787595,0,1 @ F,0,0,1,0,5.078762,0,1 @ F,0,0,1,0,5.078762,0,1 @ F,0,0,1,0,5.078762,0,1"
       unit="px"
       method="auto"
       mode="F"
       radius="0"
       chamfer_steps="1"
       flexible="false"
       use_knot_distance="true"
       apply_no_radius="true"
       apply_with_radius="true"
       only_selected="false"
       hide_knots="false" /><inkscape:path-effect
       effect="fillet_chamfer"
       id="path-effect2888-98"
       is_visible="true"
       lpeversion="1"
       nodesatellites_param="F,0,0,1,0,5.0787595,0,1 @ F,0,0,1,0,5.078762,0,1 @ F,0,0,1,0,5.078762,0,1 @ F,0,0,1,0,5.078762,0,1"
       unit="px"
       method="auto"
       mode="F"
       radius="0"
       chamfer_steps="1"
       flexible="false"
       use_knot_distance="true"
       apply_no_radius="true"
       apply_with_radius="true"
       only_selected="false"
       hide_knots="false" /><inkscape:path-effect
       effect="fillet_chamfer"
       id="path-effect1250-3-1"
       is_visible="true"
       lpeversion="1"
       nodesatellites_param="F,0,0,1,0,3.86627,0,1 @ F,0,0,1,0,3.8662696,0,1 @ F,0,0,1,0,3.8662703,0,1 @ F,0,0,1,0,3.8662703,0,1"
       unit="px"
       method="auto"
       mode="F"
       radius="0"
       chamfer_steps="1"
       flexible="false"
       use_knot_distance="true"
       apply_no_radius="true"
       apply_with_radius="true"
       only_selected="false"
       hide_knots="false" /><inkscape:path-effect
       effect="fillet_chamfer"
       id="path-effect2969-8-0"
       is_visible="true"
       lpeversion="1"
       nodesatellites_param="F,0,0,1,0,5.0787595,0,1 @ F,0,0,1,0,5.078762,0,1 @ F,0,0,1,0,5.078762,0,1 @ F,0,0,1,0,5.078762,0,1"
       unit="px"
       method="auto"
       mode="F"
       radius="0"
       chamfer_steps="1"
       flexible="false"
       use_knot_distance="true"
       apply_no_radius="true"
       apply_with_radius="true"
       only_selected="false"
       hide_knots="false" /><inkscape:path-effect
       effect="fillet_chamfer"
       id="path-effect2963-9-5"
       is_visible="true"
       lpeversion="1"
       nodesatellites_param="F,0,0,1,0,5.0787595,0,1 @ F,0,0,1,0,5.078762,0,1 @ F,0,0,1,0,5.078762,0,1 @ F,0,0,1,0,5.078762,0,1"
       unit="px"
       method="auto"
       mode="F"
       radius="0"
       chamfer_steps="1"
       flexible="false"
       use_knot_distance="true"
       apply_no_radius="true"
       apply_with_radius="true"
       only_selected="false"
       hide_knots="false" /><inkscape:path-effect
       effect="fillet_chamfer"
       id="path-effect2888-3-8"
       is_visible="true"
       lpeversion="1"
       nodesatellites_param="F,0,0,1,0,5.0787595,0,1 @ F,0,0,1,0,5.078762,0,1 @ F,0,0,1,0,5.078762,0,1 @ F,0,0,1,0,5.078762,0,1"
       unit="px"
       method="auto"
       mode="F"
       radius="0"
       chamfer_steps="1"
       flexible="false"
       use_knot_distance="true"
       apply_no_radius="true"
       apply_with_radius="true"
       only_selected="false"
       hide_knots="false" /><clipPath
       id="clipPath2950"><path
         d="M 0.014999,443.67 H 446.25 V 0 H 0.014999 Z"
         id="path2952"
         inkscape:connector-curvature="0" /></clipPath><clipPath
       id="clipPath3828"><path
         d="M 0.014999,443.67 H 446.25 V 0 H 0.014999 Z"
         id="path3830"
         inkscape:connector-curvature="0" /></clipPath><clipPath
       clipPathUnits="userSpaceOnUse"
       id="clipPath2044"><path
         d="M 0,5.236 H 343.057 V 841.89 H 0 Z"
         transform="translate(-82.445905,-348.20101)"
         id="path2044" /></clipPath><clipPath
       clipPathUnits="userSpaceOnUse"
       id="clipPath2048"><path
         d="M 0,5.236 H 343.057 V 841.89 H 0 Z"
         transform="translate(-135.70701,-422.22101)"
         id="path2048" /></clipPath><clipPath
       clipPathUnits="userSpaceOnUse"
       id="clipPath2050"><path
         d="M 0,5.236 H 343.057 V 841.89 H 0 Z"
         transform="translate(-119.154,-402.45801)"
         id="path2050" /></clipPath><clipPath
       clipPathUnits="userSpaceOnUse"
       id="clipPath2052"><path
         d="M 0,5.236 H 343.057 V 841.89 H 0 Z"
         transform="translate(-145.744,-422.22101)"
         id="path2052" /></clipPath><clipPath
       clipPathUnits="userSpaceOnUse"
       id="clipPath2054"><path
         d="M 0,5.236 H 343.057 V 841.89 H 0 Z"
         transform="translate(-162.295,-402.45801)"
         id="path2054" /></clipPath><clipPath
       clipPathUnits="userSpaceOnUse"
       id="clipPath2056"><path
         d="M 0,5.236 H 343.057 V 841.89 H 0 Z"
         transform="translate(-168.387,-408.90801)"
         id="path2056" /></clipPath></defs><g
     inkscape:label="Sign"
     inkscape:groupmode="layer"
     id="layer1"
     transform="translate(-5.3469555,12.172228)"><path
       id="rect4062"
       style="fill:#ffffff;stroke:#008c4e;stroke-width:0.264583;stroke-dasharray:none;stroke-opacity:1"
       d="m 21.849919,-12.039937 89.910831,0 a 3.3072916,3.3072916 45 0 1 3.30729,3.3072916 V 26.195148 a 3.3072916,3.3072916 135 0 1 -3.30729,3.307292 H 21.849919 A 6.2371114,6.2371114 27.935225 0 1 16.687018,26.76476 L 6.3194557,11.468933 a 4.8794268,4.8794268 89.999999 0 1 -10e-8,-5.475361 L 16.687018,-9.3022566 a 6.2371111,6.2371111 152.06477 0 1 5.162901,-2.7376804 z"
       sodipodi:nodetypes="cccccc"
       inkscape:label="Sheet"
       inkscape:original-d="M 18.542627,-12.039937 H 115.06804 V 29.50244 H 18.542627 L 4.4638469,8.7312524 Z"
       inkscape:path-effect="#path-effect4070" /><path
       id="path10967"
       style="fill:#008c4e;fill-opacity:1;stroke:#008c4e;stroke-width:0.252838;stroke-dasharray:none;stroke-opacity:1"
       d="m 21.978901,-10.642801 89.512139,-0.267918 a 2.2835944,2.2835944 44.914255 0 1 2.29043,2.2835846 V 25.768942 c 0,1.264975 -1.02546,2.290429 -2.29044,2.290998 -24.426401,0.01098 -56.261127,0.180693 -89.505118,0.274719 -1.264929,0.0036 -2.871711,-0.838403 -3.588846,-1.880458 L 7.6916024,10.898305 A 3.7930061,3.7930061 90.153835 0 1 7.7031943,6.5809212 L 18.379871,-8.7561385 a 4.4012671,4.4012671 152.33583 0 1 3.59903,-1.8866625 z"
       sodipodi:nodetypes="cccccc"
       inkscape:label="Green"
       inkscape:original-d="m 19.688472,-10.635946 94.092998,-0.281628 V 28.059382 C 88.523136,28.06015 54.816355,28.24565 19.695554,28.341008 L 6.2032443,8.7356013 Z"
       inkscape:path-effect="#path-effect10971" /><path
       style="fill:#ffffff;fill-opacity:1;stroke:none;stroke-width:0.183842"
       d="m 22.009182,-6.1240916 h 7.75633 L 19.231721,8.7312539 29.765512,23.586594 h -7.75633 L 11.754267,8.7312539 Z"
       id="path6083"
       sodipodi:nodetypes="ccccccc"
       inkscape:label="Arrow" /><g
       id="g1"
       transform="translate(-25.796874,-1.7074109)"><path
         d="m 63.736569,3.4843432 h -2.337191 v 0.728475 q 0,0.1517656 -0.09106,0.2276484 -0.08347,0.075883 -0.258002,0.075883 -0.273178,0 -1.032006,-0.728475 -0.758828,-0.728475 -0.758828,-1.0016531 0,-0.2048836 0.08347,-0.3035313 0.08347,-0.1062359 0.250413,-0.1062359 h 0.561533 V 0.31244158 h -1.18377 v -1.10788907 h 7.603458 V 0.31244158 H 64.950694 V 6.7928338 h -1.214125 z m 0,-1.1078891 V 0.31244158 H 61.399378 V 2.3764541 Z"
         style="font-weight:bold;font-size:15.5408px;line-height:1.05;font-family:Utsaah;-inkscape-font-specification:'Utsaah Bold';text-align:end;text-anchor:end;fill:#ffffff;stroke-width:0.333017"
         id="path2782" /><path
         d="m 60.337019,8.9630822 0.682945,-0.6981218 q 1.593539,1.593539 3.171902,1.593539 0.478061,0 0.796769,-0.242825 0.31112,-0.2352367 0.31112,-0.5767094 0,-0.2807664 -0.227649,-0.4932382 -0.227648,-0.2048836 -0.576709,-0.2048836 -0.478062,0 -0.849888,0.4097672 L 62.962564,7.9917822 q 0.70571,-0.6829453 1.50248,-0.6829453 0.865064,0 1.36589,0.4477086 0.500827,0.4477086 0.500827,1.2065367 0,0.8195344 -0.607062,1.3734788 -0.607063,0.553945 -1.532833,0.553945 -2.284073,0 -3.854847,-1.9274238 z m 4.181143,0.4552969 z"
         style="font-weight:bold;font-size:15.5408px;line-height:1.05;font-family:Utsaah;-inkscape-font-specification:'Utsaah Bold';text-align:end;text-anchor:end;fill:#ffffff;stroke-width:0.333017"
         id="path2784" /><path
         d="m 64.48022,-2.2523975 q -0.273178,0 -0.462885,-0.189707 -0.189707,-0.1972953 -0.189707,-0.4780617 0,-0.2731782 0.189707,-0.4628852 0.189707,-0.189707 0.462885,-0.189707 0.280767,0 0.478062,0.189707 0.189707,0.189707 0.189707,0.4628852 0,0.2731781 -0.197295,0.4704734 -0.197295,0.1972953 -0.470474,0.1972953 z"
         style="font-weight:bold;font-size:15.5408px;line-height:1.05;font-family:Utsaah;-inkscape-font-specification:'Utsaah Bold';text-align:end;text-anchor:end;fill:#ffffff;stroke-width:0.333017"
         id="path2786" /><path
         d="m 68.729658,5.39659 q -1.009242,0 -1.646657,-0.6298273 -0.629828,-0.6298273 -0.629828,-1.6011274 0,-0.9713 0.667769,-1.6087156 0.667769,-0.63741562 1.730128,-0.63741562 0.690534,0 1.183772,0.34906092 l -0.409767,0.9561235 q -0.341473,-0.2883547 -0.789181,-0.2883547 -0.326296,0 -0.57671,0.1214125 l 1.927424,1.6694219 q 0.06071,-0.068295 0.151766,-0.1972954 V 0.31244158 h -4.340497 v -1.10788907 h 7.178514 V 0.31244158 H 71.552499 V 6.7928338 H 70.338374 V 4.7591744 Q 69.731311,5.39659 68.729658,5.39659 Z m 0.789181,-1.1837718 -1.790834,-1.563186 q -0.09106,0.2352367 -0.09106,0.5008266 0,0.5160031 0.341473,0.8574758 0.341473,0.3414726 0.887829,0.3414726 0.341473,0 0.652592,-0.136589 z"
         style="font-weight:bold;font-size:15.5408px;line-height:1.05;font-family:Utsaah;-inkscape-font-specification:'Utsaah Bold';text-align:end;text-anchor:end;fill:#ffffff;stroke-width:0.333017"
         id="path2788" /><path
         d="m 75.043108,6.9901291 q -0.781593,0 -1.350714,-0.3566492 -0.561533,-0.3642375 -0.561533,-0.8726524 0,-0.3566492 0.258002,-0.5918859 0.258001,-0.242825 0.622239,-0.242825 0.508415,0 1.441773,0.8954172 0.682945,0 1.138242,-0.3870023 0.455297,-0.3945907 0.455297,-0.9181821 0,-0.4552969 -0.333884,-0.4552969 -0.250413,0 -0.758828,0.1214125 -0.508415,0.1214125 -0.774005,0.1214125 -0.470473,0 -1.198948,-0.7436515 -0.728475,-0.7436516 -0.728475,-1.2748313 0,-0.5767094 0.326296,-0.8650641 0.326296,-0.2883546 0.978888,-0.2883546 h 1.730128 V 0.31244158 h -3.687905 v -1.10788907 h 6.647335 V 0.31244158 H 77.501711 V 2.103276 h -2.595192 q -0.379414,0 -0.379414,0.2731781 0,0.1972953 0.318708,0.5160031 0.318707,0.3187078 0.516003,0.3187078 0.22006,0 0.713298,-0.1517656 0.447709,-0.1365891 0.713299,-0.1365891 0.637415,0 1.032006,0.4477086 0.39459,0.4477086 0.39459,1.0851243 0,0.7891812 -0.523591,1.4265968 -0.523591,0.6374157 -1.343126,0.8043579 0.553945,0.5387679 1.593539,1.0775359 L 77.319592,8.7506104 Q 75.885407,7.9234877 75.043108,6.9901291 Z m 3.505786,-10.6994766 -0.212472,0.9257703 q -0.424944,-0.242825 -0.804358,-0.242825 -0.371826,0 -0.614651,0.242825 -0.235236,0.242825 -0.235236,0.6070625 0,0.7360633 0.758828,1.38106721 H 76.333116 Q 75.65017,-1.3797452 75.65017,-2.2372209 q 0,-0.7436516 0.538768,-1.2444782 0.538768,-0.5008265 1.32795,-0.5008265 0.637415,0 1.032006,0.2731781 z"
         style="font-weight:bold;font-size:15.5408px;line-height:1.05;font-family:Utsaah;-inkscape-font-specification:'Utsaah Bold';text-align:end;text-anchor:end;fill:#ffffff;stroke-width:0.333017"
         id="path2790" /></g><path
       d="m 33.102579,11.23591 h 0.117077 0.09366 0.117077 0.09366 0.117077 0.304401 0.09366 0.398063 0.187323 0.163908 l 0.07025,0.140493 0.04683,0.02341 0.02342,0.07025 0.04683,0.02341 0.02341,0.07025 q 0.128785,0.111224 0.187323,0.234155 l 0.09366,0.140492 q 0.117077,0.09952 0.163908,0.210739 l 0.09366,0.117077 0.234154,0.280985 0.04683,0.09366 0.234154,0.280985 0.07025,0.09366 0.02341,0.04683 q 0.08195,0.09951 0.117077,0.187323 0.134639,0.122931 0.210739,0.234154 l 0.02341,0.07025 0.07025,0.07025 0.04683,0.04683 0.09366,0.140492 0.04683,0.04683 0.02342,0.07025 0.07025,0.07025 0.09366,0.140492 0.09366,0.140493 0.280985,0.327816 q 0.111224,-0.140492 0.187324,-0.210739 0.05854,-0.128785 0.117077,-0.210739 0.08195,-0.0761 0.117077,-0.140492 l 0.02342,-0.04683 0.04683,-0.02342 0.02341,-0.04683 0.187323,-0.25757 0.09366,-0.117077 0.07025,-0.117077 0.07025,-0.09366 0.07025,-0.09366 0.09366,-0.117077 0.04683,-0.04683 0.210738,-0.280985 0.04683,-0.07025 0.07025,-0.07025 0.07025,-0.117077 0.09366,-0.117077 0.04683,-0.07025 0.04683,-0.07025 0.04683,-0.04683 0.02342,-0.04683 0.117077,-0.117077 q 0.05268,-0.128785 0.140492,-0.187324 l 0.02342,-0.07025 0.04683,-0.04683 0.02341,-0.04683 0.04683,-0.07025 0.07025,-0.04683 0.02342,-0.07025 0.234154,-0.304401 h 0.398062 0.09366 0.117077 0.304401 0.09366 0.398063 0.07025 0.280985 v 8.944694 h -0.09366 -0.421477 -0.09366 -0.09366 -0.09366 -0.398062 -0.07025 -0.280985 v -0.187323 -0.117077 -0.09366 -0.421478 -0.09366 -0.09366 -0.09366 -0.398062 -0.07025 -0.280986 -0.257569 -0.09366 -0.09366 -0.09366 -0.09366 -0.398063 -0.07025 -0.280985 -0.468309 -0.163908 -0.3044 -0.09366 -0.398062 -0.07025 -0.280986 -0.398062 -0.09366 -0.117077 -0.3044 -0.09366 -0.398062 -0.07025 -0.280985 l -0.04683,0.04683 -0.02342,0.04683 -0.117077,0.117077 q -0.05268,0.128785 -0.140492,0.187323 -0.04098,0.08195 -0.09366,0.140493 l -0.04683,0.07025 -0.04683,0.07025 -0.02341,0.04683 -0.04683,0.04683 -0.02341,0.04683 -0.07025,0.04683 -0.02341,0.04683 q -0.09366,0.163908 -0.187324,0.25757 l -0.07025,0.117077 -0.09366,0.09366 -0.09366,0.117077 -0.07025,0.09366 -0.07025,0.09366 -0.02341,0.07025 -0.07025,0.07025 q -0.02341,0.04098 -0.04683,0.04683 l -0.02342,0.07025 -0.117077,0.117077 q -0.140493,0.25757 -0.304401,0.398062 -0.105369,0.204885 -0.234154,0.327816 -0.08195,0.134639 -0.163908,0.210739 l -0.09366,0.140493 q -0.02341,0.04098 -0.04683,0.04683 l -0.02342,0.04683 q -0.163908,0.263424 -0.327816,0.398063 l -0.09366,-0.163908 Q 37.100772,16.797073 37.0598,16.73853 l -0.09366,-0.163908 -0.07025,-0.07025 -0.09366,-0.140493 q -0.03512,-0.02927 -0.04683,-0.07025 -0.04098,-0.02341 -0.04683,-0.04683 l -0.04683,-0.04683 -0.234154,-0.3044 -0.09366,-0.140493 q -0.04683,-0.06439 -0.07025,-0.117077 l -0.09366,-0.117077 -0.09366,-0.09366 -0.07025,-0.117077 -0.07025,-0.09366 -0.07025,-0.07025 -0.04683,-0.09366 -0.07025,-0.07025 -0.09366,-0.117077 -0.04683,-0.09366 q -0.04098,-0.02341 -0.04683,-0.04683 l -0.04683,-0.04683 q -0.128784,-0.199031 -0.234154,-0.3044 l -0.02341,-0.04683 q -0.08195,-0.09952 -0.117077,-0.187324 l -0.07025,-0.04683 -0.02341,-0.07025 q -0.09366,-0.08781 -0.140493,-0.163908 l -0.04683,-0.04683 q -0.163908,-0.251715 -0.3044,-0.398062 v 6.767059 h -0.02342 0.02342 -0.04683 0.02341 -0.04683 0.02341 -0.04683 0.02342 -0.04683 0.02342 -0.04683 0.02342 -0.04683 0.02341 -0.04683 0.02342 -0.04683 0.02341 -0.04683 0.02341 -0.04683 0.02342 -0.04683 0.02341 -0.04683 0.02342 -0.04683 0.02341 -0.04683 0.02342 -0.04683 0.02341 -0.04683 0.02341 -0.04683 0.02342 -0.04683 0.02341 -0.04683 0.02342 -0.04683 0.02341 -0.04683 0.02342 -0.04683 0.02341 -0.04683 0.02342 -0.04683 0.02341 -0.04683 0.02341 -0.04683 0.02342 -0.04683 0.02341 -0.04683 0.02342 -0.04683 0.02341 -0.04683 0.02342 -0.04683 0.02341 -0.04683 0.02341 -0.04683 0.02342 -0.04683 0.02341 -0.04683 0.02342 -0.04683 0.02341 -0.04683 0.02342 -0.04683 0.02341 -0.04683 0.02341 -0.04683 0.02342 -0.04683 0.02341 -0.04683 0.02342 -0.04683 0.02341 -0.04683 0.02342 -0.04683 0.02341 -0.04683 0.02341 -0.04683 0.02342 -0.04683 0.02341 -0.04683 0.02342 -0.04683 0.02341 -0.04683 0.02342 -0.04683 0.02341 -0.04683 0.02341 -0.04683 0.02342 -0.04683 0.02341 -0.04683 0.02342 -0.04683 0.02341 -0.04683 0.02342 -0.04683 0.02341 -0.04683 0.02341 -0.04683 0.02342 -0.04683 0.02341 -0.04683 0.02342 -0.04683 0.02341 -0.04683 0.02342 -0.02342 v -0.07025 -0.09366 -0.07025 -0.09366 -0.421477 -0.187324 -0.187323 -0.07025 -0.468308 -0.09366 -0.117077 -0.09366 -0.117077 -0.304401 -0.09366 -0.398063 -0.07025 -0.280985 -0.09366 -0.117077 -0.3044 -0.09366 -0.398062 -0.07025 -0.280985 -0.163908 -0.187323 -0.187324 -0.187323 -0.07025 -0.07025 V 13.998908 13.835 13.694507 13.530599 13.390107 13.27303 13.132537 13.038877 12.6174 12.35983 12.26617 12.17251 12.07885 11.98519 11.587128 11.516878 11.235893 Z"
       style="font-size:11.9887px;line-height:1.05;font-family:Transport;-inkscape-font-specification:Transport;text-align:end;text-anchor:end;fill:#ffffff;stroke-width:0.333017"
       id="path2792" /><path
       d="m 44.359547,13.788192 h 0.25757 0.117077 0.07025 0.09366 0.07025 0.468309 v 4.050869 q 0.02341,0.03512 0.02341,0.07025 0.02927,0.02341 0.02342,0.04683 0.04683,0.275131 0.117077,0.468308 0.415624,0.573678 1.053694,0.56197 0.784417,-0.210738 1.100525,-0.86637 V 18.0498 l 0.09366,-0.280985 v -0.07025 -0.07025 -0.725878 -0.398062 -0.07025 -0.280986 -0.09366 -0.07025 -0.468308 -0.09366 -0.07025 -0.421478 -0.3044 -0.09366 -0.398063 -0.07025 -0.280985 h 0.09366 0.3044 0.09366 0.09366 0.09366 0.398062 0.07025 0.280985 v 6.392412 h -0.09366 -0.304401 -0.09366 -0.09366 -0.09366 -0.398063 -0.07025 -0.280985 v -0.09366 -0.421478 q -1.475172,1.223456 -2.997175,0.280985 -0.550263,-0.421478 -0.749294,-0.983448 l -0.02341,-0.163908 q -0.07025,-0.2283 -0.04683,-0.444893 v -0.187324 -0.210738 -0.187324 -0.07025 -0.07025 -0.725878 -0.398062 -0.07025 -0.280986 -0.09366 -0.07025 -0.468308 -0.09366 -0.07025 -0.421478 -0.3044 -0.09366 -0.398063 -0.07025 -0.280985 z"
       style="font-size:11.9887px;line-height:1.05;font-family:Transport;-inkscape-font-specification:Transport;text-align:end;text-anchor:end;fill:#ffffff;stroke-width:0.333017"
       id="path2794" /><path
       d="m 54.035974,13.671115 q 1.15321,-0.01171 1.756157,0.796125 1.205895,-1.159064 2.645944,-0.608802 0.684901,0.286839 1.053694,0.842956 l 0.02341,0.04683 0.04683,0.140492 0.02342,0.04683 0.140492,0.444893 q 0.02342,0.275132 0.02342,0.468309 v 4.308439 h -0.327816 -0.25757 -0.117077 -0.07025 -0.09366 -0.07025 -0.468308 v -0.187324 -0.163908 -0.09366 -0.398063 -0.07025 -0.280985 -0.07025 -0.304401 -0.3044 -0.117078 -0.3044 -0.09366 -0.140493 -0.09366 V 17.3005 17.20684 16.94927 16.85561 16.78536 16.71511 16.64486 16.5512 16.48095 16.4107 16.176546 l -0.02342,-0.210739 -0.02341,-0.187323 q -0.0761,-0.128785 -0.09366,-0.25757 -0.544409,-0.883933 -1.451756,-0.351232 -0.345378,0.251716 -0.491724,0.585386 l -0.04683,0.280985 v 4.121116 h -0.09366 -0.304401 -0.09366 -0.09366 -0.09366 -0.398062 -0.07025 -0.280985 v -0.09366 -0.117077 -0.09366 -0.117077 -0.3044 -0.09366 -0.398062 -0.07025 -0.280985 -0.140492 -0.117078 -0.140492 -0.117077 -0.07025 -0.07025 -0.468309 -0.09366 -0.234155 -0.09366 -0.25757 -0.09366 -0.07025 -0.07025 -0.07025 -0.09366 -0.07025 -0.07025 -0.234154 l -0.02342,-0.210739 -0.04683,-0.09366 v -0.07025 q -0.117077,-0.18147 -0.163908,-0.327816 -0.321962,-0.310254 -0.725878,-0.327816 -0.766855,0.105369 -1.100525,0.725878 l -0.04683,0.163908 -0.02342,0.25757 q 0.04098,0.128785 0.02342,0.234154 v 3.7933 h -0.09366 -0.09366 -0.117077 -0.3044 -0.09366 -0.398062 -0.07025 -0.280985 v -0.07025 -0.117078 -0.07025 -0.09366 -0.07025 -0.468308 -0.163908 -0.09366 -0.117077 -0.09366 -0.117077 -0.304401 -0.09366 -0.398063 -0.07025 -0.280985 -0.163908 -0.163908 -0.140493 -0.163908 -0.140492 -0.163908 -0.140493 -0.398062 -0.140493 -0.117077 -0.140493 -0.09366 -0.421478 -0.25757 -0.09366 -0.09366 -0.09366 -0.09366 -0.398062 -0.07025 -0.280985 h 0.09366 0.09366 0.117077 0.3044 0.09366 0.398062 0.07025 0.280985 v 0.468308 q 0.649778,-0.48587 1.358095,-0.56197 z"
       style="font-size:11.9887px;line-height:1.05;font-family:Transport;-inkscape-font-specification:Transport;text-align:end;text-anchor:end;fill:#ffffff;stroke-width:0.333017"
       id="path2796" /><path
       d="m 62.114297,11.259326 h 0.25757 0.117077 0.07025 0.09366 0.07025 0.468308 v 2.997175 q 1.527857,-1.246872 3.184499,-0.09366 0.263423,0.146346 0.421477,0.327816 1.381511,1.89665 0.608801,3.980623 -0.520993,1.241018 -1.662495,1.662495 -1.481026,0.503432 -2.552282,-0.421477 v 0.468308 h -0.327816 -0.25757 -0.117077 -0.07025 -0.09366 -0.07025 -0.468309 v -0.187323 -0.468309 -0.187323 -0.07025 -0.09366 -0.421478 -0.07025 -0.468309 -0.187323 -0.09366 -0.421478 -0.07025 -0.07025 -0.725879 -0.163908 -0.07025 -0.09366 -0.421477 -0.327816 -0.07025 -0.117077 -0.07025 -0.09366 -0.07025 -0.468309 -0.398062 -0.07025 -0.280985 -0.304401 -0.09366 -0.398062 -0.07025 -0.280985 -0.25757 -0.117077 -0.304401 -0.09366 -0.398062 -0.07025 -0.280985 z m 2.294712,3.769884 q -0.761001,0.193177 -1.100525,0.796124 -0.01756,0.128785 -0.07025,0.25757 v 1.756157 q 0.415624,1.112233 1.522003,1.006864 1.293702,-0.275131 1.428341,-1.685911 0.04098,-2.060558 -1.779573,-2.130804 z"
       style="font-size:11.9887px;line-height:1.05;font-family:Transport;-inkscape-font-specification:Transport;text-align:end;text-anchor:end;fill:#ffffff;stroke-width:0.333017"
       id="path2798" /><path
       d="m 71.21119,13.647699 q 1.416634,-0.163908 2.271297,0.702463 l 0.07025,0.140493 q 0.275131,0.345378 0.351231,0.702463 0.04683,0.310254 0.04683,0.515139 v 3.090837 q 0.216593,0.427332 0.632217,0.515139 l -0.04683,0.07025 q -0.02341,0.04098 -0.04683,0.04683 l -0.02341,0.07025 -0.04683,0.04683 q -0.05854,0.128785 -0.140493,0.210739 -0.08195,0.210738 -0.210739,0.327816 -0.105369,0.2283 -0.187323,0.351231 -0.679047,-0.175616 -1.07711,-0.632217 H 72.7332 q -1.15321,0.831248 -2.411789,0.398063 -1.25858,-0.444893 -1.522003,-1.63908 -0.01756,-2.30642 2.669359,-2.294712 0.06439,-0.02342 0.117077,-0.02342 l 0.07025,-0.02341 h 0.07025 0.09366 l 0.07025,-0.02342 h 0.07025 l 0.585386,-0.07025 q 0.210738,-1.97275 -2.997175,-0.725878 l -0.09366,-0.210739 -0.02342,-0.07025 -0.02341,-0.07025 -0.04683,-0.04683 -0.02341,-0.04683 -0.04683,-0.140493 q -0.07025,-0.111223 -0.09366,-0.210739 -0.122931,-0.163908 -0.163908,-0.327816 l 0.07025,-0.02341 0.04683,-0.02342 0.07025,-0.02342 0.04683,-0.04683 h 0.07025 q 0.02341,-0.02927 0.04683,-0.02342 0.216592,-0.111223 0.374646,-0.163908 l 0.117078,-0.02341 q 0.134638,-0.05854 0.234154,-0.07025 l 0.09366,-0.02342 0.09366,-0.02341 q 0.210739,-0.08781 0.398063,-0.09366 z m 0.842955,3.652807 q -0.03512,0.02342 -0.07025,0.02342 h -0.07025 -0.07025 q -0.134639,0.02927 -0.234155,0.02341 l -0.09366,0.02342 h -0.07025 q -0.03512,0.02341 -0.07025,0.02341 h -0.07025 l -0.187324,0.04683 -0.187323,0.04683 h -0.07025 q -0.158055,0.08781 -0.280986,0.117077 -0.731732,0.684901 -0.07025,1.311264 1.018571,0.626363 1.920065,-0.163908 0.04098,-0.122931 0.09366,-0.187323 l 0.02342,-0.07025 -0.02342,-0.09366 v -0.25757 -0.09366 -0.398062 -0.07025 -0.280986 z"
       style="font-size:11.9887px;line-height:1.05;font-family:Transport;-inkscape-font-specification:Transport;text-align:end;text-anchor:end;fill:#ffffff;stroke-width:0.333017"
       id="path2800" /><path
       d="m 76.860165,11.282741 q 0.790271,-0.02927 1.030279,0.655632 0.02341,0.538555 -0.304401,0.866371 -0.913201,0.444893 -1.334679,-0.351231 -0.240008,-0.895641 0.608801,-1.170772 z m -0.444893,2.528866 h 0.3044 0.09366 0.09366 0.09366 0.398062 0.187323 0.163908 v 6.392413 h -0.09366 -0.304401 -0.09366 -0.09366 -0.09366 -0.398062 -0.07025 -0.280985 v -0.07025 -0.117077 -0.07025 -0.09366 -0.07025 -0.468309 -0.163908 -0.09366 -0.117077 -0.09366 -0.117077 -0.304401 -0.09366 -0.398062 -0.07025 -0.280985 -0.163908 -0.163908 -0.140493 -0.163908 -0.140493 -0.163908 -0.140492 -0.398062 -0.140493 -0.117077 -0.140493 -0.09366 -0.421478 -0.25757 -0.09366 -0.09366 -0.09366 -0.09366 -0.398062 -0.07025 -0.280986 z"
       style="font-size:11.9887px;line-height:1.05;font-family:Transport;-inkscape-font-specification:Transport;text-align:end;text-anchor:end;fill:#ffffff;stroke-width:0.333017"
       id="path2802" /><g
       id="g2"
       transform="matrix(0.66292823,0,0,0.66292823,25.661782,-89.713478)"><path
         id="path2043"
         d="m 0,0 v 100.596 c 0,4.313 3.498,7.811 7.813,7.811 h 100.594 c 4.316,0 7.814,-3.498 7.814,-7.811 V 0 c 0,-4.313 -3.498,-7.812 -7.814,-7.812 H 7.813 C 3.498,-7.812 0,-4.313 0,0"
         style="fill:#4467a5;fill-opacity:1;fill-rule:nonzero;stroke:none"
         transform="matrix(0.35277776,0,0,-0.35277776,84.500048,166.24367)"
         clip-path="url(#clipPath2044)" /><path
         id="path2047"
         d="M 0,0 0.772,23.434 H -7.941 L -12.613,0 Z"
         style="fill:#ffffff;fill-opacity:1;fill-rule:nonzero;stroke:none"
         transform="matrix(0.35277776,0,0,-0.35277776,103.28938,140.13106)"
         clip-path="url(#clipPath2048)" /><path
         id="path2049"
         d="M 0,0 -10.054,-50.434 H 14.237 L 15.9,0 Z"
         style="fill:#ffffff;fill-opacity:1;fill-rule:nonzero;stroke:none"
         transform="matrix(0.35277776,0,0,-0.35277776,97.449849,147.103)"
         clip-path="url(#clipPath2050)" /><path
         id="path2051"
         d="M 0,0 -0.772,23.434 H 7.941 L 12.612,0 Z"
         style="fill:#ffffff;fill-opacity:1;fill-rule:nonzero;stroke:none"
         transform="matrix(0.35277776,0,0,-0.35277776,106.83021,140.13106)"
         clip-path="url(#clipPath2052)" /><path
         id="path2053"
         d="m 0,0 10.054,-50.434 h -24.29 L -15.9,0 Z"
         style="fill:#ffffff;fill-opacity:1;fill-rule:nonzero;stroke:none"
         transform="matrix(0.35277776,0,0,-0.35277776,112.66903,147.103)"
         clip-path="url(#clipPath2054)" /><path
         id="path2055"
         d="m 0,0 c 3.345,0 3.859,-3.293 3.859,-3.293 l 2.059,-9.624 h 7.462 v 8.39 C 13.38,-0.051 16.622,0 16.622,0 h 8.389 V 7.411 H -80.336 V 0 h 8.39 c 0,0 3.241,-0.051 3.241,-4.527 v -8.39 h 7.463 l 2.058,9.624 c 0,0 0.515,3.293 3.86,3.293 z"
         style="fill:#ffffff;fill-opacity:1;fill-rule:nonzero;stroke:none"
         transform="matrix(0.35277776,0,0,-0.35277776,114.81816,144.82758)"
         clip-path="url(#clipPath2056)" /></g></g></svg>
