<?xml version="1.0" encoding="UTF-8" standalone="no"?>
<!-- Created with Inkscape (http://www.inkscape.org/) -->

<svg
   width="38.130692mm"
   height="50.840569mm"
   viewBox="0 0 38.130691 50.840569"
   version="1.1"
   id="svg1"
   inkscape:version="1.4 (86a8ad7, 2024-10-11)"
   sodipodi:docname="fire extinguisher.svg"
   xmlns:inkscape="http://www.inkscape.org/namespaces/inkscape"
   xmlns:sodipodi="http://sodipodi.sourceforge.net/DTD/sodipodi-0.dtd"
   xmlns="http://www.w3.org/2000/svg"
   xmlns:svg="http://www.w3.org/2000/svg">
  <sodipodi:namedview
     id="namedview1"
     pagecolor="#ffffff"
     bordercolor="#000000"
     borderopacity="0.25"
     inkscape:showpageshadow="2"
     inkscape:pageopacity="0.0"
     inkscape:pagecheckerboard="0"
     inkscape:deskcolor="#d1d1d1"
     inkscape:document-units="mm"
     inkscape:zoom="2.0334082"
     inkscape:cx="34.670855"
     inkscape:cy="122.20862"
     inkscape:window-width="1920"
     inkscape:window-height="1009"
     inkscape:window-x="-8"
     inkscape:window-y="-8"
     inkscape:window-maximized="1"
     inkscape:current-layer="g4075" />
  <defs
     id="defs1">
    <inkscape:path-effect
       effect="fillet_chamfer"
       id="path-effect1"
       is_visible="true"
       lpeversion="1"
       nodesatellites_param="F,0,0,1,0,0,0,1 @ F,0,0,1,0,0,0,1 @ F,0,0,1,0,0,0,1 @ F,0,0,1,0,0,0,1"
       radius="0"
       unit="px"
       method="auto"
       mode="F"
       chamfer_steps="1"
       flexible="false"
       use_knot_distance="true"
       apply_no_radius="true"
       apply_with_radius="true"
       only_selected="false"
       hide_knots="false" />
    <clipPath
       clipPathUnits="userSpaceOnUse"
       id="clipPath4010">
      <path
         d="M 0,841.89 H 595.276 V 0 H 0 Z"
         transform="translate(-166.51401,-731.52902)"
         id="path4010" />
    </clipPath>
    <clipPath
       clipPathUnits="userSpaceOnUse"
       id="clipPath4012">
      <path
         d="M 0,841.89 H 595.276 V 0 H 0 Z"
         transform="translate(-59.355001,-725.79102)"
         id="path4012" />
    </clipPath>
    <clipPath
       clipPathUnits="userSpaceOnUse"
       id="clipPath4014">
      <path
         d="M 0,841.89 H 595.276 V 0 H 0 Z"
         id="path4014" />
    </clipPath>
    <clipPath
       clipPathUnits="userSpaceOnUse"
       id="clipPath4016">
      <path
         d="M 0,841.89 H 595.276 V 0 H 0 Z"
         transform="translate(-132.939,-632.53702)"
         id="path4016" />
    </clipPath>
    <clipPath
       clipPathUnits="userSpaceOnUse"
       id="clipPath4018">
      <path
         d="M 0,841.89 H 595.276 V 0 H 0 Z"
         transform="translate(-446.64601,-731.52902)"
         id="path4018" />
    </clipPath>
    <clipPath
       clipPathUnits="userSpaceOnUse"
       id="clipPath4020">
      <path
         d="M 0,841.89 H 595.276 V 0 H 0 Z"
         transform="translate(-339.48701,-725.79102)"
         id="path4020" />
    </clipPath>
    <clipPath
       clipPathUnits="userSpaceOnUse"
       id="clipPath4022">
      <path
         d="M 0,841.89 H 595.276 V 0 H 0 Z"
         id="path4022" />
    </clipPath>
    <clipPath
       clipPathUnits="userSpaceOnUse"
       id="clipPath4024">
      <path
         d="M 0,841.89 H 595.276 V 0 H 0 Z"
         transform="translate(-409.44701,-659.97202)"
         id="path4024" />
    </clipPath>
    <clipPath
       clipPathUnits="userSpaceOnUse"
       id="clipPath4028">
      <path
         d="M 0,841.89 H 595.276 V 0 H 0 Z"
         transform="translate(-166.51401,-483.03801)"
         id="path4028" />
    </clipPath>
    <clipPath
       clipPathUnits="userSpaceOnUse"
       id="clipPath4030">
      <path
         d="M 0,841.89 H 595.276 V 0 H 0 Z"
         transform="translate(-59.355001,-477.29901)"
         id="path4030" />
    </clipPath>
    <clipPath
       clipPathUnits="userSpaceOnUse"
       id="clipPath4032">
      <path
         d="M 0,841.89 H 595.276 V 0 H 0 Z"
         id="path4032" />
    </clipPath>
    <clipPath
       clipPathUnits="userSpaceOnUse"
       id="clipPath4034">
      <path
         d="M 0,841.89 H 595.276 V 0 H 0 Z"
         transform="translate(-126.208,-398.81301)"
         id="path4034" />
    </clipPath>
    <clipPath
       clipPathUnits="userSpaceOnUse"
       id="clipPath4052">
      <path
         d="M 0,841.89 H 595.276 V 0 H 0 Z"
         transform="translate(-446.64601,-484.03801)"
         id="path4052" />
    </clipPath>
    <clipPath
       clipPathUnits="userSpaceOnUse"
       id="clipPath4054">
      <path
         d="M 0,841.89 H 595.276 V 0 H 0 Z"
         transform="translate(-339.48701,-478.29901)"
         id="path4054" />
    </clipPath>
    <clipPath
       clipPathUnits="userSpaceOnUse"
       id="clipPath4056">
      <path
         d="M 0,841.89 H 595.276 V 0 H 0 Z"
         id="path4056" />
    </clipPath>
    <clipPath
       clipPathUnits="userSpaceOnUse"
       id="clipPath4058">
      <path
         d="M 0,841.89 H 595.276 V 0 H 0 Z"
         transform="translate(-390.32301,-383.39001)"
         id="path4058" />
    </clipPath>
    <clipPath
       clipPathUnits="userSpaceOnUse"
       id="clipPath4060">
      <path
         d="M 0,841.89 H 595.276 V 0 H 0 Z"
         transform="translate(-414.75501,-408.07801)"
         id="path4060" />
    </clipPath>
    <clipPath
       clipPathUnits="userSpaceOnUse"
       id="clipPath2032">
      <path
         d="M 0,6.109 H 350.911 V 841.89 H 0 Z"
         transform="translate(-202.28701,-239.73901)"
         id="path2032" />
    </clipPath>
    <clipPath
       clipPathUnits="userSpaceOnUse"
       id="clipPath2034">
      <path
         d="M 0,6.109 H 350.911 V 841.89 H 0 Z"
         transform="translate(-95.127602,-234.001)"
         id="path2034" />
    </clipPath>
    <clipPath
       clipPathUnits="userSpaceOnUse"
       id="clipPath2036">
      <path
         d="M 0,6.109 H 350.911 V 841.89 H 0 Z"
         id="path2036" />
    </clipPath>
    <clipPath
       clipPathUnits="userSpaceOnUse"
       id="clipPath2038">
      <path
         d="M 0,6.109 H 350.911 V 841.89 H 0 Z"
         transform="translate(-130.918,-151.443)"
         id="path2038" />
    </clipPath>
    <clipPath
       clipPathUnits="userSpaceOnUse"
       id="clipPath2040">
      <path
         d="M 0,6.109 H 350.911 V 841.89 H 0 Z"
         transform="translate(-163.501,-151.443)"
         id="path2040" />
    </clipPath>
    <clipPath
       clipPathUnits="userSpaceOnUse"
       id="clipPath2042">
      <path
         d="M 0,6.109 H 350.911 V 841.89 H 0 Z"
         transform="translate(-177.469,-165.54201)"
         id="path2042" />
    </clipPath>
    <clipPath
       clipPathUnits="userSpaceOnUse"
       id="clipPath3044">
      <path
         d="M 0,841.89 H 595.276 V 0 H 0 Z"
         transform="translate(-401.96101,-456.03201)"
         id="path3044" />
    </clipPath>
    <clipPath
       clipPathUnits="userSpaceOnUse"
       id="clipPath3048">
      <path
         d="M 0,841.89 H 595.276 V 0 H 0 Z"
         transform="translate(-371.89201,-481.43101)"
         id="path3048" />
    </clipPath>
    <clipPath
       clipPathUnits="userSpaceOnUse"
       id="clipPath176">
      <path
         d="M 0,841.89 H 595.276 V 0 H 0 Z"
         transform="translate(-369.97101,-682.58302)"
         id="path176" />
    </clipPath>
    <clipPath
       clipPathUnits="userSpaceOnUse"
       id="clipPath178">
      <path
         d="M 0,841.89 H 595.276 V 0 H 0 Z"
         transform="translate(-279.17001,-677.72102)"
         id="path178" />
    </clipPath>
    <clipPath
       clipPathUnits="userSpaceOnUse"
       id="clipPath180">
      <path
         d="M 0,841.89 H 595.276 V 0 H 0 Z"
         id="path180" />
    </clipPath>
    <clipPath
       clipPathUnits="userSpaceOnUse"
       id="clipPath182">
      <path
         d="M 0,841.89 H 595.276 V 0 H 0 Z"
         id="path182" />
    </clipPath>
    <clipPath
       clipPathUnits="userSpaceOnUse"
       id="clipPath184">
      <path
         d="M 0,841.89 H 595.276 V 0 H 0 Z"
         id="path184" />
    </clipPath>
    <clipPath
       clipPathUnits="userSpaceOnUse"
       id="clipPath186">
      <path
         d="M 0,841.89 H 595.276 V 0 H 0 Z"
         id="path186" />
    </clipPath>
    <clipPath
       clipPathUnits="userSpaceOnUse"
       id="clipPath188">
      <path
         d="M 0,841.89 H 595.276 V 0 H 0 Z"
         id="path188" />
    </clipPath>
    <clipPath
       clipPathUnits="userSpaceOnUse"
       id="clipPath190">
      <path
         d="M 0,841.89 H 595.276 V 0 H 0 Z"
         transform="translate(-334.17901,-550.46002)"
         id="path190" />
    </clipPath>
    <clipPath
       clipPathUnits="userSpaceOnUse"
       id="clipPath166">
      <path
         d="M 0,841.89 H 595.276 V 0 H 0 Z"
         id="path166" />
    </clipPath>
    <clipPath
       clipPathUnits="userSpaceOnUse"
       id="clipPath168">
      <path
         d="M 0,841.89 H 595.276 V 0 H 0 Z"
         id="path168" />
    </clipPath>
    <clipPath
       clipPathUnits="userSpaceOnUse"
       id="clipPath170">
      <path
         d="M 0,841.89 H 595.276 V 0 H 0 Z"
         transform="translate(-491.91301,-599.62501)"
         id="path170" />
    </clipPath>
    <clipPath
       clipPathUnits="userSpaceOnUse"
       id="clipPath172">
      <path
         d="M 0,841.89 H 595.276 V 0 H 0 Z"
         transform="translate(-483.60101,-644.35202)"
         id="path172" />
    </clipPath>
    <clipPath
       clipPathUnits="userSpaceOnUse"
       id="clipPath174">
      <path
         d="M 0,841.89 H 595.276 V 0 H 0 Z"
         transform="translate(-488.84801,-651.57302)"
         id="path174" />
    </clipPath>
  </defs>
  <g
     inkscape:label="Layer 1"
     inkscape:groupmode="layer"
     id="layer1"
     transform="translate(-85.984643,-123.11291)">
    <g
       id="g4075"
       transform="matrix(0.26458333,0,0,0.26458333,65.313981,79.600425)">
      <path
         style="fill:#ffffff;stroke:#ffffff;stroke-width:0.877059"
         id="rect1"
         width="169.20169"
         height="225.89459"
         x="65.582489"
         y="147.58603"
         sodipodi:type="rect"
         d="M 65.582489,147.58603 H 234.78418 V 373.48062 H 65.582489 Z"
         inkscape:path-effect="#path-effect1"
         transform="matrix(0.84735486,0,0,0.84735057,22.924756,39.770258)" />
      <path
         id="path175"
         d="m 0,0 h -91.371 c -4.59,0 -8.324,-3.683 -8.324,-8.212 v -127.691 c 0,-4.528 3.734,-8.212 8.324,-8.212 H 0 c 4.625,0 8.392,3.684 8.392,8.212 V -8.212 C 8.392,-3.683 4.625,0 0,0 m 0,-0.485 c 4.359,0 7.906,-3.466 7.906,-7.727 v -127.691 c 0,-4.261 -3.547,-7.727 -7.906,-7.727 h -91.371 c -4.322,0 -7.839,3.466 -7.839,7.727 V -8.212 c 0,4.261 3.517,7.727 7.839,7.727 H 0"
         style="fill:#4467a5;fill-opacity:1;fill-rule:nonzero;stroke:none"
         transform="matrix(1.3333333,0,0,-1.3333333,211.052,164.45666)"
         clip-path="url(#clipPath176)" />
      <path
         id="path177"
         d="m 0,0 c -2.162,0 -3.921,-1.763 -3.921,-3.928 v -126.538 c 0,-2.165 1.759,-3.926 3.921,-3.926 h 90.229 c 2.199,0 3.987,1.761 3.987,3.926 V -3.928 C 94.216,-1.763 92.428,0 90.229,0 Z"
         style="fill:#4467a5;fill-opacity:1;fill-rule:nonzero;stroke:none"
         transform="matrix(1.3333333,0,0,-1.3333333,89.984,170.93933)"
         clip-path="url(#clipPath178)" />
      <path
         id="path165"
         d="m 518.253,590.916 h -67.632 v 73.657 h 67.632 z"
         style="fill:#ffffff;fill-opacity:1;fill-rule:nonzero;stroke:none"
         transform="matrix(1.3333333,0,0,-1.3333333,-496.23401,1073.4346)"
         clip-path="url(#clipPath166)" />
      <g
         id="text166"
         style="font-size:16px;stroke-width:1.33333"
         aria-label="FIREEXTINGUISHER">
        <path
           style="font-weight:700;font-size:15.0409px;font-family:Arial;fill:#ffffff"
           d="m 133.66163,311.95462 v -10.76658 h 7.38091 v 1.82136 h -5.20703 v 2.54843 h 4.49464 v 1.82136 h -4.49464 v 4.57543 z m 9.1068,0 v -10.76658 h 2.17388 v 10.76658 z m 4.25228,0 v -10.76658 h 4.57543 q 1.72589,0 2.50437,0.29377 0.78583,0.28642 1.25586,1.02818 0.47002,0.74177 0.47002,1.69651 0,1.21179 -0.71238,2.00496 -0.71239,0.78583 -2.12982,0.99147 0.70505,0.41127 1.16038,0.90334 0.46269,0.49206 1.24117,1.74791 l 1.31461,2.10044 h -2.59984 l -1.57166,-2.3428 q -0.83723,-1.25585 -1.14569,-1.579 -0.30846,-0.33049 -0.65363,-0.44799 -0.34518,-0.12485 -1.09429,-0.12485 h -0.44065 v 4.49464 z m 2.17388,-6.21318 h 1.60838 q 1.56431,0 1.95355,-0.1322 0.38925,-0.13219 0.60957,-0.45534 0.22033,-0.32314 0.22033,-0.80786 0,-0.54347 -0.29377,-0.87396 -0.28642,-0.33783 -0.81521,-0.42596 -0.26439,-0.0367 -1.58634,-0.0367 h -1.69651 z m 8.68083,6.21318 v -10.76658 h 7.98314 v 1.82136 h -5.80926 v 2.38686 h 5.40533 v 1.81401 h -5.40533 v 2.93034 h 6.01489 v 1.81401 z"
           id="path1" />
        <path
           style="font-weight:700;font-size:15.0409px;font-family:Arial;fill:#ffffff"
           d="m 94.360024,333.53836 v -10.76658 h 7.983136 v 1.82136 H 96.533904 V 326.98 h 5.405326 v 1.81401 h -5.405326 v 2.93034 h 6.014896 v 1.81401 z m 8.937876,0 3.67944,-5.6183 -3.33426,-5.14828 h 2.54109 l 2.15919,3.45911 2.11513,-3.45911 h 2.51905 l -3.34895,5.22906 3.67944,5.53752 h -2.62187 l -2.38686,-3.7235 -2.39421,3.7235 z m 13.55003,0 v -8.94522 h -3.19472 v -1.82136 h 8.55598 v 1.82136 h -3.18738 v 8.94522 z m 6.6979,0 v -10.76658 h 2.17388 v 10.76658 z m 4.26698,0 v -10.76658 h 2.11512 l 4.40652,7.18996 v -7.18996 h 2.01965 v 10.76658 h -2.18122 l -4.34042,-7.02104 v 7.02104 z m 15.84876,-3.95852 v -1.81401 h 4.68559 v 4.289 q -0.68301,0.66098 -1.98293,1.16773 -1.29258,0.49941 -2.62187,0.49941 -1.68917,0 -2.94502,-0.70505 -1.25586,-0.71238 -1.88746,-2.02699 -0.6316,-1.32196 -0.6316,-2.87158 0,-1.68182 0.70504,-2.98909 0.70504,-1.30726 2.06372,-2.00496 1.03553,-0.53613 2.57781,-0.53613 2.00496,0 3.12862,0.84459 1.13101,0.83723 1.45415,2.32076 l -2.15919,0.40393 q -0.22767,-0.79317 -0.85927,-1.24851 -0.62426,-0.46269 -1.56431,-0.46269 -1.42477,0 -2.26936,0.90334 -0.83723,0.90333 -0.83723,2.68063 0,1.91683 0.85192,2.87892 0.85193,0.95475 2.23264,0.95475 0.68301,0 1.36602,-0.2644 0.69035,-0.27173 1.18241,-0.65363 v -1.36602 z m 6.67587,-6.80806 h 2.17388 v 5.83129 q 0,1.38805 0.0808,1.79932 0.13954,0.66098 0.66098,1.06491 0.52878,0.39659 1.43946,0.39659 0.92537,0 1.3954,-0.37456 0.47002,-0.3819 0.5655,-0.93271 0.0955,-0.55081 0.0955,-1.8287 v -5.95614 h 2.17388 v 5.65502 q 0,1.93887 -0.17626,2.73939 -0.17626,0.80051 -0.65363,1.35133 -0.47003,0.55081 -1.2632,0.8813 -0.79317,0.32315 -2.07106,0.32315 -1.54228,0 -2.3428,-0.35253 -0.79317,-0.35986 -1.25586,-0.92536 -0.46268,-0.57285 -0.60956,-1.19711 -0.21298,-0.92536 -0.21298,-2.73204 z m 10.81064,10.76658 v -10.76658 h 2.17388 v 10.76658 z m 3.69413,-3.50318 2.11513,-0.20564 q 0.19095,1.06491 0.77114,1.56432 0.58754,0.4994 1.579,0.4994 1.05022,0 1.579,-0.44065 0.53613,-0.44799 0.53613,-1.04287 0,-0.3819 -0.22767,-0.64629 -0.22033,-0.27174 -0.77849,-0.47003 -0.38189,-0.1322 -1.74057,-0.47003 -1.74792,-0.43331 -2.45296,-1.06491 -0.99146,-0.88864 -0.99146,-2.16653 0,-0.82255 0.46268,-1.53494 0.47003,-0.71973 1.34399,-1.09428 0.8813,-0.37456 2.12247,-0.37456 2.02699,0 3.04784,0.88865 1.02818,0.88865 1.07959,2.37217 l -2.17388,0.0955 q -0.13954,-0.82989 -0.60222,-1.18976 -0.45534,-0.36721 -1.37336,-0.36721 -0.94741,0 -1.48353,0.38924 -0.34518,0.2497 -0.34518,0.66832 0,0.3819 0.32315,0.65364 0.41127,0.34517 1.99762,0.71973 1.58634,0.37455 2.34279,0.77848 0.7638,0.39659 1.18976,1.09429 0.43331,0.69035 0.43331,1.71119 0,0.92537 -0.5141,1.73323 -0.51409,0.80786 -1.45414,1.20445 -0.94006,0.38924 -2.3428,0.38924 -2.04169,0 -3.13597,-0.94006 -1.09428,-0.9474 -1.30727,-2.75407 z m 10.59032,3.50318 v -10.76658 h 2.17388 v 4.2376 h 4.25963 v -4.2376 h 2.17388 v 10.76658 h -2.17388 v -4.70762 h -4.25963 v 4.70762 z m 10.85472,0 v -10.76658 h 7.98313 v 1.82136 h -5.80925 V 326.98 h 5.40532 v 1.81401 h -5.40532 v 2.93034 h 6.01489 v 1.81401 z m 10.0395,0 v -10.76658 h 4.57543 q 1.72588,0 2.50437,0.29377 0.78583,0.28642 1.25585,1.02818 0.47003,0.74177 0.47003,1.69651 0,1.21179 -0.71238,2.00496 -0.71239,0.78583 -2.12982,0.99147 0.70504,0.41127 1.16038,0.90334 0.46269,0.49206 1.24117,1.74791 l 1.31461,2.10044 h -2.59984 l -1.57166,-2.3428 q -0.83724,-1.25585 -1.14569,-1.579 -0.30846,-0.33049 -0.65364,-0.44799 -0.34517,-0.12485 -1.09428,-0.12485 h -0.44065 v 4.49464 z m 2.17388,-6.21318 h 1.60838 q 1.56431,0 1.95355,-0.1322 0.38924,-0.13219 0.60957,-0.45534 0.22032,-0.32314 0.22032,-0.80786 0,-0.54347 -0.29376,-0.87396 -0.28643,-0.33783 -0.81521,-0.42596 -0.26439,-0.0367 -1.58634,-0.0367 h -1.69651 z"
           id="path2" />
      </g>
      <g
         id="g342"
         transform="translate(-496.23401,-49.085384)"
         style="fill:#000000">
        <g
           id="g341"
           style="fill:#000000">
          <path
             id="path167"
             d="m 495.951,605.141 h -18.894 v 31.271 h 18.894 z"
             style="fill:#000000;fill-opacity:1;fill-rule:nonzero;stroke:none"
             transform="matrix(1.3333333,0,0,-1.3333333,0,1122.52)"
             clip-path="url(#clipPath168)" />
        </g>
        <path
           id="path169"
           d="m 0,0 h -10.817 c -2.23,0 -4.038,1.808 -4.038,4.038 H 4.038 C 4.038,1.808 2.23,0 0,0"
           style="fill:#000000;fill-opacity:1;fill-rule:nonzero;stroke:none"
           transform="matrix(1.3333333,0,0,-1.3333333,655.884,323.02)"
           clip-path="url(#clipPath170)" />
        <path
           id="path171"
           d="M 0,0 H 5.806 C 9.42,0 12.35,-2.93 12.35,-6.544 H -6.544 C -6.544,-2.93 -3.614,0 0,0"
           style="fill:#000000;fill-opacity:1;fill-rule:nonzero;stroke:none"
           transform="matrix(1.3333333,0,0,-1.3333333,644.80133,263.384)"
           clip-path="url(#clipPath172)" />
        <path
           id="path173"
           d="M 0,0 V 0.271 C 11.223,1.46 9.572,4.11 9.572,4.11 L -4.598,2.38 V 2.244 1.027 0.271 h -0.919 v -1.656 c -3.499,-0.055 -6.237,-1.121 -8.135,-3.174 -3.012,-3.256 -2.804,-7.809 -2.772,-8.298 v -15.619 h -0.992 v -17.523 h 3.678 v 17.523 h -0.991 v 15.649 l -0.003,0.064 c -0.003,0.042 -0.284,4.245 2.333,7.064 1.567,1.687 3.882,2.567 6.882,2.62 v -1.734 h 0.919 V -6.571 H 0 v 3.705 c 0,0 11.871,-2.407 11.898,-2.407 C 11.898,-2.271 0,0 0,0"
           style="fill:#000000;fill-opacity:1;fill-rule:nonzero;stroke:none"
           transform="matrix(1.3333333,0,0,-1.3333333,651.79733,253.756)"
           clip-path="url(#clipPath174)" />
      </g>
    </g>
  </g>
</svg>
