<?xml version="1.0" encoding="UTF-8" standalone="no"?>
<svg
   version="1.1"
   width="587px"
   height="1628px"
   style="shape-rendering:geometricPrecision; text-rendering:geometricPrecision; image-rendering:optimizeQuality; fill-rule:evenodd; clip-rule:evenodd"
   id="svg58"
   sodipodi:docname="Flood Guage.svg"
   inkscape:version="1.4 (86a8ad7, 2024-10-11)"
   xmlns:inkscape="http://www.inkscape.org/namespaces/inkscape"
   xmlns:sodipodi="http://sodipodi.sourceforge.net/DTD/sodipodi-0.dtd"
   xmlns="http://www.w3.org/2000/svg"
   xmlns:svg="http://www.w3.org/2000/svg">
  <defs
     id="defs58" />
  <sodipodi:namedview
     id="namedview58"
     pagecolor="#ffffff"
     bordercolor="#000000"
     borderopacity="0.25"
     inkscape:showpageshadow="2"
     inkscape:pageopacity="0.0"
     inkscape:pagecheckerboard="0"
     inkscape:deskcolor="#d1d1d1"
     inkscape:zoom="0.35051301"
     inkscape:cx="1007.0953"
     inkscape:cy="569.16576"
     inkscape:window-width="1920"
     inkscape:window-height="1009"
     inkscape:window-x="-8"
     inkscape:window-y="-8"
     inkscape:window-maximized="1"
     inkscape:current-layer="svg58" />
  <g
     id="g1">
    <path
       style="opacity:1"
       fill="#fefefe"
       d="M -0.5,-0.5 C 195.167,-0.5 390.833,-0.5 586.5,-0.5C 586.5,542.167 586.5,1084.83 586.5,1627.5C 390.833,1627.5 195.167,1627.5 -0.5,1627.5C -0.5,1084.83 -0.5,542.167 -0.5,-0.5 Z"
       id="path1" />
  </g>
  <path
     fill="#030303"
     d="m 501.5,1444.5 c -0.667,49 -1.333,98 -2,147 -5.237,-3.29 -10.904,-4.79 -17,-4.5 -7.053,6.1 -15.053,7.76 -24,5 -6.105,-2.37 -12.271,-4.53 -18.5,-6.5 -3.063,1.38 -5.896,3.21 -8.5,5.5 -2.811,0.91 -5.644,1.74 -8.5,2.5 -4.83,-1.44 -9.664,-2.78 -14.5,-4 -9.002,1.33 -18.002,2.67 -27,4 -6.361,-0.97 -12.694,-2.14 -19,-3.5 -5.814,-2.55 -11.814,-4.38 -18,-5.5 -4.913,0.95 -9.58,2.78 -14,5.5 -1.923,0.81 -3.923,1.31 -6,1.5 -6.6,-1.13 -12.934,-3.13 -19,-6 -2.877,2.51 -5.877,5.01 -9,7.5 -4.911,1.49 -9.911,1.83 -15,1 -4,-2.33 -8,-4.67 -12,-7 -4.094,-0.77 -8.094,-0.43 -12,1 -7.945,6.24 -16.945,8.57 -27,7 -15.918,-8.75 -31.585,-8.42 -47,1 -10.51,3.53 -21.177,4.19 -32,2 -8.282,-3.76 -16.782,-6.93 -25.5,-9.5 -10.127,1.93 -20.293,1.93 -30.5,0 -0.1667,-500 0,-1000 0.5,-1500 6.105,-37.4385 27.938,-58.6052 65.5,-63.5 90.69,-0.9797 181.356,-0.6464 272,1 38.972,8.744 61.472,32.9106 67.5,72.5 0.5,448.667 0.667,897.333 0.5,1346 z"
     id="path2"
     style="fill:#000000" />
  <g
     id="g3">
    <path
       style="opacity:1"
       fill="#df1f26"
       d="M 101.5,1062.5 C 121.833,1062.5 142.167,1062.5 162.5,1062.5C 162.5,1048.5 162.5,1034.5 162.5,1020.5C 142.167,1020.5 121.833,1020.5 101.5,1020.5C 101.5,1000.17 101.5,979.833 101.5,959.5C 113.167,959.5 124.833,959.5 136.5,959.5C 136.5,950.833 136.5,942.167 136.5,933.5C 124.833,933.5 113.167,933.5 101.5,933.5C 101.5,913.167 101.5,892.833 101.5,872.5C 121.833,872.5 142.167,872.5 162.5,872.5C 162.5,858.5 162.5,844.5 162.5,830.5C 142.167,830.5 121.833,830.5 101.5,830.5C 101.5,810.5 101.5,790.5 101.5,770.5C 113.167,770.5 124.833,770.5 136.5,770.5C 136.5,761.5 136.5,752.5 136.5,743.5C 124.833,743.5 113.167,743.5 101.5,743.5C 101.5,723.167 101.5,702.833 101.5,682.5C 121.833,682.5 142.167,682.5 162.5,682.5C 162.5,668.5 162.5,654.5 162.5,640.5C 142.167,640.5 121.833,640.5 101.5,640.5C 101.5,620.5 101.5,600.5 101.5,580.5C 113.167,580.5 124.833,580.5 136.5,580.5C 136.5,571.5 136.5,562.5 136.5,553.5C 124.833,553.5 113.167,553.5 101.5,553.5C 101.5,533.167 101.5,512.833 101.5,492.5C 121.833,492.5 142.167,492.5 162.5,492.5C 162.5,478.5 162.5,464.5 162.5,450.5C 142.167,450.5 121.833,450.5 101.5,450.5C 101.5,430.5 101.5,410.5 101.5,390.5C 113.167,390.5 124.833,390.5 136.5,390.5C 136.5,381.5 136.5,372.5 136.5,363.5C 124.833,363.5 113.167,363.5 101.5,363.5C 101.5,343.167 101.5,322.833 101.5,302.5C 121.833,302.5 142.167,302.5 162.5,302.5C 162.5,288.5 162.5,274.5 162.5,260.5C 142.167,260.5 121.833,260.5 101.5,260.5C 101.333,202.499 101.5,144.499 102,86.5C 107.606,56.2275 125.439,37.7275 155.5,31C 202.165,30.5 248.832,30.3333 295.5,30.5C 295.5,382.5 295.5,734.5 295.5,1086.5C 230.833,1086.5 166.167,1086.5 101.5,1086.5C 101.5,1078.5 101.5,1070.5 101.5,1062.5 Z"
       id="path3" />
  </g>
  <g
     id="g4">
    <path
       style="opacity:1"
       fill="#df1f26"
       d="M 495.5,295.5 C 483.833,295.5 472.167,295.5 460.5,295.5C 460.5,304.5 460.5,313.5 460.5,322.5C 472.167,322.5 483.833,322.5 495.5,322.5C 495.5,334.5 495.5,346.5 495.5,358.5C 483.833,358.5 472.167,358.5 460.5,358.5C 460.5,367.5 460.5,376.5 460.5,385.5C 472.167,385.5 483.833,385.5 495.5,385.5C 495.5,397.833 495.5,410.167 495.5,422.5C 483.833,422.5 472.167,422.5 460.5,422.5C 460.5,431.5 460.5,440.5 460.5,449.5C 472.167,449.5 483.833,449.5 495.5,449.5C 495.5,461.5 495.5,473.5 495.5,485.5C 483.833,485.5 472.167,485.5 460.5,485.5C 460.5,494.5 460.5,503.5 460.5,512.5C 472.167,512.5 483.833,512.5 495.5,512.5C 495.5,524.833 495.5,537.167 495.5,549.5C 483.833,549.5 472.167,549.5 460.5,549.5C 460.5,558.5 460.5,567.5 460.5,576.5C 472.167,576.5 483.833,576.5 495.5,576.5C 495.5,588.833 495.5,601.167 495.5,613.5C 483.833,613.5 472.167,613.5 460.5,613.5C 460.5,622.167 460.5,630.833 460.5,639.5C 472.167,639.5 483.833,639.5 495.5,639.5C 495.5,651.833 495.5,664.167 495.5,676.5C 483.833,676.5 472.167,676.5 460.5,676.5C 460.5,685.5 460.5,694.5 460.5,703.5C 472.167,703.5 483.833,703.5 495.5,703.5C 495.5,715.833 495.5,728.167 495.5,740.5C 483.833,740.5 472.167,740.5 460.5,740.5C 460.5,749.5 460.5,758.5 460.5,767.5C 472.167,767.5 483.833,767.5 495.5,767.5C 495.5,777.167 495.5,786.833 495.5,796.5C 457.833,796.5 420.167,796.5 382.5,796.5C 382.5,810.5 382.5,824.5 382.5,838.5C 420.167,838.5 457.833,838.5 495.5,838.5C 495.5,848.167 495.5,857.833 495.5,867.5C 483.833,867.5 472.167,867.5 460.5,867.5C 460.5,876.5 460.5,885.5 460.5,894.5C 472.167,894.5 483.833,894.5 495.5,894.5C 495.5,906.5 495.5,918.5 495.5,930.5C 483.833,930.5 472.167,930.5 460.5,930.5C 460.5,939.5 460.5,948.5 460.5,957.5C 472.167,957.5 483.833,957.5 495.5,957.5C 495.5,969.833 495.5,982.167 495.5,994.5C 483.833,994.5 472.167,994.5 460.5,994.5C 460.5,1003.5 460.5,1012.5 460.5,1021.5C 472.167,1021.5 483.833,1021.5 495.5,1021.5C 495.5,1033.5 495.5,1045.5 495.5,1057.5C 483.833,1057.5 472.167,1057.5 460.5,1057.5C 460.5,1066.5 460.5,1075.5 460.5,1084.5C 472.167,1084.5 483.833,1084.5 495.5,1084.5C 431.175,1086.5 366.509,1087.16 301.5,1086.5C 301.5,734.5 301.5,382.5 301.5,30.5C 346.527,30.0422 391.527,30.5422 436.5,32C 462.374,38.8669 480.541,54.7002 491,79.5C 492.806,85.0555 494.139,90.7222 495,96.5C 495.5,162.832 495.667,229.166 495.5,295.5 Z"
       id="path4" />
  </g>
  <g
     id="g5">
    <path
       style="opacity:1"
       fill="#fefbfb"
       d="M 427.5,164.5 C 427.667,148.497 427.5,132.497 427,116.5C 426.209,117.745 425.709,119.078 425.5,120.5C 421.151,141.898 416.484,163.231 411.5,184.5C 405.5,184.5 399.5,184.5 393.5,184.5C 388.858,162.458 384.025,140.458 379,118.5C 378.5,140.497 378.333,162.497 378.5,184.5C 372.833,184.5 367.167,184.5 361.5,184.5C 361.5,154.5 361.5,124.5 361.5,94.5C 370.418,94.1828 379.251,94.5161 388,95.5C 392.546,114.686 397.546,133.686 403,152.5C 407.68,133.447 412.513,114.447 417.5,95.5C 426.141,94.502 434.808,94.1686 443.5,94.5C 443.5,124.5 443.5,154.5 443.5,184.5C 438.167,184.5 432.833,184.5 427.5,184.5C 427.5,177.833 427.5,171.167 427.5,164.5 Z"
       id="path5" />
  </g>
  <g
     id="g6">
    <path
       style="opacity:1"
       fill="#fefbfb"
       d="M 154.5,95.5 C 174.167,95.5 193.833,95.5 213.5,95.5C 213.5,100.5 213.5,105.5 213.5,110.5C 199.833,110.5 186.167,110.5 172.5,110.5C 172.5,117.833 172.5,125.167 172.5,132.5C 184.167,132.5 195.833,132.5 207.5,132.5C 207.5,137.5 207.5,142.5 207.5,147.5C 195.833,147.5 184.167,147.5 172.5,147.5C 172.5,160.167 172.5,172.833 172.5,185.5C 166.5,185.5 160.5,185.5 154.5,185.5C 154.5,155.5 154.5,125.5 154.5,95.5 Z"
       id="path6" />
  </g>
  <path
     fill="#fefbfb"
     d="m 244.46141,98.5 c 0.667,7.333 0.0848,14.667 0.0386,22 h 11 v 13 h -11 c -0.167,12.338 0,24.671 0.5,37 2.856,2.328 6.023,2.661 9.5,1 5.062,10.893 1.729,15.893 -10,15 -7.215,1.002 -12.382,-1.665 -15.5,-8 -1.434,-14.942 -1.934,-29.942 -1.5,-45 h -7 v -13 h 7 c -0.327,-4.714 -0.17131,-9.20169 0.82169,-13.82169 4.721,-2.69 11.52772,-5.53531 16.13972,-8.17831 z"
     id="path8"
     style="fill:#ffffff"
     sodipodi:nodetypes="ccccccccccccccc" />
  <g
     id="g10">
    <path
       style="opacity:1"
       fill="#fef9f9"
       d="M 204.5,246.5 C 219.435,244.452 228.101,250.785 230.5,265.5C 226.125,266.274 221.792,266.274 217.5,265.5C 214.212,257.471 209.379,256.471 203,262.5C 200.837,267.647 199.837,272.98 200,278.5C 204.485,272.826 210.319,270.993 217.5,273C 229.554,279.108 234.387,288.942 232,302.5C 226.13,320.354 214.63,325.52 197.5,318C 191.852,313.873 188.352,308.373 187,301.5C 184.731,288.749 185.065,276.083 188,263.5C 191.045,255.29 196.545,249.623 204.5,246.5 Z"
       id="path10" />
  </g>
  <g
     id="g11">
    <path
       style="opacity:1"
       fill="#fefefe"
       d="M 101.5,260.5 C 121.833,260.5 142.167,260.5 162.5,260.5C 162.5,274.5 162.5,288.5 162.5,302.5C 142.167,302.5 121.833,302.5 101.5,302.5C 101.5,288.5 101.5,274.5 101.5,260.5 Z"
       id="path11" />
  </g>
  <g
     id="g12">
    <path
       style="opacity:1"
       fill="#e02629"
       d="M 207.5,284.5 C 212.382,284.175 215.882,286.175 218,290.5C 218.667,294.833 218.667,299.167 218,303.5C 214.845,309.747 210.345,310.914 204.5,307C 200.758,302.483 199.591,297.316 201,291.5C 202.356,288.314 204.522,285.981 207.5,284.5 Z"
       id="path12" />
  </g>
  <g
     id="g13">
    <path
       style="opacity:1"
       fill="#fdfdfd"
       d="M 495.5,295.5 C 495.5,304.5 495.5,313.5 495.5,322.5C 483.833,322.5 472.167,322.5 460.5,322.5C 460.5,313.5 460.5,304.5 460.5,295.5C 472.167,295.5 483.833,295.5 495.5,295.5 Z"
       id="path13" />
  </g>
  <g
     id="g14">
    <path
       style="opacity:1"
       fill="#fdfdfd"
       d="M 495.5,358.5 C 495.5,367.5 495.5,376.5 495.5,385.5C 483.833,385.5 472.167,385.5 460.5,385.5C 460.5,376.5 460.5,367.5 460.5,358.5C 472.167,358.5 483.833,358.5 495.5,358.5 Z"
       id="path14" />
  </g>
  <g
     id="g15">
    <path
       style="opacity:1"
       fill="#fdfdfd"
       d="M 101.5,363.5 C 113.167,363.5 124.833,363.5 136.5,363.5C 136.5,372.5 136.5,381.5 136.5,390.5C 124.833,390.5 113.167,390.5 101.5,390.5C 101.5,381.5 101.5,372.5 101.5,363.5 Z"
       id="path15" />
  </g>
  <g
     id="g16">
    <path
       style="opacity:1"
       fill="#fdfdfd"
       d="M 495.5,422.5 C 495.5,431.5 495.5,440.5 495.5,449.5C 483.833,449.5 472.167,449.5 460.5,449.5C 460.5,440.5 460.5,431.5 460.5,422.5C 472.167,422.5 483.833,422.5 495.5,422.5 Z"
       id="path16" />
  </g>
  <g
     id="g17">
    <path
       style="opacity:1"
       fill="#fefcfc"
       d="M 342.5,435.5 C 346.167,435.5 349.833,435.5 353.5,435.5C 353.5,460.167 353.5,484.833 353.5,509.5C 349.167,509.5 344.833,509.5 340.5,509.5C 340.667,492.163 340.5,474.83 340,457.5C 335.413,462.543 329.913,466.21 323.5,468.5C 322.338,463.869 322.172,459.202 323,454.5C 331.988,450.678 338.488,444.345 342.5,435.5 Z"
       id="path17" />
  </g>
  <g
     id="g18">
    <path
       style="opacity:1"
       fill="#fef9f9"
       d="M 193.5,436.5 C 205.5,436.5 217.5,436.5 229.5,436.5C 229.5,441.167 229.5,445.833 229.5,450.5C 221.167,450.5 212.833,450.5 204.5,450.5C 203.664,454.506 203.164,458.506 203,462.5C 217.511,457.923 227.178,462.923 232,477.5C 234.439,490.108 230.606,500.275 220.5,508C 201.485,514.495 189.818,507.995 185.5,488.5C 190.167,488.167 194.833,487.833 199.5,487.5C 202.014,499.563 207.847,501.563 217,493.5C 219.357,487.059 218.857,480.892 215.5,475C 209.371,471.614 203.704,472.281 198.5,477C 194.83,477.279 191.163,477.112 187.5,476.5C 189.37,463.148 191.37,449.814 193.5,436.5 Z"
       id="path18" />
  </g>
  <g
     id="g19">
    <path
       style="opacity:1"
       fill="#fef9f9"
       d="M 408.5,436.5 C 420.5,436.5 432.5,436.5 444.5,436.5C 444.5,441.167 444.5,445.833 444.5,450.5C 436.167,450.5 427.833,450.5 419.5,450.5C 418.664,454.506 418.164,458.506 418,462.5C 432.511,457.923 442.178,462.923 447,477.5C 449.439,490.108 445.606,500.275 435.5,508C 416.485,514.495 404.818,507.995 400.5,488.5C 405.167,488.167 409.833,487.833 414.5,487.5C 417.014,499.563 422.847,501.563 432,493.5C 434.357,487.059 433.857,480.892 430.5,475C 424.371,471.614 418.704,472.281 413.5,477C 409.83,477.279 406.163,477.112 402.5,476.5C 404.37,463.148 406.37,449.814 408.5,436.5 Z"
       id="path19" />
  </g>
  <g
     id="g20">
    <path
       style="opacity:1"
       fill="#fefefe"
       d="M 101.5,450.5 C 121.833,450.5 142.167,450.5 162.5,450.5C 162.5,464.5 162.5,478.5 162.5,492.5C 142.167,492.5 121.833,492.5 101.5,492.5C 101.5,478.5 101.5,464.5 101.5,450.5 Z"
       id="path20" />
  </g>
  <g
     id="g21">
    <path
       style="opacity:1"
       fill="#fdfdfd"
       d="M 495.5,485.5 C 495.5,494.5 495.5,503.5 495.5,512.5C 483.833,512.5 472.167,512.5 460.5,512.5C 460.5,503.5 460.5,494.5 460.5,485.5C 472.167,485.5 483.833,485.5 495.5,485.5 Z"
       id="path21" />
  </g>
  <g
     id="g22">
    <path
       style="opacity:1"
       fill="#fefffe"
       d="M 376.5,495.5 C 380.833,495.5 385.167,495.5 389.5,495.5C 389.5,500.167 389.5,504.833 389.5,509.5C 385.167,509.5 380.833,509.5 376.5,509.5C 376.5,504.833 376.5,500.167 376.5,495.5 Z"
       id="path22" />
  </g>
  <g
     id="g23">
    <path
       style="opacity:1"
       fill="#fdfdfd"
       d="M 495.5,549.5 C 495.5,558.5 495.5,567.5 495.5,576.5C 483.833,576.5 472.167,576.5 460.5,576.5C 460.5,567.5 460.5,558.5 460.5,549.5C 472.167,549.5 483.833,549.5 495.5,549.5 Z"
       id="path23" />
  </g>
  <g
     id="g24">
    <path
       style="opacity:1"
       fill="#fdfdfd"
       d="M 101.5,553.5 C 113.167,553.5 124.833,553.5 136.5,553.5C 136.5,562.5 136.5,571.5 136.5,580.5C 124.833,580.5 113.167,580.5 101.5,580.5C 101.5,571.5 101.5,562.5 101.5,553.5 Z"
       id="path24" />
  </g>
  <g
     id="g25">
    <path
       style="opacity:1"
       fill="#fdfdfd"
       d="M 495.5,613.5 C 495.5,622.167 495.5,630.833 495.5,639.5C 483.833,639.5 472.167,639.5 460.5,639.5C 460.5,630.833 460.5,622.167 460.5,613.5C 472.167,613.5 483.833,613.5 495.5,613.5 Z"
       id="path25" />
  </g>
  <g
     id="g26">
    <path
       style="opacity:1"
       fill="#fefcfc"
       d="M 212.5,625.5 C 216.5,625.5 220.5,625.5 224.5,625.5C 224.5,640.833 224.5,656.167 224.5,671.5C 227.5,671.5 230.5,671.5 233.5,671.5C 233.5,675.5 233.5,679.5 233.5,683.5C 230.5,683.5 227.5,683.5 224.5,683.5C 224.5,688.5 224.5,693.5 224.5,698.5C 220.167,698.5 215.833,698.5 211.5,698.5C 211.5,693.5 211.5,688.5 211.5,683.5C 202.167,683.5 192.833,683.5 183.5,683.5C 183.334,679.154 183.501,674.821 184,670.5C 193.751,655.599 203.251,640.599 212.5,625.5 Z"
       id="path26" />
  </g>
  <g
     id="g27">
    <path
       style="opacity:1"
       fill="#fefefe"
       d="M 101.5,640.5 C 121.833,640.5 142.167,640.5 162.5,640.5C 162.5,654.5 162.5,668.5 162.5,682.5C 142.167,682.5 121.833,682.5 101.5,682.5C 101.5,668.5 101.5,654.5 101.5,640.5 Z"
       id="path27" />
  </g>
  <g
     id="g28">
    <path
       style="opacity:1"
       fill="#e02428"
       d="M 210.5,648.5 C 211.492,655.982 211.825,663.648 211.5,671.5C 206.456,671.827 201.456,671.494 196.5,670.5C 201.588,663.417 206.255,656.083 210.5,648.5 Z"
       id="path28" />
  </g>
  <g
     id="g29">
    <path
       style="opacity:1"
       fill="#fdfdfd"
       d="M 495.5,676.5 C 495.5,685.5 495.5,694.5 495.5,703.5C 483.833,703.5 472.167,703.5 460.5,703.5C 460.5,694.5 460.5,685.5 460.5,676.5C 472.167,676.5 483.833,676.5 495.5,676.5 Z"
       id="path29" />
  </g>
  <g
     id="g30">
    <path
       style="opacity:1"
       fill="#fdfdfd"
       d="M 495.5,740.5 C 495.5,749.5 495.5,758.5 495.5,767.5C 483.833,767.5 472.167,767.5 460.5,767.5C 460.5,758.5 460.5,749.5 460.5,740.5C 472.167,740.5 483.833,740.5 495.5,740.5 Z"
       id="path30" />
  </g>
  <g
     id="g31">
    <path
       style="opacity:1"
       fill="#fdfdfd"
       d="M 101.5,743.5 C 113.167,743.5 124.833,743.5 136.5,743.5C 136.5,752.5 136.5,761.5 136.5,770.5C 124.833,770.5 113.167,770.5 101.5,770.5C 101.5,761.5 101.5,752.5 101.5,743.5 Z"
       id="path31" />
  </g>
  <g
     id="g32">
    <path
       style="opacity:1"
       fill="#fefcfc"
       d="M 346.5,763.5 C 350.167,763.5 353.833,763.5 357.5,763.5C 357.5,788.167 357.5,812.833 357.5,837.5C 353.167,837.5 348.833,837.5 344.5,837.5C 344.667,820.163 344.5,802.83 344,785.5C 339.413,790.543 333.913,794.21 327.5,796.5C 326.338,791.869 326.172,787.202 327,782.5C 335.988,778.678 342.488,772.345 346.5,763.5 Z"
       id="path32" />
  </g>
  <g
     id="g33">
    <path
       style="opacity:1"
       fill="#fefefe"
       d="M 495.5,796.5 C 495.5,810.5 495.5,824.5 495.5,838.5C 457.833,838.5 420.167,838.5 382.5,838.5C 382.5,824.5 382.5,810.5 382.5,796.5C 420.167,796.5 457.833,796.5 495.5,796.5 Z"
       id="path33" />
  </g>
  <g
     id="g34">
    <path
       style="opacity:1"
       fill="#fef8f8"
       d="M 201.5,813.5 C 219.038,811.554 227.871,819.221 228,836.5C 226.503,841.168 223.67,844.834 219.5,847.5C 232.485,855.474 234.985,866.141 227,879.5C 217.036,889.678 205.869,891.178 193.5,884C 188.273,879.713 185.606,874.213 185.5,867.5C 189.754,866.354 194.087,865.687 198.5,865.5C 199.338,874.414 204.005,877.581 212.5,875C 217.938,869.528 218.772,863.361 215,856.5C 211.21,853.442 207.043,852.775 202.5,854.5C 202.335,851.15 202.502,847.817 203,844.5C 206.512,842.876 209.845,840.876 213,838.5C 215.269,834.286 214.769,830.453 211.5,827C 204.241,824.368 199.907,826.868 198.5,834.5C 194.029,834.311 189.696,833.477 185.5,832C 187.508,822.833 192.842,816.666 201.5,813.5 Z"
       id="path34" />
  </g>
  <g
     id="g35">
    <path
       style="opacity:1"
       fill="#fefefe"
       d="M 101.5,830.5 C 121.833,830.5 142.167,830.5 162.5,830.5C 162.5,844.5 162.5,858.5 162.5,872.5C 142.167,872.5 121.833,872.5 101.5,872.5C 101.5,858.5 101.5,844.5 101.5,830.5 Z"
       id="path35" />
  </g>
  <g
     id="g36">
    <path
       style="opacity:1"
       fill="#fdfdfd"
       d="M 495.5,867.5 C 495.5,876.5 495.5,885.5 495.5,894.5C 483.833,894.5 472.167,894.5 460.5,894.5C 460.5,885.5 460.5,876.5 460.5,867.5C 472.167,867.5 483.833,867.5 495.5,867.5 Z"
       id="path36" />
  </g>
  <g
     id="g37">
    <path
       style="opacity:1"
       fill="#fdfdfd"
       d="M 495.5,930.5 C 495.5,939.5 495.5,948.5 495.5,957.5C 483.833,957.5 472.167,957.5 460.5,957.5C 460.5,948.5 460.5,939.5 460.5,930.5C 472.167,930.5 483.833,930.5 495.5,930.5 Z"
       id="path37" />
  </g>
  <g
     id="g38">
    <path
       style="opacity:1"
       fill="#fdfdfd"
       d="M 101.5,933.5 C 113.167,933.5 124.833,933.5 136.5,933.5C 136.5,942.167 136.5,950.833 136.5,959.5C 124.833,959.5 113.167,959.5 101.5,959.5C 101.5,950.833 101.5,942.167 101.5,933.5 Z"
       id="path38" />
  </g>
  <g
     id="g39">
    <path
       style="opacity:1"
       fill="#fdfdfd"
       d="M 495.5,994.5 C 495.5,1003.5 495.5,1012.5 495.5,1021.5C 483.833,1021.5 472.167,1021.5 460.5,1021.5C 460.5,1012.5 460.5,1003.5 460.5,994.5C 472.167,994.5 483.833,994.5 495.5,994.5 Z"
       id="path39" />
  </g>
  <g
     id="g40">
    <path
       style="opacity:1"
       fill="#fefafa"
       d="M 201.5,1002.5 C 223.887,1000.71 233.053,1010.71 229,1032.5C 227.587,1035.66 225.92,1038.66 224,1041.5C 217.319,1048.01 210.819,1054.68 204.5,1061.5C 213.141,1062.5 221.808,1062.83 230.5,1062.5C 230.5,1067.17 230.5,1071.83 230.5,1076.5C 214.819,1076.83 199.152,1076.5 183.5,1075.5C 184.793,1069.78 186.959,1064.45 190,1059.5C 196.302,1052.2 202.968,1045.2 210,1038.5C 212.392,1035.77 214.392,1032.77 216,1029.5C 218.595,1017.26 214.095,1012.92 202.5,1016.5C 199.923,1018.92 198.923,1021.92 199.5,1025.5C 194.819,1025.33 190.152,1025 185.5,1024.5C 185.861,1013.48 191.195,1006.15 201.5,1002.5 Z"
       id="path40" />
  </g>
  <g
     id="g41">
    <path
       style="opacity:1"
       fill="#fefefe"
       d="M 101.5,1020.5 C 121.833,1020.5 142.167,1020.5 162.5,1020.5C 162.5,1034.5 162.5,1048.5 162.5,1062.5C 142.167,1062.5 121.833,1062.5 101.5,1062.5C 101.5,1048.5 101.5,1034.5 101.5,1020.5 Z"
       id="path41" />
  </g>
  <g
     id="g42">
    <path
       style="opacity:1"
       fill="#fdfdfd"
       d="M 495.5,1057.5 C 495.5,1066.5 495.5,1075.5 495.5,1084.5C 483.833,1084.5 472.167,1084.5 460.5,1084.5C 460.5,1075.5 460.5,1066.5 460.5,1057.5C 472.167,1057.5 483.833,1057.5 495.5,1057.5 Z"
       id="path42" />
  </g>
  <g
     id="g43">
    <path
       style="opacity:1"
       fill="#f8f8f8"
       d="M 335.5,1097.5 C 352.089,1095.58 361.589,1102.92 364,1119.5C 364.861,1131.21 364.527,1142.88 363,1154.5C 356.785,1172.52 345.285,1177.02 328.5,1168C 323.628,1162.42 320.794,1155.92 320,1148.5C 319.125,1137.78 319.459,1127.12 321,1116.5C 322.984,1107.81 327.817,1101.48 335.5,1097.5 Z"
       id="path43" />
  </g>
  <g
     id="g44">
    <path
       style="opacity:1"
       fill="#f8f8f8"
       d="M 408.5,1098.5 C 420.5,1098.5 432.5,1098.5 444.5,1098.5C 444.5,1103.17 444.5,1107.83 444.5,1112.5C 436.167,1112.5 427.833,1112.5 419.5,1112.5C 418.876,1116.56 418.376,1120.56 418,1124.5C 432.486,1119.91 442.153,1124.91 447,1139.5C 449.659,1153.22 445.159,1163.72 433.5,1171C 415.201,1175.85 404.201,1169.02 400.5,1150.5C 405.167,1150.17 409.833,1149.83 414.5,1149.5C 415.623,1158.15 420.29,1161.31 428.5,1159C 433.582,1153.32 434.749,1146.82 432,1139.5C 426.137,1133.15 419.97,1132.98 413.5,1139C 409.83,1139.28 406.163,1139.11 402.5,1138.5C 404.371,1125.15 406.371,1111.81 408.5,1098.5 Z"
       id="path44" />
  </g>
  <g
     id="g45">
    <path
       style="opacity:1"
       fill="#040404"
       d="M 340.5,1109.5 C 346.179,1110.35 349.346,1113.68 350,1119.5C 350.793,1130.87 350.46,1142.2 349,1153.5C 346.661,1160.35 342.661,1161.68 337,1157.5C 336.138,1155.91 335.471,1154.25 335,1152.5C 333.668,1141.53 333.334,1130.53 334,1119.5C 334.949,1115.24 337.115,1111.91 340.5,1109.5 Z"
       id="path45" />
  </g>
  <g
     id="g46">
    <path
       style="opacity:1"
       fill="#fdfdfd"
       d="M 460.5,1121.5 C 472.167,1121.5 483.833,1121.5 495.5,1121.5C 495.5,1130.5 495.5,1139.5 495.5,1148.5C 483.833,1148.5 472.167,1148.5 460.5,1148.5C 460.5,1139.5 460.5,1130.5 460.5,1121.5 Z"
       id="path46" />
  </g>
  <g
     id="g47">
    <path
       style="opacity:1"
       fill="#fdfdfd"
       d="M 101.5,1123.5 C 113.167,1123.5 124.833,1123.5 136.5,1123.5C 136.5,1132.17 136.5,1140.83 136.5,1149.5C 124.833,1149.5 113.167,1149.5 101.5,1149.5C 101.5,1140.83 101.5,1132.17 101.5,1123.5 Z"
       id="path47" />
  </g>
  <g
     id="g48">
    <path
       style="opacity:1"
       fill="#f5f5f5"
       d="M 376.5,1157.5 C 381.167,1157.5 385.833,1157.5 390.5,1157.5C 390.5,1162.17 390.5,1166.83 390.5,1171.5C 385.833,1171.5 381.167,1171.5 376.5,1171.5C 376.5,1166.83 376.5,1162.17 376.5,1157.5 Z"
       id="path48" />
  </g>
  <g
     id="g49">
    <path
       style="opacity:1"
       fill="#fdfdfd"
       d="M 460.5,1185.5 C 472.167,1185.5 483.833,1185.5 495.5,1185.5C 495.5,1194.17 495.5,1202.83 495.5,1211.5C 483.833,1211.5 472.167,1211.5 460.5,1211.5C 460.5,1202.83 460.5,1194.17 460.5,1185.5 Z"
       id="path49" />
  </g>
  <g
     id="g50">
    <path
       style="opacity:1"
       fill="#efefef"
       d="M 208.5,1191.5 C 212.5,1191.5 216.5,1191.5 220.5,1191.5C 220.5,1216.17 220.5,1240.83 220.5,1265.5C 215.5,1265.5 210.5,1265.5 205.5,1265.5C 205.667,1248.5 205.5,1231.5 205,1214.5C 200.315,1219.26 194.815,1222.59 188.5,1224.5C 188.334,1219.82 188.501,1215.15 189,1210.5C 198.017,1206.65 204.517,1200.32 208.5,1191.5 Z"
       id="path50" />
  </g>
  <g
     id="g51">
    <path
       style="opacity:1"
       fill="#fefefe"
       d="M 101.5,1210.5 C 121.833,1210.5 142.167,1210.5 162.5,1210.5C 162.5,1224.5 162.5,1238.5 162.5,1252.5C 142.167,1252.5 121.833,1252.5 101.5,1252.5C 101.5,1238.5 101.5,1224.5 101.5,1210.5 Z"
       id="path51" />
  </g>
  <g
     id="g52">
    <path
       style="opacity:1"
       fill="#fdfdfd"
       d="M 460.5,1248.5 C 472.167,1248.5 483.833,1248.5 495.5,1248.5C 495.5,1257.5 495.5,1266.5 495.5,1275.5C 483.833,1275.5 472.167,1275.5 460.5,1275.5C 460.5,1266.5 460.5,1257.5 460.5,1248.5 Z"
       id="path52" />
  </g>
  <g
     id="g53">
    <path
       style="opacity:1"
       fill="#fdfdfd"
       d="M 101.5,1312.5 C 113.167,1312.5 124.833,1312.5 136.5,1312.5C 136.5,1321.5 136.5,1330.5 136.5,1339.5C 124.833,1339.5 113.167,1339.5 101.5,1339.5C 101.5,1330.5 101.5,1321.5 101.5,1312.5 Z"
       id="path53" />
  </g>
  <g
     id="g54">
    <path
       style="opacity:1"
       fill="#fdfdfd"
       d="M 460.5,1312.5 C 472.167,1312.5 483.833,1312.5 495.5,1312.5C 495.5,1321.5 495.5,1330.5 495.5,1339.5C 483.833,1339.5 472.167,1339.5 460.5,1339.5C 460.5,1330.5 460.5,1321.5 460.5,1312.5 Z"
       id="path54" />
  </g>
  <g
     id="g55">
    <path
       style="opacity:1"
       fill="#fdfdfd"
       d="M 460.5,1375.5 C 472.167,1375.5 483.833,1375.5 495.5,1375.5C 495.5,1384.5 495.5,1393.5 495.5,1402.5C 483.833,1402.5 472.167,1402.5 460.5,1402.5C 460.5,1393.5 460.5,1384.5 460.5,1375.5 Z"
       id="path55" />
  </g>
  <g
     id="g56">
    <path
       style="opacity:1"
       fill="#acacac"
       d="M 495.5,1445.5 C 364.5,1445.5 233.5,1445.5 102.5,1445.5C 102.5,1491.5 102.5,1537.5 102.5,1583.5C 105.385,1583.19 108.052,1583.53 110.5,1584.5C 107.5,1584.5 104.5,1584.5 101.5,1584.5C 101.5,1537.83 101.5,1491.17 101.5,1444.5C 233.001,1444.17 364.334,1444.5 495.5,1445.5 Z"
       id="path56" />
  </g>
  <g
     id="g57">
    <path
       style="opacity:1"
       fill="#fefefe"
       d="M 495.5,1445.5 C 495.5,1491.17 495.5,1536.83 495.5,1582.5C 490.195,1581.56 484.861,1581.39 479.5,1582C 476.236,1585.88 472.069,1587.72 467,1587.5C 457.611,1585.37 448.278,1583.04 439,1580.5C 435.27,1580.22 432.436,1581.72 430.5,1585C 428.232,1586.55 425.732,1587.39 423,1587.5C 417.833,1585.71 412.499,1584.71 407,1584.5C 398.558,1585.92 390.058,1586.92 381.5,1587.5C 378.833,1587.33 376.167,1587.17 373.5,1587C 363.814,1584.15 354.148,1581.32 344.5,1578.5C 338.599,1579.28 333.265,1581.45 328.5,1585C 321.612,1586.34 315.278,1585.01 309.5,1581C 306.833,1580.33 304.167,1580.33 301.5,1581C 298.512,1582.99 295.845,1585.32 293.5,1588C 290.298,1589.48 286.964,1589.82 283.5,1589C 278.169,1584.33 272.003,1581.5 265,1580.5C 262.453,1580.76 259.953,1581.26 257.5,1582C 252.446,1585.19 247.112,1587.86 241.5,1590C 238.5,1590.67 235.5,1590.67 232.5,1590C 214.041,1580.67 196.041,1581.34 178.5,1592C 170.555,1593.49 162.555,1593.82 154.5,1593C 146.308,1589.6 137.975,1586.6 129.5,1584C 123.188,1584.11 116.855,1584.27 110.5,1584.5C 108.052,1583.53 105.385,1583.19 102.5,1583.5C 102.5,1537.5 102.5,1491.5 102.5,1445.5C 233.5,1445.5 364.5,1445.5 495.5,1445.5 Z"
       id="path57" />
  </g>
  <g
     id="g58">
    <path
       style="opacity:1"
       fill="#757575"
       d="M 501.5,1444.5 C 501.833,1493.84 501.5,1543.17 500.5,1592.5C 499.893,1592.38 499.56,1592.04 499.5,1591.5C 500.167,1542.5 500.833,1493.5 501.5,1444.5 Z"
       id="path58" />
  </g>
</svg>
