<?xml version="1.0" encoding="UTF-8" standalone="no"?>
<!-- Created with Inkscape (http://www.inkscape.org/) -->

<svg
   width="72.399178mm"
   height="263.8457mm"
   viewBox="0 0 72.399178 263.8457"
   version="1.1"
   id="svg1"
   inkscape:version="1.4 (86a8ad7, 2024-10-11)"
   sodipodi:docname="Flood Guage fixed again.svg"
   xmlns:inkscape="http://www.inkscape.org/namespaces/inkscape"
   xmlns:sodipodi="http://sodipodi.sourceforge.net/DTD/sodipodi-0.dtd"
   xmlns="http://www.w3.org/2000/svg"
   xmlns:svg="http://www.w3.org/2000/svg">
  <sodipodi:namedview
     id="namedview1"
     pagecolor="#ffffff"
     bordercolor="#000000"
     borderopacity="0.25"
     inkscape:showpageshadow="2"
     inkscape:pageopacity="0.0"
     inkscape:pagecheckerboard="0"
     inkscape:deskcolor="#d1d1d1"
     inkscape:document-units="mm"
     inkscape:zoom="0.50000001"
     inkscape:cx="-158"
     inkscape:cy="616.99998"
     inkscape:window-width="1920"
     inkscape:window-height="1009"
     inkscape:window-x="-8"
     inkscape:window-y="-8"
     inkscape:window-maximized="1"
     inkscape:current-layer="layer1" />
  <defs
     id="defs1">
    <clipPath
       clipPathUnits="userSpaceOnUse"
       id="clipPath3188">
      <path
         d="M 0,841.89 H 595.276 V 0 H 0 Z"
         transform="translate(-458.06101,-351.97301)"
         id="path3188" />
    </clipPath>
    <clipPath
       clipPathUnits="userSpaceOnUse"
       id="clipPath3190">
      <path
         d="M 0,841.89 H 595.276 V 0 H 0 Z"
         id="path3190" />
    </clipPath>
    <clipPath
       clipPathUnits="userSpaceOnUse"
       id="clipPath3192">
      <path
         d="M 0,841.89 H 595.276 V 0 H 0 Z"
         transform="translate(-479.28701,-351.97301)"
         id="path3192" />
    </clipPath>
    <clipPath
       clipPathUnits="userSpaceOnUse"
       id="clipPath3194">
      <path
         d="M 0,841.89 H 595.276 V 0 H 0 Z"
         transform="translate(-446.61401,-120.498)"
         id="path3194" />
    </clipPath>
    <clipPath
       clipPathUnits="userSpaceOnUse"
       id="clipPath3204">
      <path
         d="M 0,841.89 H 595.276 V 0 H 0 Z"
         id="path3204" />
    </clipPath>
    <clipPath
       clipPathUnits="userSpaceOnUse"
       id="clipPath3206">
      <path
         d="M 0,841.89 H 595.276 V 0 H 0 Z"
         id="path3206" />
    </clipPath>
    <clipPath
       clipPathUnits="userSpaceOnUse"
       id="clipPath3208">
      <path
         d="M 0,841.89 H 595.276 V 0 H 0 Z"
         id="path3208" />
    </clipPath>
    <clipPath
       clipPathUnits="userSpaceOnUse"
       id="clipPath3210">
      <path
         d="M 0,841.89 H 595.276 V 0 H 0 Z"
         id="path3210" />
    </clipPath>
    <clipPath
       clipPathUnits="userSpaceOnUse"
       id="clipPath3212">
      <path
         d="M 0,841.89 H 595.276 V 0 H 0 Z"
         id="path3212" />
    </clipPath>
    <clipPath
       clipPathUnits="userSpaceOnUse"
       id="clipPath3214">
      <path
         d="M 0,841.89 H 595.276 V 0 H 0 Z"
         id="path3214" />
    </clipPath>
    <clipPath
       clipPathUnits="userSpaceOnUse"
       id="clipPath3216">
      <path
         d="M 0,841.89 H 595.276 V 0 H 0 Z"
         id="path3216" />
    </clipPath>
    <clipPath
       clipPathUnits="userSpaceOnUse"
       id="clipPath3218">
      <path
         d="M 0,841.89 H 595.276 V 0 H 0 Z"
         id="path3218" />
    </clipPath>
    <clipPath
       clipPathUnits="userSpaceOnUse"
       id="clipPath3220">
      <path
         d="M 0,841.89 H 595.276 V 0 H 0 Z"
         id="path3220" />
    </clipPath>
    <clipPath
       clipPathUnits="userSpaceOnUse"
       id="clipPath3222">
      <path
         d="M 0,841.89 H 595.276 V 0 H 0 Z"
         id="path3222" />
    </clipPath>
    <clipPath
       clipPathUnits="userSpaceOnUse"
       id="clipPath3224">
      <path
         d="M 0,841.89 H 595.276 V 0 H 0 Z"
         id="path3224" />
    </clipPath>
    <clipPath
       clipPathUnits="userSpaceOnUse"
       id="clipPath3226">
      <path
         d="M 0,841.89 H 595.276 V 0 H 0 Z"
         id="path3226" />
    </clipPath>
    <clipPath
       clipPathUnits="userSpaceOnUse"
       id="clipPath3228">
      <path
         d="M 0,841.89 H 595.276 V 0 H 0 Z"
         id="path3228" />
    </clipPath>
    <clipPath
       clipPathUnits="userSpaceOnUse"
       id="clipPath3230">
      <path
         d="M 0,841.89 H 595.276 V 0 H 0 Z"
         id="path3230" />
    </clipPath>
    <clipPath
       clipPathUnits="userSpaceOnUse"
       id="clipPath3232">
      <path
         d="M 0,841.89 H 595.276 V 0 H 0 Z"
         id="path3232" />
    </clipPath>
    <clipPath
       clipPathUnits="userSpaceOnUse"
       id="clipPath3234">
      <path
         d="M 0,841.89 H 595.276 V 0 H 0 Z"
         id="path3234" />
    </clipPath>
    <clipPath
       clipPathUnits="userSpaceOnUse"
       id="clipPath3236">
      <path
         d="M 0,841.89 H 595.276 V 0 H 0 Z"
         id="path3236" />
    </clipPath>
    <clipPath
       clipPathUnits="userSpaceOnUse"
       id="clipPath3238">
      <path
         d="M 0,841.89 H 595.276 V 0 H 0 Z"
         id="path3238" />
    </clipPath>
    <clipPath
       clipPathUnits="userSpaceOnUse"
       id="clipPath3240">
      <path
         d="M 0,841.89 H 595.276 V 0 H 0 Z"
         id="path3240" />
    </clipPath>
    <clipPath
       clipPathUnits="userSpaceOnUse"
       id="clipPath3242">
      <path
         d="M 0,841.89 H 595.276 V 0 H 0 Z"
         id="path3242" />
    </clipPath>
    <clipPath
       clipPathUnits="userSpaceOnUse"
       id="clipPath3244">
      <path
         d="M 0,841.89 H 595.276 V 0 H 0 Z"
         id="path3244" />
    </clipPath>
    <clipPath
       clipPathUnits="userSpaceOnUse"
       id="clipPath3246">
      <path
         d="M 0,841.89 H 595.276 V 0 H 0 Z"
         id="path3246" />
    </clipPath>
    <clipPath
       clipPathUnits="userSpaceOnUse"
       id="clipPath3248">
      <path
         d="M 0,841.89 H 595.276 V 0 H 0 Z"
         id="path3248" />
    </clipPath>
    <clipPath
       clipPathUnits="userSpaceOnUse"
       id="clipPath3250">
      <path
         d="M 0,841.89 H 595.276 V 0 H 0 Z"
         id="path3250" />
    </clipPath>
    <clipPath
       clipPathUnits="userSpaceOnUse"
       id="clipPath3252">
      <path
         d="M 0,841.89 H 595.276 V 0 H 0 Z"
         id="path3252" />
    </clipPath>
    <clipPath
       clipPathUnits="userSpaceOnUse"
       id="clipPath3254">
      <path
         d="M 0,841.89 H 595.276 V 0 H 0 Z"
         id="path3254" />
    </clipPath>
    <clipPath
       clipPathUnits="userSpaceOnUse"
       id="clipPath3256">
      <path
         d="M 0,841.89 H 595.276 V 0 H 0 Z"
         id="path3256" />
    </clipPath>
    <clipPath
       clipPathUnits="userSpaceOnUse"
       id="clipPath3258">
      <path
         d="M 0,841.89 H 595.276 V 0 H 0 Z"
         id="path3258" />
    </clipPath>
    <clipPath
       clipPathUnits="userSpaceOnUse"
       id="clipPath3260">
      <path
         d="M 0,841.89 H 595.276 V 0 H 0 Z"
         id="path3260" />
    </clipPath>
    <clipPath
       clipPathUnits="userSpaceOnUse"
       id="clipPath3262">
      <path
         d="M 0,841.89 H 595.276 V 0 H 0 Z"
         id="path3262" />
    </clipPath>
    <clipPath
       clipPathUnits="userSpaceOnUse"
       id="clipPath3264">
      <path
         d="M 0,841.89 H 595.276 V 0 H 0 Z"
         transform="translate(-457.62501,-351.97301)"
         id="path3264" />
    </clipPath>
  </defs>
  <g
     inkscape:label="Layer 1"
     inkscape:groupmode="layer"
     id="layer1"
     transform="translate(-75.698279,-10.192256)">
    <g
       id="g14">
      <path
         id="path3187"
         d="m 0,0 h 41.312 c 6.952,0 12.587,-5.636 12.587,-12.588 V -175.75 H -11.447 V -11.448 C -11.447,-5.125 -6.322,0 0,0"
         style="fill:#e01f26;fill-opacity:1;fill-rule:nonzero;stroke:none"
         transform="matrix(1.0922901,0,0,-1.0239999,88.712373,10.669952)"
         clip-path="url(#clipPath3188)" />
      <path
         id="path3189"
         d="m 446.614,178.533 h 65.347 v -58.035 h -65.347 z"
         style="fill:#000000;fill-opacity:1;fill-rule:nonzero;stroke:none"
         transform="matrix(1.0922901,0,0,-1.0239999,-411.62315,371.09026)"
         clip-path="url(#clipPath3190)" />
      <path
         id="path3191"
         d="M 0,0 V -231.476"
         style="fill:none;stroke:#000000;stroke-width:0.933;stroke-linecap:butt;stroke-linejoin:miter;stroke-miterlimit:10;stroke-dasharray:none;stroke-opacity:1"
         transform="matrix(1.0922901,0,0,-1.0239999,111.89732,10.669952)"
         clip-path="url(#clipPath3192)" />
      <path
         id="path3193"
         d="m 0,0 v -23.624 c 0,0 2.774,-0.381 4.019,0 1.243,0.381 4.4,-1.619 5.644,-1.619 1.244,0 3.253,-0.191 5.358,1.142 2.105,1.334 6.028,-0.19 6.028,-0.19 0,0 1.434,-1.333 4.4,0.572 2.966,1.905 3.566,-1.191 5.837,-0.857 1.739,0.255 1.626,2 2.966,1.429 1.339,-0.572 2.487,-1.144 3.54,-0.667 1.052,0.476 1.722,1.334 3.253,0.857 1.53,-0.477 4.114,-1.715 6.601,-1.238 2.488,0.476 3.382,0.69 4.593,0.094 1.129,-0.555 2.2,0.191 2.87,0.858 0.669,0.667 2.919,-0.691 4.784,-1.048 0.775,-0.148 1.627,0.096 2.488,0.857 0.86,0.763 2.966,-0.38 2.966,-0.38 V 0 Z"
         style="fill:#ffffff;stroke:#000000;stroke-width:0.935;stroke-linecap:butt;stroke-linejoin:miter;stroke-miterlimit:10;stroke-dasharray:none;stroke-opacity:1"
         transform="matrix(1.0922901,0,0,-1.0239999,76.208925,247.70032)"
         clip-path="url(#clipPath3194)" />
      <text
         id="text3194"
         xml:space="preserve"
         transform="scale(1.0032546,0.99675595)"
         x="84.436508"
         y="37.224236"
         style="font-size:13.065px;stroke-width:1.08875"><tspan
           id="tspan3194"
           style="font-variant:normal;font-weight:700;font-stretch:normal;font-size:20.9608px;font-family:Arial;writing-mode:lr-tb;fill:#ffffff;fill-opacity:1;fill-rule:nonzero;stroke:none;stroke-width:1.08875"
           x="84.436508"
           y="37.224236">Ft</tspan></text>
      <text
         id="text3195"
         xml:space="preserve"
         transform="scale(1.0032559,0.99675469)"
         x="90.660759"
         y="59.928364"
         style="font-size:13.0649px;stroke-width:1.08875"><tspan
           id="tspan3195"
           style="font-variant:normal;font-weight:700;font-stretch:normal;font-size:17.248px;font-family:Arial;writing-mode:lr-tb;fill:#ffffff;fill-opacity:1;fill-rule:nonzero;stroke:none;stroke-width:1.08875"
           x="90.660759"
           y="59.928364">6</tspan></text>
      <g
         id="text3196"
         style="font-size:13.0649px;stroke-width:1.08875"
         transform="scale(1.0032559,0.99675471)"
         aria-label="51.50.514321">
        <path
           style="font-weight:700;font-size:17.248px;font-family:Arial;fill:#ffffff"
           d="m 119.33409,190.58638 q 1.79386,0 2.80449,1.28013 1.20432,1.51594 1.20432,5.02786 0,3.5035 -1.21275,5.03628 -1.0022,1.26328 -2.79606,1.26328 -1.80228,0 -2.90555,-1.38119 -1.10326,-1.38961 -1.10326,-4.94364 0,-3.48665 1.21275,-5.01944 1.0022,-1.26328 2.79606,-1.26328 z m 0,1.9623 q -0.42951,0 -0.76639,0.27792 -0.33687,0.2695 -0.52216,0.97694 -0.24423,0.91798 -0.24423,3.09083 0,2.17284 0.21897,2.98976 0.21897,0.8085 0.54742,1.078 0.33688,0.2695 0.76639,0.2695 0.42952,0 0.76639,-0.2695 0.33688,-0.27792 0.52216,-0.98536 0.24423,-0.90956 0.24423,-3.0824 0,-2.17285 -0.21897,-2.98135 -0.21896,-0.81692 -0.55584,-1.08642 -0.32845,-0.27792 -0.75797,-0.27792 z m 6.09744,10.4347 v -2.36654 h 2.36655 v 2.36654 z m 4.32042,-3.17504 2.35812,-0.24424 q 0.10107,0.80008 0.59796,1.27171 0.49689,0.4632 1.14537,0.4632 0.74113,0 1.25486,-0.59795 0.51374,-0.60638 0.51374,-1.81913 0,-1.13695 -0.51374,-1.70122 -0.50531,-0.57269 -1.32223,-0.57269 -1.01905,0 -1.82755,0.90114 l -1.92019,-0.27792 1.21275,-6.42589 h 6.25746 v 2.21496 h -4.4636 l -0.37056,2.09704 q 0.79166,-0.39583 1.617,-0.39583 1.57489,0 2.66973,1.14538 1.09485,1.14537 1.09485,2.97292 0,1.52436 -0.8843,2.72027 -1.20433,1.63384 -3.34348,1.63384 -1.70964,0 -2.78764,-0.91798 -1.078,-0.91799 -1.28855,-2.46761 z"
           id="path2" />
        <path
           style="font-weight:700;font-size:17.248px;font-family:Arial;fill:#ffffff"
           d="m 122.04445,146.9101 h -2.36655 v -8.91877 q -1.29697,1.21275 -3.05714,1.79386 v -2.14758 q 0.92641,-0.30319 2.01283,-1.14537 1.08642,-0.85061 1.49067,-1.97914 h 1.92019 z"
           id="path3" />
        <path
           style="font-weight:700;font-size:17.248px;font-family:Arial;fill:#ffffff"
           d="m 96.033915,123.50454 v -2.48445 H 90.98079 v -2.07178 l 5.356312,-7.84077 h 1.987563 v 7.83234 h 1.532781 v 2.08021 h -1.532781 v 2.48445 z m 0,-4.56466 v -4.21936 l -2.838172,4.21936 z"
           id="path4" />
        <path
           style="font-weight:700;font-size:17.248px;font-family:Arial;fill:#ffffff"
           d="m 91.309243,152.01652 2.29075,-0.27792 q 0.109485,0.87588 0.589531,1.33908 0.480047,0.4632 1.162219,0.4632 0.732703,0 1.229594,-0.55584 0.505312,-0.55584 0.505312,-1.49909 0,-0.89272 -0.480047,-1.41488 -0.480046,-0.52216 -1.17064,-0.52216 -0.454781,0 -1.086422,0.17686 l 0.261078,-1.92861 q 0.960094,0.0253 1.465406,-0.41267 0.505313,-0.44636 0.505313,-1.17906 0,-0.62322 -0.370563,-0.99378 -0.370562,-0.37056 -0.985359,-0.37056 -0.606375,0 -1.035891,0.42109 -0.429515,0.42109 -0.522156,1.22959 l -2.181265,-0.37056 q 0.22739,-1.12011 0.682172,-1.78544 0.463203,-0.67375 1.280124,-1.05273 0.825344,-0.38741 1.844391,-0.38741 1.743328,0 2.796062,1.11169 0.867453,0.90956 0.867453,2.05494 0,1.62542 -1.777015,2.59394 1.061156,0.22739 1.692797,1.01904 0.640062,0.79166 0.640062,1.91177 0,1.62542 -1.187484,2.77079 -1.187484,1.14538 -2.956078,1.14538 -1.675953,0 -2.779219,-0.96009 -1.103265,-0.96852 -1.280125,-2.52657 z"
           id="path5" />
        <path
           style="font-weight:700;font-size:17.248px;font-family:Arial;fill:#ffffff"
           d="m 99.385821,184.88261 v 2.19811 h -8.295546 q 0.13475,-1.24644 0.8085,-2.35813 0.67375,-1.12011 2.661312,-2.9645 1.600156,-1.49067 1.962297,-2.02125 0.488468,-0.7327 0.488468,-1.44856 0,-0.79165 -0.429515,-1.21275 -0.421094,-0.42951 -1.170641,-0.42951 -0.741125,0 -1.179062,0.44636 -0.437938,0.44636 -0.505313,1.48225 l -2.358125,-0.23582 q 0.210547,-1.95387 1.322235,-2.80448 1.111687,-0.85061 2.779218,-0.85061 1.827547,0 2.87186,0.98536 1.044312,0.98536 1.044312,2.45076 0,0.83377 -0.303187,1.59174 -0.294766,0.74955 -0.94325,1.57489 -0.429516,0.54742 -1.549625,1.57489 -1.12011,1.02747 -1.423297,1.36434 -0.294766,0.33688 -0.480047,0.65691 z"
           id="path6" />
        <path
           style="font-weight:700;font-size:17.248px;font-family:Arial;fill:#ffffff"
           d="m 97.44879,218.86879 h -2.366547 v -8.91877 q -1.296969,1.21275 -3.05714,1.79386 v -2.14757 q 0.926406,-0.30319 2.012828,-1.14538 1.086422,-0.85061 1.490671,-1.97914 h 1.920188 z"
           id="path7" />
      </g>
      <text
         id="text3202"
         xml:space="preserve"
         transform="scale(1.0032546,0.99675595)"
         x="121.30147"
         y="37.152325"
         style="font-size:13.065px;stroke-width:1.08875"><tspan
           id="tspan3203"
           style="font-variant:normal;font-weight:700;font-stretch:normal;font-size:20.9608px;font-family:Arial;writing-mode:lr-tb;fill:#ffffff;fill-opacity:1;fill-rule:nonzero;stroke:none;stroke-width:1.08875"
           x="121.30147"
           y="37.152325">M</tspan></text>
      <path
         id="path3203"
         d="m 456.91,306.965 h -10.296 v 6.715 h 10.296 z"
         style="fill:#ffffff;fill-opacity:1;fill-rule:nonzero;stroke:none"
         transform="matrix(1.0922901,0,0,-1.0239999,-411.62315,371.09026)"
         clip-path="url(#clipPath3204)" />
      <path
         id="path3205"
         d="m 452.619,292.672 h -6.005 v 4.23 h 6.005 z"
         style="fill:#ffffff;fill-opacity:1;fill-rule:nonzero;stroke:none"
         transform="matrix(1.0922901,0,0,-1.0239999,-411.62315,371.09026)"
         clip-path="url(#clipPath3206)" />
      <path
         id="path3207"
         d="m 456.91,275.893 h -10.296 v 6.716 h 10.296 z"
         style="fill:#ffffff;fill-opacity:1;fill-rule:nonzero;stroke:none"
         transform="matrix(1.0922901,0,0,-1.0239999,-411.62315,371.09026)"
         clip-path="url(#clipPath3208)" />
      <path
         id="path3209"
         d="m 452.619,261.6 h -6.005 v 4.23 h 6.005 z"
         style="fill:#ffffff;fill-opacity:1;fill-rule:nonzero;stroke:none"
         transform="matrix(1.0922901,0,0,-1.0239999,-411.62315,371.09026)"
         clip-path="url(#clipPath3210)" />
      <path
         id="path3211"
         d="m 456.91,244.822 h -10.296 v 6.716 h 10.296 z"
         style="fill:#ffffff;fill-opacity:1;fill-rule:nonzero;stroke:none"
         transform="matrix(1.0922901,0,0,-1.0239999,-411.62315,371.09026)"
         clip-path="url(#clipPath3212)" />
      <path
         id="path3213"
         d="m 452.619,230.529 h -6.005 v 4.23 h 6.005 z"
         style="fill:#ffffff;fill-opacity:1;fill-rule:nonzero;stroke:none"
         transform="matrix(1.0922901,0,0,-1.0239999,-411.62315,371.09026)"
         clip-path="url(#clipPath3214)" />
      <path
         id="path3215"
         d="m 456.91,213.751 h -10.296 v 6.716 h 10.296 z"
         style="fill:#ffffff;fill-opacity:1;fill-rule:nonzero;stroke:none"
         transform="matrix(1.0922901,0,0,-1.0239999,-411.62315,371.09026)"
         clip-path="url(#clipPath3216)" />
      <path
         id="path3217"
         d="m 511.961,219.39 h -18.853 v 6.716 h 18.853 z"
         style="fill:#ffffff;fill-opacity:1;fill-rule:nonzero;stroke:none"
         transform="matrix(1.0922901,0,0,-1.0239999,-411.62315,371.09026)"
         clip-path="url(#clipPath3218)" />
      <path
         id="path3219"
         d="m 452.619,199.458 h -6.005 v 4.23 h 6.005 z"
         style="fill:#ffffff;fill-opacity:1;fill-rule:nonzero;stroke:none"
         transform="matrix(1.0922901,0,0,-1.0239999,-411.62315,371.09026)"
         clip-path="url(#clipPath3220)" />
      <path
         id="path3221"
         d="m 456.91,182.68 h -10.296 v 6.716 h 10.296 z"
         style="fill:#ffffff;fill-opacity:1;fill-rule:nonzero;stroke:none"
         transform="matrix(1.0922901,0,0,-1.0239999,-411.62315,371.09026)"
         clip-path="url(#clipPath3222)" />
      <path
         id="path3223"
         d="m 452.619,168.387 h -6.005 v 4.23 h 6.005 z"
         style="fill:#ffffff;fill-opacity:1;fill-rule:nonzero;stroke:none"
         transform="matrix(1.0922901,0,0,-1.0239999,-411.62315,371.09026)"
         clip-path="url(#clipPath3224)" />
      <path
         id="path3225"
         d="m 456.91,151.608 h -10.296 v 6.716 h 10.296 z"
         style="fill:#ffffff;fill-opacity:1;fill-rule:nonzero;stroke:none"
         transform="matrix(1.0922901,0,0,-1.0239999,-411.62315,371.09026)"
         clip-path="url(#clipPath3226)" />
      <path
         id="path3227"
         d="m 452.619,137.315 h -6.005 v 4.23 h 6.005 z"
         style="fill:#ffffff;fill-opacity:1;fill-rule:nonzero;stroke:none"
         transform="matrix(1.0922901,0,0,-1.0239999,-411.62315,371.09026)"
         clip-path="url(#clipPath3228)" />
      <path
         id="path3229"
         d="m 511.961,127.027 h -6.006 v 4.23 h 6.006 z"
         style="fill:#ffffff;fill-opacity:1;fill-rule:nonzero;stroke:none"
         transform="matrix(1.0922901,0,0,-1.0239999,-411.62315,371.09026)"
         clip-path="url(#clipPath3230)" />
      <path
         id="path3231"
         d="m 511.961,137.428 h -6.006 v 4.23 h 6.006 z"
         style="fill:#ffffff;fill-opacity:1;fill-rule:nonzero;stroke:none"
         transform="matrix(1.0922901,0,0,-1.0239999,-411.62315,371.09026)"
         clip-path="url(#clipPath3232)" />
      <path
         id="path3233"
         d="m 511.961,147.828 h -6.006 v 4.23 h 6.006 z"
         style="fill:#ffffff;fill-opacity:1;fill-rule:nonzero;stroke:none"
         transform="matrix(1.0922901,0,0,-1.0239999,-411.62315,371.09026)"
         clip-path="url(#clipPath3234)" />
      <path
         id="path3235"
         d="m 511.961,158.229 h -6.006 v 4.23 h 6.006 z"
         style="fill:#ffffff;fill-opacity:1;fill-rule:nonzero;stroke:none"
         transform="matrix(1.0922901,0,0,-1.0239999,-411.62315,371.09026)"
         clip-path="url(#clipPath3236)" />
      <path
         id="path3237"
         d="m 511.961,168.63 h -6.006 v 4.23 h 6.006 z"
         style="fill:#ffffff;fill-opacity:1;fill-rule:nonzero;stroke:none"
         transform="matrix(1.0922901,0,0,-1.0239999,-411.62315,371.09026)"
         clip-path="url(#clipPath3238)" />
      <path
         id="path3239"
         d="m 511.961,179.03 h -6.006 v 4.23 h 6.006 z"
         style="fill:#ffffff;fill-opacity:1;fill-rule:nonzero;stroke:none"
         transform="matrix(1.0922901,0,0,-1.0239999,-411.62315,371.09026)"
         clip-path="url(#clipPath3240)" />
      <path
         id="path3241"
         d="m 511.961,189.431 h -6.006 v 4.23 h 6.006 z"
         style="fill:#ffffff;fill-opacity:1;fill-rule:nonzero;stroke:none"
         transform="matrix(1.0922901,0,0,-1.0239999,-411.62315,371.09026)"
         clip-path="url(#clipPath3242)" />
      <path
         id="path3243"
         d="m 511.961,199.832 h -6.006 v 4.229 h 6.006 z"
         style="fill:#ffffff;fill-opacity:1;fill-rule:nonzero;stroke:none"
         transform="matrix(1.0922901,0,0,-1.0239999,-411.62315,371.09026)"
         clip-path="url(#clipPath3244)" />
      <path
         id="path3245"
         d="m 511.961,210.232 h -6.006 v 4.23 h 6.006 z"
         style="fill:#ffffff;fill-opacity:1;fill-rule:nonzero;stroke:none"
         transform="matrix(1.0922901,0,0,-1.0239999,-411.62315,371.09026)"
         clip-path="url(#clipPath3246)" />
      <path
         id="path3247"
         d="m 511.961,231.033 h -6.006 v 4.23 h 6.006 z"
         style="fill:#ffffff;fill-opacity:1;fill-rule:nonzero;stroke:none"
         transform="matrix(1.0922901,0,0,-1.0239999,-411.62315,371.09026)"
         clip-path="url(#clipPath3248)" />
      <path
         id="path3249"
         d="m 511.961,241.433 h -6.006 v 4.23 h 6.006 z"
         style="fill:#ffffff;fill-opacity:1;fill-rule:nonzero;stroke:none"
         transform="matrix(1.0922901,0,0,-1.0239999,-411.62315,371.09026)"
         clip-path="url(#clipPath3250)" />
      <path
         id="path3251"
         d="m 511.961,251.835 h -6.006 v 4.229 h 6.006 z"
         style="fill:#ffffff;fill-opacity:1;fill-rule:nonzero;stroke:none"
         transform="matrix(1.0922901,0,0,-1.0239999,-411.62315,371.09026)"
         clip-path="url(#clipPath3252)" />
      <path
         id="path3253"
         d="m 511.961,262.235 h -6.006 v 4.23 h 6.006 z"
         style="fill:#ffffff;fill-opacity:1;fill-rule:nonzero;stroke:none"
         transform="matrix(1.0922901,0,0,-1.0239999,-411.62315,371.09026)"
         clip-path="url(#clipPath3254)" />
      <path
         id="path3255"
         d="m 511.961,272.636 h -6.006 v 4.23 h 6.006 z"
         style="fill:#ffffff;fill-opacity:1;fill-rule:nonzero;stroke:none"
         transform="matrix(1.0922901,0,0,-1.0239999,-411.62315,371.09026)"
         clip-path="url(#clipPath3256)" />
      <path
         id="path3257"
         d="m 511.961,283.036 h -6.006 v 4.23 h 6.006 z"
         style="fill:#ffffff;fill-opacity:1;fill-rule:nonzero;stroke:none"
         transform="matrix(1.0922901,0,0,-1.0239999,-411.62315,371.09026)"
         clip-path="url(#clipPath3258)" />
      <path
         id="path3259"
         d="m 511.961,293.436 h -6.006 v 4.23 h 6.006 z"
         style="fill:#ffffff;fill-opacity:1;fill-rule:nonzero;stroke:none"
         transform="matrix(1.0922901,0,0,-1.0239999,-411.62315,371.09026)"
         clip-path="url(#clipPath3260)" />
      <path
         id="path3261"
         d="m 511.961,303.838 h -6.006 v 4.23 h 6.006 z"
         style="fill:#ffffff;fill-opacity:1;fill-rule:nonzero;stroke:none"
         transform="matrix(1.0922901,0,0,-1.0239999,-411.62315,371.09026)"
         clip-path="url(#clipPath3262)" />
      <path
         id="path3263"
         d="m 0,0 h 41.577 c 7.047,0 12.759,-5.712 12.759,-12.758 V -231.476 H -11.011 V -11.011 C -11.011,-4.93 -6.081,0 0,0 Z"
         style="fill:none;stroke:#000000;stroke-width:0.933;stroke-linecap:butt;stroke-linejoin:miter;stroke-miterlimit:10;stroke-dasharray:none;stroke-opacity:1"
         transform="matrix(1.0922901,0,0,-1.0239999,88.236137,10.669952)"
         clip-path="url(#clipPath3264)" />
      <path
         id="path1-1"
         style="font-weight:700;font-size:17.248px;font-family:Arial;fill:#ffffff;stroke-width:1.08875"
         d="m 94.313519,79.487665 -1.216463,6.405294 1.926497,0.276985 c 0.540755,-0.59881 1.151904,-0.898136 1.83348,-0.898136 0.546388,0 0.988562,0.189955 1.326534,0.570508 0.343605,0.374956 0.515214,0.940512 0.515214,1.69602 0,0.805876 -0.171609,1.410388 -0.515214,1.813326 -0.343605,0.397342 -0.763146,0.59583 -1.258838,0.59583 -0.433731,0 -0.816945,-0.154188 -1.149284,-0.461988 -0.332339,-0.313396 -0.532368,-0.735451 -0.599963,-1.267106 l -2.365747,0.243396 c 0.14082,1.029731 0.571937,1.849278 1.292944,2.459282 0.721007,0.610003 1.653257,0.915189 2.796729,0.915189 1.430747,0 2.548817,-0.543147 3.354312,-1.628841 0.59145,-0.794683 0.88677,-1.698004 0.88677,-2.710946 0,-1.21441 -0.36585,-2.202538 -1.09812,-2.963643 -0.732274,-0.761105 -1.625045,-1.141532 -2.678391,-1.141532 -0.552021,0 -1.092635,0.131779 -1.622124,0.394808 l 0.371554,-2.090312 h 4.478281 v -2.208134 z" />
      <path
         id="path1"
         style="font-weight:700;font-size:17.248px;font-family:Arial;fill:#ffffff;stroke-width:1.08875"
         d="m 120.16069,79.203114 c -0.27038,0.74991 -0.76887,1.40726 -1.49551,1.97249 -0.72664,0.55963 -1.3999,0.94058 -2.01952,1.14205 v 2.14044 c 1.17727,-0.38615 2.19954,-0.98213 3.067,-1.78801 v 8.8899 h 2.37453 v -12.35687 z m 11.82047,0.21807 -1.21646,6.4053 1.92598,0.27698 c 0.54075,-0.5988 1.1519,-0.89813 1.83348,-0.89813 0.54638,0 0.98856,0.18995 1.32653,0.5705 0.34361,0.37496 0.51573,0.94052 0.51573,1.69603 0,0.80588 -0.17212,1.41038 -0.51573,1.81332 -0.34361,0.39734 -0.76315,0.59583 -1.25884,0.59583 -0.43373,0 -0.81642,-0.15419 -1.14876,-0.46199 -0.33234,-0.3134 -0.53238,-0.73545 -0.59997,-1.2671 l -2.36574,0.24339 c 0.14082,1.02974 0.57142,1.84928 1.29242,2.45928 0.72101,0.61001 1.65326,0.91519 2.79673,0.91519 1.43075,0 2.54882,-0.54314 3.35432,-1.62884 0.59145,-0.79468 0.88728,-1.698 0.88728,-2.71094 0,-1.21442 -0.36585,-2.20255 -1.09812,-2.96365 -0.73227,-0.7611 -1.62556,-1.14153 -2.67891,-1.14153 -0.55202,0 -1.09263,0.13127 -1.62212,0.39429 l 0.37207,-2.08979 h 4.47776 v -2.20814 z m -5.8384,9.77977 v 2.35903 h 2.37401 v -2.35903 z" />
    </g>
  </g>
</svg>
