<?xml version="1.0" encoding="UTF-8" standalone="no"?>
<!-- Created with Inkscape (http://www.inkscape.org/) -->

<svg
   width="44.999977mm"
   height="59.999737mm"
   viewBox="0 0 44.999977 59.999737"
   version="1.1"
   id="svg1"
   inkscape:version="1.4 (86a8ad7, 2024-10-11)"
   sodipodi:docname="foot over bridge.svg"
   xmlns:inkscape="http://www.inkscape.org/namespaces/inkscape"
   xmlns:sodipodi="http://sodipodi.sourceforge.net/DTD/sodipodi-0.dtd"
   xmlns="http://www.w3.org/2000/svg"
   xmlns:svg="http://www.w3.org/2000/svg">
  <sodipodi:namedview
     id="namedview1"
     pagecolor="#ffffff"
     bordercolor="#000000"
     borderopacity="0.25"
     inkscape:showpageshadow="2"
     inkscape:pageopacity="0.0"
     inkscape:pagecheckerboard="0"
     inkscape:deskcolor="#d1d1d1"
     inkscape:document-units="mm"
     inkscape:zoom="0.71891835"
     inkscape:cx="434.68079"
     inkscape:cy="335.92132"
     inkscape:window-width="1920"
     inkscape:window-height="1009"
     inkscape:window-x="-8"
     inkscape:window-y="-8"
     inkscape:window-maximized="1"
     inkscape:current-layer="g4075" />
  <defs
     id="defs1">
    <inkscape:path-effect
       effect="fillet_chamfer"
       id="path-effect1"
       is_visible="true"
       lpeversion="1"
       nodesatellites_param="F,0,0,1,0,0,0,1 @ F,0,0,1,0,0,0,1 @ F,0,0,1,0,0,0,1 @ F,0,0,1,0,0,0,1"
       radius="0"
       unit="px"
       method="auto"
       mode="F"
       chamfer_steps="1"
       flexible="false"
       use_knot_distance="true"
       apply_no_radius="true"
       apply_with_radius="true"
       only_selected="false"
       hide_knots="false" />
    <clipPath
       clipPathUnits="userSpaceOnUse"
       id="clipPath4010">
      <path
         d="M 0,841.89 H 595.276 V 0 H 0 Z"
         transform="translate(-166.51401,-731.52902)"
         id="path4010" />
    </clipPath>
    <clipPath
       clipPathUnits="userSpaceOnUse"
       id="clipPath4012">
      <path
         d="M 0,841.89 H 595.276 V 0 H 0 Z"
         transform="translate(-59.355001,-725.79102)"
         id="path4012" />
    </clipPath>
    <clipPath
       clipPathUnits="userSpaceOnUse"
       id="clipPath4014">
      <path
         d="M 0,841.89 H 595.276 V 0 H 0 Z"
         id="path4014" />
    </clipPath>
    <clipPath
       clipPathUnits="userSpaceOnUse"
       id="clipPath4016">
      <path
         d="M 0,841.89 H 595.276 V 0 H 0 Z"
         transform="translate(-132.939,-632.53702)"
         id="path4016" />
    </clipPath>
    <clipPath
       clipPathUnits="userSpaceOnUse"
       id="clipPath4018">
      <path
         d="M 0,841.89 H 595.276 V 0 H 0 Z"
         transform="translate(-446.64601,-731.52902)"
         id="path4018" />
    </clipPath>
    <clipPath
       clipPathUnits="userSpaceOnUse"
       id="clipPath4020">
      <path
         d="M 0,841.89 H 595.276 V 0 H 0 Z"
         transform="translate(-339.48701,-725.79102)"
         id="path4020" />
    </clipPath>
    <clipPath
       clipPathUnits="userSpaceOnUse"
       id="clipPath4022">
      <path
         d="M 0,841.89 H 595.276 V 0 H 0 Z"
         id="path4022" />
    </clipPath>
    <clipPath
       clipPathUnits="userSpaceOnUse"
       id="clipPath4024">
      <path
         d="M 0,841.89 H 595.276 V 0 H 0 Z"
         transform="translate(-409.44701,-659.97202)"
         id="path4024" />
    </clipPath>
    <clipPath
       clipPathUnits="userSpaceOnUse"
       id="clipPath1000">
      <path
         d="M 0,0 H 595.276 V 841.89 H 0 Z"
         transform="translate(-166.51401,-731.47102)"
         id="path1000" />
    </clipPath>
    <clipPath
       clipPathUnits="userSpaceOnUse"
       id="clipPath1002">
      <path
         d="M 0,0 H 595.276 V 841.89 H 0 Z"
         transform="translate(-59.354602,-725.73102)"
         id="path1002" />
    </clipPath>
    <clipPath
       clipPathUnits="userSpaceOnUse"
       id="clipPath1004">
      <path
         d="M 0,0 H 595.276 V 841.89 H 0 Z"
         transform="translate(-94.148605,-610.35401)"
         id="path1004" />
    </clipPath>
    <clipPath
       clipPathUnits="userSpaceOnUse"
       id="clipPath1006">
      <path
         d="M 0,0 H 595.276 V 841.89 H 0 Z"
         id="path1006" />
    </clipPath>
    <clipPath
       clipPathUnits="userSpaceOnUse"
       id="clipPath1008">
      <path
         d="M 0,0 H 595.276 V 841.89 H 0 Z"
         transform="translate(-141.47001,-653.96302)"
         id="path1008" />
    </clipPath>
    <clipPath
       clipPathUnits="userSpaceOnUse"
       id="clipPath1010">
      <path
         d="M 0,0 H 595.276 V 841.89 H 0 Z"
         id="path1010" />
    </clipPath>
    <clipPath
       clipPathUnits="userSpaceOnUse"
       id="clipPath1012">
      <path
         d="M 0,0 H 595.276 V 841.89 H 0 Z"
         transform="translate(-122.364,-682.30502)"
         id="path1012" />
    </clipPath>
    <clipPath
       clipPathUnits="userSpaceOnUse"
       id="clipPath1156">
      <path
         d="M 0,841.89 H 595.276 V 0 H 0 Z"
         transform="translate(-446.60801,-731.50002)"
         id="path1156" />
    </clipPath>
    <clipPath
       clipPathUnits="userSpaceOnUse"
       id="clipPath1158">
      <path
         d="M 0,841.89 H 595.276 V 0 H 0 Z"
         transform="translate(-339.44801,-725.76202)"
         id="path1158" />
    </clipPath>
    <clipPath
       clipPathUnits="userSpaceOnUse"
       id="clipPath1160">
      <path
         d="M 0,841.89 H 595.276 V 0 H 0 Z"
         id="path1160" />
    </clipPath>
    <clipPath
       clipPathUnits="userSpaceOnUse"
       id="clipPath1162">
      <path
         d="M 0,841.89 H 595.276 V 0 H 0 Z"
         transform="translate(-399.90201,-688.14002)"
         id="path1162" />
    </clipPath>
    <clipPath
       clipPathUnits="userSpaceOnUse"
       id="clipPath1166">
      <path
         d="M 0,841.89 H 595.276 V 0 H 0 Z"
         transform="translate(-168.13701,-485.24801)"
         id="path1166" />
    </clipPath>
    <clipPath
       clipPathUnits="userSpaceOnUse"
       id="clipPath1168">
      <path
         d="M 0,841.89 H 595.276 V 0 H 0 Z"
         transform="translate(-60.977702,-479.51001)"
         id="path1168" />
    </clipPath>
    <clipPath
       clipPathUnits="userSpaceOnUse"
       id="clipPath1170">
      <path
         d="M 0,841.89 H 595.276 V 0 H 0 Z"
         transform="translate(-138.622,-407.33201)"
         id="path1170" />
    </clipPath>
    <clipPath
       clipPathUnits="userSpaceOnUse"
       id="clipPath1014">
      <path
         d="M 0,0 H 595.276 V 841.89 H 0 Z"
         transform="translate(-446.64601,-483.13801)"
         id="path1014" />
    </clipPath>
    <clipPath
       clipPathUnits="userSpaceOnUse"
       id="clipPath1016">
      <path
         d="M 0,0 H 595.276 V 841.89 H 0 Z"
         transform="translate(-339.48601,-477.40001)"
         id="path1016" />
    </clipPath>
    <clipPath
       clipPathUnits="userSpaceOnUse"
       id="clipPath1018">
      <path
         d="M 0,0 H 595.276 V 841.89 H 0 Z"
         id="path1018" />
    </clipPath>
    <clipPath
       clipPathUnits="userSpaceOnUse"
       id="clipPath1020">
      <path
         d="M 0,0 H 595.276 V 841.89 H 0 Z"
         transform="translate(-372.54301,-363.65801)"
         id="path1020" />
    </clipPath>
    <clipPath
       clipPathUnits="userSpaceOnUse"
       id="clipPath1022">
      <path
         d="M 0,0 H 595.276 V 841.89 H 0 Z"
         transform="translate(-387.08701,-419.46101)"
         id="path1022" />
    </clipPath>
    <clipPath
       clipPathUnits="userSpaceOnUse"
       id="clipPath1024">
      <path
         d="M 0,0 H 595.276 V 841.89 H 0 Z"
         transform="translate(-374.19801,-401.77601)"
         id="path1024" />
    </clipPath>
    <clipPath
       clipPathUnits="userSpaceOnUse"
       id="clipPath1032">
      <path
         d="M 0,0 H 595.276 V 841.89 H 0 Z"
         transform="translate(-92.411305,-116.979)"
         id="path1032" />
    </clipPath>
    <clipPath
       clipPathUnits="userSpaceOnUse"
       id="clipPath1034">
      <path
         d="M 0,0 H 595.276 V 841.89 H 0 Z"
         transform="translate(-99.0763,-172.504)"
         id="path1034" />
    </clipPath>
    <clipPath
       clipPathUnits="userSpaceOnUse"
       id="clipPath1036">
      <path
         d="M 0,0 H 595.276 V 841.89 H 0 Z"
         transform="translate(-114.007,-151.57401)"
         id="path1036" />
    </clipPath>
  </defs>
  <g
     inkscape:label="Layer 1"
     inkscape:groupmode="layer"
     id="layer1"
     transform="translate(-82.549999,-118.53333)">
    <g
       id="g4075"
       transform="matrix(0.26458333,0,0,0.26458333,65.313981,79.600425)">
      <g
         id="g1">
        <path
           style="fill:#ffffff;stroke:#ffffff;stroke-width:0.877059"
           id="rect1"
           width="169.20169"
           height="225.89459"
           x="65.582489"
           y="147.58603"
           inkscape:path-effect="#path-effect1"
           sodipodi:type="rect"
           d="M 65.582489,147.58603 H 234.78418 V 373.48062 H 65.582489 Z" />
        <path
           id="path1013"
           d="m 0,0 h -107.832 c -5.417,0 -9.823,-4.346 -9.823,-9.69 v -150.697 c 0,-5.342 4.406,-9.691 9.823,-9.691 H 0 c 5.458,0 9.903,4.349 9.903,9.691 V -9.69 C 9.903,-4.346 5.458,0 0,0 m 0,-0.571 c 5.146,0 9.331,-4.092 9.331,-9.119 v -150.697 c 0,-5.028 -4.185,-9.119 -9.331,-9.119 h -107.832 c -5.101,0 -9.251,4.091 -9.251,9.119 V -9.69 c 0,5.027 4.15,9.119 9.251,9.119 L 0,-0.571"
           style="fill:#4467a5;fill-opacity:1;fill-rule:nonzero;stroke:none"
           transform="matrix(1.3333333,0,0,-1.3333333,222.018,147.14799)"
           clip-path="url(#clipPath1014)" />
        <path
           id="path1015"
           d="m 0,0 c -2.552,0 -4.628,-2.079 -4.628,-4.636 v -149.335 c 0,-2.553 2.076,-4.633 4.628,-4.633 h 106.485 c 2.594,0 4.704,2.08 4.704,4.633 V -4.636 c 0,2.557 -2.11,4.636 -4.704,4.636 z"
           style="fill:#4467a5;fill-opacity:1;fill-rule:nonzero;stroke:none"
           transform="matrix(1.3333333,0,0,-1.3333333,79.138,154.79866)"
           clip-path="url(#clipPath1016)" />
        <path
           id="path1017"
           d="m 427.211,363.658 h -68.883 v 68.882 h 68.883 z"
           style="fill:#ffffff;fill-opacity:1;fill-rule:nonzero;stroke:none"
           transform="matrix(1.3333333,0,0,-1.3333333,-373.51,791.33199)"
           clip-path="url(#clipPath1018)" />
        <g
           id="g1176"
           transform="translate(-0.01890202,-660.08645)"
           style="fill:#000000">
          <path
             id="path1031"
             d="m 0,0 v 2.342 h 9.462 v 5.932 h 9.524 v 6.011 h 9.515 v 5.925 h 9.527 v 5.937 h 9.532 v 5.949 h 7.107 v 2.344 h -9.53 V 28.501 H 35.615 V 22.562 H 26.166 V 16.626 H 16.633 V 10.689 H 7.114 V 4.754 H -2.413 V 0 Z"
             style="fill:#000000;fill-opacity:1;fill-rule:nonzero;stroke:none"
             transform="matrix(1.3333333,0,0,-1.3333333,123.21507,966.548)"
             clip-path="url(#clipPath1032)" />
          <path
             id="path1033"
             d="M 0,0 C 1.043,-1.717 3.28,-2.263 4.997,-1.22 6.714,-0.176 7.26,2.063 6.217,3.778 5.173,5.495 2.936,6.041 1.219,4.998 -0.498,3.954 -1.044,1.718 0,0"
             style="fill:#000000;fill-opacity:1;fill-rule:nonzero;stroke:none"
             transform="matrix(1.3333333,0,0,-1.3333333,132.10173,892.51467)"
             clip-path="url(#clipPath1034)" />
          <path
             id="path1035"
             d="M 0,0 C -3.142,2.144 -3.627,2.737 -4.171,3.628 -4.681,4.463 -5.938,8.951 -5.938,8.951 -4.881,8.421 -3.822,7.892 -2.765,7.36 -1.936,6.944 -1.106,6.529 -0.277,6.113 1.251,5.349 2.328,4.752 4.034,5.461 4.532,5.669 4.997,5.997 5.272,6.462 5.619,7.047 5.534,7.672 5.224,8.249 4.551,9.498 3.43,9.771 2.161,10.022 c -1.287,0.257 -2.577,0.791 -3.737,1.395 -2.153,1.121 -3.736,2.63 -5.374,4.386 -0.507,0.543 -1.04,1.067 -1.659,1.476 -2.966,1.964 -5.949,0.881 -7.656,-2.048 -2.396,-4.112 -4.676,-6.437 -2.491,-12.113 0.352,-1.555 3.243,-1.112 3.242,0.863 -0.001,1.975 -0.651,3.956 1.159,5.74 1.11,1.092 1.654,-0.895 1.654,-0.895 0,0 0.334,-7.634 0.31,-7.799 -1.71,-11.887 -1.553,-20.078 -1.431,-22.773 0.04,-0.896 0.403,-1.763 1.074,-2.358 0.833,-0.74 1.977,-0.932 3.355,1.932 0.639,1.327 -0.25,11.686 0.885,15.58 0.315,1.078 0.841,3.238 0.899,3.801 0.042,0.422 0.253,0.816 0.606,1.05 0.327,0.216 1.232,0.426 2.051,-0.067 1.385,-0.831 3.709,-2.068 3.767,-7.305 0.059,-5.241 -0.851,-10.553 0.957,-10.897 1.876,-0.355 2.9,0.093 3.039,4.143 0.138,4.051 0.147,11.708 0.147,11.708 0,0 0.185,2.016 -2.958,4.159"
             style="fill:#000000;fill-opacity:1;fill-rule:nonzero;stroke:none"
             transform="matrix(1.3333333,0,0,-1.3333333,152.00933,920.42133)"
             clip-path="url(#clipPath1036)" />
        </g>
      </g>
    </g>
  </g>
</svg>
