<?xml version="1.0" encoding="UTF-8" standalone="no"?>
<!-- Created with Inkscape (http://www.inkscape.org/) -->

<svg
   width="59.999737mm"
   height="53.545662mm"
   viewBox="0 0 59.999737 53.545662"
   version="1.1"
   id="svg1"
   inkscape:version="1.4 (86a8ad7, 2024-10-11)"
   sodipodi:docname="ETC.svg"
   xmlns:inkscape="http://www.inkscape.org/namespaces/inkscape"
   xmlns:sodipodi="http://sodipodi.sourceforge.net/DTD/sodipodi-0.dtd"
   xmlns="http://www.w3.org/2000/svg"
   xmlns:svg="http://www.w3.org/2000/svg">
  <sodipodi:namedview
     id="namedview1"
     pagecolor="#ffffff"
     bordercolor="#000000"
     borderopacity="0.25"
     inkscape:showpageshadow="2"
     inkscape:pageopacity="0.0"
     inkscape:pagecheckerboard="0"
     inkscape:deskcolor="#d1d1d1"
     inkscape:document-units="mm"
     inkscape:zoom="2"
     inkscape:cx="42.25"
     inkscape:cy="57.75"
     inkscape:window-width="1920"
     inkscape:window-height="1009"
     inkscape:window-x="-8"
     inkscape:window-y="-8"
     inkscape:window-maximized="1"
     inkscape:current-layer="layer1" />
  <defs
     id="defs1">
    <clipPath
       clipPathUnits="userSpaceOnUse"
       id="clipPath2372">
      <path
         d="M 0,0 H 329.965 V 841.89 H 0 Z"
         transform="translate(-223.993,-214.16701)"
         id="path2372" />
    </clipPath>
    <clipPath
       clipPathUnits="userSpaceOnUse"
       id="clipPath2374">
      <path
         d="M 0,0 H 329.965 V 841.89 H 0 Z"
         transform="translate(-69.345002,-97.1044)"
         id="path2374" />
    </clipPath>
    <clipPath
       clipPathUnits="userSpaceOnUse"
       id="clipPath2376">
      <path
         d="m 73.98,208.292 c -2.556,0 -4.635,-2.108 -4.635,-4.703 v 0 -106.484 c 0,-2.553 2.079,-4.627 4.635,-4.627 v 0 h 149.333 c 2.557,0 4.635,2.074 4.635,4.627 v 0 106.484 c 0,2.595 -2.078,4.703 -4.635,4.703 v 0 z"
         transform="translate(-142.38501,-100.257)"
         id="path2376" />
    </clipPath>
    <clipPath
       clipPathUnits="userSpaceOnUse"
       id="clipPath2380">
      <path
         d="m 73.98,208.292 c -2.556,0 -4.635,-2.108 -4.635,-4.703 v 0 -106.484 c 0,-2.553 2.079,-4.627 4.635,-4.627 v 0 h 149.333 c 2.557,0 4.635,2.074 4.635,4.627 v 0 106.484 c 0,2.595 -2.078,4.703 -4.635,4.703 v 0 z"
         transform="translate(-223.054,-143.307)"
         id="path2380" />
    </clipPath>
    <clipPath
       clipPathUnits="userSpaceOnUse"
       id="clipPath2382">
      <path
         d="m 73.98,208.292 c -2.556,0 -4.635,-2.108 -4.635,-4.703 v 0 -106.484 c 0,-2.553 2.079,-4.627 4.635,-4.627 v 0 h 149.333 c 2.557,0 4.635,2.074 4.635,4.627 v 0 106.484 c 0,2.595 -2.078,4.703 -4.635,4.703 v 0 z"
         transform="translate(-84.3538,-166.546)"
         id="path2382" />
    </clipPath>
    <clipPath
       clipPathUnits="userSpaceOnUse"
       id="clipPath2384">
      <path
         d="m 73.98,208.292 c -2.556,0 -4.635,-2.108 -4.635,-4.703 v 0 -106.484 c 0,-2.553 2.079,-4.627 4.635,-4.627 v 0 h 149.333 c 2.557,0 4.635,2.074 4.635,4.627 v 0 106.484 c 0,2.595 -2.078,4.703 -4.635,4.703 v 0 z"
         transform="translate(-93.548102,-149.013)"
         id="path2384" />
    </clipPath>
    <clipPath
       clipPathUnits="userSpaceOnUse"
       id="clipPath2386">
      <path
         d="m 73.98,208.292 c -2.556,0 -4.635,-2.108 -4.635,-4.703 v 0 -106.484 c 0,-2.553 2.079,-4.627 4.635,-4.627 v 0 h 149.333 c 2.557,0 4.635,2.074 4.635,4.627 v 0 106.484 c 0,2.595 -2.078,4.703 -4.635,4.703 v 0 z"
         transform="translate(-77.084199,-182.262)"
         id="path2386" />
    </clipPath>
    <clipPath
       clipPathUnits="userSpaceOnUse"
       id="clipPath2384-4">
      <path
         d="m 73.98,208.292 c -2.556,0 -4.635,-2.108 -4.635,-4.703 v 0 -106.484 c 0,-2.553 2.079,-4.627 4.635,-4.627 v 0 h 149.333 c 2.557,0 4.635,2.074 4.635,4.627 v 0 106.484 c 0,2.595 -2.078,4.703 -4.635,4.703 v 0 z"
         transform="translate(-93.548102,-149.013)"
         id="path2384-8" />
    </clipPath>
    <clipPath
       clipPathUnits="userSpaceOnUse"
       id="clipPath2384-4-5">
      <path
         d="m 73.98,208.292 c -2.556,0 -4.635,-2.108 -4.635,-4.703 v 0 -106.484 c 0,-2.553 2.079,-4.627 4.635,-4.627 v 0 h 149.333 c 2.557,0 4.635,2.074 4.635,4.627 v 0 106.484 c 0,2.595 -2.078,4.703 -4.635,4.703 v 0 z"
         transform="translate(-93.548102,-149.013)"
         id="path2384-8-1" />
    </clipPath>
  </defs>
  <g
     inkscape:label="Layer 1"
     inkscape:groupmode="layer"
     id="layer1"
     transform="translate(-101.86458,-119.0625)">
    <g
       id="g1">
      <rect
         style="fill:#ffffff;stroke-width:2.40957"
         id="rect1"
         width="60"
         height="45"
         x="101.86445"
         y="127.60816" />
      <path
         id="path2371"
         d="m 0,0 h -150.695 c -5.346,0 -9.692,-4.444 -9.692,-9.902 v -107.833 c 0,-5.417 4.346,-9.825 9.692,-9.825 H 0 c 5.344,0 9.691,4.408 9.691,9.825 V -9.902 C 9.691,-4.444 5.344,0 0,0 m 0,-0.572 c 5.027,0 9.119,-4.187 9.119,-9.33 v -107.833 c 0,-5.102 -4.092,-9.25 -9.119,-9.25 h -150.695 c -5.029,0 -9.119,4.148 -9.119,9.25 V -9.902 c 0,5.143 4.09,9.33 9.119,9.33 L 0,-0.572"
         style="fill:#4467a5;fill-opacity:1;fill-rule:nonzero;stroke:none"
         transform="matrix(0.35277776,0,0,-0.35277776,158.44555,127.60783)"
         clip-path="url(#clipPath2372)" />
      <path
         id="path2373"
         d="M 0,0 C 0,-2.552 2.079,-4.628 4.635,-4.628 H 153.97 c 2.554,0 4.634,2.076 4.634,4.628 v 106.484 c 0,2.594 -2.08,4.704 -4.634,4.704 H 4.635 C 2.079,111.188 0,109.078 0,106.484 Z"
         style="fill:#4467a5;fill-opacity:1;fill-rule:nonzero;stroke:none"
         transform="matrix(0.35277776,0,0,-0.35277776,103.88917,168.90492)"
         clip-path="url(#clipPath2374)" />
      <path
         id="path2375"
         d="m 0,0 c -4.369,0 -7.911,3.542 -7.911,7.912 0,4.369 3.542,7.911 7.911,7.911 4.369,0 7.912,-3.542 7.912,-7.911 C 7.912,3.542 4.369,0 0,0 m 0,22.873 c -8.263,0 -14.962,-6.697 -14.962,-14.961 0,-8.264 6.699,-14.962 14.962,-14.962 8.263,0 14.962,6.698 14.962,14.962 0,8.264 -6.699,14.961 -14.962,14.961"
         style="fill:#ffffff;fill-opacity:1;fill-rule:nonzero;stroke:none"
         transform="matrix(0.35277776,0,0,-0.35277776,129.65606,167.79275)"
         clip-path="url(#clipPath2376)" />
      <path
         id="path2379"
         d="M 0,0 V 20.771 H 17.233 L 36.841,0 Z m -4.037,0 h -42.29 l 13.46,20.771 h 28.83 z m 67.161,-6.618 c -5.151,1.106 -7.811,2.325 -12.187,6.867 L 32.216,19.781 c 0,0 -8.066,9.492 -24.593,9.492 h -33.179 c 0,0 -7.726,0.97 -12.048,-5.675 L -53.223,0 -95.763,-5.648 c 0,0 -8.557,-0.831 -8.557,-8.393 v -15.371 c 0,0 0.354,-7.505 6.741,-7.505 0.574,0 -0.088,1.192 -0.088,1.779 0,9.388 7.61,16.998 16.998,16.998 9.388,0 16.998,-7.61 16.998,-16.998 0,-0.602 -0.031,-1.192 -0.093,-1.779 h 75.58 c -0.058,0.571 -0.087,1.192 -0.087,1.779 0,9.388 7.61,16.998 16.998,16.998 9.387,0 16.998,-7.61 16.998,-16.998 0,-0.602 -0.032,-1.192 -0.093,-1.779 l 21.867,2.021 V -11.3 c 0,0 0.776,3.573 -4.375,4.682"
         style="fill:#ffffff;fill-opacity:1;fill-rule:nonzero;stroke:none"
         transform="matrix(0.35277776,0,0,-0.35277776,158.11429,152.60567)"
         clip-path="url(#clipPath2380)" />
      <path
         id="path2383"
         d="m 0,0 -0.007,-0.115 c 10.135,-0.4 18.09175,4.2657501 26.49475,10.137 7.066,6.81325 13.10425,15.044 14.20025,24.819 L 40.57,34.849 C 38.271,14.495 17.555132,-0.67121163 -3.0028679,0.12678837"
         style="fill:#ffffff;fill-opacity:1;fill-rule:nonzero;stroke:#ffffff;stroke-width:6;stroke-linecap:butt;stroke-linejoin:miter;stroke-miterlimit:10;stroke-dasharray:none;stroke-opacity:1"
         transform="matrix(0.35277776,0,0,-0.35277776,111.35173,152.04266)"
         clip-path="url(#clipPath2384)"
         sodipodi:nodetypes="cccccc" />
      <path
         id="path2406"
         d="m 105.04523,119.0625 h 20.49109 v 8.53369 h -20.49109 z"
         style="fill:#4467a5;fill-opacity:1;fill-rule:nonzero;stroke:none;stroke-width:0.352778" />
      <path
         style="font-weight:700;font-stretch:condensed;font-size:6.1728px;font-family:Arial;fill:#ffffff;stroke-width:0.352778"
         d="m 109.24384,125.90603 v -4.41862 h 2.68854 v 0.74749 h -1.95914 v 0.97957 h 1.82049 v 0.74447 h -1.82049 v 1.20262 h 2.02545 v 0.74447 z m 5.59711,0 v -3.67113 h -1.07602 v -0.74749 h 2.87843 v 0.74749 h -1.07301 v 3.67113 z m 6.00401,-1.62458 0.70831,0.27428 q -0.16577,0.74146 -0.55157,1.08506 -0.3858,0.34059 -0.94943,0.34059 -0.70831,0 -1.14836,-0.54555 -0.50636,-0.62993 -0.50636,-1.69993 0,-1.13027 0.50937,-1.76925 0.44307,-0.55459 1.19056,-0.55459 0.60884,0 1.01875,0.41594 0.29236,0.29538 0.428,0.87709 l -0.72338,0.21099 q -0.0693,-0.35867 -0.27729,-0.54856 -0.20496,-0.1929 -0.48527,-0.1929 -0.40087,0 -0.65405,0.34963 -0.25318,0.34963 -0.25318,1.15439 0,0.83489 0.24715,1.18754 0.24716,0.35264 0.642,0.35264 0.28935,0 0.50033,-0.22304 0.21099,-0.22605 0.30442,-0.71433 z"
         id="text2406"
         aria-label="E T C" />
      <path
         id="path2383-2"
         d="m 0,0 -0.007,-0.115 c 10.135,-0.4 18.09175,4.2657501 26.49475,10.137 7.066,6.81325 13.10425,15.044 14.20025,24.819 L 40.57,34.849 C 38.271,14.495 17.555132,-0.67121163 -3.0028679,0.12678837"
         style="fill:#ffffff;fill-opacity:1;fill-rule:nonzero;stroke:#ffffff;stroke-width:6;stroke-linecap:butt;stroke-linejoin:miter;stroke-miterlimit:10;stroke-dasharray:none;stroke-opacity:1"
         transform="matrix(0.26386992,0,0,-0.25791821,108.50513,144.63115)"
         clip-path="url(#clipPath2384-4)"
         sodipodi:nodetypes="cccccc" />
      <path
         id="path2383-2-1"
         d="m 0,0 -0.007,-0.115 c 10.135,-0.4 18.09175,4.2657501 26.49475,10.137 7.066,6.81325 13.10425,15.044 14.20025,24.819 L 40.57,34.849 C 38.271,14.495 17.555132,-0.67121163 -3.0028679,0.12678837"
         style="fill:#ffffff;fill-opacity:1;fill-rule:nonzero;stroke:#ffffff;stroke-width:6;stroke-linecap:butt;stroke-linejoin:miter;stroke-miterlimit:10;stroke-dasharray:none;stroke-opacity:1"
         transform="matrix(0.17998253,0,0,-0.18312683,105.84316,138.36907)"
         clip-path="url(#clipPath2384-4-5)"
         sodipodi:nodetypes="cccccc" />
    </g>
  </g>
</svg>
