<?xml version="1.0" encoding="UTF-8" standalone="no"?>
<!-- Created with Inkscape (http://www.inkscape.org/) -->

<svg
   width="44.999977mm"
   height="59.999737mm"
   viewBox="0 0 44.999977 59.999737"
   version="1.1"
   id="svg1"
   inkscape:version="1.4 (86a8ad7, 2024-10-11)"
   sodipodi:docname="holiday chalets.svg"
   xmlns:inkscape="http://www.inkscape.org/namespaces/inkscape"
   xmlns:sodipodi="http://sodipodi.sourceforge.net/DTD/sodipodi-0.dtd"
   xmlns="http://www.w3.org/2000/svg"
   xmlns:svg="http://www.w3.org/2000/svg">
  <sodipodi:namedview
     id="namedview1"
     pagecolor="#ffffff"
     bordercolor="#000000"
     borderopacity="0.25"
     inkscape:showpageshadow="2"
     inkscape:pageopacity="0.0"
     inkscape:pagecheckerboard="0"
     inkscape:deskcolor="#d1d1d1"
     inkscape:document-units="mm"
     inkscape:zoom="2.8756734"
     inkscape:cx="-7.128765"
     inkscape:cy="181.69657"
     inkscape:window-width="1920"
     inkscape:window-height="1009"
     inkscape:window-x="-8"
     inkscape:window-y="-8"
     inkscape:window-maximized="1"
     inkscape:current-layer="g4075" />
  <defs
     id="defs1">
    <inkscape:path-effect
       effect="fillet_chamfer"
       id="path-effect1"
       is_visible="true"
       lpeversion="1"
       nodesatellites_param="F,0,0,1,0,0,0,1 @ F,0,0,1,0,0,0,1 @ F,0,0,1,0,0,0,1 @ F,0,0,1,0,0,0,1"
       radius="0"
       unit="px"
       method="auto"
       mode="F"
       chamfer_steps="1"
       flexible="false"
       use_knot_distance="true"
       apply_no_radius="true"
       apply_with_radius="true"
       only_selected="false"
       hide_knots="false" />
    <clipPath
       clipPathUnits="userSpaceOnUse"
       id="clipPath4010">
      <path
         d="M 0,841.89 H 595.276 V 0 H 0 Z"
         transform="translate(-166.51401,-731.52902)"
         id="path4010" />
    </clipPath>
    <clipPath
       clipPathUnits="userSpaceOnUse"
       id="clipPath4012">
      <path
         d="M 0,841.89 H 595.276 V 0 H 0 Z"
         transform="translate(-59.355001,-725.79102)"
         id="path4012" />
    </clipPath>
    <clipPath
       clipPathUnits="userSpaceOnUse"
       id="clipPath4014">
      <path
         d="M 0,841.89 H 595.276 V 0 H 0 Z"
         id="path4014" />
    </clipPath>
    <clipPath
       clipPathUnits="userSpaceOnUse"
       id="clipPath4016">
      <path
         d="M 0,841.89 H 595.276 V 0 H 0 Z"
         transform="translate(-132.939,-632.53702)"
         id="path4016" />
    </clipPath>
    <clipPath
       clipPathUnits="userSpaceOnUse"
       id="clipPath4018">
      <path
         d="M 0,841.89 H 595.276 V 0 H 0 Z"
         transform="translate(-446.64601,-731.52902)"
         id="path4018" />
    </clipPath>
    <clipPath
       clipPathUnits="userSpaceOnUse"
       id="clipPath4020">
      <path
         d="M 0,841.89 H 595.276 V 0 H 0 Z"
         transform="translate(-339.48701,-725.79102)"
         id="path4020" />
    </clipPath>
    <clipPath
       clipPathUnits="userSpaceOnUse"
       id="clipPath4022">
      <path
         d="M 0,841.89 H 595.276 V 0 H 0 Z"
         id="path4022" />
    </clipPath>
    <clipPath
       clipPathUnits="userSpaceOnUse"
       id="clipPath4024">
      <path
         d="M 0,841.89 H 595.276 V 0 H 0 Z"
         transform="translate(-409.44701,-659.97202)"
         id="path4024" />
    </clipPath>
    <clipPath
       clipPathUnits="userSpaceOnUse"
       id="clipPath4028">
      <path
         d="M 0,841.89 H 595.276 V 0 H 0 Z"
         transform="translate(-166.51401,-483.03801)"
         id="path4028" />
    </clipPath>
    <clipPath
       clipPathUnits="userSpaceOnUse"
       id="clipPath4030">
      <path
         d="M 0,841.89 H 595.276 V 0 H 0 Z"
         transform="translate(-59.355001,-477.29901)"
         id="path4030" />
    </clipPath>
    <clipPath
       clipPathUnits="userSpaceOnUse"
       id="clipPath4032">
      <path
         d="M 0,841.89 H 595.276 V 0 H 0 Z"
         id="path4032" />
    </clipPath>
    <clipPath
       clipPathUnits="userSpaceOnUse"
       id="clipPath4034">
      <path
         d="M 0,841.89 H 595.276 V 0 H 0 Z"
         transform="translate(-126.208,-398.81301)"
         id="path4034" />
    </clipPath>
    <clipPath
       clipPathUnits="userSpaceOnUse"
       id="clipPath4052">
      <path
         d="M 0,841.89 H 595.276 V 0 H 0 Z"
         transform="translate(-446.64601,-484.03801)"
         id="path4052" />
    </clipPath>
    <clipPath
       clipPathUnits="userSpaceOnUse"
       id="clipPath4054">
      <path
         d="M 0,841.89 H 595.276 V 0 H 0 Z"
         transform="translate(-339.48701,-478.29901)"
         id="path4054" />
    </clipPath>
    <clipPath
       clipPathUnits="userSpaceOnUse"
       id="clipPath4056">
      <path
         d="M 0,841.89 H 595.276 V 0 H 0 Z"
         id="path4056" />
    </clipPath>
    <clipPath
       clipPathUnits="userSpaceOnUse"
       id="clipPath4058">
      <path
         d="M 0,841.89 H 595.276 V 0 H 0 Z"
         transform="translate(-390.32301,-383.39001)"
         id="path4058" />
    </clipPath>
    <clipPath
       clipPathUnits="userSpaceOnUse"
       id="clipPath4060">
      <path
         d="M 0,841.89 H 595.276 V 0 H 0 Z"
         transform="translate(-414.75501,-408.07801)"
         id="path4060" />
    </clipPath>
    <clipPath
       clipPathUnits="userSpaceOnUse"
       id="clipPath2032">
      <path
         d="M 0,6.109 H 350.911 V 841.89 H 0 Z"
         transform="translate(-202.28701,-239.73901)"
         id="path2032" />
    </clipPath>
    <clipPath
       clipPathUnits="userSpaceOnUse"
       id="clipPath2034">
      <path
         d="M 0,6.109 H 350.911 V 841.89 H 0 Z"
         transform="translate(-95.127602,-234.001)"
         id="path2034" />
    </clipPath>
    <clipPath
       clipPathUnits="userSpaceOnUse"
       id="clipPath2036">
      <path
         d="M 0,6.109 H 350.911 V 841.89 H 0 Z"
         id="path2036" />
    </clipPath>
    <clipPath
       clipPathUnits="userSpaceOnUse"
       id="clipPath2038">
      <path
         d="M 0,6.109 H 350.911 V 841.89 H 0 Z"
         transform="translate(-130.918,-151.443)"
         id="path2038" />
    </clipPath>
    <clipPath
       clipPathUnits="userSpaceOnUse"
       id="clipPath2040">
      <path
         d="M 0,6.109 H 350.911 V 841.89 H 0 Z"
         transform="translate(-163.501,-151.443)"
         id="path2040" />
    </clipPath>
    <clipPath
       clipPathUnits="userSpaceOnUse"
       id="clipPath2042">
      <path
         d="M 0,6.109 H 350.911 V 841.89 H 0 Z"
         transform="translate(-177.469,-165.54201)"
         id="path2042" />
    </clipPath>
    <clipPath
       clipPathUnits="userSpaceOnUse"
       id="clipPath3044">
      <path
         d="M 0,841.89 H 595.276 V 0 H 0 Z"
         transform="translate(-401.96101,-456.03201)"
         id="path3044" />
    </clipPath>
    <clipPath
       clipPathUnits="userSpaceOnUse"
       id="clipPath3048">
      <path
         d="M 0,841.89 H 595.276 V 0 H 0 Z"
         transform="translate(-371.89201,-481.43101)"
         id="path3048" />
    </clipPath>
  </defs>
  <g
     inkscape:label="Layer 1"
     inkscape:groupmode="layer"
     id="layer1"
     transform="translate(-82.549999,-118.53333)">
    <g
       id="g4075"
       transform="matrix(0.26458333,0,0,0.26458333,65.313981,79.600425)">
      <g
         id="g1">
        <path
           style="fill:#ffffff;stroke:#ffffff;stroke-width:0.877059"
           id="rect1"
           width="169.20169"
           height="225.89459"
           x="65.582489"
           y="147.58603"
           inkscape:path-effect="#path-effect1"
           sodipodi:type="rect"
           d="M 65.582489,147.58603 H 234.78418 V 373.48062 H 65.582489 Z" />
        <path
           id="path4031"
           d="M 147.079,363.558 H 78.197 v 68.882 h 68.882 z"
           style="fill:#ffffff;fill-opacity:1;fill-rule:nonzero;stroke:none"
           transform="matrix(1.3333333,0,0,-1.3333333,-6.6248848e-4,791.19864)"
           clip-path="url(#clipPath4032)" />
        <path
           id="path2031"
           d="m 0,0 h -107.832 c -5.418,0 -9.824,-4.347 -9.824,-9.691 v -150.697 c 0,-5.341 4.406,-9.691 9.824,-9.691 H 0 c 5.459,0 9.903,4.35 9.903,9.691 V -9.691 C 9.903,-4.347 5.459,0 0,0 m 0,-0.573 c 5.145,0 9.33,-4.09 9.33,-9.118 v -150.697 c 0,-5.027 -4.185,-9.118 -9.33,-9.118 h -107.832 c -5.102,0 -9.251,4.091 -9.251,9.118 V -9.691 c 0,5.028 4.149,9.118 9.251,9.118 L 0,-0.573"
           style="fill:#4467a5;fill-opacity:1;fill-rule:nonzero;stroke:none"
           transform="matrix(1.3333333,0,0,-1.3333333,222.01867,147.14732)"
           clip-path="url(#clipPath2032)" />
        <path
           id="path2033"
           d="m 0,0 c -2.552,0 -4.628,-2.08 -4.628,-4.636 v -149.335 c 0,-2.554 2.076,-4.633 4.628,-4.633 h 106.485 c 2.594,0 4.704,2.079 4.704,4.633 V -4.636 c 0,2.556 -2.11,4.636 -4.704,4.636 z"
           style="fill:#4467a5;fill-opacity:1;fill-rule:nonzero;stroke:none"
           transform="matrix(1.3333333,0,0,-1.3333333,79.142669,154.79732)"
           clip-path="url(#clipPath2034)" />
        <path
           id="path2035"
           d="m 182.859,120.252 h -68.895 v 68.896 h 68.895 z"
           style="fill:#ffffff;fill-opacity:1;fill-rule:nonzero;stroke:none"
           transform="matrix(1.3333333,0,0,-1.3333333,-47.698661,466.79998)"
           clip-path="url(#clipPath2036)" />
        <path
           id="path3043"
           d="M 0,0 H -44.823 V 24.651 L -50.42,20.569 -54.722,27.08 -22.599,51.92 9.898,27.268 5.162,20.277 0,25.025 Z"
           style="fill:#000000;fill-opacity:1;fill-rule:nonzero;stroke:none"
           transform="matrix(1.3333333,0,0,-1.3333333,180.066,295.14665)"
           clip-path="url(#clipPath3044)" />
        <path
           id="path3047"
           d="m 0,0 h 14.941 c 1.233,0 2.242,-1.01 2.242,-2.241 v -3.737 c 0,-1.232 -1.009,-2.241 -2.242,-2.241 H 0 c -1.232,0 -2.241,1.009 -2.241,2.241 v 3.737 C -2.241,-1.01 -1.232,0 0,0"
           style="fill:#ffffff;fill-opacity:1;fill-rule:nonzero;stroke:none"
           transform="matrix(1.3333333,0,0,-1.3333333,139.974,261.28132)"
           clip-path="url(#clipPath3048)" />
      </g>
    </g>
  </g>
</svg>
