<?xml version="1.0" encoding="UTF-8" standalone="no"?>
<!-- Created with Inkscape (http://www.inkscape.org/) -->

<svg
   width="44.999977mm"
   height="59.999737mm"
   viewBox="0 0 44.999977 59.999737"
   version="1.1"
   id="svg1"
   inkscape:version="1.4 (86a8ad7, 2024-10-11)"
   sodipodi:docname="home zone.svg"
   xmlns:inkscape="http://www.inkscape.org/namespaces/inkscape"
   xmlns:sodipodi="http://sodipodi.sourceforge.net/DTD/sodipodi-0.dtd"
   xmlns="http://www.w3.org/2000/svg"
   xmlns:svg="http://www.w3.org/2000/svg">
  <sodipodi:namedview
     id="namedview1"
     pagecolor="#ffffff"
     bordercolor="#000000"
     borderopacity="0.25"
     inkscape:showpageshadow="2"
     inkscape:pageopacity="0.0"
     inkscape:pagecheckerboard="0"
     inkscape:deskcolor="#d1d1d1"
     inkscape:document-units="mm"
     inkscape:zoom="2.0334082"
     inkscape:cx="2.2130333"
     inkscape:cy="188.59961"
     inkscape:window-width="1920"
     inkscape:window-height="1009"
     inkscape:window-x="-8"
     inkscape:window-y="-8"
     inkscape:window-maximized="1"
     inkscape:current-layer="g4075" />
  <defs
     id="defs1">
    <rect
       x="7.650382"
       y="169.35164"
       width="218.38363"
       height="59.464333"
       id="rect3" />
    <rect
       x="26.080848"
       y="26.776337"
       width="146.05275"
       height="37.556421"
       id="rect2" />
    <inkscape:path-effect
       effect="fillet_chamfer"
       id="path-effect1"
       is_visible="true"
       lpeversion="1"
       nodesatellites_param="F,0,0,1,0,0,0,1 @ F,0,0,1,0,0,0,1 @ F,0,0,1,0,0,0,1 @ F,0,0,1,0,0,0,1"
       radius="0"
       unit="px"
       method="auto"
       mode="F"
       chamfer_steps="1"
       flexible="false"
       use_knot_distance="true"
       apply_no_radius="true"
       apply_with_radius="true"
       only_selected="false"
       hide_knots="false" />
    <clipPath
       clipPathUnits="userSpaceOnUse"
       id="clipPath4010">
      <path
         d="M 0,841.89 H 595.276 V 0 H 0 Z"
         transform="translate(-166.51401,-731.52902)"
         id="path4010" />
    </clipPath>
    <clipPath
       clipPathUnits="userSpaceOnUse"
       id="clipPath4012">
      <path
         d="M 0,841.89 H 595.276 V 0 H 0 Z"
         transform="translate(-59.355001,-725.79102)"
         id="path4012" />
    </clipPath>
    <clipPath
       clipPathUnits="userSpaceOnUse"
       id="clipPath4014">
      <path
         d="M 0,841.89 H 595.276 V 0 H 0 Z"
         id="path4014" />
    </clipPath>
    <clipPath
       clipPathUnits="userSpaceOnUse"
       id="clipPath4016">
      <path
         d="M 0,841.89 H 595.276 V 0 H 0 Z"
         transform="translate(-132.939,-632.53702)"
         id="path4016" />
    </clipPath>
    <clipPath
       clipPathUnits="userSpaceOnUse"
       id="clipPath4018">
      <path
         d="M 0,841.89 H 595.276 V 0 H 0 Z"
         transform="translate(-446.64601,-731.52902)"
         id="path4018" />
    </clipPath>
    <clipPath
       clipPathUnits="userSpaceOnUse"
       id="clipPath4020">
      <path
         d="M 0,841.89 H 595.276 V 0 H 0 Z"
         transform="translate(-339.48701,-725.79102)"
         id="path4020" />
    </clipPath>
    <clipPath
       clipPathUnits="userSpaceOnUse"
       id="clipPath4022">
      <path
         d="M 0,841.89 H 595.276 V 0 H 0 Z"
         id="path4022" />
    </clipPath>
    <clipPath
       clipPathUnits="userSpaceOnUse"
       id="clipPath4024">
      <path
         d="M 0,841.89 H 595.276 V 0 H 0 Z"
         transform="translate(-409.44701,-659.97202)"
         id="path4024" />
    </clipPath>
    <clipPath
       clipPathUnits="userSpaceOnUse"
       id="clipPath1000">
      <path
         d="M 0,0 H 595.276 V 841.89 H 0 Z"
         transform="translate(-166.51401,-731.47102)"
         id="path1000" />
    </clipPath>
    <clipPath
       clipPathUnits="userSpaceOnUse"
       id="clipPath1002">
      <path
         d="M 0,0 H 595.276 V 841.89 H 0 Z"
         transform="translate(-59.354602,-725.73102)"
         id="path1002" />
    </clipPath>
    <clipPath
       clipPathUnits="userSpaceOnUse"
       id="clipPath1004">
      <path
         d="M 0,0 H 595.276 V 841.89 H 0 Z"
         transform="translate(-94.148605,-610.35401)"
         id="path1004" />
    </clipPath>
    <clipPath
       clipPathUnits="userSpaceOnUse"
       id="clipPath1006">
      <path
         d="M 0,0 H 595.276 V 841.89 H 0 Z"
         id="path1006" />
    </clipPath>
    <clipPath
       clipPathUnits="userSpaceOnUse"
       id="clipPath1008">
      <path
         d="M 0,0 H 595.276 V 841.89 H 0 Z"
         transform="translate(-141.47001,-653.96302)"
         id="path1008" />
    </clipPath>
    <clipPath
       clipPathUnits="userSpaceOnUse"
       id="clipPath1010">
      <path
         d="M 0,0 H 595.276 V 841.89 H 0 Z"
         id="path1010" />
    </clipPath>
    <clipPath
       clipPathUnits="userSpaceOnUse"
       id="clipPath1012">
      <path
         d="M 0,0 H 595.276 V 841.89 H 0 Z"
         transform="translate(-122.364,-682.30502)"
         id="path1012" />
    </clipPath>
    <clipPath
       clipPathUnits="userSpaceOnUse"
       id="clipPath1156">
      <path
         d="M 0,841.89 H 595.276 V 0 H 0 Z"
         transform="translate(-446.60801,-731.50002)"
         id="path1156" />
    </clipPath>
    <clipPath
       clipPathUnits="userSpaceOnUse"
       id="clipPath1158">
      <path
         d="M 0,841.89 H 595.276 V 0 H 0 Z"
         transform="translate(-339.44801,-725.76202)"
         id="path1158" />
    </clipPath>
    <clipPath
       clipPathUnits="userSpaceOnUse"
       id="clipPath1160">
      <path
         d="M 0,841.89 H 595.276 V 0 H 0 Z"
         id="path1160" />
    </clipPath>
    <clipPath
       clipPathUnits="userSpaceOnUse"
       id="clipPath1162">
      <path
         d="M 0,841.89 H 595.276 V 0 H 0 Z"
         transform="translate(-399.90201,-688.14002)"
         id="path1162" />
    </clipPath>
    <clipPath
       clipPathUnits="userSpaceOnUse"
       id="clipPath1166">
      <path
         d="M 0,841.89 H 595.276 V 0 H 0 Z"
         transform="translate(-168.13701,-485.24801)"
         id="path1166" />
    </clipPath>
    <clipPath
       clipPathUnits="userSpaceOnUse"
       id="clipPath1168">
      <path
         d="M 0,841.89 H 595.276 V 0 H 0 Z"
         transform="translate(-60.977702,-479.51001)"
         id="path1168" />
    </clipPath>
    <clipPath
       clipPathUnits="userSpaceOnUse"
       id="clipPath1170">
      <path
         d="M 0,841.89 H 595.276 V 0 H 0 Z"
         transform="translate(-138.622,-407.33201)"
         id="path1170" />
    </clipPath>
    <clipPath
       clipPathUnits="userSpaceOnUse"
       id="clipPath1007">
      <path
         d="M 0,841.89 H 595.276 V 0 H 0 Z"
         transform="translate(-166.752,-731.50002)"
         id="path1007" />
    </clipPath>
    <clipPath
       clipPathUnits="userSpaceOnUse"
       id="clipPath1009">
      <path
         d="M 0,841.89 H 595.276 V 0 H 0 Z"
         transform="translate(-59.592802,-725.76202)"
         id="path1009" />
    </clipPath>
    <clipPath
       clipPathUnits="userSpaceOnUse"
       id="clipPath1011">
      <path
         d="M 0,841.89 H 595.276 V 0 H 0 Z"
         id="path1011" />
    </clipPath>
    <clipPath
       clipPathUnits="userSpaceOnUse"
       id="clipPath1013">
      <path
         d="M 0,841.89 H 595.276 V 0 H 0 Z"
         transform="translate(-118.70601,-673.88102)"
         id="path1013" />
    </clipPath>
    <clipPath
       clipPathUnits="userSpaceOnUse"
       id="clipPath1015">
      <path
         d="M 0,841.89 H 595.276 V 0 H 0 Z"
         transform="translate(-123.664,-640.92401)"
         id="path1015" />
    </clipPath>
    <clipPath
       clipPathUnits="userSpaceOnUse"
       id="clipPath1023">
      <path
         d="M 0,841.89 H 595.276 V 0 H 0 Z"
         transform="translate(-375.64601,-621.74402)"
         id="path1023" />
    </clipPath>
    <clipPath
       clipPathUnits="userSpaceOnUse"
       id="clipPath1029">
      <path
         d="M 0,841.89 H 595.276 V 0 H 0 Z"
         id="path1029" />
    </clipPath>
    <clipPath
       clipPathUnits="userSpaceOnUse"
       id="clipPath1031">
      <path
         d="m 86.891,371.984 h 51.97 v 51.969 h -51.97 z"
         transform="translate(-108.942,-390.79301)"
         id="path1031" />
    </clipPath>
    <clipPath
       clipPathUnits="userSpaceOnUse"
       id="clipPath1033">
      <path
         d="m 86.891,371.984 h 51.97 v 51.969 h -51.97 z"
         transform="translate(-148.42401,-407.59701)"
         id="path1033" />
    </clipPath>
    <clipPath
       clipPathUnits="userSpaceOnUse"
       id="clipPath1035">
      <path
         d="m 86.891,371.984 h 51.97 v 51.969 h -51.97 z"
         transform="translate(-116.1,-390.48901)"
         id="path1035" />
    </clipPath>
    <clipPath
       clipPathUnits="userSpaceOnUse"
       id="clipPath1037">
      <path
         d="m 86.891,371.984 h 51.97 v 51.969 h -51.97 z"
         transform="translate(-118.399,-396.10401)"
         id="path1037" />
    </clipPath>
    <clipPath
       clipPathUnits="userSpaceOnUse"
       id="clipPath1039">
      <path
         d="m 86.891,371.984 h 51.97 v 51.969 h -51.97 z"
         transform="translate(-100.858,-408.56701)"
         id="path1039" />
    </clipPath>
    <clipPath
       clipPathUnits="userSpaceOnUse"
       id="clipPath1041">
      <path
         d="m 86.891,371.984 h 51.97 v 51.969 h -51.97 z"
         transform="translate(-116.412,-406.55201)"
         id="path1041" />
    </clipPath>
    <clipPath
       clipPathUnits="userSpaceOnUse"
       id="clipPath1043">
      <path
         d="m 86.891,371.984 h 51.97 v 51.969 h -51.97 z"
         transform="translate(-116.1,-393.12401)"
         id="path1043" />
    </clipPath>
    <clipPath
       clipPathUnits="userSpaceOnUse"
       id="clipPath1045">
      <path
         d="m 86.891,371.984 h 51.97 v 51.969 h -51.97 z"
         transform="translate(-103.10001,-393.12401)"
         id="path1045" />
    </clipPath>
    <clipPath
       clipPathUnits="userSpaceOnUse"
       id="clipPath1047">
      <path
         d="m 86.891,371.984 h 51.97 v 51.969 h -51.97 z"
         transform="translate(-100.852,-408.39101)"
         id="path1047" />
    </clipPath>
    <clipPath
       clipPathUnits="userSpaceOnUse"
       id="clipPath1049">
      <path
         d="m 86.891,371.984 h 51.97 v 51.969 h -51.97 z"
         transform="translate(-148.318,-416.40201)"
         id="path1049" />
    </clipPath>
    <clipPath
       clipPathUnits="userSpaceOnUse"
       id="clipPath1051">
      <path
         d="m 86.891,371.984 h 51.97 v 51.969 h -51.97 z"
         transform="translate(-127.252,-404.72201)"
         id="path1051" />
    </clipPath>
    <clipPath
       clipPathUnits="userSpaceOnUse"
       id="clipPath1053">
      <path
         d="m 86.891,371.984 h 51.97 v 51.969 h -51.97 z"
         transform="translate(-135.25401,-409.57201)"
         id="path1053" />
    </clipPath>
    <clipPath
       clipPathUnits="userSpaceOnUse"
       id="clipPath1055">
      <path
         d="m 86.891,371.984 h 51.97 v 51.969 h -51.97 z"
         transform="translate(-136.5,-413.83301)"
         id="path1055" />
    </clipPath>
    <clipPath
       clipPathUnits="userSpaceOnUse"
       id="clipPath1057">
      <path
         d="m 86.891,371.984 h 51.97 v 51.969 h -51.97 z"
         transform="translate(-140.895,-412.77601)"
         id="path1057" />
    </clipPath>
    <clipPath
       clipPathUnits="userSpaceOnUse"
       id="clipPath1059">
      <path
         d="m 86.891,371.984 h 51.97 v 51.969 h -51.97 z"
         transform="translate(-106.993,-409.35601)"
         id="path1059" />
    </clipPath>
    <clipPath
       clipPathUnits="userSpaceOnUse"
       id="clipPath9">
      <path
         d="M 0,841.89 H 595.276 V 0 H 0 Z"
         transform="translate(-84.240205,-145.804)"
         id="path9" />
    </clipPath>
    <clipPath
       clipPathUnits="userSpaceOnUse"
       id="clipPath5020">
      <path
         d="M 0,841.89 H 595.276 V 0 H 0 Z"
         transform="translate(-373.87801,-350.72801)"
         id="path5020" />
    </clipPath>
    <clipPath
       clipPathUnits="userSpaceOnUse"
       id="clipPath5016">
      <path
         d="M 0,841.89 H 595.276 V 0 H 0 Z"
         transform="translate(-373.87901,-350.72901)"
         id="path5016" />
    </clipPath>
    <clipPath
       clipPathUnits="userSpaceOnUse"
       id="clipPath6038">
      <path
         d="M 0,841.89 H 595.276 V 0 H 0 Z"
         transform="translate(-370.89501,-170.097)"
         id="path6038" />
    </clipPath>
    <clipPath
       clipPathUnits="userSpaceOnUse"
       id="clipPath1996">
      <path
         d="M 0,841.89 H 595.276 V 0 H 0 Z"
         transform="translate(-162.934,-462.66301)"
         id="path1996" />
    </clipPath>
    <clipPath
       clipPathUnits="userSpaceOnUse"
       id="clipPath1998">
      <path
         d="M 0,841.89 H 595.276 V 0 H 0 Z"
         transform="translate(-55.775801,-456.92401)"
         id="path1998" />
    </clipPath>
    <clipPath
       clipPathUnits="userSpaceOnUse"
       id="clipPath2000">
      <path
         d="M 0,841.89 H 595.276 V 0 H 0 Z"
         transform="translate(-57.678101,-316.27701)"
         id="path2000" />
    </clipPath>
    <clipPath
       clipPathUnits="userSpaceOnUse"
       id="clipPath2002">
      <path
         d="M 0,841.89 H 595.276 V 0 H 0 Z"
         transform="translate(-57.677101,-316.27801)"
         id="path2002" />
    </clipPath>
    <clipPath
       clipPathUnits="userSpaceOnUse"
       id="clipPath2004">
      <path
         d="M 0,841.89 H 595.276 V 0 H 0 Z"
         transform="translate(-81.8275,-309.79701)"
         id="path2004" />
    </clipPath>
    <clipPath
       clipPathUnits="userSpaceOnUse"
       id="clipPath2006">
      <path
         d="M 0,841.89 H 595.276 V 0 H 0 Z"
         transform="translate(-81.828505,-309.79701)"
         id="path2006" />
    </clipPath>
    <clipPath
       clipPathUnits="userSpaceOnUse"
       id="clipPath2008">
      <path
         d="M 0,841.89 H 595.276 V 0 H 0 Z"
         transform="translate(-95.907602,-308.85501)"
         id="path2008" />
    </clipPath>
    <clipPath
       clipPathUnits="userSpaceOnUse"
       id="clipPath2010">
      <path
         d="M 0,841.89 H 595.276 V 0 H 0 Z"
         transform="translate(-95.907602,-308.85401)"
         id="path2010" />
    </clipPath>
    <clipPath
       clipPathUnits="userSpaceOnUse"
       id="clipPath2012">
      <path
         d="M 0,841.89 H 595.276 V 0 H 0 Z"
         transform="translate(-106.254,-309.24701)"
         id="path2012" />
    </clipPath>
    <clipPath
       clipPathUnits="userSpaceOnUse"
       id="clipPath2014">
      <path
         d="M 0,841.89 H 595.276 V 0 H 0 Z"
         transform="translate(-106.255,-309.24701)"
         id="path2014" />
    </clipPath>
    <clipPath
       clipPathUnits="userSpaceOnUse"
       id="clipPath2016">
      <path
         d="M 0,841.89 H 595.276 V 0 H 0 Z"
         transform="translate(-114.76101,-304.04401)"
         id="path2016" />
    </clipPath>
    <clipPath
       clipPathUnits="userSpaceOnUse"
       id="clipPath2018">
      <path
         d="M 0,841.89 H 595.276 V 0 H 0 Z"
         transform="translate(-114.759,-304.04201)"
         id="path2018" />
    </clipPath>
    <clipPath
       clipPathUnits="userSpaceOnUse"
       id="clipPath2020">
      <path
         d="M 0,841.89 H 595.276 V 0 H 0 Z"
         transform="translate(-139.854,-309.79701)"
         id="path2020" />
    </clipPath>
    <clipPath
       clipPathUnits="userSpaceOnUse"
       id="clipPath2022">
      <path
         d="M 0,841.89 H 595.276 V 0 H 0 Z"
         transform="translate(-139.855,-309.79701)"
         id="path2022" />
    </clipPath>
    <clipPath
       clipPathUnits="userSpaceOnUse"
       id="clipPath2024">
      <path
         d="M 0,841.89 H 595.276 V 0 H 0 Z"
         transform="translate(-141.24,-303.04201)"
         id="path2024" />
    </clipPath>
    <clipPath
       clipPathUnits="userSpaceOnUse"
       id="clipPath2026">
      <path
         d="M 0,841.89 H 595.276 V 0 H 0 Z"
         transform="translate(-141.23901,-303.04101)"
         id="path2026" />
    </clipPath>
    <clipPath
       clipPathUnits="userSpaceOnUse"
       id="clipPath2028">
      <path
         d="M 0,841.89 H 595.276 V 0 H 0 Z"
         transform="translate(-162.23901,-309.24701)"
         id="path2028" />
    </clipPath>
    <clipPath
       clipPathUnits="userSpaceOnUse"
       id="clipPath2030">
      <path
         d="M 0,841.89 H 595.276 V 0 H 0 Z"
         transform="translate(-162.24,-309.24701)"
         id="path2030" />
    </clipPath>
    <clipPath
       clipPathUnits="userSpaceOnUse"
       id="clipPath2032">
      <path
         d="M 0,841.89 H 595.276 V 0 H 0 Z"
         id="path2032" />
    </clipPath>
    <clipPath
       clipPathUnits="userSpaceOnUse"
       id="clipPath2034">
      <path
         d="M 0,841.89 H 595.276 V 0 H 0 Z"
         transform="translate(-148.747,-357.89001)"
         id="path2034" />
    </clipPath>
    <clipPath
       clipPathUnits="userSpaceOnUse"
       id="clipPath2036">
      <path
         d="M 0,841.89 H 595.276 V 0 H 0 Z"
         transform="translate(-130.953,-358.19301)"
         id="path2036" />
    </clipPath>
    <clipPath
       clipPathUnits="userSpaceOnUse"
       id="clipPath2038">
      <path
         d="M 0,841.89 H 595.276 V 0 H 0 Z"
         transform="translate(-90.627302,-396.45801)"
         id="path2038" />
    </clipPath>
    <clipPath
       clipPathUnits="userSpaceOnUse"
       id="clipPath2040">
      <path
         d="M 0,841.89 H 595.276 V 0 H 0 Z"
         transform="translate(-147.537,-413.82901)"
         id="path2040" />
    </clipPath>
    <clipPath
       clipPathUnits="userSpaceOnUse"
       id="clipPath2042">
      <path
         d="M 0,841.89 H 595.276 V 0 H 0 Z"
         transform="translate(-97.942705,-421.39501)"
         id="path2042" />
    </clipPath>
  </defs>
  <g
     inkscape:label="Layer 1"
     inkscape:groupmode="layer"
     id="layer1"
     transform="translate(-82.549999,-118.53333)">
    <g
       id="g4075"
       transform="matrix(0.26458333,0,0,0.26458333,65.313981,79.600425)">
      <g
         id="g1">
        <path
           style="fill:#ffffff;stroke:#ffffff;stroke-width:0.877059"
           id="rect1"
           width="169.20169"
           height="225.89459"
           x="65.582489"
           y="147.58603"
           inkscape:path-effect="#path-effect1"
           sodipodi:type="rect"
           d="M 65.582489,147.58603 H 234.78418 V 373.48062 H 65.582489 Z" />
        <path
           id="path1995"
           d="m 0,0 h -107.832 c -5.417,0 -9.823,-4.348 -9.823,-9.691 v -150.698 c 0,-5.341 4.406,-9.69 9.823,-9.69 H 0 c 5.459,0 9.904,4.349 9.904,9.69 V -9.691 C 9.904,-4.348 5.459,0 0,0 m 0,-0.573 c 5.146,0 9.331,-4.09 9.331,-9.118 v -150.698 c 0,-5.027 -4.185,-9.118 -9.331,-9.118 h -107.832 c -5.101,0 -9.25,4.091 -9.25,9.118 V -9.691 c 0,5.028 4.149,9.118 9.25,9.118 L 0,-0.573"
           style="fill:#4467a5;fill-opacity:1;fill-rule:nonzero;stroke:none"
           transform="matrix(1.3333333,0,0,-1.3333333,222.01733,147.14732)"
           clip-path="url(#clipPath1996)" />
        <path
           id="path1997"
           d="m 0,0 c -2.552,0 -4.628,-2.079 -4.628,-4.635 v -149.336 c 0,-2.553 2.076,-4.633 4.628,-4.633 h 106.484 c 2.594,0 4.704,2.08 4.704,4.633 V -4.635 c 0,2.556 -2.11,4.635 -4.704,4.635 z"
           style="fill:#4467a5;fill-opacity:1;fill-rule:nonzero;stroke:none"
           transform="matrix(1.3333333,0,0,-1.3333333,79.139735,154.79932)"
           clip-path="url(#clipPath1998)" />
        <path
           id="path1999"
           d="M 0,0 V -5.537 H 7.285 V 0 H 9.251 V -13.235 H 7.285 V -7.03 H 0 v -6.205 H -1.966 V 0 Z"
           style="fill:#ffffff;fill-opacity:1;fill-rule:nonzero;stroke:none"
           transform="matrix(1.3333333,0,0,-1.3333333,81.676135,342.32865)"
           clip-path="url(#clipPath2000)" />
        <path
           id="path2001"
           d="M 0,0 V -5.537 H 7.287 V 0 H 9.254 V -13.237 H 7.287 v 6.206 H 0 v -6.206 H -1.967 V 0 Z"
           style="fill:none;stroke:#ffffff;stroke-width:0.013;stroke-linecap:butt;stroke-linejoin:miter;stroke-miterlimit:2.613;stroke-dasharray:none;stroke-opacity:1"
           transform="matrix(1.3333333,0,0,-1.3333333,81.674802,342.32732)"
           clip-path="url(#clipPath2002)" />
        <path
           id="path2003"
           d="m 0,0 c 0,-4.535 -3.15,-6.973 -6.993,-6.973 -4,0 -6.772,2.732 -6.772,6.738 0,4.202 2.95,6.952 6.973,6.952 C -2.659,6.717 0,3.947 0,0 m -11.708,-0.196 c 0,-2.847 1.742,-5.381 4.826,-5.381 3.084,0 4.826,2.495 4.826,5.5 0,2.649 -1.563,5.398 -4.803,5.398 -3.242,0 -4.849,-2.631 -4.849,-5.517"
           style="fill:#ffffff;fill-opacity:1;fill-rule:nonzero;stroke:none"
           transform="matrix(1.3333333,0,0,-1.3333333,113.87533,350.96865)"
           clip-path="url(#clipPath2004)" />
        <path
           id="path2005"
           d="m 0,0 c 0,-4.536 -3.15,-6.974 -6.994,-6.974 -4.001,0 -6.773,2.732 -6.773,6.739 0,4.203 2.951,6.953 6.974,6.953 C -2.659,6.718 0,3.948 0,0 Z m -11.71,-0.195 c 0,-2.849 1.743,-5.382 4.827,-5.382 3.084,0 4.827,2.495 4.827,5.499 0,2.65 -1.564,5.4 -4.804,5.4 -3.242,0 -4.85,-2.632 -4.85,-5.517 z"
           style="fill:none;stroke:#ffffff;stroke-width:0.013;stroke-linecap:butt;stroke-linejoin:miter;stroke-miterlimit:2.613;stroke-dasharray:none;stroke-opacity:1"
           transform="matrix(1.3333333,0,0,-1.3333333,113.87667,350.96865)"
           clip-path="url(#clipPath2006)" />
        <path
           id="path2007"
           d="M 0,0 C -0.112,1.845 -0.246,4.084 -0.246,5.714 H -0.291 C -0.827,4.183 -1.431,2.513 -2.19,0.687 l -2.66,-6.421 h -1.474 l -2.458,6.301 c -0.715,1.887 -1.296,3.576 -1.721,5.147 h -0.045 c -0.044,-1.651 -0.156,-3.85 -0.29,-5.853 l -0.402,-5.674 h -1.856 l 1.051,13.235 h 2.481 l 2.569,-6.401 c 0.626,-1.63 1.118,-3.084 1.52,-4.459 h 0.044 c 0.403,1.335 0.939,2.79 1.61,4.459 l 2.68,6.401 H 1.341 L 2.278,-5.813 H 0.357 Z"
           style="fill:#ffffff;fill-opacity:1;fill-rule:nonzero;stroke:none"
           transform="matrix(1.3333333,0,0,-1.3333333,132.6488,352.22465)"
           clip-path="url(#clipPath2008)" />
        <path
           id="path2009"
           d="M 0,0 C -0.111,1.847 -0.245,4.085 -0.245,5.716 H -0.29 C -0.826,4.184 -1.431,2.515 -2.189,0.687 L -4.85,-5.734 h -1.474 l -2.459,6.302 c -0.715,1.887 -1.296,3.577 -1.721,5.148 h -0.045 c -0.044,-1.651 -0.156,-3.851 -0.29,-5.854 l -0.403,-5.675 h -1.855 l 1.051,13.237 h 2.481 l 2.57,-6.403 c 0.625,-1.63 1.117,-3.084 1.52,-4.459 h 0.044 c 0.403,1.335 0.939,2.791 1.61,4.459 L -1.14,7.424 H 1.341 L 2.28,-5.813 H 0.357 Z"
           style="fill:none;stroke:#ffffff;stroke-width:0.013;stroke-linecap:butt;stroke-linejoin:miter;stroke-miterlimit:2.613;stroke-dasharray:none;stroke-opacity:1"
           transform="matrix(1.3333333,0,0,-1.3333333,132.6488,352.22599)"
           clip-path="url(#clipPath2010)" />
        <path
           id="path2011"
           d="M 0,0 H -5.832 V -4.771 H 0.692 V -6.205 H -7.799 V 7.029 H 0.357 V 5.597 H -5.832 V 1.415 H 0 Z"
           style="fill:#ffffff;fill-opacity:1;fill-rule:nonzero;stroke:none"
           transform="matrix(1.3333333,0,0,-1.3333333,147.22643,351.70199)"
           clip-path="url(#clipPath2012)" />
        <path
           id="path2015"
           d="M 0,0 8.335,10.741 V 10.8 h -7.62 v 1.432 h 10.168 v -1.04 L 2.569,0.489 V 0.432 h 8.425 V -1.002 H 0 Z"
           style="fill:#ffffff;fill-opacity:1;fill-rule:nonzero;stroke:none"
           transform="matrix(1.3333333,0,0,-1.3333333,157.78667,358.63932)"
           clip-path="url(#clipPath2016)" />
        <path
           id="path2017"
           d="m 0,0 8.337,10.744 v 0.06 H 0.716 v 1.431 h 10.17 v -1.04 L 2.57,0.49 V 0.433 h 8.427 V -1.001 H 0 Z"
           style="fill:none;stroke:#ffffff;stroke-width:0.013;stroke-linecap:butt;stroke-linejoin:miter;stroke-miterlimit:2.613;stroke-dasharray:none;stroke-opacity:1"
           transform="matrix(1.3333333,0,0,-1.3333333,157.784,358.64199)"
           clip-path="url(#clipPath2018)" />
        <path
           id="path2019"
           d="m 0,0 c 0,-4.535 -3.151,-6.973 -6.994,-6.973 -4,0 -6.771,2.732 -6.771,6.738 0,4.202 2.949,6.952 6.972,6.952 C -2.659,6.717 0,3.947 0,0 m -11.709,-0.196 c 0,-2.847 1.743,-5.381 4.826,-5.381 3.084,0 4.826,2.495 4.826,5.5 0,2.649 -1.563,5.398 -4.803,5.398 -3.241,0 -4.849,-2.631 -4.849,-5.517"
           style="fill:#ffffff;fill-opacity:1;fill-rule:nonzero;stroke:none"
           transform="matrix(1.3333333,0,0,-1.3333333,191.244,350.96865)"
           clip-path="url(#clipPath2020)" />
        <path
           id="path2021"
           d="m 0,0 c 0,-4.536 -3.151,-6.974 -6.996,-6.974 -4,0 -6.772,2.732 -6.772,6.739 0,4.203 2.951,6.953 6.974,6.953 C -2.66,6.718 0,3.948 0,0 Z m -11.711,-0.195 c 0,-2.849 1.743,-5.382 4.827,-5.382 3.085,0 4.827,2.495 4.827,5.499 0,2.65 -1.563,5.4 -4.804,5.4 -3.241,0 -4.85,-2.632 -4.85,-5.517 z"
           style="fill:none;stroke:#ffffff;stroke-width:0.013;stroke-linecap:butt;stroke-linejoin:miter;stroke-miterlimit:2.613;stroke-dasharray:none;stroke-opacity:1"
           transform="matrix(1.3333333,0,0,-1.3333333,191.24533,350.96865)"
           clip-path="url(#clipPath2022)" />
        <path
           id="path2023"
           d="M 0,0 V 13.234 H 2.146 L 6.95,6.539 C 8.045,4.987 8.938,3.594 9.632,2.237 L 9.698,2.259 C 9.52,4.024 9.476,5.636 9.476,7.697 v 5.537 h 1.832 L 11.308,0 H 9.341 L 4.56,6.716 C 3.509,8.188 2.504,9.7 1.766,11.135 L 1.699,11.113 C 1.811,9.445 1.832,7.854 1.832,5.654 V 0 Z"
           style="fill:#ffffff;fill-opacity:1;fill-rule:nonzero;stroke:none"
           transform="matrix(1.3333333,0,0,-1.3333333,193.092,359.97532)"
           clip-path="url(#clipPath2024)" />
        <path
           id="path2025"
           d="M 0,0 V 13.237 H 2.146 L 6.951,6.541 C 8.047,4.988 8.94,3.594 9.634,2.237 L 9.7,2.259 C 9.521,4.025 9.477,5.637 9.477,7.699 v 5.538 H 11.31 V 0 H 9.343 L 4.56,6.717 C 3.51,8.189 2.504,9.703 1.766,11.136 L 1.699,11.117 C 1.812,9.446 1.833,7.855 1.833,5.655 V 0 Z"
           style="fill:none;stroke:#ffffff;stroke-width:0.013;stroke-linecap:butt;stroke-linejoin:miter;stroke-miterlimit:2.613;stroke-dasharray:none;stroke-opacity:1"
           transform="matrix(1.3333333,0,0,-1.3333333,193.09067,359.97665)"
           clip-path="url(#clipPath2026)" />
        <path
           id="path2027"
           d="m 0,0 h -5.832 v -4.771 h 6.524 v -1.434 h -8.49 V 7.029 H 0.357 V 5.597 H -5.832 V 1.415 H 0 Z"
           style="fill:#ffffff;fill-opacity:1;fill-rule:nonzero;stroke:none"
           transform="matrix(1.3333333,0,0,-1.3333333,221.09067,351.70199)"
           clip-path="url(#clipPath2028)" />
        <path
           id="path2029"
           d="M 0,0 H -5.834 V -4.772 H 0.692 V -6.206 H -7.8 V 7.03 H 0.358 V 5.599 H -5.834 V 1.415 H 0 Z"
           style="fill:none;stroke:#ffffff;stroke-width:0.013;stroke-linecap:butt;stroke-linejoin:miter;stroke-miterlimit:2.613;stroke-dasharray:none;stroke-opacity:1"
           transform="matrix(1.3333333,0,0,-1.3333333,221.092,351.70199)"
           clip-path="url(#clipPath2030)" />
        <path
           id="path2031"
           d="m 54.37,326.233 h 109.376 v -4.011 H 54.37 Z"
           style="fill:#ffffff;fill-opacity:1;fill-rule:nonzero;stroke:none"
           transform="matrix(1.3333333,0,0,-1.3333333,4.772002,764.03132)"
           clip-path="url(#clipPath2032)" />
        <path
           id="path2033"
           d="M 0,0 C -0.216,0.609 -0.109,1.442 0.289,1.892 L 1,0.153 C 0.813,0.146 0.161,0.018 0,0 m -9.308,-12.255 c -0.007,-3.232 -0.446,-4.549 -1.316,-3.946 -0.824,0.2 -0.564,1.248 0.737,3.167 -1.093,0.644 -1.874,1.277 -2.364,1.848 -1.286,2.262 -2.705,3.6 -4.281,3.994 -0.194,0.921 -0.833,1.605 -1.918,2.049 3.837,-1.296 3.639,1.013 2.072,3.604 -0.079,0.065 -0.155,0.138 -0.226,0.213 -0.344,0.36 -0.897,0.917 -1.19,1.629 0.016,0.028 0.028,0.056 0.037,0.088 0.517,-0.626 0.99,-1.287 1.379,-1.93 1.169,-0.984 3.164,-1.098 6.179,-1.261 1.428,2.542 2.769,8.197 3.194,3.278 -1.701,-1.115 -0.601,-3.289 0.418,-3.034 -0.968,-2.114 -1.605,-3.88 -2.721,-9.699 M -16.219,6.6 c 0.022,-2.428 -0.924,-4.159 -1.695,-4.919 l -0.855,6.06 c 0.906,-0.398 2.147,-0.678 2.55,-1.141 m -3.795,-0.769 0.515,-3.327 c -1.797,0.533 -1.565,2.096 -0.515,3.327 M 5.967,-5.208 c 1.56,0.386 1.754,1.576 0.56,3.542 0.135,2.437 -0.714,4.995 -3.437,7.674 -1.264,1.559 -3.568,2.319 -6.823,2.586 0.243,0.164 0.226,0.305 0.383,0.516 5.591,7.49 -9.482,8.314 -4.218,-0.249 0.52,-0.222 0.966,-0.385 0.669,-0.715 -1.264,0.032 -2.855,-2.614 -4.772,-7.98 -1.056,-0.609 -2.2,-0.298 -3.434,0.892 0.974,1.347 1.772,3.429 2.1,6.246 0.079,0.673 0.226,0.77 -0.423,1.351 -2.029,1.824 -4.273,2.969 -6.076,4.302 l -0.01,0.069 c -0.117,0.827 -1.327,0.845 -1.458,0.263 -1.191,-0.291 -1.555,-0.072 -1.09,0.656 0.302,0.347 0.905,0.466 1.113,0.806 5.35,8.723 -9.631,9.771 -5.173,0.128 0.411,-0.893 1.282,-0.133 0.803,-1.894 -1.05,-0.072 -1.865,0.068 -2.494,-0.483 -0.716,-0.623 -1.142,-1.931 -1.966,-3.284 -1.854,-3.112 -3.034,-6.184 -4.855,-7.282 -0.625,-0.377 -1.653,0.12 -2.083,-0.18 -0.69,-0.481 -0.887,-1.512 -1.449,-1.504 -0.006,-0.207 0.861,-0.363 1.312,-0.251 0.387,0.097 0.199,-0.549 0.484,-0.605 0.456,-0.087 0.192,-0.583 0.309,-0.816 0.968,0.038 0.458,0.066 1.5,0.543 0.241,0.108 0.833,-0.149 0.735,0.353 -0.066,0.33 0.608,0.243 0.868,0.564 1.061,1.309 2.859,2.003 4.072,3.815 0.143,0.213 0.838,1.92 0.995,2.131 -1.358,-4.565 -2.379,-6.884 -5.101,-11.22 0.989,0.081 1.874,-0.052 2.545,-0.287 -0.758,-2.63 -1.694,-6.371 -2.63,-11.038 0.207,-1.495 -4.208,-0.965 -4.236,-1.583 -1.205,-0.776 2.5,-1.26 3.474,-1.276 2.189,-0.04 3.214,-1.507 3.413,0.068 0.041,1.91 0.42,3.597 0.602,3.879 2.717,3.924 3.756,6.447 3.297,9.161 2.212,-0.057 3.218,-0.408 5.03,-0.106 -0.604,-1.044 1.117,-2.436 5.342,-4.809 1.598,-1.753 3.15,-3.417 2.627,-5.15 -1.963,-2.355 0.566,-2.957 0.723,-1.589 0.025,0.212 0.879,0.198 0.976,0.395 0.302,-0.907 1.497,-0.962 2.828,-0.618 1.776,-1.428 2.235,-1.518 2.314,0 0.906,6.943 3.396,11.667 4.527,12.574 0.204,-2.352 0.57,-2.753 5.652,-7.517 0.048,-0.458 0.228,-0.414 0.51,-0.874 -0.179,-1.295 -0.193,-1.977 0.178,-2.163 1.1,-0.194 1.331,0.696 1.226,2.542 0.625,0.146 0.751,0.235 0.825,2.347 C 3.014,-8.659 1.387,-6.257 0.739,-3.343 4.748,-3.901 3.8,0.686 2.193,0.429 L 1.086,2.877 C 2.668,1.96 3.765,0.345 4.361,-1.953 3.209,-4.086 3.736,-5.164 5.967,-5.208"
           style="fill:#ffffff;fill-opacity:1;fill-rule:nonzero;stroke:none"
           transform="matrix(1.3333333,0,0,-1.3333333,203.10133,286.84465)"
           clip-path="url(#clipPath2034)" />
        <path
           id="path2035"
           d="M 0,0 C 0.293,-0.712 0.846,-1.27 1.189,-1.629 1.261,-1.704 1.337,-1.775 1.416,-1.843 1.027,-1.199 0.554,-0.538 0.037,0.088 0.028,0.058 0.016,0.027 0,0"
           style="fill:#ffffff;fill-opacity:1;fill-rule:nonzero;stroke:none"
           transform="matrix(1.3333333,0,0,-1.3333333,179.376,286.44065)"
           clip-path="url(#clipPath2036)" />
        <path
           id="path2037"
           d="m 0,0 c -0.053,-0.355 -0.237,-0.764 -0.507,-1.224 -0.65,-1.108 -0.252,-1.439 0.568,-2.362 0.08,-0.156 0.324,-0.588 0.249,-0.837 -0.076,-0.25 -0.471,-0.32 -0.651,-0.451 -0.786,-0.578 0.23,-0.939 0.207,-1.669 -0.053,-1.848 -3.027,-0.757 -2.827,-0.738 0.606,0.053 -0.168,-1.713 0.169,-2.162 0.396,-0.525 1.421,-1.027 2.433,-1.338 1.885,-0.58 2.613,-1.504 3.179,-3.532 0.409,-1.464 1.34,-2.099 1.632,-2.874 0.048,-0.126 -0.949,-0.336 -0.897,-0.452 0.377,-0.823 0.882,-1.372 1.496,-1.673 3.658,-5.771 2.28,-3.978 3.432,-5.46 1.871,-2.408 3.447,-2.684 3.473,-4.23 -0.168,-0.181 -0.459,-0.112 -0.712,-0.069 -0.238,0.04 -0.3,-0.477 -0.501,-0.459 -0.368,0.034 -0.277,-0.519 -0.526,-0.534 -0.125,-0.007 -0.289,0.182 -0.493,0.244 -0.192,0.056 0.002,-0.373 -0.104,-0.36 -0.862,0.116 -1.662,0.812 -2.625,2.615 -1.36,0.766 -3.851,2.819 -4.727,4.731 -0.87,1.899 -1.032,2.599 -2.787,3.546 0.213,-1.226 0.218,-5.893 0.739,-10.432 0.108,-0.942 0.238,-1.882 0.397,-2.779 0.307,-1.733 3.138,-3.827 3.467,-7.585 0.447,-5.092 -0.383,-7.758 0.502,-13.481 -0.465,-0.312 -1.634,-0.078 -1.796,-0.392 -0.238,-0.464 0.3,-1.429 0.777,-1.698 0.314,-0.176 0.914,-0.047 1.532,-0.176 4.618,0.809 6.292,0.145 5.021,-1.99 -3.087,-0.357 -5.112,-0.601 -6.01,-1.146 -0.348,-0.213 -0.479,-0.65 -0.513,-0.897 -1.433,-0.255 -2.531,-0.254 -2.913,0 -0.003,0.17 0.1,0.411 -0.044,0.493 -0.656,0.374 -0.952,0.953 -0.705,1.655 0.08,0.228 0.011,1.559 -0.353,1.766 -0.32,0.181 -1.201,-1.071 -1.255,-1.066 -2.015,5.157 1.067,19.778 -4.124,24.086 -1.089,-4.153 -2.516,-8.49 -3.524,-10.53 -2.051,-4.151 -5.512,-5.249 -4.607,-10.751 -1.089,0.551 -1.835,0.754 -2.208,0.634 -0.373,-0.12 -0.373,-0.562 0.032,-1.296 2.095,-0.661 2.515,-1.179 2.657,-1.841 0.114,-0.536 0.085,-1.229 -0.894,-1.743 -0.747,-0.394 -0.646,-0.209 -1.435,0.182 -1.263,0.622 -3.031,1.577 -4.358,2.218 -0.512,0.248 -1.062,0.069 -1.065,0.07 -0.435,0.229 -1.014,0.416 -1.447,0.656 -0.081,0.044 0.104,0.37 0.014,0.394 -0.081,0.023 -0.164,0.043 -0.247,0.064 0.274,0.852 0.139,1.915 1.566,1.734 0.319,-0.038 0.382,3.769 0.37,3.999 3.032,0.421 5.618,7.081 6.532,9.042 0.174,0.702 3.107,7.913 2.666,8.529 -1.763,2.453 -2.128,6.481 0.112,8.798 0.733,0.757 0.514,4.454 0.123,5.417 -1.148,2.836 -0.899,-0.735 -1.627,-0.567 -0.802,0.185 -1.126,-1.534 -1.264,-1.864 -1.072,-2.562 -1.309,-5.035 -2.219,-6.694 -1.098,-2.003 -1.62,-4.662 -2.427,-5.25 -0.268,-0.057 -0.403,0.192 -0.108,0.816 0.052,0.112 -0.23,-0.19 -0.285,-0.425 -0.017,-0.066 -0.317,-0.191 -0.383,0.009 -0.065,0.201 0.041,0.74 0.011,0.751 -0.059,0.021 -0.261,-0.376 -0.322,-0.358 -0.06,0.021 -0.121,0.039 -0.179,0.055 -0.201,0.055 0.228,0.453 0.051,0.527 -0.218,0.087 -0.202,-0.321 -0.474,-0.269 -0.085,0.017 0.044,0.352 -0.007,0.439 -0.863,1.457 0.626,2.741 0.767,4.42 -0.242,1.911 0.302,4.027 1.663,6.368 0.398,0.688 1.278,2.002 1.679,2.955 0.133,0.318 -0.238,0.196 -0.096,0.528 0.887,2.078 1.991,4.396 3.834,6.122 1.854,0.77 4.209,-0.166 4.773,0.954 0.681,1.352 0.593,2.138 0.733,3.266 0.062,0.494 -1.214,1.043 -1.623,1.452 -1.774,1.768 -0.557,4.053 0.61,5.002 C -5.995,2.84 0.086,0.592 0,0"
           style="fill:#ffffff;fill-opacity:1;fill-rule:nonzero;stroke:none"
           transform="matrix(1.3333333,0,0,-1.3333333,125.6084,235.42065)"
           clip-path="url(#clipPath2038)" />
        <path
           id="path2039"
           d="m 0,0 c 0,-0.7 -0.673,-1.282 -1.482,-1.282 h -6.095 c -0.809,0 -1.483,0.576 -1.483,1.282 v 5.698 c 0,0.705 0.667,1.282 1.483,1.282 h 6.095 C -0.667,6.98 0,6.397 0,5.698 Z m -11.814,21.956 h -0.834 c -0.842,0 -1.53,0.688 -1.53,1.528 0,0.843 0.688,1.532 1.53,1.532 h 0.834 c 0.841,0 1.53,-0.689 1.53,-1.532 0,-0.84 -0.689,-1.528 -1.53,-1.528 m -3.175,-33.192 h -9.059 V 6.98 c 0,0.864 0.816,1.569 1.812,1.569 h 4.941 c 1.269,0 2.306,-0.908 2.306,-1.995 z M 5.678,-11.877 V 9.144 h 2.82 l -2.82,1.685 v 7.857 H 8.313 V 22.09 L 4.12,23.981 v 6.995 h -4.638 v -4.903 l -11.341,5.115 -20.917,-9.098 v -2.979 l 3.459,10e-4 v -8.283 l -3.219,-1.685 h 3.219 v -21.092 h -2.054 l 0.083,-3.919 39.267,-0.071 -0.001,4.061 z"
           style="fill:#ffffff;fill-opacity:1;fill-rule:nonzero;stroke:none"
           transform="matrix(1.3333333,0,0,-1.3333333,201.488,212.25932)"
           clip-path="url(#clipPath2040)" />
        <path
           id="path2041"
           d="m 0,0 c -1.371,0 -2.485,1.111 -2.485,2.484 0,1.372 1.114,2.487 2.485,2.487 1.373,0 2.485,-1.115 2.485,-2.487 C 2.485,1.111 1.373,0 0,0 m -29.101,7.157 0.9,3.71 c 0.451,1.862 0.758,3.801 3.471,3.801 h 18.547 c 2.398,0 3.162,-1.786 3.648,-3.801 L -1.618,7.063 Z M -30.353,0 c -1.372,0 -2.484,1.111 -2.484,2.484 0,1.372 1.112,2.487 2.484,2.487 1.373,0 2.486,-1.115 2.486,-2.487 C -27.867,1.111 -28.98,0 -30.353,0 M 2.556,5.293 3.053,4.971 0.479,11.752 c -0.985,2.631 -1.549,5.206 -4.52,5.206 h -22.98 c -3.361,0 -3.564,-2.708 -4.3,-5.206 -0.601,-2.033 -1.35,-6.418 -1.884,-6.715 -1.267,-0.704 -2.002,-1.539 -2.002,-2.506 V -2.6 c 0,-0.653 0.987,-1.218 2.394,-1.467 -0.177,-0.837 -0.403,-5.357 0.385,-5.357 h 4.701 c 0.699,0 0.596,4.237 0.413,5.222 h 23.91 c -0.153,-0.815 -0.359,-5.222 0.413,-5.222 H 1.71 c 0.785,0 0.559,4.474 0.402,5.273 1.712,0.179 2.987,0.81 2.987,1.551 v 5.131 c 0,1.086 -0.947,2.006 -2.543,2.762"
           style="fill:#ffffff;fill-opacity:1;fill-rule:nonzero;stroke:none"
           transform="matrix(1.3333333,0,0,-1.3333333,135.36227,202.17132)"
           clip-path="url(#clipPath2042)" />
      </g>
    </g>
  </g>
</svg>
