<?xml version="1.0" encoding="UTF-8" standalone="no"?>
<!-- Created with Inkscape (http://www.inkscape.org/) -->

<svg
   width="44.999977mm"
   height="59.999737mm"
   viewBox="0 0 44.999977 59.999737"
   version="1.1"
   id="svg1"
   inkscape:version="1.4 (86a8ad7, 2024-10-11)"
   sodipodi:docname="hospital.svg"
   xmlns:inkscape="http://www.inkscape.org/namespaces/inkscape"
   xmlns:sodipodi="http://sodipodi.sourceforge.net/DTD/sodipodi-0.dtd"
   xmlns="http://www.w3.org/2000/svg"
   xmlns:svg="http://www.w3.org/2000/svg">
  <sodipodi:namedview
     id="namedview1"
     pagecolor="#ffffff"
     bordercolor="#000000"
     borderopacity="0.25"
     inkscape:showpageshadow="2"
     inkscape:pageopacity="0.0"
     inkscape:pagecheckerboard="0"
     inkscape:deskcolor="#d1d1d1"
     inkscape:document-units="mm"
     inkscape:zoom="2.0334082"
     inkscape:cx="92.20972"
     inkscape:cy="157.61715"
     inkscape:window-width="1920"
     inkscape:window-height="1009"
     inkscape:window-x="-8"
     inkscape:window-y="-8"
     inkscape:window-maximized="1"
     inkscape:current-layer="g4075" />
  <defs
     id="defs1">
    <inkscape:path-effect
       effect="fillet_chamfer"
       id="path-effect1"
       is_visible="true"
       lpeversion="1"
       nodesatellites_param="F,0,0,1,0,0,0,1 @ F,0,0,1,0,0,0,1 @ F,0,0,1,0,0,0,1 @ F,0,0,1,0,0,0,1"
       radius="0"
       unit="px"
       method="auto"
       mode="F"
       chamfer_steps="1"
       flexible="false"
       use_knot_distance="true"
       apply_no_radius="true"
       apply_with_radius="true"
       only_selected="false"
       hide_knots="false" />
    <clipPath
       clipPathUnits="userSpaceOnUse"
       id="clipPath4010">
      <path
         d="M 0,841.89 H 595.276 V 0 H 0 Z"
         transform="translate(-166.51401,-731.52902)"
         id="path4010" />
    </clipPath>
    <clipPath
       clipPathUnits="userSpaceOnUse"
       id="clipPath4012">
      <path
         d="M 0,841.89 H 595.276 V 0 H 0 Z"
         transform="translate(-59.355001,-725.79102)"
         id="path4012" />
    </clipPath>
    <clipPath
       clipPathUnits="userSpaceOnUse"
       id="clipPath4014">
      <path
         d="M 0,841.89 H 595.276 V 0 H 0 Z"
         id="path4014" />
    </clipPath>
    <clipPath
       clipPathUnits="userSpaceOnUse"
       id="clipPath4016">
      <path
         d="M 0,841.89 H 595.276 V 0 H 0 Z"
         transform="translate(-132.939,-632.53702)"
         id="path4016" />
    </clipPath>
    <clipPath
       clipPathUnits="userSpaceOnUse"
       id="clipPath4018">
      <path
         d="M 0,841.89 H 595.276 V 0 H 0 Z"
         transform="translate(-446.64601,-731.52902)"
         id="path4018" />
    </clipPath>
    <clipPath
       clipPathUnits="userSpaceOnUse"
       id="clipPath4020">
      <path
         d="M 0,841.89 H 595.276 V 0 H 0 Z"
         transform="translate(-339.48701,-725.79102)"
         id="path4020" />
    </clipPath>
    <clipPath
       clipPathUnits="userSpaceOnUse"
       id="clipPath4022">
      <path
         d="M 0,841.89 H 595.276 V 0 H 0 Z"
         id="path4022" />
    </clipPath>
    <clipPath
       clipPathUnits="userSpaceOnUse"
       id="clipPath4024">
      <path
         d="M 0,841.89 H 595.276 V 0 H 0 Z"
         transform="translate(-409.44701,-659.97202)"
         id="path4024" />
    </clipPath>
    <clipPath
       clipPathUnits="userSpaceOnUse"
       id="clipPath1000">
      <path
         d="M 0,0 H 595.276 V 841.89 H 0 Z"
         transform="translate(-166.51401,-731.47102)"
         id="path1000" />
    </clipPath>
    <clipPath
       clipPathUnits="userSpaceOnUse"
       id="clipPath1002">
      <path
         d="M 0,0 H 595.276 V 841.89 H 0 Z"
         transform="translate(-59.354602,-725.73102)"
         id="path1002" />
    </clipPath>
    <clipPath
       clipPathUnits="userSpaceOnUse"
       id="clipPath1004">
      <path
         d="M 0,0 H 595.276 V 841.89 H 0 Z"
         transform="translate(-94.148605,-610.35401)"
         id="path1004" />
    </clipPath>
    <clipPath
       clipPathUnits="userSpaceOnUse"
       id="clipPath1006">
      <path
         d="M 0,0 H 595.276 V 841.89 H 0 Z"
         id="path1006" />
    </clipPath>
    <clipPath
       clipPathUnits="userSpaceOnUse"
       id="clipPath1008">
      <path
         d="M 0,0 H 595.276 V 841.89 H 0 Z"
         transform="translate(-141.47001,-653.96302)"
         id="path1008" />
    </clipPath>
    <clipPath
       clipPathUnits="userSpaceOnUse"
       id="clipPath1010">
      <path
         d="M 0,0 H 595.276 V 841.89 H 0 Z"
         id="path1010" />
    </clipPath>
    <clipPath
       clipPathUnits="userSpaceOnUse"
       id="clipPath1012">
      <path
         d="M 0,0 H 595.276 V 841.89 H 0 Z"
         transform="translate(-122.364,-682.30502)"
         id="path1012" />
    </clipPath>
  </defs>
  <g
     inkscape:label="Layer 1"
     inkscape:groupmode="layer"
     id="layer1"
     transform="translate(-82.549999,-118.53333)">
    <g
       id="g4075"
       transform="matrix(0.26458333,0,0,0.26458333,65.313981,79.600425)">
      <path
         style="fill:#ffffff;stroke:#ffffff;stroke-width:0.877059"
         id="rect1"
         width="169.20169"
         height="225.89459"
         x="65.582489"
         y="147.58603"
         inkscape:path-effect="#path-effect1"
         sodipodi:type="rect"
         d="M 65.582489,147.58603 H 234.78418 V 373.48062 H 65.582489 Z" />
      <path
         id="path999"
         d="m 0,0 h -107.832 c -5.418,0 -9.824,-4.347 -9.824,-9.69 v -150.698 c 0,-5.341 4.406,-9.691 9.824,-9.691 H 0 c 5.458,0 9.903,4.35 9.903,9.691 V -9.69 C 9.903,-4.347 5.458,0 0,0 m 0,-0.572 c 5.145,0 9.33,-4.092 9.33,-9.118 v -150.698 c 0,-5.028 -4.185,-9.119 -9.33,-9.119 h -107.832 c -5.102,0 -9.251,4.091 -9.251,9.119 V -9.69 c 0,5.026 4.149,9.118 9.251,9.118 L 0,-0.572"
         style="fill:#4467a5;fill-opacity:1;fill-rule:nonzero;stroke:none"
         transform="matrix(1.3333333,0,0,-1.3333333,222.01867,147.14732)"
         clip-path="url(#clipPath1000)" />
      <path
         id="path1001"
         d="M 0,0 C -2.552,0 -4.628,-2.079 -4.628,-4.635 V -153.97 c 0,-2.553 2.076,-4.634 4.628,-4.634 h 106.484 c 2.595,0 4.704,2.081 4.704,4.634 V -4.635 c 0,2.556 -2.109,4.635 -4.704,4.635 z"
         style="fill:#4467a5;fill-opacity:1;fill-rule:nonzero;stroke:none"
         transform="matrix(1.3333333,0,0,-1.3333333,79.139462,154.80066)"
         clip-path="url(#clipPath1002)" />
      <path
         style="font-weight:900;font-size:32.2236px;font-family:Arial;fill:#ffffff;stroke-width:1.50107"
         d="m 124.64575,288.62336 h 15.21496 v 5.11361 h -10.30589 l -0.5507,3.46152 q 1.06993,-0.5035 2.10838,-0.75524 1.05419,-0.25175 2.07691,-0.25175 3.46152,0 5.61711,2.09265 2.15558,2.09264 2.15558,5.27095 0,2.23425 -1.11713,4.29543 -1.10139,2.06117 -3.14683,3.14683 -2.02971,1.08566 -5.20802,1.08566 -2.28145,0 -3.91781,-0.42482 -1.62062,-0.44056 -2.76921,-1.2902 -1.13287,-0.86538 -1.8409,-1.95104 -0.70804,-1.08566 -1.18007,-2.70628 l 6.48249,-0.70804 q 0.23601,1.55768 1.10139,2.37586 0.86538,0.80244 2.06118,0.80244 1.3374,0 2.20278,-1.00698 0.88111,-1.02272 0.88111,-3.0367 0,-2.06118 -0.88111,-3.02096 -0.88111,-0.95979 -2.34439,-0.95979 -0.92832,0 -1.7937,0.45629 -0.6451,0.33042 -1.41608,1.1958 l -5.45976,-0.78671 z m 18.89675,11.43875 q 0,-6.57689 2.36013,-9.2045 2.37586,-2.6276 7.22199,-2.6276 2.32866,0 3.8234,0.58216 1.49475,0.56643 2.4388,1.49475 0.94405,0.91258 1.47901,1.9353 0.5507,1.00699 0.88112,2.36013 0.6451,2.5804 0.6451,5.38109 0,6.27794 -2.12412,9.18876 -2.12411,2.91082 -7.31639,2.91082 -2.91082,0 -4.70452,-0.92832 -1.79369,-0.92831 -2.94229,-2.72201 -0.83391,-1.27447 -1.30594,-3.47725 -0.45629,-2.21852 -0.45629,-4.89333 z m 6.35661,0.0157 q 0,4.40557 0.77098,6.02619 0.7867,1.60489 2.26572,1.60489 0.97552,0 1.68355,-0.67657 0.72378,-0.6923 1.05419,-2.17132 0.34616,-1.47901 0.34616,-4.61011 0,-4.59438 -0.78671,-6.1678 -0.77098,-1.58915 -2.32866,-1.58915 -1.58915,0 -2.29719,1.62062 -0.70804,1.60489 -0.70804,5.96325 z m 15.13628,-0.0157 q 0,-6.57689 2.36013,-9.2045 2.37586,-2.6276 7.22198,-2.6276 2.32866,0 3.82341,0.58216 1.49475,0.56643 2.4388,1.49475 0.94405,0.91258 1.47901,1.9353 0.5507,1.00699 0.88111,2.36013 0.64511,2.5804 0.64511,5.38109 0,6.27794 -2.12412,9.18876 -2.12411,2.91082 -7.31639,2.91082 -2.91082,0 -4.70452,-0.92832 -1.7937,-0.92831 -2.94229,-2.72201 -0.83391,-1.27447 -1.30594,-3.47725 -0.45629,-2.21852 -0.45629,-4.89333 z m 6.35661,0.0157 q 0,4.40557 0.77097,6.02619 0.78671,1.60489 2.26572,1.60489 0.97552,0 1.68356,-0.67657 0.72377,-0.6923 1.05419,-2.17132 0.34615,-1.47901 0.34615,-4.61011 0,-4.59438 -0.78671,-6.1678 -0.77097,-1.58915 -2.32865,-1.58915 -1.58916,0 -2.29719,1.62062 -0.70804,1.60489 -0.70804,5.96325 z m 15.79711,-5.09787 h 5.97899 v 2.4388 q 1.2902,-1.52622 2.59614,-2.17132 1.32167,-0.6451 3.1783,-0.6451 1.99824,0 3.16257,0.70804 1.16433,0.70803 1.90384,2.10838 1.51048,-1.63636 2.75348,-2.21852 1.243,-0.5979 3.06816,-0.5979 2.69055,0 4.20103,1.60488 1.51048,1.58916 1.51048,4.98774 v 10.4947 h -6.41954 v -9.51918 q 0,-1.13286 -0.44056,-1.68356 -0.6451,-0.86538 -1.60489,-0.86538 -1.13286,0 -1.82516,0.81818 -0.69231,0.81818 -0.69231,2.62761 v 8.62233 h -6.41954 v -9.2045 q 0,-1.10139 -0.12587,-1.49474 -0.20455,-0.62937 -0.70804,-1.00699 -0.5035,-0.39336 -1.18007,-0.39336 -1.10139,0 -1.80943,0.83391 -0.70803,0.83392 -0.70803,2.73775 v 8.52793 h -6.41955 z"
         id="text1002"
         transform="scale(0.88825275,1.1258057)"
         aria-label="500m" />
      <path
         id="path1003"
         d="M 0,0 -15.296,9.024 0,18.045 v -3.97 H 48.104 V 3.972 H 0 Z"
         style="fill:#ffffff;fill-opacity:1;fill-rule:nonzero;stroke:none"
         transform="matrix(1.3333333,0,0,-1.3333333,125.53147,308.63666)"
         clip-path="url(#clipPath1004)" />
      <path
         id="path1005"
         d="M 147.078,639.077 H 78.196 v 68.882 h 68.882 z"
         style="fill:#ffffff;fill-opacity:1;fill-rule:nonzero;stroke:none"
         transform="matrix(1.3333333,0,0,-1.3333333,-4.7056266e-6,1122.442)"
         clip-path="url(#clipPath1006)" />
      <path
         id="path1007"
         d="m 0,0 -0.061,11.678 c -0.118,3.704 -1.955,5.653 -4.514,5.602 -0.316,0 -0.643,-0.024 -0.974,-0.076 -3.738,-0.567 -13.121,-1.858 -15.478,-2.819 -0.343,-0.141 -0.635,-0.31 -0.9,-0.493 l -12.973,3.025 -0.023,4.478 c -0.118,3.702 -1.955,5.651 -4.515,5.6 -0.31,0 -0.641,-0.022 -0.972,-0.076 -3.74,-0.565 -13.121,-1.858 -15.477,-2.818 -2.5,-1.027 -2.781,-3.327 -2.755,-5.267 0.005,-0.486 0.021,-0.969 0.021,-1.431 0,-2.384 -0.059,-14.069 -0.059,-19.152 l 1.149,-0.009 c -0.002,5.071 0.017,9.605 0.035,13.605 l 33.719,-9.056 c -0.016,-4.138 -0.04,-9.178 -0.04,-14.257 l 1.143,-0.009 c 0,5.074 0.025,10.116 0.042,14.258 l 21.448,4.814 0.04,-12.669 1.149,0.005 z m -55.448,23.042 c 1.955,0.831 11.523,2.2 15.217,2.744 0.27,0.047 0.534,0.068 0.793,0.068 1.936,-0.052 3.13,-1.069 3.372,-4.494 l 0.004,-0.997 -21.416,-3.662 v 0.702 c 0,0.488 -0.015,0.968 -0.015,1.431 0.029,1.955 0.18,3.42 2.045,4.208 m -2.034,-7.505 21.427,3.663 0.014,-2.261 -21.45,-3.668 c 0.005,0.833 0.007,1.598 0.009,2.266 m 2.085,-3.066 19.996,3.464 3.221,-0.752 -20.502,-3.444 z m 31.635,-4.782 c 0,-0.665 -0.004,-2.058 -0.01,-3.709 l -26.457,7.102 14.206,2.433 0.02,-9.957 1.141,0.004 -0.021,10.148 4.981,0.853 -0.003,0.009 7.025,-1.635 c -0.787,-1.124 -0.915,-2.545 -0.899,-3.82 0.005,-0.487 0.017,-0.969 0.017,-1.428 m 1.135,-3.727 c 0.007,1.658 0.012,3.059 0.012,3.727 0,0.488 -0.015,0.964 -0.015,1.428 0.021,1.489 0.119,2.695 0.987,3.53 L -3.14,8.334 Z m 2.47,9.517 c 2.646,0.838 11.315,2.084 14.788,2.589 0.268,0.047 0.534,0.068 0.794,0.068 1.935,-0.054 3.127,-1.067 3.369,-4.49 l 0.013,-2.591 z"
         style="fill:#231f20;fill-opacity:1;fill-rule:nonzero;stroke:none"
         transform="matrix(1.3333333,0,0,-1.3333333,188.62667,250.49132)"
         clip-path="url(#clipPath1008)" />
      <path
         id="path1009"
         d="m 117.051,679.113 h 25.434 v 25.434 h -25.434 z"
         style="fill:#e01f26;fill-opacity:1;fill-rule:nonzero;stroke:none"
         transform="matrix(1.3333333,0,0,-1.3333333,-4.7056266e-6,1122.442)"
         clip-path="url(#clipPath1010)" />
      <path
         id="path1011"
         d="m 0,0 v 18.418 h 3.823 v -7.022 h 7.159 v 7.022 h 3.824 V 0 H 10.982 V 8.223 H 3.823 V 0 Z"
         style="fill:#ffffff;fill-opacity:1;fill-rule:nonzero;stroke:none"
         transform="matrix(1.3333333,0,0,-1.3333333,163.152,212.70199)"
         clip-path="url(#clipPath1012)" />
    </g>
  </g>
</svg>
