<?xml version="1.0" encoding="UTF-8" standalone="no"?>
<!-- Created with Inkscape (http://www.inkscape.org/) -->

<svg
   width="44.999977mm"
   height="59.999737mm"
   viewBox="0 0 44.999977 59.999737"
   version="1.1"
   id="svg1"
   inkscape:version="1.4 (86a8ad7, 2024-10-11)"
   sodipodi:docname="refreshment.svg"
   xmlns:inkscape="http://www.inkscape.org/namespaces/inkscape"
   xmlns:sodipodi="http://sodipodi.sourceforge.net/DTD/sodipodi-0.dtd"
   xmlns="http://www.w3.org/2000/svg"
   xmlns:svg="http://www.w3.org/2000/svg">
  <sodipodi:namedview
     id="namedview1"
     pagecolor="#ffffff"
     bordercolor="#000000"
     borderopacity="0.25"
     inkscape:showpageshadow="2"
     inkscape:pageopacity="0.0"
     inkscape:pagecheckerboard="0"
     inkscape:deskcolor="#d1d1d1"
     inkscape:document-units="mm"
     inkscape:zoom="1.4378367"
     inkscape:cx="-105.36662"
     inkscape:cy="132.49071"
     inkscape:window-width="1920"
     inkscape:window-height="1009"
     inkscape:window-x="-8"
     inkscape:window-y="-8"
     inkscape:window-maximized="1"
     inkscape:current-layer="g4075" />
  <defs
     id="defs1">
    <inkscape:path-effect
       effect="fillet_chamfer"
       id="path-effect1"
       is_visible="true"
       lpeversion="1"
       nodesatellites_param="F,0,0,1,0,0,0,1 @ F,0,0,1,0,0,0,1 @ F,0,0,1,0,0,0,1 @ F,0,0,1,0,0,0,1"
       radius="0"
       unit="px"
       method="auto"
       mode="F"
       chamfer_steps="1"
       flexible="false"
       use_knot_distance="true"
       apply_no_radius="true"
       apply_with_radius="true"
       only_selected="false"
       hide_knots="false" />
    <clipPath
       clipPathUnits="userSpaceOnUse"
       id="clipPath4010">
      <path
         d="M 0,841.89 H 595.276 V 0 H 0 Z"
         transform="translate(-166.51401,-731.52902)"
         id="path4010" />
    </clipPath>
    <clipPath
       clipPathUnits="userSpaceOnUse"
       id="clipPath4012">
      <path
         d="M 0,841.89 H 595.276 V 0 H 0 Z"
         transform="translate(-59.355001,-725.79102)"
         id="path4012" />
    </clipPath>
    <clipPath
       clipPathUnits="userSpaceOnUse"
       id="clipPath4014">
      <path
         d="M 0,841.89 H 595.276 V 0 H 0 Z"
         id="path4014" />
    </clipPath>
    <clipPath
       clipPathUnits="userSpaceOnUse"
       id="clipPath4016">
      <path
         d="M 0,841.89 H 595.276 V 0 H 0 Z"
         transform="translate(-132.939,-632.53702)"
         id="path4016" />
    </clipPath>
    <clipPath
       clipPathUnits="userSpaceOnUse"
       id="clipPath4018">
      <path
         d="M 0,841.89 H 595.276 V 0 H 0 Z"
         transform="translate(-446.64601,-731.52902)"
         id="path4018" />
    </clipPath>
    <clipPath
       clipPathUnits="userSpaceOnUse"
       id="clipPath4020">
      <path
         d="M 0,841.89 H 595.276 V 0 H 0 Z"
         transform="translate(-339.48701,-725.79102)"
         id="path4020" />
    </clipPath>
    <clipPath
       clipPathUnits="userSpaceOnUse"
       id="clipPath4022">
      <path
         d="M 0,841.89 H 595.276 V 0 H 0 Z"
         id="path4022" />
    </clipPath>
    <clipPath
       clipPathUnits="userSpaceOnUse"
       id="clipPath4024">
      <path
         d="M 0,841.89 H 595.276 V 0 H 0 Z"
         transform="translate(-409.44701,-659.97202)"
         id="path4024" />
    </clipPath>
  </defs>
  <g
     inkscape:label="Layer 1"
     inkscape:groupmode="layer"
     id="layer1"
     transform="translate(-82.549999,-118.53333)">
    <g
       id="g4075"
       transform="matrix(0.26458333,0,0,0.26458333,65.313981,79.600425)">
      <g
         id="g1">
        <path
           style="fill:#ffffff;stroke:#ffffff;stroke-width:0.877059"
           id="rect1"
           width="169.20169"
           height="225.89459"
           x="65.582489"
           y="147.58603"
           inkscape:path-effect="#path-effect1"
           sodipodi:type="rect"
           d="M 65.582489,147.58603 H 234.78418 V 373.48062 H 65.582489 Z" />
        <path
           id="path4017"
           d="m 0,0 h -107.832 c -5.418,0 -9.824,-4.346 -9.824,-9.69 v -150.697 c 0,-5.342 4.406,-9.691 9.824,-9.691 H 0 c 5.458,0 9.903,4.349 9.903,9.691 V -9.69 C 9.903,-4.346 5.458,0 0,0 m 0,-0.571 c 5.145,0 9.33,-4.092 9.33,-9.119 v -150.697 c 0,-5.028 -4.185,-9.119 -9.33,-9.119 h -107.832 c -5.102,0 -9.251,4.091 -9.251,9.119 V -9.69 c 0,5.027 4.149,9.119 9.251,9.119 L 0,-0.571"
           style="fill:#4467a5;fill-opacity:1;fill-rule:nonzero;stroke:none"
           transform="matrix(1.3333333,0,0,-1.3333333,222.01867,147.14799)"
           clip-path="url(#clipPath4018)" />
        <path
           id="path4019"
           d="m 0,0 c -2.552,0 -4.628,-2.079 -4.628,-4.636 v -149.335 c 0,-2.553 2.076,-4.633 4.628,-4.633 h 106.484 c 2.595,0 4.704,2.08 4.704,4.633 V -4.636 c 0,2.557 -2.109,4.636 -4.704,4.636 z"
           style="fill:#4467a5;fill-opacity:1;fill-rule:nonzero;stroke:none"
           transform="matrix(1.3333333,0,0,-1.3333333,79.143336,154.79732)"
           clip-path="url(#clipPath4020)" />
        <path
           id="path4021"
           d="m 427.21,612.049 h -68.882 v 68.883 h 68.882 z"
           style="fill:#ffffff;fill-opacity:1;fill-rule:nonzero;stroke:none"
           transform="matrix(1.3333333,0,0,-1.3333333,-373.50865,1122.5206)"
           clip-path="url(#clipPath4022)" />
        <path
           id="path4023"
           d="m 0,0 c -2.705,0 -3.502,-0.479 -5.418,-1.914 l 0.005,3.663 h -32.651 v -14.968 c 0,-7.164 4.459,-14.968 9.396,-19.108 h 13.857 c 2.709,2.388 5.574,7.004 6.37,8.44 0.636,1.595 1.751,1.914 2.07,1.914 0.317,0 1.597,-0.159 1.916,-0.159 5.887,0 13.377,4.297 13.377,11.944 C 8.922,-2.548 2.707,0 0,0 m -7.008,-19.108 c 0.798,2.227 1.59,5.094 1.59,8.761 0,3.662 1.119,7.322 5.26,7.322 3.023,0 3.979,-1.751 4.78,-3.504 0.477,-1.43 0.637,-2.865 0.637,-3.818 0.158,-4.303 -4.303,-10.196 -12.267,-8.761"
           style="fill:#000000;fill-opacity:1;fill-rule:nonzero;stroke:none"
           transform="matrix(1.3333333,0,0,-1.3333333,169.61133,240.14799)"
           clip-path="url(#clipPath4024)" />
      </g>
    </g>
  </g>
</svg>
