<?xml version="1.0" encoding="UTF-8" standalone="no"?>
<!-- Created with Inkscape (http://www.inkscape.org/) -->

<svg
   width="39.190788mm"
   height="29.414963mm"
   viewBox="0 0 39.190788 29.414963"
   version="1.1"
   id="svg1"
   inkscape:version="1.4 (86a8ad7, 2024-10-11)"
   sodipodi:docname="park and ride bus.svg"
   xmlns:inkscape="http://www.inkscape.org/namespaces/inkscape"
   xmlns:sodipodi="http://sodipodi.sourceforge.net/DTD/sodipodi-0.dtd"
   xmlns="http://www.w3.org/2000/svg"
   xmlns:svg="http://www.w3.org/2000/svg">
  <sodipodi:namedview
     id="namedview1"
     pagecolor="#ffffff"
     bordercolor="#000000"
     borderopacity="0.25"
     inkscape:showpageshadow="2"
     inkscape:pageopacity="0.0"
     inkscape:pagecheckerboard="0"
     inkscape:deskcolor="#d1d1d1"
     inkscape:document-units="mm"
     inkscape:zoom="2.0334082"
     inkscape:cx="-24.097473"
     inkscape:cy="38.113351"
     inkscape:window-width="1920"
     inkscape:window-height="1009"
     inkscape:window-x="-8"
     inkscape:window-y="-8"
     inkscape:window-maximized="1"
     inkscape:current-layer="layer1" />
  <defs
     id="defs1">
    <inkscape:path-effect
       effect="fillet_chamfer"
       id="path-effect2"
       is_visible="true"
       lpeversion="1"
       nodesatellites_param="F,0,0,1,0,1.984375,0,1 @ F,0,0,1,0,1.984375,0,1 @ F,0,0,1,0,1.984375,0,1 @ F,0,0,1,0,1.984375,0,1"
       radius="10"
       unit="px"
       method="auto"
       mode="F"
       chamfer_steps="1"
       flexible="false"
       use_knot_distance="true"
       apply_no_radius="true"
       apply_with_radius="true"
       only_selected="false"
       hide_knots="false" />
    <inkscape:path-effect
       effect="fillet_chamfer"
       id="path-effect1"
       is_visible="true"
       lpeversion="1"
       nodesatellites_param="F,0,0,1,0,1.984375,0,1 @ F,0,0,1,0,1.984375,0,1 @ F,0,0,1,0,1.984375,0,1 @ F,0,0,1,0,1.984375,0,1"
       radius="10"
       unit="px"
       method="auto"
       mode="F"
       chamfer_steps="1"
       flexible="false"
       use_knot_distance="true"
       apply_no_radius="true"
       apply_with_radius="true"
       only_selected="false"
       hide_knots="false" />
    <clipPath
       clipPathUnits="userSpaceOnUse"
       id="clipPath2972">
      <path
         d="M 0,841.89 H 595.276 V 0 H 0 Z"
         id="path2972" />
    </clipPath>
    <clipPath
       clipPathUnits="userSpaceOnUse"
       id="clipPath2974">
      <path
         d="M 0,841.89 H 595.276 V 0 H 0 Z"
         id="path2974" />
    </clipPath>
    <clipPath
       clipPathUnits="userSpaceOnUse"
       id="clipPath2976">
      <path
         d="M 0,841.89 H 595.276 V 0 H 0 Z"
         transform="translate(-313.80601,-733.78202)"
         id="path2976" />
    </clipPath>
    <clipPath
       clipPathUnits="userSpaceOnUse"
       id="clipPath2978">
      <path
         d="M 0,841.89 H 595.276 V 0 H 0 Z"
         transform="translate(-326.75501,-720.03402)"
         id="path2978" />
    </clipPath>
    <clipPath
       clipPathUnits="userSpaceOnUse"
       id="clipPath2980">
      <path
         d="M 0,841.89 H 595.276 V 0 H 0 Z"
         transform="translate(-350.31901,-724.06602)"
         id="path2980" />
    </clipPath>
    <clipPath
       clipPathUnits="userSpaceOnUse"
       id="clipPath2982">
      <path
         d="M 0,841.89 H 595.276 V 0 H 0 Z"
         transform="translate(-374.30001,-724.06602)"
         id="path2982" />
    </clipPath>
    <clipPath
       clipPathUnits="userSpaceOnUse"
       id="clipPath2984">
      <path
         d="M 0,841.89 H 595.276 V 0 H 0 Z"
         transform="translate(-384.58101,-734.44302)"
         id="path2984" />
    </clipPath>
  </defs>
  <g
     inkscape:label="Layer 1"
     inkscape:groupmode="layer"
     id="layer1"
     transform="translate(-78.845829,-123.29583)">
    <path
       id="path2971"
       d="M 396.91762,675.702 H 290.04437 a 1.984375,1.984375 135 0 0 -1.98437,1.98437 v 79.16225 a 1.984375,1.984375 45 0 0 1.98437,1.98438 h 106.87325 a 1.984375,1.984375 135 0 0 1.98438,-1.98438 v -79.16225 a 1.984375,1.984375 45 0 0 -1.98438,-1.98437 z"
       style="fill:#ffffff;fill-opacity:1;fill-rule:nonzero;stroke:#000000;stroke-width:0.25;stroke-linecap:butt;stroke-linejoin:miter;stroke-miterlimit:4;stroke-dasharray:none;stroke-opacity:1"
       transform="matrix(0.35277776,0,0,-0.35277776,-22.731237,391.03934)"
       clip-path="url(#clipPath2972)"
       inkscape:path-effect="#path-effect1"
       inkscape:original-d="M 398.902,675.702 H 288.06 v 83.131 h 110.842 z" />
    <path
       id="path2973"
       d="m 292.81637,756.061 h 101.33025 a 1.984375,1.984375 135 0 0 1.98438,-1.98437 V 680.45637 A 1.984375,1.984375 45 0 0 394.14662,678.472 H 292.81637 a 1.984375,1.984375 135 0 0 -1.98437,1.98437 v 73.62026 a 1.984375,1.984375 45 0 0 1.98437,1.98437 z"
       style="fill:#4467a5;fill-opacity:1;fill-rule:nonzero;stroke:none"
       transform="matrix(0.35277776,0,0,-0.35277776,-22.731237,391.03934)"
       clip-path="url(#clipPath2974)"
       inkscape:path-effect="#path-effect2"
       inkscape:original-d="M 290.832,756.061 H 396.131 V 678.472 H 290.832 Z" />
    <text
       id="text2974"
       xml:space="preserve"
       transform="scale(0.95993007,1.0417425)"
       x="86.465881"
       y="141.10568"
       style="font-size:4.41004px;stroke-width:0.367504"><tspan
         id="tspan2974"
         style="font-variant:normal;font-weight:700;font-stretch:normal;font-size:4.10678px;font-family:Arial;writing-mode:lr-tb;fill:#ffffff;fill-opacity:1;fill-rule:nonzero;stroke:none;stroke-width:0.367504"
         x="86.465881"
         y="141.10568">P</tspan></text>
    <text
       id="text2975"
       xml:space="preserve"
       transform="scale(0.95993007,1.0417425)"
       x="88.900383"
       y="141.10568"
       style="font-size:4.41004px;stroke-width:0.367504"><tspan
         id="tspan2975"
         style="font-variant:normal;font-weight:700;font-stretch:normal;font-size:4.10678px;font-family:Arial;writing-mode:lr-tb;fill:#ffffff;fill-opacity:1;fill-rule:nonzero;stroke:none;stroke-width:0.367504"
         x="88.900383"
         dx="0 0 0 0 0 0 0 0 0.15112948"
         y="141.10568">ARK AND RIDE</tspan></text>
    <path
       id="path2975"
       d="m 0,0 c -0.414,-0.603 -0.979,-1.042 -1.701,-1.325 -0.723,-0.282 -2.16,-0.42 -4.308,-0.42 h -2.976 v 7.647 h 2.631 c 1.958,0 3.265,-0.056 3.918,-0.182 C -1.557,5.563 -0.822,5.161 -0.251,4.527 0.327,3.887 0.615,3.077 0.615,2.097 0.615,1.3 0.408,0.603 0,0 m 4.666,7.422 c -1.043,1.356 -2.343,2.235 -3.887,2.637 -1.005,0.27 -3.165,0.408 -6.473,0.408 h -8.735 v -26.968 h 5.444 v 10.172 h 3.548 c 2.467,0 4.351,0.132 5.651,0.389 0.954,0.208 1.896,0.634 2.819,1.275 0.929,0.646 1.689,1.531 2.292,2.662 0.603,1.124 0.904,2.518 0.904,4.176 0,2.14 -0.521,3.892 -1.563,5.249"
       style="fill:#ffffff;fill-opacity:1;fill-rule:nonzero;stroke:none"
       transform="matrix(0.35277776,0,0,-0.35277776,87.972545,132.17736)"
       clip-path="url(#clipPath2976)" />
    <path
       id="path2977"
       d="M 0,0 V 3.588 H -3.332 V 6.065 H 0 V 9.653 H 2.222 V 6.065 H 5.563 V 3.588 H 2.222 V 0 Z"
       style="fill:#ffffff;fill-opacity:1;fill-rule:nonzero;stroke:none"
       transform="matrix(0.35277776,0,0,-0.35277776,92.540663,137.02735)"
       clip-path="url(#clipPath2978)" />
    <path
       id="path2979"
       d="m 0,0 c -1.542,0 -2.794,-1.249 -2.794,-2.791 0,-1.542 1.252,-2.793 2.794,-2.793 1.542,0 2.794,1.251 2.794,2.793 C 2.794,-1.249 1.542,0 0,0 m 0,-3.943 c -0.637,0 -1.152,0.516 -1.152,1.152 0,0.635 0.515,1.151 1.152,1.151 0.636,0 1.153,-0.516 1.153,-1.151 0,-0.636 -0.517,-1.152 -1.153,-1.152"
       style="fill:#ffffff;fill-opacity:1;fill-rule:nonzero;stroke:none"
       transform="matrix(0.35277776,0,0,-0.35277776,100.85352,135.60495)"
       clip-path="url(#clipPath2980)" />
    <path
       id="path2981"
       d="m 0,0 c -1.544,0 -2.794,-1.249 -2.794,-2.791 0,-1.542 1.25,-2.793 2.794,-2.793 1.543,0 2.794,1.251 2.794,2.793 C 2.794,-1.249 1.543,0 0,0 m 0,-3.943 c -0.639,0 -1.153,0.516 -1.153,1.152 0,0.635 0.514,1.151 1.153,1.151 0.636,0 1.151,-0.516 1.151,-1.151 0,-0.636 -0.515,-1.152 -1.151,-1.152"
       style="fill:#ffffff;fill-opacity:1;fill-rule:nonzero;stroke:none"
       transform="matrix(0.35277776,0,0,-0.35277776,109.31348,135.60495)"
       clip-path="url(#clipPath2982)" />
    <path
       id="path2983"
       d="m 0,0 h -43.009 c -0.771,0 -1.015,-0.193 -1.113,-1.069 -0.064,-0.599 -0.257,-6.125 -0.257,-6.125 -0.299,0 -0.597,-0.239 -0.597,-0.597 0,-0.598 0.014,-3.956 0.014,-4.973 0,-0.83 0.899,-1.174 1.816,-1.174 h 5.518 c -0.057,0.25 -0.093,0.505 -0.093,0.77 0,1.907 1.55,3.454 3.459,3.454 1.91,0 3.461,-1.547 3.461,-3.454 0,-0.265 -0.037,-0.52 -0.095,-0.77 h 17.249 c -0.057,0.25 -0.092,0.505 -0.092,0.77 0,1.907 1.549,3.454 3.458,3.454 1.911,0 3.46,-1.547 3.46,-3.454 0,-0.238 -0.027,-0.47 -0.072,-0.692 l 9.897,1.872 v 8.991 C 3.004,-1.154 1.66,0 0,0 m -38.978,-11.732 c 0,-0.383 -0.308,-0.692 -0.692,-0.692 h -1.949 c -0.384,0 -0.693,0.309 -0.693,0.692 v 9.187 c 0,0.379 0.309,0.69 0.693,0.69 h 1.949 c 0.384,0 0.692,-0.311 0.692,-0.69 z m 10.494,6.91 c 0,-0.381 -0.311,-0.69 -0.695,-0.69 h -6.967 c -0.381,0 -0.694,0.309 -0.694,0.69 v 2.277 c 0,0.379 0.313,0.69 0.694,0.69 h 6.967 c 0.384,0 0.695,-0.311 0.695,-0.69 z m 9.9,0 c 0,-0.381 -0.311,-0.69 -0.692,-0.69 h -6.969 c -0.382,0 -0.692,0.309 -0.692,0.69 v 2.277 c 0,0.379 0.31,0.69 0.692,0.69 h 6.969 c 0.381,0 0.692,-0.311 0.692,-0.69 z m 9.9,0 c 0,-0.381 -0.308,-0.69 -0.691,-0.69 h -6.968 c -0.383,0 -0.693,0.309 -0.693,0.69 v 2.277 c 0,0.379 0.31,0.69 0.693,0.69 h 6.968 c 0.383,0 0.691,-0.311 0.691,-0.69 z M 1.612,-4.918 c 0,-0.38 -0.311,-0.69 -0.692,-0.69 h -6.968 c -0.383,0 -0.692,0.31 -0.692,0.69 v 2.275 c 0,0.383 0.309,0.694 0.692,0.694 h 5.288 c 1.58,0 2.372,-0.621 2.372,-2.029 z"
       style="fill:#ffffff;fill-opacity:1;fill-rule:nonzero;stroke:none"
       transform="matrix(0.35277776,0,0,-0.35277776,112.94039,131.94417)"
       clip-path="url(#clipPath2984)" />
  </g>
</svg>
