<?xml version="1.0" encoding="UTF-8" standalone="no"?>
<!-- Generator: Adobe Illustrator 26.0.2, SVG Export Plug-In . SVG Version: 6.00 Build 0)  -->

<svg
   version="1.1"
   id="Layer_1"
   x="0px"
   y="0px"
   viewBox="0 0 696.82678 462.02679"
   xml:space="preserve"
   sodipodi:docname="park and ride.svg"
   inkscape:version="1.4 (86a8ad7, 2024-10-11)"
   width="696.82678"
   height="462.02679"
   xmlns:inkscape="http://www.inkscape.org/namespaces/inkscape"
   xmlns:sodipodi="http://sodipodi.sourceforge.net/DTD/sodipodi-0.dtd"
   xmlns="http://www.w3.org/2000/svg"
   xmlns:svg="http://www.w3.org/2000/svg"><defs
   id="defs32"><rect
   x="120.00662"
   y="300.57734"
   width="451.98755"
   height="192.90784"
   id="rect2" /><rect
   x="99.818593"
   y="288.24021"
   width="401.51748"
   height="127.85752"
   id="rect1" />
	
	
	
	
	
	
	
	
	
	
	
	
	
	
	
	
	
	
	
	
	
	
	
	
	
	
	
	
	
	
	
	
	
	
	
	
	
<clipPath
   clipPathUnits="userSpaceOnUse"
   id="clipPath1010"><path
     d="M 0,841.89 H 595.276 V 0 H 0 Z"
     transform="translate(-79.369802,-733.60102)"
     id="path1010" /></clipPath><clipPath
   clipPathUnits="userSpaceOnUse"
   id="clipPath1012"><path
     d="M 0,841.89 H 595.276 V 0 H 0 Z"
     transform="translate(-89.988902,-720.14902)"
     id="path1012" /></clipPath><clipPath
   clipPathUnits="userSpaceOnUse"
   id="clipPath3014"><path
     d="M 0,841.89 H 595.276 V 0 H 0 Z"
     id="path3014" /></clipPath><clipPath
   clipPathUnits="userSpaceOnUse"
   id="clipPath3038"><path
     d="M 0,841.89 H 595.276 V 0 H 0 Z"
     transform="translate(-116.308,-727.09002)"
     id="path3038" /></clipPath></defs><sodipodi:namedview
   id="namedview32"
   pagecolor="#ffffff"
   bordercolor="#000000"
   borderopacity="0.25"
   inkscape:showpageshadow="2"
   inkscape:pageopacity="0.0"
   inkscape:pagecheckerboard="0"
   inkscape:deskcolor="#d1d1d1"
   inkscape:zoom="0.89161746"
   inkscape:cx="455.91301"
   inkscape:cy="344.87885"
   inkscape:window-width="1920"
   inkscape:window-height="1009"
   inkscape:window-x="-8"
   inkscape:window-y="-8"
   inkscape:window-maximized="1"
   inkscape:current-layer="Layer_1" />
<style
   type="text/css"
   id="style1">
	.st0{fill-rule:evenodd;clip-rule:evenodd;fill:#FFFFFF;stroke:#17683A;stroke-width:3.8268;stroke-miterlimit:10;}
	.st1{fill-rule:evenodd;clip-rule:evenodd;fill:#11623E;}
	.st2{fill-rule:evenodd;clip-rule:evenodd;fill:#FFFFFF;}
	.st3{fill-rule:evenodd;clip-rule:evenodd;fill:#F4D209;}
	.st4{fill-rule:evenodd;clip-rule:evenodd;fill:#006FB6;}
</style>
<g
   id="g1"
   transform="translate(16.7134,16.0134)"><path
     class="st0"
     d="m 14,444 c -15.9,0 -28.8,-13 -28.8,-28.8 0,-133.5 0,-267 0,-400.5 0,-15.9 13,-28.8 28.8,-28.8 172.4,0 345.1,0 517.8,0 10,0 19.8,5.2 24.6,14.3 39.9,69 80,138.3 120.2,207.7 1,1.9 1.6,4.5 1.6,7.1 0,2.3 -0.6,4.9 -1.6,7.1 -39.9,69 -80,138.3 -120.2,207.7 -4.9,8.7 -14.6,14.3 -24.6,14.3 C 359.4,444 186.7,444 14,444 Z"
     id="path1"
     style="fill:#ffffff;stroke:#1a1a1a" /><path
     class="st1"
     d="M 14.3,429.7 C 6.5,429.7 0,423.2 0,415.4 0,281.9 0,148.1 0,14.3 0,6.5 6.5,0 14.3,0 186.7,0 359,0 531.7,0 c 5.2,0 9.7,2.6 12.3,7.1 39.9,69 79.7,138.3 119.9,207.7 -39.9,69 -79.7,138.3 -119.9,207.7 -2.6,4.5 -7.1,7.1 -12.3,7.1 -172.3,0.1 -344.7,0.1 -517.4,0.1 z"
     id="path2"
     style="fill:#4467a5;fill-opacity:1" /></g>
<path
   id="path1009"
   d="m 0,0 c -0.405,-0.59 -0.958,-1.021 -1.664,-1.297 -0.707,-0.276 -2.113,-0.411 -4.215,-0.411 h -2.912 v 7.482 h 2.574 C -4.3,5.774 -3.022,5.72 -2.383,5.597 -1.523,5.442 -0.805,5.05 -0.245,4.429 0.32,3.803 0.603,3.01 0.603,2.052 0.603,1.271 0.399,0.59 0,0 m 4.565,7.262 c -1.019,1.326 -2.292,2.186 -3.802,2.58 -0.984,0.263 -3.097,0.399 -6.334,0.399 h -8.546 v -26.387 h 5.326 v 9.953 h 3.472 c 2.414,0 4.257,0.129 5.529,0.381 0.934,0.203 1.854,0.621 2.758,1.247 0.909,0.632 1.652,1.499 2.242,2.605 0.59,1.1 0.885,2.463 0.885,4.085 0,2.096 -0.51,3.81 -1.53,5.137"
   style="fill:#ffffff;fill-opacity:1;fill-rule:nonzero;stroke:none"
   transform="matrix(8.0515579,0,0,-7.697011,202.02957,121.14421)"
   clip-path="url(#clipPath1010)" /><path
   id="path1011"
   d="M 0,0 V 3.511 H -3.261 V 5.935 H 0 v 3.51 H 2.174 V 5.935 H 5.442 V 3.511 H 2.174 V 0 Z"
   style="fill:#ffffff;fill-opacity:1;fill-rule:nonzero;stroke:none"
   transform="matrix(8.0515579,0,0,-7.697011,287.52987,224.6844)"
   clip-path="url(#clipPath1012)" /><path
   id="path3013"
   d="m 100.819,737.668 h 19.024 v -20.615 h -19.024 z"
   style="fill:#ffffff;fill-opacity:1;fill-rule:nonzero;stroke:none"
   transform="matrix(8.0515579,0,0,-7.697011,-437.02099,5767.6793)"
   clip-path="url(#clipPath3014)" /><path
   style="fill:#000000;fill-opacity:1;stroke-width:4.528"
   d="m 385.48745,236.21629 c 0.004,-0.9945 0.46848,-1.58615 4.8125,-6.12605 25.36037,-26.50444 23.59451,-24.39955 20.65037,-24.61469 -11.67346,-0.853 -20.23855,-5.61938 -21.93693,-12.20773 -0.60695,-2.35436 -0.4655,-35.71702 0.17175,-40.58215 2.80973,-21.4426 13.71141,-41.5747 25.18303,-46.50539 l 1.60505,-0.68989 h 35.60114 35.60115 l 1.61016,0.69207 c 8.22639,3.53583 17.75717,17.34718 22.13584,32.07782 3.23256,10.87493 3.72912,15.71198 3.73928,36.42363 l 0.0104,17.65271 -0.96558,2.08186 c -2.91215,6.27879 -9.24143,9.73484 -19.94212,10.88926 l -3.98841,0.43027 13.76991,14.74988 c 12.48532,13.37391 13.76984,14.84634 13.76984,15.78395 v 1.03412 l -6.60913,-0.008 -6.60909,-0.008 -4.05363,-4.23659 -4.05356,-4.23657 -44.41331,-0.004 -44.41326,-0.004 -4.06028,4.18638 -4.06026,4.18639 -6.7787,0.07 -6.7787,0.07 z M 489.90267,222.7888 c 0.25491,-0.0423 -7.35945,-8.17887 -8.29269,-8.86117 -0.39679,-0.29034 -5.49204,-0.31834 -30.46491,-0.16885 l -29.98828,0.17955 -4.08987,4.45773 c -2.24938,2.45171 -4.08982,4.51003 -4.08982,4.57393 0,0.10379 76.29081,-0.0758 76.92557,-0.18119 z M 478.1871,210.21842 c 0,-0.15732 -0.80374,-1.25917 -1.78608,-2.44818 l -1.78612,-2.16188 h -23.40592 -23.40596 l -1.71866,1.86838 c -0.94529,1.02756 -1.90746,2.12927 -2.13812,2.44818 l -0.41919,0.57984 h 27.3301 c 19.80729,0 27.3301,-0.0787 27.3301,-0.28621 z m -60.88499,-16.69671 c 6.84602,-2.14544 8.33322,-8.35818 2.84423,-11.88166 -6.25994,-4.01835 -15.97448,-0.80452 -15.97448,5.28479 0,4.90421 7.11874,8.48082 13.13025,6.59687 z m 76.21811,-0.22073 c 7.40099,-2.80466 7.08987,-10.41196 -0.52872,-12.928 -6.04796,-1.99741 -13.36947,1.58677 -13.38326,6.55165 -0.0149,5.11581 7.79429,8.69467 13.91198,6.37635 z m 4.40611,-27.47894 c 5.95242,-2.3463 7.27666,-6.3985 6.01907,-18.4184 -1.68904,-16.14434 -11.25401,-32.07239 -21.31695,-35.49811 l -1.79772,-0.61196 -29.27529,-0.003 -29.27528,-0.003 -1.91974,0.69306 c -8.23321,2.97237 -17.44212,16.15677 -20.21574,28.9429 -1.37534,6.34014 -1.40565,19.26226 -0.0498,21.1317 1.54993,2.13673 3.4627,3.36184 6.24589,4.00053 2.75789,0.63288 89.95127,0.40934 91.5854,-0.23473 z m -68.02937,-14.13842 c 2.5e-4,-1.87801 0.10555,-8.02427 0.2335,-13.65832 l 0.23299,-10.24372 4.96561,0.0166 4.96564,0.0166 5.99036,5.15345 c 5.60335,4.82058 6.0246,5.12281 6.52101,4.67879 0.29174,-0.2611 2.97565,-2.58704 5.96406,-5.16882 l 5.43344,-4.69411 h 4.81978 4.81978 l 0.23299,8.54634 c 0.12845,4.70045 0.23351,10.84667 0.23351,13.65828 v 5.11202 h -5.63977 -5.6398 v -7.85996 c 0,-4.32297 -0.11899,-7.85205 -0.26437,-7.84238 -0.14537,0.008 -2.62436,2.03673 -5.50886,4.50455 -2.88445,2.46787 -5.37798,4.42664 -5.54122,4.35292 -0.16331,-0.0737 -2.53928,-2.07182 -5.28015,-4.44014 -2.74087,-2.36833 -5.12487,-4.34471 -5.29773,-4.39195 -0.17972,-0.049 -0.31415,3.28704 -0.31415,7.79555 v 7.88146 h -5.4635 -5.46357 z"
   id="path2-4" /><text
   xml:space="preserve"
   id="text1"
   style="fill:#f9f9f9;text-orientation:auto;-inkscape-font-specification:'Transport Heavy, Normal';font-family:'Transport Heavy';font-size:15.99998665px;stroke:#1a1a1a;text-align:start;writing-mode:lr-tb;direction:ltr;white-space:pre;shape-inside:url(#rect1)" /><g
   id="text2"
   style="font-size:16px;font-family:'Transport Heavy';-inkscape-font-specification:'Transport Heavy, Normal';white-space:pre;fill:#ffffff;stroke:#ffffff"
   transform="translate(-22.431144,-40.37606)"
   aria-label="PARK AND &#10;    RIDE"><path
     style="font-weight:bold;font-size:64px;font-family:Sans;-inkscape-font-specification:'Sans, Bold'"
     d="m 164.34961,327.12352 q 0,3.125 -1.09375,6.125 -1.09375,2.96875 -3.125,5 -2.78125,2.75 -6.21875,4.15625 -3.40625,1.40625 -8.5,1.40625 h -7.46875 v 15.15625 h -12 v -46.53125 h 19.75 q 4.4375,0 7.46875,0.78125 3.0625,0.75 5.40625,2.28125 2.8125,1.84375 4.28125,4.71875 1.5,2.875 1.5,6.90625 z m -12.40625,0.28125 q 0,-1.96875 -1.0625,-3.375 -1.0625,-1.4375 -2.46875,-2 -1.875,-0.75 -3.65625,-0.8125 -1.78125,-0.0937 -4.75,-0.0937 h -2.0625 v 13.9375 h 3.4375 q 3.0625,0 5.03125,-0.375 2,-0.375 3.34375,-1.5 1.15625,-1 1.65625,-2.375 0.53125,-1.40625 0.53125,-3.40625 z"
     id="path3" /><path
     style="font-weight:bold;font-size:64px;font-family:Arial;-inkscape-font-specification:'Arial, Bold'"
     d="m 212.88086,358.96727 h -10.0625 l -4,-10.40625 h -18.3125 l -3.78125,10.40625 h -9.8125 l 17.84375,-45.8125 h 9.78125 z m -17.03125,-18.125 -6.3125,-17 -6.1875,17 z m 21.96875,18.125 v -45.8125 h 19.46875 q 7.34375,0 10.65625,1.25 3.34375,1.21875 5.34375,4.375 2,3.15625 2,7.21875 0,5.15625 -3.03125,8.53125 -3.03125,3.34375 -9.0625,4.21875 3,1.75 4.9375,3.84375 1.96875,2.09375 5.28125,7.4375 l 5.59375,8.9375 h -11.0625 l -6.6875,-9.96875 q -3.5625,-5.34375 -4.875,-6.71875 -1.3125,-1.40625 -2.78125,-1.90625 -1.46875,-0.53125 -4.65625,-0.53125 h -1.875 v 19.125 z m 9.25,-26.4375 h 6.84375 q 6.65625,0 8.3125,-0.5625 1.65625,-0.5625 2.59375,-1.9375 0.9375,-1.375 0.9375,-3.4375 0,-2.3125 -1.25,-3.71875 -1.21875,-1.4375 -3.46875,-1.8125 -1.125,-0.15625 -6.75,-0.15625 h -7.21875 z m 37.0625,26.4375 v -45.8125 h 9.25 v 20.34375 l 18.6875,-20.34375 h 12.4375 l -17.25,17.84375 18.1875,27.96875 h -11.96875 l -12.59375,-21.5 -7.5,7.65625 v 13.84375 z m 102.8125,0 h -10.0625 l -4,-10.40625 h -18.3125 l -3.78125,10.40625 h -9.8125 l 17.84375,-45.8125 h 9.78125 z m -17.03125,-18.125 -6.3125,-17 -6.1875,17 z m 22.03125,18.125 v -45.8125 h 9 l 18.75,30.59375 v -30.59375 h 8.59375 v 45.8125 h -9.28125 l -18.46875,-29.875 v 29.875 z m 46.09375,-45.8125 h 16.90625 q 5.71875,0 8.71875,0.875 4.03125,1.1875 6.90625,4.21875 2.875,3.03125 4.375,7.4375 1.5,4.375 1.5,10.8125 0,5.65625 -1.40625,9.75 -1.71875,5 -4.90625,8.09375 -2.40625,2.34375 -6.5,3.65625 -3.0625,0.96875 -8.1875,0.96875 h -17.40625 z m 9.25,7.75 v 30.34375 h 6.90625 q 3.875,0 5.59375,-0.4375 2.25,-0.5625 3.71875,-1.90625 1.5,-1.34375 2.4375,-4.40625 0.9375,-3.09375 0.9375,-8.40625 0,-5.3125 -0.9375,-8.15625 -0.9375,-2.84375 -2.625,-4.4375 -1.6875,-1.59375 -4.28125,-2.15625 -1.9375,-0.4375 -7.59375,-0.4375 z"
     id="path4" /><path
     style="font-weight:bold;font-size:64px;font-family:Arial;-inkscape-font-specification:'Arial, Bold'"
     d="m 195.81836,438.96725 v -45.8125 h 19.46875 q 7.34375,0 10.65625,1.25 3.34375,1.21875 5.34375,4.375 2,3.15625 2,7.21875 0,5.15625 -3.03125,8.53125 -3.03125,3.34375 -9.0625,4.21875 3,1.75 4.9375,3.84375 1.96875,2.09375 5.28125,7.4375 l 5.59375,8.9375 h -11.0625 l -6.6875,-9.96875 q -3.5625,-5.34375 -4.875,-6.71875 -1.3125,-1.40625 -2.78125,-1.90625 -1.46875,-0.53125 -4.65625,-0.53125 h -1.875 v 19.125 z m 9.25,-26.4375 h 6.84375 q 6.65625,0 8.3125,-0.5625 1.65625,-0.5625 2.59375,-1.9375 0.9375,-1.375 0.9375,-3.4375 0,-2.3125 -1.25,-3.71875 -1.21875,-1.4375 -3.46875,-1.8125 -1.125,-0.15625 -6.75,-0.15625 h -7.21875 z m 36.65625,26.4375 v -45.8125 h 9.25 v 45.8125 z m 18.03125,-45.8125 h 16.90625 q 5.71875,0 8.71875,0.875 4.03125,1.1875 6.90625,4.21875 2.875,3.03125 4.375,7.4375 1.5,4.375 1.5,10.8125 0,5.65625 -1.40625,9.75 -1.71875,5 -4.90625,8.09375 -2.40625,2.34375 -6.5,3.65625 -3.0625,0.96875 -8.1875,0.96875 h -17.40625 z m 9.25,7.75 v 30.34375 h 6.90625 q 3.875,0 5.59375,-0.4375 2.25,-0.5625 3.71875,-1.90625 1.5,-1.34375 2.4375,-4.40625 0.9375,-3.09375 0.9375,-8.40625 0,-5.3125 -0.9375,-8.15625 -0.9375,-2.84375 -2.625,-4.4375 -1.6875,-1.59375 -4.28125,-2.15625 -1.9375,-0.4375 -7.59375,-0.4375 z m 37,38.0625 v -45.8125 h 33.96875 v 7.75 H 315.25586 V 411.061 h 23 v 7.71875 h -23 v 12.46875 h 25.59375 v 7.71875 z"
     id="path5" /></g></svg>
