<?xml version="1.0" encoding="UTF-8" standalone="no"?>
<!-- Created with Inkscape (http://www.inkscape.org/) -->

<svg
   width="44.999977mm"
   height="59.999737mm"
   viewBox="0 0 44.999977 59.999737"
   version="1.1"
   id="svg1"
   inkscape:version="1.4 (86a8ad7, 2024-10-11)"
   sodipodi:docname="pedestrian subway.svg"
   xmlns:inkscape="http://www.inkscape.org/namespaces/inkscape"
   xmlns:sodipodi="http://sodipodi.sourceforge.net/DTD/sodipodi-0.dtd"
   xmlns="http://www.w3.org/2000/svg"
   xmlns:svg="http://www.w3.org/2000/svg">
  <sodipodi:namedview
     id="namedview1"
     pagecolor="#ffffff"
     bordercolor="#000000"
     borderopacity="0.25"
     inkscape:showpageshadow="2"
     inkscape:pageopacity="0.0"
     inkscape:pagecheckerboard="0"
     inkscape:deskcolor="#d1d1d1"
     inkscape:document-units="mm"
     inkscape:zoom="2.8756734"
     inkscape:cx="98.23786"
     inkscape:cy="106.58373"
     inkscape:window-width="1920"
     inkscape:window-height="1009"
     inkscape:window-x="-8"
     inkscape:window-y="-8"
     inkscape:window-maximized="1"
     inkscape:current-layer="g4075" />
  <defs
     id="defs1">
    <inkscape:path-effect
       effect="fillet_chamfer"
       id="path-effect1"
       is_visible="true"
       lpeversion="1"
       nodesatellites_param="F,0,0,1,0,0,0,1 @ F,0,0,1,0,0,0,1 @ F,0,0,1,0,0,0,1 @ F,0,0,1,0,0,0,1"
       radius="0"
       unit="px"
       method="auto"
       mode="F"
       chamfer_steps="1"
       flexible="false"
       use_knot_distance="true"
       apply_no_radius="true"
       apply_with_radius="true"
       only_selected="false"
       hide_knots="false" />
    <clipPath
       clipPathUnits="userSpaceOnUse"
       id="clipPath4010">
      <path
         d="M 0,841.89 H 595.276 V 0 H 0 Z"
         transform="translate(-166.51401,-731.52902)"
         id="path4010" />
    </clipPath>
    <clipPath
       clipPathUnits="userSpaceOnUse"
       id="clipPath4012">
      <path
         d="M 0,841.89 H 595.276 V 0 H 0 Z"
         transform="translate(-59.355001,-725.79102)"
         id="path4012" />
    </clipPath>
    <clipPath
       clipPathUnits="userSpaceOnUse"
       id="clipPath4014">
      <path
         d="M 0,841.89 H 595.276 V 0 H 0 Z"
         id="path4014" />
    </clipPath>
    <clipPath
       clipPathUnits="userSpaceOnUse"
       id="clipPath4016">
      <path
         d="M 0,841.89 H 595.276 V 0 H 0 Z"
         transform="translate(-132.939,-632.53702)"
         id="path4016" />
    </clipPath>
    <clipPath
       clipPathUnits="userSpaceOnUse"
       id="clipPath4018">
      <path
         d="M 0,841.89 H 595.276 V 0 H 0 Z"
         transform="translate(-446.64601,-731.52902)"
         id="path4018" />
    </clipPath>
    <clipPath
       clipPathUnits="userSpaceOnUse"
       id="clipPath4020">
      <path
         d="M 0,841.89 H 595.276 V 0 H 0 Z"
         transform="translate(-339.48701,-725.79102)"
         id="path4020" />
    </clipPath>
    <clipPath
       clipPathUnits="userSpaceOnUse"
       id="clipPath4022">
      <path
         d="M 0,841.89 H 595.276 V 0 H 0 Z"
         id="path4022" />
    </clipPath>
    <clipPath
       clipPathUnits="userSpaceOnUse"
       id="clipPath4024">
      <path
         d="M 0,841.89 H 595.276 V 0 H 0 Z"
         transform="translate(-409.44701,-659.97202)"
         id="path4024" />
    </clipPath>
    <clipPath
       clipPathUnits="userSpaceOnUse"
       id="clipPath1000">
      <path
         d="M 0,0 H 595.276 V 841.89 H 0 Z"
         transform="translate(-166.51401,-731.47102)"
         id="path1000" />
    </clipPath>
    <clipPath
       clipPathUnits="userSpaceOnUse"
       id="clipPath1002">
      <path
         d="M 0,0 H 595.276 V 841.89 H 0 Z"
         transform="translate(-59.354602,-725.73102)"
         id="path1002" />
    </clipPath>
    <clipPath
       clipPathUnits="userSpaceOnUse"
       id="clipPath1004">
      <path
         d="M 0,0 H 595.276 V 841.89 H 0 Z"
         transform="translate(-94.148605,-610.35401)"
         id="path1004" />
    </clipPath>
    <clipPath
       clipPathUnits="userSpaceOnUse"
       id="clipPath1006">
      <path
         d="M 0,0 H 595.276 V 841.89 H 0 Z"
         id="path1006" />
    </clipPath>
    <clipPath
       clipPathUnits="userSpaceOnUse"
       id="clipPath1008">
      <path
         d="M 0,0 H 595.276 V 841.89 H 0 Z"
         transform="translate(-141.47001,-653.96302)"
         id="path1008" />
    </clipPath>
    <clipPath
       clipPathUnits="userSpaceOnUse"
       id="clipPath1010">
      <path
         d="M 0,0 H 595.276 V 841.89 H 0 Z"
         id="path1010" />
    </clipPath>
    <clipPath
       clipPathUnits="userSpaceOnUse"
       id="clipPath1012">
      <path
         d="M 0,0 H 595.276 V 841.89 H 0 Z"
         transform="translate(-122.364,-682.30502)"
         id="path1012" />
    </clipPath>
    <clipPath
       clipPathUnits="userSpaceOnUse"
       id="clipPath1156">
      <path
         d="M 0,841.89 H 595.276 V 0 H 0 Z"
         transform="translate(-446.60801,-731.50002)"
         id="path1156" />
    </clipPath>
    <clipPath
       clipPathUnits="userSpaceOnUse"
       id="clipPath1158">
      <path
         d="M 0,841.89 H 595.276 V 0 H 0 Z"
         transform="translate(-339.44801,-725.76202)"
         id="path1158" />
    </clipPath>
    <clipPath
       clipPathUnits="userSpaceOnUse"
       id="clipPath1160">
      <path
         d="M 0,841.89 H 595.276 V 0 H 0 Z"
         id="path1160" />
    </clipPath>
    <clipPath
       clipPathUnits="userSpaceOnUse"
       id="clipPath1162">
      <path
         d="M 0,841.89 H 595.276 V 0 H 0 Z"
         transform="translate(-399.90201,-688.14002)"
         id="path1162" />
    </clipPath>
    <clipPath
       clipPathUnits="userSpaceOnUse"
       id="clipPath1166">
      <path
         d="M 0,841.89 H 595.276 V 0 H 0 Z"
         transform="translate(-168.13701,-485.24801)"
         id="path1166" />
    </clipPath>
    <clipPath
       clipPathUnits="userSpaceOnUse"
       id="clipPath1168">
      <path
         d="M 0,841.89 H 595.276 V 0 H 0 Z"
         transform="translate(-60.977702,-479.51001)"
         id="path1168" />
    </clipPath>
    <clipPath
       clipPathUnits="userSpaceOnUse"
       id="clipPath1170">
      <path
         d="M 0,841.89 H 595.276 V 0 H 0 Z"
         transform="translate(-138.622,-407.33201)"
         id="path1170" />
    </clipPath>
    <clipPath
       clipPathUnits="userSpaceOnUse"
       id="clipPath1014">
      <path
         d="M 0,0 H 595.276 V 841.89 H 0 Z"
         transform="translate(-446.64601,-483.13801)"
         id="path1014" />
    </clipPath>
    <clipPath
       clipPathUnits="userSpaceOnUse"
       id="clipPath1016">
      <path
         d="M 0,0 H 595.276 V 841.89 H 0 Z"
         transform="translate(-339.48601,-477.40001)"
         id="path1016" />
    </clipPath>
    <clipPath
       clipPathUnits="userSpaceOnUse"
       id="clipPath1018">
      <path
         d="M 0,0 H 595.276 V 841.89 H 0 Z"
         id="path1018" />
    </clipPath>
    <clipPath
       clipPathUnits="userSpaceOnUse"
       id="clipPath1020">
      <path
         d="M 0,0 H 595.276 V 841.89 H 0 Z"
         transform="translate(-372.54301,-363.65801)"
         id="path1020" />
    </clipPath>
    <clipPath
       clipPathUnits="userSpaceOnUse"
       id="clipPath1022">
      <path
         d="M 0,0 H 595.276 V 841.89 H 0 Z"
         transform="translate(-387.08701,-419.46101)"
         id="path1022" />
    </clipPath>
    <clipPath
       clipPathUnits="userSpaceOnUse"
       id="clipPath1024">
      <path
         d="M 0,0 H 595.276 V 841.89 H 0 Z"
         transform="translate(-374.19801,-401.77601)"
         id="path1024" />
    </clipPath>
  </defs>
  <g
     inkscape:label="Layer 1"
     inkscape:groupmode="layer"
     id="layer1"
     transform="translate(-82.549999,-118.53333)">
    <g
       id="g4075"
       transform="matrix(0.26458333,0,0,0.26458333,65.313981,79.600425)">
      <path
         style="fill:#ffffff;stroke:#ffffff;stroke-width:0.877059"
         id="rect1"
         width="169.20169"
         height="225.89459"
         x="65.582489"
         y="147.58603"
         inkscape:path-effect="#path-effect1"
         sodipodi:type="rect"
         d="M 65.582489,147.58603 H 234.78418 V 373.48062 H 65.582489 Z" />
      <path
         id="path1013"
         d="m 0,0 h -107.832 c -5.417,0 -9.823,-4.346 -9.823,-9.69 v -150.697 c 0,-5.342 4.406,-9.691 9.823,-9.691 H 0 c 5.458,0 9.903,4.349 9.903,9.691 V -9.69 C 9.903,-4.346 5.458,0 0,0 m 0,-0.571 c 5.146,0 9.331,-4.092 9.331,-9.119 v -150.697 c 0,-5.028 -4.185,-9.119 -9.331,-9.119 h -107.832 c -5.101,0 -9.251,4.091 -9.251,9.119 V -9.69 c 0,5.027 4.15,9.119 9.251,9.119 L 0,-0.571"
         style="fill:#4467a5;fill-opacity:1;fill-rule:nonzero;stroke:none"
         transform="matrix(1.3333333,0,0,-1.3333333,222.018,147.14799)"
         clip-path="url(#clipPath1014)" />
      <path
         id="path1015"
         d="m 0,0 c -2.552,0 -4.628,-2.079 -4.628,-4.636 v -149.335 c 0,-2.553 2.076,-4.633 4.628,-4.633 h 106.485 c 2.594,0 4.704,2.08 4.704,4.633 V -4.636 c 0,2.557 -2.11,4.636 -4.704,4.636 z"
         style="fill:#4467a5;fill-opacity:1;fill-rule:nonzero;stroke:none"
         transform="matrix(1.3333333,0,0,-1.3333333,79.138,154.79866)"
         clip-path="url(#clipPath1016)" />
      <path
         id="path1017"
         d="m 427.211,363.658 h -68.883 v 68.882 h 68.883 z"
         style="fill:#ffffff;fill-opacity:1;fill-rule:nonzero;stroke:none"
         transform="matrix(1.3333333,0,0,-1.3333333,-373.51,791.33199)"
         clip-path="url(#clipPath1018)" />
      <path
         id="path1019"
         d="m 0,0 v 2.343 h 9.462 v 5.931 h 9.525 v 6.011 h 9.515 v 5.926 h 9.526 v 5.936 h 9.533 v 5.95 h 7.107 v 2.344 h -9.531 v -5.939 h -9.521 v -5.94 h -9.45 V 16.627 H 16.633 V 10.69 H 7.114 V 4.755 H -2.412 V 0 Z"
         style="fill:#000000;fill-opacity:1;fill-rule:nonzero;stroke:none"
         transform="matrix(1.3333333,0,0,-1.3333333,123.214,306.45466)"
         clip-path="url(#clipPath1020)" />
      <path
         id="path1021"
         d="m 0,0 c 0,-2.211 -1.792,-4.004 -4.003,-4.004 -2.211,0 -4.003,1.793 -4.003,4.004 0,2.21 1.792,4.003 4.003,4.003 C -1.792,4.003 0,2.21 0,0"
         style="fill:#231f20;fill-opacity:1;fill-rule:nonzero;stroke:none"
         transform="matrix(1.3333333,0,0,-1.3333333,142.606,232.05066)"
         clip-path="url(#clipPath1022)" />
      <path
         id="path1023"
         d="m 0,0 10.382,12.935 c 0,0 2.626,3.183 6.598,-0.222 3.387,-2.902 6.115,-4.252 5.968,-10 0.176,-1.496 -2.5,-2.018 -3.116,-0.258 -0.615,1.76 -0.663,3.732 -2.808,4.745 -1.316,0.622 -1.173,-1.32 -1.173,-1.32 0,0 0.704,-6.451 0.762,-6.599 0.059,-0.146 10.749,-14.016 10.749,-14.016 0,0 0.409,-0.615 0.352,-1.101 -0.109,-0.922 -1.936,-2.662 -4.157,0.132 -2.222,2.793 -8.754,10.053 -8.754,10.053 0,0 -0.682,0.988 -1.628,-0.2 -0.946,-1.187 -2.816,-2.947 -1.232,-7.631 1.584,-4.686 3.654,-9.723 1.959,-10.273 -1.695,-0.55 -2.575,-0.836 -3.961,2.729 -1.385,3.562 -3.783,10.38 -3.783,10.38 0,0 -0.791,1.738 1.298,4.641 2.09,2.903 2.33,3.588 2.529,4.554 0.188,0.904 -0.109,5.302 -0.109,5.302 L 2.661,-3.783 c 0,0 -1.121,-1.144 -2.771,0.595 C -1.76,-1.451 0,0 0,0"
         style="fill:#000000;fill-opacity:1;fill-rule:nonzero;stroke:none"
         transform="matrix(1.3333333,0,0,-1.3333333,125.42067,255.63066)"
         clip-path="url(#clipPath1024)" />
    </g>
  </g>
</svg>
