<?xml version="1.0" encoding="UTF-8" standalone="no"?>
<!-- Created with Inkscape (http://www.inkscape.org/) -->

<svg
   width="37.086113mm"
   height="56.789104mm"
   viewBox="0 0 37.086113 56.789104"
   version="1.1"
   id="svg1"
   inkscape:version="1.4 (86a8ad7, 2024-10-11)"
   sodipodi:docname="drop.svg"
   xmlns:inkscape="http://www.inkscape.org/namespaces/inkscape"
   xmlns:sodipodi="http://sodipodi.sourceforge.net/DTD/sodipodi-0.dtd"
   xmlns="http://www.w3.org/2000/svg"
   xmlns:svg="http://www.w3.org/2000/svg">
  <sodipodi:namedview
     id="namedview1"
     pagecolor="#ffffff"
     bordercolor="#000000"
     borderopacity="0.25"
     inkscape:showpageshadow="2"
     inkscape:pageopacity="0.0"
     inkscape:pagecheckerboard="0"
     inkscape:deskcolor="#d1d1d1"
     inkscape:document-units="mm"
     inkscape:zoom="2.0334082"
     inkscape:cx="52.621013"
     inkscape:cy="128.11004"
     inkscape:window-width="1920"
     inkscape:window-height="1009"
     inkscape:window-x="-8"
     inkscape:window-y="-8"
     inkscape:window-maximized="1"
     inkscape:current-layer="g2" />
  <defs
     id="defs1">
    <clipPath
       clipPathUnits="userSpaceOnUse"
       id="clipPath3274">
      <path
         d="M 0,841.89 H 595.276 V 0 H 0 Z"
         transform="translate(-407.85501,-500.14501)"
         id="path3274" />
    </clipPath>
    <clipPath
       clipPathUnits="userSpaceOnUse"
       id="clipPath3276">
      <path
         d="M 0,841.89 H 595.276 V 0 H 0 Z"
         id="path3276" />
    </clipPath>
    <clipPath
       clipPathUnits="userSpaceOnUse"
       id="clipPath3278">
      <path
         d="M 0,841.89 H 595.276 V 0 H 0 Z"
         transform="translate(-386.66401,-548.91701)"
         id="path3278" />
    </clipPath>
    <clipPath
       clipPathUnits="userSpaceOnUse"
       id="clipPath3280">
      <path
         d="M 0,841.89 H 595.276 V 0 H 0 Z"
         transform="translate(-377.74201,-558.09401)"
         id="path3280" />
    </clipPath>
    <clipPath
       clipPathUnits="userSpaceOnUse"
       id="clipPath3282">
      <path
         d="M 0,841.89 H 595.276 V 0 H 0 Z"
         transform="translate(-364.51901,-547.30901)"
         id="path3282" />
    </clipPath>
    <clipPath
       clipPathUnits="userSpaceOnUse"
       id="clipPath3284">
      <path
         d="M 0,841.89 H 595.276 V 0 H 0 Z"
         transform="translate(-412.52901,-445.30501)"
         id="path3284" />
    </clipPath>
    <clipPath
       clipPathUnits="userSpaceOnUse"
       id="clipPath3286">
      <path
         d="M 0,841.89 H 595.276 V 0 H 0 Z"
         transform="translate(-314.54001,-449.82701)"
         id="path3286" />
    </clipPath>
  </defs>
  <g
     inkscape:label="Layer 1"
     inkscape:groupmode="layer"
     id="layer1"
     transform="translate(-94.784447,-106.29486)">
    <g
       id="g1"
       transform="translate(0.0776087)">
      <path
         id="path3273"
         d="m 0,0 h -90.559 c -4.022,0 -7.283,3.261 -7.283,7.284 v 91.57 c 0,4.022 3.261,7.283 7.283,7.283 H 0 c 4.022,0 7.284,-3.261 7.284,-7.283 V 7.284 C 7.284,3.261 4.022,0 0,0"
         style="fill:#4467a5;fill-opacity:1;fill-rule:nonzero;stroke:none"
         transform="matrix(0.35277776,0,0,-0.35277776,129.22332,143.73763)"
         clip-path="url(#clipPath3274)" />
      <path
         id="path3275"
         d="m 396.669,518.794 h -68.185 v 68.84 h 68.185 z"
         style="fill:#ffffff;fill-opacity:1;fill-rule:nonzero;stroke:none"
         transform="matrix(0.35277776,0,0,-0.35277776,-14.658861,320.17767)"
         clip-path="url(#clipPath3276)" />
      <path
         id="path3277"
         d="M 0,0 C -0.349,1.785 -0.691,3.542 -1.038,5.323 H -1.919 C -1.292,4.55 -1.059,3.668 -0.953,2.725 -0.852,1.816 -0.672,0.916 -0.525,0 Z m -0.557,-1.364 c 0.085,-0.856 0.072,-1.693 -0.272,-2.509 -0.105,-0.248 -0.116,-0.565 -0.076,-0.837 0.044,-0.294 0.185,-0.576 0.303,-0.855 0.373,-0.883 0.565,-1.868 1.528,-2.399 0.611,-0.337 1.157,-0.789 1.749,-1.164 0.633,-0.399 0.976,-1.189 0.7,-1.687 -0.421,-0.76 -1.204,-0.981 -1.97,-0.526 -0.606,0.361 -1.211,0.73 -1.779,1.146 -0.96,0.701 -1.898,1.426 -2.209,2.683 -0.114,0.461 -0.34,0.894 -0.515,1.342 -0.14,-0.241 -0.269,-0.453 -0.39,-0.669 -0.336,-0.598 -0.84,-1.164 -0.965,-1.803 -0.244,-1.242 -0.288,-2.525 -0.389,-3.793 -0.061,-0.776 -0.505,-1.161 -1.411,-1.158 -0.676,0.003 -1.157,0.462 -1.142,1.16 0.015,0.693 0.087,1.385 0.144,2.078 0.066,0.803 0.129,1.608 0.225,2.409 0.026,0.218 0.141,0.439 0.257,0.634 0.5,0.834 1.014,1.661 1.527,2.487 0.24,0.386 0.288,0.739 0.053,1.18 -0.348,0.653 -0.318,1.367 -0.088,2.067 -0.602,-0.338 -1.185,-0.719 -1.811,-1.003 -0.675,-0.307 -1.348,0 -1.622,0.652 -0.243,0.577 0.075,1.258 0.701,1.565 0.995,0.487 1.86,1.131 2.361,1.997 -0.121,0.418 -0.213,0.728 -0.299,1.041 -0.488,1.769 0.702,3.272 2.421,3.241 0.621,-0.011 1.243,-0.006 1.864,0.003 0.146,0.002 0.313,0.012 0.433,0.083 0.244,0.146 0.438,0.393 0.694,0.499 C 0.566,6.959 1.301,6.791 2.097,5.943 3.109,4.866 3.646,3.561 3.932,2.132 4.01,1.743 4.127,1.362 4.239,0.98 4.505,0.069 4.231,-0.39 3.292,-0.596 2.602,-0.747 1.916,-0.937 1.218,-1.04 0.89,-1.088 0.32,-1.078 0.237,-0.909 c -0.228,0.465 -0.495,0.304 -0.846,0.264 0.018,-0.265 0.029,-0.493 0.052,-0.719"
         style="fill:#000000;fill-opacity:1;fill-rule:nonzero;stroke:none"
         transform="matrix(0.35277776,0,0,-0.35277776,121.7476,126.53195)"
         clip-path="url(#clipPath3278)" />
      <path
         id="path3279"
         d="m 0,0 c 0.065,-1.747 1.562,-3.287 3.224,-3.275 1.715,0.012 3.248,1.494 3.253,3.261 C 6.48,1.749 5.044,3.265 3.258,3.286 1.481,3.307 0.081,1.861 0,0"
         style="fill:#000000;fill-opacity:1;fill-rule:nonzero;stroke:none"
         transform="matrix(0.35277776,0,0,-0.35277776,118.60012,123.29451)"
         clip-path="url(#clipPath3280)" />
      <path
         id="path3281"
         d="M 0,0 C -1.412,-0.005 -2.548,1.165 -2.556,2.604 -2.548,4.051 -1.412,5.221 0,5.209 1.388,5.221 2.522,4.051 2.53,2.604 2.522,1.165 1.388,-0.005 0,0 m -24.401,8.183 2.26,6.093 c 0.273,0.866 0.697,1.484 1.696,1.499 h 7.888 0.025 7.912 c 0.985,-0.015 1.409,-0.633 1.695,-1.499 L -0.664,8.183 Z M -25.064,0 c -1.403,-0.005 -2.538,1.165 -2.532,2.604 -0.006,1.447 1.129,2.617 2.532,2.605 1.397,0.012 2.532,-1.158 2.53,-2.605 0.002,-1.439 -1.133,-2.609 -2.53,-2.604 m 27.497,8.108 -2.998,7.741 c -0.561,1.481 -1.786,2.742 -4.104,2.753 h -4.227 -7.224 -4.3 c -2.309,-0.011 -3.533,-1.272 -4.104,-2.753 l -2.998,-7.741 c -1.19,-0.153 -3.296,-1.551 -3.292,-4.202 v -9.853 h 2.923 v -3.146 c -0.006,-3.878 5.481,-3.833 5.48,0 v 3.146 h 9.879 9.853 v -3.146 c 0.012,-3.833 5.5,-3.878 5.504,0 v 3.146 H 5.75 V 3.906 C 5.742,6.557 3.633,7.955 2.433,8.108"
         style="fill:#000000;fill-opacity:1;fill-rule:nonzero;stroke:none"
         transform="matrix(0.35277776,0,0,-0.35277776,113.93534,127.09922)"
         clip-path="url(#clipPath3282)" />
    </g>
    <g
       id="g2"
       transform="translate(-0.25064776)">
      <path
         id="path3283"
         d="m 0,0 h -98.045 c -1.684,0 -3.05,1.366 -3.05,3.05 v 40.417 c 0,1.684 1.366,3.051 3.05,3.051 H 0 c 1.685,0 3.05,-1.367 3.05,-3.051 V 3.05 C 3.05,1.366 1.685,0 0,0"
         style="fill:#bdd631;fill-opacity:1;fill-rule:nonzero;stroke:none"
         transform="matrix(0.35277776,0,0,-0.35277776,130.8722,163.08396)"
         clip-path="url(#clipPath3284)" />
      <path
         id="path3285"
         d="m 0,0 v 37.472 c 0,0.783 0.634,1.418 1.417,1.418 h 95.1 c 0.783,0 1.418,-0.635 1.418,-1.418 V 0 c 0,-0.782 -0.635,-1.417 -1.418,-1.417 H 1.417 C 0.634,-1.417 0,-0.782 0,0 Z"
         style="fill:none;stroke:#000000;stroke-width:1.096;stroke-linecap:butt;stroke-linejoin:miter;stroke-miterlimit:10;stroke-dasharray:none;stroke-opacity:1"
         transform="matrix(0.35277776,0,0,-0.35277776,96.303862,161.4887)"
         clip-path="url(#clipPath3286)" />
      <path
         style="font-size:3.91432px;font-family:'Transport Heavy';-inkscape-font-specification:'Transport Heavy, Normal';stroke-width:0.352778"
         d="m 105.20286,150.17258 h 0.0612 0.0229 0.0229 0.237 0.0535 0.0459 0.0535 0.0459 0.0382 0.0459 0.0306 0.13761 0.0841 0.0306 0.0306 0.0306 0.0306 0.12997 0.0229 0.0917 0.0229 l 0.0153,0.008 h 0.0229 l 0.0535,0.008 0.0229,0.008 0.10703,0.0229 q 0.71673,0.34403 0.60397,1.08561 -0.25612,0.87728 -1.16971,0.76452 h -0.0306 -0.0841 -0.0382 -0.0229 -0.0306 -0.0229 -0.1529 v 1.02445 h -0.0994 -0.0306 -0.13761 -0.0306 -0.0306 -0.0306 -0.12997 -0.0229 -0.0917 v -0.0229 -0.0306 -0.0229 -0.0306 -0.13762 -0.0612 -0.0612 -0.0229 -0.1529 -0.0306 -0.0382 -0.0306 -0.0382 -0.0994 -0.0306 -0.12997 -0.0229 -0.0917 -0.0306 -0.0382 -0.0994 -0.0306 -0.12997 -0.0229 -0.0917 -0.0535 -0.0612 -0.0612 -0.0612 -0.0229 -0.0229 -0.237 -0.0535 -0.0459 -0.0535 -0.0459 -0.0382 -0.0459 -0.0306 -0.13762 -0.0841 -0.0306 -0.0306 -0.0306 -0.0306 -0.12996 -0.0229 -0.0917 z m 0.54281,1.34555 h 0.0306 0.0306 0.0306 0.0841 0.0841 0.13762 0.0229 0.0229 0.0306 0.13761 0.0306 q 0.0478,-0.0191 0.0841,-0.0229 0.31918,-0.18922 0.21406,-0.51987 -0.0707,-0.16437 -0.22171,-0.22936 h -0.0229 q -0.1185,-0.0344 -0.21407,-0.0229 h -0.0382 -0.0306 -0.0382 -0.0994 -0.0306 -0.12996 -0.0229 -0.0917 z m 2.26297,-1.33026 h 0.0306 0.13761 0.0306 0.0306 0.0306 0.12997 0.0229 0.0918 v 2.92045 h -0.0994 -0.0306 -0.13762 -0.0306 -0.0306 -0.0306 -0.12996 -0.0229 -0.0917 v -0.0229 -0.0306 -0.0229 -0.0306 -0.13762 -0.0612 -0.0612 -0.0229 -0.15291 -0.0306 -0.0382 -0.0306 -0.0382 -0.0994 -0.0306 -0.12997 -0.0229 -0.0917 -0.0306 -0.0382 -0.0994 -0.0306 -0.12997 -0.0229 -0.0917 -0.0535 -0.0612 -0.0612 -0.0612 -0.0229 -0.0229 -0.237 -0.0535 -0.0459 -0.0535 -0.0459 -0.0382 -0.0459 -0.0306 -0.13762 -0.0841 -0.0306 -0.0306 -0.0306 -0.0306 -0.12996 -0.0229 -0.0917 z m 2.59744,-0.0688 q 1.11428,-0.0573 1.46787,0.90978 l -0.0306,0.0229 -0.12997,0.0459 -0.0306,0.0153 -0.0306,0.008 q -0.0554,0.0325 -0.0994,0.0459 l -0.0382,0.008 -0.0153,0.0153 h -0.0229 l -0.0153,0.0153 h -0.0229 l -0.0153,0.0153 h -0.0229 l -0.0153,0.0153 -0.0306,0.008 -0.0841,0.0306 q -0.19113,-0.6938 -0.88684,-0.5581 -0.53898,0.20833 -0.52751,0.80275 -0.0707,0.61734 0.29816,0.9327 0.30389,0.20642 0.63454,0.10704 0.41667,-0.1357 0.474,-0.54281 0.0726,0.0134 0.12233,0.0459 0.0784,0.021 0.12996,0.0459 l 0.0306,0.0153 0.0459,0.0153 0.0229,0.008 0.0535,0.0229 0.0306,0.008 0.0229,0.0153 q 0.0382,0.01 0.0612,0.0229 l 0.0917,0.0306 q -0.30581,0.84861 -1.13913,0.91741 -0.84288,0.0612 -1.27674,-0.57338 -0.46253,-0.81612 -0.13762,-1.61313 0.32875,-0.75878 1.08562,-0.85626 z m 2.02787,0.0688 h 0.0306 0.13761 0.0306 0.0306 0.0306 0.12997 0.0229 0.0917 v 0.99387 l 0.0459,-0.0382 0.008,-0.0229 0.0535,-0.0459 q 0.008,-0.0134 0.0153,-0.0153 l 0.008,-0.0153 0.0994,-0.11468 0.0382,-0.0306 0.0229,-0.0382 0.0153,-0.0153 0.0153,-0.0153 0.0153,-0.0153 0.0153,-0.0153 0.0153,-0.0229 0.0153,-0.008 0.0994,-0.11468 0.0306,-0.0229 0.0229,-0.0306 0.0229,-0.0306 0.0306,-0.0229 0.0229,-0.0306 q 0.008,-0.0134 0.0153,-0.0153 l 0.0229,-0.0229 0.008,-0.0153 q 0.0268,-0.0344 0.0535,-0.0535 0.0516,-0.0745 0.10704,-0.11468 0.0459,-0.0669 0.0841,-0.10703 h 0.0382 0.0229 0.15291 0.0994 0.0306 0.13761 0.0306 0.0306 0.0306 0.12997 0.0229 0.0917 l -0.0153,0.0229 -0.0153,0.0229 -0.0229,0.0229 -0.0153,0.0153 q -0.0382,0.0459 -0.0688,0.0688 -0.0229,0.0344 -0.0459,0.0535 l -0.008,0.0153 -0.0153,0.008 q -0.0554,0.0745 -0.0994,0.11468 l -0.0382,0.0382 -0.0994,0.11467 -0.0306,0.0306 -0.0229,0.0306 -0.0382,0.0306 -0.0153,0.0306 -0.0229,0.0229 -0.0841,0.0917 -0.0306,0.0306 -0.0229,0.0306 -0.0306,0.0229 -0.0153,0.0229 q -0.0287,0.0401 -0.0612,0.0612 -0.008,0.0134 -0.0153,0.0153 l -0.008,0.0229 -0.0229,0.0229 -0.0153,0.0153 -0.0153,0.0153 -0.0153,0.0153 -0.0153,0.0229 -0.12232,0.12233 q 0.0115,0.0325 0.0306,0.0535 l 0.0229,0.0535 0.0306,0.0459 q 0.0172,0.0191 0.0229,0.0382 0.0229,0.0191 0.0382,0.0459 l 0.008,0.0229 q 0.0497,0.0631 0.0765,0.11468 l 0.0306,0.0459 0.008,0.0229 0.0153,0.008 0.0688,0.12232 0.0153,0.0153 0.0306,0.0535 q 0.0325,0.044 0.0459,0.0765 l 0.0306,0.0382 0.13761,0.22171 q 0.044,0.0592 0.0612,0.10703 0.0134,0.008 0.0153,0.0153 l 0.0688,0.0994 0.0535,0.0917 0.0229,0.0306 0.0153,0.0382 q 0.0115,0.01 0.0153,0.0229 l 0.0153,0.0229 q 0.0478,0.0592 0.0688,0.10703 l 0.0306,0.0535 0.0153,0.008 0.008,0.0229 q 0.01,0.008 0.008,0.0153 0.0669,0.0745 0.0917,0.1529 h -0.10703 -0.0994 -0.0306 -0.13761 -0.0306 -0.0306 -0.0306 -0.12997 -0.0229 -0.0917 l -0.0229,-0.0459 q -0.0115,-0.01 -0.0153,-0.0229 -0.0134,-0.008 -0.0153,-0.0153 l -0.008,-0.0229 q -0.0115,-0.01 -0.0153,-0.0229 -0.0306,-0.0287 -0.0382,-0.0612 -0.0134,-0.008 -0.0153,-0.0153 l -0.008,-0.0153 -0.0612,-0.0841 -0.008,-0.0229 -0.0841,-0.12997 q -0.0153,-0.0248 -0.0229,-0.0459 -0.0134,-0.008 -0.0153,-0.0153 l -0.0688,-0.0994 -0.0229,-0.0459 -0.0229,-0.0306 -0.008,-0.0229 q -0.0497,-0.0573 -0.0688,-0.10703 l -0.0229,-0.0229 -0.0535,-0.0994 q -0.0115,-0.01 -0.0153,-0.0229 l -0.0382,-0.0459 -0.0153,-0.0229 -0.008,-0.0306 -0.0153,-0.008 -0.008,-0.0229 -0.0306,-0.0535 q -0.0497,-0.0535 -0.0688,-0.10703 l -0.0306,-0.0229 -0.0153,0.0306 -0.0229,0.0153 -0.0153,0.0229 -0.0153,0.0153 -0.0153,0.0229 -0.0229,0.0153 -0.008,0.0153 q -0.042,0.0401 -0.0612,0.0688 l -0.0612,0.0612 v 1.01681 h -0.0994 -0.0306 -0.13762 -0.0306 -0.0306 -0.0306 -0.12997 -0.0229 -0.0917 v -0.0229 -0.0306 -0.0229 -0.0306 -0.13762 -0.0612 -0.0612 -0.0229 -0.15291 -0.0306 -0.0382 -0.0306 -0.0382 -0.0994 -0.0306 -0.12997 -0.0229 -0.0917 -0.0306 -0.0382 -0.0994 -0.0306 -0.12997 -0.0229 -0.0917 -0.0535 -0.0612 -0.0612 -0.0612 -0.0229 -0.0229 -0.237 -0.0535 -0.0459 -0.0535 -0.0459 -0.0382 -0.0459 -0.0306 -0.13762 -0.0841 -0.0306 -0.0306 -0.0306 -0.0306 -0.12996 -0.0229 -0.0917 z m 4.04238,0.008 h 0.0382 0.0306 0.12997 0.0841 0.0306 0.12997 0.0612 0.0535 l 0.008,1.84249 0.0459,0.16819 q 0.19304,0.3383 0.54281,0.35932 0.37652,-0.0287 0.55045,-0.32874 v -0.0229 q 0.0573,-0.11658 0.0612,-0.22935 0.0115,-0.0879 0.008,-0.1529 v -0.0612 -0.0612 -0.10703 -0.0229 -0.0382 -0.0229 -0.0306 -0.0229 -0.1529 -0.12997 -0.0229 -0.0917 -0.0994 -0.0306 -0.12996 -0.0229 -0.0917 -0.0841 -0.0382 -0.0994 -0.0306 -0.12997 -0.0229 -0.0917 h 0.0306 0.0306 0.0229 0.13762 0.0994 0.0306 0.12997 0.0229 0.0917 v 1.88071 q -0.008,0.0363 -0.008,0.0612 l -0.008,0.0153 q -0.01,0.1013 -0.0306,0.1682 -0.17584,0.47973 -0.57339,0.69571 -0.48929,0.25611 -0.96329,0.0917 -0.95373,-0.36315 -0.83332,-1.52903 v -0.10704 -0.0841 -0.0382 -0.0229 -0.0306 -0.0229 -0.1529 -0.0459 -0.0535 -0.0459 -0.0535 -0.0994 -0.237 -0.10704 -0.0229 -0.0382 -0.0229 -0.0306 -0.0229 -0.1529 z m 3.22817,-0.0229 h 0.0612 0.0229 0.0229 0.237 0.0535 0.0459 0.0535 0.0459 0.0382 0.0459 0.0306 0.13761 0.0841 0.0306 0.0306 0.0306 0.0306 0.12997 0.0229 0.0917 0.0229 l 0.0153,0.008 h 0.0229 l 0.0535,0.008 0.0229,0.008 0.10703,0.0229 q 0.71674,0.34403 0.60397,1.08561 -0.25611,0.87728 -1.16971,0.76452 h -0.0306 -0.0841 -0.0382 -0.0229 -0.0306 -0.0229 -0.15291 v 1.02445 h -0.0994 -0.0306 -0.13762 -0.0306 -0.0306 -0.0306 -0.12997 -0.0229 -0.0917 v -0.0229 -0.0306 -0.0229 -0.0306 -0.13762 -0.0612 -0.0612 -0.0229 -0.1529 -0.0306 -0.0382 -0.0306 -0.0382 -0.0994 -0.0306 -0.12997 -0.0229 -0.0917 -0.0306 -0.0382 -0.0994 -0.0306 -0.12997 -0.0229 -0.0917 -0.0535 -0.0612 -0.0612 -0.0612 -0.0229 -0.0229 -0.237 -0.0535 -0.0459 -0.0535 -0.0459 -0.0382 -0.0459 -0.0306 -0.13762 -0.0841 -0.0306 -0.0306 -0.0306 -0.0306 -0.12996 -0.0229 -0.0917 z m 0.5428,1.34555 h 0.0306 0.0306 0.0306 0.0841 0.0841 0.13761 0.0229 0.0229 0.0306 0.13762 0.0306 q 0.0478,-0.0191 0.0841,-0.0229 0.31919,-0.18922 0.21407,-0.51987 -0.0707,-0.16437 -0.22171,-0.22936 h -0.0229 q -0.1185,-0.0344 -0.21406,-0.0229 h -0.0382 -0.0306 -0.0382 -0.0994 -0.0306 -0.12997 -0.0229 -0.0918 z"
         id="text3286"
         aria-label="PICK UP" />
      <path
         style="font-size:3.91432px;font-family:'Transport Heavy';-inkscape-font-specification:'Transport Heavy, Normal';stroke-width:0.352778"
         d="m 99.452231,156.06716 q 0.466354,0.002 0.710999,0.34403 0.24847,0.68615 -0.458709,1.00916 l -0.0076,0.0229 0.03058,0.0306 0.02294,0.0306 0.0076,0.0153 q 0.04778,0.0592 0.06881,0.10703 l 0.02294,0.0153 0.05352,0.0917 q 0.04014,0.0382 0.05352,0.0764 l 0.01529,0.008 0.01529,0.0229 0.0076,0.0153 0.01529,0.0153 0.0306,0.0535 q 0.0497,0.0497 0.0688,0.0994 0.11086,-0.15673 0.10704,-0.32875 h 0.0306 0.12996 0.0841 0.0306 0.12997 0.0229 0.0917 q -0.0287,0.46636 -0.29816,0.77981 0.1529,0.0459 0.29051,0.0153 l 0.008,0.0841 0.008,0.0382 q 0.01,0.0421 0.008,0.0765 0.008,0.0115 0.008,0.0229 l 0.008,0.0459 v 0.0229 q 0.0115,0.0306 0.008,0.0612 0.0191,0.044 0.0153,0.0917 -0.49693,0.20451 -0.76451,-0.0917 -0.472091,0.27714 -0.948002,0.14526 -0.569564,-0.15864 -0.657483,-0.78745 -0.01911,-0.63073 0.481645,-0.92507 -0.248468,-0.39181 -0.09939,-0.7798 0.183483,-0.4052 0.649838,-0.42813 z m 0.03058,0.45871 q -0.313451,0.13761 -0.114677,0.43577 l 0.02294,0.0459 q 0.271403,-0.0841 0.298161,-0.34403 -0.0669,-0.1357 -0.20642,-0.13761 z m -0.26758,1.185 q -0.366968,0.24273 -0.160548,0.60396 0.02102,0.0344 0.03058,0.0612 0.330653,0.24847 0.642193,0.0382 -0.02485,-0.0191 -0.03822,-0.0459 l -0.0076,-0.0153 -0.01529,-0.0153 -0.0076,-0.0229 -0.01529,-0.008 -0.0076,-0.0229 q -0.04014,-0.0401 -0.06116,-0.0764 l -0.05352,-0.0764 -0.01529,-0.0229 -0.02294,-0.0382 -0.02294,-0.0229 -0.01529,-0.0306 -0.02294,-0.0229 -0.02294,-0.0306 -0.01529,-0.0229 -0.03058,-0.0535 q -0.01338,-0.008 -0.01529,-0.0153 l -0.01529,-0.0153 -0.0076,-0.0229 z m 3.323729,-1.659 h 0.0382 0.0306 0.0382 0.0306 0.0382 0.0994 0.0306 0.12997 0.0229 0.0917 0.0306 0.0306 0.0994 0.0306 0.0306 0.0764 0.0841 0.0229 0.0841 0.0612 0.0382 l 0.0229,0.008 h 0.0306 0.0306 l 0.0153,0.008 0.12232,0.0153 q 1.16398,0.38417 1.00916,1.68958 -0.23318,1.35319 -1.81955,1.20793 h -0.0306 -0.0382 -0.0306 -0.0382 -0.0306 -0.0382 -0.0994 -0.0306 -0.12997 -0.0229 -0.0917 v -0.0306 -0.13761 -0.0612 -0.0612 -0.0229 -0.0306 -0.13761 -0.0229 -0.1529 -0.0612 -0.0306 -0.13762 -0.0229 -0.0229 -0.237 -0.0535 -0.0229 -0.0306 -0.13761 -0.10703 -0.0229 -0.0382 -0.0229 -0.0306 -0.0229 -0.1529 -0.12997 -0.0229 -0.0918 -0.0994 -0.0306 -0.12997 -0.0229 -0.0917 -0.0841 -0.0382 -0.0994 -0.0306 -0.12997 -0.0229 -0.0917 z m 0.56574,2.33177 h 0.10704 0.0229 0.0612 0.0229 0.0229 0.0994 0.0306 0.0229 0.1529 l 0.0535,-0.008 q 0.0707,-0.008 0.12232,-0.0306 l 0.0459,-0.008 q 0.50458,-0.28096 0.45106,-0.87919 -0.0745,-0.88684 -0.93271,-0.81039 h -0.0229 -0.0229 -0.237 z m 2.56113,-2.33942 h 0.0612 0.15291 0.0229 0.0229 0.237 0.0535 0.0229 0.0994 0.12996 0.0306 0.0306 0.13762 0.10703 0.0229 0.0229 0.0229 0.0535 0.0306 0.0229 0.0229 q 0.0554,0.01 0.0917,0.008 l 0.0917,0.0153 0.0153,0.008 h 0.0229 l 0.0153,0.008 0.11468,0.0382 q 0.35168,0.1854 0.46636,0.51223 0.22553,0.80656 -0.52752,1.15442 l 0.0153,0.008 q 0.0363,0.0745 0.0688,0.12232 l 0.0229,0.0459 q 0.0153,0.0248 0.0229,0.0459 l 0.0306,0.0459 q 0.0459,0.0688 0.0688,0.12232 0.0459,0.0573 0.0612,0.10703 0.0478,0.0612 0.0688,0.10703 0.0268,0.044 0.0382,0.0765 l 0.0153,0.0229 0.0153,0.0306 0.0229,0.0229 0.0535,0.0994 q 0.0249,0.0401 0.0382,0.0688 l 0.0153,0.0229 0.008,0.0153 0.0153,0.0153 0.008,0.0229 q 0.0707,0.10512 0.0994,0.18349 h -0.0535 -0.10703 -0.0229 -0.13761 -0.0994 -0.0306 -0.12997 -0.0229 -0.0917 l -0.008,-0.0153 -0.0153,-0.0153 -0.008,-0.0153 -0.0535,-0.0917 -0.008,-0.0229 q -0.0363,-0.044 -0.0459,-0.0841 -0.0459,-0.0478 -0.0612,-0.0994 -0.0459,-0.0573 -0.0612,-0.10703 l -0.0229,-0.0306 -0.0229,-0.0459 -0.0153,-0.0306 q -0.0478,-0.0573 -0.0688,-0.0994 -0.0268,-0.0592 -0.0535,-0.0994 l -0.008,-0.0229 q -0.044,-0.0478 -0.0612,-0.0994 l -0.0153,-0.0229 -0.008,-0.0229 -0.0153,-0.008 -0.0229,-0.0535 q -0.01,-0.008 -0.008,-0.0153 -0.0573,-0.0745 -0.0841,-0.13761 h -0.0306 -0.0841 -0.0382 -0.0229 -0.0306 -0.0229 -0.1529 v 1.13913 h -0.0994 -0.0306 -0.13761 -0.0306 -0.0306 -0.0306 -0.12997 -0.0229 -0.0917 v -0.0306 -0.13762 -0.0612 -0.0612 -0.0229 -0.0306 -0.13761 -0.0229 -0.15291 -0.0612 -0.0306 -0.13761 -0.0229 -0.0229 -0.237 -0.0535 -0.0229 -0.0306 -0.13761 -0.10703 -0.0229 -0.0382 -0.0229 -0.0306 -0.0229 -0.15291 -0.12996 -0.0229 -0.0917 -0.0994 -0.0306 -0.12997 -0.0229 -0.0917 -0.0841 -0.0382 -0.0994 -0.0306 -0.12997 -0.0229 -0.0917 z m 0.54281,1.23852 h 0.0382 0.0535 0.10703 0.0229 0.13761 0.0994 0.0306 0.12997 0.0229 0.0917 l 0.0917,-0.0229 q 0.22745,-0.14143 0.19878,-0.38226 -0.0554,-0.17201 -0.19878,-0.25229 h -0.0229 l -0.0153,-0.008 -0.0994,-0.0229 h -0.0382 -0.10704 -0.0382 -0.0306 -0.13762 -0.0306 -0.0306 -0.0306 -0.12996 -0.0229 -0.0917 z m 3.75759,-1.30733 q 1.29777,0.01 1.48316,1.33026 0.0822,1.185 -0.83332,1.62078 -0.88493,0.32109 -1.5061,-0.2523 -0.6613,-0.7454 -0.36696,-1.71251 0.32109,-0.91933 1.22322,-0.98623 z m 0.0153,0.58104 q -0.73393,0.13952 -0.67277,1.07032 0.0287,0.55045 0.45106,0.7798 h 0.0229 q 0.0363,0.021 0.0688,0.0229 l 0.0153,0.008 0.0917,0.0229 q 0.80656,-0.008 0.84096,-0.82568 0.0707,-1.05121 -0.81803,-1.07796 z m 2.03744,-0.51223 h 0.0612 0.0229 0.0229 0.237 0.0535 0.0459 0.0535 0.0459 0.0382 0.0459 0.0306 0.13761 0.0841 0.0306 0.0306 0.0306 0.0306 0.12997 0.0229 0.0917 0.0229 l 0.0153,0.008 h 0.0229 l 0.0535,0.008 0.0229,0.008 0.10703,0.0229 q 0.71674,0.34403 0.60397,1.08561 -0.25611,0.87729 -1.16971,0.76452 h -0.0306 -0.0841 -0.0382 -0.0229 -0.0306 -0.0229 -0.15291 v 1.02445 h -0.0994 -0.0306 -0.13762 -0.0306 -0.0306 -0.0306 -0.12997 -0.0229 -0.0917 v -0.0229 -0.0306 -0.0229 -0.0306 -0.13761 -0.0612 -0.0612 -0.0229 -0.15291 -0.0306 -0.0382 -0.0306 -0.0382 -0.0994 -0.0306 -0.12996 -0.0229 -0.0917 -0.0306 -0.0382 -0.0994 -0.0306 -0.12997 -0.0229 -0.0917 -0.0535 -0.0612 -0.0612 -0.0612 -0.0229 -0.0229 -0.237 -0.0535 -0.0459 -0.0535 -0.0459 -0.0382 -0.0459 -0.0306 -0.13761 -0.0841 -0.0306 -0.0306 -0.0306 -0.0306 -0.12997 -0.0229 -0.0917 z m 0.5428,1.34555 h 0.0306 0.0306 0.0306 0.0841 0.0841 0.13761 0.0229 0.0229 0.0306 0.13762 0.0306 q 0.0478,-0.0191 0.0841,-0.0229 0.31919,-0.18921 0.21407,-0.51987 -0.0707,-0.16437 -0.22171,-0.22935 h -0.0229 q -0.1185,-0.0344 -0.21406,-0.0229 h -0.0382 -0.0306 -0.0382 -0.0994 -0.0306 -0.12997 -0.0229 -0.0917 z m 3.31596,-1.34555 h 0.0612 0.0229 0.0229 0.237 0.0535 0.0459 0.0535 0.0459 0.0382 0.0459 0.0306 0.13762 0.0841 0.0306 0.0306 0.0306 0.0306 0.12997 0.0229 0.0917 0.0229 l 0.0153,0.008 h 0.0229 l 0.0535,0.008 0.0229,0.008 0.10703,0.0229 q 0.71674,0.34403 0.60397,1.08561 -0.25611,0.87729 -1.16971,0.76452 h -0.0306 -0.0841 -0.0382 -0.0229 -0.0306 -0.0229 -0.15291 v 1.02445 h -0.0994 -0.0306 -0.13762 -0.0306 -0.0306 -0.0306 -0.12997 -0.0229 -0.0917 v -0.0229 -0.0306 -0.0229 -0.0306 -0.13761 -0.0612 -0.0612 -0.0229 -0.15291 -0.0306 -0.0382 -0.0306 -0.0382 -0.0994 -0.0306 -0.12996 -0.0229 -0.0917 -0.0306 -0.0382 -0.0994 -0.0306 -0.12997 -0.0229 -0.0917 -0.0535 -0.0612 -0.0612 -0.0612 -0.0229 -0.0229 -0.237 -0.0535 -0.0459 -0.0535 -0.0459 -0.0382 -0.0459 -0.0306 -0.13761 -0.0841 -0.0306 -0.0306 -0.0306 -0.0306 -0.12997 -0.0229 -0.0917 z m 0.5428,1.34555 h 0.0306 0.0306 0.0306 0.0841 0.0841 0.13761 0.0229 0.0229 0.0306 0.13762 0.0306 q 0.0478,-0.0191 0.0841,-0.0229 0.31919,-0.18921 0.21407,-0.51987 -0.0707,-0.16437 -0.22171,-0.22935 h -0.0229 q -0.1185,-0.0344 -0.21406,-0.0229 h -0.0382 -0.0306 -0.0382 -0.0994 -0.0306 -0.12997 -0.0229 -0.0918 z m 3.45944,-1.41436 q 1.29776,0.01 1.48316,1.33026 0.0822,1.185 -0.83332,1.62078 -0.88493,0.32109 -1.5061,-0.2523 -0.66131,-0.7454 -0.36697,-1.71251 0.3211,-0.91933 1.22323,-0.98623 z m 0.0153,0.58104 q -0.73394,0.13952 -0.67278,1.07032 0.0287,0.55045 0.45107,0.7798 h 0.0229 q 0.0363,0.021 0.0688,0.0229 l 0.0153,0.008 0.0917,0.0229 q 0.80657,-0.008 0.84097,-0.82568 0.0707,-1.05121 -0.81803,-1.07796 z m 2.06037,-0.49694 h 0.0306 0.13761 0.0306 0.0306 0.0306 0.12997 0.0229 0.0918 v 2.92045 h -0.0994 -0.0306 -0.13761 -0.0306 -0.0306 -0.0306 -0.12996 -0.0229 -0.0917 v -0.0229 -0.0306 -0.0229 -0.0306 -0.13761 -0.0612 -0.0612 -0.0229 -0.1529 -0.0306 -0.0382 -0.0306 -0.0382 -0.0994 -0.0306 -0.12996 -0.0229 -0.0917 -0.0306 -0.0382 -0.0994 -0.0306 -0.12997 -0.0229 -0.0917 -0.0535 -0.0612 -0.0612 -0.0612 -0.0229 -0.0229 -0.237 -0.0535 -0.0459 -0.0535 -0.0459 -0.0382 -0.0459 -0.0306 -0.13761 -0.0841 -0.0306 -0.0306 -0.0306 -0.0306 -0.12997 -0.0229 -0.0917 z m 1.44493,-0.0153 h 0.10703 0.0382 0.0306 0.13761 0.0306 0.0306 0.0306 0.12997 0.0229 0.0917 l 0.0306,0.0535 0.0306,0.0459 0.0306,0.0459 0.0306,0.0459 0.0306,0.0459 0.0229,0.0229 0.008,0.0229 q 0.01,0.008 0.008,0.0153 0.0554,0.0593 0.0765,0.11468 0.0554,0.0592 0.0764,0.11468 l 0.0306,0.0382 0.0306,0.0459 q 0.021,0.0344 0.0382,0.0535 l 0.008,0.0229 q 0.0287,0.0306 0.0382,0.0612 0.0764,0.086 0.10703,0.16054 l 0.0306,0.0459 q 0.01,0.008 0.008,0.0153 0.0573,0.065 0.0841,0.11467 l 0.0306,0.0459 0.0229,0.0459 0.0306,0.0459 0.0306,0.0306 0.0229,0.0382 0.0153,0.0382 q 0.0497,0.0497 0.0688,0.0994 l 0.0229,0.0306 0.0153,0.0306 0.0229,0.0229 q 0.0363,0.0535 0.0535,0.0917 l 0.0229,0.0229 0.0153,0.0229 0.008,0.0229 0.0153,0.008 q 0.0249,0.0554 0.0535,0.0841 l 0.008,0.0229 q 0.01,0.008 0.008,0.0153 0.0707,0.0784 0.0994,0.14526 l 0.008,-0.0535 v -0.0535 -0.0612 -0.0306 -0.13761 -0.0841 -0.0306 -0.0306 -0.0306 -0.0306 -0.12997 -0.0229 -0.0918 -0.0459 -0.12996 -0.0229 -0.0917 -0.0994 -0.0306 -0.12997 -0.0229 -0.0917 -0.0841 -0.0382 -0.0994 -0.0306 -0.12997 -0.0229 -0.0917 h 0.0994 0.0306 0.13761 0.0306 0.0306 0.0306 0.12997 0.0229 0.0917 v 2.92045 h -0.0229 -0.0917 -0.0764 -0.0535 -0.0459 -0.0382 -0.0306 -0.0306 -0.0306 -0.0229 -0.0229 -0.0229 -0.0153 0.0153 -0.0153 -0.0612 -0.0229 -0.0994 l -0.008,-0.0153 q -0.0268,-0.0344 -0.0382,-0.0612 -0.01,-0.008 -0.008,-0.0153 -0.0707,-0.0784 -0.0994,-0.14526 -0.01,-0.008 -0.008,-0.0153 l -0.0306,-0.0459 q -0.0401,-0.0459 -0.0612,-0.0917 l -0.0382,-0.0459 -0.0306,-0.0535 -0.0306,-0.0535 q -0.0516,-0.0573 -0.0764,-0.10703 l -0.0153,-0.0153 q -0.0306,-0.0669 -0.0688,-0.10703 l -0.008,-0.0153 -0.0153,-0.0229 -0.0688,-0.10703 q -0.0268,-0.0344 -0.0382,-0.0612 -0.01,-0.008 -0.008,-0.0153 l -0.0153,-0.008 -0.0306,-0.0535 -0.008,-0.0153 q -0.0268,-0.0344 -0.0382,-0.0612 -0.0172,-0.0191 -0.0229,-0.0382 l -0.0306,-0.0306 -0.0306,-0.0459 -0.0153,-0.0382 -0.0153,-0.008 -0.0306,-0.0535 -0.0688,-0.0994 -0.0153,-0.0306 -0.0153,-0.0306 -0.0229,-0.0229 -0.0153,-0.0229 -0.008,-0.0229 q -0.0382,-0.042 -0.0612,-0.0764 l -0.0153,-0.0306 q -0.0325,-0.044 -0.0459,-0.0765 -0.0134,-0.008 -0.0153,-0.0153 l -0.0153,-0.0153 -0.008,-0.0153 -0.0306,-0.0535 -0.0688,-0.0994 v 1.95716 h -0.0994 -0.0306 -0.13762 -0.0306 -0.0306 -0.0306 -0.12997 -0.0229 -0.0917 v -0.0229 -0.0306 -0.0229 -0.0306 -0.13761 -0.0612 -0.0612 -0.0229 -0.15291 -0.0306 -0.0382 -0.0306 -0.0382 -0.0994 -0.0306 -0.12996 -0.0229 -0.0917 -0.0306 -0.0382 -0.0994 -0.0306 -0.12997 -0.0229 -0.0917 -0.0535 -0.0612 -0.0612 -0.0612 -0.0229 -0.0229 -0.237 -0.0535 -0.0459 -0.0535 -0.0459 -0.0382 -0.0459 -0.0306 -0.13761 -0.0841 -0.0306 -0.0306 -0.0306 -0.0306 -0.12997 -0.0229 -0.0917 z m 3.11158,0 h 0.0306 0.0229 0.0306 0.13761 0.0306 0.13761 0.0459 0.0535 0.1529 0.0612 0.0612 0.0612 0.0612 0.1529 0.0229 0.0229 0.237 0.0535 0.0459 0.0535 0.0459 0.0382 0.0459 0.0306 0.13762 0.0841 0.0306 0.0306 0.0306 0.0306 0.12996 0.0229 0.0917 v 0.58103 h -0.0459 -0.0229 -0.15291 -0.0994 -0.0306 -0.13761 -0.0306 -0.0306 -0.0306 -0.12997 -0.0229 -0.0917 v 2.34707 h -0.0994 -0.0306 -0.13762 -0.0306 -0.0306 -0.0306 -0.12997 -0.0229 -0.0917 v -0.0535 -0.0229 -0.0382 -0.0229 -0.0306 -0.0229 -0.15291 -0.0306 -0.13761 -0.0459 -0.0535 -0.1529 -0.0612 -0.0612 -0.0612 -0.0612 -0.15291 -0.0229 -0.0229 -0.237 -0.0535 -0.0459 -0.0535 -0.0459 -0.0382 -0.0459 -0.0306 -0.13761 -0.0841 -0.0306 -0.0306 -0.0306 -0.0306 -0.12997 -0.0229 -0.0917 h -0.0459 -0.0229 -0.1529 -0.0994 -0.0306 -0.13761 -0.0306 -0.0306 -0.0306 -0.12997 -0.0229 -0.0917 v -0.1529 -0.0382 -0.0229 -0.0306 -0.0306 -0.0306 -0.0306 -0.12997 -0.0229 -0.0917 z"
         id="text3298"
         aria-label="&amp; DROP POINT" />
    </g>
  </g>
</svg>
