<?xml version="1.0" encoding="UTF-8" standalone="no"?>
<!-- Created with Inkscape (http://www.inkscape.org/) -->

<svg
   width="44.999977mm"
   height="59.999737mm"
   viewBox="0 0 44.999977 59.999737"
   version="1.1"
   id="svg1"
   inkscape:version="1.4 (86a8ad7, 2024-10-11)"
   sodipodi:docname="police station.svg"
   xmlns:inkscape="http://www.inkscape.org/namespaces/inkscape"
   xmlns:sodipodi="http://sodipodi.sourceforge.net/DTD/sodipodi-0.dtd"
   xmlns="http://www.w3.org/2000/svg"
   xmlns:svg="http://www.w3.org/2000/svg">
  <sodipodi:namedview
     id="namedview1"
     pagecolor="#ffffff"
     bordercolor="#000000"
     borderopacity="0.25"
     inkscape:showpageshadow="2"
     inkscape:pageopacity="0.0"
     inkscape:pagecheckerboard="0"
     inkscape:deskcolor="#d1d1d1"
     inkscape:document-units="mm"
     inkscape:zoom="2.8756734"
     inkscape:cx="75.460586"
     inkscape:cy="106.23599"
     inkscape:window-width="1920"
     inkscape:window-height="1009"
     inkscape:window-x="-8"
     inkscape:window-y="-8"
     inkscape:window-maximized="1"
     inkscape:current-layer="g4075" />
  <defs
     id="defs1">
    <rect
       x="7.650382"
       y="169.35164"
       width="218.38363"
       height="59.464333"
       id="rect3" />
    <rect
       x="26.080848"
       y="26.776337"
       width="146.05275"
       height="37.556421"
       id="rect2" />
    <inkscape:path-effect
       effect="fillet_chamfer"
       id="path-effect1"
       is_visible="true"
       lpeversion="1"
       nodesatellites_param="F,0,0,1,0,0,0,1 @ F,0,0,1,0,0,0,1 @ F,0,0,1,0,0,0,1 @ F,0,0,1,0,0,0,1"
       radius="0"
       unit="px"
       method="auto"
       mode="F"
       chamfer_steps="1"
       flexible="false"
       use_knot_distance="true"
       apply_no_radius="true"
       apply_with_radius="true"
       only_selected="false"
       hide_knots="false" />
    <clipPath
       clipPathUnits="userSpaceOnUse"
       id="clipPath4010">
      <path
         d="M 0,841.89 H 595.276 V 0 H 0 Z"
         transform="translate(-166.51401,-731.52902)"
         id="path4010" />
    </clipPath>
    <clipPath
       clipPathUnits="userSpaceOnUse"
       id="clipPath4012">
      <path
         d="M 0,841.89 H 595.276 V 0 H 0 Z"
         transform="translate(-59.355001,-725.79102)"
         id="path4012" />
    </clipPath>
    <clipPath
       clipPathUnits="userSpaceOnUse"
       id="clipPath4014">
      <path
         d="M 0,841.89 H 595.276 V 0 H 0 Z"
         id="path4014" />
    </clipPath>
    <clipPath
       clipPathUnits="userSpaceOnUse"
       id="clipPath4016">
      <path
         d="M 0,841.89 H 595.276 V 0 H 0 Z"
         transform="translate(-132.939,-632.53702)"
         id="path4016" />
    </clipPath>
    <clipPath
       clipPathUnits="userSpaceOnUse"
       id="clipPath4018">
      <path
         d="M 0,841.89 H 595.276 V 0 H 0 Z"
         transform="translate(-446.64601,-731.52902)"
         id="path4018" />
    </clipPath>
    <clipPath
       clipPathUnits="userSpaceOnUse"
       id="clipPath4020">
      <path
         d="M 0,841.89 H 595.276 V 0 H 0 Z"
         transform="translate(-339.48701,-725.79102)"
         id="path4020" />
    </clipPath>
    <clipPath
       clipPathUnits="userSpaceOnUse"
       id="clipPath4022">
      <path
         d="M 0,841.89 H 595.276 V 0 H 0 Z"
         id="path4022" />
    </clipPath>
    <clipPath
       clipPathUnits="userSpaceOnUse"
       id="clipPath4024">
      <path
         d="M 0,841.89 H 595.276 V 0 H 0 Z"
         transform="translate(-409.44701,-659.97202)"
         id="path4024" />
    </clipPath>
    <clipPath
       clipPathUnits="userSpaceOnUse"
       id="clipPath1000">
      <path
         d="M 0,0 H 595.276 V 841.89 H 0 Z"
         transform="translate(-166.51401,-731.47102)"
         id="path1000" />
    </clipPath>
    <clipPath
       clipPathUnits="userSpaceOnUse"
       id="clipPath1002">
      <path
         d="M 0,0 H 595.276 V 841.89 H 0 Z"
         transform="translate(-59.354602,-725.73102)"
         id="path1002" />
    </clipPath>
    <clipPath
       clipPathUnits="userSpaceOnUse"
       id="clipPath1004">
      <path
         d="M 0,0 H 595.276 V 841.89 H 0 Z"
         transform="translate(-94.148605,-610.35401)"
         id="path1004" />
    </clipPath>
    <clipPath
       clipPathUnits="userSpaceOnUse"
       id="clipPath1006">
      <path
         d="M 0,0 H 595.276 V 841.89 H 0 Z"
         id="path1006" />
    </clipPath>
    <clipPath
       clipPathUnits="userSpaceOnUse"
       id="clipPath1008">
      <path
         d="M 0,0 H 595.276 V 841.89 H 0 Z"
         transform="translate(-141.47001,-653.96302)"
         id="path1008" />
    </clipPath>
    <clipPath
       clipPathUnits="userSpaceOnUse"
       id="clipPath1010">
      <path
         d="M 0,0 H 595.276 V 841.89 H 0 Z"
         id="path1010" />
    </clipPath>
    <clipPath
       clipPathUnits="userSpaceOnUse"
       id="clipPath1012">
      <path
         d="M 0,0 H 595.276 V 841.89 H 0 Z"
         transform="translate(-122.364,-682.30502)"
         id="path1012" />
    </clipPath>
    <clipPath
       clipPathUnits="userSpaceOnUse"
       id="clipPath1156">
      <path
         d="M 0,841.89 H 595.276 V 0 H 0 Z"
         transform="translate(-446.60801,-731.50002)"
         id="path1156" />
    </clipPath>
    <clipPath
       clipPathUnits="userSpaceOnUse"
       id="clipPath1158">
      <path
         d="M 0,841.89 H 595.276 V 0 H 0 Z"
         transform="translate(-339.44801,-725.76202)"
         id="path1158" />
    </clipPath>
    <clipPath
       clipPathUnits="userSpaceOnUse"
       id="clipPath1160">
      <path
         d="M 0,841.89 H 595.276 V 0 H 0 Z"
         id="path1160" />
    </clipPath>
    <clipPath
       clipPathUnits="userSpaceOnUse"
       id="clipPath1162">
      <path
         d="M 0,841.89 H 595.276 V 0 H 0 Z"
         transform="translate(-399.90201,-688.14002)"
         id="path1162" />
    </clipPath>
    <clipPath
       clipPathUnits="userSpaceOnUse"
       id="clipPath1166">
      <path
         d="M 0,841.89 H 595.276 V 0 H 0 Z"
         transform="translate(-168.13701,-485.24801)"
         id="path1166" />
    </clipPath>
    <clipPath
       clipPathUnits="userSpaceOnUse"
       id="clipPath1168">
      <path
         d="M 0,841.89 H 595.276 V 0 H 0 Z"
         transform="translate(-60.977702,-479.51001)"
         id="path1168" />
    </clipPath>
    <clipPath
       clipPathUnits="userSpaceOnUse"
       id="clipPath1170">
      <path
         d="M 0,841.89 H 595.276 V 0 H 0 Z"
         transform="translate(-138.622,-407.33201)"
         id="path1170" />
    </clipPath>
    <clipPath
       clipPathUnits="userSpaceOnUse"
       id="clipPath1007">
      <path
         d="M 0,841.89 H 595.276 V 0 H 0 Z"
         transform="translate(-166.752,-731.50002)"
         id="path1007" />
    </clipPath>
    <clipPath
       clipPathUnits="userSpaceOnUse"
       id="clipPath1009">
      <path
         d="M 0,841.89 H 595.276 V 0 H 0 Z"
         transform="translate(-59.592802,-725.76202)"
         id="path1009" />
    </clipPath>
    <clipPath
       clipPathUnits="userSpaceOnUse"
       id="clipPath1011">
      <path
         d="M 0,841.89 H 595.276 V 0 H 0 Z"
         id="path1011" />
    </clipPath>
    <clipPath
       clipPathUnits="userSpaceOnUse"
       id="clipPath1013">
      <path
         d="M 0,841.89 H 595.276 V 0 H 0 Z"
         transform="translate(-118.70601,-673.88102)"
         id="path1013" />
    </clipPath>
    <clipPath
       clipPathUnits="userSpaceOnUse"
       id="clipPath1015">
      <path
         d="M 0,841.89 H 595.276 V 0 H 0 Z"
         transform="translate(-123.664,-640.92401)"
         id="path1015" />
    </clipPath>
  </defs>
  <g
     inkscape:label="Layer 1"
     inkscape:groupmode="layer"
     id="layer1"
     transform="translate(-82.549999,-118.53333)">
    <g
       id="g4075"
       transform="matrix(0.26458333,0,0,0.26458333,65.313981,79.600425)">
      <path
         style="fill:#ffffff;stroke:#ffffff;stroke-width:0.877059"
         id="rect1"
         width="169.20169"
         height="225.89459"
         x="65.582489"
         y="147.58603"
         inkscape:path-effect="#path-effect1"
         sodipodi:type="rect"
         d="M 65.582489,147.58603 H 234.78418 V 373.48062 H 65.582489 Z" />
      <path
         id="path1006-8"
         d="m 0,0 h -107.833 c -5.417,0 -9.823,-4.346 -9.823,-9.691 v -150.697 c 0,-5.342 4.406,-9.691 9.823,-9.691 H 0 c 5.458,0 9.903,4.349 9.903,9.691 V -9.691 C 9.903,-4.346 5.458,0 0,0 m 0,-0.572 c 5.145,0 9.331,-4.091 9.331,-9.119 v -150.697 c 0,-5.027 -4.186,-9.118 -9.331,-9.118 h -107.833 c -5.101,0 -9.25,4.091 -9.25,9.118 V -9.691 c 0,5.028 4.149,9.119 9.25,9.119 L 0,-0.572"
         style="fill:#4467a5;fill-opacity:1;fill-rule:nonzero;stroke:none"
         transform="matrix(1.3333333,0,0,-1.3333333,222.01867,147.14732)"
         clip-path="url(#clipPath1007)" />
      <path
         id="path1008-8"
         d="m 0,0 c -2.552,0 -4.627,-2.08 -4.627,-4.636 v -149.335 c 0,-2.554 2.075,-4.633 4.627,-4.633 h 106.485 c 2.594,0 4.704,2.079 4.704,4.633 V -4.636 c 0,2.556 -2.11,4.636 -4.704,4.636 z"
         style="fill:#4467a5;fill-opacity:1;fill-rule:nonzero;stroke:none"
         transform="matrix(1.3333333,0,0,-1.3333333,79.139732,154.79798)"
         clip-path="url(#clipPath1009)" />
      <path
         id="path1010-2"
         d="M 147.317,612.019 H 78.435 v 68.882 h 68.882 z"
         style="fill:#ffffff;fill-opacity:1;fill-rule:nonzero;stroke:none"
         transform="matrix(1.3333333,0,0,-1.3333333,-0.31733471,1122.4807)"
         clip-path="url(#clipPath1011)" />
      <path
         id="path1012-4"
         d="M 0,0 C -1.225,0.157 -1.909,0.84 -2.785,1.332 -4.34,0.967 -5.438,1.557 -6.437,2.168 -7.027,1.144 -8.517,1.182 -9.916,1.332 c -0.586,-0.771 -1.733,-1.009 -2.612,-1.499 0.591,-0.615 1.3,-1.121 2.259,-1.386 h -0.002 v -0.704 -1.309 c -0.212,-0.409 -0.365,-0.857 -0.444,-1.335 -0.403,-2.45 1.264,-4.768 3.728,-5.167 2.465,-0.406 4.79,1.257 5.195,3.711 0.164,1.003 -0.019,1.985 -0.461,2.821 v 1.279 0.697 C -1.229,-1.302 -0.486,-0.773 0,0"
         style="fill:#000000;fill-opacity:1;fill-rule:nonzero;stroke:none"
         transform="matrix(1.3333333,0,0,-1.3333333,157.95734,223.97265)"
         clip-path="url(#clipPath1013)" />
      <path
         id="path1014"
         d="m 0,0 c 0,-1.53 -0.674,-2.301 -2.047,-2.301 -1.36,0 -2.047,0.771 -2.047,2.301 v 15.438 h -1.003 v -37.189 c 0,-1.529 -0.845,-2.3 -2.522,-2.3 -1.677,0 -2.508,0.771 -2.508,2.3 V 0.261 h -1.322 v -22.012 c 0,-1.529 -0.831,-2.3 -2.508,-2.3 -1.677,0 -2.522,0.771 -2.522,2.3 v 37.189 h -1.003 V 0 c 0,-1.53 -0.687,-2.301 -2.047,-2.301 -1.373,0 -2.047,0.771 -2.047,2.301 v 17.693 c 0,2.879 1.862,4.319 5.598,4.319 h 10.419 c 3.71,0 5.559,-1.44 5.559,-4.319 z"
         style="fill:#000000;fill-opacity:1;fill-rule:nonzero;stroke:none"
         transform="matrix(1.3333333,0,0,-1.3333333,164.568,267.91532)"
         clip-path="url(#clipPath1015)" />
      <path
         d="m 28.408203,55.599532 v -22.90625 h 7.421875 q 4.21875,0 5.5,0.34375 1.96875,0.515625 3.296875,2.25 1.328125,1.71875 1.328125,4.453125 0,2.109375 -0.765625,3.546875 -0.765625,1.4375 -1.953125,2.265625 -1.171875,0.8125 -2.390625,1.078125 -1.65625,0.328125 -4.796875,0.328125 h -3.015625 v 8.640625 z m 4.625,-19.03125 v 6.5 h 2.53125 q 2.734375,0 3.65625,-0.359375 0.921875,-0.359375 1.4375,-1.125 0.53125,-0.765625 0.53125,-1.78125 0,-1.25 -0.734375,-2.0625 -0.734375,-0.8125 -1.859375,-1.015625 -0.828125,-0.15625 -3.328125,-0.15625 z m 15.78125,7.71875 q 0,-3.5 1.046875,-5.875 0.78125,-1.75 2.125,-3.140625 1.359375,-1.390625 2.96875,-2.0625 2.140625,-0.90625 4.9375,-0.90625 5.0625,0 8.09375,3.140625 3.046875,3.140625 3.046875,8.734375 0,5.546875 -3.015625,8.6875 -3.015625,3.125 -8.0625,3.125 -5.109375,0 -8.125,-3.109375 -3.015625,-3.125 -3.015625,-8.59375 z m 4.765625,-0.15625 q 0,3.890625 1.796875,5.90625 1.796875,2 4.5625,2 2.765625,0 4.53125,-1.984375 1.78125,-2 1.78125,-5.984375 0,-3.9375 -1.734375,-5.875 -1.71875,-1.9375 -4.578125,-1.9375 -2.859375,0 -4.609375,1.96875 -1.75,1.953125 -1.75,5.90625 z m 21.1875,11.46875 v -22.71875 h 4.625 v 18.859375 h 11.5 v 3.859375 z m 19.28125,0 v -22.90625 h 4.625 v 22.90625 z m 23.687502,-8.421875 4.48437,1.421875 q -1.03125,3.75 -3.4375,5.578125 -2.39062,1.8125 -6.07812,1.8125 -4.5625,0 -7.5,-3.109375 -2.9375,-3.125 -2.9375,-8.53125 0,-5.71875 2.95312,-8.875 2.95313,-3.171875 7.76563,-3.171875 4.20312,0 6.82812,2.484375 1.5625,1.46875 2.34375,4.21875 l -4.57812,1.09375 q -0.40625,-1.78125 -1.70313,-2.8125 -1.28125,-1.03125 -3.125,-1.03125 -2.54687,0 -4.14062,1.828125 -1.57813,1.828125 -1.57813,5.921875 0,4.34375 1.5625,6.1875 1.5625,1.84375 4.0625,1.84375 1.84375,0 3.17188,-1.171875 1.32812,-1.171875 1.90625,-3.6875 z m 8.45312,8.421875 v -22.90625 h 16.98438 v 3.875 h -12.35938 v 5.078125 h 11.5 v 3.859375 h -11.5 v 6.234375 h 12.79688 v 3.859375 z"
         id="text1"
         style="font-weight:bold;font-size:32px;font-family:Arial;-inkscape-font-specification:'Arial, Bold';white-space:pre;fill:#ffffff;stroke:#ffffff"
         transform="translate(64.173568,138.80212)"
         aria-label="POLICE" />
      <path
         d="m 8.8066406,190.72258 4.5000004,-0.4375 q 0.40625,2.26562 1.640625,3.32812 1.25,1.0625 3.359375,1.0625 2.234375,0 3.359375,-0.9375 1.140625,-0.95312 1.140625,-2.21875 0,-0.8125 -0.484375,-1.375 -0.46875,-0.57812 -1.65625,-1 -0.8125,-0.28125 -3.703125,-1 -3.71875,-0.92187 -5.21875,-2.26562 -2.1093754,-1.89063 -2.1093754,-4.60938 0,-1.75 0.9843754,-3.26562 1,-1.53125 2.859375,-2.32813 1.875,-0.79687 4.515625,-0.79687 4.3125,0 6.484375,1.89062 2.1875,1.89063 2.296875,5.04688 l -4.625,0.20312 q -0.296875,-1.76562 -1.28125,-2.53125 -0.96875,-0.78125 -2.921875,-0.78125 -2.015625,0 -3.15625,0.82813 -0.734375,0.53125 -0.734375,1.42187 0,0.8125 0.6875,1.39063 0.875,0.73437 4.25,1.53125 3.375,0.79687 4.984375,1.65625 1.625,0.84375 2.53125,2.32812 0.921875,1.46875 0.921875,3.64063 0,1.96875 -1.09375,3.6875 -1.09375,1.71875 -3.09375,2.5625 -2,0.82812 -4.984375,0.82812 -4.34375,0 -6.671875,-2 -2.3281254,-2.01562 -2.7812504,-5.85937 z m 27.6718754,7.45312 v -19.03125 h -6.796875 v -3.875 h 18.203125 v 3.875 h -6.78125 v 19.03125 z m 32.671875,0 h -5.03125 l -2,-5.20312 h -9.15625 l -1.890625,5.20312 h -4.90625 l 8.921875,-22.90625 h 4.890625 z m -8.515625,-9.0625 -3.15625,-8.5 -3.09375,8.5 z m 13.75,9.0625 v -19.03125 h -6.796875 v -3.875 h 18.203125 v 3.875 h -6.78125 v 19.03125 z m 14.25,0 v -22.90625 h 4.625 v 22.90625 z m 8.09375,-11.3125 q 0,-3.5 1.046875,-5.875 0.78125,-1.75 2.125,-3.14062 1.359379,-1.39063 2.968749,-2.0625 2.14063,-0.90625 4.9375,-0.90625 5.0625,0 8.09375,3.14062 3.04688,3.14063 3.04688,8.73438 0,5.54687 -3.01563,8.6875 -3.01562,3.125 -8.0625,3.125 -5.10937,0 -8.124999,-3.10938 -3.015625,-3.125 -3.015625,-8.59375 z m 4.765624,-0.15625 q 0,3.89063 1.79688,5.90625 1.79687,2 4.5625,2 2.76562,0 4.53125,-1.98437 1.78125,-2 1.78125,-5.98438 0,-3.9375 -1.73438,-5.875 -1.71875,-1.9375 -4.57812,-1.9375 -2.85938,0 -4.60938,1.96875 -1.75,1.95313 -1.75,5.90625 z m 21.10938,11.46875 v -22.90625 h 4.5 l 9.375,15.29688 v -15.29688 h 4.29687 v 22.90625 h -4.64062 l -9.23438,-14.9375 v 14.9375 z"
         id="text2"
         style="font-weight:bold;font-size:32px;font-family:Arial;-inkscape-font-specification:'Arial, Bold';white-space:pre;fill:#ffffff;stroke:#ffffff"
         transform="translate(75.392318,150.62544)"
         aria-label="STATION" />
    </g>
  </g>
</svg>
