<?xml version="1.0" encoding="UTF-8" standalone="no"?>
<!-- Created with Inkscape (http://www.inkscape.org/) -->

<svg
   width="44.999977mm"
   height="59.999737mm"
   viewBox="0 0 44.999977 59.999737"
   version="1.1"
   id="svg1"
   inkscape:version="1.4 (86a8ad7, 2024-10-11)"
   sodipodi:docname="rail station.svg"
   xmlns:inkscape="http://www.inkscape.org/namespaces/inkscape"
   xmlns:sodipodi="http://sodipodi.sourceforge.net/DTD/sodipodi-0.dtd"
   xmlns="http://www.w3.org/2000/svg"
   xmlns:svg="http://www.w3.org/2000/svg">
  <sodipodi:namedview
     id="namedview1"
     pagecolor="#ffffff"
     bordercolor="#000000"
     borderopacity="0.25"
     inkscape:showpageshadow="2"
     inkscape:pageopacity="0.0"
     inkscape:pagecheckerboard="0"
     inkscape:deskcolor="#d1d1d1"
     inkscape:document-units="mm"
     inkscape:zoom="1.4378367"
     inkscape:cx="63.985013"
     inkscape:cy="113.7125"
     inkscape:window-width="1920"
     inkscape:window-height="1009"
     inkscape:window-x="-8"
     inkscape:window-y="-8"
     inkscape:window-maximized="1"
     inkscape:current-layer="g4075" />
  <defs
     id="defs1">
    <rect
       x="7.650382"
       y="169.35164"
       width="218.38363"
       height="59.464333"
       id="rect3" />
    <rect
       x="26.080848"
       y="26.776337"
       width="146.05275"
       height="37.556421"
       id="rect2" />
    <inkscape:path-effect
       effect="fillet_chamfer"
       id="path-effect1"
       is_visible="true"
       lpeversion="1"
       nodesatellites_param="F,0,0,1,0,0,0,1 @ F,0,0,1,0,0,0,1 @ F,0,0,1,0,0,0,1 @ F,0,0,1,0,0,0,1"
       radius="0"
       unit="px"
       method="auto"
       mode="F"
       chamfer_steps="1"
       flexible="false"
       use_knot_distance="true"
       apply_no_radius="true"
       apply_with_radius="true"
       only_selected="false"
       hide_knots="false" />
    <clipPath
       clipPathUnits="userSpaceOnUse"
       id="clipPath4010">
      <path
         d="M 0,841.89 H 595.276 V 0 H 0 Z"
         transform="translate(-166.51401,-731.52902)"
         id="path4010" />
    </clipPath>
    <clipPath
       clipPathUnits="userSpaceOnUse"
       id="clipPath4012">
      <path
         d="M 0,841.89 H 595.276 V 0 H 0 Z"
         transform="translate(-59.355001,-725.79102)"
         id="path4012" />
    </clipPath>
    <clipPath
       clipPathUnits="userSpaceOnUse"
       id="clipPath4014">
      <path
         d="M 0,841.89 H 595.276 V 0 H 0 Z"
         id="path4014" />
    </clipPath>
    <clipPath
       clipPathUnits="userSpaceOnUse"
       id="clipPath4016">
      <path
         d="M 0,841.89 H 595.276 V 0 H 0 Z"
         transform="translate(-132.939,-632.53702)"
         id="path4016" />
    </clipPath>
    <clipPath
       clipPathUnits="userSpaceOnUse"
       id="clipPath4018">
      <path
         d="M 0,841.89 H 595.276 V 0 H 0 Z"
         transform="translate(-446.64601,-731.52902)"
         id="path4018" />
    </clipPath>
    <clipPath
       clipPathUnits="userSpaceOnUse"
       id="clipPath4020">
      <path
         d="M 0,841.89 H 595.276 V 0 H 0 Z"
         transform="translate(-339.48701,-725.79102)"
         id="path4020" />
    </clipPath>
    <clipPath
       clipPathUnits="userSpaceOnUse"
       id="clipPath4022">
      <path
         d="M 0,841.89 H 595.276 V 0 H 0 Z"
         id="path4022" />
    </clipPath>
    <clipPath
       clipPathUnits="userSpaceOnUse"
       id="clipPath4024">
      <path
         d="M 0,841.89 H 595.276 V 0 H 0 Z"
         transform="translate(-409.44701,-659.97202)"
         id="path4024" />
    </clipPath>
    <clipPath
       clipPathUnits="userSpaceOnUse"
       id="clipPath1000">
      <path
         d="M 0,0 H 595.276 V 841.89 H 0 Z"
         transform="translate(-166.51401,-731.47102)"
         id="path1000" />
    </clipPath>
    <clipPath
       clipPathUnits="userSpaceOnUse"
       id="clipPath1002">
      <path
         d="M 0,0 H 595.276 V 841.89 H 0 Z"
         transform="translate(-59.354602,-725.73102)"
         id="path1002" />
    </clipPath>
    <clipPath
       clipPathUnits="userSpaceOnUse"
       id="clipPath1004">
      <path
         d="M 0,0 H 595.276 V 841.89 H 0 Z"
         transform="translate(-94.148605,-610.35401)"
         id="path1004" />
    </clipPath>
    <clipPath
       clipPathUnits="userSpaceOnUse"
       id="clipPath1006">
      <path
         d="M 0,0 H 595.276 V 841.89 H 0 Z"
         id="path1006" />
    </clipPath>
    <clipPath
       clipPathUnits="userSpaceOnUse"
       id="clipPath1008">
      <path
         d="M 0,0 H 595.276 V 841.89 H 0 Z"
         transform="translate(-141.47001,-653.96302)"
         id="path1008" />
    </clipPath>
    <clipPath
       clipPathUnits="userSpaceOnUse"
       id="clipPath1010">
      <path
         d="M 0,0 H 595.276 V 841.89 H 0 Z"
         id="path1010" />
    </clipPath>
    <clipPath
       clipPathUnits="userSpaceOnUse"
       id="clipPath1012">
      <path
         d="M 0,0 H 595.276 V 841.89 H 0 Z"
         transform="translate(-122.364,-682.30502)"
         id="path1012" />
    </clipPath>
    <clipPath
       clipPathUnits="userSpaceOnUse"
       id="clipPath1156">
      <path
         d="M 0,841.89 H 595.276 V 0 H 0 Z"
         transform="translate(-446.60801,-731.50002)"
         id="path1156" />
    </clipPath>
    <clipPath
       clipPathUnits="userSpaceOnUse"
       id="clipPath1158">
      <path
         d="M 0,841.89 H 595.276 V 0 H 0 Z"
         transform="translate(-339.44801,-725.76202)"
         id="path1158" />
    </clipPath>
    <clipPath
       clipPathUnits="userSpaceOnUse"
       id="clipPath1160">
      <path
         d="M 0,841.89 H 595.276 V 0 H 0 Z"
         id="path1160" />
    </clipPath>
    <clipPath
       clipPathUnits="userSpaceOnUse"
       id="clipPath1162">
      <path
         d="M 0,841.89 H 595.276 V 0 H 0 Z"
         transform="translate(-399.90201,-688.14002)"
         id="path1162" />
    </clipPath>
    <clipPath
       clipPathUnits="userSpaceOnUse"
       id="clipPath1166">
      <path
         d="M 0,841.89 H 595.276 V 0 H 0 Z"
         transform="translate(-168.13701,-485.24801)"
         id="path1166" />
    </clipPath>
    <clipPath
       clipPathUnits="userSpaceOnUse"
       id="clipPath1168">
      <path
         d="M 0,841.89 H 595.276 V 0 H 0 Z"
         transform="translate(-60.977702,-479.51001)"
         id="path1168" />
    </clipPath>
    <clipPath
       clipPathUnits="userSpaceOnUse"
       id="clipPath1170">
      <path
         d="M 0,841.89 H 595.276 V 0 H 0 Z"
         transform="translate(-138.622,-407.33201)"
         id="path1170" />
    </clipPath>
    <clipPath
       clipPathUnits="userSpaceOnUse"
       id="clipPath1007">
      <path
         d="M 0,841.89 H 595.276 V 0 H 0 Z"
         transform="translate(-166.752,-731.50002)"
         id="path1007" />
    </clipPath>
    <clipPath
       clipPathUnits="userSpaceOnUse"
       id="clipPath1009">
      <path
         d="M 0,841.89 H 595.276 V 0 H 0 Z"
         transform="translate(-59.592802,-725.76202)"
         id="path1009" />
    </clipPath>
    <clipPath
       clipPathUnits="userSpaceOnUse"
       id="clipPath1011">
      <path
         d="M 0,841.89 H 595.276 V 0 H 0 Z"
         id="path1011" />
    </clipPath>
    <clipPath
       clipPathUnits="userSpaceOnUse"
       id="clipPath1013">
      <path
         d="M 0,841.89 H 595.276 V 0 H 0 Z"
         transform="translate(-118.70601,-673.88102)"
         id="path1013" />
    </clipPath>
    <clipPath
       clipPathUnits="userSpaceOnUse"
       id="clipPath1015">
      <path
         d="M 0,841.89 H 595.276 V 0 H 0 Z"
         transform="translate(-123.664,-640.92401)"
         id="path1015" />
    </clipPath>
    <clipPath
       clipPathUnits="userSpaceOnUse"
       id="clipPath1023">
      <path
         d="M 0,841.89 H 595.276 V 0 H 0 Z"
         transform="translate(-375.64601,-621.74402)"
         id="path1023" />
    </clipPath>
    <clipPath
       clipPathUnits="userSpaceOnUse"
       id="clipPath1029">
      <path
         d="M 0,841.89 H 595.276 V 0 H 0 Z"
         id="path1029" />
    </clipPath>
    <clipPath
       clipPathUnits="userSpaceOnUse"
       id="clipPath1031">
      <path
         d="m 86.891,371.984 h 51.97 v 51.969 h -51.97 z"
         transform="translate(-108.942,-390.79301)"
         id="path1031" />
    </clipPath>
    <clipPath
       clipPathUnits="userSpaceOnUse"
       id="clipPath1033">
      <path
         d="m 86.891,371.984 h 51.97 v 51.969 h -51.97 z"
         transform="translate(-148.42401,-407.59701)"
         id="path1033" />
    </clipPath>
    <clipPath
       clipPathUnits="userSpaceOnUse"
       id="clipPath1035">
      <path
         d="m 86.891,371.984 h 51.97 v 51.969 h -51.97 z"
         transform="translate(-116.1,-390.48901)"
         id="path1035" />
    </clipPath>
    <clipPath
       clipPathUnits="userSpaceOnUse"
       id="clipPath1037">
      <path
         d="m 86.891,371.984 h 51.97 v 51.969 h -51.97 z"
         transform="translate(-118.399,-396.10401)"
         id="path1037" />
    </clipPath>
    <clipPath
       clipPathUnits="userSpaceOnUse"
       id="clipPath1039">
      <path
         d="m 86.891,371.984 h 51.97 v 51.969 h -51.97 z"
         transform="translate(-100.858,-408.56701)"
         id="path1039" />
    </clipPath>
    <clipPath
       clipPathUnits="userSpaceOnUse"
       id="clipPath1041">
      <path
         d="m 86.891,371.984 h 51.97 v 51.969 h -51.97 z"
         transform="translate(-116.412,-406.55201)"
         id="path1041" />
    </clipPath>
    <clipPath
       clipPathUnits="userSpaceOnUse"
       id="clipPath1043">
      <path
         d="m 86.891,371.984 h 51.97 v 51.969 h -51.97 z"
         transform="translate(-116.1,-393.12401)"
         id="path1043" />
    </clipPath>
    <clipPath
       clipPathUnits="userSpaceOnUse"
       id="clipPath1045">
      <path
         d="m 86.891,371.984 h 51.97 v 51.969 h -51.97 z"
         transform="translate(-103.10001,-393.12401)"
         id="path1045" />
    </clipPath>
    <clipPath
       clipPathUnits="userSpaceOnUse"
       id="clipPath1047">
      <path
         d="m 86.891,371.984 h 51.97 v 51.969 h -51.97 z"
         transform="translate(-100.852,-408.39101)"
         id="path1047" />
    </clipPath>
    <clipPath
       clipPathUnits="userSpaceOnUse"
       id="clipPath1049">
      <path
         d="m 86.891,371.984 h 51.97 v 51.969 h -51.97 z"
         transform="translate(-148.318,-416.40201)"
         id="path1049" />
    </clipPath>
    <clipPath
       clipPathUnits="userSpaceOnUse"
       id="clipPath1051">
      <path
         d="m 86.891,371.984 h 51.97 v 51.969 h -51.97 z"
         transform="translate(-127.252,-404.72201)"
         id="path1051" />
    </clipPath>
    <clipPath
       clipPathUnits="userSpaceOnUse"
       id="clipPath1053">
      <path
         d="m 86.891,371.984 h 51.97 v 51.969 h -51.97 z"
         transform="translate(-135.25401,-409.57201)"
         id="path1053" />
    </clipPath>
    <clipPath
       clipPathUnits="userSpaceOnUse"
       id="clipPath1055">
      <path
         d="m 86.891,371.984 h 51.97 v 51.969 h -51.97 z"
         transform="translate(-136.5,-413.83301)"
         id="path1055" />
    </clipPath>
    <clipPath
       clipPathUnits="userSpaceOnUse"
       id="clipPath1057">
      <path
         d="m 86.891,371.984 h 51.97 v 51.969 h -51.97 z"
         transform="translate(-140.895,-412.77601)"
         id="path1057" />
    </clipPath>
    <clipPath
       clipPathUnits="userSpaceOnUse"
       id="clipPath1059">
      <path
         d="m 86.891,371.984 h 51.97 v 51.969 h -51.97 z"
         transform="translate(-106.993,-409.35601)"
         id="path1059" />
    </clipPath>
  </defs>
  <g
     inkscape:label="Layer 1"
     inkscape:groupmode="layer"
     id="layer1"
     transform="translate(-82.549999,-118.53333)">
    <g
       id="g4075"
       transform="matrix(0.26458333,0,0,0.26458333,65.313981,79.600425)">
      <g
         id="g3">
        <path
           style="fill:#ffffff;stroke:#ffffff;stroke-width:0.877059"
           id="rect1"
           width="169.20169"
           height="225.89459"
           x="65.582489"
           y="147.58603"
           inkscape:path-effect="#path-effect1"
           sodipodi:type="rect"
           d="M 65.582489,147.58603 H 234.78418 V 373.48062 H 65.582489 Z" />
        <path
           id="path1006-8"
           d="m 0,0 h -107.833 c -5.417,0 -9.823,-4.346 -9.823,-9.691 v -150.697 c 0,-5.342 4.406,-9.691 9.823,-9.691 H 0 c 5.458,0 9.903,4.349 9.903,9.691 V -9.691 C 9.903,-4.346 5.458,0 0,0 m 0,-0.572 c 5.145,0 9.331,-4.091 9.331,-9.119 v -150.697 c 0,-5.027 -4.186,-9.118 -9.331,-9.118 h -107.833 c -5.101,0 -9.25,4.091 -9.25,9.118 V -9.691 c 0,5.028 4.149,9.119 9.25,9.119 L 0,-0.572"
           style="fill:#4467a5;fill-opacity:1;fill-rule:nonzero;stroke:none"
           transform="matrix(1.3333333,0,0,-1.3333333,222.01867,147.14732)"
           clip-path="url(#clipPath1007)" />
        <path
           id="path1008-8"
           d="m 0,0 c -2.552,0 -4.627,-2.08 -4.627,-4.636 v -149.335 c 0,-2.554 2.075,-4.633 4.627,-4.633 h 106.485 c 2.594,0 4.704,2.079 4.704,4.633 V -4.636 c 0,2.556 -2.11,4.636 -4.704,4.636 z"
           style="fill:#4467a5;fill-opacity:1;fill-rule:nonzero;stroke:none"
           transform="matrix(1.3333333,0,0,-1.3333333,79.139732,154.79798)"
           clip-path="url(#clipPath1009)" />
        <path
           id="path1028"
           d="M 147.317,363.528 H 78.435 v 68.882 h 68.882 z"
           style="fill:#ffffff;fill-opacity:1;fill-rule:nonzero;stroke:none"
           transform="matrix(1.3333333,0,0,-1.3333333,-0.31799581,791.15864)"
           clip-path="url(#clipPath1029)" />
        <path
           id="path1030"
           d="m 0,0 -1.104,0.334 -1.109,-0.634 1.25,-0.379 -0.498,-0.354 -1.321,0.4 -1.393,-0.818 1.504,-0.456 -0.624,-0.452 -1.593,0.483 -1.63,-1.003 1.799,-0.547 -0.652,-0.498 -1.9,0.577 -1.969,-1.261 2.14,-0.654 -0.821,-0.663 -2.279,0.696 -2.133,-1.433 2.539,-0.778 -1.099,-0.921 -2.705,0.831 -2.65,-1.877 3.037,-0.935 -1.738,-1.544 -3.298,1.019 -3.804,-2.898 3.778,-1.173 -2.908,-2.806 2.69,-0.122 2.315,2.368 10.642,-1.86 -0.75,-1.062 2.225,-0.101 0.662,0.985 3.981,-0.156 1.644,3.057 -3.46,0.213 1.137,1.583 3.196,-0.234 1.157,2.03 -2.849,0.252 0.716,0.955 2.678,-0.257 0.938,1.58 -2.395,0.259 0.535,0.693 2.272,-0.258 0.855,1.416 -2.007,0.252 0.421,0.525 1.917,-0.248 0.712,1.143 -1.696,0.235 0.406,0.483 1.593,-0.227 0.603,0.949 -1.411,0.213 0.328,0.379 1.339,-0.207 0.478,0.744 -1.189,0.192 0.329,0.371 -8.333,1.944 z M 1.176,-0.339 1.655,0.012 7.484,-1.356 7.133,-1.727 Z m -1.391,-1.051 0.479,0.362 6.21,-1.427 -0.353,-0.38 z m -1.743,-1.349 0.59,0.463 6.655,-1.495 -0.426,-0.485 z m -1.969,-1.59 0.617,0.509 7.185,-1.566 -0.458,-0.526 z m -2.425,-2.029 0.789,0.671 7.79,-1.637 -0.583,-0.696 z m -2.822,-2.473 1.05,0.933 8.48,-1.711 -0.763,-0.959 z m -3.849,-3.571 1.653,1.558 9.356,-1.785 -1.206,-1.59 z"
           style="fill:#000000;fill-opacity:1;fill-rule:nonzero;stroke:none"
           transform="matrix(1.3333333,0,0,-1.3333333,144.938,270.10131)"
           clip-path="url(#clipPath1031)" />
        <path
           id="path1032"
           d="m 0,0 c -8.952,0.491 -29.752,-19.086 -30.4,-19.691 0.198,0.501 0.376,4.171 0.376,8.198 v 4.067 c 0,4.048 -0.387,8.482 -0.858,8.691 0,0 21.762,8.763 30.776,7.54 0.043,0 0.073,-0.011 0.106,-0.011 z"
           style="fill:#000000;fill-opacity:1;fill-rule:nonzero;stroke:none"
           transform="matrix(1.3333333,0,0,-1.3333333,197.58067,247.69597)"
           clip-path="url(#clipPath1033)" />
        <path
           id="path1034"
           d="M 0,0 C 0.731,0 1.317,0.596 1.317,1.316 1.317,2.038 0.731,2.635 0,2.635 -0.733,2.635 -1.317,2.038 -1.317,1.316 -1.317,0.596 -0.733,0 0,0 m -12.31,16.856 c -0.742,0 -1.338,-0.354 -1.338,-0.794 V 7.361 c 0,-0.439 0.596,-0.795 1.338,-0.795 h 11.285 c 0.741,0 1.337,0.356 1.337,0.795 v 8.701 c 0,0.44 -0.596,0.794 -1.337,0.794 z M -14.317,1.316 C -14.317,0.596 -13.731,0 -13,0 c 0.722,0 1.318,0.596 1.318,1.316 0,0.722 -0.596,1.319 -1.318,1.319 -0.731,0 -1.317,-0.597 -1.317,-1.319 m -0.461,-4.391 c -0.47,0.22 -0.857,4.643 -0.857,8.69 v 4.068 c 0,4.047 0.178,7.749 0.387,8.219 0,0 0.564,0.168 1.579,0.461 1.663,0.23 4.413,0.398 7.007,0.398 3.984,0 7.634,-0.179 8.104,-0.388 L 1.914,-2.594 C 1.82,-2.813 0.815,-3.013 -0.617,-3.169 l -1.977,-0.157 c -1.277,-0.084 -2.698,-0.126 -4.068,-0.126 -1.474,0 -2.908,0.021 -4.142,0.063 l -2.038,0.094 c -1.036,0.063 -1.747,0.137 -1.936,0.22"
           style="fill:#000000;fill-opacity:1;fill-rule:nonzero;stroke:none"
           transform="matrix(1.3333333,0,0,-1.3333333,154.482,270.50664)"
           clip-path="url(#clipPath1035)" />
        <path
           id="path1036"
           d="m 0,0 c 0,-4.026 -0.178,-7.697 -0.376,-8.199 l -0.01,-0.01 -0.472,20.967 C -0.386,12.549 0,8.115 0,4.067 Z"
           style="fill:#000000;fill-opacity:1;fill-rule:nonzero;stroke:none"
           transform="matrix(1.3333333,0,0,-1.3333333,157.54733,263.01997)"
           clip-path="url(#clipPath1037)" />
        <path
           id="path1038"
           d="m 0,0 c 1.077,0.304 4.195,1.164 6.141,1.687 l 0.1,0.027 0.048,-0.093 C 6.494,1.232 6.908,0.98 7.346,0.98 c 0.488,0 0.936,0.307 1.112,0.763 L 8.584,2.069 8.703,1.74 c 0.164,-0.455 0.608,-0.76 1.1,-0.76 0.655,0 1.186,0.529 1.186,1.177 0,0.223 -0.061,0.437 -0.177,0.619 l -0.097,0.152 0.173,0.046 C 22.041,5.909 36.877,9.41 44.22,9.41 c 1.424,0 2.535,-0.133 3.302,-0.394 L 47.613,8.984 47.588,7.686 47.442,7.705 c -0.567,0.077 -1.206,0.116 -1.9,0.116 -9.705,0 -28.62,-7.571 -28.809,-7.647 -0.502,0.18 -3.905,0.378 -8.153,0.378 -1.785,0 -4.654,-0.272 -8.527,-0.807 z"
           style="fill:#000000;fill-opacity:1;fill-rule:nonzero;stroke:none"
           transform="matrix(1.3333333,0,0,-1.3333333,134.15933,246.40264)"
           clip-path="url(#clipPath1039)" />
        <path
           id="path1040"
           d="m 0,0 v -8.701 c 0,-0.44 -0.597,-0.795 -1.338,-0.795 h -11.284 c -0.742,0 -1.338,0.355 -1.338,0.795 V 0 c 0,0.438 0.596,0.794 1.338,0.794 H -1.338 C -0.597,0.794 0,0.438 0,0"
           style="fill:#ffffff;fill-opacity:1;fill-rule:nonzero;stroke:none"
           transform="matrix(1.3333333,0,0,-1.3333333,154.898,249.08931)"
           clip-path="url(#clipPath1041)" />
        <path
           id="path1042"
           d="m 0,0 c 0.731,0 1.317,-0.597 1.317,-1.318 0,-0.721 -0.586,-1.318 -1.317,-1.318 -0.733,0 -1.317,0.597 -1.317,1.318 C -1.317,-0.597 -0.733,0 0,0"
           style="fill:#ffffff;fill-opacity:1;fill-rule:nonzero;stroke:none"
           transform="matrix(1.3333333,0,0,-1.3333333,154.482,266.99331)"
           clip-path="url(#clipPath1043)" />
        <path
           id="path1044"
           d="m 0,0 c 0.721,0 1.317,-0.597 1.317,-1.318 0,-0.721 -0.596,-1.318 -1.317,-1.318 -0.732,0 -1.318,0.597 -1.318,1.318 C -1.318,-0.597 -0.732,0 0,0"
           style="fill:#ffffff;fill-opacity:1;fill-rule:nonzero;stroke:none"
           transform="matrix(1.3333333,0,0,-1.3333333,137.14867,266.99331)"
           clip-path="url(#clipPath1045)" />
        <path
           id="path1046"
           d="M 0,0 C 0.073,0.167 0.669,0.324 1.579,0.461 0.564,0.167 0,0 0,0"
           style="fill:#231f20;fill-opacity:1;fill-rule:nonzero;stroke:none"
           transform="matrix(1.3333333,0,0,-1.3333333,134.15133,246.63731)"
           clip-path="url(#clipPath1047)" />
        <path
           id="path1048"
           d="m 0,0 c 0.043,0 0.074,-0.01 0.106,-0.01 v -8.795 c -8.952,0.492 -29.753,-19.086 -30.4,-19.692 l -0.011,-0.01 -0.471,20.967 c 0,0 21.762,8.764 30.776,7.54 z"
           style="fill:none;stroke:#000000;stroke-width:0.261;stroke-linecap:butt;stroke-linejoin:miter;stroke-miterlimit:4;stroke-dasharray:none;stroke-opacity:1"
           transform="matrix(1.3333333,0,0,-1.3333333,197.43933,235.95597)"
           clip-path="url(#clipPath1049)" />
        <path
           id="path1050"
           d="m 0,0 -7.338,-5.408 v 7.916 l 7.144,2.896 z"
           style="fill:#ffffff;fill-opacity:1;fill-rule:nonzero;stroke:#000000;stroke-width:0.261;stroke-linecap:butt;stroke-linejoin:miter;stroke-miterlimit:4;stroke-dasharray:none;stroke-opacity:1.0"
           transform="matrix(1.3333333,0,0,-1.3333333,169.35133,251.52931)"
           clip-path="url(#clipPath1051)" />
        <path
           id="path1052"
           d="M 0,0 -5.911,-3.762 -5.727,1.7 -0.208,3.625 Z"
           style="fill:#ffffff;fill-opacity:1;fill-rule:nonzero;stroke:#000000;stroke-width:0.261;stroke-linecap:butt;stroke-linejoin:miter;stroke-miterlimit:4;stroke-dasharray:none;stroke-opacity:1.0"
           transform="matrix(1.3333333,0,0,-1.3333333,180.02067,245.06264)"
           clip-path="url(#clipPath1053)" />
        <path
           id="path1054"
           d="m 0,0 0.188,-3.676 2.173,1.353 v 2.957 z"
           style="fill:#ffffff;fill-opacity:1;fill-rule:nonzero;stroke:none"
           transform="matrix(1.3333333,0,0,-1.3333333,181.682,239.38131)"
           clip-path="url(#clipPath1055)" />
        <path
           id="path1056"
           d="m 0,0 -4.208,-2.619 -0.188,3.675 4.271,1.147 z"
           style="fill:none;stroke:#000000;stroke-width:0.261;stroke-linecap:butt;stroke-linejoin:miter;stroke-miterlimit:4;stroke-dasharray:none;stroke-opacity:1.0"
           transform="matrix(1.3333333,0,0,-1.3333333,187.542,240.79064)"
           clip-path="url(#clipPath1057)" />
        <path
           id="path1058"
           d="m 0,0 c 0,0 -0.329,2.391 -0.197,2.955 -0.033,0.006 30.416,4.937 32.065,5.147 1.65,0.21 1.623,-0.536 1.623,-0.536 L 14.805,3.422 6.021,0.395 3.224,-0.526 Z"
           style="fill:#000000;fill-opacity:1;fill-rule:nonzero;stroke:none"
           transform="matrix(1.3333333,0,0,-1.3333333,142.33933,245.35064)"
           clip-path="url(#clipPath1059)" />
      </g>
    </g>
  </g>
</svg>
