<?xml version="1.0" encoding="UTF-8" standalone="no"?>
<!-- Created with Inkscape (http://www.inkscape.org/) -->

<svg
   width="72.223045mm"
   height="39.206661mm"
   viewBox="0 0 72.223045 39.206661"
   version="1.1"
   id="svg1"
   inkscape:version="1.4 (86a8ad7, 2024-10-11)"
   sodipodi:docname="rest and service area (b).svg"
   xmlns:inkscape="http://www.inkscape.org/namespaces/inkscape"
   xmlns:sodipodi="http://sodipodi.sourceforge.net/DTD/sodipodi-0.dtd"
   xmlns="http://www.w3.org/2000/svg"
   xmlns:svg="http://www.w3.org/2000/svg">
  <sodipodi:namedview
     id="namedview1"
     pagecolor="#ffffff"
     bordercolor="#000000"
     borderopacity="0.25"
     inkscape:showpageshadow="2"
     inkscape:pageopacity="0.0"
     inkscape:pagecheckerboard="0"
     inkscape:deskcolor="#d1d1d1"
     inkscape:document-units="mm"
     inkscape:zoom="2.0334082"
     inkscape:cx="101.55364"
     inkscape:cy="81.390447"
     inkscape:window-width="1920"
     inkscape:window-height="1009"
     inkscape:window-x="-8"
     inkscape:window-y="-8"
     inkscape:window-maximized="1"
     inkscape:current-layer="layer1" />
  <defs
     id="defs1">
    <clipPath
       clipPathUnits="userSpaceOnUse"
       id="clipPath1">
      <path
         d="m 95.271,323.295 h 13.256 v 11.153 H 95.271 Z"
         transform="matrix(0,-0.07543469,-0.08966278,0,29.987538,8.1867612)"
         id="path1" />
    </clipPath>
    <clipPath
       clipPathUnits="userSpaceOnUse"
       id="clipPath3">
      <path
         d="M 0,841.89 H 595.276 V 0 H 0 Z"
         transform="translate(-242.11201,-309.11701)"
         id="path3" />
    </clipPath>
    <clipPath
       clipPathUnits="userSpaceOnUse"
       id="clipPath5">
      <path
         d="M 0,841.89 H 595.276 V 0 H 0 Z"
         transform="translate(-54.317401,-440.81701)"
         id="path5" />
    </clipPath>
    <clipPath
       clipPathUnits="userSpaceOnUse"
       id="clipPath7">
      <path
         d="M 0,841.89 H 595.276 V 0 H 0 Z"
         transform="translate(-61.911602,-429.03901)"
         id="path7" />
    </clipPath>
    <clipPath
       clipPathUnits="userSpaceOnUse"
       id="clipPath9">
      <path
         d="M 0,841.89 H 595.276 V 0 H 0 Z"
         transform="translate(-69.937502,-423.29501)"
         id="path9" />
    </clipPath>
    <clipPath
       clipPathUnits="userSpaceOnUse"
       id="clipPath11">
      <path
         d="M 0,841.89 H 595.276 V 0 H 0 Z"
         transform="translate(-78.703599,-426.53401)"
         id="path11" />
    </clipPath>
    <clipPath
       clipPathUnits="userSpaceOnUse"
       id="clipPath13">
      <path
         d="M 0,841.89 H 595.276 V 0 H 0 Z"
         transform="translate(-90.729002,-423.29501)"
         id="path13" />
    </clipPath>
    <clipPath
       clipPathUnits="userSpaceOnUse"
       id="clipPath15">
      <path
         d="M 0,841.89 H 595.276 V 0 H 0 Z"
         transform="translate(-105.606,-427.23301)"
         id="path15" />
    </clipPath>
    <clipPath
       clipPathUnits="userSpaceOnUse"
       id="clipPath17">
      <path
         d="M 0,841.89 H 595.276 V 0 H 0 Z"
         transform="translate(-110.394,-423.29501)"
         id="path17" />
    </clipPath>
    <clipPath
       clipPathUnits="userSpaceOnUse"
       id="clipPath19">
      <path
         d="M 0,841.89 H 595.276 V 0 H 0 Z"
         transform="translate(-122.419,-431.56501)"
         id="path19" />
    </clipPath>
    <clipPath
       clipPathUnits="userSpaceOnUse"
       id="clipPath21">
      <path
         d="M 0,841.89 H 595.276 V 0 H 0 Z"
         transform="translate(-133.813,-426.53401)"
         id="path21" />
    </clipPath>
    <clipPath
       clipPathUnits="userSpaceOnUse"
       id="clipPath23">
      <path
         d="M 0,841.89 H 595.276 V 0 H 0 Z"
         transform="translate(-143.59701,-423.29501)"
         id="path23" />
    </clipPath>
    <clipPath
       clipPathUnits="userSpaceOnUse"
       id="clipPath25">
      <path
         d="M 0,841.89 H 595.276 V 0 H 0 Z"
         transform="translate(-154.88901,-429.03901)"
         id="path25" />
    </clipPath>
    <clipPath
       clipPathUnits="userSpaceOnUse"
       id="clipPath27">
      <path
         d="M 0,841.89 H 595.276 V 0 H 0 Z"
         transform="translate(-165.204,-423.29501)"
         id="path27" />
    </clipPath>
    <clipPath
       clipPathUnits="userSpaceOnUse"
       id="clipPath29">
      <path
         d="M 0,841.89 H 595.276 V 0 H 0 Z"
         id="path29" />
    </clipPath>
    <clipPath
       clipPathUnits="userSpaceOnUse"
       id="clipPath31">
      <path
         d="M 0,841.89 H 595.276 V 0 H 0 Z"
         transform="translate(-182.172,-426.95501)"
         id="path31" />
    </clipPath>
    <clipPath
       clipPathUnits="userSpaceOnUse"
       id="clipPath33">
      <path
         d="M 0,841.89 H 595.276 V 0 H 0 Z"
         transform="translate(-185.84601,-423.29501)"
         id="path33" />
    </clipPath>
    <clipPath
       clipPathUnits="userSpaceOnUse"
       id="clipPath35">
      <path
         d="M 0,841.89 H 595.276 V 0 H 0 Z"
         transform="translate(-203.74501,-427.23301)"
         id="path35" />
    </clipPath>
    <clipPath
       clipPathUnits="userSpaceOnUse"
       id="clipPath37">
      <path
         d="M 0,841.89 H 595.276 V 0 H 0 Z"
         transform="translate(-210.529,-429.03901)"
         id="path37" />
    </clipPath>
    <clipPath
       clipPathUnits="userSpaceOnUse"
       id="clipPath39">
      <path
         d="M 0,841.89 H 595.276 V 0 H 0 Z"
         transform="translate(-218.554,-423.29501)"
         id="path39" />
    </clipPath>
    <clipPath
       clipPathUnits="userSpaceOnUse"
       id="clipPath41">
      <path
         d="M 0,841.89 H 595.276 V 0 H 0 Z"
         transform="translate(-233.10601,-427.23301)"
         id="path41" />
    </clipPath>
    <clipPath
       clipPathUnits="userSpaceOnUse"
       id="clipPath43">
      <path
         d="M 0,841.89 H 595.276 V 0 H 0 Z"
         transform="translate(-72.507802,-328.05501)"
         id="path43" />
    </clipPath>
    <clipPath
       clipPathUnits="userSpaceOnUse"
       id="clipPath45">
      <path
         d="M 0,841.89 H 595.276 V 0 H 0 Z"
         transform="translate(-85.2886,-334.89701)"
         id="path45" />
    </clipPath>
    <clipPath
       clipPathUnits="userSpaceOnUse"
       id="clipPath47">
      <path
         d="M 0,841.89 H 595.276 V 0 H 0 Z"
         transform="translate(-94.3306,-334.89701)"
         id="path47" />
    </clipPath>
    <clipPath
       clipPathUnits="userSpaceOnUse"
       id="clipPath49">
      <path
         d="M 0,841.89 H 595.276 V 0 H 0 Z"
         transform="translate(-99.911102,-333.49201)"
         id="path49" />
    </clipPath>
    <clipPath
       clipPathUnits="userSpaceOnUse"
       id="clipPath51">
      <path
         d="M 0,841.89 H 595.276 V 0 H 0 Z"
         transform="translate(-74.388202,-368.00101)"
         id="path51" />
    </clipPath>
    <clipPath
       clipPathUnits="userSpaceOnUse"
       id="clipPath53">
      <path
         d="M 0,841.89 H 595.276 V 0 H 0 Z"
         transform="translate(-230.98,-363.20401)"
         id="path53" />
    </clipPath>
    <clipPath
       clipPathUnits="userSpaceOnUse"
       id="clipPath55">
      <path
         d="M 0,841.89 H 595.276 V 0 H 0 Z"
         transform="translate(-203.13301,-361.71301)"
         id="path55" />
    </clipPath>
    <clipPath
       clipPathUnits="userSpaceOnUse"
       id="clipPath57">
      <path
         d="M 0,841.89 H 595.276 V 0 H 0 Z"
         id="path57" />
    </clipPath>
    <clipPath
       clipPathUnits="userSpaceOnUse"
       id="clipPath59">
      <path
         d="M 0,841.89 H 595.276 V 0 H 0 Z"
         transform="translate(-222.25401,-337.48001)"
         id="path59" />
    </clipPath>
    <clipPath
       clipPathUnits="userSpaceOnUse"
       id="clipPath61">
      <path
         d="M 0,841.89 H 595.276 V 0 H 0 Z"
         transform="translate(-209.28801,-330.64401)"
         id="path61" />
    </clipPath>
    <clipPath
       clipPathUnits="userSpaceOnUse"
       id="clipPath63">
      <path
         d="M 0,841.89 H 595.276 V 0 H 0 Z"
         transform="translate(-213.65901,-328.13101)"
         id="path63" />
    </clipPath>
    <clipPath
       clipPathUnits="userSpaceOnUse"
       id="clipPath65">
      <path
         d="M 0,841.89 H 595.276 V 0 H 0 Z"
         transform="translate(-217.37901,-328.13101)"
         id="path65" />
    </clipPath>
    <clipPath
       clipPathUnits="userSpaceOnUse"
       id="clipPath67">
      <path
         d="M 0,841.89 H 595.276 V 0 H 0 Z"
         transform="translate(-220.114,-329.25001)"
         id="path67" />
    </clipPath>
    <clipPath
       clipPathUnits="userSpaceOnUse"
       id="clipPath69">
      <path
         d="M 0,841.89 H 595.276 V 0 H 0 Z"
         transform="translate(-230.98,-412.33901)"
         id="path69" />
    </clipPath>
    <clipPath
       clipPathUnits="userSpaceOnUse"
       id="clipPath71">
      <path
         d="M 0,841.89 H 595.276 V 0 H 0 Z"
         transform="translate(-203.13301,-410.84801)"
         id="path71" />
    </clipPath>
    <clipPath
       clipPathUnits="userSpaceOnUse"
       id="clipPath73">
      <path
         d="M 0,841.89 H 595.276 V 0 H 0 Z"
         id="path73" />
    </clipPath>
    <clipPath
       clipPathUnits="userSpaceOnUse"
       id="clipPath75">
      <path
         d="M 0,841.89 H 595.276 V 0 H 0 Z"
         transform="translate(-220.50601,-390.45301)"
         id="path75" />
    </clipPath>
    <clipPath
       clipPathUnits="userSpaceOnUse"
       id="clipPath77">
      <path
         d="M 0,841.89 H 595.276 V 0 H 0 Z"
         transform="translate(-155.923,-412.33901)"
         id="path77" />
    </clipPath>
    <clipPath
       clipPathUnits="userSpaceOnUse"
       id="clipPath79">
      <path
         d="M 0,841.89 H 595.276 V 0 H 0 Z"
         transform="translate(-128.077,-410.84801)"
         id="path79" />
    </clipPath>
    <clipPath
       clipPathUnits="userSpaceOnUse"
       id="clipPath81">
      <path
         d="M 0,841.89 H 595.276 V 0 H 0 Z"
         id="path81" />
    </clipPath>
    <clipPath
       clipPathUnits="userSpaceOnUse"
       id="clipPath83">
      <path
         d="M 0,841.89 H 595.276 V 0 H 0 Z"
         transform="translate(-139.14201,-396.00901)"
         id="path83" />
    </clipPath>
    <clipPath
       clipPathUnits="userSpaceOnUse"
       id="clipPath85">
      <path
         d="M 0,841.89 H 595.276 V 0 H 0 Z"
         transform="translate(-137.26701,-374.71801)"
         id="path85" />
    </clipPath>
    <clipPath
       clipPathUnits="userSpaceOnUse"
       id="clipPath87">
      <path
         d="M 0,841.89 H 595.276 V 0 H 0 Z"
         transform="translate(-193.452,-412.33901)"
         id="path87" />
    </clipPath>
    <clipPath
       clipPathUnits="userSpaceOnUse"
       id="clipPath89">
      <path
         d="M 0,841.89 H 595.276 V 0 H 0 Z"
         transform="translate(-165.60501,-410.84801)"
         id="path89" />
    </clipPath>
    <clipPath
       clipPathUnits="userSpaceOnUse"
       id="clipPath91">
      <path
         d="M 0,841.89 H 595.276 V 0 H 0 Z"
         id="path91" />
    </clipPath>
    <clipPath
       clipPathUnits="userSpaceOnUse"
       id="clipPath93">
      <path
         d="M 0,841.89 H 595.276 V 0 H 0 Z"
         transform="translate(-178.816,-386.18501)"
         id="path93" />
    </clipPath>
    <clipPath
       clipPathUnits="userSpaceOnUse"
       id="clipPath95">
      <path
         d="M 0,841.89 H 595.276 V 0 H 0 Z"
         transform="translate(-185.16501,-392.60001)"
         id="path95" />
    </clipPath>
    <clipPath
       clipPathUnits="userSpaceOnUse"
       id="clipPath97">
      <path
         d="M 0,841.89 H 595.276 V 0 H 0 Z"
         transform="translate(-193.452,-319.00801)"
         id="path97" />
    </clipPath>
    <clipPath
       clipPathUnits="userSpaceOnUse"
       id="clipPath99">
      <path
         d="M 0,841.89 H 595.276 V 0 H 0 Z"
         transform="translate(-165.60501,-361.71301)"
         id="path99" />
    </clipPath>
    <clipPath
       clipPathUnits="userSpaceOnUse"
       id="clipPath101">
      <path
         d="M 0,841.89 H 595.276 V 0 H 0 Z"
         transform="translate(-170.74701,-327.18301)"
         id="path101" />
    </clipPath>
    <clipPath
       clipPathUnits="userSpaceOnUse"
       id="clipPath103">
      <path
         d="M 0,841.89 H 595.276 V 0 H 0 Z"
         transform="translate(-178.19901,-328.25601)"
         id="path103" />
    </clipPath>
    <clipPath
       clipPathUnits="userSpaceOnUse"
       id="clipPath105">
      <path
         d="M 0,841.89 H 595.276 V 0 H 0 Z"
         transform="translate(-183.156,-327.18301)"
         id="path105" />
    </clipPath>
    <clipPath
       clipPathUnits="userSpaceOnUse"
       id="clipPath107">
      <path
         d="M 0,841.89 H 595.276 V 0 H 0 Z"
         id="path107" />
    </clipPath>
    <clipPath
       clipPathUnits="userSpaceOnUse"
       id="clipPath109">
      <path
         d="M 0,841.89 H 595.276 V 0 H 0 Z"
         transform="translate(-181.315,-351.93601)"
         id="path109" />
    </clipPath>
    <clipPath
       clipPathUnits="userSpaceOnUse"
       id="clipPath111">
      <path
         d="M 0,841.89 H 595.276 V 0 H 0 Z"
         transform="translate(-155.923,-363.20401)"
         id="path111" />
    </clipPath>
    <clipPath
       clipPathUnits="userSpaceOnUse"
       id="clipPath113">
      <path
         d="M 0,841.89 H 595.276 V 0 H 0 Z"
         transform="translate(-128.077,-361.71301)"
         id="path113" />
    </clipPath>
    <clipPath
       clipPathUnits="userSpaceOnUse"
       id="clipPath115">
      <path
         d="M 0,841.89 H 595.276 V 0 H 0 Z"
         id="path115" />
    </clipPath>
    <clipPath
       clipPathUnits="userSpaceOnUse"
       id="clipPath117">
      <path
         d="M 0,841.89 H 595.276 V 0 H 0 Z"
         transform="translate(-148.033,-336.16401)"
         id="path117" />
    </clipPath>
    <clipPath
       clipPathUnits="userSpaceOnUse"
       id="clipPath119">
      <path
         d="M 0,841.89 H 595.276 V 0 H 0 Z"
         transform="translate(-131.964,-351.71501)"
         id="path119" />
    </clipPath>
    <clipPath
       clipPathUnits="userSpaceOnUse"
       id="clipPath121">
      <path
         d="M 0,841.89 H 595.276 V 0 H 0 Z"
         transform="translate(-135.50601,-354.01701)"
         id="path121" />
    </clipPath>
    <clipPath
       clipPathUnits="userSpaceOnUse"
       id="clipPath123">
      <path
         d="M 0,841.89 H 595.276 V 0 H 0 Z"
         id="path123" />
    </clipPath>
    <clipPath
       clipPathUnits="userSpaceOnUse"
       id="clipPath125">
      <path
         d="M 0,841.89 H 595.276 V 0 H 0 Z"
         transform="translate(-141.54501,-351.71501)"
         id="path125" />
    </clipPath>
    <clipPath
       clipPathUnits="userSpaceOnUse"
       id="clipPath127">
      <path
         d="M 0,841.89 H 595.276 V 0 H 0 Z"
         transform="translate(-145.44501,-351.71501)"
         id="path127" />
    </clipPath>
    <clipPath
       clipPathUnits="userSpaceOnUse"
       id="clipPath129">
      <path
         d="M 0,841.89 H 595.276 V 0 H 0 Z"
         transform="translate(-150.766,-351.71501)"
         id="path129" />
    </clipPath>
    <clipPath
       clipPathUnits="userSpaceOnUse"
       id="clipPath220">
      <path
         d="M 0,841.89 H 595.276 V 0 H 0 Z"
         transform="translate(-347.40601,-436.62301)"
         id="path220" />
    </clipPath>
    <clipPath
       clipPathUnits="userSpaceOnUse"
       id="clipPath222">
      <path
         d="M 0,841.89 H 595.276 V 0 H 0 Z"
         transform="translate(-354.23001,-437.06801)"
         id="path222" />
    </clipPath>
    <clipPath
       clipPathUnits="userSpaceOnUse"
       id="clipPath224">
      <path
         d="M 0,841.89 H 595.276 V 0 H 0 Z"
         transform="translate(-510.01402,-382.37301)"
         id="path224" />
    </clipPath>
    <clipPath
       clipPathUnits="userSpaceOnUse"
       id="clipPath226">
      <path
         d="M 0,841.89 H 595.276 V 0 H 0 Z"
         transform="translate(-481.05901,-380.82201)"
         id="path226" />
    </clipPath>
    <clipPath
       clipPathUnits="userSpaceOnUse"
       id="clipPath228">
      <path
         d="M 0,841.89 H 595.276 V 0 H 0 Z"
         id="path228" />
    </clipPath>
    <clipPath
       clipPathUnits="userSpaceOnUse"
       id="clipPath230">
      <path
         d="M 0,841.89 H 595.276 V 0 H 0 Z"
         transform="translate(-500.94202,-355.62501)"
         id="path230" />
    </clipPath>
    <clipPath
       clipPathUnits="userSpaceOnUse"
       id="clipPath232">
      <path
         d="M 0,841.89 H 595.276 V 0 H 0 Z"
         transform="translate(-487.45701,-348.51601)"
         id="path232" />
    </clipPath>
    <clipPath
       clipPathUnits="userSpaceOnUse"
       id="clipPath234">
      <path
         d="M 0,841.89 H 595.276 V 0 H 0 Z"
         transform="translate(-492.00301,-345.90301)"
         id="path234" />
    </clipPath>
    <clipPath
       clipPathUnits="userSpaceOnUse"
       id="clipPath236">
      <path
         d="M 0,841.89 H 595.276 V 0 H 0 Z"
         transform="translate(-495.87301,-345.90301)"
         id="path236" />
    </clipPath>
    <clipPath
       clipPathUnits="userSpaceOnUse"
       id="clipPath238">
      <path
         d="M 0,841.89 H 595.276 V 0 H 0 Z"
         transform="translate(-498.71501,-347.06601)"
         id="path238" />
    </clipPath>
    <clipPath
       clipPathUnits="userSpaceOnUse"
       id="clipPath240">
      <path
         d="M 0,841.89 H 595.276 V 0 H 0 Z"
         transform="translate(-510.01402,-433.46401)"
         id="path240" />
    </clipPath>
    <clipPath
       clipPathUnits="userSpaceOnUse"
       id="clipPath242">
      <path
         d="M 0,841.89 H 595.276 V 0 H 0 Z"
         transform="translate(-481.05901,-431.91301)"
         id="path242" />
    </clipPath>
    <clipPath
       clipPathUnits="userSpaceOnUse"
       id="clipPath244">
      <path
         d="M 0,841.89 H 595.276 V 0 H 0 Z"
         id="path244" />
    </clipPath>
    <clipPath
       clipPathUnits="userSpaceOnUse"
       id="clipPath246">
      <path
         d="M 0,841.89 H 595.276 V 0 H 0 Z"
         transform="translate(-499.12301,-410.70601)"
         id="path246" />
    </clipPath>
    <clipPath
       clipPathUnits="userSpaceOnUse"
       id="clipPath248">
      <path
         d="M 0,841.89 H 595.276 V 0 H 0 Z"
         transform="translate(-431.96901,-433.46401)"
         id="path248" />
    </clipPath>
    <clipPath
       clipPathUnits="userSpaceOnUse"
       id="clipPath250">
      <path
         d="M 0,841.89 H 595.276 V 0 H 0 Z"
         transform="translate(-403.01501,-431.91301)"
         id="path250" />
    </clipPath>
    <clipPath
       clipPathUnits="userSpaceOnUse"
       id="clipPath252">
      <path
         d="M 0,841.89 H 595.276 V 0 H 0 Z"
         id="path252" />
    </clipPath>
    <clipPath
       clipPathUnits="userSpaceOnUse"
       id="clipPath254">
      <path
         d="M 0,841.89 H 595.276 V 0 H 0 Z"
         transform="translate(-414.52001,-416.48301)"
         id="path254" />
    </clipPath>
    <clipPath
       clipPathUnits="userSpaceOnUse"
       id="clipPath256">
      <path
         d="M 0,841.89 H 595.276 V 0 H 0 Z"
         transform="translate(-412.57001,-394.34501)"
         id="path256" />
    </clipPath>
    <clipPath
       clipPathUnits="userSpaceOnUse"
       id="clipPath258">
      <path
         d="M 0,841.89 H 595.276 V 0 H 0 Z"
         transform="translate(-470.99201,-433.46401)"
         id="path258" />
    </clipPath>
    <clipPath
       clipPathUnits="userSpaceOnUse"
       id="clipPath260">
      <path
         d="M 0,841.89 H 595.276 V 0 H 0 Z"
         transform="translate(-442.03701,-431.91301)"
         id="path260" />
    </clipPath>
    <clipPath
       clipPathUnits="userSpaceOnUse"
       id="clipPath262">
      <path
         d="M 0,841.89 H 595.276 V 0 H 0 Z"
         id="path262" />
    </clipPath>
    <clipPath
       clipPathUnits="userSpaceOnUse"
       id="clipPath264">
      <path
         d="M 0,841.89 H 595.276 V 0 H 0 Z"
         transform="translate(-455.77301,-406.26801)"
         id="path264" />
    </clipPath>
    <clipPath
       clipPathUnits="userSpaceOnUse"
       id="clipPath266">
      <path
         d="M 0,841.89 H 595.276 V 0 H 0 Z"
         transform="translate(-462.37501,-412.93901)"
         id="path266" />
    </clipPath>
    <clipPath
       clipPathUnits="userSpaceOnUse"
       id="clipPath268">
      <path
         d="M 0,841.89 H 595.276 V 0 H 0 Z"
         transform="translate(-470.99201,-336.41701)"
         id="path268" />
    </clipPath>
    <clipPath
       clipPathUnits="userSpaceOnUse"
       id="clipPath270">
      <path
         d="M 0,841.89 H 595.276 V 0 H 0 Z"
         transform="translate(-442.03701,-380.82201)"
         id="path270" />
    </clipPath>
    <clipPath
       clipPathUnits="userSpaceOnUse"
       id="clipPath272">
      <path
         d="M 0,841.89 H 595.276 V 0 H 0 Z"
         transform="translate(-447.38201,-344.91801)"
         id="path272" />
    </clipPath>
    <clipPath
       clipPathUnits="userSpaceOnUse"
       id="clipPath274">
      <path
         d="M 0,841.89 H 595.276 V 0 H 0 Z"
         transform="translate(-455.13201,-346.03301)"
         id="path274" />
    </clipPath>
    <clipPath
       clipPathUnits="userSpaceOnUse"
       id="clipPath276">
      <path
         d="M 0,841.89 H 595.276 V 0 H 0 Z"
         transform="translate(-460.28601,-344.91801)"
         id="path276" />
    </clipPath>
    <clipPath
       clipPathUnits="userSpaceOnUse"
       id="clipPath278">
      <path
         d="M 0,841.89 H 595.276 V 0 H 0 Z"
         id="path278" />
    </clipPath>
    <clipPath
       clipPathUnits="userSpaceOnUse"
       id="clipPath280">
      <path
         d="M 0,841.89 H 595.276 V 0 H 0 Z"
         transform="translate(-458.37201,-370.65701)"
         id="path280" />
    </clipPath>
    <clipPath
       clipPathUnits="userSpaceOnUse"
       id="clipPath282">
      <path
         d="M 0,841.89 H 595.276 V 0 H 0 Z"
         transform="translate(-431.96901,-382.37301)"
         id="path282" />
    </clipPath>
    <clipPath
       clipPathUnits="userSpaceOnUse"
       id="clipPath284">
      <path
         d="M 0,841.89 H 595.276 V 0 H 0 Z"
         transform="translate(-403.01501,-380.82201)"
         id="path284" />
    </clipPath>
    <clipPath
       clipPathUnits="userSpaceOnUse"
       id="clipPath286">
      <path
         d="M 0,841.89 H 595.276 V 0 H 0 Z"
         id="path286" />
    </clipPath>
    <clipPath
       clipPathUnits="userSpaceOnUse"
       id="clipPath288">
      <path
         d="M 0,841.89 H 595.276 V 0 H 0 Z"
         transform="translate(-423.76501,-354.25701)"
         id="path288" />
    </clipPath>
    <clipPath
       clipPathUnits="userSpaceOnUse"
       id="clipPath290">
      <path
         d="M 0,841.89 H 595.276 V 0 H 0 Z"
         transform="translate(-407.05601,-370.42701)"
         id="path290" />
    </clipPath>
    <clipPath
       clipPathUnits="userSpaceOnUse"
       id="clipPath292">
      <path
         d="M 0,841.89 H 595.276 V 0 H 0 Z"
         transform="translate(-410.74001,-372.82001)"
         id="path292" />
    </clipPath>
    <clipPath
       clipPathUnits="userSpaceOnUse"
       id="clipPath294">
      <path
         d="M 0,841.89 H 595.276 V 0 H 0 Z"
         id="path294" />
    </clipPath>
    <clipPath
       clipPathUnits="userSpaceOnUse"
       id="clipPath296">
      <path
         d="M 0,841.89 H 595.276 V 0 H 0 Z"
         transform="translate(-417.01901,-370.42701)"
         id="path296" />
    </clipPath>
    <clipPath
       clipPathUnits="userSpaceOnUse"
       id="clipPath298">
      <path
         d="M 0,841.89 H 595.276 V 0 H 0 Z"
         transform="translate(-421.07501,-370.42701)"
         id="path298" />
    </clipPath>
    <clipPath
       clipPathUnits="userSpaceOnUse"
       id="clipPath300">
      <path
         d="M 0,841.89 H 595.276 V 0 H 0 Z"
         transform="translate(-426.60701,-370.42701)"
         id="path300" />
    </clipPath>
    <clipPath
       clipPathUnits="userSpaceOnUse"
       id="clipPath302">
      <path
         d="M 0,841.89 H 595.276 V 0 H 0 Z"
         transform="translate(-384.27801,-432.67901)"
         id="path302" />
    </clipPath>
  </defs>
  <g
     inkscape:label="Layer 1"
     inkscape:groupmode="layer"
     id="layer1"
     transform="translate(-67.814752,-123.37606)">
    <path
       id="path219"
       d="m 0,0 -28.354,-48.074 c -1.449,-2.456 -1.449,-5.497 0,-7.952 l 27.919,-47.339 c 1.42,-2.407 4.018,-3.886 6.826,-3.886 h 160.984 c 4.369,0 7.911,3.52 7.911,7.862 v 95.412 c 0,4.343 -3.542,7.863 -7.911,7.863 H 6.824 C 4.017,3.886 1.42,2.407 0,0"
       style="fill:#4467a5;fill-opacity:1;fill-rule:nonzero;stroke:none"
       transform="matrix(0.35277776,0,0,-0.35277776,78.200794,124.74695)"
       clip-path="url(#clipPath220)" />
    <path
       id="path221"
       d="m 0,0 c -0.781,0 -1.553,-0.204 -2.229,-0.59 -0.675,-0.384 -1.24,-0.938 -1.631,-1.603 l -28.355,-48.075 c -0.81,-1.374 -0.81,-3.082 0,-4.456 l 27.92,-47.339 c 0.393,-0.665 0.956,-1.219 1.631,-1.603 0.678,-0.386 1.448,-0.59 2.23,-0.59 h 160.985 c 1.198,0 2.323,0.463 3.168,1.303 0.84,0.834 1.302,1.941 1.302,3.119 v 95.412 c 0,1.178 -0.462,2.285 -1.302,3.119 C 162.874,-0.463 161.749,0 160.551,0 Z M 160.551,-105.287 H -0.434 c -0.961,0 -1.908,0.25 -2.741,0.724 -0.83,0.473 -1.525,1.157 -2.009,1.976 l -27.92,47.339 c -1.001,1.697 -1.001,3.807 0,5.505 L -4.75,-1.669 c 0.484,0.819 1.179,1.503 2.01,1.976 0.832,0.474 1.78,0.725 2.74,0.725 h 160.551 c 1.472,0 2.855,-0.569 3.895,-1.602 1.036,-1.03 1.607,-2.398 1.607,-3.852 v -95.412 c 0,-1.454 -0.571,-2.821 -1.607,-3.852 -1.04,-1.033 -2.423,-1.601 -3.895,-1.601"
       style="fill:#ffffff;fill-opacity:1;fill-rule:nonzero;stroke:none"
       transform="matrix(0.35277776,0,0,-0.35277776,80.608151,124.58997)"
       clip-path="url(#clipPath222)" />
    <path
       id="path223"
       d="m 0,0 h -29.137 c -1.464,0 -2.654,-1.175 -2.654,-2.619 v -40.718 c 0,-1.443 1.19,-2.618 2.654,-2.618 H 0 c 1.475,0 2.676,1.175 2.676,2.618 V -2.619 C 2.676,-1.175 1.475,0 0,0"
       style="fill:#ffffff;fill-opacity:1;fill-rule:nonzero;stroke:none"
       transform="matrix(0.35277776,0,0,-0.35277776,135.56528,143.88515)"
       clip-path="url(#clipPath224)" />
    <path
       id="path225"
       d="m 0,0 c -0.689,0 -1.25,-0.562 -1.25,-1.253 v -40.351 c 0,-0.689 0.561,-1.25 1.25,-1.25 h 28.772 c 0.701,0 1.271,0.561 1.271,1.25 V -1.253 C 30.043,-0.562 29.473,0 28.772,0 Z"
       style="fill:#4467a5;fill-opacity:1;fill-rule:nonzero;stroke:none"
       transform="matrix(0.35277776,0,0,-0.35277776,125.3506,144.43231)"
       clip-path="url(#clipPath226)" />
    <path
       id="path227"
       d="M 504.762,353.51 H 486.15 v 18.611 h 18.612 z"
       style="fill:#ffffff;fill-opacity:1;fill-rule:nonzero;stroke:none"
       transform="matrix(0.35277776,0,0,-0.35277776,-44.356321,278.77784)"
       clip-path="url(#clipPath228)" />
    <path
       id="path229"
       d="m 0,0 -4.876,7.215 1.004,1.865 h 1.29 c 0.097,0 0.191,0.096 0.287,0.191 l 2.391,4.158 c 0.19,0.43 -0.335,0.621 -0.527,0.287 l -2.151,-3.489 c -0.285,-0.43 -0.955,-0.096 -0.573,0.478 l 2.054,3.536 c 0.192,0.334 -0.287,0.669 -0.573,0.239 l -2.055,-3.441 c -0.334,-0.574 -0.908,-0.048 -0.668,0.287 l 2.006,3.536 c 0.241,0.429 -0.238,0.717 -0.429,0.334 l -2.534,-4.014 c -0.095,-0.191 -0.095,-0.286 -0.047,-0.334 l 0.669,-1.194 -0.86,-1.292 -0.861,1.244 c 0,0 1.243,1.48 -0.478,3.441 -1.673,2.006 -3.106,2.626 -3.775,2.149 -0.526,-0.382 -0.717,-2.245 0.382,-4.348 1.1,-2.15 2.629,-1.864 3.011,-1.816 L -6.31,7.264 -10.945,0.048 c -0.43,-0.669 0,-1.148 0.287,-1.291 0.286,-0.143 0.907,-0.334 1.338,0.478 l 3.728,6.739 4.11,-6.978 C -1.244,-1.386 -0.717,-1.577 -0.335,-1.29 -0.144,-1.147 0.43,-0.669 0,0"
       style="fill:#221f1f;fill-opacity:1;fill-rule:nonzero;stroke:none"
       transform="matrix(0.35277776,0,0,-0.35277776,132.36488,153.32125)"
       clip-path="url(#clipPath230)" />
    <path
       id="path231"
       d="M 0,0 H 2.739 V -1.166 H 0.884 l -0.099,-0.79 c 0.128,0.076 0.255,0.134 0.381,0.172 0.125,0.039 0.249,0.057 0.372,0.057 0.415,0 0.752,-0.159 1.011,-0.477 0.259,-0.318 0.389,-0.719 0.389,-1.202 0,-0.34 -0.067,-0.667 -0.201,-0.981 C 2.604,-4.7 2.416,-4.939 2.171,-5.104 1.927,-5.27 1.613,-5.352 1.232,-5.352 c -0.274,0 -0.508,0.033 -0.704,0.099 -0.195,0.066 -0.361,0.164 -0.498,0.294 -0.137,0.131 -0.248,0.278 -0.333,0.443 -0.085,0.165 -0.156,0.371 -0.213,0.618 l 1.167,0.162 C 0.68,-3.974 0.746,-4.153 0.85,-4.276 0.954,-4.4 1.077,-4.462 1.221,-4.462 c 0.16,0 0.293,0.077 0.398,0.232 0.105,0.154 0.157,0.384 0.157,0.691 0,0.313 -0.053,0.543 -0.159,0.689 -0.105,0.146 -0.246,0.219 -0.422,0.219 -0.111,0 -0.218,-0.035 -0.323,-0.104 C 0.795,-2.785 0.71,-2.876 0.617,-3.008 l -0.982,0.18 z"
       style="fill:#ffffff;fill-opacity:1;fill-rule:nonzero;stroke:none"
       transform="matrix(0.35277776,0,0,-0.35277776,127.60767,155.82915)"
       clip-path="url(#clipPath232)" />
    <path
       id="path233"
       d="m 0,0 c 0,-0.67 0.047,-1.128 0.141,-1.373 0.092,-0.245 0.228,-0.367 0.406,-0.367 0.117,0 0.219,0.052 0.305,0.155 0.085,0.105 0.148,0.269 0.189,0.494 0.04,0.225 0.061,0.575 0.061,1.052 0,0.698 -0.047,1.168 -0.14,1.409 C 0.868,1.61 0.728,1.73 0.541,1.73 0.351,1.73 0.213,1.607 0.128,1.362 0.042,1.117 0,0.663 0,0 m -1.145,0.004 c 0,1 0.143,1.7 0.427,2.1 0.284,0.4 0.717,0.599 1.299,0.599 C 0.86,2.703 1.09,2.659 1.269,2.572 1.448,2.485 1.595,2.371 1.708,2.231 1.821,2.091 1.91,1.944 1.976,1.79 2.041,1.636 2.093,1.455 2.133,1.25 2.21,0.857 2.249,0.448 2.249,0.021 2.249,-0.933 2.121,-1.632 1.866,-2.074 1.611,-2.518 1.173,-2.738 0.55,-2.738 c -0.35,0 -0.632,0.07 -0.848,0.212 -0.215,0.14 -0.391,0.347 -0.529,0.62 -0.1,0.194 -0.178,0.459 -0.234,0.796 -0.055,0.336 -0.084,0.707 -0.084,1.114"
       style="fill:#ffffff;fill-opacity:1;fill-rule:nonzero;stroke:none"
       transform="matrix(0.35277776,0,0,-0.35277776,129.2114,156.75095)"
       clip-path="url(#clipPath234)" />
    <path
       id="path235"
       d="m 0,0 c 0,-0.67 0.047,-1.128 0.14,-1.373 0.093,-0.245 0.229,-0.367 0.406,-0.367 0.117,0 0.219,0.052 0.305,0.155 0.086,0.105 0.149,0.269 0.189,0.494 0.041,0.225 0.062,0.575 0.062,1.052 0,0.698 -0.047,1.168 -0.141,1.409 C 0.868,1.61 0.728,1.73 0.541,1.73 0.35,1.73 0.212,1.607 0.127,1.362 0.042,1.117 0,0.663 0,0 m -1.145,0.004 c 0,1 0.142,1.7 0.426,2.1 0.284,0.4 0.718,0.599 1.299,0.599 0.279,0 0.509,-0.044 0.689,-0.131 C 1.448,2.485 1.594,2.371 1.707,2.231 1.82,2.091 1.91,1.944 1.976,1.79 2.04,1.636 2.093,1.455 2.133,1.25 2.21,0.857 2.248,0.448 2.248,0.021 2.248,-0.933 2.121,-1.632 1.866,-2.074 1.611,-2.518 1.172,-2.738 0.549,-2.738 c -0.349,0 -0.631,0.07 -0.847,0.212 -0.215,0.14 -0.391,0.347 -0.529,0.62 -0.101,0.194 -0.178,0.459 -0.234,0.796 -0.056,0.336 -0.084,0.707 -0.084,1.114"
       style="fill:#ffffff;fill-opacity:1;fill-rule:nonzero;stroke:none"
       transform="matrix(0.35277776,0,0,-0.35277776,130.57665,156.75095)"
       clip-path="url(#clipPath236)" />
    <path
       id="path237"
       d="m 0,0 h 1.077 v -0.556 c 0.154,0.232 0.312,0.397 0.469,0.495 0.158,0.098 0.349,0.148 0.571,0.148 0.24,0 0.431,-0.055 0.571,-0.162 0.14,-0.108 0.254,-0.268 0.343,-0.481 0.181,0.248 0.346,0.418 0.495,0.508 0.149,0.09 0.332,0.135 0.551,0.135 0.322,0 0.574,-0.122 0.756,-0.365 0.181,-0.243 0.271,-0.622 0.271,-1.14 V -3.812 H 3.948 v 2.171 c 0,0.173 -0.026,0.301 -0.079,0.385 -0.077,0.131 -0.173,0.197 -0.287,0.197 -0.136,0 -0.245,-0.062 -0.328,-0.186 C 3.172,-1.37 3.13,-1.569 3.13,-1.845 V -3.812 H 1.975 v 2.1 c 0,0.167 -0.008,0.281 -0.023,0.341 -0.025,0.096 -0.067,0.173 -0.128,0.231 -0.06,0.059 -0.132,0.088 -0.214,0.088 -0.131,0 -0.241,-0.063 -0.326,-0.19 C 1.198,-1.368 1.156,-1.577 1.156,-1.866 V -3.812 H 0 Z"
       style="fill:#ffffff;fill-opacity:1;fill-rule:nonzero;stroke:none"
       transform="matrix(0.35277776,0,0,-0.35277776,131.57925,156.34067)"
       clip-path="url(#clipPath238)" />
    <path
       id="path239"
       d="m 0,0 h -29.137 c -1.464,0 -2.654,-1.175 -2.654,-2.618 v -40.719 c 0,-1.443 1.19,-2.619 2.654,-2.619 H 0 c 1.475,0 2.676,1.176 2.676,2.619 V -2.618 C 2.676,-1.175 1.475,0 0,0"
       style="fill:#ffffff;fill-opacity:1;fill-rule:nonzero;stroke:none"
       transform="matrix(0.35277776,0,0,-0.35277776,135.56528,125.86138)"
       clip-path="url(#clipPath240)" />
    <path
       id="path241"
       d="m 0,0 c -0.689,0 -1.25,-0.562 -1.25,-1.252 v -40.351 c 0,-0.69 0.561,-1.251 1.25,-1.251 h 28.772 c 0.701,0 1.271,0.561 1.271,1.251 v 40.351 c 0,0.69 -0.57,1.252 -1.271,1.252 z"
       style="fill:#4467a5;fill-opacity:1;fill-rule:nonzero;stroke:none"
       transform="matrix(0.35277776,0,0,-0.35277776,125.3506,126.40854)"
       clip-path="url(#clipPath242)" />
    <path
       id="path243"
       d="M 504.762,401.18 H 486.15 v 18.612 h 18.612 z"
       style="fill:#ffffff;fill-opacity:1;fill-rule:nonzero;stroke:none"
       transform="matrix(0.35277776,0,0,-0.35277776,-44.356321,278.77784)"
       clip-path="url(#clipPath244)" />
    <path
       id="path245"
       d="m 0,0 c 0,0 2.168,0.608 2.836,0.608 0.689,0 1.276,-0.506 1.276,-1.499 V -3.504 L 3.525,-3.666 3.303,-3.605 v 0.75 l -4.537,-1.297 v -0.871 l -0.61,-0.162 -0.607,0.162 v 0.871 l -8.325,2.349 V -2.552 L -11,-2.633 l -0.445,0.162 v 3.282 c 0,0.871 0.324,1.316 0.729,1.64 0.385,0.345 1.438,0.749 2.714,0.749 1.296,0 3.059,-0.344 3.059,-1.518 V 1.033 C -3.322,0.892 -1.701,0.588 0,0 m -1.823,-1.742 c 0,0.648 0.467,1.195 1.195,1.478 0,0 -1.843,0.568 -2.633,0.75 -0.79,0.203 -1.823,0.365 -2.229,0.365 -0.425,0 -1.054,0 -1.722,-0.263 -0.648,-0.264 -1.175,-0.609 -1.195,-0.912 0,-0.101 0.041,-0.487 0.71,-0.708 l 5.874,-1.642 z m -6.847,1.236 c -0.203,0.404 0.161,0.627 0.668,0.931 0.527,0.284 1.175,0.507 1.864,0.548 0.202,0 0.587,0 0.587,0.243 0,0.304 -1.053,0.728 -2.005,0.728 -1.276,0 -2.573,-0.911 -2.573,-1.721 0,-0.81 0.75,-0.87 0.871,-0.87 0.142,0 0.426,0.04 0.588,0.141"
       style="fill:#221f1f;fill-opacity:1;fill-rule:nonzero;stroke:none"
       transform="matrix(0.35277776,0,0,-0.35277776,131.72318,133.8899)"
       clip-path="url(#clipPath246)" />
    <path
       id="path247"
       d="M 0,0 H -29.136 C -30.6,0 -31.79,-1.175 -31.79,-2.618 v -40.719 c 0,-1.443 1.19,-2.619 2.654,-2.619 H 0 c 1.475,0 2.676,1.176 2.676,2.619 V -2.618 C 2.676,-1.175 1.475,0 0,0"
       style="fill:#ffffff;fill-opacity:1;fill-rule:nonzero;stroke:none"
       transform="matrix(0.35277776,0,0,-0.35277776,108.03274,125.86138)"
       clip-path="url(#clipPath248)" />
    <path
       id="path249"
       d="m 0,0 c -0.689,0 -1.251,-0.562 -1.251,-1.252 v -40.351 c 0,-0.69 0.562,-1.251 1.251,-1.251 h 28.771 c 0.702,0 1.272,0.561 1.272,1.251 v 40.351 c 0,0.69 -0.57,1.252 -1.272,1.252 z"
       style="fill:#4467a5;fill-opacity:1;fill-rule:nonzero;stroke:none"
       transform="matrix(0.35277776,0,0,-0.35277776,97.818412,126.40854)"
       clip-path="url(#clipPath250)" />
    <path
       id="path251"
       d="m 426.717,404.6 h -18.612 v 18.612 h 18.612 z"
       style="fill:#ffffff;fill-opacity:1;fill-rule:nonzero;stroke:none"
       transform="matrix(0.35277776,0,0,-0.35277776,-44.356321,278.77784)"
       clip-path="url(#clipPath252)" />
    <path
       id="path253"
       d="m 0,0 -0.289,-1.928 -2.41,-4.481 c -0.096,-0.24 -0.192,-0.529 -0.192,-0.819 0,-0.963 0.819,-1.733 1.784,-1.733 0.962,0 1.733,0.77 1.733,1.733 V 0 H 1.589 V -7.998 H 2.266 V -8.961 H 8 v 0.963 H 8.674 V 3.181 3.179 C 8.674,3.565 8.385,3.808 8,3.808 H 2.266 C 1.88,3.808 1.589,3.565 1.589,3.179 V 2.553 H 0.626 C 0.289,2.553 0,2.264 0,1.927 Z m 3.518,-1.302 c -0.338,0 -0.626,0.289 -0.626,0.676 v 2.553 c 0,0.337 0.288,0.626 0.626,0.626 h 3.228 c 0.337,0 0.627,-0.289 0.627,-0.626 v -2.553 c 0,-0.387 -0.29,-0.676 -0.627,-0.676 z M 0,-7.228 c 0,-0.626 -0.481,-1.107 -1.107,-1.107 -0.628,0 -1.11,0.481 -1.11,1.107 0,0.193 0,0.386 0.096,0.53 l 2.121,4 z"
       style="fill:#221f1f;fill-opacity:1;fill-rule:nonzero;stroke:none"
       transform="matrix(0.35277776,0,0,-0.35277776,101.87712,131.8519)"
       clip-path="url(#clipPath254)" />
    <path
       id="path255"
       d="M 0,0 -3.861,2.279 0,4.556 V 3.554 H 12.145 V 1.003 H 0 Z"
       style="fill:#ffffff;fill-opacity:1;fill-rule:nonzero;stroke:none"
       transform="matrix(0.35277776,0,0,-0.35277776,101.1892,139.66169)"
       clip-path="url(#clipPath256)" />
    <path
       id="path257"
       d="m 0,0 h -29.137 c -1.464,0 -2.654,-1.175 -2.654,-2.618 v -40.719 c 0,-1.443 1.19,-2.619 2.654,-2.619 H 0 c 1.475,0 2.676,1.176 2.676,2.619 V -2.618 C 2.676,-1.175 1.475,0 0,0"
       style="fill:#ffffff;fill-opacity:1;fill-rule:nonzero;stroke:none"
       transform="matrix(0.35277776,0,0,-0.35277776,121.79919,125.86138)"
       clip-path="url(#clipPath258)" />
    <path
       id="path259"
       d="m 0,0 c -0.689,0 -1.25,-0.562 -1.25,-1.252 v -40.351 c 0,-0.69 0.561,-1.251 1.25,-1.251 h 28.772 c 0.702,0 1.272,0.561 1.272,1.251 v 40.351 c 0,0.69 -0.57,1.252 -1.272,1.252 z"
       style="fill:#4467a5;fill-opacity:1;fill-rule:nonzero;stroke:none"
       transform="matrix(0.35277776,0,0,-0.35277776,111.58451,126.40854)"
       clip-path="url(#clipPath260)" />
    <path
       id="path261"
       d="m 465.74,401.18 h -18.611 v 18.612 h 18.611 z"
       style="fill:#ffffff;fill-opacity:1;fill-rule:nonzero;stroke:none"
       transform="matrix(0.35277776,0,0,-0.35277776,-44.356321,278.77784)"
       clip-path="url(#clipPath262)" />
    <path
       id="path263"
       d="m 0,0 v 1.814 h -1.821 v 1.775 h 1.802 v 1.85 H 1.746 V 3.608 H 3.58 V 1.841 H 1.772 V 0 Z"
       style="fill:#e01f26;fill-opacity:1;fill-rule:nonzero;stroke:none"
       transform="matrix(0.35277776,0,0,-0.35277776,116.43026,135.45552)"
       clip-path="url(#clipPath264)" />
    <path
       id="path265"
       d="m 0,0 v -7.946 c 0,-0.142 -0.115,-0.256 -0.256,-0.256 h -10.932 c -0.142,0 -0.256,0.114 -0.256,0.256 V 0 c 0,0.141 0.114,0.256 0.256,0.256 H -0.256 C -0.115,0.256 0,0.141 0,0 m -7.868,1.355 v 1.139 c 0,0.035 0.028,0.064 0.063,0.064 h 4.138 c 0.05,0 0.091,-0.041 0.091,-0.092 V 1.355 Z m 8.24,0 h -2.976 v 1.35 c 0,0.455 -0.37,0.825 -0.825,0.825 h -4.587 c -0.455,0 -0.826,-0.37 -0.826,-0.825 v -1.35 h -2.974 c -0.402,0 -0.728,-0.326 -0.728,-0.727 v -9.202 c 0,-0.402 0.326,-0.728 0.728,-0.728 H 0.372 c 0.401,0 0.728,0.326 0.728,0.728 v 9.202 c 0,0.401 -0.327,0.727 -0.728,0.727"
       style="fill:#221f1f;fill-opacity:1;fill-rule:nonzero;stroke:none"
       transform="matrix(0.35277776,0,0,-0.35277776,118.7593,133.10214)"
       clip-path="url(#clipPath266)" />
    <path
       id="path267"
       d="m 0,0 h -29.137 c -1.464,0 -2.654,1.175 -2.654,2.619 v 40.718 c 0,1.444 1.19,2.619 2.654,2.619 H 0 c 1.475,0 2.676,-1.175 2.676,-2.619 V 2.619 C 2.676,1.175 1.475,0 0,0"
       style="fill:#ffffff;fill-opacity:1;fill-rule:nonzero;stroke:none"
       transform="matrix(0.35277776,0,0,-0.35277776,121.79919,160.0974)"
       clip-path="url(#clipPath268)" />
    <path
       id="path269"
       d="m 0,0 c -0.689,0 -1.25,-0.562 -1.25,-1.253 v -40.35 c 0,-0.69 0.561,-1.251 1.25,-1.251 h 28.772 c 0.702,0 1.272,0.561 1.272,1.251 v 40.35 C 30.044,-0.562 29.474,0 28.772,0 Z"
       style="fill:#4467a5;fill-opacity:1;fill-rule:nonzero;stroke:none"
       transform="matrix(0.35277776,0,0,-0.35277776,111.58451,144.43231)"
       clip-path="url(#clipPath270)" />
    <path
       id="path271"
       d="M 0,0 1.548,0.123 C 1.581,-0.195 1.649,-0.437 1.752,-0.604 1.92,-0.875 2.159,-1.01 2.47,-1.01 c 0.232,0 0.411,0.07 0.537,0.207 0.125,0.138 0.188,0.298 0.188,0.481 0,0.173 -0.059,0.327 -0.179,0.464 C 2.896,0.278 2.618,0.407 2.183,0.528 1.47,0.731 0.961,1.001 0.657,1.338 0.351,1.675 0.198,2.104 0.198,2.625 0.198,2.968 0.276,3.292 0.433,3.597 0.59,3.901 0.825,4.142 1.14,4.315 1.455,4.49 1.886,4.577 2.435,4.577 3.106,4.577 3.619,4.419 3.973,4.102 4.325,3.785 4.535,3.28 4.603,2.589 L 3.069,2.476 C 3.028,2.775 2.943,2.994 2.813,3.131 2.683,3.267 2.502,3.335 2.272,3.335 2.084,3.335 1.941,3.284 1.846,3.183 1.75,3.081 1.702,2.958 1.702,2.813 1.702,2.706 1.741,2.61 1.82,2.525 1.896,2.438 2.079,2.355 2.366,2.279 3.077,2.086 3.586,1.89 3.894,1.69 4.201,1.492 4.425,1.245 4.564,0.951 4.704,0.657 4.774,0.328 4.774,-0.036 4.774,-0.464 4.682,-0.858 4.494,-1.219 4.308,-1.58 4.047,-1.854 3.712,-2.04 3.377,-2.227 2.955,-2.32 2.445,-2.32 1.55,-2.32 0.93,-2.102 0.586,-1.665 0.241,-1.228 0.046,-0.673 0,0"
       style="fill:#ffffff;fill-opacity:1;fill-rule:nonzero;stroke:none"
       transform="matrix(0.35277776,0,0,-0.35277776,113.4701,157.09844)"
       clip-path="url(#clipPath272)" />
    <path
       id="path273"
       d="m 0,0 c 0,-0.674 0.099,-1.157 0.296,-1.451 0.197,-0.295 0.466,-0.442 0.806,-0.442 0.349,0 0.62,0.144 0.811,0.432 C 2.104,-1.173 2.2,-0.655 2.2,0.091 2.2,0.719 2.1,1.178 1.9,1.467 1.7,1.757 1.43,1.901 1.087,1.901 0.76,1.901 0.496,1.754 0.298,1.46 0.099,1.166 0,0.679 0,0 m -1.627,0.009 c 0,1.089 0.239,1.936 0.719,2.543 0.478,0.606 1.144,0.91 1.999,0.91 0.876,0 1.551,-0.298 2.024,-0.894 C 3.589,1.972 3.826,1.137 3.826,0.063 3.826,-0.716 3.723,-1.355 3.516,-1.854 3.309,-2.354 3.01,-2.741 2.618,-3.019 2.227,-3.296 1.739,-3.436 1.155,-3.436 c -0.593,0 -1.085,0.121 -1.473,0.36 -0.389,0.24 -0.704,0.619 -0.946,1.138 -0.242,0.518 -0.363,1.167 -0.363,1.947"
       style="fill:#ffffff;fill-opacity:1;fill-rule:nonzero;stroke:none"
       transform="matrix(0.35277776,0,0,-0.35277776,116.20413,156.70509)"
       clip-path="url(#clipPath274)" />
    <path
       id="path275"
       d="m 0,0 1.547,0.123 c 0.034,-0.318 0.102,-0.56 0.205,-0.727 0.167,-0.271 0.407,-0.406 0.718,-0.406 0.232,0 0.411,0.07 0.537,0.207 0.125,0.138 0.188,0.298 0.188,0.481 0,0.173 -0.06,0.327 -0.179,0.464 C 2.896,0.278 2.618,0.407 2.183,0.528 1.47,0.731 0.961,1.001 0.657,1.338 0.351,1.675 0.197,2.104 0.197,2.625 0.197,2.968 0.276,3.292 0.433,3.597 0.59,3.901 0.825,4.142 1.14,4.315 1.454,4.49 1.886,4.577 2.434,4.577 3.106,4.577 3.619,4.419 3.972,4.102 4.325,3.785 4.535,3.28 4.602,2.589 L 3.069,2.476 C 3.028,2.775 2.943,2.994 2.813,3.131 2.683,3.267 2.502,3.335 2.272,3.335 2.083,3.335 1.94,3.284 1.846,3.183 1.749,3.081 1.701,2.958 1.701,2.813 1.701,2.706 1.741,2.61 1.82,2.525 1.896,2.438 2.078,2.355 2.366,2.279 3.076,2.086 3.586,1.89 3.894,1.69 4.2,1.492 4.425,1.245 4.564,0.951 4.704,0.657 4.774,0.328 4.774,-0.036 4.774,-0.464 4.681,-0.858 4.494,-1.219 4.308,-1.58 4.047,-1.854 3.712,-2.04 3.377,-2.227 2.954,-2.32 2.444,-2.32 1.55,-2.32 0.93,-2.102 0.585,-1.665 0.24,-1.228 0.046,-0.673 0,0"
       style="fill:#ffffff;fill-opacity:1;fill-rule:nonzero;stroke:none"
       transform="matrix(0.35277776,0,0,-0.35277776,118.02235,157.09844)"
       clip-path="url(#clipPath276)" />
    <path
       id="path277"
       d="m 465.74,353.51 h -18.611 v 18.611 h 18.611 z"
       style="fill:#ffffff;fill-opacity:1;fill-rule:nonzero;stroke:none"
       transform="matrix(0.35277776,0,0,-0.35277776,-44.356321,278.77784)"
       clip-path="url(#clipPath278)" />
    <path
       id="path279"
       d="M 0,0 C 0.138,-0.077 0.277,-0.15 0.413,-0.23 0.607,-0.346 0.653,-0.539 0.585,-0.74 0.479,-1.06 0.361,-1.374 0.249,-1.691 0.062,-2.218 -0.126,-2.744 -0.312,-3.271 -0.43,-3.603 -0.543,-3.937 -0.664,-4.268 c -0.103,-0.278 -0.265,-0.368 -0.56,-0.319 -0.251,0.042 -0.502,0.087 -0.753,0.136 -0.419,0.082 -0.765,-0.043 -1.036,-0.493 -0.239,-0.4 -0.341,-0.845 -0.4,-1.298 -0.154,-1.176 -0.135,-2.352 0.074,-3.521 0.063,-0.348 0.159,-0.688 0.319,-1.007 0.109,-0.215 0.241,-0.411 0.451,-0.544 0.205,-0.13 0.423,-0.163 0.656,-0.114 0.239,0.051 0.478,0.102 0.718,0.155 0.404,0.087 0.535,0.016 0.686,-0.371 l 1.298,-3.293 c 0.014,-0.035 0.026,-0.071 0.038,-0.107 0.077,-0.242 0.021,-0.405 -0.196,-0.544 -0.165,-0.104 -0.336,-0.201 -0.502,-0.304 -0.263,-0.163 -0.547,-0.23 -0.856,-0.212 -0.33,0.018 -0.661,0.041 -0.992,0.042 -0.359,0.001 -0.645,0.14 -0.902,0.383 -0.441,0.417 -0.813,0.889 -1.129,1.404 -0.628,1.024 -1.051,2.132 -1.338,3.296 -0.222,0.9 -0.354,1.812 -0.389,2.739 -0.044,1.156 0.077,2.297 0.327,3.426 0.147,0.663 0.345,1.31 0.598,1.941 0.257,0.643 0.573,1.256 0.971,1.823 0.24,0.342 0.512,0.659 0.819,0.946 0.173,0.16 0.373,0.259 0.61,0.279 0.412,0.034 0.823,0.065 1.235,0.099 0.274,0.023 0.526,-0.046 0.765,-0.179 C -0.1,0.065 -0.048,0.037 0.005,0.008 0.003,0.005 0.002,0.002 0,0"
       style="fill:#000000;fill-opacity:1;fill-rule:nonzero;stroke:none"
       transform="matrix(0.35277776,0,0,-0.35277776,117.34713,148.01829)"
       clip-path="url(#clipPath280)" />
    <path
       id="path281"
       d="M 0,0 H -29.137 C -30.6,0 -31.79,-1.175 -31.79,-2.619 v -40.718 c 0,-1.443 1.19,-2.619 2.653,-2.619 H 0 c 1.475,0 2.676,1.176 2.676,2.619 V -2.619 C 2.676,-1.175 1.475,0 0,0"
       style="fill:#ffffff;fill-opacity:1;fill-rule:nonzero;stroke:none"
       transform="matrix(0.35277776,0,0,-0.35277776,108.03274,143.88515)"
       clip-path="url(#clipPath282)" />
    <path
       id="path283"
       d="m 0,0 c -0.689,0 -1.251,-0.562 -1.251,-1.253 v -40.351 c 0,-0.689 0.562,-1.25 1.251,-1.25 h 28.771 c 0.702,0 1.272,0.561 1.272,1.25 V -1.253 C 30.043,-0.562 29.473,0 28.771,0 Z"
       style="fill:#4467a5;fill-opacity:1;fill-rule:nonzero;stroke:none"
       transform="matrix(0.35277776,0,0,-0.35277776,97.818412,144.43231)"
       clip-path="url(#clipPath284)" />
    <path
       id="path285"
       d="m 426.718,345.978 h -18.612 v 18.612 h 18.612 z"
       style="fill:#ffffff;fill-opacity:1;fill-rule:nonzero;stroke:none"
       transform="matrix(0.35277776,0,0,-0.35277776,-44.356321,278.77784)"
       clip-path="url(#clipPath286)" />
    <path
       id="path287"
       d="m 0,0 c 0,-0.394 -0.173,-0.592 -0.526,-0.592 -0.35,0 -0.527,0.198 -0.527,0.592 v 3.97 h -0.258 v -9.564 c 0,-0.393 -0.217,-0.592 -0.648,-0.592 -0.432,0 -0.645,0.199 -0.645,0.592 v 5.66 h -0.34 v -5.66 c 0,-0.393 -0.214,-0.592 -0.645,-0.592 -0.432,0 -0.649,0.199 -0.649,0.592 V 3.97 H -4.496 V 0 c 0,-0.394 -0.177,-0.592 -0.526,-0.592 -0.353,0 -0.527,0.198 -0.527,0.592 v 4.55 c 0,0.74 0.479,1.11 1.44,1.11 H -1.43 C -0.476,5.66 0,5.29 0,4.55 Z M -1.641,7.06 C -1.641,6.73 -1.752,6.436 -1.979,6.174 -2.203,5.911 -2.472,5.78 -2.785,5.78 c -0.312,0 -0.58,0.131 -0.804,0.394 -0.228,0.262 -0.34,0.556 -0.34,0.886 0,0.326 0.112,0.602 0.333,0.833 0.224,0.23 0.492,0.347 0.811,0.347 0.313,0 0.582,-0.117 0.806,-0.347 0.227,-0.231 0.338,-0.507 0.338,-0.833 m -5.476,-8.567 h -1.311 v -4.09 c 0,-0.393 -0.22,-0.589 -0.658,-0.589 -0.432,0 -0.645,0.196 -0.645,0.589 v 4.09 h -0.33 v -4.09 c 0,-0.393 -0.217,-0.589 -0.655,-0.589 -0.425,0 -0.638,0.196 -0.638,0.589 v 4.09 h -1.352 l 1.341,2.929 v 2.793 h -0.248 V 1.603 c 0,-0.387 -0.176,-0.581 -0.527,-0.581 -0.359,0 -0.536,0.194 -0.536,0.581 v 2.612 c 0,0.836 0.476,1.256 1.43,1.256 h 2.679 c 0.955,0 1.429,-0.42 1.429,-1.256 V 1.603 c 0,-0.387 -0.166,-0.581 -0.506,-0.581 -0.353,0 -0.526,0.194 -0.526,0.581 V 4.215 H -8.428 V 1.422 Z m -1.651,8.266 c 0,-0.323 -0.112,-0.6 -0.333,-0.83 -0.223,-0.231 -0.488,-0.347 -0.8,-0.347 -0.32,0 -0.588,0.116 -0.812,0.347 -0.221,0.23 -0.333,0.507 -0.333,0.83 0,0.327 0.112,0.603 0.333,0.834 0.224,0.23 0.492,0.346 0.812,0.346 0.312,0 0.577,-0.116 0.8,-0.346 0.221,-0.231 0.333,-0.507 0.333,-0.834"
       style="fill:#221f1f;fill-opacity:1;fill-rule:nonzero;stroke:none"
       transform="matrix(0.35277776,0,0,-0.35277776,105.13855,153.80385)"
       clip-path="url(#clipPath288)" />
    <path
       id="path289"
       d="M 0,0 V 3.973 H -1.419 V 4.781 H 2.382 V 3.973 H 0.966 V 0 Z"
       style="fill:#ffffff;fill-opacity:1;fill-rule:nonzero;stroke:none"
       transform="matrix(0.35277776,0,0,-0.35277776,99.243987,148.09943)"
       clip-path="url(#clipPath290)" />
    <path
       id="path291"
       d="m 0,0 c 0,-0.541 0.125,-0.951 0.375,-1.231 0.25,-0.28 0.567,-0.419 0.952,-0.419 0.386,0 0.701,0.138 0.948,0.416 0.247,0.277 0.371,0.693 0.371,1.248 0,0.548 -0.121,0.956 -0.361,1.225 C 2.045,1.509 1.726,1.645 1.327,1.645 0.93,1.645 0.608,1.508 0.365,1.234 0.122,0.962 0,0.551 0,0 m -0.995,-0.032 c 0,0.487 0.073,0.895 0.219,1.226 0.108,0.243 0.256,0.462 0.445,0.656 0.187,0.193 0.393,0.337 0.618,0.43 0.298,0.126 0.642,0.19 1.03,0.19 0.705,0 1.269,-0.219 1.692,-0.657 0.424,-0.436 0.635,-1.044 0.635,-1.823 0,-0.771 -0.21,-1.376 -0.63,-1.811 -0.419,-0.437 -0.981,-0.655 -1.683,-0.655 -0.711,0 -1.277,0.217 -1.696,0.652 -0.42,0.433 -0.63,1.03 -0.63,1.792"
       style="fill:#ffffff;fill-opacity:1;fill-rule:nonzero;stroke:none"
       transform="matrix(0.35277776,0,0,-0.35277776,100.54362,147.25524)"
       clip-path="url(#clipPath292)" />
    <path
       id="path293"
       d="m 415.108,375.208 h 0.966 v -4.781 h -0.966 z"
       style="fill:#ffffff;fill-opacity:1;fill-rule:nonzero;stroke:none"
       transform="matrix(0.35277776,0,0,-0.35277776,-44.356321,278.77784)"
       clip-path="url(#clipPath294)" />
    <path
       id="path295"
       d="M 0,0 V 4.742 H 0.966 V 0.806 H 3.367 V 0 Z"
       style="fill:#ffffff;fill-opacity:1;fill-rule:nonzero;stroke:none"
       transform="matrix(0.35277776,0,0,-0.35277776,102.75871,148.09943)"
       clip-path="url(#clipPath296)" />
    <path
       id="path297"
       d="M 0,0 V 4.781 H 3.546 V 3.973 H 0.965 V 2.912 H 3.366 V 2.106 H 0.965 v -1.3 H 3.637 V 0 Z"
       style="fill:#ffffff;fill-opacity:1;fill-rule:nonzero;stroke:none"
       transform="matrix(0.35277776,0,0,-0.35277776,104.18958,148.09943)"
       clip-path="url(#clipPath298)" />
    <path
       id="path299"
       d="M 0,0 V 3.973 H -1.419 V 4.781 H 2.382 V 3.973 H 0.966 V 0 Z"
       style="fill:#ffffff;fill-opacity:1;fill-rule:nonzero;stroke:none"
       transform="matrix(0.35277776,0,0,-0.35277776,106.14115,148.09943)"
       clip-path="url(#clipPath300)" />
    <path
       id="path301"
       d="m 0,0 -21.71,-0.187 c -0.995,-0.009 -1.911,-0.543 -2.408,-1.405 l -25.983,-45.002 c -0.502,-0.87 -0.502,-1.94 0,-2.81 l 25.797,-44.681 c 0.501,-0.868 1.427,-1.403 2.43,-1.404 l 21.615,-0.025 c 2.164,-0.003 3.519,2.34 2.437,4.215 l -24.189,41.895 c -0.502,0.87 -0.502,1.94 0,2.81 L 2.457,-4.214 C 3.544,-2.332 2.174,0.02 0,0"
       style="fill:#ffffff;fill-opacity:1;fill-rule:nonzero;stroke:none"
       transform="matrix(0.35277776,0,0,-0.35277776,91.208417,126.13831)"
       clip-path="url(#clipPath302)" />
  </g>
</svg>
