<?xml version="1.0" encoding="UTF-8" standalone="no"?>
<!-- Created with Inkscape (http://www.inkscape.org/) -->

<svg
   width="44.999977mm"
   height="59.999737mm"
   viewBox="0 0 44.999977 59.999737"
   version="1.1"
   id="svg1"
   inkscape:version="1.4 (86a8ad7, 2024-10-11)"
   sodipodi:docname="rest.svg"
   xmlns:inkscape="http://www.inkscape.org/namespaces/inkscape"
   xmlns:sodipodi="http://sodipodi.sourceforge.net/DTD/sodipodi-0.dtd"
   xmlns="http://www.w3.org/2000/svg"
   xmlns:svg="http://www.w3.org/2000/svg">
  <sodipodi:namedview
     id="namedview1"
     pagecolor="#ffffff"
     bordercolor="#000000"
     borderopacity="0.25"
     inkscape:showpageshadow="2"
     inkscape:pageopacity="0.0"
     inkscape:pagecheckerboard="0"
     inkscape:deskcolor="#d1d1d1"
     inkscape:document-units="mm"
     inkscape:zoom="1.4378367"
     inkscape:cx="8.3458713"
     inkscape:cy="132.14296"
     inkscape:window-width="1147"
     inkscape:window-height="1032"
     inkscape:window-x="52"
     inkscape:window-y="0"
     inkscape:window-maximized="0"
     inkscape:current-layer="g4075" />
  <defs
     id="defs1">
    <inkscape:path-effect
       effect="fillet_chamfer"
       id="path-effect1"
       is_visible="true"
       lpeversion="1"
       nodesatellites_param="F,0,0,1,0,0,0,1 @ F,0,0,1,0,0,0,1 @ F,0,0,1,0,0,0,1 @ F,0,0,1,0,0,0,1"
       radius="0"
       unit="px"
       method="auto"
       mode="F"
       chamfer_steps="1"
       flexible="false"
       use_knot_distance="true"
       apply_no_radius="true"
       apply_with_radius="true"
       only_selected="false"
       hide_knots="false" />
    <clipPath
       clipPathUnits="userSpaceOnUse"
       id="clipPath4010">
      <path
         d="M 0,841.89 H 595.276 V 0 H 0 Z"
         transform="translate(-166.51401,-731.52902)"
         id="path4010" />
    </clipPath>
    <clipPath
       clipPathUnits="userSpaceOnUse"
       id="clipPath4012">
      <path
         d="M 0,841.89 H 595.276 V 0 H 0 Z"
         transform="translate(-59.355001,-725.79102)"
         id="path4012" />
    </clipPath>
    <clipPath
       clipPathUnits="userSpaceOnUse"
       id="clipPath4014">
      <path
         d="M 0,841.89 H 595.276 V 0 H 0 Z"
         id="path4014" />
    </clipPath>
    <clipPath
       clipPathUnits="userSpaceOnUse"
       id="clipPath4016">
      <path
         d="M 0,841.89 H 595.276 V 0 H 0 Z"
         transform="translate(-132.939,-632.53702)"
         id="path4016" />
    </clipPath>
    <clipPath
       clipPathUnits="userSpaceOnUse"
       id="clipPath4018">
      <path
         d="M 0,841.89 H 595.276 V 0 H 0 Z"
         transform="translate(-446.64601,-731.52902)"
         id="path4018" />
    </clipPath>
    <clipPath
       clipPathUnits="userSpaceOnUse"
       id="clipPath4020">
      <path
         d="M 0,841.89 H 595.276 V 0 H 0 Z"
         transform="translate(-339.48701,-725.79102)"
         id="path4020" />
    </clipPath>
    <clipPath
       clipPathUnits="userSpaceOnUse"
       id="clipPath4022">
      <path
         d="M 0,841.89 H 595.276 V 0 H 0 Z"
         id="path4022" />
    </clipPath>
    <clipPath
       clipPathUnits="userSpaceOnUse"
       id="clipPath4024">
      <path
         d="M 0,841.89 H 595.276 V 0 H 0 Z"
         transform="translate(-409.44701,-659.97202)"
         id="path4024" />
    </clipPath>
    <clipPath
       clipPathUnits="userSpaceOnUse"
       id="clipPath4028">
      <path
         d="M 0,841.89 H 595.276 V 0 H 0 Z"
         transform="translate(-166.51401,-483.03801)"
         id="path4028" />
    </clipPath>
    <clipPath
       clipPathUnits="userSpaceOnUse"
       id="clipPath4030">
      <path
         d="M 0,841.89 H 595.276 V 0 H 0 Z"
         transform="translate(-59.355001,-477.29901)"
         id="path4030" />
    </clipPath>
    <clipPath
       clipPathUnits="userSpaceOnUse"
       id="clipPath4032">
      <path
         d="M 0,841.89 H 595.276 V 0 H 0 Z"
         id="path4032" />
    </clipPath>
    <clipPath
       clipPathUnits="userSpaceOnUse"
       id="clipPath4034">
      <path
         d="M 0,841.89 H 595.276 V 0 H 0 Z"
         transform="translate(-126.208,-398.81301)"
         id="path4034" />
    </clipPath>
  </defs>
  <g
     inkscape:label="Layer 1"
     inkscape:groupmode="layer"
     id="layer1"
     transform="translate(-82.549999,-118.53333)">
    <g
       id="g4075"
       transform="matrix(0.26458333,0,0,0.26458333,65.313981,79.600425)">
      <g
         id="g1">
        <path
           style="fill:#ffffff;stroke:#ffffff;stroke-width:0.877059"
           id="rect1"
           width="169.20169"
           height="225.89459"
           x="65.582489"
           y="147.58603"
           inkscape:path-effect="#path-effect1"
           sodipodi:type="rect"
           d="M 65.582489,147.58603 H 234.78418 V 373.48062 H 65.582489 Z" />
        <g
           id="g2"
           transform="matrix(3.7795276,0,0,3.7795276,-266.85601,-192.85267)">
          <path
             id="path4027"
             d="m 0,0 h -107.833 c -5.417,0 -9.823,-4.347 -9.823,-9.69 v -150.698 c 0,-5.341 4.406,-9.691 9.823,-9.691 H 0 c 5.458,0 9.903,4.35 9.903,9.691 V -9.69 C 9.903,-4.347 5.458,0 0,0 m 0,-0.573 c 5.145,0 9.33,-4.09 9.33,-9.117 v -150.698 c 0,-5.028 -4.185,-9.119 -9.33,-9.119 h -107.833 c -5.101,0 -9.25,4.091 -9.25,9.119 V -9.69 c 0,5.027 4.149,9.117 9.25,9.117 L 0,-0.573"
             style="fill:#4467a5;fill-opacity:1;fill-rule:nonzero;stroke:none"
             transform="matrix(0.35277776,0,0,-0.35277776,129.34809,89.958332)"
             clip-path="url(#clipPath4028)" />
          <path
             id="path4029"
             d="M 0,0 C -2.552,0 -4.628,-2.079 -4.628,-4.635 V -153.97 c 0,-2.553 2.076,-4.633 4.628,-4.633 h 106.484 c 2.594,0 4.704,2.08 4.704,4.633 V -4.635 c 0,2.556 -2.11,4.635 -4.704,4.635 z"
             style="fill:#4467a5;fill-opacity:1;fill-rule:nonzero;stroke:none"
             transform="matrix(0.35277776,0,0,-0.35277776,91.544773,91.982923)"
             clip-path="url(#clipPath4030)" />
          <path
             id="path4031"
             d="M 147.079,363.558 H 78.197 v 68.882 h 68.882 z"
             style="fill:#ffffff;fill-opacity:1;fill-rule:nonzero;stroke:none"
             transform="matrix(0.35277776,0,0,-0.35277776,70.605648,260.3634)"
             clip-path="url(#clipPath4032)" />
          <path
             id="path4033"
             d="m 0,0 c 0,0 8.022,2.251 10.495,2.251 2.552,0 4.724,-1.876 4.724,-5.547 v -9.674 l -2.172,-0.599 -0.825,0.225 v 2.776 l -16.793,-4.799 v -3.225 l -2.253,-0.597 -2.249,0.597 v 3.225 l -30.813,8.695 v -2.771 l -0.826,-0.302 -1.649,0.599 V 2.999 c 0,3.224 1.201,4.872 2.699,6.072 1.425,1.276 5.322,2.774 10.046,2.774 4.797,0 11.321,-1.275 11.321,-5.622 v -2.4 C -12.296,3.3 -6.298,2.175 0,0 m -6.749,-6.448 c 0,2.401 1.726,4.425 4.425,5.473 0,0 -6.823,2.1 -9.746,2.776 -2.923,0.749 -6.748,1.348 -8.249,1.348 -1.575,0 -3.9,0 -6.372,-0.974 -2.401,-0.976 -4.348,-2.251 -4.424,-3.375 0,-0.374 0.15,-1.799 2.625,-2.621 l 21.741,-6.074 z m -25.34,4.574 c -0.751,1.498 0.598,2.322 2.473,3.446 1.95,1.053 4.349,1.877 6.898,2.027 0.75,0 2.174,0 2.174,0.899 0,1.124 -3.898,2.698 -7.422,2.698 -4.723,0 -9.521,-3.373 -9.521,-6.374 0,-2.994 2.773,-3.219 3.223,-3.219 0.524,0 1.575,0.149 2.175,0.523"
             style="fill:#000000;fill-opacity:1;fill-rule:nonzero;stroke:none"
             transform="matrix(0.35277776,0,0,-0.35277776,115.12902,119.67104)"
             clip-path="url(#clipPath4034)" />
        </g>
      </g>
    </g>
  </g>
</svg>
