<?xml version="1.0" encoding="UTF-8" standalone="no"?>
<!-- Created with Inkscape (http://www.inkscape.org/) -->

<svg
   width="50mm"
   height="50mm"
   viewBox="0 0 50 50"
   version="1.1"
   id="svg1"
   inkscape:version="1.4 (86a8ad7, 2024-10-11)"
   sodipodi:docname="restriction ends.svg"
   xmlns:inkscape="http://www.inkscape.org/namespaces/inkscape"
   xmlns:sodipodi="http://sodipodi.sourceforge.net/DTD/sodipodi-0.dtd"
   xmlns="http://www.w3.org/2000/svg"
   xmlns:svg="http://www.w3.org/2000/svg">
  <sodipodi:namedview
     id="namedview1"
     pagecolor="#ffffff"
     bordercolor="#000000"
     borderopacity="0.25"
     inkscape:showpageshadow="2"
     inkscape:pageopacity="0.0"
     inkscape:pagecheckerboard="0"
     inkscape:deskcolor="#d1d1d1"
     inkscape:document-units="mm"
     inkscape:zoom="0.71891835"
     inkscape:cx="-272.63179"
     inkscape:cy="341.48523"
     inkscape:window-width="1920"
     inkscape:window-height="1009"
     inkscape:window-x="-8"
     inkscape:window-y="-8"
     inkscape:window-maximized="1"
     inkscape:current-layer="layer1" />
  <defs
     id="defs1">
    <clipPath
       clipPathUnits="userSpaceOnUse"
       id="clipPath62">
      <path
         d="M 0,841.89 H 595.276 V 0 H 0 Z"
         transform="translate(-290.45401,-108.601)"
         id="path62" />
    </clipPath>
    <clipPath
       clipPathUnits="userSpaceOnUse"
       id="clipPath64">
      <path
         d="M 0,841.89 H 595.276 V 0 H 0 Z"
         transform="translate(-333.23801,-235.61301)"
         id="path64" />
    </clipPath>
    <clipPath
       clipPathUnits="userSpaceOnUse"
       id="clipPath62-2">
      <path
         d="M 0,841.89 H 595.276 V 0 H 0 Z"
         transform="translate(-290.45401,-108.601)"
         id="path62-4" />
    </clipPath>
    <clipPath
       clipPathUnits="userSpaceOnUse"
       id="clipPath64-5">
      <path
         d="M 0,841.89 H 595.276 V 0 H 0 Z"
         transform="translate(-333.23801,-235.61301)"
         id="path64-5" />
    </clipPath>
  </defs>
  <g
     inkscape:label="Layer 1"
     inkscape:groupmode="layer"
     id="layer1"
     transform="translate(-80,-123.5)">
    <g
       id="g1">
      <circle
         style="fill:#ffffff;stroke:none;stroke-width:1.88927"
         id="path1"
         cx="105"
         cy="148.5"
         r="25" />
      <path
         id="path61-1"
         d="m 0,0 -13.362,13.362 99.028,99.03 13.362,-13.364 z"
         style="fill:#000000;fill-opacity:1;fill-rule:nonzero;stroke:none"
         transform="matrix(0.35277776,0,0,-0.35277776,89.906756,168.30706)"
         clip-path="url(#clipPath62-2)" />
      <path
         id="path63-1"
         d="m 0,0 c -39.139,0 -70.866,-31.729 -70.866,-70.866 0,-39.139 31.727,-70.866 70.866,-70.866 39.138,0 70.866,31.727 70.866,70.866 C 70.866,-31.729 39.138,0 0,0 m 0,-1.056 c 38.494,0 69.811,-31.317 69.811,-69.81 0,-38.494 -31.317,-69.811 -69.811,-69.811 -38.494,0 -69.811,31.317 -69.811,69.811 0,38.493 31.317,69.81 69.811,69.81"
         style="fill:#000000;fill-opacity:1;fill-rule:nonzero;stroke:none"
         transform="matrix(0.35277776,0,0,-0.35277776,105,123.50005)"
         clip-path="url(#clipPath64-5)" />
    </g>
  </g>
</svg>
