<?xml version="1.0" encoding="UTF-8" standalone="no"?>
<!-- Created with Inkscape (http://www.inkscape.org/) -->

<svg
   width="38.885635mm"
   height="51.847397mm"
   viewBox="0 0 38.885636 51.847397"
   version="1.1"
   id="svg1"
   inkscape:version="1.4 (86a8ad7, 2024-10-11)"
   sodipodi:docname="scooter and motorcycle  parking.svg"
   xmlns:inkscape="http://www.inkscape.org/namespaces/inkscape"
   xmlns:sodipodi="http://sodipodi.sourceforge.net/DTD/sodipodi-0.dtd"
   xmlns="http://www.w3.org/2000/svg"
   xmlns:svg="http://www.w3.org/2000/svg">
  <sodipodi:namedview
     id="namedview1"
     pagecolor="#ffffff"
     bordercolor="#000000"
     borderopacity="0.25"
     inkscape:showpageshadow="2"
     inkscape:pageopacity="0.0"
     inkscape:pagecheckerboard="0"
     inkscape:deskcolor="#d1d1d1"
     inkscape:document-units="mm"
     inkscape:zoom="2.8756734"
     inkscape:cx="87.979393"
     inkscape:cy="124.31871"
     inkscape:window-width="1920"
     inkscape:window-height="1009"
     inkscape:window-x="-8"
     inkscape:window-y="-8"
     inkscape:window-maximized="1"
     inkscape:current-layer="layer1" />
  <defs
     id="defs1">
    <clipPath
       clipPathUnits="userSpaceOnUse"
       id="clipPath4">
      <path
         d="M 0,841.89 H 595.276 V 0 H 0 Z"
         transform="translate(-431.55501,-66.122927)"
         id="path4" />
    </clipPath>
    <clipPath
       clipPathUnits="userSpaceOnUse"
       id="clipPath6">
      <path
         d="M 0,841.89 H 595.276 V 0 H 0 Z"
         transform="translate(-545.64901,-182.217)"
         id="path6" />
    </clipPath>
    <clipPath
       clipPathUnits="userSpaceOnUse"
       id="clipPath8">
      <path
         d="M 0,841.89 H 595.276 V 0 H 0 Z"
         transform="translate(-501.30701,-127.005)"
         id="path8" />
    </clipPath>
    <clipPath
       clipPathUnits="userSpaceOnUse"
       id="clipPath5553">
      <path
         d="M 0,841.89 H 595.276 V 0 H 0 Z"
         transform="translate(-151.35801,-729.50702)"
         id="path5553" />
    </clipPath>
    <clipPath
       clipPathUnits="userSpaceOnUse"
       id="clipPath5555">
      <path
         d="M 0,841.89 H 595.276 V 0 H 0 Z"
         transform="translate(-58.177001,-587.26201)"
         id="path5555" />
    </clipPath>
    <clipPath
       clipPathUnits="userSpaceOnUse"
       id="clipPath5557">
      <path
         d="M 0,841.89 H 595.276 V 0 H 0 Z"
         transform="translate(-112.815,-696.64601)"
         id="path5557" />
    </clipPath>
    <clipPath
       clipPathUnits="userSpaceOnUse"
       id="clipPath5559">
      <path
         d="M 0,841.89 H 595.276 V 0 H 0 Z"
         transform="translate(-145.866,-593.51302)"
         id="path5559" />
    </clipPath>
    <clipPath
       clipPathUnits="userSpaceOnUse"
       id="clipPath5561">
      <path
         d="M 0,841.89 H 595.276 V 0 H 0 Z"
         transform="translate(-124.09,-615.17702)"
         id="path5561" />
    </clipPath>
    <clipPath
       clipPathUnits="userSpaceOnUse"
       id="clipPath5483">
      <path
         d="M 0,841.89 H 595.276 V 0 H 0 Z"
         transform="translate(-409.86901,-627.04301)"
         id="path5483" />
    </clipPath>
    <clipPath
       clipPathUnits="userSpaceOnUse"
       id="clipPath5493">
      <path
         d="M 0,841.89 H 595.276 V 0 H 0 Z"
         transform="translate(-65.578402,-373.09601)"
         id="path5493" />
    </clipPath>
    <clipPath
       clipPathUnits="userSpaceOnUse"
       id="clipPath5503">
      <path
         d="M 0,841.89 H 595.276 V 0 H 0 Z"
         transform="translate(-365.41501,-379.94401)"
         id="path5503" />
    </clipPath>
    <clipPath
       clipPathUnits="userSpaceOnUse"
       id="clipPath5505">
      <path
         d="M 0,841.89 H 595.276 V 0 H 0 Z"
         transform="translate(-409.65201,-379.94401)"
         id="path5505" />
    </clipPath>
    <clipPath
       clipPathUnits="userSpaceOnUse"
       id="clipPath5511">
      <path
         d="M 0,841.89 H 595.276 V 0 H 0 Z"
         transform="translate(-414.54801,-381.20801)"
         id="path5511" />
    </clipPath>
  </defs>
  <rect
     style="fill:#ffffff;fill-opacity:1;stroke:none;stroke-width:2.221;stroke-opacity:1"
     id="rect1"
     width="36.664997"
     height="49.625999"
     x="86.666161"
     y="121.17709"
     transform="translate(-85.590467,-120.1014)" />
  <g
     inkscape:label="Layer 1"
     inkscape:groupmode="layer"
     id="layer1"
     transform="translate(-85.590466,-120.1014)">
    <path
       id="path5552"
       d="m 0,0 h -93.181 c -4.68,0 -8.488,-3.756 -8.488,-8.375 v -130.22 c 0,-4.616 3.808,-8.374 8.488,-8.374 H 0 c 4.716,0 8.558,3.758 8.558,8.374 V -8.375 C 8.558,-3.756 4.716,0 0,0 m 0,-0.495 c 4.445,0 8.063,-3.535 8.063,-7.88 v -130.22 c 0,-4.344 -3.618,-7.879 -8.063,-7.879 h -93.181 c -4.407,0 -7.993,3.535 -7.993,7.879 v 130.22 c 0,4.345 3.586,7.88 7.993,7.88 H 0"
       style="fill:#4467a5;fill-opacity:1;fill-rule:nonzero;stroke:none"
       transform="matrix(0.35277776,0,0,-0.35277776,121.45703,120.1014)"
       clip-path="url(#clipPath5553)" />
    <path
       id="path5554"
       d="m 0,0 c -0.824,0 -1.455,0.451 -1.839,0.83 -0.724,0.714 -1.138,1.742 -1.138,2.82 v 130.22 c 0,1.079 0.414,2.108 1.138,2.821 0.384,0.378 1.014,0.83 1.839,0.83 h 93.181 c 0.858,0 1.508,-0.459 1.902,-0.844 0.727,-0.712 1.144,-1.735 1.144,-2.807 V 3.65 C 96.227,2.579 95.81,1.557 95.082,0.845 94.688,0.459 94.039,0 93.181,0 Z"
       style="fill:#4467a5;fill-opacity:1;fill-rule:nonzero;stroke:none"
       transform="matrix(0.35277776,0,0,-0.35277776,88.584841,170.28228)"
       clip-path="url(#clipPath5555)" />
    <path
       id="path5556"
       d="m 0,0 c -0.81,-1.178 -1.914,-2.036 -3.325,-2.589 -1.411,-0.552 -4.222,-0.822 -8.418,-0.822 h -5.817 v 14.946 h 5.142 c 3.828,0 6.381,-0.11 7.657,-0.355 1.718,-0.307 3.154,-1.093 4.271,-2.332 C 0.639,7.596 1.203,6.014 1.203,4.1 1.203,2.54 0.798,1.179 0,0 m 9.117,14.505 c -2.036,2.65 -4.576,4.369 -7.595,5.154 -1.963,0.528 -6.185,0.797 -12.652,0.797 h -17.069 v -52.704 h 10.639 v 19.88 h 6.933 c 4.823,0 8.505,0.257 11.045,0.76 1.865,0.405 3.705,1.24 5.509,2.491 1.816,1.264 3.301,2.994 4.479,5.203 1.178,2.196 1.767,4.921 1.767,8.16 0,4.185 -1.019,7.608 -3.056,10.259"
       style="fill:#ffffff;fill-opacity:1;fill-rule:nonzero;stroke:none"
       transform="matrix(0.35277776,0,0,-0.35277776,107.85991,131.69403)"
       clip-path="url(#clipPath5557)" />
    <path
       id="path5558"
       d="m 0,0 h -82.127 c -1.699,0 -3.077,1.378 -3.077,3.077 v 57.965 c 0,1.7 1.378,3.078 3.077,3.078 H 0 c 1.699,0 3.077,-1.378 3.077,-3.078 V 3.077 C 3.077,1.378 1.699,0 0,0"
       style="fill:#ffffff;fill-opacity:1;fill-rule:nonzero;stroke:none"
       transform="matrix(0.35277776,0,0,-0.35277776,119.51957,168.07706)"
       clip-path="url(#clipPath5559)" />
    <g
       id="g5563"
       transform="matrix(0.26458333,0,0,0.26458333,-32.0835,-5.8061074)"
       style="fill:#000000">
      <path
         id="path5502"
         d="m 0,0 v 0 c 5.714,0 10.347,-4.635 10.347,-10.347 0,-5.71 -4.633,-10.344 -10.347,-10.344 -5.711,0 -10.348,4.634 -10.348,10.344 C -10.348,-4.635 -5.711,0 0,0 m 0,-3.949 v 0 c 3.533,0 6.399,-2.866 6.399,-6.398 0,-3.532 -2.866,-6.397 -6.399,-6.397 -3.531,0 -6.397,2.865 -6.397,6.397 0,3.532 2.866,6.398 6.397,6.398 m 0,-2.528 v 0 c 2.18,0 3.949,-1.735 3.949,-3.87 0,-2.135 -1.769,-3.87 -3.949,-3.87 -2.18,0 -3.95,1.735 -3.95,3.87 0,2.135 1.77,3.87 3.95,3.87"
         style="fill:#000000;fill-opacity:1;fill-rule:evenodd;stroke:none"
         transform="matrix(1.3333333,0,0,-1.3333333,487.22,615.928)"
         clip-path="url(#clipPath5503)" />
      <path
         id="path5504"
         d="m 0,0 v 0 c 5.667,0 10.269,-4.635 10.269,-10.347 0,-5.71 -4.602,-10.344 -10.269,-10.344 -5.67,0 -10.271,4.634 -10.271,10.344 C -10.271,-4.635 -5.67,0 0,0 m 0,-3.949 v 0 c 3.53,0 6.396,-2.866 6.396,-6.398 0,-3.532 -2.866,-6.397 -6.396,-6.397 -3.534,0 -6.399,2.865 -6.399,6.397 0,3.532 2.865,6.398 6.399,6.398 m 0,-2.528 v 0 c 2.136,0 3.868,-1.735 3.868,-3.87 0,-2.135 -1.732,-3.87 -3.868,-3.87 -2.139,0 -3.871,1.735 -3.871,3.87 0,2.135 1.732,3.87 3.871,3.87"
         style="fill:#000000;fill-opacity:1;fill-rule:evenodd;stroke:none"
         transform="matrix(1.3333333,0,0,-1.3333333,546.20267,615.928)"
         clip-path="url(#clipPath5505)" />
      <path
         id="path5510"
         d="M 0,0 C 4.582,-1.977 7.74,-6.477 7.74,-11.689 H 3.475 l -2.133,5.53 -7.031,3 -7.108,-4.737 v -8.769 h -8.926 -10.9 c -3.713,0 -4.897,2.527 -4.897,4.976 0,6.476 -5.293,11.768 -11.692,11.768 L -49.37,0 v 4.344 h 2.608 c 2.052,0 5.291,1.107 6.634,3.08 l 5.293,8.213 c 0.71,1.105 1.107,0.473 0.946,-0.158 L -36.02,6.397 c -0.316,-1.105 1.026,-1.897 2.131,-0.79 l 2.687,2.449 2.924,4.818 v 0.553 l -0.002,0.079 h -0.077 c -1.316,0 -2.397,0.869 -2.448,1.973 h -0.002 v 3.24 h -0.947 c 0.236,2.211 1.579,4.026 4.187,4.026 2.605,0 4.029,-1.815 4.029,-4.026 0,-2.056 -0.475,-2.056 -0.793,-2.686 v -1.422 c 0.318,0 0.713,0 1.345,-0.238 0.552,-0.314 2.763,-1.104 3.237,-1.42 0.476,-0.237 0.634,-0.316 1.265,-0.948 l 5.055,-5.29 c 1.185,-1.185 1.264,-2.53 1.264,-3.635 h 10.347 c 1.422,0 1.898,-0.87 1.898,-2.606 z m -25.988,6.083 -8.137,-4.661 6.636,-2.686 4.344,4.423 c -1.264,0.788 -1.975,1.499 -2.843,2.924 M -15.01,-9.4 c 0.556,2.45 1.977,4.581 3.871,6.004 0.316,0.314 0.237,0.631 -0.237,0.631 h -4.265 V -9.4 c 0,-0.394 0.553,-0.553 0.631,0"
         style="fill:#000000;fill-opacity:1;fill-rule:evenodd;stroke:none"
         transform="matrix(1.3333333,0,0,-1.3333333,552.73067,614.24267)"
         clip-path="url(#clipPath5511)" />
    </g>
  </g>
</svg>
