<?xml version="1.0" encoding="UTF-8" standalone="no"?>
<!-- Created with Inkscape (http://www.inkscape.org/) -->

<svg
   width="45.000004mm"
   height="74.319389mm"
   viewBox="0 0 45.000004 74.31939"
   version="1.1"
   id="svg1"
   inkscape:version="1.4 (86a8ad7, 2024-10-11)"
   sodipodi:docname="shared taxi and  share auto stand.svg"
   xmlns:inkscape="http://www.inkscape.org/namespaces/inkscape"
   xmlns:sodipodi="http://sodipodi.sourceforge.net/DTD/sodipodi-0.dtd"
   xmlns="http://www.w3.org/2000/svg"
   xmlns:svg="http://www.w3.org/2000/svg">
  <sodipodi:namedview
     id="namedview1"
     pagecolor="#ffffff"
     bordercolor="#000000"
     borderopacity="0.25"
     inkscape:showpageshadow="2"
     inkscape:pageopacity="0.0"
     inkscape:pagecheckerboard="0"
     inkscape:deskcolor="#d1d1d1"
     inkscape:document-units="mm"
     inkscape:zoom="2.0334082"
     inkscape:cx="119.74969"
     inkscape:cy="125.15933"
     inkscape:window-width="1920"
     inkscape:window-height="1009"
     inkscape:window-x="-8"
     inkscape:window-y="-8"
     inkscape:window-maximized="1"
     inkscape:current-layer="g4075" />
  <defs
     id="defs1">
    <rect
       x="7.650382"
       y="169.35164"
       width="218.38364"
       height="59.464333"
       id="rect3" />
    <rect
       x="26.080849"
       y="26.776337"
       width="146.05275"
       height="37.556419"
       id="rect2" />
    <inkscape:path-effect
       effect="fillet_chamfer"
       id="path-effect1"
       is_visible="true"
       lpeversion="1"
       nodesatellites_param="F,0,0,1,0,0,0,1 @ F,0,0,1,0,0,0,1 @ F,0,0,1,0,0,0,1 @ F,0,0,1,0,0,0,1"
       radius="0"
       unit="px"
       method="auto"
       mode="F"
       chamfer_steps="1"
       flexible="false"
       use_knot_distance="true"
       apply_no_radius="true"
       apply_with_radius="true"
       only_selected="false"
       hide_knots="false" />
    <clipPath
       clipPathUnits="userSpaceOnUse"
       id="clipPath4010">
      <path
         d="M 0,841.89 H 595.276 V 0 H 0 Z"
         transform="translate(-166.51401,-731.52902)"
         id="path4010" />
    </clipPath>
    <clipPath
       clipPathUnits="userSpaceOnUse"
       id="clipPath4012">
      <path
         d="M 0,841.89 H 595.276 V 0 H 0 Z"
         transform="translate(-59.355001,-725.79102)"
         id="path4012" />
    </clipPath>
    <clipPath
       clipPathUnits="userSpaceOnUse"
       id="clipPath4014">
      <path
         d="M 0,841.89 H 595.276 V 0 H 0 Z"
         id="path4014" />
    </clipPath>
    <clipPath
       clipPathUnits="userSpaceOnUse"
       id="clipPath4016">
      <path
         d="M 0,841.89 H 595.276 V 0 H 0 Z"
         transform="translate(-132.939,-632.53702)"
         id="path4016" />
    </clipPath>
    <clipPath
       clipPathUnits="userSpaceOnUse"
       id="clipPath4018">
      <path
         d="M 0,841.89 H 595.276 V 0 H 0 Z"
         transform="translate(-446.64601,-731.52902)"
         id="path4018" />
    </clipPath>
    <clipPath
       clipPathUnits="userSpaceOnUse"
       id="clipPath4020">
      <path
         d="M 0,841.89 H 595.276 V 0 H 0 Z"
         transform="translate(-339.48701,-725.79102)"
         id="path4020" />
    </clipPath>
    <clipPath
       clipPathUnits="userSpaceOnUse"
       id="clipPath4022">
      <path
         d="M 0,841.89 H 595.276 V 0 H 0 Z"
         id="path4022" />
    </clipPath>
    <clipPath
       clipPathUnits="userSpaceOnUse"
       id="clipPath4024">
      <path
         d="M 0,841.89 H 595.276 V 0 H 0 Z"
         transform="translate(-409.44701,-659.97202)"
         id="path4024" />
    </clipPath>
    <clipPath
       clipPathUnits="userSpaceOnUse"
       id="clipPath1000">
      <path
         d="M 0,0 H 595.276 V 841.89 H 0 Z"
         transform="translate(-166.51401,-731.47102)"
         id="path1000" />
    </clipPath>
    <clipPath
       clipPathUnits="userSpaceOnUse"
       id="clipPath1002">
      <path
         d="M 0,0 H 595.276 V 841.89 H 0 Z"
         transform="translate(-59.354602,-725.73102)"
         id="path1002" />
    </clipPath>
    <clipPath
       clipPathUnits="userSpaceOnUse"
       id="clipPath1004">
      <path
         d="M 0,0 H 595.276 V 841.89 H 0 Z"
         transform="translate(-94.148605,-610.35401)"
         id="path1004" />
    </clipPath>
    <clipPath
       clipPathUnits="userSpaceOnUse"
       id="clipPath1006">
      <path
         d="M 0,0 H 595.276 V 841.89 H 0 Z"
         id="path1006" />
    </clipPath>
    <clipPath
       clipPathUnits="userSpaceOnUse"
       id="clipPath1008">
      <path
         d="M 0,0 H 595.276 V 841.89 H 0 Z"
         transform="translate(-141.47001,-653.96302)"
         id="path1008" />
    </clipPath>
    <clipPath
       clipPathUnits="userSpaceOnUse"
       id="clipPath1010">
      <path
         d="M 0,0 H 595.276 V 841.89 H 0 Z"
         id="path1010" />
    </clipPath>
    <clipPath
       clipPathUnits="userSpaceOnUse"
       id="clipPath1012">
      <path
         d="M 0,0 H 595.276 V 841.89 H 0 Z"
         transform="translate(-122.364,-682.30502)"
         id="path1012" />
    </clipPath>
    <clipPath
       clipPathUnits="userSpaceOnUse"
       id="clipPath1156">
      <path
         d="M 0,841.89 H 595.276 V 0 H 0 Z"
         transform="translate(-446.60801,-731.50002)"
         id="path1156" />
    </clipPath>
    <clipPath
       clipPathUnits="userSpaceOnUse"
       id="clipPath1158">
      <path
         d="M 0,841.89 H 595.276 V 0 H 0 Z"
         transform="translate(-339.44801,-725.76202)"
         id="path1158" />
    </clipPath>
    <clipPath
       clipPathUnits="userSpaceOnUse"
       id="clipPath1160">
      <path
         d="M 0,841.89 H 595.276 V 0 H 0 Z"
         id="path1160" />
    </clipPath>
    <clipPath
       clipPathUnits="userSpaceOnUse"
       id="clipPath1162">
      <path
         d="M 0,841.89 H 595.276 V 0 H 0 Z"
         transform="translate(-399.90201,-688.14002)"
         id="path1162" />
    </clipPath>
    <clipPath
       clipPathUnits="userSpaceOnUse"
       id="clipPath1166">
      <path
         d="M 0,841.89 H 595.276 V 0 H 0 Z"
         transform="translate(-168.13701,-485.24801)"
         id="path1166" />
    </clipPath>
    <clipPath
       clipPathUnits="userSpaceOnUse"
       id="clipPath1168">
      <path
         d="M 0,841.89 H 595.276 V 0 H 0 Z"
         transform="translate(-60.977702,-479.51001)"
         id="path1168" />
    </clipPath>
    <clipPath
       clipPathUnits="userSpaceOnUse"
       id="clipPath1170">
      <path
         d="M 0,841.89 H 595.276 V 0 H 0 Z"
         transform="translate(-138.622,-407.33201)"
         id="path1170" />
    </clipPath>
    <clipPath
       clipPathUnits="userSpaceOnUse"
       id="clipPath1007">
      <path
         d="M 0,841.89 H 595.276 V 0 H 0 Z"
         transform="translate(-166.752,-731.50002)"
         id="path1007" />
    </clipPath>
    <clipPath
       clipPathUnits="userSpaceOnUse"
       id="clipPath1009">
      <path
         d="M 0,841.89 H 595.276 V 0 H 0 Z"
         transform="translate(-59.592802,-725.76202)"
         id="path1009" />
    </clipPath>
    <clipPath
       clipPathUnits="userSpaceOnUse"
       id="clipPath1011">
      <path
         d="M 0,841.89 H 595.276 V 0 H 0 Z"
         id="path1011" />
    </clipPath>
    <clipPath
       clipPathUnits="userSpaceOnUse"
       id="clipPath1013">
      <path
         d="M 0,841.89 H 595.276 V 0 H 0 Z"
         transform="translate(-118.70601,-673.88102)"
         id="path1013" />
    </clipPath>
    <clipPath
       clipPathUnits="userSpaceOnUse"
       id="clipPath1015">
      <path
         d="M 0,841.89 H 595.276 V 0 H 0 Z"
         transform="translate(-123.664,-640.92401)"
         id="path1015" />
    </clipPath>
    <clipPath
       clipPathUnits="userSpaceOnUse"
       id="clipPath1023">
      <path
         d="M 0,841.89 H 595.276 V 0 H 0 Z"
         transform="translate(-375.64601,-621.74402)"
         id="path1023" />
    </clipPath>
    <clipPath
       clipPathUnits="userSpaceOnUse"
       id="clipPath1029">
      <path
         d="M 0,841.89 H 595.276 V 0 H 0 Z"
         id="path1029" />
    </clipPath>
    <clipPath
       clipPathUnits="userSpaceOnUse"
       id="clipPath1031">
      <path
         d="m 86.891,371.984 h 51.97 v 51.969 h -51.97 z"
         transform="translate(-108.942,-390.79301)"
         id="path1031" />
    </clipPath>
    <clipPath
       clipPathUnits="userSpaceOnUse"
       id="clipPath1033">
      <path
         d="m 86.891,371.984 h 51.97 v 51.969 h -51.97 z"
         transform="translate(-148.42401,-407.59701)"
         id="path1033" />
    </clipPath>
    <clipPath
       clipPathUnits="userSpaceOnUse"
       id="clipPath1035">
      <path
         d="m 86.891,371.984 h 51.97 v 51.969 h -51.97 z"
         transform="translate(-116.1,-390.48901)"
         id="path1035" />
    </clipPath>
    <clipPath
       clipPathUnits="userSpaceOnUse"
       id="clipPath1037">
      <path
         d="m 86.891,371.984 h 51.97 v 51.969 h -51.97 z"
         transform="translate(-118.399,-396.10401)"
         id="path1037" />
    </clipPath>
    <clipPath
       clipPathUnits="userSpaceOnUse"
       id="clipPath1039">
      <path
         d="m 86.891,371.984 h 51.97 v 51.969 h -51.97 z"
         transform="translate(-100.858,-408.56701)"
         id="path1039" />
    </clipPath>
    <clipPath
       clipPathUnits="userSpaceOnUse"
       id="clipPath1041">
      <path
         d="m 86.891,371.984 h 51.97 v 51.969 h -51.97 z"
         transform="translate(-116.412,-406.55201)"
         id="path1041" />
    </clipPath>
    <clipPath
       clipPathUnits="userSpaceOnUse"
       id="clipPath1043">
      <path
         d="m 86.891,371.984 h 51.97 v 51.969 h -51.97 z"
         transform="translate(-116.1,-393.12401)"
         id="path1043" />
    </clipPath>
    <clipPath
       clipPathUnits="userSpaceOnUse"
       id="clipPath1045">
      <path
         d="m 86.891,371.984 h 51.97 v 51.969 h -51.97 z"
         transform="translate(-103.10001,-393.12401)"
         id="path1045" />
    </clipPath>
    <clipPath
       clipPathUnits="userSpaceOnUse"
       id="clipPath1047">
      <path
         d="m 86.891,371.984 h 51.97 v 51.969 h -51.97 z"
         transform="translate(-100.852,-408.39101)"
         id="path1047" />
    </clipPath>
    <clipPath
       clipPathUnits="userSpaceOnUse"
       id="clipPath1049">
      <path
         d="m 86.891,371.984 h 51.97 v 51.969 h -51.97 z"
         transform="translate(-148.318,-416.40201)"
         id="path1049" />
    </clipPath>
    <clipPath
       clipPathUnits="userSpaceOnUse"
       id="clipPath1051">
      <path
         d="m 86.891,371.984 h 51.97 v 51.969 h -51.97 z"
         transform="translate(-127.252,-404.72201)"
         id="path1051" />
    </clipPath>
    <clipPath
       clipPathUnits="userSpaceOnUse"
       id="clipPath1053">
      <path
         d="m 86.891,371.984 h 51.97 v 51.969 h -51.97 z"
         transform="translate(-135.25401,-409.57201)"
         id="path1053" />
    </clipPath>
    <clipPath
       clipPathUnits="userSpaceOnUse"
       id="clipPath1055">
      <path
         d="m 86.891,371.984 h 51.97 v 51.969 h -51.97 z"
         transform="translate(-136.5,-413.83301)"
         id="path1055" />
    </clipPath>
    <clipPath
       clipPathUnits="userSpaceOnUse"
       id="clipPath1057">
      <path
         d="m 86.891,371.984 h 51.97 v 51.969 h -51.97 z"
         transform="translate(-140.895,-412.77601)"
         id="path1057" />
    </clipPath>
    <clipPath
       clipPathUnits="userSpaceOnUse"
       id="clipPath1059">
      <path
         d="m 86.891,371.984 h 51.97 v 51.969 h -51.97 z"
         transform="translate(-106.993,-409.35601)"
         id="path1059" />
    </clipPath>
    <clipPath
       clipPathUnits="userSpaceOnUse"
       id="clipPath9">
      <path
         d="M 0,841.89 H 595.276 V 0 H 0 Z"
         transform="translate(-84.240205,-145.804)"
         id="path9" />
    </clipPath>
    <clipPath
       clipPathUnits="userSpaceOnUse"
       id="clipPath5020">
      <path
         d="M 0,841.89 H 595.276 V 0 H 0 Z"
         transform="translate(-373.87801,-350.72801)"
         id="path5020" />
    </clipPath>
    <clipPath
       clipPathUnits="userSpaceOnUse"
       id="clipPath5016">
      <path
         d="M 0,841.89 H 595.276 V 0 H 0 Z"
         transform="translate(-373.87901,-350.72901)"
         id="path5016" />
    </clipPath>
    <clipPath
       clipPathUnits="userSpaceOnUse"
       id="clipPath6038">
      <path
         d="M 0,841.89 H 595.276 V 0 H 0 Z"
         transform="translate(-370.89501,-170.097)"
         id="path6038" />
    </clipPath>
  </defs>
  <g
     inkscape:label="Layer 1"
     inkscape:groupmode="layer"
     id="layer1"
     transform="translate(-82.549987,-118.53333)">
    <g
       id="g4075"
       transform="matrix(0.26458333,0,0,0.26458333,65.313981,79.600425)">
      <g
         id="g5"
         transform="translate(0,6.6925541e-4)">
        <path
           style="fill:#ffffff;stroke:#ffffff;stroke-width:0.877059"
           id="rect1"
           width="169.20169"
           height="225.89459"
           x="65.582489"
           y="147.58603"
           inkscape:path-effect="#path-effect1"
           sodipodi:type="rect"
           d="M 65.582489,147.58603 H 234.78418 V 373.48062 H 65.582489 Z" />
        <path
           id="path1006-8"
           d="m 0,0 h -107.833 c -5.417,0 -9.823,-4.346 -9.823,-9.691 v -150.697 c 0,-5.342 4.406,-9.691 9.823,-9.691 H 0 c 5.458,0 9.903,4.349 9.903,9.691 V -9.691 C 9.903,-4.346 5.458,0 0,0 m 0,-0.572 c 5.145,0 9.331,-4.091 9.331,-9.119 v -150.697 c 0,-5.027 -4.186,-9.118 -9.331,-9.118 h -107.833 c -5.101,0 -9.25,4.091 -9.25,9.118 V -9.691 c 0,5.028 4.149,9.119 9.25,9.119 L 0,-0.572"
           style="fill:#4467a5;fill-opacity:1;fill-rule:nonzero;stroke:none"
           transform="matrix(1.3333333,0,0,-1.3333333,222.01867,147.14732)"
           clip-path="url(#clipPath1007)" />
        <path
           id="path1008-8"
           d="m 0,0 c -2.552,0 -4.627,-2.08 -4.627,-4.636 v -149.335 c 0,-2.554 2.075,-4.633 4.627,-4.633 h 106.485 c 2.594,0 4.704,2.079 4.704,4.633 V -4.636 c 0,2.556 -2.11,4.636 -4.704,4.636 z"
           style="fill:#4467a5;fill-opacity:1;fill-rule:nonzero;stroke:none"
           transform="matrix(1.3333333,0,0,-1.3333333,79.142002,154.79732)"
           clip-path="url(#clipPath1009)" />
        <path
           id="path1028"
           d="M 147.317,363.528 H 78.435 v 68.882 h 68.882 z"
           style="fill:#ffffff;fill-opacity:1;fill-rule:nonzero;stroke:none"
           transform="matrix(1.3333333,0,0,-1.3333333,-0.31799581,791.15864)"
           clip-path="url(#clipPath1029)" />
        <path
           style="fill:#000000;stroke-width:0.187956"
           d="m 148.35634,302.45441 c -1.90178,-0.37501 -3.71253,-1.83479 -4.65417,-3.75205 l -0.50524,-1.0287 -0.0554,-5.68161 -0.0554,-5.6816 -0.9427,-0.10632 c -0.51848,-0.0585 -2.24925,-0.20134 -3.84616,-0.31747 -1.59691,-0.11614 -4.97239,-0.42441 -7.50107,-0.68505 -2.52867,-0.26065 -4.62359,-0.4739 -4.65537,-0.4739 -0.0319,0 -0.0883,1.20456 -0.12561,2.6768 -0.12981,5.12268 -2.38493,7.53491 -7.04422,7.53491 -4.9811,0 -6.94313,-2.35539 -7.04685,-8.45962 l -0.0612,-3.60151 -0.68183,-0.45776 c -1.89804,-1.27426 -1.85782,-0.89561 -1.79183,-16.86841 l 0.0546,-13.23796 0.40663,-0.8161 c 0.3803,-0.76324 1.2383,-1.61988 1.86172,-1.85874 0.18086,-0.0693 1.50882,-4.40671 3.95753,-12.92607 4.99084,-17.36379 4.82915,-16.92262 6.53159,-17.8222 l 0.85258,-0.45051 h 27.12935 27.12934 l 0.85258,0.45051 c 1.70244,0.89958 1.54076,0.45841 6.53159,17.8222 2.44871,8.51936 3.77668,12.85677 3.95754,12.92607 0.62341,0.23886 1.48141,1.0955 1.86172,1.85874 l 0.40662,0.8161 0.0547,13.23796 c 0.066,15.9728 0.1062,15.59415 -1.79182,16.86841 l -0.68185,0.45776 -0.0612,3.60151 c -0.10373,6.10423 -2.06576,8.45962 -7.04687,8.45962 -4.60341,0 -6.90869,-2.41903 -7.04149,-7.38891 -0.0842,-3.14996 0.45662,-2.88865 -4.8474,-2.34218 -2.49363,0.25691 -5.84044,0.56214 -7.43736,0.6783 -1.59692,0.11614 -3.32769,0.25902 -3.84618,0.3175 l -0.94268,0.10632 -0.0554,5.6816 -0.0554,5.68161 -0.50523,1.0287 c -1.45683,2.96623 -4.75043,4.45362 -8.30835,3.75205 z m -23.68972,-33.18703 c 4.73067,-1.52735 3.69318,-9.29219 -1.61781,-12.10809 -5.16714,-2.73961 -9.45543,1.69559 -6.93312,7.17064 1.72628,3.74714 5.49592,5.92379 8.55093,4.93745 z m 54.57157,-0.12099 c 4.99712,-1.80593 7.47229,-8.36368 4.37487,-11.59082 -2.69897,-2.81198 -8.23177,-0.66907 -10.25641,3.97242 -2.17163,4.97844 1.17861,9.31803 5.88154,7.6184 z m -58.17786,-20.77442 c 0.75403,-2.15262 2.23397,-3.91947 4.44355,-5.30498 2.07217,-1.29934 2.26123,-1.32534 3.65611,-0.50281 2.83328,1.67073 6.23667,1.59089 8.90689,-0.20893 1.91533,-1.291 7.9428,3.77482 7.9428,6.67558 0,0.19141 0.27064,0.26586 0.96664,0.26586 0.95122,0 0.96547,-0.009 0.89372,-0.53537 -0.15462,-1.13513 1.85123,-3.24406 4.25759,-4.47639 l 1.30908,-0.67039 0.55111,0.42098 0.55111,0.421 -0.51903,0.814 c -0.71756,1.12537 -1.02861,1.81388 -1.35717,3.00411 l -0.28213,1.02206 h 0.98828 c 0.71429,0 0.98829,-0.0737 0.98829,-0.26586 0,-2.90076 6.02746,-7.96658 7.9428,-6.67558 2.67023,1.79982 6.07361,1.87966 8.90689,0.20893 1.39488,-0.82253 1.58393,-0.79653 3.65611,0.50281 2.20958,1.38551 3.68952,3.15236 4.44355,5.30498 0.29176,0.83294 1.36339,1.45348 1.36339,0.7895 0,-0.68391 -4.31875,-21.49589 -4.70138,-22.65585 -1.34846,-4.08792 1.47187,-3.68488 -25.7851,-3.68488 -27.36855,0 -24.48713,-0.43379 -25.85895,3.89311 -0.34906,1.10097 -4.62755,21.85536 -4.62755,22.44762 0,0.66398 1.07165,0.0435 1.3634,-0.7895 z m 25.2809,-3.06023 -0.48505,-0.85783 0.93872,-0.75721 0.93872,-0.7572 0.77284,0.3639 0.77284,0.36391 -1.22502,1.25728 c -0.67377,0.69149 -1.2257,1.25451 -1.22651,1.25112 -9e-4,-0.004 -0.21976,-0.39218 -0.48654,-0.86397 z m -2.78137,-3.04569 c -0.39922,-0.32751 -1.2826,-0.89859 -1.96306,-1.26907 -0.68046,-0.37046 -1.21067,-0.73519 -1.17824,-0.8105 0.0324,-0.0754 0.33044,-0.69608 0.66223,-1.37953 1.16066,-2.39074 1.35848,-4.97445 0.56608,-7.3931 l -0.34244,-1.04522 1.12772,0.0797 c 5.68058,0.40172 7.78982,8.48395 3.0863,11.8262 -1.02827,0.73068 -1.05768,0.73056 -1.95859,-0.009 z m 11.25585,-0.0147 c -4.67147,-3.31947 -2.53533,-11.40309 3.11899,-11.80296 l 1.12772,-0.0797 -0.33984,1.04428 c -0.9384,2.88364 -0.66978,4.81651 1.21926,8.77324 0.0358,0.0752 -0.45066,0.41431 -1.08116,0.75372 -0.6305,0.33942 -1.52478,0.91307 -1.98728,1.2748 -1.02526,0.80187 -0.98192,0.80109 -2.05769,0.0367 z m -22.70513,-0.54322 c -5.88961,-1.33008 -7.51379,-9.77725 -2.55839,-13.30587 4.23297,-3.0142 9.74138,-0.48572 10.64411,4.88588 0.82353,4.90042 -3.54176,9.44618 -8.08572,8.41999 z m 33.50577,-0.0218 c -4.52204,-0.95097 -6.86971,-6.33097 -4.68585,-10.73828 2.85914,-5.77014 10.98481,-4.76964 12.58704,1.54982 1.33658,5.27171 -2.93033,10.23379 -7.90119,9.18846 z"
           id="path1" />
        <g
           id="g1"
           transform="translate(-0.9733234,-8.8521332)">
          <g
             id="g4"
             style="clip-rule:evenodd;fill-rule:evenodd;image-rendering:optimizeQuality;shape-rendering:geometricPrecision;text-rendering:geometricPrecision"
             transform="matrix(0.09789184,0,0,0.10344512,73.794997,393.18606)">
            <g
               id="g27">
              <g
                 id="g26"
                 transform="translate(-5.3344595,243.60698)">
                <g
                   id="g2"
                   transform="translate(7.1126126,-243.60698)">
                  <path
                     style="opacity:1"
                     fill="#020202"
                     d="m 1576.5,52.5 c 1.33,106.329 1.33,212.663 0,319 -7.72,28.387 -26.06,45.387 -55,51 -489.67,0 -979.333,0 -1469,0 -27.8233,-6.491 -45.48995,-23.491 -53,-51 0,-106.667 0,-213.333 0,-320 C 7.06826,23.1038 25.4016,6.27048 54.5,1 298.833,0.833333 543.167,0.666667 787.5,0.5 c 244.33,0.166667 488.67,0.333333 733,0.5 30.02,4.85111 48.68,22.0178 56,51.5 z"
                     id="path2" />
                </g>
                <g
                   id="g3"
                   transform="translate(7.1126126,-243.60698)">
                  <path
                     style="opacity:1"
                     fill="#fefefe"
                     d="m 57.5,18.5 c 488.686,-0.4959 977.35,0.0041 1466,1.5 19.8,5.4634 31.63,18.2967 35.5,38.5 0.99,103.696 0.65,207.363 -1,311 -5.38,18.043 -17.21,29.21 -35.5,33.5 -490,0.667 -980,0.667 -1470,0 C 32.2376,397.404 20.4043,384.238 17,363.5 16.3333,261.833 16.3333,160.167 17,58.5 21.7945,36.2046 35.2945,22.8713 57.5,18.5 Z"
                     id="path3" />
                </g>
              </g>
            </g>
            <path
               d="m 67.353043,233.67499 27,-2.625 q 2.4375,13.59375 9.843747,19.96875 7.5,6.375 20.15625,6.375 13.40625,0 20.15625,-5.625 6.84375,-5.71875 6.84375,-13.3125 0,-4.875 -2.90625,-8.25 -2.8125,-3.46875 -9.9375,-6 -4.875,-1.6875 -22.21875,-6 -22.312497,-5.53125 -31.312497,-13.59375 -12.65625,-11.34375 -12.65625,-27.65625 0,-10.5 5.90625,-19.59375 6,-9.1875 17.15625,-13.96875 11.249997,-4.78125 27.093747,-4.78125 25.875,0 38.90625,11.34375 13.125,11.34375 13.78125,30.28125 l -27.75,1.21875 q -1.78125,-10.59375 -7.6875,-15.1875 -5.8125,-4.6875 -17.53125,-4.6875 -12.09375,0 -18.9375,4.96875 -4.406247,3.1875 -4.406247,8.53125 0,4.875 4.124997,8.34375 5.25,4.40625 25.5,9.1875 20.25,4.78125 29.90625,9.9375 9.75,5.0625 15.1875,13.96875 5.53125,8.8125 5.53125,21.84375 0,11.8125 -6.5625,22.125 -6.5625,10.3125 -18.5625,15.375 -12,4.96875 -29.90625,4.96875 -26.062497,0 -40.031247,-12 -13.96875,-12.09375 -16.6875,-35.15625 z M 228.50929,140.95624 v 50.53125 q 12.75,-14.90625 30.46875,-14.90625 9.09375,0 16.40625,3.375 7.3125,3.375 10.96875,8.625 3.75,5.25 5.0625,11.625 1.40625,6.375 1.40625,19.78125 v 58.40625 h -26.34375 v -52.59375 q 0,-15.65625 -1.5,-19.875 -1.5,-4.21875 -5.34375,-6.65625 -3.75,-2.53125 -9.46875,-2.53125 -6.5625,0 -11.71875,3.1875 -5.15625,3.1875 -7.59375,9.65625 -2.34375,6.375 -2.34375,18.9375 v 49.875 h -26.34375 v -137.4375 z m 110.71875,68.25 -23.90625,-4.3125 q 4.03125,-14.4375 13.875,-21.375 9.84375,-6.9375 29.25,-6.9375 17.625,0 26.25,4.21875 8.625,4.125 12.09375,10.59375 3.5625,6.375 3.5625,23.53125 l -0.28125,30.75 q 0,13.125 1.21875,19.40625 1.3125,6.1875 4.78125,13.3125 h -26.0625 q -1.03125,-2.625 -2.53125,-7.78125 -0.65625,-2.34375 -0.9375,-3.09375 -6.75,6.5625 -14.4375,9.84375 -7.6875,3.28125 -16.40625,3.28125 -15.375,0 -24.28125,-8.34375 -8.8125,-8.34375 -8.8125,-21.09375 0,-8.4375 4.03125,-15 4.03125,-6.65625 11.25,-10.125 7.3125,-3.5625 21,-6.1875 18.46875,-3.46875 25.59375,-6.46875 v -2.625 q 0,-7.59375 -3.75,-10.78125 -3.75,-3.28125 -14.15625,-3.28125 -7.03125,0 -10.96875,2.8125 -3.9375,2.71875 -6.375,9.65625 z m 35.25,21.375 q -5.0625,1.6875 -16.03125,4.03125 -10.96875,2.34375 -14.34375,4.59375 -5.15625,3.65625 -5.15625,9.28125 0,5.53125 4.125,9.5625 4.125,4.03125 10.5,4.03125 7.125,0 13.59375,-4.6875 4.78125,-3.5625 6.28125,-8.71875 1.03125,-3.375 1.03125,-12.84375 z m 77.0625,47.8125 h -26.34375 v -99.5625 h 24.46875 v 14.15625 q 6.28125,-10.03125 11.25,-13.21875 5.0625,-3.1875 11.4375,-3.1875 9,0 17.34375,4.96875 l -8.15625,22.96875 q -6.65625,-4.3125 -12.375,-4.3125 -5.53125,0 -9.375,3.09375 -3.84375,3 -6.09375,10.96875 -2.15625,7.96875 -2.15625,33.375 z m 107.15625,-31.6875 26.25,4.40625 q -5.0625,14.4375 -16.03125,22.03125 -10.875,7.5 -27.28125,7.5 -25.96875,0 -38.4375,-16.96875 -9.84375,-13.59375 -9.84375,-34.3125 0,-24.75 12.9375,-38.71875 12.9375,-14.0625 32.71875,-14.0625 22.21875,0 35.0625,14.71875 12.84375,14.625 12.28125,44.90625 h -66 q 0.28125,11.71875 6.375,18.28125 6.09375,6.46875 15.1875,6.46875 6.1875,0 10.40625,-3.375 4.21875,-3.375 6.375,-10.875 z m 1.5,-26.625 q -0.28125,-11.4375 -5.90625,-17.34375 -5.625,-6 -13.6875,-6 -8.625,0 -14.25,6.28125 -5.625,6.28125 -5.53125,17.0625 z m 132.09375,58.3125 v -114.1875 h -40.78125 v -23.25 h 109.21875 v 23.25 h -40.6875 v 114.1875 z m 91.59375,-69.1875 -23.90625,-4.3125 q 4.03125,-14.4375 13.875,-21.375 9.84375,-6.9375 29.25,-6.9375 17.625,0 26.25,4.21875 8.625,4.125 12.09375,10.59375 3.5625,6.375 3.5625,23.53125 l -0.28125,30.75 q 0,13.125 1.21875,19.40625 1.3125,6.1875 4.78125,13.3125 h -26.0625 q -1.03125,-2.625 -2.53125,-7.78125 -0.65625,-2.34375 -0.9375,-3.09375 -6.75,6.5625 -14.4375,9.84375 -7.6875,3.28125 -16.40625,3.28125 -15.375,0 -24.28125,-8.34375 -8.8125,-8.34375 -8.8125,-21.09375 0,-8.4375 4.03125,-15 4.03125,-6.65625 11.25,-10.125 7.3125,-3.5625 21,-6.1875 18.46875,-3.46875 25.59375,-6.46875 v -2.625 q 0,-7.59375 -3.75,-10.78125 -3.75,-3.28125 -14.15625,-3.28125 -7.03125,0 -10.96875,2.8125 -3.9375,2.71875 -6.375,9.65625 z m 35.25,21.375 q -5.0625,1.6875 -16.03125,4.03125 -10.96875,2.34375 -14.34375,4.59375 -5.15625,3.65625 -5.15625,9.28125 0,5.53125 4.125,9.5625 4.125,4.03125 10.5,4.03125 7.125,0 13.59375,-4.6875 4.78125,-3.5625 6.28125,-8.71875 1.03125,-3.375 1.03125,-12.84375 z m 39.1875,47.8125 35.90625,-51.28125 -34.40625,-48.28125 h 32.15625 l 17.625,27.375 18.5625,-27.375 h 30.9375 l -33.75,47.15625 36.84375,52.40625 h -32.34375 l -20.25,-30.84375 -20.4375,30.84375 z m 119.4375,-113.0625 v -24.375 h 26.34371 v 24.375 z m 0,113.0625 v -99.5625 h 26.34371 v 99.5625 z m 39.28121,2.34375 34.0313,-142.125 h 19.7812 l -34.4062,142.125 z m 191.5313,-2.34375 h -30.1875 l -12,-31.21875 h -54.9375 l -11.3438,31.21875 h -29.4375 l 53.5313,-137.4375 h 29.3437 z m -51.0938,-54.375 -18.9375,-51 -18.5625,51 z m 131.1563,54.375 v -14.90625 q -5.4375,7.96875 -14.3438,12.5625 -8.8125,4.59375 -18.6562,4.59375 -10.0313,0 -18,-4.40625 -7.9688,-4.40625 -11.5313,-12.375 -3.5625,-7.96875 -3.5625,-22.03125 v -63 h 26.3438 v 45.75 q 0,21 1.4062,25.78125 1.5,4.6875 5.3438,7.5 3.8437,2.71875 9.75,2.71875 6.75,0 12.0937,-3.65625 5.3438,-3.75 7.3125,-9.1875 1.9688,-5.53125 1.9688,-26.90625 v -42 h 26.3437 v 99.5625 z m 97.4062,-99.5625 v 21 h -18 v 40.125 q 0,12.1875 0.4688,14.25 0.5625,1.96875 2.3437,3.28125 1.875,1.3125 4.5,1.3125 3.6563,0 10.5938,-2.53125 l 2.25,20.4375 q -9.1875,3.9375 -20.8125,3.9375 -7.125,0 -12.8438,-2.34375 -5.7187,-2.4375 -8.4375,-6.1875 -2.625,-3.84375 -3.6562,-10.3125 -0.8438,-4.59375 -0.8438,-18.5625 v -43.40625 h -12.0937 v -21 h 12.0937 v -19.78125 l 26.4375,-15.375 v 35.15625 z m 12.1875,48.375 q 0,-13.125 6.4688,-25.40625 6.4687,-12.28125 18.2812,-18.75 11.9063,-6.46875 26.5313,-6.46875 22.5937,0 37.0312,14.71875 14.4375,14.625 14.4375,37.03125 0,22.59375 -14.625,37.5 -14.5312,14.8125 -36.6562,14.8125 -13.6875,0 -26.1563,-6.1875 -12.375,-6.1875 -18.8437,-18.09375 -6.4688,-12 -6.4688,-29.15625 z m 27,1.40625 q 0,14.8125 7.0313,22.6875 7.0312,7.875 17.3437,7.875 10.3125,0 17.25,-7.875 7.0313,-7.875 7.0313,-22.875 0,-14.625 -7.0313,-22.5 -6.9375,-7.875 -17.25,-7.875 -10.3125,0 -17.3437,7.875 -7.0313,7.875 -7.0313,22.6875 z"
               id="text3"
               style="font-weight:bold;font-size:192px;font-family:Arial;-inkscape-font-specification:'Arial, Bold';stroke-width:10"
               aria-label="Share Taxi/Auto" />
          </g>
        </g>
      </g>
    </g>
  </g>
</svg>
