<?xml version="1.0" encoding="UTF-8" standalone="no"?>
<!-- Created with Inkscape (http://www.inkscape.org/) -->

<svg
   width="38.885635mm"
   height="51.847397mm"
   viewBox="0 0 38.885636 51.847397"
   version="1.1"
   id="svg1"
   inkscape:version="1.4 (86a8ad7, 2024-10-11)"
   sodipodi:docname="taxi parking.svg"
   xmlns:inkscape="http://www.inkscape.org/namespaces/inkscape"
   xmlns:sodipodi="http://sodipodi.sourceforge.net/DTD/sodipodi-0.dtd"
   xmlns="http://www.w3.org/2000/svg"
   xmlns:svg="http://www.w3.org/2000/svg">
  <sodipodi:namedview
     id="namedview1"
     pagecolor="#ffffff"
     bordercolor="#000000"
     borderopacity="0.25"
     inkscape:showpageshadow="2"
     inkscape:pageopacity="0.0"
     inkscape:pagecheckerboard="0"
     inkscape:deskcolor="#d1d1d1"
     inkscape:document-units="mm"
     inkscape:zoom="2.8756734"
     inkscape:cx="87.979393"
     inkscape:cy="124.31871"
     inkscape:window-width="1920"
     inkscape:window-height="1009"
     inkscape:window-x="-8"
     inkscape:window-y="-8"
     inkscape:window-maximized="1"
     inkscape:current-layer="layer1" />
  <defs
     id="defs1">
    <clipPath
       clipPathUnits="userSpaceOnUse"
       id="clipPath4">
      <path
         d="M 0,841.89 H 595.276 V 0 H 0 Z"
         transform="translate(-431.55501,-66.122927)"
         id="path4" />
    </clipPath>
    <clipPath
       clipPathUnits="userSpaceOnUse"
       id="clipPath6">
      <path
         d="M 0,841.89 H 595.276 V 0 H 0 Z"
         transform="translate(-545.64901,-182.217)"
         id="path6" />
    </clipPath>
    <clipPath
       clipPathUnits="userSpaceOnUse"
       id="clipPath8">
      <path
         d="M 0,841.89 H 595.276 V 0 H 0 Z"
         transform="translate(-501.30701,-127.005)"
         id="path8" />
    </clipPath>
    <clipPath
       clipPathUnits="userSpaceOnUse"
       id="clipPath5553">
      <path
         d="M 0,841.89 H 595.276 V 0 H 0 Z"
         transform="translate(-151.35801,-729.50702)"
         id="path5553" />
    </clipPath>
    <clipPath
       clipPathUnits="userSpaceOnUse"
       id="clipPath5555">
      <path
         d="M 0,841.89 H 595.276 V 0 H 0 Z"
         transform="translate(-58.177001,-587.26201)"
         id="path5555" />
    </clipPath>
    <clipPath
       clipPathUnits="userSpaceOnUse"
       id="clipPath5557">
      <path
         d="M 0,841.89 H 595.276 V 0 H 0 Z"
         transform="translate(-112.815,-696.64601)"
         id="path5557" />
    </clipPath>
    <clipPath
       clipPathUnits="userSpaceOnUse"
       id="clipPath5559">
      <path
         d="M 0,841.89 H 595.276 V 0 H 0 Z"
         transform="translate(-145.866,-593.51302)"
         id="path5559" />
    </clipPath>
    <clipPath
       clipPathUnits="userSpaceOnUse"
       id="clipPath5561">
      <path
         d="M 0,841.89 H 595.276 V 0 H 0 Z"
         transform="translate(-124.09,-615.17702)"
         id="path5561" />
    </clipPath>
    <clipPath
       clipPathUnits="userSpaceOnUse"
       id="clipPath5483">
      <path
         d="M 0,841.89 H 595.276 V 0 H 0 Z"
         transform="translate(-409.86901,-627.04301)"
         id="path5483" />
    </clipPath>
    <clipPath
       clipPathUnits="userSpaceOnUse"
       id="clipPath5493">
      <path
         d="M 0,841.89 H 595.276 V 0 H 0 Z"
         transform="translate(-65.578402,-373.09601)"
         id="path5493" />
    </clipPath>
    <clipPath
       clipPathUnits="userSpaceOnUse"
       id="clipPath5503">
      <path
         d="M 0,841.89 H 595.276 V 0 H 0 Z"
         transform="translate(-365.41501,-379.94401)"
         id="path5503" />
    </clipPath>
    <clipPath
       clipPathUnits="userSpaceOnUse"
       id="clipPath5505">
      <path
         d="M 0,841.89 H 595.276 V 0 H 0 Z"
         transform="translate(-409.65201,-379.94401)"
         id="path5505" />
    </clipPath>
    <clipPath
       clipPathUnits="userSpaceOnUse"
       id="clipPath5511">
      <path
         d="M 0,841.89 H 595.276 V 0 H 0 Z"
         transform="translate(-414.54801,-381.20801)"
         id="path5511" />
    </clipPath>
    <clipPath
       clipPathUnits="userSpaceOnUse"
       id="clipPath5521">
      <path
         d="M 0,841.89 H 595.276 V 0 H 0 Z"
         transform="translate(-79.369404,-123.3)"
         id="path5521" />
    </clipPath>
    <clipPath
       clipPathUnits="userSpaceOnUse"
       id="clipPath5523">
      <path
         d="M 0,841.89 H 595.276 V 0 H 0 Z"
         transform="translate(-124.434,-123.3)"
         id="path5523" />
    </clipPath>
    <clipPath
       clipPathUnits="userSpaceOnUse"
       id="clipPath5525">
      <path
         d="M 0,841.89 H 595.276 V 0 H 0 Z"
         transform="translate(-140.476,-127.638)"
         id="path5525" />
    </clipPath>
    <clipPath
       clipPathUnits="userSpaceOnUse"
       id="clipPath5527">
      <path
         d="M 0,841.89 H 595.276 V 0 H 0 Z"
         transform="translate(-88.025702,-134.602)"
         id="path5527" />
    </clipPath>
    <clipPath
       clipPathUnits="userSpaceOnUse"
       id="clipPath5529">
      <path
         d="M 0,841.89 H 595.276 V 0 H 0 Z"
         transform="translate(-120.747,-145.257)"
         id="path5529" />
    </clipPath>
  </defs>
  <rect
     style="fill:#ffffff;fill-opacity:1;stroke:none;stroke-width:2.221;stroke-opacity:1"
     id="rect1"
     width="36.664997"
     height="49.625999"
     x="86.666161"
     y="121.17709"
     transform="translate(-85.590467,-120.1014)" />
  <g
     inkscape:label="Layer 1"
     inkscape:groupmode="layer"
     id="layer1"
     transform="translate(-85.590466,-120.1014)">
    <path
       id="path5552"
       d="m 0,0 h -93.181 c -4.68,0 -8.488,-3.756 -8.488,-8.375 v -130.22 c 0,-4.616 3.808,-8.374 8.488,-8.374 H 0 c 4.716,0 8.558,3.758 8.558,8.374 V -8.375 C 8.558,-3.756 4.716,0 0,0 m 0,-0.495 c 4.445,0 8.063,-3.535 8.063,-7.88 v -130.22 c 0,-4.344 -3.618,-7.879 -8.063,-7.879 h -93.181 c -4.407,0 -7.993,3.535 -7.993,7.879 v 130.22 c 0,4.345 3.586,7.88 7.993,7.88 H 0"
       style="fill:#4467a5;fill-opacity:1;fill-rule:nonzero;stroke:none"
       transform="matrix(0.35277776,0,0,-0.35277776,121.45703,120.1014)"
       clip-path="url(#clipPath5553)" />
    <path
       id="path5554"
       d="m 0,0 c -0.824,0 -1.455,0.451 -1.839,0.83 -0.724,0.714 -1.138,1.742 -1.138,2.82 v 130.22 c 0,1.079 0.414,2.108 1.138,2.821 0.384,0.378 1.014,0.83 1.839,0.83 h 93.181 c 0.858,0 1.508,-0.459 1.902,-0.844 0.727,-0.712 1.144,-1.735 1.144,-2.807 V 3.65 C 96.227,2.579 95.81,1.557 95.082,0.845 94.688,0.459 94.039,0 93.181,0 Z"
       style="fill:#4467a5;fill-opacity:1;fill-rule:nonzero;stroke:none"
       transform="matrix(0.35277776,0,0,-0.35277776,88.584841,170.28228)"
       clip-path="url(#clipPath5555)" />
    <path
       id="path5556"
       d="m 0,0 c -0.81,-1.178 -1.914,-2.036 -3.325,-2.589 -1.411,-0.552 -4.222,-0.822 -8.418,-0.822 h -5.817 v 14.946 h 5.142 c 3.828,0 6.381,-0.11 7.657,-0.355 1.718,-0.307 3.154,-1.093 4.271,-2.332 C 0.639,7.596 1.203,6.014 1.203,4.1 1.203,2.54 0.798,1.179 0,0 m 9.117,14.505 c -2.036,2.65 -4.576,4.369 -7.595,5.154 -1.963,0.528 -6.185,0.797 -12.652,0.797 h -17.069 v -52.704 h 10.639 v 19.88 h 6.933 c 4.823,0 8.505,0.257 11.045,0.76 1.865,0.405 3.705,1.24 5.509,2.491 1.816,1.264 3.301,2.994 4.479,5.203 1.178,2.196 1.767,4.921 1.767,8.16 0,4.185 -1.019,7.608 -3.056,10.259"
       style="fill:#ffffff;fill-opacity:1;fill-rule:nonzero;stroke:none"
       transform="matrix(0.35277776,0,0,-0.35277776,107.85991,131.69403)"
       clip-path="url(#clipPath5557)" />
    <path
       id="path5558"
       d="m 0,0 h -82.127 c -1.699,0 -3.077,1.378 -3.077,3.077 v 57.965 c 0,1.7 1.378,3.078 3.077,3.078 H 0 c 1.699,0 3.077,-1.378 3.077,-3.078 V 3.077 C 3.077,1.378 1.699,0 0,0"
       style="fill:#ffffff;fill-opacity:1;fill-rule:nonzero;stroke:none"
       transform="matrix(0.35277776,0,0,-0.35277776,119.51957,168.07706)"
       clip-path="url(#clipPath5559)" />
    <g
       id="g5564"
       transform="matrix(0.26458333,0,0,0.26458333,68.002025,-93.347569)"
       style="fill:#000000">
      <path
         id="path5520"
         d="m 0,0 c -3.456,0 -6.256,-2.841 -6.256,-6.355 0,-3.511 2.8,-6.358 6.256,-6.358 3.459,0 6.261,2.847 6.261,6.358 C 6.261,-2.841 3.459,0 0,0 m 0,-9.595 c -1.763,0 -3.188,1.449 -3.188,3.24 0,1.791 1.425,3.243 3.188,3.243 1.766,0 3.193,-1.452 3.193,-3.243 0,-1.791 -1.427,-3.24 -3.193,-3.24"
         style="fill:#000000;fill-opacity:1;fill-rule:nonzero;stroke:none"
         transform="matrix(1.3333333,0,0,-1.3333333,105.82587,958.12)"
         clip-path="url(#clipPath5521)" />
      <path
         id="path5522"
         d="m 0,0 c -3.456,0 -6.259,-2.841 -6.259,-6.355 0,-3.511 2.803,-6.358 6.259,-6.358 3.456,0 6.258,2.847 6.258,6.358 C 6.258,-2.841 3.456,0 0,0 m 0,-9.595 c -1.76,0 -3.196,1.449 -3.196,3.24 0,1.791 1.436,3.243 3.196,3.243 1.763,0 3.192,-1.452 3.192,-3.243 0,-1.791 -1.429,-3.24 -3.192,-3.24"
         style="fill:#000000;fill-opacity:1;fill-rule:nonzero;stroke:none"
         transform="matrix(1.3333333,0,0,-1.3333333,165.912,958.12)"
         clip-path="url(#clipPath5523)" />
      <path
         id="path5524"
         d="m 0,0 c -0.017,3.922 -2.672,4.146 -4.166,4.146 -1.491,0 -3.06,0.718 -3.863,1.533 -0.804,0.815 -6.663,7.139 -7.708,8.044 -1.054,0.906 -2.542,2.882 -4.51,2.882 h -19.257 c -2.293,0 -3.364,-1.528 -4.163,-2.505 -0.802,-0.974 -9.199,-9.774 -9.199,-9.774 0,0 -12.993,-2.095 -15.109,-2.372 -2.105,-0.274 -3.053,-1.486 -3.053,-3.54 0,-2.059 0.057,-5.362 0.057,-6.995 0,-1.63 1.048,-2.539 2.407,-2.489 h 0.049 c -0.006,0.128 -0.039,0.25 -0.039,0.377 0,4.179 3.334,7.564 7.448,7.564 4.119,0 7.447,-3.385 7.447,-7.564 0,-0.136 -0.03,-0.261 -0.039,-0.394 l 30.253,-0.033 c -0.011,0.144 -0.047,0.28 -0.047,0.427 0,4.179 3.34,7.564 7.449,7.564 4.114,0 7.448,-3.385 7.448,-7.564 0,-0.142 -0.033,-0.275 -0.042,-0.413 0.876,0.078 3.307,0.289 5.616,0.491 2.872,0.252 3.038,3.082 3.038,5.297 0,2.214 0,1.402 -0.017,5.318 m -30.698,4.326 h -17.637 l 8.525,8.72 h 9.112 z m 1.903,8.72 h 9.11 l 8.53,-8.72 h -17.64 z"
         style="fill:#000000;fill-opacity:1;fill-rule:nonzero;stroke:none"
         transform="matrix(1.3333333,0,0,-1.3333333,187.30133,952.336)"
         clip-path="url(#clipPath5525)" />
      <path
         id="path5526"
         d="m 0,0 c 0,-1.122 -0.893,-2.032 -2.001,-2.032 -1.105,0 -2.002,0.91 -2.002,2.032 v 2.871 c 0,1.126 0.897,2.037 2.002,2.037 C -0.893,4.908 0,3.997 0,2.871 Z"
         style="fill:#000000;fill-opacity:1;fill-rule:nonzero;stroke:none"
         transform="matrix(1.3333333,0,0,-1.3333333,117.3676,943.05067)"
         clip-path="url(#clipPath5527)" />
      <path
         id="path5528"
         d="m 0,0 h -20.086 l 2.514,3.828 h 15.055 z"
         style="fill:#000000;fill-opacity:1;fill-rule:nonzero;stroke:none"
         transform="matrix(1.3333333,0,0,-1.3333333,160.996,928.844)"
         clip-path="url(#clipPath5529)" />
    </g>
  </g>
</svg>
