<?xml version="1.0" encoding="UTF-8" standalone="no"?>
<!-- Created with Inkscape (http://www.inkscape.org/) -->

<svg
   width="44.999977mm"
   height="59.999737mm"
   viewBox="0 0 44.999977 59.999737"
   version="1.1"
   id="svg1"
   inkscape:version="1.4 (86a8ad7, 2024-10-11)"
   sodipodi:docname="toilet.svg"
   xmlns:inkscape="http://www.inkscape.org/namespaces/inkscape"
   xmlns:sodipodi="http://sodipodi.sourceforge.net/DTD/sodipodi-0.dtd"
   xmlns="http://www.w3.org/2000/svg"
   xmlns:svg="http://www.w3.org/2000/svg">
  <sodipodi:namedview
     id="namedview1"
     pagecolor="#ffffff"
     bordercolor="#000000"
     borderopacity="0.25"
     inkscape:showpageshadow="2"
     inkscape:pageopacity="0.0"
     inkscape:pagecheckerboard="0"
     inkscape:deskcolor="#d1d1d1"
     inkscape:document-units="mm"
     inkscape:zoom="2.0334082"
     inkscape:cx="74.013668"
     inkscape:cy="159.58429"
     inkscape:window-width="1920"
     inkscape:window-height="1009"
     inkscape:window-x="-8"
     inkscape:window-y="-8"
     inkscape:window-maximized="1"
     inkscape:current-layer="g4075" />
  <defs
     id="defs1">
    <inkscape:path-effect
       effect="fillet_chamfer"
       id="path-effect1"
       is_visible="true"
       lpeversion="1"
       nodesatellites_param="F,0,0,1,0,0,0,1 @ F,0,0,1,0,0,0,1 @ F,0,0,1,0,0,0,1 @ F,0,0,1,0,0,0,1"
       radius="0"
       unit="px"
       method="auto"
       mode="F"
       chamfer_steps="1"
       flexible="false"
       use_knot_distance="true"
       apply_no_radius="true"
       apply_with_radius="true"
       only_selected="false"
       hide_knots="false" />
    <clipPath
       clipPathUnits="userSpaceOnUse"
       id="clipPath4010">
      <path
         d="M 0,841.89 H 595.276 V 0 H 0 Z"
         transform="translate(-166.51401,-731.52902)"
         id="path4010" />
    </clipPath>
    <clipPath
       clipPathUnits="userSpaceOnUse"
       id="clipPath4012">
      <path
         d="M 0,841.89 H 595.276 V 0 H 0 Z"
         transform="translate(-59.355001,-725.79102)"
         id="path4012" />
    </clipPath>
    <clipPath
       clipPathUnits="userSpaceOnUse"
       id="clipPath4014">
      <path
         d="M 0,841.89 H 595.276 V 0 H 0 Z"
         id="path4014" />
    </clipPath>
    <clipPath
       clipPathUnits="userSpaceOnUse"
       id="clipPath4016">
      <path
         d="M 0,841.89 H 595.276 V 0 H 0 Z"
         transform="translate(-132.939,-632.53702)"
         id="path4016" />
    </clipPath>
    <clipPath
       clipPathUnits="userSpaceOnUse"
       id="clipPath4018">
      <path
         d="M 0,841.89 H 595.276 V 0 H 0 Z"
         transform="translate(-446.64601,-731.52902)"
         id="path4018" />
    </clipPath>
    <clipPath
       clipPathUnits="userSpaceOnUse"
       id="clipPath4020">
      <path
         d="M 0,841.89 H 595.276 V 0 H 0 Z"
         transform="translate(-339.48701,-725.79102)"
         id="path4020" />
    </clipPath>
    <clipPath
       clipPathUnits="userSpaceOnUse"
       id="clipPath4022">
      <path
         d="M 0,841.89 H 595.276 V 0 H 0 Z"
         id="path4022" />
    </clipPath>
    <clipPath
       clipPathUnits="userSpaceOnUse"
       id="clipPath4024">
      <path
         d="M 0,841.89 H 595.276 V 0 H 0 Z"
         transform="translate(-409.44701,-659.97202)"
         id="path4024" />
    </clipPath>
    <clipPath
       clipPathUnits="userSpaceOnUse"
       id="clipPath4028">
      <path
         d="M 0,841.89 H 595.276 V 0 H 0 Z"
         transform="translate(-166.51401,-483.03801)"
         id="path4028" />
    </clipPath>
    <clipPath
       clipPathUnits="userSpaceOnUse"
       id="clipPath4030">
      <path
         d="M 0,841.89 H 595.276 V 0 H 0 Z"
         transform="translate(-59.355001,-477.29901)"
         id="path4030" />
    </clipPath>
    <clipPath
       clipPathUnits="userSpaceOnUse"
       id="clipPath4032">
      <path
         d="M 0,841.89 H 595.276 V 0 H 0 Z"
         id="path4032" />
    </clipPath>
    <clipPath
       clipPathUnits="userSpaceOnUse"
       id="clipPath4034">
      <path
         d="M 0,841.89 H 595.276 V 0 H 0 Z"
         transform="translate(-126.208,-398.81301)"
         id="path4034" />
    </clipPath>
    <clipPath
       clipPathUnits="userSpaceOnUse"
       id="clipPath4052">
      <path
         d="M 0,841.89 H 595.276 V 0 H 0 Z"
         transform="translate(-446.64601,-484.03801)"
         id="path4052" />
    </clipPath>
    <clipPath
       clipPathUnits="userSpaceOnUse"
       id="clipPath4054">
      <path
         d="M 0,841.89 H 595.276 V 0 H 0 Z"
         transform="translate(-339.48701,-478.29901)"
         id="path4054" />
    </clipPath>
    <clipPath
       clipPathUnits="userSpaceOnUse"
       id="clipPath4056">
      <path
         d="M 0,841.89 H 595.276 V 0 H 0 Z"
         id="path4056" />
    </clipPath>
    <clipPath
       clipPathUnits="userSpaceOnUse"
       id="clipPath4058">
      <path
         d="M 0,841.89 H 595.276 V 0 H 0 Z"
         transform="translate(-390.32301,-383.39001)"
         id="path4058" />
    </clipPath>
    <clipPath
       clipPathUnits="userSpaceOnUse"
       id="clipPath4060">
      <path
         d="M 0,841.89 H 595.276 V 0 H 0 Z"
         transform="translate(-414.75501,-408.07801)"
         id="path4060" />
    </clipPath>
    <clipPath
       clipPathUnits="userSpaceOnUse"
       id="clipPath4066">
      <path
         d="M 0,841.89 H 595.276 V 0 H 0 Z"
         transform="translate(-166.51401,-236.54601)"
         id="path4066" />
    </clipPath>
    <clipPath
       clipPathUnits="userSpaceOnUse"
       id="clipPath4068">
      <path
         d="M 0,841.89 H 595.276 V 0 H 0 Z"
         transform="translate(-59.355001,-230.80701)"
         id="path4068" />
    </clipPath>
    <clipPath
       clipPathUnits="userSpaceOnUse"
       id="clipPath4070">
      <path
         d="M 0,841.89 H 595.276 V 0 H 0 Z"
         id="path4070" />
    </clipPath>
    <clipPath
       clipPathUnits="userSpaceOnUse"
       id="clipPath4072">
      <path
         d="M 0,841.89 H 595.276 V 0 H 0 Z"
         transform="translate(-136.15,-132.49)"
         id="path4072" />
    </clipPath>
  </defs>
  <g
     inkscape:label="Layer 1"
     inkscape:groupmode="layer"
     id="layer1"
     transform="translate(-82.549999,-118.53333)">
    <g
       id="g4075"
       transform="matrix(0.26458333,0,0,0.26458333,65.313981,79.600425)">
      <path
         style="fill:#ffffff;stroke:#ffffff;stroke-width:0.877059"
         id="rect1"
         width="169.20169"
         height="225.89459"
         x="65.582489"
         y="147.58603"
         inkscape:path-effect="#path-effect1"
         sodipodi:type="rect"
         d="M 65.582489,147.58603 H 234.78418 V 373.48062 H 65.582489 Z" />
      <path
         id="path4065"
         d="m 0,0 h -107.833 c -5.417,0 -9.823,-4.346 -9.823,-9.69 v -150.698 c 0,-5.341 4.406,-9.691 9.823,-9.691 H 0 c 5.458,0 9.903,4.35 9.903,9.691 V -9.69 C 9.903,-4.346 5.458,0 0,0 m 0,-0.571 c 5.145,0 9.33,-4.092 9.33,-9.119 v -150.698 c 0,-5.027 -4.185,-9.118 -9.33,-9.118 h -107.833 c -5.101,0 -9.25,4.091 -9.25,9.118 V -9.69 c 0,5.027 4.149,9.119 9.25,9.119 L 0,-0.571"
         style="fill:#4467a5;fill-opacity:1;fill-rule:nonzero;stroke:none"
         transform="matrix(1.3333333,0,0,-1.3333333,222.01867,147.14732)"
         clip-path="url(#clipPath4066)" />
      <path
         id="path4067"
         d="m 0,0 c -2.552,0 -4.628,-2.079 -4.628,-4.636 v -149.335 c 0,-2.553 2.076,-4.633 4.628,-4.633 h 106.484 c 2.594,0 4.704,2.08 4.704,4.633 V -4.636 c 0,2.557 -2.11,4.636 -4.704,4.636 z"
         style="fill:#4467a5;fill-opacity:1;fill-rule:nonzero;stroke:none"
         transform="matrix(1.3333333,0,0,-1.3333333,79.139995,154.79932)"
         clip-path="url(#clipPath4068)" />
      <path
         id="path4069"
         d="M 147.079,101.851 H 78.197 v 68.883 h 68.882 z"
         style="fill:#ffffff;fill-opacity:1;fill-rule:nonzero;stroke:none"
         transform="matrix(1.3333333,0,0,-1.3333333,-4.7056266e-6,462.54199)"
         clip-path="url(#clipPath4070)" />
      <path
         id="path4071"
         d="m 0,0 c 0,-1.456 -0.641,-2.19 -1.948,-2.19 -1.294,0 -1.948,0.734 -1.948,2.19 v 14.691 h -0.955 v -35.392 c 0,-1.456 -0.804,-2.191 -2.4,-2.191 -1.596,0 -2.388,0.735 -2.388,2.191 V 0.248 h -1.257 v -20.949 c 0,-1.456 -0.791,-2.191 -2.387,-2.191 -1.597,0 -2.401,0.735 -2.401,2.191 v 35.392 h -0.955 V 0 c 0,-1.456 -0.653,-2.19 -1.948,-2.19 -1.307,0 -1.948,0.734 -1.948,2.19 v 16.839 c 0,2.74 1.772,4.11 5.328,4.11 h 9.916 c 3.532,0 5.291,-1.37 5.291,-4.11 z m -6.07,26.127 c 0,-1.219 -0.414,-2.309 -1.257,-3.279 -0.828,-0.971 -1.821,-1.456 -2.979,-1.456 -1.156,0 -2.148,0.485 -2.977,1.456 -0.843,0.97 -1.257,2.06 -1.257,3.279 0,1.209 0.414,2.231 1.231,3.085 0.83,0.851 1.823,1.284 3.003,1.284 1.158,0 2.151,-0.433 2.979,-1.284 0.843,-0.854 1.257,-1.876 1.257,-3.085 M -26.339,-5.577 h -4.851 v -15.135 c 0,-1.457 -0.818,-2.18 -2.438,-2.18 -1.597,0 -2.389,0.723 -2.389,2.18 v 15.135 h -1.218 v -15.135 c 0,-1.457 -0.805,-2.18 -2.425,-2.18 -1.571,0 -2.363,0.723 -2.363,2.18 v 15.135 h -5.002 l 4.964,10.841 v 10.335 h -0.918 V 5.933 c 0,-1.434 -0.653,-2.147 -1.948,-2.147 -1.332,0 -1.985,0.713 -1.985,2.147 v 9.666 c 0,3.094 1.76,4.649 5.291,4.649 h 9.915 c 3.532,0 5.291,-1.555 5.291,-4.649 V 5.933 c 0,-1.434 -0.615,-2.147 -1.873,-2.147 -1.307,0 -1.947,0.713 -1.947,2.147 v 9.666 H -31.19 V 5.264 Z m -6.108,30.593 c 0,-1.198 -0.415,-2.222 -1.233,-3.076 -0.828,-0.851 -1.809,-1.282 -2.965,-1.282 -1.181,0 -2.174,0.431 -3.003,1.282 -0.818,0.854 -1.232,1.878 -1.232,3.076 0,1.209 0.414,2.233 1.232,3.086 0.829,0.851 1.822,1.283 3.003,1.283 1.156,0 2.137,-0.432 2.965,-1.283 0.818,-0.853 1.233,-1.877 1.233,-3.086"
         style="fill:#000000;fill-opacity:1;fill-rule:nonzero;stroke:none"
         transform="matrix(1.3333333,0,0,-1.3333333,181.53333,285.88866)"
         clip-path="url(#clipPath4072)" />
      <text
         id="text4072"
         xml:space="preserve"
         transform="scale(1.0001011,0.99989889)"
         x="91.363823"
         y="206.11884"
         style="font-size:15.9984px;stroke-width:1.3332"><tspan
           id="tspan4072"
           style="font-variant:normal;font-weight:700;font-stretch:normal;font-size:32.9649px;font-family:Arial;writing-mode:lr-tb;fill:#ffffff;fill-opacity:1;fill-rule:nonzero;stroke:none;stroke-width:1.3332"
           x="91.363823"
           dx="0 -0.59996176"
           y="206.11884">TOILET</tspan></text>
    </g>
  </g>
</svg>
