<?xml version="1.0" encoding="UTF-8" standalone="no"?>
<!-- Created with Inkscape (http://www.inkscape.org/) -->

<svg
   width="44.999977mm"
   height="59.999737mm"
   viewBox="0 0 44.999977 59.999737"
   version="1.1"
   id="svg1"
   inkscape:version="1.4 (86a8ad7, 2024-10-11)"
   sodipodi:docname="toll road ahead.svg"
   xmlns:inkscape="http://www.inkscape.org/namespaces/inkscape"
   xmlns:sodipodi="http://sodipodi.sourceforge.net/DTD/sodipodi-0.dtd"
   xmlns="http://www.w3.org/2000/svg"
   xmlns:svg="http://www.w3.org/2000/svg">
  <sodipodi:namedview
     id="namedview1"
     pagecolor="#ffffff"
     bordercolor="#000000"
     borderopacity="0.25"
     inkscape:showpageshadow="2"
     inkscape:pageopacity="0.0"
     inkscape:pagecheckerboard="0"
     inkscape:deskcolor="#d1d1d1"
     inkscape:document-units="mm"
     inkscape:zoom="2.8756734"
     inkscape:cx="120.66739"
     inkscape:cy="104.14952"
     inkscape:window-width="1920"
     inkscape:window-height="1009"
     inkscape:window-x="-8"
     inkscape:window-y="-8"
     inkscape:window-maximized="1"
     inkscape:current-layer="g4075" />
  <defs
     id="defs1">
    <rect
       x="7.650382"
       y="169.35164"
       width="218.38363"
       height="59.464333"
       id="rect3" />
    <rect
       x="26.080848"
       y="26.776337"
       width="146.05275"
       height="37.556421"
       id="rect2" />
    <inkscape:path-effect
       effect="fillet_chamfer"
       id="path-effect1"
       is_visible="true"
       lpeversion="1"
       nodesatellites_param="F,0,0,1,0,0,0,1 @ F,0,0,1,0,0,0,1 @ F,0,0,1,0,0,0,1 @ F,0,0,1,0,0,0,1"
       radius="0"
       unit="px"
       method="auto"
       mode="F"
       chamfer_steps="1"
       flexible="false"
       use_knot_distance="true"
       apply_no_radius="true"
       apply_with_radius="true"
       only_selected="false"
       hide_knots="false" />
    <clipPath
       clipPathUnits="userSpaceOnUse"
       id="clipPath4010">
      <path
         d="M 0,841.89 H 595.276 V 0 H 0 Z"
         transform="translate(-166.51401,-731.52902)"
         id="path4010" />
    </clipPath>
    <clipPath
       clipPathUnits="userSpaceOnUse"
       id="clipPath4012">
      <path
         d="M 0,841.89 H 595.276 V 0 H 0 Z"
         transform="translate(-59.355001,-725.79102)"
         id="path4012" />
    </clipPath>
    <clipPath
       clipPathUnits="userSpaceOnUse"
       id="clipPath4014">
      <path
         d="M 0,841.89 H 595.276 V 0 H 0 Z"
         id="path4014" />
    </clipPath>
    <clipPath
       clipPathUnits="userSpaceOnUse"
       id="clipPath4016">
      <path
         d="M 0,841.89 H 595.276 V 0 H 0 Z"
         transform="translate(-132.939,-632.53702)"
         id="path4016" />
    </clipPath>
    <clipPath
       clipPathUnits="userSpaceOnUse"
       id="clipPath4018">
      <path
         d="M 0,841.89 H 595.276 V 0 H 0 Z"
         transform="translate(-446.64601,-731.52902)"
         id="path4018" />
    </clipPath>
    <clipPath
       clipPathUnits="userSpaceOnUse"
       id="clipPath4020">
      <path
         d="M 0,841.89 H 595.276 V 0 H 0 Z"
         transform="translate(-339.48701,-725.79102)"
         id="path4020" />
    </clipPath>
    <clipPath
       clipPathUnits="userSpaceOnUse"
       id="clipPath4022">
      <path
         d="M 0,841.89 H 595.276 V 0 H 0 Z"
         id="path4022" />
    </clipPath>
    <clipPath
       clipPathUnits="userSpaceOnUse"
       id="clipPath4024">
      <path
         d="M 0,841.89 H 595.276 V 0 H 0 Z"
         transform="translate(-409.44701,-659.97202)"
         id="path4024" />
    </clipPath>
    <clipPath
       clipPathUnits="userSpaceOnUse"
       id="clipPath1000">
      <path
         d="M 0,0 H 595.276 V 841.89 H 0 Z"
         transform="translate(-166.51401,-731.47102)"
         id="path1000" />
    </clipPath>
    <clipPath
       clipPathUnits="userSpaceOnUse"
       id="clipPath1002">
      <path
         d="M 0,0 H 595.276 V 841.89 H 0 Z"
         transform="translate(-59.354602,-725.73102)"
         id="path1002" />
    </clipPath>
    <clipPath
       clipPathUnits="userSpaceOnUse"
       id="clipPath1004">
      <path
         d="M 0,0 H 595.276 V 841.89 H 0 Z"
         transform="translate(-94.148605,-610.35401)"
         id="path1004" />
    </clipPath>
    <clipPath
       clipPathUnits="userSpaceOnUse"
       id="clipPath1006">
      <path
         d="M 0,0 H 595.276 V 841.89 H 0 Z"
         id="path1006" />
    </clipPath>
    <clipPath
       clipPathUnits="userSpaceOnUse"
       id="clipPath1008">
      <path
         d="M 0,0 H 595.276 V 841.89 H 0 Z"
         transform="translate(-141.47001,-653.96302)"
         id="path1008" />
    </clipPath>
    <clipPath
       clipPathUnits="userSpaceOnUse"
       id="clipPath1010">
      <path
         d="M 0,0 H 595.276 V 841.89 H 0 Z"
         id="path1010" />
    </clipPath>
    <clipPath
       clipPathUnits="userSpaceOnUse"
       id="clipPath1012">
      <path
         d="M 0,0 H 595.276 V 841.89 H 0 Z"
         transform="translate(-122.364,-682.30502)"
         id="path1012" />
    </clipPath>
    <clipPath
       clipPathUnits="userSpaceOnUse"
       id="clipPath1156">
      <path
         d="M 0,841.89 H 595.276 V 0 H 0 Z"
         transform="translate(-446.60801,-731.50002)"
         id="path1156" />
    </clipPath>
    <clipPath
       clipPathUnits="userSpaceOnUse"
       id="clipPath1158">
      <path
         d="M 0,841.89 H 595.276 V 0 H 0 Z"
         transform="translate(-339.44801,-725.76202)"
         id="path1158" />
    </clipPath>
    <clipPath
       clipPathUnits="userSpaceOnUse"
       id="clipPath1160">
      <path
         d="M 0,841.89 H 595.276 V 0 H 0 Z"
         id="path1160" />
    </clipPath>
    <clipPath
       clipPathUnits="userSpaceOnUse"
       id="clipPath1162">
      <path
         d="M 0,841.89 H 595.276 V 0 H 0 Z"
         transform="translate(-399.90201,-688.14002)"
         id="path1162" />
    </clipPath>
    <clipPath
       clipPathUnits="userSpaceOnUse"
       id="clipPath1166">
      <path
         d="M 0,841.89 H 595.276 V 0 H 0 Z"
         transform="translate(-168.13701,-485.24801)"
         id="path1166" />
    </clipPath>
    <clipPath
       clipPathUnits="userSpaceOnUse"
       id="clipPath1168">
      <path
         d="M 0,841.89 H 595.276 V 0 H 0 Z"
         transform="translate(-60.977702,-479.51001)"
         id="path1168" />
    </clipPath>
    <clipPath
       clipPathUnits="userSpaceOnUse"
       id="clipPath1170">
      <path
         d="M 0,841.89 H 595.276 V 0 H 0 Z"
         transform="translate(-138.622,-407.33201)"
         id="path1170" />
    </clipPath>
    <clipPath
       clipPathUnits="userSpaceOnUse"
       id="clipPath1007">
      <path
         d="M 0,841.89 H 595.276 V 0 H 0 Z"
         transform="translate(-166.752,-731.50002)"
         id="path1007" />
    </clipPath>
    <clipPath
       clipPathUnits="userSpaceOnUse"
       id="clipPath1009">
      <path
         d="M 0,841.89 H 595.276 V 0 H 0 Z"
         transform="translate(-59.592802,-725.76202)"
         id="path1009" />
    </clipPath>
    <clipPath
       clipPathUnits="userSpaceOnUse"
       id="clipPath1011">
      <path
         d="M 0,841.89 H 595.276 V 0 H 0 Z"
         id="path1011" />
    </clipPath>
    <clipPath
       clipPathUnits="userSpaceOnUse"
       id="clipPath1013">
      <path
         d="M 0,841.89 H 595.276 V 0 H 0 Z"
         transform="translate(-118.70601,-673.88102)"
         id="path1013" />
    </clipPath>
    <clipPath
       clipPathUnits="userSpaceOnUse"
       id="clipPath1015">
      <path
         d="M 0,841.89 H 595.276 V 0 H 0 Z"
         transform="translate(-123.664,-640.92401)"
         id="path1015" />
    </clipPath>
    <clipPath
       clipPathUnits="userSpaceOnUse"
       id="clipPath1023">
      <path
         d="M 0,841.89 H 595.276 V 0 H 0 Z"
         transform="translate(-375.64601,-621.74402)"
         id="path1023" />
    </clipPath>
    <clipPath
       clipPathUnits="userSpaceOnUse"
       id="clipPath1029">
      <path
         d="M 0,841.89 H 595.276 V 0 H 0 Z"
         id="path1029" />
    </clipPath>
    <clipPath
       clipPathUnits="userSpaceOnUse"
       id="clipPath1031">
      <path
         d="m 86.891,371.984 h 51.97 v 51.969 h -51.97 z"
         transform="translate(-108.942,-390.79301)"
         id="path1031" />
    </clipPath>
    <clipPath
       clipPathUnits="userSpaceOnUse"
       id="clipPath1033">
      <path
         d="m 86.891,371.984 h 51.97 v 51.969 h -51.97 z"
         transform="translate(-148.42401,-407.59701)"
         id="path1033" />
    </clipPath>
    <clipPath
       clipPathUnits="userSpaceOnUse"
       id="clipPath1035">
      <path
         d="m 86.891,371.984 h 51.97 v 51.969 h -51.97 z"
         transform="translate(-116.1,-390.48901)"
         id="path1035" />
    </clipPath>
    <clipPath
       clipPathUnits="userSpaceOnUse"
       id="clipPath1037">
      <path
         d="m 86.891,371.984 h 51.97 v 51.969 h -51.97 z"
         transform="translate(-118.399,-396.10401)"
         id="path1037" />
    </clipPath>
    <clipPath
       clipPathUnits="userSpaceOnUse"
       id="clipPath1039">
      <path
         d="m 86.891,371.984 h 51.97 v 51.969 h -51.97 z"
         transform="translate(-100.858,-408.56701)"
         id="path1039" />
    </clipPath>
    <clipPath
       clipPathUnits="userSpaceOnUse"
       id="clipPath1041">
      <path
         d="m 86.891,371.984 h 51.97 v 51.969 h -51.97 z"
         transform="translate(-116.412,-406.55201)"
         id="path1041" />
    </clipPath>
    <clipPath
       clipPathUnits="userSpaceOnUse"
       id="clipPath1043">
      <path
         d="m 86.891,371.984 h 51.97 v 51.969 h -51.97 z"
         transform="translate(-116.1,-393.12401)"
         id="path1043" />
    </clipPath>
    <clipPath
       clipPathUnits="userSpaceOnUse"
       id="clipPath1045">
      <path
         d="m 86.891,371.984 h 51.97 v 51.969 h -51.97 z"
         transform="translate(-103.10001,-393.12401)"
         id="path1045" />
    </clipPath>
    <clipPath
       clipPathUnits="userSpaceOnUse"
       id="clipPath1047">
      <path
         d="m 86.891,371.984 h 51.97 v 51.969 h -51.97 z"
         transform="translate(-100.852,-408.39101)"
         id="path1047" />
    </clipPath>
    <clipPath
       clipPathUnits="userSpaceOnUse"
       id="clipPath1049">
      <path
         d="m 86.891,371.984 h 51.97 v 51.969 h -51.97 z"
         transform="translate(-148.318,-416.40201)"
         id="path1049" />
    </clipPath>
    <clipPath
       clipPathUnits="userSpaceOnUse"
       id="clipPath1051">
      <path
         d="m 86.891,371.984 h 51.97 v 51.969 h -51.97 z"
         transform="translate(-127.252,-404.72201)"
         id="path1051" />
    </clipPath>
    <clipPath
       clipPathUnits="userSpaceOnUse"
       id="clipPath1053">
      <path
         d="m 86.891,371.984 h 51.97 v 51.969 h -51.97 z"
         transform="translate(-135.25401,-409.57201)"
         id="path1053" />
    </clipPath>
    <clipPath
       clipPathUnits="userSpaceOnUse"
       id="clipPath1055">
      <path
         d="m 86.891,371.984 h 51.97 v 51.969 h -51.97 z"
         transform="translate(-136.5,-413.83301)"
         id="path1055" />
    </clipPath>
    <clipPath
       clipPathUnits="userSpaceOnUse"
       id="clipPath1057">
      <path
         d="m 86.891,371.984 h 51.97 v 51.969 h -51.97 z"
         transform="translate(-140.895,-412.77601)"
         id="path1057" />
    </clipPath>
    <clipPath
       clipPathUnits="userSpaceOnUse"
       id="clipPath1059">
      <path
         d="m 86.891,371.984 h 51.97 v 51.969 h -51.97 z"
         transform="translate(-106.993,-409.35601)"
         id="path1059" />
    </clipPath>
    <clipPath
       clipPathUnits="userSpaceOnUse"
       id="clipPath9">
      <path
         d="M 0,841.89 H 595.276 V 0 H 0 Z"
         transform="translate(-84.240205,-145.804)"
         id="path9" />
    </clipPath>
    <clipPath
       clipPathUnits="userSpaceOnUse"
       id="clipPath5020">
      <path
         d="M 0,841.89 H 595.276 V 0 H 0 Z"
         transform="translate(-373.87801,-350.72801)"
         id="path5020" />
    </clipPath>
    <clipPath
       clipPathUnits="userSpaceOnUse"
       id="clipPath5016">
      <path
         d="M 0,841.89 H 595.276 V 0 H 0 Z"
         transform="translate(-373.87901,-350.72901)"
         id="path5016" />
    </clipPath>
    <clipPath
       clipPathUnits="userSpaceOnUse"
       id="clipPath2054">
      <path
         d="M 0,10.472 H 327.347 V 841.889 H 0 Z"
         transform="translate(-129.478,-649.72702)"
         id="path2054" />
    </clipPath>
    <clipPath
       clipPathUnits="userSpaceOnUse"
       id="clipPath2128">
      <path
         d="M 281.893,262.692 H 595.277 V 841.89 H 281.893 Z"
         id="path2128" />
    </clipPath>
    <clipPath
       clipPathUnits="userSpaceOnUse"
       id="clipPath2130">
      <path
         d="M 281.893,262.692 H 595.277 V 841.89 H 281.893 Z"
         id="path2130" />
    </clipPath>
    <clipPath
       clipPathUnits="userSpaceOnUse"
       id="clipPath2190">
      <path
         d="M 0,0 H 329.093 V 840.145 H 0 Z"
         transform="translate(-155.80401,-421.09501)"
         id="path2190" />
    </clipPath>
    <clipPath
       clipPathUnits="userSpaceOnUse"
       id="clipPath2192">
      <path
         d="M 0,0 H 329.093 V 840.145 H 0 Z"
         id="path2192" />
    </clipPath>
    <clipPath
       clipPathUnits="userSpaceOnUse"
       id="clipPath2246">
      <path
         d="M 285.383,244.365 H 595.276 V 841.889 H 285.383 Z"
         transform="translate(-454.11501,-478.35401)"
         id="path2246" />
    </clipPath>
    <clipPath
       clipPathUnits="userSpaceOnUse"
       id="clipPath2248">
      <path
         d="M 285.383,244.365 H 595.276 V 841.889 H 285.383 Z"
         transform="translate(-346.95601,-472.61601)"
         id="path2248" />
    </clipPath>
    <clipPath
       clipPathUnits="userSpaceOnUse"
       id="clipPath2250">
      <path
         d="M 285.383,244.365 H 595.276 V 841.889 H 285.383 Z"
         id="path2250" />
    </clipPath>
    <clipPath
       clipPathUnits="userSpaceOnUse"
       id="clipPath2252">
      <path
         d="M 285.383,244.365 H 595.276 V 841.889 H 285.383 Z"
         transform="translate(-405.81501,-396.62501)"
         id="path2252" />
    </clipPath>
    <clipPath
       clipPathUnits="userSpaceOnUse"
       id="clipPath2254">
      <path
         d="M 285.383,244.365 H 595.276 V 841.889 H 285.383 Z"
         transform="translate(-403.93601,-397.51401)"
         id="path2254" />
    </clipPath>
    <clipPath
       clipPathUnits="userSpaceOnUse"
       id="clipPath2256">
      <path
         d="M 285.383,244.365 H 595.276 V 841.889 H 285.383 Z"
         transform="translate(-388.78901,-394.39001)"
         id="path2256" />
    </clipPath>
    <clipPath
       clipPathUnits="userSpaceOnUse"
       id="clipPath2258">
      <path
         d="M 285.383,244.365 H 595.276 V 841.889 H 285.383 Z"
         transform="translate(-396.20701,-382.47201)"
         id="path2258" />
    </clipPath>
    <clipPath
       clipPathUnits="userSpaceOnUse"
       id="clipPath2260">
      <path
         d="M 285.383,244.365 H 595.276 V 841.889 H 285.383 Z"
         transform="translate(-387.70101,-380.09901)"
         id="path2260" />
    </clipPath>
    <clipPath
       clipPathUnits="userSpaceOnUse"
       id="clipPath2262">
      <path
         d="M 285.383,244.365 H 595.276 V 841.889 H 285.383 Z"
         transform="translate(-431.93001,-361.80401)"
         id="path2262" />
    </clipPath>
    <clipPath
       clipPathUnits="userSpaceOnUse"
       id="clipPath2264">
      <path
         d="M 285.383,244.365 H 595.276 V 841.889 H 285.383 Z"
         transform="translate(-394.73601,-371.99301)"
         id="path2264" />
    </clipPath>
    <clipPath
       clipPathUnits="userSpaceOnUse"
       id="clipPath2266">
      <path
         d="M 285.383,244.365 H 595.276 V 841.889 H 285.383 Z"
         transform="translate(-398.22901,-406.41601)"
         id="path2266" />
    </clipPath>
    <clipPath
       clipPathUnits="userSpaceOnUse"
       id="clipPath2268">
      <path
         d="M 285.383,244.365 H 595.276 V 841.889 H 285.383 Z"
         transform="translate(-399.09401,-415.27001)"
         id="path2268" />
    </clipPath>
    <clipPath
       clipPathUnits="userSpaceOnUse"
       id="clipPath2270">
      <path
         d="M 285.383,244.365 H 595.276 V 841.889 H 285.383 Z"
         id="path2270" />
    </clipPath>
    <clipPath
       clipPathUnits="userSpaceOnUse"
       id="clipPath2272">
      <path
         d="M 285.383,244.365 H 595.276 V 841.889 H 285.383 Z"
         transform="translate(-433.72101,-360.91401)"
         id="path2272" />
    </clipPath>
    <clipPath
       clipPathUnits="userSpaceOnUse"
       id="clipPath2274">
      <path
         d="M 285.383,244.365 H 595.276 V 841.889 H 285.383 Z"
         transform="translate(-405.81601,-396.62501)"
         id="path2274" />
    </clipPath>
    <clipPath
       clipPathUnits="userSpaceOnUse"
       id="clipPath2276">
      <path
         d="M 285.383,244.365 H 595.276 V 841.889 H 285.383 Z"
         transform="translate(-403.93601,-397.51501)"
         id="path2276" />
    </clipPath>
    <clipPath
       clipPathUnits="userSpaceOnUse"
       id="clipPath2278">
      <path
         d="M 285.383,244.365 H 595.276 V 841.889 H 285.383 Z"
         transform="translate(-388.78801,-394.39101)"
         id="path2278" />
    </clipPath>
    <clipPath
       clipPathUnits="userSpaceOnUse"
       id="clipPath2280">
      <path
         d="M 285.383,244.365 H 595.276 V 841.889 H 285.383 Z"
         transform="translate(-396.20701,-382.47201)"
         id="path2280" />
    </clipPath>
    <clipPath
       clipPathUnits="userSpaceOnUse"
       id="clipPath2282">
      <path
         d="M 285.383,244.365 H 595.276 V 841.889 H 285.383 Z"
         transform="translate(-387.70001,-380.09801)"
         id="path2282" />
    </clipPath>
    <clipPath
       clipPathUnits="userSpaceOnUse"
       id="clipPath2284">
      <path
         d="M 285.383,244.365 H 595.276 V 841.889 H 285.383 Z"
         transform="translate(-431.93201,-361.80301)"
         id="path2284" />
    </clipPath>
    <clipPath
       clipPathUnits="userSpaceOnUse"
       id="clipPath2286">
      <path
         d="M 285.383,244.365 H 595.276 V 841.889 H 285.383 Z"
         transform="translate(-394.73601,-371.99101)"
         id="path2286" />
    </clipPath>
    <clipPath
       clipPathUnits="userSpaceOnUse"
       id="clipPath2288">
      <path
         d="M 285.383,244.365 H 595.276 V 841.889 H 285.383 Z"
         transform="translate(-398.22901,-406.41701)"
         id="path2288" />
    </clipPath>
    <clipPath
       clipPathUnits="userSpaceOnUse"
       id="clipPath2290">
      <path
         d="M 285.383,244.365 H 595.276 V 841.889 H 285.383 Z"
         transform="translate(-399.09401,-415.27101)"
         id="path2290" />
    </clipPath>
    <clipPath
       clipPathUnits="userSpaceOnUse"
       id="clipPath2292">
      <path
         d="M 285.383,244.365 H 595.276 V 841.889 H 285.383 Z"
         id="path2292" />
    </clipPath>
    <clipPath
       clipPathUnits="userSpaceOnUse"
       id="clipPath2294">
      <path
         d="M 285.383,244.365 H 595.276 V 841.889 H 285.383 Z"
         transform="translate(-433.72201,-360.91201)"
         id="path2294" />
    </clipPath>
    <clipPath
       clipPathUnits="userSpaceOnUse"
       id="clipPath2296">
      <path
         d="M 285.383,244.365 H 595.276 V 841.889 H 285.383 Z"
         transform="translate(-412.44801,-390.79501)"
         id="path2296" />
    </clipPath>
    <clipPath
       clipPathUnits="userSpaceOnUse"
       id="clipPath2298">
      <path
         d="M 285.383,244.365 H 595.276 V 841.889 H 285.383 Z"
         transform="translate(-412.44801,-390.79601)"
         id="path2298" />
    </clipPath>
    <clipPath
       clipPathUnits="userSpaceOnUse"
       id="clipPath2300">
      <path
         d="M 285.383,244.365 H 595.276 V 841.889 H 285.383 Z"
         transform="translate(-412.44801,-389.70701)"
         id="path2300" />
    </clipPath>
    <clipPath
       clipPathUnits="userSpaceOnUse"
       id="clipPath2302">
      <path
         d="M 285.383,244.365 H 595.276 V 841.889 H 285.383 Z"
         transform="translate(-412.44801,-389.70801)"
         id="path2302" />
    </clipPath>
    <clipPath
       clipPathUnits="userSpaceOnUse"
       id="clipPath2304">
      <path
         d="M 285.383,244.365 H 595.276 V 841.889 H 285.383 Z"
         transform="translate(-403.39101,-385.94001)"
         id="path2304" />
    </clipPath>
    <clipPath
       clipPathUnits="userSpaceOnUse"
       id="clipPath2306">
      <path
         d="M 285.383,244.365 H 595.276 V 841.889 H 285.383 Z"
         transform="translate(-403.39101,-385.94201)"
         id="path2306" />
    </clipPath>
    <clipPath
       clipPathUnits="userSpaceOnUse"
       id="clipPath2308">
      <path
         d="M 285.383,244.365 H 595.276 V 841.889 H 285.383 Z"
         transform="translate(-403.04501,-384.65501)"
         id="path2308" />
    </clipPath>
    <clipPath
       clipPathUnits="userSpaceOnUse"
       id="clipPath2310">
      <path
         d="M 285.383,244.365 H 595.276 V 841.889 H 285.383 Z"
         transform="translate(-403.04501,-384.65601)"
         id="path2310" />
    </clipPath>
  </defs>
  <g
     inkscape:label="Layer 1"
     inkscape:groupmode="layer"
     id="layer1"
     transform="translate(-82.549999,-118.53333)">
    <g
       id="g4075"
       transform="matrix(0.26458333,0,0,0.26458333,65.313981,79.600425)">
      <path
         style="fill:#ffffff;stroke:#ffffff;stroke-width:0.877059"
         id="rect1"
         width="169.20169"
         height="225.89459"
         x="65.582489"
         y="147.58603"
         inkscape:path-effect="#path-effect1"
         sodipodi:type="rect"
         d="M 65.582489,147.58603 H 234.78418 V 373.48062 H 65.582489 Z" />
      <path
         id="path2245"
         d="m 0,0 h -107.832 c -5.417,0 -9.823,-4.347 -9.823,-9.691 v -150.697 c 0,-5.342 4.406,-9.691 9.823,-9.691 H 0 c 5.459,0 9.904,4.349 9.904,9.691 V -9.691 C 9.904,-4.347 5.459,0 0,0 m 0,-0.573 c 5.146,0 9.331,-4.09 9.331,-9.118 v -150.697 c 0,-5.028 -4.185,-9.119 -9.331,-9.119 h -107.832 c -5.101,0 -9.25,4.091 -9.25,9.119 V -9.691 c 0,5.028 4.149,9.118 9.25,9.118 L 0,-0.573"
         style="fill:#4467a5;fill-opacity:1;fill-rule:nonzero;stroke:none"
         transform="matrix(1.3333333,0,0,-1.3333333,222.01733,147.14732)"
         clip-path="url(#clipPath2246)" />
      <path
         id="path2247"
         d="m 0,0 c -2.552,0 -4.628,-2.08 -4.628,-4.636 v -149.335 c 0,-2.554 2.076,-4.633 4.628,-4.633 h 106.484 c 2.594,0 4.704,2.079 4.704,4.633 V -4.636 c 0,2.556 -2.11,4.636 -4.704,4.636 z"
         style="fill:#4467a5;fill-opacity:1;fill-rule:nonzero;stroke:none"
         transform="matrix(1.3333333,0,0,-1.3333333,79.13866,154.79798)"
         clip-path="url(#clipPath2248)" />
      <path
         id="path2249"
         d="m 434.68,358.874 h -68.882 v 68.882 h 68.882 z"
         style="fill:#ffffff;fill-opacity:1;fill-rule:nonzero;stroke:none"
         transform="matrix(1.3333333,0,0,-1.3333333,-383.46934,784.95265)"
         clip-path="url(#clipPath2250)" />
      <path
         id="path2251"
         d="m 0,0 c -0.989,1.352 -0.362,3.033 1.879,4.154 3.56,0.712 19.915,-10.338 24.138,-11.474 0.033,-2.935 0.066,-5.87 0.098,-8.805 -0.527,0.033 -1.054,0.065 -1.582,0.099 C 16.454,-10.618 8.31,-5.342 0,0"
         style="fill:#ffffff;fill-opacity:1;fill-rule:nonzero;stroke:none"
         transform="matrix(1.3333333,0,0,-1.3333333,157.61733,256.11932)"
         clip-path="url(#clipPath2252)" />
      <path
         id="path2253"
         d="M 0,0 C -0.094,-0.197 -0.386,-0.636 -0.212,-0.812 0.833,-1.869 3.672,-3.66 7.864,-6.108 6.009,-6.084 4.83,-6.702 3.98,-7.271 2.728,-6.742 -2.54,-3.726 -8.904,0.297 -9.827,2.672 -9.003,3.924 -6.529,3.858 -2.902,1.913 -0.759,0.66 0,0"
         style="fill:#ffffff;fill-opacity:1;fill-rule:nonzero;stroke:none"
         transform="matrix(1.3333333,0,0,-1.3333333,155.11199,254.93398)"
         clip-path="url(#clipPath2254)" />
      <path
         id="path2255"
         d="M 0,0 C -0.627,2.457 0.329,3.562 2.868,3.313 7.632,0.528 12.396,-2.258 17.16,-5.044 16.665,-5.818 15.907,-6.891 14.885,-8.258 14.044,-8.604 13.236,-8.521 12.462,-8.011 6.148,-4.104 1.978,-1.417 0,0"
         style="fill:#ffffff;fill-opacity:1;fill-rule:nonzero;stroke:none"
         transform="matrix(1.3333333,0,0,-1.3333333,134.91599,259.09932)"
         clip-path="url(#clipPath2256)" />
      <path
         id="path2257"
         d="M 0,0 C 0.725,1.385 1.911,2.374 3.56,2.968 1.17,4.368 -1.896,6.116 -5.687,8.259 -8.144,7.962 -8.984,6.742 -8.21,4.6 -4.632,1.847 -1.863,0.298 0,0"
         style="fill:#ffffff;fill-opacity:1;fill-rule:nonzero;stroke:none"
         transform="matrix(1.3333333,0,0,-1.3333333,144.80666,274.98998)"
         clip-path="url(#clipPath2258)" />
      <path
         id="path2259"
         d="M 0,0 C -0.643,2.406 0.197,3.626 2.521,3.659 4.021,2.769 5.571,1.879 7.12,0.988 6.445,-0.545 6.264,-2.177 6.577,-3.907 6.049,-4.171 3.824,-2.854 0,0"
         style="fill:#ffffff;fill-opacity:1;fill-rule:nonzero;stroke:none"
         transform="matrix(1.3333333,0,0,-1.3333333,133.46533,278.15398)"
         clip-path="url(#clipPath2260)" />
      <path
         id="path2261"
         d="m 0,0 h -14.442 l -10.483,6.306 c 1.467,0.404 3.576,1.599 4.745,3.882 1.88,0.265 11.475,2.209 9.2,13.257 L -2.176,17.607 0,17.41 Z"
         style="fill:#ffffff;fill-opacity:1;fill-rule:nonzero;stroke:none"
         transform="matrix(1.3333333,0,0,-1.3333333,192.43733,302.54732)"
         clip-path="url(#clipPath2262)" />
      <path
         id="path2263"
         d="m 0,0 c 2.901,-3.957 6.99,-5.54 10.98,-4.452 l 0.594,-5.539 H 0 Z"
         style="fill:#ffffff;fill-opacity:1;fill-rule:nonzero;stroke:none"
         transform="matrix(1.3333333,0,0,-1.3333333,142.84533,288.96198)"
         clip-path="url(#clipPath2264)" />
      <path
         id="path2265"
         d="M 0,0 3.957,0.023 4.476,-6.231 -0.271,-3.71 Z"
         style="fill:#ffffff;fill-opacity:1;fill-rule:nonzero;stroke:none"
         transform="matrix(1.3333333,0,0,-1.3333333,147.50266,243.06465)"
         clip-path="url(#clipPath2266)" />
      <path
         id="path2267"
         d="M 0,0 H 1.979 L 2.572,-4.155 H -0.544 Z"
         style="fill:#ffffff;fill-opacity:1;fill-rule:nonzero;stroke:none"
         transform="matrix(1.3333333,0,0,-1.3333333,148.65599,231.25932)"
         clip-path="url(#clipPath2268)" />
      <path
         id="path2269"
         d="m 399.094,420.866 h 1.979 v -2.969 h -1.979 z"
         style="fill:#ffffff;fill-opacity:1;fill-rule:nonzero;stroke:none"
         transform="matrix(1.3333333,0,0,-1.3333333,-383.46934,784.95265)"
         clip-path="url(#clipPath2270)" />
      <path
         id="path2271"
         d="m 0,0 h -66.68 v 21.568 l 27.304,38.978 h 11.675 L -9.3,33.637 0,28.689 Z"
         style="fill:#231f20;fill-opacity:1;fill-rule:nonzero;stroke:none"
         transform="matrix(1.3333333,0,0,-1.3333333,194.82533,303.73398)"
         clip-path="url(#clipPath2272)" />
      <path
         id="path2273"
         d="m 0,0 c -0.99,1.352 -0.363,3.034 1.879,4.154 3.559,0.713 19.916,-10.336 24.139,-11.475 0.033,-2.935 0.065,-5.869 0.098,-8.805 -0.527,0.033 -1.054,0.065 -1.583,0.1 C 16.454,-10.618 8.31,-5.342 0,0"
         style="fill:#ffffff;fill-opacity:1;fill-rule:nonzero;stroke:#231f20;stroke-width:0.01;stroke-linecap:butt;stroke-linejoin:miter;stroke-miterlimit:2.613;stroke-dasharray:none;stroke-opacity:1"
         transform="matrix(1.3333333,0,0,-1.3333333,157.61866,256.11932)"
         clip-path="url(#clipPath2274)" />
      <path
         id="path2275"
         d="M 0,0 C -0.093,-0.198 -0.386,-0.637 -0.212,-0.812 0.833,-1.869 3.672,-3.661 7.864,-6.109 6.01,-6.084 4.83,-6.703 3.98,-7.271 2.729,-6.743 -2.54,-3.728 -8.904,0.296 -9.827,2.671 -9.003,3.924 -6.529,3.856 -2.902,1.912 -0.759,0.659 0,0"
         style="fill:#ffffff;fill-opacity:1;fill-rule:nonzero;stroke:#231f20;stroke-width:0.01;stroke-linecap:butt;stroke-linejoin:miter;stroke-miterlimit:2.613;stroke-dasharray:none;stroke-opacity:1"
         transform="matrix(1.3333333,0,0,-1.3333333,155.11199,254.93265)"
         clip-path="url(#clipPath2276)" />
      <path
         id="path2277"
         d="M 0,0 C -0.627,2.456 0.329,3.561 2.868,3.313 7.633,0.527 12.396,-2.259 17.161,-5.045 16.667,-5.819 15.908,-6.892 14.887,-8.259 14.045,-8.605 13.238,-8.523 12.463,-8.012 6.149,-4.105 1.978,-1.418 0,0"
         style="fill:#ffffff;fill-opacity:1;fill-rule:nonzero;stroke:#231f20;stroke-width:0.01;stroke-linecap:butt;stroke-linejoin:miter;stroke-miterlimit:2.613;stroke-dasharray:none;stroke-opacity:1"
         transform="matrix(1.3333333,0,0,-1.3333333,134.91466,259.09798)"
         clip-path="url(#clipPath2278)" />
      <path
         id="path2279"
         d="M 0,0 C 0.725,1.384 1.912,2.374 3.561,2.967 1.17,4.368 -1.896,6.116 -5.688,8.259 -8.145,7.962 -8.985,6.742 -8.21,4.6 -4.633,1.846 -1.863,0.297 0,0"
         style="fill:#ffffff;fill-opacity:1;fill-rule:nonzero;stroke:#231f20;stroke-width:0.01;stroke-linecap:butt;stroke-linejoin:miter;stroke-miterlimit:2.613;stroke-dasharray:none;stroke-opacity:1"
         transform="matrix(1.3333333,0,0,-1.3333333,144.80666,274.98998)"
         clip-path="url(#clipPath2280)" />
      <path
         id="path2281"
         d="M 0,0 C -0.643,2.407 0.198,3.626 2.522,3.66 4.022,2.77 5.572,1.88 7.121,0.989 6.445,-0.544 6.265,-2.176 6.578,-3.907 6.05,-4.171 3.824,-2.853 0,0"
         style="fill:#ffffff;fill-opacity:1;fill-rule:nonzero;stroke:#231f20;stroke-width:0.01;stroke-linecap:butt;stroke-linejoin:miter;stroke-miterlimit:2.613;stroke-dasharray:none;stroke-opacity:1"
         transform="matrix(1.3333333,0,0,-1.3333333,133.46399,278.15532)"
         clip-path="url(#clipPath2282)" />
      <path
         id="path2283"
         d="m 0,0 h -14.443 l -10.484,6.305 c 1.468,0.404 3.576,1.6 4.746,3.883 1.879,0.265 11.475,2.209 9.2,13.257 L -2.176,17.607 0,17.41 Z"
         style="fill:#ffffff;fill-opacity:1;fill-rule:nonzero;stroke:#231f20;stroke-width:0.01;stroke-linecap:butt;stroke-linejoin:miter;stroke-miterlimit:2.613;stroke-dasharray:none;stroke-opacity:1"
         transform="matrix(1.3333333,0,0,-1.3333333,192.43999,302.54865)"
         clip-path="url(#clipPath2284)" />
      <path
         id="path2285"
         d="m 0,0 c 2.901,-3.957 6.99,-5.539 10.98,-4.451 l 0.594,-5.54 H 0 Z"
         style="fill:#ffffff;fill-opacity:1;fill-rule:nonzero;stroke:#231f20;stroke-width:0.01;stroke-linecap:butt;stroke-linejoin:miter;stroke-miterlimit:2.613;stroke-dasharray:none;stroke-opacity:1"
         transform="matrix(1.3333333,0,0,-1.3333333,142.84533,288.96465)"
         clip-path="url(#clipPath2286)" />
      <path
         id="path2287"
         d="M 0,0 3.957,0.023 4.476,-6.232 -0.271,-3.71 Z"
         style="fill:#ffffff;fill-opacity:1;fill-rule:nonzero;stroke:#231f20;stroke-width:0.01;stroke-linecap:butt;stroke-linejoin:miter;stroke-miterlimit:2.613;stroke-dasharray:none;stroke-opacity:1"
         transform="matrix(1.3333333,0,0,-1.3333333,147.50266,243.06332)"
         clip-path="url(#clipPath2288)" />
      <path
         id="path2289"
         d="M 0,0 H 1.979 L 2.572,-4.155 H -0.544 Z"
         style="fill:#ffffff;fill-opacity:1;fill-rule:nonzero;stroke:#231f20;stroke-width:0.01;stroke-linecap:butt;stroke-linejoin:miter;stroke-miterlimit:2.613;stroke-dasharray:none;stroke-opacity:1"
         transform="matrix(1.3333333,0,0,-1.3333333,148.65599,231.25798)"
         clip-path="url(#clipPath2290)" />
      <path
         id="path2291"
         d="m 399.094,420.868 h 1.979 v -2.969 h -1.979 z"
         style="fill:#ffffff;fill-opacity:1;fill-rule:nonzero;stroke:#231f20;stroke-width:0.01;stroke-linecap:butt;stroke-linejoin:miter;stroke-miterlimit:2.613;stroke-dasharray:none;stroke-opacity:1"
         transform="matrix(1.3333333,0,0,-1.3333333,-383.46934,784.95265)"
         clip-path="url(#clipPath2292)" />
      <path
         id="path2293"
         d="m 0,0 h -66.683 v 21.569 l 27.306,38.981 h 11.675 L -9.3,33.64 0,28.691 Z"
         style="fill:none;stroke:#231f20;stroke-width:0.01;stroke-linecap:butt;stroke-linejoin:miter;stroke-miterlimit:2.613;stroke-dasharray:none;stroke-opacity:1"
         transform="matrix(1.3333333,0,0,-1.3333333,194.82666,303.73665)"
         clip-path="url(#clipPath2294)" />
      <path
         id="path2295"
         d="m 0,0 c 4.889,0 8.854,-3.965 8.854,-8.854 0,-4.889 -3.965,-8.853 -8.854,-8.853 -4.889,0 -8.854,3.964 -8.854,8.853 C -8.854,-3.965 -4.889,0 0,0"
         style="fill:#231f20;fill-opacity:1;fill-rule:nonzero;stroke:none"
         transform="matrix(1.3333333,0,0,-1.3333333,166.46133,263.89265)"
         clip-path="url(#clipPath2296)" />
      <path
         id="path2297"
         d="m 0,0 c 4.89,0 8.855,-3.965 8.855,-8.854 0,-4.891 -3.965,-8.856 -8.855,-8.856 -4.89,0 -8.855,3.965 -8.855,8.856 C -8.855,-3.965 -4.89,0 0,0 Z"
         style="fill:none;stroke:#231f20;stroke-width:0.01;stroke-linecap:butt;stroke-linejoin:miter;stroke-miterlimit:2.613;stroke-dasharray:none;stroke-opacity:1"
         transform="matrix(1.3333333,0,0,-1.3333333,166.46133,263.89132)"
         clip-path="url(#clipPath2298)" />
      <path
         id="path2299"
         d="m 0,0 c 4.288,0 7.765,-3.479 7.765,-7.767 0,-4.287 -3.477,-7.764 -7.765,-7.764 -4.288,0 -7.766,3.477 -7.766,7.764 C -7.766,-3.479 -4.288,0 0,0"
         style="fill:#fed402;fill-opacity:1;fill-rule:nonzero;stroke:none"
         transform="matrix(1.3333333,0,0,-1.3333333,166.46133,265.34332)"
         clip-path="url(#clipPath2300)" />
      <path
         id="path2301"
         d="m 0,0 c 4.289,0 7.767,-3.479 7.767,-7.768 0,-4.289 -3.478,-7.766 -7.767,-7.766 -4.289,0 -7.768,3.477 -7.768,7.766 C -7.768,-3.479 -4.289,0 0,0 Z"
         style="fill:none;stroke:#231f20;stroke-width:0.01;stroke-linecap:butt;stroke-linejoin:miter;stroke-miterlimit:2.613;stroke-dasharray:none;stroke-opacity:1"
         transform="matrix(1.3333333,0,0,-1.3333333,166.46133,265.34198)"
         clip-path="url(#clipPath2302)" />
      <path
         id="path2303"
         d="m 0,0 c 4.89,0 8.854,-3.964 8.854,-8.854 0,-4.888 -3.964,-8.853 -8.854,-8.853 -4.889,0 -8.854,3.965 -8.854,8.853 C -8.854,-3.964 -4.889,0 0,0"
         style="fill:#231f20;fill-opacity:1;fill-rule:nonzero;stroke:none"
         transform="matrix(1.3333333,0,0,-1.3333333,154.38533,270.36598)"
         clip-path="url(#clipPath2304)" />
      <path
         id="path2305"
         d="m 0,0 c 4.89,0 8.855,-3.965 8.855,-8.855 0,-4.89 -3.965,-8.856 -8.855,-8.856 -4.89,0 -8.855,3.966 -8.855,8.856 C -8.855,-3.965 -4.89,0 0,0 Z"
         style="fill:none;stroke:#231f20;stroke-width:0.01;stroke-linecap:butt;stroke-linejoin:miter;stroke-miterlimit:2.613;stroke-dasharray:none;stroke-opacity:1"
         transform="matrix(1.3333333,0,0,-1.3333333,154.38533,270.36332)"
         clip-path="url(#clipPath2306)" />
      <path
         id="path2307"
         d="m 0,0 c 4.287,0 7.766,-3.479 7.766,-7.766 0,-4.288 -3.479,-7.765 -7.766,-7.765 -4.288,0 -7.766,3.477 -7.766,7.765 C -7.766,-3.479 -4.288,0 0,0"
         style="fill:#fed402;fill-opacity:1;fill-rule:nonzero;stroke:none"
         transform="matrix(1.3333333,0,0,-1.3333333,153.92399,272.07932)"
         clip-path="url(#clipPath2308)" />
      <path
         id="path2309"
         d="m 0,0 c 4.289,0 7.767,-3.479 7.767,-7.768 0,-4.288 -3.478,-7.765 -7.767,-7.765 -4.289,0 -7.768,3.477 -7.768,7.765 C -7.768,-3.479 -4.289,0 0,0 Z"
         style="fill:none;stroke:#231f20;stroke-width:0.01;stroke-linecap:butt;stroke-linejoin:miter;stroke-miterlimit:2.613;stroke-dasharray:none;stroke-opacity:1"
         transform="matrix(1.3333333,0,0,-1.3333333,153.92399,272.07798)"
         clip-path="url(#clipPath2310)" />
    </g>
  </g>
</svg>
