<?xml version="1.0" encoding="UTF-8" standalone="no"?>
<!-- Created with Inkscape (http://www.inkscape.org/) -->

<svg
   width="44.999977mm"
   height="59.999737mm"
   viewBox="0 0 44.999977 59.999737"
   version="1.1"
   id="svg1"
   inkscape:version="1.4 (86a8ad7, 2024-10-11)"
   sodipodi:docname="u turn ahead facility sign.svg"
   xmlns:inkscape="http://www.inkscape.org/namespaces/inkscape"
   xmlns:sodipodi="http://sodipodi.sourceforge.net/DTD/sodipodi-0.dtd"
   xmlns="http://www.w3.org/2000/svg"
   xmlns:svg="http://www.w3.org/2000/svg">
  <sodipodi:namedview
     id="namedview1"
     pagecolor="#ffffff"
     bordercolor="#000000"
     borderopacity="0.25"
     inkscape:showpageshadow="2"
     inkscape:pageopacity="0.0"
     inkscape:pagecheckerboard="0"
     inkscape:deskcolor="#d1d1d1"
     inkscape:document-units="mm"
     inkscape:zoom="2.8756734"
     inkscape:cx="75.460586"
     inkscape:cy="106.23599"
     inkscape:window-width="1920"
     inkscape:window-height="1009"
     inkscape:window-x="-8"
     inkscape:window-y="-8"
     inkscape:window-maximized="1"
     inkscape:current-layer="g4075" />
  <defs
     id="defs1">
    <inkscape:path-effect
       effect="fillet_chamfer"
       id="path-effect1"
       is_visible="true"
       lpeversion="1"
       nodesatellites_param="F,0,0,1,0,0,0,1 @ F,0,0,1,0,0,0,1 @ F,0,0,1,0,0,0,1 @ F,0,0,1,0,0,0,1"
       radius="0"
       unit="px"
       method="auto"
       mode="F"
       chamfer_steps="1"
       flexible="false"
       use_knot_distance="true"
       apply_no_radius="true"
       apply_with_radius="true"
       only_selected="false"
       hide_knots="false" />
    <clipPath
       clipPathUnits="userSpaceOnUse"
       id="clipPath4010">
      <path
         d="M 0,841.89 H 595.276 V 0 H 0 Z"
         transform="translate(-166.51401,-731.52902)"
         id="path4010" />
    </clipPath>
    <clipPath
       clipPathUnits="userSpaceOnUse"
       id="clipPath4012">
      <path
         d="M 0,841.89 H 595.276 V 0 H 0 Z"
         transform="translate(-59.355001,-725.79102)"
         id="path4012" />
    </clipPath>
    <clipPath
       clipPathUnits="userSpaceOnUse"
       id="clipPath4014">
      <path
         d="M 0,841.89 H 595.276 V 0 H 0 Z"
         id="path4014" />
    </clipPath>
    <clipPath
       clipPathUnits="userSpaceOnUse"
       id="clipPath4016">
      <path
         d="M 0,841.89 H 595.276 V 0 H 0 Z"
         transform="translate(-132.939,-632.53702)"
         id="path4016" />
    </clipPath>
    <clipPath
       clipPathUnits="userSpaceOnUse"
       id="clipPath4018">
      <path
         d="M 0,841.89 H 595.276 V 0 H 0 Z"
         transform="translate(-446.64601,-731.52902)"
         id="path4018" />
    </clipPath>
    <clipPath
       clipPathUnits="userSpaceOnUse"
       id="clipPath4020">
      <path
         d="M 0,841.89 H 595.276 V 0 H 0 Z"
         transform="translate(-339.48701,-725.79102)"
         id="path4020" />
    </clipPath>
    <clipPath
       clipPathUnits="userSpaceOnUse"
       id="clipPath4022">
      <path
         d="M 0,841.89 H 595.276 V 0 H 0 Z"
         id="path4022" />
    </clipPath>
    <clipPath
       clipPathUnits="userSpaceOnUse"
       id="clipPath4024">
      <path
         d="M 0,841.89 H 595.276 V 0 H 0 Z"
         transform="translate(-409.44701,-659.97202)"
         id="path4024" />
    </clipPath>
    <clipPath
       clipPathUnits="userSpaceOnUse"
       id="clipPath1000">
      <path
         d="M 0,0 H 595.276 V 841.89 H 0 Z"
         transform="translate(-166.51401,-731.47102)"
         id="path1000" />
    </clipPath>
    <clipPath
       clipPathUnits="userSpaceOnUse"
       id="clipPath1002">
      <path
         d="M 0,0 H 595.276 V 841.89 H 0 Z"
         transform="translate(-59.354602,-725.73102)"
         id="path1002" />
    </clipPath>
    <clipPath
       clipPathUnits="userSpaceOnUse"
       id="clipPath1004">
      <path
         d="M 0,0 H 595.276 V 841.89 H 0 Z"
         transform="translate(-94.148605,-610.35401)"
         id="path1004" />
    </clipPath>
    <clipPath
       clipPathUnits="userSpaceOnUse"
       id="clipPath1006">
      <path
         d="M 0,0 H 595.276 V 841.89 H 0 Z"
         id="path1006" />
    </clipPath>
    <clipPath
       clipPathUnits="userSpaceOnUse"
       id="clipPath1008">
      <path
         d="M 0,0 H 595.276 V 841.89 H 0 Z"
         transform="translate(-141.47001,-653.96302)"
         id="path1008" />
    </clipPath>
    <clipPath
       clipPathUnits="userSpaceOnUse"
       id="clipPath1010">
      <path
         d="M 0,0 H 595.276 V 841.89 H 0 Z"
         id="path1010" />
    </clipPath>
    <clipPath
       clipPathUnits="userSpaceOnUse"
       id="clipPath1012">
      <path
         d="M 0,0 H 595.276 V 841.89 H 0 Z"
         transform="translate(-122.364,-682.30502)"
         id="path1012" />
    </clipPath>
    <clipPath
       clipPathUnits="userSpaceOnUse"
       id="clipPath1156">
      <path
         d="M 0,841.89 H 595.276 V 0 H 0 Z"
         transform="translate(-446.60801,-731.50002)"
         id="path1156" />
    </clipPath>
    <clipPath
       clipPathUnits="userSpaceOnUse"
       id="clipPath1158">
      <path
         d="M 0,841.89 H 595.276 V 0 H 0 Z"
         transform="translate(-339.44801,-725.76202)"
         id="path1158" />
    </clipPath>
    <clipPath
       clipPathUnits="userSpaceOnUse"
       id="clipPath1160">
      <path
         d="M 0,841.89 H 595.276 V 0 H 0 Z"
         id="path1160" />
    </clipPath>
    <clipPath
       clipPathUnits="userSpaceOnUse"
       id="clipPath1162">
      <path
         d="M 0,841.89 H 595.276 V 0 H 0 Z"
         transform="translate(-399.90201,-688.14002)"
         id="path1162" />
    </clipPath>
    <clipPath
       clipPathUnits="userSpaceOnUse"
       id="clipPath1166">
      <path
         d="M 0,841.89 H 595.276 V 0 H 0 Z"
         transform="translate(-168.13701,-485.24801)"
         id="path1166" />
    </clipPath>
    <clipPath
       clipPathUnits="userSpaceOnUse"
       id="clipPath1168">
      <path
         d="M 0,841.89 H 595.276 V 0 H 0 Z"
         transform="translate(-60.977702,-479.51001)"
         id="path1168" />
    </clipPath>
    <clipPath
       clipPathUnits="userSpaceOnUse"
       id="clipPath1170">
      <path
         d="M 0,841.89 H 595.276 V 0 H 0 Z"
         transform="translate(-138.622,-407.33201)"
         id="path1170" />
    </clipPath>
  </defs>
  <g
     inkscape:label="Layer 1"
     inkscape:groupmode="layer"
     id="layer1"
     transform="translate(-82.549999,-118.53333)">
    <g
       id="g4075"
       transform="matrix(0.26458333,0,0,0.26458333,65.313981,79.600425)">
      <path
         style="fill:#ffffff;stroke:#ffffff;stroke-width:0.877059"
         id="rect1"
         width="169.20169"
         height="225.89459"
         x="65.582489"
         y="147.58603"
         inkscape:path-effect="#path-effect1"
         sodipodi:type="rect"
         d="M 65.582489,147.58603 H 234.78418 V 373.48062 H 65.582489 Z" />
      <path
         id="path1165"
         d="m 0,0 h -107.833 c -5.417,0 -9.823,-4.347 -9.823,-9.691 v -150.697 c 0,-5.342 4.406,-9.691 9.823,-9.691 H 0 c 5.458,0 9.903,4.349 9.903,9.691 V -9.691 C 9.903,-4.347 5.458,0 0,0 m 0,-0.573 c 5.145,0 9.331,-4.09 9.331,-9.118 v -150.697 c 0,-5.028 -4.186,-9.118 -9.331,-9.118 h -107.833 c -5.1,0 -9.25,4.09 -9.25,9.118 V -9.691 c 0,5.028 4.15,9.118 9.25,9.118 L 0,-0.573"
         style="fill:#4467a5;fill-opacity:1;fill-rule:nonzero;stroke:none"
         transform="matrix(1.3333333,0,0,-1.3333333,222.01867,147.14732)"
         clip-path="url(#clipPath1166)" />
      <path
         id="path1167"
         d="m 0,0 c -2.552,0 -4.628,-2.08 -4.628,-4.636 v -149.335 c 0,-2.554 2.076,-4.633 4.628,-4.633 h 106.485 c 2.594,0 4.704,2.079 4.704,4.633 V -4.636 c 0,2.556 -2.11,4.636 -4.704,4.636 z"
         style="fill:#4467a5;fill-opacity:1;fill-rule:nonzero;stroke:none"
         transform="matrix(1.3333333,0,0,-1.3333333,79.139595,154.79798)"
         clip-path="url(#clipPath1168)" />
      <path
         id="path1169"
         d="m 0,0 -0.053,33.238 c 0,4.335 -0.824,8.329 -2.45,11.872 -1.51,3.289 -3.689,6.155 -6.477,8.517 -2.611,2.213 -5.681,3.926 -9.124,5.093 -3.311,1.123 -6.817,1.691 -10.421,1.691 -3.603,0 -7.109,-0.568 -10.42,-1.69 -3.442,-1.167 -6.512,-2.88 -9.123,-5.093 -2.788,-2.362 -4.967,-5.228 -6.476,-8.516 -1.626,-3.543 -2.451,-7.537 -2.451,-11.873 v -73.685 h 15.95 v 73.683 c 0,7.631 6.492,11.107 12.523,11.107 6.032,0 12.523,-3.476 12.523,-11.107 L -15.949,0 h -8.322 L -7.998,-28.798 8.272,0 Z"
         style="fill:#ffffff;fill-opacity:1;fill-rule:nonzero;stroke:none"
         transform="matrix(1.3333333,0,0,-1.3333333,182.66533,251.03532)"
         clip-path="url(#clipPath1170)" />
      <path
         style="font-weight:700;font-size:32.9649px;font-family:Arial;fill:#ffffff;stroke-width:1.3332"
         d="m 89.364531,327.4152 h 4.764458 v 12.78034 q 0,3.04217 0.177058,3.94355 0.305826,1.44866 1.448653,2.33394 1.158922,0.8692 3.154844,0.8692 2.028116,0 3.058266,-0.82091 1.03015,-0.837 1.2394,-2.04421 0.20925,-1.20721 0.20925,-4.00794 V 327.4152 h 4.76446 v 12.39403 q 0,4.24938 -0.38631,6.00386 -0.3863,1.75448 -1.43255,2.96169 -1.03016,1.20721 -2.76854,1.93154 -1.73838,0.70823 -4.539111,0.70823 -3.38019,0 -5.13467,-0.77262 -1.738383,-0.78871 -2.75244,-2.02811 -1.014057,-1.2555 -1.33598,-2.62367 -0.466788,-2.02811 -0.466788,-5.98777 z m 23.291119,17.30335 v -4.52301 h 8.88507 v 4.52301 z m 16.83657,6.2936 v -19.60511 h -7.00182 v -3.99184 h 18.752 v 3.99184 h -6.98572 v 19.60511 z m 14.79235,-23.59695 h 4.76446 v 12.78034 q 0,3.04217 0.17706,3.94355 0.30582,1.44866 1.44865,2.33394 1.15892,0.8692 3.15484,0.8692 2.02812,0 3.05827,-0.82091 1.03015,-0.837 1.2394,-2.04421 0.20925,-1.20721 0.20925,-4.00794 V 327.4152 h 4.76446 v 12.39403 q 0,4.24938 -0.38631,6.00386 -0.3863,1.75448 -1.43255,2.96169 -1.03016,1.20721 -2.76854,1.93154 -1.73838,0.70823 -4.53911,0.70823 -3.38019,0 -5.13467,-0.77262 -1.73838,-0.78871 -2.75244,-2.02811 -1.01406,-1.2555 -1.33598,-2.62367 -0.46679,-2.02811 -0.46679,-5.98777 z m 23.85448,23.59695 V 327.4152 h 10.0279 q 3.78259,0 5.48879,0.64385 1.72228,0.62775 2.75244,2.25346 1.03015,1.62571 1.03015,3.71821 0,2.65586 -1.56133,4.39424 -1.56132,1.72229 -4.66788,2.17298 1.54523,0.90139 2.54319,1.97983 1.01406,1.07844 2.72025,3.83088 l 2.88121,4.6035 h -5.69803 l -3.44458,-5.13467 q -1.83496,-2.75244 -2.511,-3.46067 -0.67604,-0.72433 -1.43255,-0.98187 -0.75652,-0.27363 -2.39833,-0.27363 h -0.96577 v 9.85084 z m 4.76446,-13.61734 h 3.52506 q 3.42848,0 4.28157,-0.28973 0.8531,-0.28973 1.33598,-0.99796 0.48289,-0.70823 0.48289,-1.77058 0,-1.19111 -0.64385,-1.91544 -0.62775,-0.74042 -1.78667,-0.93358 -0.57946,-0.0805 -3.47677,-0.0805 h -3.71821 z m 19.07393,13.61734 V 327.4152 h 4.63569 l 9.65769,15.75812 V 327.4152 h 4.42644 v 23.59695 h -4.78056 l -9.51282,-15.38792 v 15.38792 z"
         id="text1170"
         transform="scale(1.0001011,0.99989889)"
         aria-label="U-TURN" />
    </g>
  </g>
</svg>
