<?xml version="1.0" encoding="UTF-8" standalone="no"?>
<!-- Created with Inkscape (http://www.inkscape.org/) -->

<svg
   width="50.078217mm"
   height="50.078217mm"
   viewBox="0 0 50.078217 50.078217"
   version="1.1"
   id="svg1"
   inkscape:version="1.4 (86a8ad7, 2024-10-11)"
   sodipodi:docname="bus only.svg"
   xmlns:inkscape="http://www.inkscape.org/namespaces/inkscape"
   xmlns:sodipodi="http://sodipodi.sourceforge.net/DTD/sodipodi-0.dtd"
   xmlns="http://www.w3.org/2000/svg"
   xmlns:svg="http://www.w3.org/2000/svg">
  <sodipodi:namedview
     id="namedview1"
     pagecolor="#ffffff"
     bordercolor="#000000"
     borderopacity="0.25"
     inkscape:showpageshadow="2"
     inkscape:pageopacity="0.0"
     inkscape:pagecheckerboard="0"
     inkscape:deskcolor="#d1d1d1"
     inkscape:document-units="mm"
     inkscape:zoom="2.8756734"
     inkscape:cx="103.28016"
     inkscape:cy="110.06118"
     inkscape:window-width="1920"
     inkscape:window-height="1009"
     inkscape:window-x="-8"
     inkscape:window-y="-8"
     inkscape:window-maximized="1"
     inkscape:current-layer="layer1" />
  <defs
     id="defs1">
    <clipPath
       clipPathUnits="userSpaceOnUse"
       id="clipPath4">
      <path
         d="M 0,841.89 H 595.276 V 0 H 0 Z"
         transform="translate(-113.21901,-710.32402)"
         id="path4" />
    </clipPath>
    <clipPath
       clipPathUnits="userSpaceOnUse"
       id="clipPath6">
      <path
         d="M 0,841.89 H 595.276 V 0 H 0 Z"
         transform="translate(-113.21901,-573.31601)"
         id="path6" />
    </clipPath>
    <clipPath
       clipPathUnits="userSpaceOnUse"
       id="clipPath8">
      <path
         d="M 0,841.89 H 595.276 V 0 H 0 Z"
         transform="translate(-143.964,-644.94101)"
         id="path8" />
    </clipPath>
    <clipPath
       clipPathUnits="userSpaceOnUse"
       id="clipPath982">
      <path
         d="M 0,841.89 H 595.276 V 0 H 0 Z"
         transform="translate(-391.22801,-710.00702)"
         id="path982" />
    </clipPath>
    <clipPath
       clipPathUnits="userSpaceOnUse"
       id="clipPath984">
      <path
         d="M 0,841.89 H 595.276 V 0 H 0 Z"
         transform="translate(-391.22801,-572.99902)"
         id="path984" />
    </clipPath>
    <clipPath
       clipPathUnits="userSpaceOnUse"
       id="clipPath986">
      <path
         d="M 0,841.89 H 595.276 V 0 H 0 Z"
         transform="translate(-443.75101,-642.12502)"
         id="path986" />
    </clipPath>
    <clipPath
       clipPathUnits="userSpaceOnUse"
       id="clipPath988">
      <path
         d="M 0,841.89 H 595.276 V 0 H 0 Z"
         transform="translate(-337.61401,-643.11902)"
         id="path988" />
    </clipPath>
    <clipPath
       clipPathUnits="userSpaceOnUse"
       id="clipPath990">
      <path
         d="M 0,841.89 H 595.276 V 0 H 0 Z"
         transform="translate(-357.12801,-673.39702)"
         id="path990" />
    </clipPath>
    <clipPath
       clipPathUnits="userSpaceOnUse"
       id="clipPath992">
      <path
         d="M 0,841.89 H 595.276 V 0 H 0 Z"
         id="path992" />
    </clipPath>
    <clipPath
       clipPathUnits="userSpaceOnUse"
       id="clipPath2055">
      <path
         d="M 0,841.89 H 595.276 V 0 H 0 Z"
         transform="translate(-113.383,-461.85101)"
         id="path2055" />
    </clipPath>
    <clipPath
       clipPathUnits="userSpaceOnUse"
       id="clipPath2057">
      <path
         d="M 0,841.89 H 595.276 V 0 H 0 Z"
         transform="translate(-113.383,-324.84301)"
         id="path2057" />
    </clipPath>
    <clipPath
       clipPathUnits="userSpaceOnUse"
       id="clipPath2059">
      <path
         d="M 0,841.89 H 595.276 V 0 H 0 Z"
         transform="translate(-84.8503,-398.56101)"
         id="path2059" />
    </clipPath>
    <clipPath
       clipPathUnits="userSpaceOnUse"
       id="clipPath2061">
      <path
         d="M 0,841.89 H 595.276 V 0 H 0 Z"
         transform="translate(-114.12,-443.97801)"
         id="path2061" />
    </clipPath>
    <clipPath
       clipPathUnits="userSpaceOnUse"
       id="clipPath2004">
      <path
         d="M 0,841.89 H 595.276 V 0 H 0 Z"
         transform="translate(-390.30201,-461.85201)"
         id="path2004" />
    </clipPath>
    <clipPath
       clipPathUnits="userSpaceOnUse"
       id="clipPath2006">
      <path
         d="M 0,841.89 H 595.276 V 0 H 0 Z"
         transform="translate(-390.30201,-324.84301)"
         id="path2006" />
    </clipPath>
    <clipPath
       clipPathUnits="userSpaceOnUse"
       id="clipPath2008">
      <path
         d="M 0,841.89 H 595.276 V 0 H 0 Z"
         transform="translate(-424.30001,-377.20501)"
         id="path2008" />
    </clipPath>
    <clipPath
       clipPathUnits="userSpaceOnUse"
       id="clipPath2010">
      <path
         d="M 0,841.89 H 595.276 V 0 H 0 Z"
         transform="translate(-403.02501,-369.79201)"
         id="path2010" />
    </clipPath>
    <clipPath
       clipPathUnits="userSpaceOnUse"
       id="clipPath2012">
      <path
         d="M 0,841.89 H 595.276 V 0 H 0 Z"
         transform="translate(-402.17601,-390.97601)"
         id="path2012" />
    </clipPath>
    <clipPath
       clipPathUnits="userSpaceOnUse"
       id="clipPath2042">
      <path
         d="M 0,841.89 H 595.276 V 0 H 0 Z"
         transform="translate(-390.49201,-213.74901)"
         id="path2042" />
    </clipPath>
    <clipPath
       clipPathUnits="userSpaceOnUse"
       id="clipPath2044">
      <path
         d="M 0,841.89 H 595.276 V 0 H 0 Z"
         transform="translate(-390.49201,-76.741577)"
         id="path2044" />
    </clipPath>
    <clipPath
       clipPathUnits="userSpaceOnUse"
       id="clipPath2046">
      <path
         d="M 0,841.89 H 595.276 V 0 H 0 Z"
         transform="translate(-343.80101,-165.41301)"
         id="path2046" />
    </clipPath>
    <clipPath
       clipPathUnits="userSpaceOnUse"
       id="clipPath2048">
      <path
         d="M 0,841.89 H 595.276 V 0 H 0 Z"
         transform="translate(-398.34301,-120.35301)"
         id="path2048" />
    </clipPath>
    <clipPath
       clipPathUnits="userSpaceOnUse"
       id="clipPath2050">
      <path
         d="M 0,841.89 H 595.276 V 0 H 0 Z"
         transform="translate(-445.95501,-133.81401)"
         id="path2050" />
    </clipPath>
    <clipPath
       clipPathUnits="userSpaceOnUse"
       id="clipPath2026">
      <path
         d="M 0,841.89 H 595.276 V 0 H 0 Z"
         transform="translate(-87.509402,-129.909)"
         id="path2026" />
    </clipPath>
    <clipPath
       clipPathUnits="userSpaceOnUse"
       id="clipPath2028">
      <path
         d="M 0,841.89 H 595.276 V 0 H 0 Z"
         transform="translate(-134.628,-129.909)"
         id="path2028" />
    </clipPath>
    <clipPath
       clipPathUnits="userSpaceOnUse"
       id="clipPath2030">
      <path
         d="M 0,841.89 H 595.276 V 0 H 0 Z"
         transform="translate(-156.996,-146.584)"
         id="path2030" />
    </clipPath>
  </defs>
  <g
     inkscape:label="Layer 1"
     inkscape:groupmode="layer"
     id="layer1"
     transform="translate(-79.904167,-123.56042)">
    <path
       id="path2041"
       d="m 0,0 c -39.138,0 -70.866,-31.729 -70.866,-70.866 0,-39.138 31.728,-70.866 70.866,-70.866 39.138,0 70.866,31.728 70.866,70.866 C 70.866,-31.729 39.138,0 0,0"
       style="fill:#ffffff;fill-opacity:1;fill-rule:nonzero;stroke:#231f20;stroke-width:0.222;stroke-linecap:butt;stroke-linejoin:miter;stroke-miterlimit:4;stroke-dasharray:none;stroke-opacity:1"
       transform="matrix(0.35277776,0,0,-0.35277776,104.94328,123.59958)"
       clip-path="url(#clipPath2042)" />
    <path
       id="path2043"
       d="m 0,0 c 8.932,0 17.593,1.748 25.744,5.196 7.875,3.331 14.949,8.101 21.026,14.177 6.075,6.076 10.845,13.149 14.176,21.025 3.448,8.151 5.196,16.813 5.196,25.744 0,8.931 -1.748,17.592 -5.196,25.743 -3.331,7.876 -8.101,14.95 -14.176,21.026 -6.077,6.076 -13.151,10.845 -21.026,14.177 -8.151,3.447 -16.812,5.196 -25.744,5.196 -8.931,0 -17.592,-1.749 -25.743,-5.196 -7.876,-3.332 -14.95,-8.101 -21.026,-14.177 -6.076,-6.076 -10.845,-13.15 -14.176,-21.026 -3.449,-8.151 -5.197,-16.812 -5.197,-25.743 0,-8.931 1.748,-17.593 5.197,-25.744 3.331,-7.876 8.1,-14.949 14.176,-21.025 6.076,-6.076 13.15,-10.846 21.026,-14.177 C -17.592,1.748 -8.931,0 0,0"
       style="fill:#4467a5;fill-opacity:1;fill-rule:nonzero;stroke:none"
       transform="matrix(0.35277776,0,0,-0.35277776,104.94328,171.93275)"
       clip-path="url(#clipPath2044)" />
    <g
       id="g2065"
       transform="matrix(0.26458333,0,0,0.26458333,64.943933,-97.994859)">
      <path
         id="path2025"
         d="m 0,0 c -1.308,0 -2.369,1.061 -2.369,2.368 0,1.31 1.061,2.37 2.369,2.37 1.309,0 2.37,-1.06 2.37,-2.37 C 2.37,1.061 1.309,0 0,0 m 0,7.132 c -2.63,0 -4.763,-2.132 -4.763,-4.764 0,-2.63 2.133,-4.763 4.763,-4.763 2.631,0 4.764,2.133 4.764,4.763 C 4.764,5 2.631,7.132 0,7.132"
         style="fill:#ffffff;fill-opacity:1;fill-rule:nonzero;stroke:none"
         transform="matrix(1.3333333,0,0,-1.3333333,116.6792,949.308)"
         clip-path="url(#clipPath2026)" />
      <path
         id="path2027"
         d="m 0,0 c -1.309,0 -2.369,1.061 -2.369,2.368 0,1.31 1.06,2.37 2.369,2.37 1.309,0 2.37,-1.06 2.37,-2.37 C 2.37,1.061 1.309,0 0,0 m 0,7.132 c -2.63,0 -4.763,-2.132 -4.763,-4.764 0,-2.63 2.133,-4.763 4.763,-4.763 2.631,0 4.764,2.133 4.764,4.763 C 4.764,5 2.631,7.132 0,7.132"
         style="fill:#ffffff;fill-opacity:1;fill-rule:nonzero;stroke:none"
         transform="matrix(1.3333333,0,0,-1.3333333,179.504,949.308)"
         clip-path="url(#clipPath2028)" />
      <path
         id="path2029"
         d="m 0,0 c 0,-0.716 -0.58,-1.296 -1.296,-1.296 h -13.883 c -0.715,0 -1.295,0.58 -1.295,1.296 v 5.621 c 0,0.716 0.58,1.296 1.295,1.296 h 11.53 C -1.685,6.917 0,5.268 0,3.199 Z m -19.259,0 c 0,-0.716 -0.58,-1.296 -1.296,-1.296 h -13.976 c -0.716,0 -1.296,0.58 -1.296,1.296 v 5.621 c 0,0.716 0.58,1.296 1.296,1.296 h 13.976 c 0.716,0 1.296,-0.58 1.296,-1.296 z m -19.405,0 c 0,-0.716 -0.58,-1.296 -1.295,-1.296 h -13.978 c -0.715,0 -1.295,0.58 -1.295,1.296 v 5.621 c 0,0.716 0.58,1.296 1.295,1.296 h 13.978 c 0.715,0 1.295,-0.58 1.295,-1.296 z m -19.534,0 c 0,-0.716 -0.58,-1.296 -1.296,-1.296 h -13.978 c -0.715,0 -1.295,0.58 -1.295,1.296 v 5.621 c 0,0.716 0.58,1.296 1.295,1.296 h 13.978 c 0.716,0 1.296,-0.58 1.296,-1.296 z m -20.743,-11.563 c 0,-0.716 -0.58,-1.296 -1.295,-1.296 h -3.327 c -0.715,0 -1.295,0.58 -1.295,1.296 V 5.621 c 0,0.716 0.58,1.296 1.295,1.296 h 3.327 c 0.715,0 1.295,-0.58 1.295,-1.296 z m 76.73,23.221 h -85.057 c 0,0 -1.762,0.259 -1.838,-2.072 l -0.415,-12.048 c 0,0 -1.218,-0.103 -1.218,-1.14 v -9.405 c 0,0 -0.052,-2.771 2.617,-2.771 h 12.884 c -0.12,0.468 -0.184,0.965 -0.184,1.471 0,3.28 2.658,5.937 5.936,5.937 3.278,0 5.936,-2.657 5.936,-5.937 0,-0.508 -0.064,-1 -0.185,-1.471 h 35.615 c -0.12,0.468 -0.184,0.965 -0.184,1.471 0,3.28 2.658,5.937 5.936,5.937 3.278,0 5.935,-2.657 5.935,-5.937 0,-0.508 -0.063,-1 -0.184,-1.471 l 20.132,3.885 V 5.906 c 0,2.124 -1.995,5.752 -5.726,5.752"
         style="fill:#ffffff;fill-opacity:1;fill-rule:nonzero;stroke:none"
         transform="matrix(1.3333333,0,0,-1.3333333,209.328,927.07467)"
         clip-path="url(#clipPath2030)" />
    </g>
  </g>
</svg>
