<?xml version="1.0" encoding="UTF-8" standalone="no"?>
<svg
   version="1.1"
   x="0px"
   y="0px"
   width="360px"
   height="360px"
   viewBox="797 802 360 360"
   enable-background="new 797 802 360 360"
   xml:space="preserve"
   id="svg3121"
   inkscape:version="1.4 (86a8ad7, 2024-10-11)"
   sodipodi:docname="Buses Prohibited.svg"
   xmlns:inkscape="http://www.inkscape.org/namespaces/inkscape"
   xmlns:sodipodi="http://sodipodi.sourceforge.net/DTD/sodipodi-0.dtd"
   xmlns="http://www.w3.org/2000/svg"
   xmlns:svg="http://www.w3.org/2000/svg"
   xmlns:rdf="http://www.w3.org/1999/02/22-rdf-syntax-ns#"
   xmlns:cc="http://creativecommons.org/ns#"
   xmlns:dc="http://purl.org/dc/elements/1.1/"><metadata
   id="metadata3135"><rdf:RDF><cc:Work
       rdf:about=""><dc:format>image/svg+xml</dc:format><dc:type
         rdf:resource="http://purl.org/dc/dcmitype/StillImage" /></cc:Work></rdf:RDF></metadata><defs
   id="defs3133"><inkscape:path-effect
     effect="fillet_chamfer"
     id="path-effect1250"
     is_visible="true"
     lpeversion="1"
     nodesatellites_param="F,0,0,1,0,3.86627,0,1 @ F,0,0,1,0,3.8662696,0,1 @ F,0,0,1,0,3.8662703,0,1 @ F,0,0,1,0,3.8662703,0,1"
     unit="px"
     method="auto"
     mode="F"
     radius="0"
     chamfer_steps="1"
     flexible="false"
     use_knot_distance="true"
     apply_no_radius="true"
     apply_with_radius="true"
     only_selected="false"
     hide_knots="false" /><inkscape:path-effect
     effect="fillet_chamfer"
     id="path-effect2969"
     is_visible="true"
     lpeversion="1"
     nodesatellites_param="F,0,0,1,0,5.0787595,0,1 @ F,0,0,1,0,5.078762,0,1 @ F,0,0,1,0,5.078762,0,1 @ F,0,0,1,0,5.078762,0,1"
     unit="px"
     method="auto"
     mode="F"
     radius="0"
     chamfer_steps="1"
     flexible="false"
     use_knot_distance="true"
     apply_no_radius="true"
     apply_with_radius="true"
     only_selected="false"
     hide_knots="false" /><inkscape:path-effect
     effect="fillet_chamfer"
     id="path-effect2963"
     is_visible="true"
     lpeversion="1"
     nodesatellites_param="F,0,0,1,0,5.0787595,0,1 @ F,0,0,1,0,5.078762,0,1 @ F,0,0,1,0,5.078762,0,1 @ F,0,0,1,0,5.078762,0,1"
     unit="px"
     method="auto"
     mode="F"
     radius="0"
     chamfer_steps="1"
     flexible="false"
     use_knot_distance="true"
     apply_no_radius="true"
     apply_with_radius="true"
     only_selected="false"
     hide_knots="false" /><inkscape:path-effect
     effect="fillet_chamfer"
     id="path-effect2888"
     is_visible="true"
     lpeversion="1"
     nodesatellites_param="F,0,0,1,0,5.0787595,0,1 @ F,0,0,1,0,5.078762,0,1 @ F,0,0,1,0,5.078762,0,1 @ F,0,0,1,0,5.078762,0,1"
     unit="px"
     method="auto"
     mode="F"
     radius="0"
     chamfer_steps="1"
     flexible="false"
     use_knot_distance="true"
     apply_no_radius="true"
     apply_with_radius="true"
     only_selected="false"
     hide_knots="false" /><inkscape:path-effect
     effect="fillet_chamfer"
     id="path-effect1250-3"
     is_visible="true"
     lpeversion="1"
     nodesatellites_param="F,0,0,1,0,3.86627,0,1 @ F,0,0,1,0,3.8662696,0,1 @ F,0,0,1,0,3.8662703,0,1 @ F,0,0,1,0,3.8662703,0,1"
     unit="px"
     method="auto"
     mode="F"
     radius="0"
     chamfer_steps="1"
     flexible="false"
     use_knot_distance="true"
     apply_no_radius="true"
     apply_with_radius="true"
     only_selected="false"
     hide_knots="false" /><inkscape:path-effect
     effect="fillet_chamfer"
     id="path-effect2969-8"
     is_visible="true"
     lpeversion="1"
     nodesatellites_param="F,0,0,1,0,5.0787595,0,1 @ F,0,0,1,0,5.078762,0,1 @ F,0,0,1,0,5.078762,0,1 @ F,0,0,1,0,5.078762,0,1"
     unit="px"
     method="auto"
     mode="F"
     radius="0"
     chamfer_steps="1"
     flexible="false"
     use_knot_distance="true"
     apply_no_radius="true"
     apply_with_radius="true"
     only_selected="false"
     hide_knots="false" /><inkscape:path-effect
     effect="fillet_chamfer"
     id="path-effect2963-9"
     is_visible="true"
     lpeversion="1"
     nodesatellites_param="F,0,0,1,0,5.0787595,0,1 @ F,0,0,1,0,5.078762,0,1 @ F,0,0,1,0,5.078762,0,1 @ F,0,0,1,0,5.078762,0,1"
     unit="px"
     method="auto"
     mode="F"
     radius="0"
     chamfer_steps="1"
     flexible="false"
     use_knot_distance="true"
     apply_no_radius="true"
     apply_with_radius="true"
     only_selected="false"
     hide_knots="false" /><inkscape:path-effect
     effect="fillet_chamfer"
     id="path-effect2888-3"
     is_visible="true"
     lpeversion="1"
     nodesatellites_param="F,0,0,1,0,5.0787595,0,1 @ F,0,0,1,0,5.078762,0,1 @ F,0,0,1,0,5.078762,0,1 @ F,0,0,1,0,5.078762,0,1"
     unit="px"
     method="auto"
     mode="F"
     radius="0"
     chamfer_steps="1"
     flexible="false"
     use_knot_distance="true"
     apply_no_radius="true"
     apply_with_radius="true"
     only_selected="false"
     hide_knots="false" /></defs><sodipodi:namedview
   pagecolor="#ffffff"
   bordercolor="#666666"
   borderopacity="1"
   objecttolerance="10"
   gridtolerance="10"
   guidetolerance="10"
   inkscape:pageopacity="0"
   inkscape:pageshadow="2"
   inkscape:window-width="1920"
   inkscape:window-height="1009"
   id="namedview3131"
   showgrid="false"
   inkscape:zoom="1.4777778"
   inkscape:cx="72.406014"
   inkscape:cy="219.58646"
   inkscape:window-x="-8"
   inkscape:window-y="-8"
   inkscape:window-maximized="1"
   inkscape:current-layer="svg3121"
   inkscape:showpageshadow="0"
   inkscape:pagecheckerboard="0"
   inkscape:deskcolor="#d1d1d1"
   showguides="true" />



<g
   id="p1">
	<path
   d="m 977.155,1145.256 c -89.99,0 -163.247,-73.214 -163.302,-163.205 v -0.211 c -0.027,-43.63 16.935,-84.65 47.76,-115.514 30.825,-30.864 71.825,-47.875 115.445,-47.902 h 0.103 c 89.99,0 163.249,73.214 163.304,163.206 v 0.21 c 0.026,43.631 -16.935,84.65 -47.761,115.514 -30.825,30.864 -71.824,47.876 -115.445,47.902 z"
   id="path3124"
   fill="#ffffff" /><circle
   style="opacity:1;fill:#ed1e24;fill-opacity:1;fill-rule:nonzero;stroke:none;stroke-width:1.10465;stroke-linecap:square;stroke-linejoin:round;stroke-miterlimit:4;stroke-dasharray:none;stroke-opacity:1;paint-order:stroke fill markers"
   id="path17"
   cx="977"
   cy="982"
   r="180" /><circle
   style="fill:#ffffff;fill-opacity:1;fill-rule:nonzero;stroke:none;stroke-width:0.980674;stroke-linecap:square;stroke-linejoin:round;stroke-miterlimit:4;stroke-dasharray:none;stroke-opacity:1;paint-order:stroke fill markers"
   id="circle821"
   cx="977"
   cy="982"
   r="144.00002"
   inkscape:label="Circle" />
	
</g><g
   id="g12"
   transform="matrix(0.17719406,0,0,0.21047377,823.28499,936.34097)"
   style="clip-rule:evenodd;fill-rule:evenodd;image-rendering:optimizeQuality;shape-rendering:geometricPrecision;text-rendering:geometricPrecision"><g
     id="g2"><path
       style="opacity:1"
       fill="#000000"
       d="m 163.5,-0.5 c 462.333,0 924.67,0 1387,0 40.72,11.8897 65.89,38.5564 75.5,80 0.22,15.8493 0.72,31.683 1.5,47.5 -1.32,83.506 -1.32,167.006 0,250.5 -106.63,20.892 -213.46,41.225 -320.5,61 -0.83,-0.167 -1.67,-0.333 -2.5,-0.5 3.93,-15.446 3.93,-30.946 0,-46.5 -13.06,-40.057 -40.4,-63.723 -82,-71 -41.49,-2.174 -72.99,14.493 -94.5,50 -11.19,21.887 -14.03,44.887 -8.5,69 -190.333,0 -380.667,0 -571,0 5.385,-23.583 2.885,-46.25 -7.5,-68 -24.623,-41.062 -60.456,-57.229 -107.5,-48.5 -31.56,9.092 -53.56,28.759 -66,59 -6.711,18.738 -7.711,37.738 -3,57 -69.333,0.667 -138.667,0.667 -208,0 -22.869,-0.814 -36.036,-12.648 -39.5,-35.5 -0.269,-8.851 -0.769,-17.684 -1.5,-26.5 1.329,-27.832 1.329,-55.665 0,-83.5 0.781,-18.319 1.281,-36.653 1.5,-55 0.731,-2.399 1.898,-4.565 3.5,-6.5 4.629,-2.898 9.463,-5.398 14.5,-7.5 2.648,-66.989 5.315,-133.9895 8,-201 1.971,-12.339 8.804,-20.33898 20.5,-24 z"
       id="path2" /></g><g
     id="g3"><path
       style="opacity:1"
       fill="#fdfdfd"
       d="m 228.5,74.5 c 19.336,-0.1666 38.67,0 58,0.5 9.088,1.7795 15.254,6.9461 18.5,15.5 0.667,95.333 0.667,190.667 0,286 -2.435,7.434 -7.268,12.601 -14.5,15.5 -22,0.667 -44,0.667 -66,0 -7.701,-3.031 -12.534,-8.531 -14.5,-16.5 -0.667,-94.333 -0.667,-188.667 0,-283 2.781,-9.6158 8.947,-15.6158 18.5,-18 z"
       id="path3" /></g><g
     id="g4"><path
       style="opacity:1"
       fill="#fdfdfd"
       d="m 390.5,74.5 c 77.711,-0.4882 155.378,0.0118 233,1.5 7.701,3.0309 12.534,8.5309 14.5,16.5 0.972,33.714 0.639,67.381 -1,101 -2.584,6.882 -7.417,11.382 -14.5,13.5 -79.39,0.991 -158.724,0.658 -238,-1 -6.32,-2.986 -10.487,-7.819 -12.5,-14.5 -0.667,-33.333 -0.667,-66.667 0,-100 3.227,-9.0679 9.394,-14.7346 18.5,-17 z"
       id="path4" /></g><g
     id="g5"><path
       style="opacity:1"
       fill="#fdfdfd"
       d="m 703.5,74.5 c 76.334,-0.1667 152.667,0 229,0.5 9.293,1.9579 15.46,7.4579 18.5,16.5 0.667,33 0.667,66 0,99 -2.095,8.427 -7.261,13.927 -15.5,16.5 -78.333,0.667 -156.667,0.667 -235,0 -8.239,-2.573 -13.405,-8.073 -15.5,-16.5 -0.667,-32.667 -0.667,-65.333 0,-98 2.781,-9.6158 8.947,-15.6158 18.5,-18 z"
       id="path5" /></g><g
     id="g6"><path
       style="opacity:1"
       fill="#fdfdfd"
       d="m 1014.5,74.5 c 76.33,-0.1667 152.67,0 229,0.5 8.87,1.8664 15.04,7.0331 18.5,15.5 0.98,34.727 0.65,69.394 -1,104 -2.99,6.32 -7.82,10.487 -14.5,12.5 -79.39,0.991 -158.72,0.658 -238,-1 -6.69,-3.542 -10.861,-9.042 -12.5,-16.5 -0.667,-32 -0.667,-64 0,-96 2.321,-10.1537 8.49,-16.487 18.5,-19 z"
       id="path6" /></g><g
     id="g7"><path
       style="opacity:1"
       fill="#fdfdfd"
       d="m 1324.5,74.5 c 64,-0.1667 128,0 192,0.5 31.03,4.6969 49.2,22.5303 54.5,53.5 0.67,20.667 0.67,41.333 0,62 -2.09,8.427 -7.26,13.927 -15.5,16.5 -78.72,0.991 -157.39,0.658 -236,-1 -5.89,-2.892 -10.06,-7.392 -12.5,-13.5 -0.67,-34 -0.67,-68 0,-102 2.88,-8.6715 8.72,-14.0048 17.5,-16 z"
       id="path7" /></g><g
     id="g8"><path
       style="opacity:1"
       fill="#020101"
       d="m 448.5,339.5 c 38.662,-1.479 65.495,15.521 80.5,51 8.972,31.954 1.806,59.454 -21.5,82.5 -27.721,21.327 -57.387,24.327 -89,9 -35.955,-23.864 -46.788,-56.364 -32.5,-97.5 13.175,-25.668 34.008,-40.668 62.5,-45 z"
       id="path8" /></g><g
     id="g9"><path
       style="opacity:1"
       fill="#010101"
       d="m 1217.5,338.5 c 25.44,3.799 45.61,16.133 60.5,37 15.04,29.823 13.54,58.823 -4.5,87 -24.47,27.034 -54.14,35.201 -89,24.5 -20.58,-8.582 -35.08,-23.082 -43.5,-43.5 -5.62,-14.246 -6.95,-28.913 -4,-44 12.18,-39.521 39.01,-59.854 80.5,-61 z"
       id="path9" /></g><g
     id="g10"><path
       style="opacity:1"
       fill="#fcfcfc"
       d="m 448.5,377.5 c 32.818,-0.683 47.985,15.317 45.5,48 -8.02,21.6 -23.52,30.766 -46.5,27.5 -15.267,-4.267 -24.767,-14.101 -28.5,-29.5 -2.498,-23.356 7.336,-38.689 29.5,-46 z"
       id="path10" /></g><g
     id="g11"><path
       style="opacity:1"
       fill="#fcfcfc"
       d="m 1203.5,377.5 c 23.97,-2.173 39.47,8.161 46.5,31 2.19,22.482 -7.31,37.315 -28.5,44.5 -25.1,3.372 -40.93,-7.128 -47.5,-31.5 -1.08,-22.068 8.75,-36.734 29.5,-44 z"
       id="path11" /></g></g><rect
   transform="matrix(-0.70710678,-0.70710678,-0.70710678,0.70710678,0,0)"
   style="fill:#ed1e24;fill-opacity:1;fill-rule:nonzero;stroke:none;stroke-width:6.47255;stroke-linecap:square;stroke-linejoin:round;stroke-miterlimit:4;stroke-dasharray:none;stroke-opacity:1;paint-order:stroke fill markers"
   id="rect1947"
   width="44.585682"
   height="357.08212"
   x="-1405.4851"
   y="-175.34779" /></svg>
