<?xml version="1.0" encoding="UTF-8" standalone="no"?>
<!-- Created with Inkscape (http://www.inkscape.org/) -->

<svg
   width="50.077862mm"
   height="50.078213mm"
   viewBox="0 0 50.077862 50.078213"
   version="1.1"
   id="svg1"
   inkscape:version="1.4 (86a8ad7, 2024-10-11)"
   sodipodi:docname="c ahead or right.svg"
   xmlns:inkscape="http://www.inkscape.org/namespaces/inkscape"
   xmlns:sodipodi="http://sodipodi.sourceforge.net/DTD/sodipodi-0.dtd"
   xmlns="http://www.w3.org/2000/svg"
   xmlns:svg="http://www.w3.org/2000/svg">
  <sodipodi:namedview
     id="namedview1"
     pagecolor="#ffffff"
     bordercolor="#000000"
     borderopacity="0.25"
     inkscape:showpageshadow="2"
     inkscape:pageopacity="0.0"
     inkscape:pagecheckerboard="0"
     inkscape:deskcolor="#d1d1d1"
     inkscape:document-units="mm"
     inkscape:zoom="2.8756734"
     inkscape:cx="110.93054"
     inkscape:cy="90.239733"
     inkscape:window-width="1920"
     inkscape:window-height="1009"
     inkscape:window-x="-8"
     inkscape:window-y="-8"
     inkscape:window-maximized="1"
     inkscape:current-layer="layer1" />
  <defs
     id="defs1">
    <clipPath
       clipPathUnits="userSpaceOnUse"
       id="clipPath208">
      <path
         d="M 0,841.89 H 595.276 V 0 H 0 Z"
         transform="translate(-390.77401,-128.155)"
         id="path208" />
    </clipPath>
    <clipPath
       clipPathUnits="userSpaceOnUse"
       id="clipPath210">
      <path
         d="M 0,841.89 H 595.276 V 0 H 0 Z"
         transform="translate(-354.32201,-195.088)"
         id="path210" />
    </clipPath>
    <clipPath
       clipPathUnits="userSpaceOnUse"
       id="clipPath212">
      <path
         d="M 0,841.89 H 595.276 V 0 H 0 Z"
         transform="translate(-407.66601,-225.718)"
         id="path212" />
    </clipPath>
    <clipPath
       clipPathUnits="userSpaceOnUse"
       id="clipPath214">
      <path
         d="M 0,841.89 H 595.276 V 0 H 0 Z"
         transform="translate(-408.00501,-164.38701)"
         id="path214" />
    </clipPath>
    <clipPath
       clipPathUnits="userSpaceOnUse"
       id="clipPath194">
      <path
         d="M 0,841.89 H 595.276 V 0 H 0 Z"
         transform="translate(-391.96201,-461.85201)"
         id="path194" />
    </clipPath>
    <clipPath
       clipPathUnits="userSpaceOnUse"
       id="clipPath196">
      <path
         d="M 0,841.89 H 595.276 V 0 H 0 Z"
         transform="translate(-391.96201,-324.84301)"
         id="path196" />
    </clipPath>
    <clipPath
       clipPathUnits="userSpaceOnUse"
       id="clipPath198">
      <path
         d="M 0,841.89 H 595.276 V 0 H 0 Z"
         transform="translate(-340.78001,-375.23801)"
         id="path198" />
    </clipPath>
    <clipPath
       clipPathUnits="userSpaceOnUse"
       id="clipPath52">
      <path
         d="M 0,841.89 H 595.276 V 0 H 0 Z"
         transform="translate(-391.22601,-710.17702)"
         id="path52" />
    </clipPath>
    <clipPath
       clipPathUnits="userSpaceOnUse"
       id="clipPath54">
      <path
         d="M 0,841.89 H 595.276 V 0 H 0 Z"
         transform="translate(-391.22601,-573.16901)"
         id="path54" />
    </clipPath>
    <clipPath
       clipPathUnits="userSpaceOnUse"
       id="clipPath56">
      <path
         d="M 0,841.89 H 595.276 V 0 H 0 Z"
         transform="translate(-358.58601,-587.97701)"
         id="path56" />
    </clipPath>
  </defs>
  <g
     inkscape:label="Layer 1"
     inkscape:groupmode="layer"
     id="layer1"
     transform="translate(-80.016603,-123.60765)">
    <path
       id="path51"
       d="m 0,0 c -39.138,0 -70.866,-31.729 -70.866,-70.866 0,-39.138 31.728,-70.866 70.866,-70.866 39.138,0 70.866,31.728 70.866,70.866 C 70.866,-31.729 39.138,0 0,0"
       style="fill:#ffffff;fill-opacity:1;fill-rule:nonzero;stroke:#231f20;stroke-width:0.222;stroke-linecap:butt;stroke-linejoin:miter;stroke-miterlimit:4;stroke-dasharray:none;stroke-opacity:1"
       transform="matrix(0.35277776,0,0,-0.35277776,105.05553,123.64681)"
       clip-path="url(#clipPath52)" />
    <path
       id="path53"
       d="m 0,0 c 8.931,0 17.593,1.748 25.743,5.196 7.876,3.331 14.95,8.1 21.026,14.177 6.076,6.075 10.845,13.149 14.177,21.025 3.448,8.151 5.196,16.812 5.196,25.744 0,8.931 -1.748,17.592 -5.196,25.743 -3.332,7.876 -8.101,14.949 -14.177,21.026 -6.076,6.075 -13.15,10.845 -21.026,14.176 -8.15,3.448 -16.812,5.196 -25.743,5.196 -8.931,0 -17.593,-1.748 -25.744,-5.196 -7.875,-3.331 -14.949,-8.101 -21.026,-14.176 -6.075,-6.077 -10.845,-13.15 -14.176,-21.026 -3.448,-8.151 -5.196,-16.812 -5.196,-25.743 0,-8.932 1.748,-17.593 5.196,-25.744 3.331,-7.876 8.101,-14.95 14.176,-21.025 C -40.693,13.296 -33.619,8.527 -25.744,5.196 -17.593,1.748 -8.931,0 0,0"
       style="fill:#4467a5;fill-opacity:1;fill-rule:nonzero;stroke:none"
       transform="matrix(0.35277776,0,0,-0.35277776,105.05553,171.98001)"
       clip-path="url(#clipPath54)" />
    <path
       id="path55"
       d="m 0,0 7.874,78.341 h -6.3 L 15.748,102.89 29.921,78.341 h -6.299 l 1.789,-17.8 h 39.55 L 64.962,66.544 84.734,55.123 64.956,43.71 64.958,49.714 H 26.499 L 31.496,0 Z"
       style="fill:#ffffff;fill-opacity:1;fill-rule:nonzero;stroke:none"
       transform="matrix(0.35277776,0,0,-0.35277776,93.540864,166.79541)"
       clip-path="url(#clipPath56)" />
  </g>
</svg>
