<?xml version="1.0" encoding="UTF-8" standalone="no"?>
<!-- Created with Inkscape (http://www.inkscape.org/) -->

<svg
   width="50.078217mm"
   height="50.078217mm"
   viewBox="0 0 50.078217 50.078217"
   version="1.1"
   id="svg1"
   inkscape:version="1.4 (86a8ad7, 2024-10-11)"
   sodipodi:docname="c right ahead.svg"
   xmlns:inkscape="http://www.inkscape.org/namespaces/inkscape"
   xmlns:sodipodi="http://sodipodi.sourceforge.net/DTD/sodipodi-0.dtd"
   xmlns="http://www.w3.org/2000/svg"
   xmlns:svg="http://www.w3.org/2000/svg">
  <sodipodi:namedview
     id="namedview1"
     pagecolor="#ffffff"
     bordercolor="#000000"
     borderopacity="0.25"
     inkscape:showpageshadow="2"
     inkscape:pageopacity="0.0"
     inkscape:pagecheckerboard="0"
     inkscape:deskcolor="#d1d1d1"
     inkscape:document-units="mm"
     inkscape:zoom="2.8756734"
     inkscape:cx="119.27641"
     inkscape:cy="95.455903"
     inkscape:window-width="1920"
     inkscape:window-height="1009"
     inkscape:window-x="-8"
     inkscape:window-y="-8"
     inkscape:window-maximized="1"
     inkscape:current-layer="layer1" />
  <defs
     id="defs1">
    <clipPath
       clipPathUnits="userSpaceOnUse"
       id="clipPath42">
      <path
         d="M 0,841.89 H 595.276 V 0 H 0 Z"
         transform="translate(-393.95501,-709.95402)"
         id="path42" />
    </clipPath>
    <clipPath
       clipPathUnits="userSpaceOnUse"
       id="clipPath44">
      <path
         d="M 0,841.89 H 595.276 V 0 H 0 Z"
         transform="translate(-393.95501,-572.94701)"
         id="path44" />
    </clipPath>
    <clipPath
       clipPathUnits="userSpaceOnUse"
       id="clipPath46">
      <path
         d="M 0,841.89 H 595.276 V 0 H 0 Z"
         transform="translate(-354.52201,-670.46501)"
         id="path46" />
    </clipPath>
  </defs>
  <g
     inkscape:label="Layer 1"
     inkscape:groupmode="layer"
     id="layer1"
     transform="translate(-147.6375,-122.2375)">
    <g
       id="g1"
       transform="matrix(-1,0,0,1,345.35322,0)">
      <path
         id="path41"
         d="m 0,0 c 39.138,0 70.866,-31.729 70.866,-70.866 0,-39.139 -31.728,-70.866 -70.866,-70.866 -39.138,0 -70.866,31.727 -70.866,70.866 C -70.866,-31.729 -39.138,0 0,0"
         style="fill:#ffffff;fill-opacity:1;fill-rule:nonzero;stroke:#231f20;stroke-width:0.222;stroke-linecap:butt;stroke-linejoin:miter;stroke-miterlimit:4;stroke-dasharray:none;stroke-opacity:1"
         transform="matrix(0.35277776,0,0,-0.35277776,172.67661,122.27666)"
         clip-path="url(#clipPath42)" />
      <path
         id="path43"
         d="m 0,0 c -8.932,0 -17.593,1.748 -25.744,5.195 -7.875,3.331 -14.949,8.102 -21.026,14.178 -6.075,6.075 -10.845,13.148 -14.176,21.024 -3.448,8.152 -5.196,16.814 -5.196,25.745 0,8.93 1.748,17.591 5.196,25.743 3.331,7.876 8.101,14.95 14.176,21.025 6.077,6.076 13.151,10.846 21.026,14.177 8.151,3.447 16.812,5.196 25.744,5.196 8.931,0 17.592,-1.749 25.743,-5.196 7.876,-3.331 14.95,-8.101 21.026,-14.177 6.076,-6.075 10.845,-13.149 14.176,-21.025 3.449,-8.152 5.197,-16.813 5.197,-25.743 0,-8.931 -1.748,-17.593 -5.197,-25.745 C 57.614,32.521 52.845,25.448 46.769,19.373 40.693,13.297 33.619,8.526 25.743,5.195 17.592,1.748 8.931,0 0,0"
         style="fill:#4467a5;fill-opacity:1;fill-rule:nonzero;stroke:none"
         transform="matrix(0.35277776,0,0,-0.35277776,172.67661,170.60968)"
         clip-path="url(#clipPath44)" />
      <path
         id="path45"
         d="M 0,0 20.666,11.932 V 6.629 h 34.353 c 4.833,0 8.856,-3.709 9.249,-8.526 l 5.933,-72.79 H 43.687 l 5.138,63.041 c 0.221,2.703 -1.913,5.017 -4.624,5.017 H 20.666 v -5.303 z"
         style="fill:#ffffff;fill-opacity:1;fill-rule:nonzero;stroke:none"
         transform="matrix(0.35277776,0,0,-0.35277776,158.76552,136.2075)"
         clip-path="url(#clipPath46)" />
    </g>
  </g>
</svg>
