<?xml version="1.0" encoding="UTF-8" standalone="no"?>
<!-- Created with Inkscape (http://www.inkscape.org/) -->

<svg
   width="50.078217mm"
   height="50.078217mm"
   viewBox="0 0 50.078217 50.078217"
   version="1.1"
   id="svg1"
   inkscape:version="1.4 (86a8ad7, 2024-10-11)"
   sodipodi:docname="c keep right.svg"
   xmlns:inkscape="http://www.inkscape.org/namespaces/inkscape"
   xmlns:sodipodi="http://sodipodi.sourceforge.net/DTD/sodipodi-0.dtd"
   xmlns="http://www.w3.org/2000/svg"
   xmlns:svg="http://www.w3.org/2000/svg">
  <sodipodi:namedview
     id="namedview1"
     pagecolor="#ffffff"
     bordercolor="#000000"
     borderopacity="0.25"
     inkscape:showpageshadow="2"
     inkscape:pageopacity="0.0"
     inkscape:pagecheckerboard="0"
     inkscape:deskcolor="#d1d1d1"
     inkscape:document-units="mm"
     inkscape:zoom="2.8756734"
     inkscape:cx="119.27641"
     inkscape:cy="95.455903"
     inkscape:window-width="1920"
     inkscape:window-height="1009"
     inkscape:window-x="-8"
     inkscape:window-y="-8"
     inkscape:window-maximized="1"
     inkscape:current-layer="layer1" />
  <defs
     id="defs1">
    <clipPath
       clipPathUnits="userSpaceOnUse"
       id="clipPath42">
      <path
         d="M 0,841.89 H 595.276 V 0 H 0 Z"
         transform="translate(-393.95501,-709.95402)"
         id="path42" />
    </clipPath>
    <clipPath
       clipPathUnits="userSpaceOnUse"
       id="clipPath44">
      <path
         d="M 0,841.89 H 595.276 V 0 H 0 Z"
         transform="translate(-393.95501,-572.94701)"
         id="path44" />
    </clipPath>
    <clipPath
       clipPathUnits="userSpaceOnUse"
       id="clipPath46">
      <path
         d="M 0,841.89 H 595.276 V 0 H 0 Z"
         transform="translate(-354.52201,-670.46501)"
         id="path46" />
    </clipPath>
    <clipPath
       clipPathUnits="userSpaceOnUse"
       id="clipPath24">
      <path
         d="M 0,841.89 H 595.276 V 0 H 0 Z"
         transform="translate(-344.16101,-340.87601)"
         id="path24" />
    </clipPath>
    <clipPath
       clipPathUnits="userSpaceOnUse"
       id="clipPath26">
      <path
         d="M 0,841.89 H 595.276 V 0 H 0 Z"
         transform="translate(-441.04001,-437.75501)"
         id="path26" />
    </clipPath>
    <clipPath
       clipPathUnits="userSpaceOnUse"
       id="clipPath28">
      <path
         d="M 0,841.89 H 595.276 V 0 H 0 Z"
         transform="translate(-369.21601,-438.31201)"
         id="path28" />
    </clipPath>
  </defs>
  <g
     inkscape:label="Layer 1"
     inkscape:groupmode="layer"
     id="layer1"
     transform="translate(-147.6375,-122.2375)">
    <g
       id="g1">
      <path
         id="path23"
         d="m 0,0 c 27.675,-27.675 72.546,-27.675 100.22,0 27.675,27.675 27.675,72.545 0,100.22 C 72.546,127.895 27.675,127.895 0,100.22 -27.675,72.545 -27.675,27.675 0,0"
         style="fill:#ffffff;fill-opacity:1;fill-rule:nonzero;stroke:#231f20;stroke-width:0.222;stroke-linecap:butt;stroke-linejoin:miter;stroke-miterlimit:4;stroke-dasharray:none;stroke-opacity:1"
         transform="matrix(0.35277776,0,0,-0.35277776,154.99891,164.9543)"
         clip-path="url(#clipPath24)" />
      <path
         id="path25"
         d="m 0,0 c -6.314,6.314 -13.676,11.204 -21.877,14.529 -7.925,3.214 -16.299,4.843 -24.892,4.843 -8.592,0 -16.967,-1.629 -24.891,-4.843 C -79.862,11.204 -87.223,6.314 -93.538,0 c -6.316,-6.315 -11.203,-13.676 -14.529,-21.877 -3.214,-7.925 -4.843,-16.3 -4.843,-24.894 0,-8.591 1.629,-16.966 4.843,-24.89 3.326,-8.202 8.213,-15.563 14.529,-21.878 6.315,-6.315 13.676,-11.203 21.878,-14.529 7.924,-3.213 16.299,-4.843 24.891,-4.843 8.593,0 16.967,1.63 24.892,4.843 8.201,3.326 15.563,8.214 21.877,14.529 6.315,6.315 11.204,13.676 14.53,21.878 3.213,7.924 4.843,16.299 4.843,24.89 0,8.594 -1.63,16.969 -4.843,24.894 C 11.204,-13.676 6.315,-6.315 0,0"
         style="fill:#4467a5;fill-opacity:1;fill-rule:nonzero;stroke:none"
         transform="matrix(0.35277776,0,0,-0.35277776,189.17567,130.77754)"
         clip-path="url(#clipPath26)" />
      <path
         id="path27"
         d="m 0,0 49.544,-60.679 4.454,4.454 7.248,-27.292 -27.292,7.248 4.454,4.454 -60.679,49.544 z"
         style="fill:#ffffff;fill-opacity:1;fill-rule:nonzero;stroke:none"
         transform="matrix(0.35277776,0,0,-0.35277776,163.83776,130.58105)"
         clip-path="url(#clipPath28)" />
    </g>
  </g>
</svg>
