<?xml version="1.0" encoding="UTF-8" standalone="no"?>
<!-- Created with Inkscape (http://www.inkscape.org/) -->

<svg
   width="50.078217mm"
   height="50.078217mm"
   viewBox="0 0 50.078217 50.078217"
   version="1.1"
   id="svg1"
   inkscape:version="1.4 (86a8ad7, 2024-10-11)"
   sodipodi:docname="pedestrain and cycle.svg"
   xmlns:inkscape="http://www.inkscape.org/namespaces/inkscape"
   xmlns:sodipodi="http://sodipodi.sourceforge.net/DTD/sodipodi-0.dtd"
   xmlns="http://www.w3.org/2000/svg"
   xmlns:svg="http://www.w3.org/2000/svg">
  <sodipodi:namedview
     id="namedview1"
     pagecolor="#ffffff"
     bordercolor="#000000"
     borderopacity="0.25"
     inkscape:showpageshadow="2"
     inkscape:pageopacity="0.0"
     inkscape:pagecheckerboard="0"
     inkscape:deskcolor="#d1d1d1"
     inkscape:document-units="mm"
     inkscape:zoom="2.8756734"
     inkscape:cx="103.28016"
     inkscape:cy="110.06118"
     inkscape:window-width="1920"
     inkscape:window-height="1009"
     inkscape:window-x="-8"
     inkscape:window-y="-8"
     inkscape:window-maximized="1"
     inkscape:current-layer="layer1" />
  <defs
     id="defs1">
    <clipPath
       clipPathUnits="userSpaceOnUse"
       id="clipPath4">
      <path
         d="M 0,841.89 H 595.276 V 0 H 0 Z"
         transform="translate(-113.21901,-710.32402)"
         id="path4" />
    </clipPath>
    <clipPath
       clipPathUnits="userSpaceOnUse"
       id="clipPath6">
      <path
         d="M 0,841.89 H 595.276 V 0 H 0 Z"
         transform="translate(-113.21901,-573.31601)"
         id="path6" />
    </clipPath>
    <clipPath
       clipPathUnits="userSpaceOnUse"
       id="clipPath8">
      <path
         d="M 0,841.89 H 595.276 V 0 H 0 Z"
         transform="translate(-143.964,-644.94101)"
         id="path8" />
    </clipPath>
    <clipPath
       clipPathUnits="userSpaceOnUse"
       id="clipPath982">
      <path
         d="M 0,841.89 H 595.276 V 0 H 0 Z"
         transform="translate(-391.22801,-710.00702)"
         id="path982" />
    </clipPath>
    <clipPath
       clipPathUnits="userSpaceOnUse"
       id="clipPath984">
      <path
         d="M 0,841.89 H 595.276 V 0 H 0 Z"
         transform="translate(-391.22801,-572.99902)"
         id="path984" />
    </clipPath>
    <clipPath
       clipPathUnits="userSpaceOnUse"
       id="clipPath986">
      <path
         d="M 0,841.89 H 595.276 V 0 H 0 Z"
         transform="translate(-443.75101,-642.12502)"
         id="path986" />
    </clipPath>
    <clipPath
       clipPathUnits="userSpaceOnUse"
       id="clipPath988">
      <path
         d="M 0,841.89 H 595.276 V 0 H 0 Z"
         transform="translate(-337.61401,-643.11902)"
         id="path988" />
    </clipPath>
    <clipPath
       clipPathUnits="userSpaceOnUse"
       id="clipPath990">
      <path
         d="M 0,841.89 H 595.276 V 0 H 0 Z"
         transform="translate(-357.12801,-673.39702)"
         id="path990" />
    </clipPath>
    <clipPath
       clipPathUnits="userSpaceOnUse"
       id="clipPath992">
      <path
         d="M 0,841.89 H 595.276 V 0 H 0 Z"
         id="path992" />
    </clipPath>
  </defs>
  <g
     inkscape:label="Layer 1"
     inkscape:groupmode="layer"
     id="layer1"
     transform="translate(-79.904167,-123.56042)">
    <path
       id="path981"
       d="m 0,0 c 39.138,0 70.866,-31.729 70.866,-70.866 0,-39.138 -31.728,-70.866 -70.866,-70.866 -39.138,0 -70.866,31.728 -70.866,70.866 C -70.866,-31.729 -39.138,0 0,0"
       style="fill:#ffffff;fill-opacity:1;fill-rule:nonzero;stroke:#231f20;stroke-width:0.222;stroke-linecap:butt;stroke-linejoin:miter;stroke-miterlimit:4;stroke-dasharray:none;stroke-opacity:1"
       transform="matrix(0.35277776,0,0,-0.35277776,104.94328,123.59958)"
       clip-path="url(#clipPath982)" />
    <path
       id="path983"
       d="m 0,0 c -8.931,0 -17.593,1.748 -25.744,5.196 -7.875,3.331 -14.949,8.101 -21.026,14.177 -6.075,6.076 -10.845,13.149 -14.176,21.025 -3.448,8.151 -5.196,16.813 -5.196,25.744 0,8.931 1.748,17.592 5.196,25.743 3.331,7.876 8.101,14.95 14.176,21.026 6.077,6.076 13.151,10.845 21.026,14.176 8.151,3.448 16.813,5.197 25.744,5.197 8.931,0 17.593,-1.749 25.743,-5.197 7.876,-3.331 14.95,-8.1 21.026,-14.176 6.076,-6.076 10.845,-13.15 14.176,-21.026 3.449,-8.151 5.197,-16.812 5.197,-25.743 0,-8.931 -1.748,-17.593 -5.197,-25.744 C 57.614,32.522 52.845,25.449 46.769,19.373 40.693,13.297 33.619,8.527 25.743,5.196 17.593,1.748 8.931,0 0,0"
       style="fill:#4467a5;fill-opacity:1;fill-rule:nonzero;stroke:none"
       transform="matrix(0.35277776,0,0,-0.35277776,104.94328,171.93295)"
       clip-path="url(#clipPath984)" />
    <path
       id="path985"
       d="m 0,0 c -1.256,0.002 -2.451,-0.252 -3.538,-0.712 l -3.62,6.254 0.679,1.976 c 0,0 0.35,0.075 0.864,0.185 0.514,0.109 1.236,1.049 1.498,1.618 0.263,0.57 -0.2,0.606 -0.2,0.606 h -7.842 c -0.735,0 -1.27,-1.15 -0.186,-1.484 L -8.824,7.642 -9.628,5.357 h -16.669 c 0,0 0.181,0.663 0.4,1.664 0.218,1.001 -0.31,1.381 -0.954,2.04 -0.643,0.659 0.246,0.866 0.246,0.866 h 3.521 v 2.283 h -4.262 c 0,0 -1.463,-0.097 -2.036,-1.051 -0.407,-0.673 -0.648,-2.646 0.504,-3.218 1.149,-0.572 0.358,-2.026 0.358,-2.026 0,0 -0.905,-3.406 -1.742,-6.512 -0.998,0.378 -2.073,0.595 -3.2,0.597 -5.018,0.008 -9.082,-4.055 -9.082,-9.074 10e-4,-5.02 4.072,-9.097 9.088,-9.105 5.017,-0.007 9.082,4.057 9.079,9.075 -0.002,3.06 -1.517,5.762 -3.834,7.412 l 0.31,1.184 10.61,-7.456 c -0.108,-0.349 -0.185,-0.715 -0.185,-1.1 0,-2.086 1.695,-3.778 3.78,-3.778 0.38,0 0.739,0.072 1.084,0.177 l 0.577,-1.239 h -0.988 v -1.236 h 0.988 c 0,0 0.551,-0.526 1.11,-0.431 0.563,0.095 0.68,0.431 0.68,0.431 h 0.988 v 1.236 h -1.604 l -0.78,1.676 c 0.814,0.529 1.408,1.36 1.626,2.333 l 0.017,10e-4 h 0.96 c 0.416,-4.634 4.305,-8.277 9.047,-8.284 5.013,-0.008 9.08,4.056 9.078,9.074 C 9.086,-4.082 5.016,-0.009 0,0 m -27.003,-9.104 c 0.002,-1.723 -0.666,-3.344 -1.883,-4.56 -1.217,-1.219 -2.835,-1.888 -4.554,-1.888 h -0.014 c -3.564,0.003 -6.463,2.908 -6.463,6.478 -0.002,1.724 0.666,3.345 1.883,4.561 1.218,1.218 2.834,1.886 4.554,1.886 0.898,-0.002 1.751,-0.186 2.526,-0.516 -0.342,-1.253 -0.606,-2.194 -0.68,-2.405 -0.277,-0.78 -0.904,-1.438 -1.219,-1.841 -0.318,-0.402 -2.063,-1.076 -1.345,-2.194 0.745,-1.164 2.11,0.092 2.512,0.26 1.31,0.549 2.242,2.888 2.242,2.888 l 0.505,1.941 c 1.194,-1.176 1.936,-2.808 1.936,-4.61 m -0.221,10.942 0.311,1.235 h 16.421 l -3.04,-8.376 c -0.056,0.003 -0.108,0.018 -0.164,0.018 -0.383,0 -0.741,-0.073 -1.089,-0.18 l -0.582,1.253 h 1.048 v 1.235 h -1.048 c 0,0 -0.428,0.493 -1.051,0.432 -0.623,-0.06 -0.68,-0.432 -0.68,-0.432 h -1.048 v -1.235 h 1.604 l 0.787,-1.691 c -0.079,-0.05 -0.147,-0.112 -0.222,-0.167 z m 13.53,-13.366 c -1.363,0 -2.47,1.103 -2.47,2.464 0,1.36 1.107,2.464 2.47,2.464 1.359,0 2.466,-1.104 2.466,-2.464 0,-1.361 -1.107,-2.464 -2.466,-2.464 m 3.678,3.299 c -0.196,0.861 -0.688,1.599 -1.359,2.126 l 3.229,8.866 2.648,-4.621 C -7.46,-3.354 -8.796,-5.629 -9.035,-8.229 Z m 5.837,4.071 2.329,-4.067 -4.543,-0.003 c 0.181,1.405 0.809,2.702 1.824,3.715 0.126,0.125 0.257,0.242 0.39,0.355 m 8.757,-9.506 C 3.36,-14.883 1.744,-15.552 0.025,-15.552 H 0.01 c -3.285,0.003 -6.001,2.477 -6.406,5.658 h 6.462 c 1.336,0 1.314,0.873 0.708,1.724 l -2.982,5.155 c 0.695,0.25 1.431,0.388 2.192,0.388 3.577,-0.005 6.478,-2.91 6.478,-6.477 0.001,-1.723 -0.668,-3.344 -1.884,-4.56"
       style="fill:#ffffff;fill-opacity:1;fill-rule:nonzero;stroke:none"
       transform="matrix(0.35277776,0,0,-0.35277776,123.47223,147.54684)"
       clip-path="url(#clipPath986)" />
    <path
       id="path987"
       d="m 0,0 17.517,17.327 c 1.967,1.513 4.04,1.575 6.214,0.189 L 31.83,9.04 c 2.714,-3.667 2.045,-8.43 2.213,-12.785 l -2.473,0.049 c -0.604,2.99 -0.967,8.277 -1.811,8.968 l -2.873,2.356 c 0,0 -0.518,-10.643 -0.141,-12.336 0.377,-1.696 2.26,-13.373 3.578,-15.634 1.319,-2.26 7.723,-15.443 7.723,-15.443 l -2.637,-2.449 -8.475,12.807 c 0,0 -3.203,4.708 -4.709,9.794 -1.507,5.085 -0.849,3.957 -0.849,3.957 L 9.605,-38.046 H 5.65 l 9.417,30.512 c 0,0 1.319,3.389 0.566,7.156 C 15.206,1.76 15.717,8.915 12.431,6.403 9.229,3.954 2.261,-1.508 2.261,-1.508 Z"
       style="fill:#ffffff;fill-opacity:1;fill-rule:evenodd;stroke:none"
       transform="matrix(0.35277776,0,0,-0.35277776,86.029449,147.19617)"
       clip-path="url(#clipPath988)" />
    <path
       id="path989"
       d="m 0,0 c 2.993,0 5.435,-2.441 5.435,-5.434 0,-2.993 -2.442,-5.435 -5.435,-5.435 -2.993,0 -5.435,2.442 -5.435,5.435 C -5.435,-2.441 -2.993,0 0,0"
       style="fill:#ffffff;fill-opacity:1;fill-rule:evenodd;stroke:none"
       transform="matrix(0.35277776,0,0,-0.35277776,92.913556,136.51477)"
       clip-path="url(#clipPath990)" />
    <path
       id="path991"
       d="m 395.953,572.212 h -9.449 v 133.857 h 9.449 z"
       style="fill:#ffffff;fill-opacity:1;fill-rule:nonzero;stroke:none"
       transform="matrix(0.35277776,0,0,-0.35277776,-33.073266,374.07426)"
       clip-path="url(#clipPath992)" />
  </g>
</svg>
