<?xml version="1.0" encoding="UTF-8" standalone="no"?>
<!-- Created with Inkscape (http://www.inkscape.org/) -->

<svg
   width="50.078217mm"
   height="50.078217mm"
   viewBox="0 0 50.078217 50.078217"
   version="1.1"
   id="svg1"
   inkscape:version="1.4 (86a8ad7, 2024-10-11)"
   sodipodi:docname="cycle.svg"
   xmlns:inkscape="http://www.inkscape.org/namespaces/inkscape"
   xmlns:sodipodi="http://sodipodi.sourceforge.net/DTD/sodipodi-0.dtd"
   xmlns="http://www.w3.org/2000/svg"
   xmlns:svg="http://www.w3.org/2000/svg">
  <sodipodi:namedview
     id="namedview1"
     pagecolor="#ffffff"
     bordercolor="#000000"
     borderopacity="0.25"
     inkscape:showpageshadow="2"
     inkscape:pageopacity="0.0"
     inkscape:pagecheckerboard="0"
     inkscape:deskcolor="#d1d1d1"
     inkscape:document-units="mm"
     inkscape:zoom="2.8756734"
     inkscape:cx="103.28016"
     inkscape:cy="110.06118"
     inkscape:window-width="1920"
     inkscape:window-height="1009"
     inkscape:window-x="-8"
     inkscape:window-y="-8"
     inkscape:window-maximized="1"
     inkscape:current-layer="layer1" />
  <defs
     id="defs1">
    <clipPath
       clipPathUnits="userSpaceOnUse"
       id="clipPath4">
      <path
         d="M 0,841.89 H 595.276 V 0 H 0 Z"
         transform="translate(-113.21901,-710.32402)"
         id="path4" />
    </clipPath>
    <clipPath
       clipPathUnits="userSpaceOnUse"
       id="clipPath6">
      <path
         d="M 0,841.89 H 595.276 V 0 H 0 Z"
         transform="translate(-113.21901,-573.31601)"
         id="path6" />
    </clipPath>
    <clipPath
       clipPathUnits="userSpaceOnUse"
       id="clipPath8">
      <path
         d="M 0,841.89 H 595.276 V 0 H 0 Z"
         transform="translate(-143.964,-644.94101)"
         id="path8" />
    </clipPath>
  </defs>
  <g
     inkscape:label="Layer 1"
     inkscape:groupmode="layer"
     id="layer1"
     transform="translate(-79.904167,-123.56042)">
    <path
       id="path3"
       d="m 0,0 c 39.138,0 70.866,-31.729 70.866,-70.866 0,-39.138 -31.728,-70.866 -70.866,-70.866 -39.138,0 -70.866,31.728 -70.866,70.866 C -70.866,-31.729 -39.138,0 0,0"
       style="fill:#ffffff;fill-opacity:1;fill-rule:nonzero;stroke:#231f20;stroke-width:0.222;stroke-linecap:butt;stroke-linejoin:miter;stroke-miterlimit:4;stroke-dasharray:none;stroke-opacity:1"
       transform="matrix(0.35277776,0,0,-0.35277776,104.94327,123.59957)"
       clip-path="url(#clipPath4)" />
    <path
       id="path5"
       d="m 0,0 c -8.931,0 -17.593,1.748 -25.744,5.196 -7.875,3.33 -14.949,8.101 -21.026,14.177 -6.075,6.076 -10.845,13.148 -14.176,21.024 -3.448,8.152 -5.196,16.814 -5.196,25.745 0,8.931 1.748,17.591 5.196,25.743 3.331,7.876 8.101,14.95 14.176,21.026 6.077,6.075 13.151,10.845 21.026,14.177 8.151,3.447 16.813,5.196 25.744,5.196 8.931,0 17.593,-1.749 25.743,-5.196 7.876,-3.332 14.95,-8.102 21.027,-14.177 6.075,-6.076 10.844,-13.15 14.176,-21.026 3.448,-8.152 5.196,-16.812 5.196,-25.743 0,-8.931 -1.748,-17.593 -5.196,-25.745 C 57.614,32.521 52.845,25.449 46.77,19.373 40.693,13.297 33.619,8.526 25.743,5.196 17.593,1.748 8.931,0 0,0"
       style="fill:#4467a5;fill-opacity:1;fill-rule:nonzero;stroke:none"
       transform="matrix(0.35277776,0,0,-0.35277776,104.94327,171.93295)"
       clip-path="url(#clipPath6)" />
    <path
       id="path7"
       d="m 0,0 c -2.31,0.004 -4.505,-0.461 -6.504,-1.308 l -6.653,11.494 1.249,3.63 c 0,0 0.643,0.139 1.588,0.343 0.946,0.201 2.271,1.927 2.754,2.974 0.483,1.046 -0.37,1.112 -0.37,1.112 h -14.412 c -1.349,0 -2.334,-2.112 -0.34,-2.725 l 6.469,-1.475 -1.477,-4.198 H -48.33 c 0,0 0.332,1.216 0.733,3.056 0.404,1.843 -0.568,2.54 -1.751,3.749 -1.181,1.212 0.452,1.593 0.452,1.593 h 6.47 v 4.195 h -7.833 c 0,0 -2.686,-0.176 -3.74,-1.929 -0.75,-1.238 -1.191,-4.865 0.926,-5.914 2.111,-1.053 0.658,-3.724 0.658,-3.724 0,0 -1.664,-6.262 -3.202,-11.968 -1.834,0.695 -3.811,1.094 -5.882,1.095 -9.222,0.015 -16.691,-7.45 -16.691,-16.677 0.002,-9.223 7.485,-16.718 16.703,-16.73 9.218,-0.013 16.691,7.454 16.684,16.678 -0.003,5.624 -2.787,10.588 -7.046,13.62 l 0.571,2.176 19.499,-13.702 c -0.199,-0.643 -0.338,-1.314 -0.338,-2.023 0,-3.833 3.113,-6.943 6.945,-6.943 0.698,0 1.359,0.135 1.992,0.326 l 1.06,-2.278 h -1.815 v -2.269 h 1.815 c 0,0 1.013,-0.969 2.042,-0.794 1.033,0.176 1.249,0.794 1.249,0.794 h 1.815 v 2.269 h -2.949 l -1.432,3.082 c 1.497,0.97 2.587,2.496 2.989,4.288 l 0.031,0.001 h 1.764 C -15.847,-26.7 -8.7,-33.395 0.016,-33.406 9.23,-33.42 16.703,-25.953 16.7,-16.729 16.697,-7.501 9.218,-0.015 0,0 m -49.628,-16.729 c 0.003,-3.169 -1.225,-6.149 -3.46,-8.383 -2.236,-2.239 -5.21,-3.467 -8.372,-3.467 h -0.024 c -6.549,0.004 -11.877,5.343 -11.877,11.904 -0.005,3.169 1.223,6.149 3.46,8.383 2.237,2.238 5.208,3.467 8.368,3.467 1.651,-0.005 3.22,-0.343 4.642,-0.949 -0.627,-2.305 -1.111,-4.035 -1.249,-4.42 -0.508,-1.435 -1.66,-2.644 -2.238,-3.384 -0.585,-0.74 -3.794,-1.976 -2.475,-4.033 1.372,-2.14 3.879,0.168 4.62,0.477 2.406,1.008 4.118,5.31 4.118,5.31 l 0.929,3.565 c 2.194,-2.16 3.558,-5.158 3.558,-8.47 m -0.404,20.107 0.568,2.27 h 30.181 L -24.87,-9.744 c -0.104,0.005 -0.198,0.031 -0.302,0.031 -0.703,0 -1.361,-0.135 -2.001,-0.329 l -1.07,2.303 h 1.926 v 2.27 h -1.926 c 0,0 -0.785,0.905 -1.931,0.793 -1.145,-0.111 -1.249,-0.793 -1.249,-0.793 h -1.929 v -2.27 h 2.95 l 1.447,-3.11 c -0.147,-0.092 -0.272,-0.203 -0.408,-0.307 z m 24.863,-24.565 c -2.504,0 -4.539,2.03 -4.539,4.529 0,2.5 2.035,4.531 4.539,4.531 2.498,0 4.533,-2.031 4.533,-4.531 0,-2.499 -2.035,-4.529 -4.533,-4.529 m 6.761,6.067 c -0.361,1.579 -1.265,2.937 -2.499,3.907 l 5.934,16.291 4.869,-8.493 c -3.607,-2.749 -6.063,-6.928 -6.501,-11.705 z m 10.728,7.477 4.281,-7.471 -8.351,-0.005 c 0.332,2.579 1.487,4.963 3.351,6.827 0.232,0.229 0.472,0.442 0.719,0.649 M 8.414,-25.112 C 6.175,-27.351 3.205,-28.579 0.046,-28.579 H 0.019 c -6.039,0.004 -11.031,4.55 -11.775,10.397 H 0.122 c 2.455,0 2.413,1.604 1.301,3.167 l -5.481,9.475 c 1.277,0.46 2.629,0.715 4.028,0.715 6.574,-0.011 11.905,-5.35 11.905,-11.904 0.003,-3.169 -1.228,-6.149 -3.461,-8.383"
       style="fill:#ffffff;fill-opacity:1;fill-rule:nonzero;stroke:none"
       transform="matrix(0.35277776,0,0,-0.35277776,115.78943,146.66525)"
       clip-path="url(#clipPath8)" />
  </g>
</svg>
