<?xml version="1.0" encoding="UTF-8" standalone="no"?>
<!-- Created with Inkscape (http://www.inkscape.org/) -->

<svg
   width="50.077862mm"
   height="50.078213mm"
   viewBox="0 0 50.077862 50.078213"
   version="1.1"
   id="svg1"
   inkscape:version="1.4 (86a8ad7, 2024-10-11)"
   sodipodi:docname="c right.svg"
   xmlns:inkscape="http://www.inkscape.org/namespaces/inkscape"
   xmlns:sodipodi="http://sodipodi.sourceforge.net/DTD/sodipodi-0.dtd"
   xmlns="http://www.w3.org/2000/svg"
   xmlns:svg="http://www.w3.org/2000/svg">
  <sodipodi:namedview
     id="namedview1"
     pagecolor="#ffffff"
     bordercolor="#000000"
     borderopacity="0.25"
     inkscape:showpageshadow="2"
     inkscape:pageopacity="0.0"
     inkscape:pagecheckerboard="0"
     inkscape:deskcolor="#d1d1d1"
     inkscape:document-units="mm"
     inkscape:zoom="2.8756734"
     inkscape:cx="110.93054"
     inkscape:cy="57.203993"
     inkscape:window-width="1920"
     inkscape:window-height="1009"
     inkscape:window-x="-8"
     inkscape:window-y="-8"
     inkscape:window-maximized="1"
     inkscape:current-layer="layer1" />
  <defs
     id="defs1">
    <clipPath
       clipPathUnits="userSpaceOnUse"
       id="clipPath208">
      <path
         d="M 0,841.89 H 595.276 V 0 H 0 Z"
         transform="translate(-390.77401,-128.155)"
         id="path208" />
    </clipPath>
    <clipPath
       clipPathUnits="userSpaceOnUse"
       id="clipPath210">
      <path
         d="M 0,841.89 H 595.276 V 0 H 0 Z"
         transform="translate(-354.32201,-195.088)"
         id="path210" />
    </clipPath>
    <clipPath
       clipPathUnits="userSpaceOnUse"
       id="clipPath212">
      <path
         d="M 0,841.89 H 595.276 V 0 H 0 Z"
         transform="translate(-407.66601,-225.718)"
         id="path212" />
    </clipPath>
    <clipPath
       clipPathUnits="userSpaceOnUse"
       id="clipPath214">
      <path
         d="M 0,841.89 H 595.276 V 0 H 0 Z"
         transform="translate(-408.00501,-164.38701)"
         id="path214" />
    </clipPath>
    <clipPath
       clipPathUnits="userSpaceOnUse"
       id="clipPath194">
      <path
         d="M 0,841.89 H 595.276 V 0 H 0 Z"
         transform="translate(-391.96201,-461.85201)"
         id="path194" />
    </clipPath>
    <clipPath
       clipPathUnits="userSpaceOnUse"
       id="clipPath196">
      <path
         d="M 0,841.89 H 595.276 V 0 H 0 Z"
         transform="translate(-391.96201,-324.84301)"
         id="path196" />
    </clipPath>
    <clipPath
       clipPathUnits="userSpaceOnUse"
       id="clipPath198">
      <path
         d="M 0,841.89 H 595.276 V 0 H 0 Z"
         transform="translate(-340.78001,-375.23801)"
         id="path198" />
    </clipPath>
  </defs>
  <g
     inkscape:label="Layer 1"
     inkscape:groupmode="layer"
     id="layer1"
     transform="translate(-80.016603,-123.60765)">
    <path
       id="path193"
       d="m 0,0 c 39.138,0 70.865,-31.729 70.865,-70.866 0,-39.138 -31.727,-70.866 -70.865,-70.866 -39.138,0 -70.866,31.728 -70.866,70.866 C -70.866,-31.729 -39.138,0 0,0"
       style="fill:#ffffff;fill-opacity:1;fill-rule:nonzero;stroke:#231f20;stroke-width:0.222;stroke-linecap:butt;stroke-linejoin:miter;stroke-miterlimit:4;stroke-dasharray:none;stroke-opacity:1"
       transform="matrix(0.35277776,0,0,-0.35277776,105.05571,123.64681)"
       clip-path="url(#clipPath194)" />
    <path
       id="path195"
       d="m 0,0 c -8.932,0 -17.593,1.749 -25.744,5.196 -7.875,3.331 -14.949,8.102 -21.026,14.177 -6.076,6.076 -10.845,13.15 -14.176,21.025 -3.448,8.152 -5.197,16.814 -5.197,25.745 0,8.93 1.749,17.591 5.197,25.744 3.331,7.875 8.1,14.949 14.176,21.024 6.077,6.076 13.151,10.847 21.026,14.178 8.151,3.447 16.812,5.195 25.744,5.195 8.931,0 17.592,-1.748 25.743,-5.195 7.876,-3.331 14.949,-8.102 21.026,-14.178 6.076,-6.075 10.845,-13.149 14.176,-21.024 3.449,-8.153 5.197,-16.814 5.197,-25.744 0,-8.931 -1.748,-17.593 -5.197,-25.745 C 57.614,32.523 52.845,25.449 46.769,19.373 40.692,13.298 33.619,8.527 25.743,5.196 17.592,1.749 8.931,0 0,0"
       style="fill:#4467a5;fill-opacity:1;fill-rule:nonzero;stroke:none"
       transform="matrix(0.35277776,0,0,-0.35277776,105.05571,171.98054)"
       clip-path="url(#clipPath196)" />
    <path
       id="path197"
       d="M 0,0 77.939,7.874 V 1.575 L 102.362,15.748 77.939,29.921 V 23.622 L 0,31.496 Z"
       style="fill:#ffffff;fill-opacity:1;fill-rule:nonzero;stroke:none"
       transform="matrix(0.35277776,0,0,-0.35277776,86.999834,154.20231)"
       clip-path="url(#clipPath198)" />
  </g>
</svg>
