<?xml version="1.0" encoding="UTF-8" standalone="no"?>
<!-- Created with Inkscape (http://www.inkscape.org/) -->

<svg
   width="50.078217mm"
   height="50.078217mm"
   viewBox="0 0 50.078217 50.078217"
   version="1.1"
   id="svg1"
   inkscape:version="1.4 (86a8ad7, 2024-10-11)"
   sodipodi:docname="horn.svg"
   xmlns:inkscape="http://www.inkscape.org/namespaces/inkscape"
   xmlns:sodipodi="http://sodipodi.sourceforge.net/DTD/sodipodi-0.dtd"
   xmlns="http://www.w3.org/2000/svg"
   xmlns:svg="http://www.w3.org/2000/svg">
  <sodipodi:namedview
     id="namedview1"
     pagecolor="#ffffff"
     bordercolor="#000000"
     borderopacity="0.25"
     inkscape:showpageshadow="2"
     inkscape:pageopacity="0.0"
     inkscape:pagecheckerboard="0"
     inkscape:deskcolor="#d1d1d1"
     inkscape:document-units="mm"
     inkscape:zoom="2.8756734"
     inkscape:cx="103.28016"
     inkscape:cy="110.06118"
     inkscape:window-width="1920"
     inkscape:window-height="1009"
     inkscape:window-x="-8"
     inkscape:window-y="-8"
     inkscape:window-maximized="1"
     inkscape:current-layer="layer1" />
  <defs
     id="defs1">
    <clipPath
       clipPathUnits="userSpaceOnUse"
       id="clipPath4">
      <path
         d="M 0,841.89 H 595.276 V 0 H 0 Z"
         transform="translate(-113.21901,-710.32402)"
         id="path4" />
    </clipPath>
    <clipPath
       clipPathUnits="userSpaceOnUse"
       id="clipPath6">
      <path
         d="M 0,841.89 H 595.276 V 0 H 0 Z"
         transform="translate(-113.21901,-573.31601)"
         id="path6" />
    </clipPath>
    <clipPath
       clipPathUnits="userSpaceOnUse"
       id="clipPath8">
      <path
         d="M 0,841.89 H 595.276 V 0 H 0 Z"
         transform="translate(-143.964,-644.94101)"
         id="path8" />
    </clipPath>
    <clipPath
       clipPathUnits="userSpaceOnUse"
       id="clipPath982">
      <path
         d="M 0,841.89 H 595.276 V 0 H 0 Z"
         transform="translate(-391.22801,-710.00702)"
         id="path982" />
    </clipPath>
    <clipPath
       clipPathUnits="userSpaceOnUse"
       id="clipPath984">
      <path
         d="M 0,841.89 H 595.276 V 0 H 0 Z"
         transform="translate(-391.22801,-572.99902)"
         id="path984" />
    </clipPath>
    <clipPath
       clipPathUnits="userSpaceOnUse"
       id="clipPath986">
      <path
         d="M 0,841.89 H 595.276 V 0 H 0 Z"
         transform="translate(-443.75101,-642.12502)"
         id="path986" />
    </clipPath>
    <clipPath
       clipPathUnits="userSpaceOnUse"
       id="clipPath988">
      <path
         d="M 0,841.89 H 595.276 V 0 H 0 Z"
         transform="translate(-337.61401,-643.11902)"
         id="path988" />
    </clipPath>
    <clipPath
       clipPathUnits="userSpaceOnUse"
       id="clipPath990">
      <path
         d="M 0,841.89 H 595.276 V 0 H 0 Z"
         transform="translate(-357.12801,-673.39702)"
         id="path990" />
    </clipPath>
    <clipPath
       clipPathUnits="userSpaceOnUse"
       id="clipPath992">
      <path
         d="M 0,841.89 H 595.276 V 0 H 0 Z"
         id="path992" />
    </clipPath>
    <clipPath
       clipPathUnits="userSpaceOnUse"
       id="clipPath2055">
      <path
         d="M 0,841.89 H 595.276 V 0 H 0 Z"
         transform="translate(-113.383,-461.85101)"
         id="path2055" />
    </clipPath>
    <clipPath
       clipPathUnits="userSpaceOnUse"
       id="clipPath2057">
      <path
         d="M 0,841.89 H 595.276 V 0 H 0 Z"
         transform="translate(-113.383,-324.84301)"
         id="path2057" />
    </clipPath>
    <clipPath
       clipPathUnits="userSpaceOnUse"
       id="clipPath2059">
      <path
         d="M 0,841.89 H 595.276 V 0 H 0 Z"
         transform="translate(-84.8503,-398.56101)"
         id="path2059" />
    </clipPath>
    <clipPath
       clipPathUnits="userSpaceOnUse"
       id="clipPath2061">
      <path
         d="M 0,841.89 H 595.276 V 0 H 0 Z"
         transform="translate(-114.12,-443.97801)"
         id="path2061" />
    </clipPath>
    <clipPath
       clipPathUnits="userSpaceOnUse"
       id="clipPath2004">
      <path
         d="M 0,841.89 H 595.276 V 0 H 0 Z"
         transform="translate(-390.30201,-461.85201)"
         id="path2004" />
    </clipPath>
    <clipPath
       clipPathUnits="userSpaceOnUse"
       id="clipPath2006">
      <path
         d="M 0,841.89 H 595.276 V 0 H 0 Z"
         transform="translate(-390.30201,-324.84301)"
         id="path2006" />
    </clipPath>
    <clipPath
       clipPathUnits="userSpaceOnUse"
       id="clipPath2008">
      <path
         d="M 0,841.89 H 595.276 V 0 H 0 Z"
         transform="translate(-424.30001,-377.20501)"
         id="path2008" />
    </clipPath>
    <clipPath
       clipPathUnits="userSpaceOnUse"
       id="clipPath2010">
      <path
         d="M 0,841.89 H 595.276 V 0 H 0 Z"
         transform="translate(-403.02501,-369.79201)"
         id="path2010" />
    </clipPath>
    <clipPath
       clipPathUnits="userSpaceOnUse"
       id="clipPath2012">
      <path
         d="M 0,841.89 H 595.276 V 0 H 0 Z"
         transform="translate(-402.17601,-390.97601)"
         id="path2012" />
    </clipPath>
    <clipPath
       clipPathUnits="userSpaceOnUse"
       id="clipPath2042">
      <path
         d="M 0,841.89 H 595.276 V 0 H 0 Z"
         transform="translate(-390.49201,-213.74901)"
         id="path2042" />
    </clipPath>
    <clipPath
       clipPathUnits="userSpaceOnUse"
       id="clipPath2044">
      <path
         d="M 0,841.89 H 595.276 V 0 H 0 Z"
         transform="translate(-390.49201,-76.741577)"
         id="path2044" />
    </clipPath>
    <clipPath
       clipPathUnits="userSpaceOnUse"
       id="clipPath2046">
      <path
         d="M 0,841.89 H 595.276 V 0 H 0 Z"
         transform="translate(-343.80101,-165.41301)"
         id="path2046" />
    </clipPath>
    <clipPath
       clipPathUnits="userSpaceOnUse"
       id="clipPath2048">
      <path
         d="M 0,841.89 H 595.276 V 0 H 0 Z"
         transform="translate(-398.34301,-120.35301)"
         id="path2048" />
    </clipPath>
    <clipPath
       clipPathUnits="userSpaceOnUse"
       id="clipPath2050">
      <path
         d="M 0,841.89 H 595.276 V 0 H 0 Z"
         transform="translate(-445.95501,-133.81401)"
         id="path2050" />
    </clipPath>
  </defs>
  <g
     inkscape:label="Layer 1"
     inkscape:groupmode="layer"
     id="layer1"
     transform="translate(-79.904167,-123.56042)">
    <path
       id="path2041"
       d="m 0,0 c -39.138,0 -70.866,-31.729 -70.866,-70.866 0,-39.138 31.728,-70.866 70.866,-70.866 39.138,0 70.866,31.728 70.866,70.866 C 70.866,-31.729 39.138,0 0,0"
       style="fill:#ffffff;fill-opacity:1;fill-rule:nonzero;stroke:#231f20;stroke-width:0.222;stroke-linecap:butt;stroke-linejoin:miter;stroke-miterlimit:4;stroke-dasharray:none;stroke-opacity:1"
       transform="matrix(0.35277776,0,0,-0.35277776,104.94328,123.59958)"
       clip-path="url(#clipPath2042)" />
    <path
       id="path2043"
       d="m 0,0 c 8.932,0 17.593,1.748 25.744,5.196 7.875,3.331 14.949,8.101 21.026,14.177 6.075,6.076 10.845,13.149 14.176,21.025 3.448,8.151 5.196,16.813 5.196,25.744 0,8.931 -1.748,17.592 -5.196,25.743 -3.331,7.876 -8.101,14.95 -14.176,21.026 -6.077,6.076 -13.151,10.845 -21.026,14.177 -8.151,3.447 -16.812,5.196 -25.744,5.196 -8.931,0 -17.592,-1.749 -25.743,-5.196 -7.876,-3.332 -14.95,-8.101 -21.026,-14.177 -6.076,-6.076 -10.845,-13.15 -14.176,-21.026 -3.449,-8.151 -5.197,-16.812 -5.197,-25.743 0,-8.931 1.748,-17.593 5.197,-25.744 3.331,-7.876 8.1,-14.949 14.176,-21.025 6.076,-6.076 13.15,-10.846 21.026,-14.177 C -17.592,1.748 -8.931,0 0,0"
       style="fill:#4467a5;fill-opacity:1;fill-rule:nonzero;stroke:none"
       transform="matrix(0.35277776,0,0,-0.35277776,104.94328,171.93275)"
       clip-path="url(#clipPath2044)" />
    <path
       id="path2045"
       d="m 0,0 c -3.242,0 -8.772,-8.221 -8.772,-18.357 0,-10.143 5.53,-18.364 8.772,-18.364 v 0.004 -0.007 c 0,0 9.423,15.373 33.473,15.587 l 0.497,5.551 C 9.92,-15.369 0,0 0,0"
       style="fill:#ffffff;fill-opacity:1;fill-rule:nonzero;stroke:none"
       transform="matrix(0.35277776,0,0,-0.35277776,88.471727,140.65145)"
       clip-path="url(#clipPath2046)" />
    <path
       id="path2047"
       d="m 0,0 h -30.99 c -2.864,-0.01 -5.341,0.892 -7.048,2.486 -1.716,1.581 -2.571,3.747 -2.562,5.862 -0.003,2.179 0.88,4.366 2.576,5.998 1.688,1.636 4.179,2.632 7.034,2.621 H 10.796 C 10.463,18.562 9.764,20.06 8.786,21.21 7.362,22.866 5.53,23.882 2.972,23.899 h -24.151 -8.905 v 5.548 H 2.972 c 4.244,0.017 7.84,-1.918 10.142,-4.694 1.862,-2.224 2.998,-4.948 3.379,-7.786 H 26.12 V 11.419 H 16.257 C 15.692,8.947 14.486,6.564 12.546,4.611 9.736,1.764 5.458,0 0.083,0 Z m -34.101,10.373 c -0.589,-0.569 -0.878,-1.309 -0.878,-2.025 0.008,-0.696 0.25,-1.316 0.789,-1.815 0.541,-0.492 1.458,-0.974 3.2,-0.985 H 0 c 4.252,0.017 6.855,1.277 8.53,2.944 0.841,0.844 1.462,1.839 1.874,2.927 H -30.99 c -1.606,-0.013 -2.516,-0.488 -3.111,-1.046"
       style="fill:#ffffff;fill-opacity:1;fill-rule:nonzero;stroke:none"
       transform="matrix(0.35277776,0,0,-0.35277776,107.71293,156.54761)"
       clip-path="url(#clipPath2048)" />
    <path
       id="path2049"
       d="m 0,0 c 0,-6.846 -5.624,-12.394 -12.561,-12.394 -6.939,0 -12.563,5.548 -12.563,12.394 0,6.85 5.624,12.395 12.563,12.395 C -5.624,12.395 0,6.85 0,0"
       style="fill:#ffffff;fill-opacity:1;fill-rule:nonzero;stroke:none"
       transform="matrix(0.35277776,0,0,-0.35277776,124.50939,151.79887)"
       clip-path="url(#clipPath2050)" />
  </g>
</svg>
