<?xml version="1.0" encoding="UTF-8" standalone="no"?>
<!-- Created with Inkscape (http://www.inkscape.org/) -->

<svg
   width="50.078217mm"
   height="50.078217mm"
   viewBox="0 0 50.078217 50.078217"
   version="1.1"
   id="svg1"
   inkscape:version="1.4 (86a8ad7, 2024-10-11)"
   sodipodi:docname="snow chain.svg"
   xmlns:inkscape="http://www.inkscape.org/namespaces/inkscape"
   xmlns:sodipodi="http://sodipodi.sourceforge.net/DTD/sodipodi-0.dtd"
   xmlns="http://www.w3.org/2000/svg"
   xmlns:svg="http://www.w3.org/2000/svg">
  <sodipodi:namedview
     id="namedview1"
     pagecolor="#ffffff"
     bordercolor="#000000"
     borderopacity="0.25"
     inkscape:showpageshadow="2"
     inkscape:pageopacity="0.0"
     inkscape:pagecheckerboard="0"
     inkscape:deskcolor="#d1d1d1"
     inkscape:document-units="mm"
     inkscape:zoom="2.8756734"
     inkscape:cx="103.28016"
     inkscape:cy="110.06118"
     inkscape:window-width="1920"
     inkscape:window-height="1009"
     inkscape:window-x="-8"
     inkscape:window-y="-8"
     inkscape:window-maximized="1"
     inkscape:current-layer="layer1" />
  <defs
     id="defs1">
    <clipPath
       clipPathUnits="userSpaceOnUse"
       id="clipPath4">
      <path
         d="M 0,841.89 H 595.276 V 0 H 0 Z"
         transform="translate(-113.21901,-710.32402)"
         id="path4" />
    </clipPath>
    <clipPath
       clipPathUnits="userSpaceOnUse"
       id="clipPath6">
      <path
         d="M 0,841.89 H 595.276 V 0 H 0 Z"
         transform="translate(-113.21901,-573.31601)"
         id="path6" />
    </clipPath>
    <clipPath
       clipPathUnits="userSpaceOnUse"
       id="clipPath8">
      <path
         d="M 0,841.89 H 595.276 V 0 H 0 Z"
         transform="translate(-143.964,-644.94101)"
         id="path8" />
    </clipPath>
    <clipPath
       clipPathUnits="userSpaceOnUse"
       id="clipPath982">
      <path
         d="M 0,841.89 H 595.276 V 0 H 0 Z"
         transform="translate(-391.22801,-710.00702)"
         id="path982" />
    </clipPath>
    <clipPath
       clipPathUnits="userSpaceOnUse"
       id="clipPath984">
      <path
         d="M 0,841.89 H 595.276 V 0 H 0 Z"
         transform="translate(-391.22801,-572.99902)"
         id="path984" />
    </clipPath>
    <clipPath
       clipPathUnits="userSpaceOnUse"
       id="clipPath986">
      <path
         d="M 0,841.89 H 595.276 V 0 H 0 Z"
         transform="translate(-443.75101,-642.12502)"
         id="path986" />
    </clipPath>
    <clipPath
       clipPathUnits="userSpaceOnUse"
       id="clipPath988">
      <path
         d="M 0,841.89 H 595.276 V 0 H 0 Z"
         transform="translate(-337.61401,-643.11902)"
         id="path988" />
    </clipPath>
    <clipPath
       clipPathUnits="userSpaceOnUse"
       id="clipPath990">
      <path
         d="M 0,841.89 H 595.276 V 0 H 0 Z"
         transform="translate(-357.12801,-673.39702)"
         id="path990" />
    </clipPath>
    <clipPath
       clipPathUnits="userSpaceOnUse"
       id="clipPath992">
      <path
         d="M 0,841.89 H 595.276 V 0 H 0 Z"
         id="path992" />
    </clipPath>
    <clipPath
       clipPathUnits="userSpaceOnUse"
       id="clipPath2055">
      <path
         d="M 0,841.89 H 595.276 V 0 H 0 Z"
         transform="translate(-113.383,-461.85101)"
         id="path2055" />
    </clipPath>
    <clipPath
       clipPathUnits="userSpaceOnUse"
       id="clipPath2057">
      <path
         d="M 0,841.89 H 595.276 V 0 H 0 Z"
         transform="translate(-113.383,-324.84301)"
         id="path2057" />
    </clipPath>
    <clipPath
       clipPathUnits="userSpaceOnUse"
       id="clipPath2059">
      <path
         d="M 0,841.89 H 595.276 V 0 H 0 Z"
         transform="translate(-84.8503,-398.56101)"
         id="path2059" />
    </clipPath>
    <clipPath
       clipPathUnits="userSpaceOnUse"
       id="clipPath2061">
      <path
         d="M 0,841.89 H 595.276 V 0 H 0 Z"
         transform="translate(-114.12,-443.97801)"
         id="path2061" />
    </clipPath>
    <clipPath
       clipPathUnits="userSpaceOnUse"
       id="clipPath2004">
      <path
         d="M 0,841.89 H 595.276 V 0 H 0 Z"
         transform="translate(-390.30201,-461.85201)"
         id="path2004" />
    </clipPath>
    <clipPath
       clipPathUnits="userSpaceOnUse"
       id="clipPath2006">
      <path
         d="M 0,841.89 H 595.276 V 0 H 0 Z"
         transform="translate(-390.30201,-324.84301)"
         id="path2006" />
    </clipPath>
    <clipPath
       clipPathUnits="userSpaceOnUse"
       id="clipPath2008">
      <path
         d="M 0,841.89 H 595.276 V 0 H 0 Z"
         transform="translate(-424.30001,-377.20501)"
         id="path2008" />
    </clipPath>
    <clipPath
       clipPathUnits="userSpaceOnUse"
       id="clipPath2010">
      <path
         d="M 0,841.89 H 595.276 V 0 H 0 Z"
         transform="translate(-403.02501,-369.79201)"
         id="path2010" />
    </clipPath>
    <clipPath
       clipPathUnits="userSpaceOnUse"
       id="clipPath2012">
      <path
         d="M 0,841.89 H 595.276 V 0 H 0 Z"
         transform="translate(-402.17601,-390.97601)"
         id="path2012" />
    </clipPath>
  </defs>
  <g
     inkscape:label="Layer 1"
     inkscape:groupmode="layer"
     id="layer1"
     transform="translate(-79.904167,-123.56042)">
    <path
       id="path2003"
       d="m 0,0 c -39.138,0 -70.866,-31.729 -70.866,-70.866 0,-39.138 31.728,-70.866 70.866,-70.866 39.138,0 70.866,31.728 70.866,70.866 C 70.866,-31.729 39.138,0 0,0"
       style="fill:#ffffff;fill-opacity:1;fill-rule:nonzero;stroke:#231f20;stroke-width:0.222;stroke-linecap:butt;stroke-linejoin:miter;stroke-miterlimit:4;stroke-dasharray:none;stroke-opacity:1"
       transform="matrix(0.35277776,0,0,-0.35277776,104.94328,123.59958)"
       clip-path="url(#clipPath2004)" />
    <path
       id="path2005"
       d="m 0,0 c 8.932,0 17.593,1.749 25.744,5.196 7.875,3.331 14.949,8.102 21.026,14.177 6.075,6.076 10.845,13.15 14.176,21.025 3.448,8.152 5.196,16.814 5.196,25.745 0,8.93 -1.748,17.591 -5.196,25.744 -3.331,7.875 -8.101,14.949 -14.176,21.024 -6.077,6.076 -13.151,10.847 -21.026,14.178 -8.151,3.447 -16.812,5.195 -25.744,5.195 -8.931,0 -17.592,-1.748 -25.743,-5.195 -7.876,-3.331 -14.95,-8.102 -21.026,-14.178 -6.076,-6.075 -10.845,-13.149 -14.176,-21.024 -3.449,-8.153 -5.197,-16.814 -5.197,-25.744 0,-8.931 1.748,-17.593 5.197,-25.745 3.331,-7.875 8.1,-14.949 14.176,-21.025 6.076,-6.075 13.15,-10.846 21.026,-14.177 C -17.592,1.749 -8.931,0 0,0"
       style="fill:#4467a5;fill-opacity:1;fill-rule:nonzero;stroke:none"
       transform="matrix(0.35277776,0,0,-0.35277776,104.94328,171.93331)"
       clip-path="url(#clipPath2006)" />
    <path
       id="path2007"
       d="m 0,0 c -1.519,0.681 -2.731,0.574 -3.865,-0.41 -1.615,0.735 -3.237,1.473 -4.873,2.221 10e-4,0.623 -0.051,1.196 0.431,1.709 0.214,0.226 0.199,0.662 0.313,0.994 0.768,2.253 0.497,4.568 0.429,6.873 -0.008,0.27 -0.024,0.541 -0.031,0.811 -0.002,0.081 0.014,0.163 0.032,0.357 h 4.076 C -2.609,10.933 -1.147,10.363 0.941,10.951 0.624,7.261 0.317,3.69 0,0 m -1.729,-3.474 c -0.489,0.01 -0.893,0.442 -0.88,0.941 0.013,0.51 0.42,0.903 0.917,0.887 0.5,-0.015 0.905,-0.431 0.895,-0.922 -0.009,-0.458 -0.477,-0.913 -0.932,-0.906 m -2.198,-12.354 c -0.757,0.214 -1.358,0.497 -1.971,0.524 -0.616,0.03 -1.243,-0.196 -1.98,-0.332 -1.325,1.181 -2.768,2.466 -4.251,3.787 0.27,1.193 0.598,2.394 0.805,3.617 0.251,1.479 1.102,2.718 1.529,4.121 0.358,1.18 0.66,2.38 1.002,3.626 1.246,-0.569 2.62,-1.195 4.004,-1.825 0.233,-2.263 0.98,-2.927 3.8,-3.317 -0.988,-3.429 -1.968,-6.835 -2.938,-10.201 m -1.701,-3.723 c -0.694,-0.216 -1.275,0.014 -1.503,0.574 -0.227,0.563 -0.022,1.13 0.516,1.43 0.574,0.319 1.127,0.152 1.644,-0.558 -0.222,-0.491 -0.444,-0.976 -0.657,-1.446 m -13.348,-14.593 c -0.29,2.081 -0.544,2.582 -1.678,3.44 v 8.237 c 1.267,0.513 2.066,1.394 2.35,2.361 0.656,0.437 1.131,0.695 1.532,1.041 0.422,0.364 0.806,0.788 1.149,1.231 0.464,0.603 0.896,1.231 1.298,1.876 0.427,0.686 0.803,1.401 1.239,2.174 1.359,-1.228 2.641,-2.385 3.911,-3.531 -0.241,-2.654 0.278,-3.62 2.459,-4.489 -2.932,-5.261 -6.308,-10.035 -12.26,-12.34 m -2.336,13.707 c -0.816,-0.323 -1.675,0.081 -2.092,1.011 0.3,0.673 0.61,1.373 0.909,2.044 1.078,0.262 1.906,-0.12 2.182,-0.97 0.28,-0.866 -0.142,-1.749 -0.999,-2.085 m -0.294,-14.251 c -0.573,-0.03 -1.208,-0.063 -1.783,-0.091 -0.715,0.721 -0.757,1.47 -0.177,2.105 0.445,0.488 1.353,0.539 1.875,0.106 0.652,-0.542 0.704,-1.277 0.085,-2.12 m -3.705,3.218 c -0.629,-0.802 -0.835,-1.705 -0.722,-2.697 -2.972,0.028 -9.439,5.73 -11.498,10.138 0.993,0.398 1.78,1.038 2.215,2.043 0.429,0.997 0.356,1.985 -0.077,2.912 1.283,1.267 2.536,2.508 3.82,3.778 0.22,-0.55 0.454,-1.122 0.678,-1.696 0.433,-1.111 0.584,-1.217 1.804,-1.186 0.381,-0.463 0.84,-0.924 1.183,-1.46 0.429,-0.673 0.987,-0.904 1.745,-0.786 0.245,0.039 0.497,0.033 0.783,0.05 0.578,-1.053 1.394,-1.848 2.608,-2.18 v -7.551 c -0.996,-0.218 -1.895,-0.541 -2.539,-1.365 m -18.537,-3.272 c 1.846,2.722 3.623,5.346 5.444,8.031 2.202,-3.187 4.706,-5.938 8.103,-8.031 z m -1.847,1.038 c -0.52,0.243 -0.985,0.462 -1.459,0.684 -0.162,0.477 -0.074,0.865 0.299,1.237 2.06,2.058 4.102,4.136 6.158,6.198 0.126,0.127 0.317,0.189 0.477,0.281 0.033,-0.059 0.068,-0.121 0.102,-0.181 -1.856,-2.735 -3.71,-5.468 -5.577,-8.219 m -3,3.059 c -0.472,-0.457 -0.7,-0.944 -0.649,-1.601 0.042,-0.557 0.009,-1.119 0.009,-1.788 -4.878,1.974 -7.979,5.711 -10.731,10.069 0.366,0 0.6,0.005 0.835,0 2.061,-0.046 4.123,-0.104 6.184,-0.131 0.359,-0.004 0.718,0.128 1.165,0.213 2.812,-0.354 5.732,-0.722 8.786,-1.107 -0.748,-0.761 -1.41,-1.438 -2.075,-2.111 -1.172,-1.184 -2.329,-2.383 -3.524,-3.544 m -12.201,10.173 c 0.317,0.308 0.583,0.567 0.902,0.874 2.046,-0.392 4.135,-0.795 6.27,-1.205 -0.035,-0.403 -0.064,-0.747 -0.092,-1.076 h -6.303 c -0.277,0.501 -0.516,0.933 -0.777,1.407 m -1.244,1.925 c -0.28,0.214 -0.509,0.39 -0.764,0.584 -0.025,0.474 -0.049,0.946 -0.077,1.475 1.701,1.028 3.401,2.057 5.231,3.165 0.081,-0.1 0.176,-0.216 0.312,-0.383 -1.589,-1.637 -3.123,-3.214 -4.702,-4.841 m -5.722,18.062 c 0.351,-0.095 0.621,-0.156 0.883,-0.241 2.489,-0.806 4.936,-1.791 7.475,-2.38 2.755,-0.64 5.153,-2.089 7.816,-2.898 0.001,-0.058 0.003,-0.116 0.004,-0.175 -1.048,-0.533 -2.098,-1.066 -3.147,-1.598 -0.037,-0.02 -0.074,-0.039 -0.112,-0.056 -1.114,-0.467 -2.113,-1.041 -2.506,-2.308 -0.193,-0.617 -0.663,-0.998 -1.234,-1.326 -1.872,-1.075 -3.712,-2.207 -5.634,-3.359 -1.682,4.655 -2.792,9.389 -3.545,14.341 m -0.893,8.465 c -0.339,5.117 -0.232,10.111 0.283,15.17 2.829,-1.214 5.576,-2.394 8.347,-3.585 -0.048,-0.753 0.411,-1.104 1.024,-1.389 1.829,-0.852 3.642,-1.735 5.46,-2.606 0.089,-0.043 0.171,-0.101 0.345,-0.208 -0.79,-0.388 -1.502,-0.75 -2.223,-1.093 -1.367,-0.657 -2.752,-1.279 -4.102,-1.966 -0.43,-0.22 -0.775,-0.606 -1.158,-0.914 0.04,-0.059 0.08,-0.117 0.121,-0.174 -2.66,-1.063 -5.321,-2.125 -8.097,-3.235 m 4.811,35.58 c 4.238,-2.833 8.481,-5.518 12.255,-8.961 -1.809,-0.724 -3.572,-1.426 -5.329,-2.127 -1.097,0.805 -2.146,0.16 -3.18,-0.068 -2.391,-0.522 -4.768,-1.109 -7.254,-1.695 0.815,4.421 1.919,8.658 3.508,12.851 m 2.59,3.368 c 1.814,-1.708 3.541,-3.334 5.288,-4.98 -0.186,-0.283 -0.341,-0.52 -0.519,-0.793 -1.81,1.22 -3.577,2.411 -5.395,3.637 0.195,0.665 0.385,1.314 0.626,2.136 m 1.793,2.401 c 2.063,-0.225 4.13,-0.451 6.225,-0.68 0.05,-0.275 0.094,-0.516 0.16,-0.88 -1.858,-0.138 -3.671,-0.274 -5.518,-0.411 -0.483,0.45 -0.968,0.902 -1.515,1.413 0.249,0.213 0.435,0.375 0.648,0.558 m 9.269,12.017 c 0.068,-0.532 0.18,-0.997 0.177,-1.463 -0.006,-0.769 0.373,-1.335 0.806,-1.909 1.505,-1.995 2.993,-4.003 4.485,-6.008 0.071,-0.098 0.12,-0.211 0.213,-0.376 -1.74,-0.218 -3.425,-0.418 -5.108,-0.644 -0.676,-0.09 -1.34,-0.271 -2.016,-0.34 -0.406,-0.04 -0.826,0.052 -1.238,0.098 -2.298,0.258 -4.594,0.52 -6.891,0.781 -0.058,0.007 -0.114,0.031 -0.271,0.075 2.532,4.049 5.416,7.624 9.843,9.786 m 4.679,-2.759 c 1.058,-1.862 2.24,-3.655 3.37,-5.478 0.064,-0.102 0.122,-0.211 0.182,-0.315 -0.043,-0.069 -0.088,-0.139 -0.133,-0.207 -0.288,0.182 -0.66,0.301 -0.853,0.555 -1.567,2.049 -3.109,4.12 -4.634,6.202 -0.215,0.295 -0.296,0.689 -0.377,1.069 1.028,-0.375 1.883,-0.839 2.445,-1.826 m 15.282,3.858 c -4.007,-2.484 -6.792,-5.882 -9.157,-9.757 -1.533,2.457 -3.057,4.815 -4.485,7.231 -0.511,0.864 -1.137,1.505 -2.03,1.919 -0.242,0.112 -0.471,0.256 -0.699,0.482 5.403,0.159 10.801,0.099 16.371,0.125 m 4.665,-0.344 c -0.444,-2.148 0.252,-3.73 2.115,-4.703 v -7.314 c -1.725,-0.411 -2.789,-1.449 -3.311,-3.14 -1.418,-0.333 -2.354,-1.26 -3.15,-2.406 -0.675,-0.973 -1.434,-1.888 -2.18,-2.859 -1.242,1.162 -2.453,2.296 -3.657,3.423 0.683,2.334 -0.401,4.201 -2.887,4.661 0.408,0.704 0.793,1.385 1.196,2.057 1.722,2.876 3.779,5.477 6.436,7.546 1.596,1.244 3.351,2.22 5.438,2.735 m 3.409,0.33 c 1.185,0.002 1.843,-0.546 1.854,-1.542 0.009,-0.9 -0.767,-1.69 -1.656,-1.684 -0.881,0.007 -1.607,0.749 -1.612,1.652 -0.006,0.902 0.599,1.573 1.414,1.574 m 3.973,-0.854 c 5.263,-2.369 8.425,-6.669 11.213,-11.481 -1.004,-0.217 -1.827,-0.639 -2.37,-1.447 -0.547,-0.812 -0.709,-1.717 -0.461,-2.705 -1.088,-0.784 -2.165,-1.561 -3.244,-2.34 -0.867,1.194 -2.242,1.588 -3.376,2.331 -0.748,0.489 -1.545,0.898 -2.31,1.362 -0.168,0.101 -0.351,0.252 -0.425,0.424 -0.439,1.014 -1.223,1.662 -2.152,2.113 v 7.218 c 2.608,1.344 3.197,2.184 3.125,4.525 m 12.67,-14.796 c -0.01,-0.678 -0.475,-1.132 -1.152,-1.121 -0.671,0.012 -1.139,0.486 -1.131,1.148 0.006,0.631 0.528,1.144 1.158,1.136 0.641,-0.007 1.134,-0.516 1.125,-1.163 M -9.766,14.556 c -0.138,-0.039 -0.282,-0.061 -0.516,-0.109 -0.082,2.158 -0.163,4.285 -0.246,6.457 0.25,0.051 0.446,0.091 0.645,0.131 1.026,-2.093 0.502,-4.236 0.367,-6.353 -0.102,-0.053 -0.172,-0.105 -0.25,-0.126 m -2.072,-8.483 c 0.464,1.775 0.925,3.537 1.407,5.38 0.259,0.019 0.478,0.033 0.784,0.055 C -9.769,9.312 -9.198,7.146 -10.1,5.032 h -0.797 c -0.288,0.319 -0.606,0.671 -0.941,1.041 m -0.787,-7.164 c 0.624,0.919 1.095,1.942 1.634,2.918 -0.176,-2.164 -0.022,-4.379 -1.335,-6.348 -0.167,0.041 -0.4,0.095 -0.615,0.146 -0.386,1.169 -0.404,2.227 0.316,3.284 m -3.553,-10.944 c -0.256,1.014 -0.009,1.812 0.655,2.56 0.617,0.697 1.111,1.5 1.676,2.245 0.118,0.155 0.311,0.253 0.469,0.377 0.069,-0.054 0.139,-0.109 0.208,-0.165 -0.594,-1.853 -0.563,-3.883 -1.707,-5.638 -0.457,0.218 -0.9,0.429 -1.301,0.621 m -1.212,-2.467 c 0.385,-0.07 0.786,-0.144 1.187,-0.22 0.057,-0.067 0.114,-0.135 0.172,-0.204 -0.541,-0.701 -1.083,-1.402 -1.69,-2.187 -0.354,0.468 -0.632,0.836 -0.943,1.247 0.419,0.447 0.824,0.882 1.274,1.364 m 5.428,47.173 c -0.578,2.318 -1.643,4.486 -1.925,6.966 h 1.048 c 0.681,-2.222 1.372,-4.477 2.09,-6.818 -0.457,-0.055 -0.778,-0.094 -1.213,-0.148 m 0.524,-2.634 c 0.375,0.047 0.673,0.084 0.998,0.125 0.519,-2.137 0.649,-4.239 0.515,-6.436 -0.275,-0.018 -0.555,-0.035 -0.869,-0.053 -1.073,2.047 -0.493,4.208 -0.644,6.364 m -8.043,13.942 c 0.137,0.332 0.257,0.617 0.431,1.034 1.465,-1.094 3.321,-1.524 4.459,-3.063 -0.474,-0.274 -0.824,-0.478 -1.235,-0.718 -1.175,0.883 -2.415,1.816 -3.655,2.747 m -5.301,2.137 c 0.018,1.086 0.861,1.929 1.9,1.899 0.928,-0.028 1.87,-0.907 1.839,-1.716 -0.046,-1.231 -0.885,-2.145 -1.93,-2.104 -1.034,0.04 -1.828,0.883 -1.809,1.921 m -5.46,-5.361 c 1,1.293 1.939,2.507 2.969,3.837 0.321,-0.682 0.574,-1.217 0.853,-1.807 -0.804,-0.966 -1.618,-1.944 -2.477,-2.978 -0.463,0.326 -0.874,0.615 -1.345,0.948 m 0.601,-3.108 c -0.529,-2.176 -0.52,-4.456 -1.513,-6.548 -0.117,-0.021 -0.236,-0.046 -0.356,-0.058 -0.101,-0.01 -0.206,-0.002 -0.384,-0.002 -0.225,2.482 1.059,4.603 1.433,6.991 0.349,-0.162 0.553,-0.258 0.82,-0.383 m -2.758,-44.805 c -0.33,0.457 -0.872,0.883 -0.955,1.385 -0.306,1.841 -0.459,3.71 -0.667,5.567 -0.009,0.079 0.014,0.161 0.023,0.242 l 0.161,0.134 c 0.134,-0.137 0.33,-0.247 0.394,-0.41 0.607,-1.568 1.247,-3.124 1.756,-4.724 0.181,-0.569 0.029,-1.245 0.029,-1.805 -0.325,-0.17 -0.488,-0.256 -0.741,-0.389 M -49.92,-20.409 c 2.203,-0.409 4.411,-0.804 6.594,-1.306 0.463,-0.106 0.827,-0.638 1.237,-0.973 -0.045,-0.089 -0.089,-0.179 -0.133,-0.27 -2.74,0.333 -5.479,0.667 -8.282,1.009 -0.102,0.499 -0.189,0.921 -0.304,1.476 0.324,0.028 0.619,0.115 0.888,0.064 m -5.418,5.432 c 0.365,-0.219 0.878,-0.056 1.368,0.36 2.205,1.872 4.417,3.735 6.624,5.604 0.375,0.319 0.741,0.648 1.041,0.911 1.285,-3.867 2.566,-7.72 3.852,-11.589 -0.996,0.185 -2.107,0.388 -3.214,0.602 -1.367,0.265 -2.737,0.519 -4.098,0.816 -1.006,0.219 -1.803,-0.359 -2.749,-0.613 -1.878,0.363 -3.814,0.735 -5.751,1.108 -0.04,0.066 -0.079,0.132 -0.119,0.2 0.991,0.847 1.984,1.693 3.046,2.601 m 6.798,8.008 c 0.043,-0.063 0.086,-0.128 0.129,-0.191 -2.097,-1.84 -4.194,-3.679 -6.34,-5.561 -0.395,0.445 -0.71,0.799 -1.07,1.204 0.175,0.34 0.383,0.743 0.622,1.204 2.223,1.118 4.441,2.232 6.659,3.344 m -7.605,5.848 c 2.712,-0.427 5.421,-0.855 8.165,-1.286 v -1.547 c -0.341,-0.26 -0.719,-0.546 -1.149,-0.87 -2.415,0.991 -4.834,1.984 -7.312,3.002 0.109,0.258 0.189,0.446 0.296,0.701 m 5.138,14.836 c -0.03,-0.063 -0.042,-0.135 -0.082,-0.159 -1.94,-1.217 -3.861,-2.468 -5.841,-3.617 -0.456,-0.264 -1.115,-0.18 -1.78,-0.27 0.06,0.363 0.099,0.597 0.136,0.817 2.384,1.139 4.727,2.259 7.087,3.386 0.15,-0.05 0.307,-0.101 0.48,-0.157 m -6.74,7.939 c 0.252,-0.071 0.483,-0.077 0.634,-0.19 1.943,-1.464 3.875,-2.942 5.808,-4.417 0.124,-0.095 0.242,-0.197 0.362,-0.297 -0.029,-0.035 -0.057,-0.071 -0.085,-0.107 -2.277,1.096 -4.552,2.193 -6.882,3.315 0.051,0.521 0.101,1.05 0.163,1.696 m 8.55,11.651 c 0.629,-0.296 1.246,-0.585 1.886,-0.885 -0.069,-0.225 -0.128,-0.416 -0.204,-0.659 -2.741,-0.401 -5.475,-0.798 -8.21,-1.198 -0.019,0.046 -0.038,0.092 -0.057,0.138 2.192,0.866 4.386,1.734 6.585,2.604 m -3.844,6.933 c 1.53,-1.463 3.023,-2.891 4.516,-4.319 -0.014,-0.05 -0.027,-0.099 -0.04,-0.148 -0.483,0.092 -1.066,0.044 -1.431,0.303 -1.331,0.947 -2.589,1.995 -3.925,3.044 0.324,0.413 0.577,0.736 0.88,1.12 m 9.934,5.406 c -0.985,-3.053 -1.961,-6.081 -2.95,-9.146 -0.825,0.779 -1.695,1.602 -2.564,2.425 -1.225,1.159 -2.448,2.32 -3.671,3.481 -0.439,0.417 -0.933,0.523 -1.587,0.174 -0.88,0.962 -1.72,1.88 -2.6,2.842 1.17,0.084 2.363,0.149 3.551,0.262 0.582,0.054 1.157,0.192 1.706,0.429 2.698,-0.155 5.396,-0.31 8.115,-0.467 m 0.557,2.058 c -2.424,0.154 -4.801,0.306 -7.205,0.458 -0.028,0.218 -0.052,0.397 -0.088,0.665 0.908,0.113 1.785,0.221 2.662,0.326 1.361,0.165 2.72,0.346 4.084,0.483 0.354,0.035 0.721,-0.073 1.218,-0.133 -0.275,-0.736 -0.468,-1.253 -0.671,-1.799 m -2.523,-17.355 c 0.105,0.604 0.215,1.226 0.328,1.869 0.813,0.111 1.345,-0.087 1.509,-0.575 0.167,-0.497 0.159,-1.008 -0.307,-1.357 -0.478,-0.356 -0.987,-0.392 -1.53,0.063 m -1.374,-15.761 v 2.195 c 0.798,-0.039 1.219,-0.429 1.228,-1.079 0.01,-0.66 -0.445,-1.084 -1.228,-1.116 m 2.884,-17.522 c -0.237,-0.544 -0.631,-0.842 -1.318,-0.746 -0.144,0.707 -0.28,1.369 -0.417,2.036 0.494,0.375 0.981,0.332 1.388,-0.012 0.375,-0.319 0.569,-0.766 0.347,-1.278 m -2.163,3.502 c -0.301,3.984 -0.597,7.872 -0.896,11.818 1.689,0.085 2.754,0.835 3.389,2.306 h 6.093 c 0.16,-3.763 0.322,-7.587 0.486,-11.472 -1.885,-1.11 -3.781,-2.226 -5.734,-3.374 -0.954,0.78 -2.013,1.016 -3.338,0.722 m 9.597,19.499 c -0.175,-0.925 -0.378,-2.006 -0.6,-3.19 h -6.581 c -0.553,1.25 -1.566,2.011 -3.152,2.111 0.308,3.03 0.608,6.001 0.922,9.096 1.307,-0.353 2.402,-0.204 3.413,0.611 2.085,-1.283 4.171,-2.565 6.208,-3.819 0.076,-1.597 -0.949,-3.08 -0.21,-4.809 m 3.094,1.377 c -0.365,0.11 -0.756,0.225 -1.149,0.342 0.069,2.387 1.262,4.351 1.935,6.481 0.056,-0.007 0.11,-0.015 0.165,-0.022 0.031,-0.104 0.089,-0.21 0.087,-0.314 -0.026,-1.481 -0.091,-2.96 -0.082,-4.441 0.004,-0.812 -0.293,-1.444 -0.956,-2.046 M -33.43,4.474 c -0.016,-0.707 -0.269,-1.41 -0.417,-2.114 -0.088,0.013 -0.175,0.027 -0.262,0.038 -0.809,2.109 -0.507,4.337 -0.731,6.559 h 1.037 c 0.052,-0.509 0.112,-1.036 0.158,-1.565 0.084,-0.973 0.238,-1.949 0.215,-2.918 m -0.046,7.065 h -1.255 c -0.767,2.689 0.261,5.21 0.612,7.877 0.28,-0.127 0.465,-0.21 0.655,-0.296 0.205,-2.128 0.409,-4.235 0.615,-6.364 -0.198,-0.386 -0.407,-0.79 -0.627,-1.217 m -6.56,34.978 c 0.037,0.668 0.522,1.096 1.203,1.062 0.642,-0.031 1.126,-0.562 1.091,-1.196 -0.033,-0.603 -0.618,-1.124 -1.223,-1.089 -0.614,0.034 -1.106,0.597 -1.071,1.223 m 2.75,-2.975 c 1.61,-1.494 3.241,-3.009 4.946,-4.591 -0.343,-1.242 -0.653,-2.667 -1.134,-4.03 -0.525,-1.489 -0.664,-3 -0.566,-4.543 0.082,-1.297 -0.606,-2.332 -1.012,-3.56 -2.032,1.25 -3.991,2.456 -5.935,3.654 0.061,2.32 -1.024,3.654 -3.245,4.011 0.698,3.294 1.712,6.485 2.931,9.678 1.692,-1.135 2.181,-1.209 4.015,-0.619 M -62.317,26.441 c 0.973,0.114 1.837,0.182 2.687,0.324 0.544,0.089 1.141,0.173 1.591,0.458 1.551,0.978 3.226,1.444 5.039,1.623 1.838,0.179 3.661,0.519 5.521,0.795 -0.408,-3.965 -0.81,-7.885 -1.226,-11.941 -1.499,1.148 -2.848,2.179 -4.196,3.209 -1.175,0.899 -2.336,1.815 -3.537,2.675 -0.255,0.185 -0.658,0.24 -0.987,0.226 -0.45,-0.022 -0.893,-0.166 -1.406,-0.272 -1.145,0.953 -2.273,1.894 -3.486,2.903 m -4.218,2.308 c 2.656,0.633 5.294,1.26 8.006,1.904 0.204,-0.333 0.386,-0.631 0.59,-0.963 -0.774,-0.475 -1.516,-0.87 -2.461,-0.929 -1.801,-0.115 -3.593,-0.365 -5.39,-0.555 -0.223,-0.022 -0.447,-0.025 -0.712,-0.04 -0.012,0.206 -0.02,0.361 -0.033,0.583 m 1.26,-2.582 c 1.597,-1.335 3.153,-2.636 4.709,-3.937 -0.029,-0.045 -0.057,-0.092 -0.085,-0.139 -2.104,0.901 -4.206,1.804 -6.353,2.722 0.076,0.393 0.147,0.753 0.23,1.183 0.504,0.059 1.012,0.116 1.499,0.171 m 0.977,-22.752 c 1.961,1.395 3.863,2.746 5.93,4.217 1.415,-0.31 2.612,0.468 3.83,1.272 1.527,1.009 3.106,1.939 4.657,2.91 0.521,0.327 1.122,0.605 1.133,1.085 -0.003,0.04 -0.006,0.08 -0.009,0.121 0.008,-0.041 0.01,-0.082 0.009,-0.121 0.306,-4.191 0.633,-8.672 0.956,-13.107 -5.598,0.399 -11.01,1.979 -16.506,3.623 m -2.867,0.567 c -0.203,0.15 -0.366,0.269 -0.53,0.389 v 1.763 c 2.244,0.894 4.433,1.768 6.623,2.642 0.04,-0.038 0.079,-0.075 0.118,-0.113 -0.068,-0.142 -0.099,-0.336 -0.211,-0.417 -1.988,-1.426 -3.987,-2.838 -6,-4.264 m 1.026,-2.273 c 2.582,-0.72 5.125,-1.429 7.829,-2.183 -0.38,-0.254 -0.626,-0.418 -0.87,-0.581 -2.36,0.77 -4.683,1.527 -7.051,2.297 0.032,0.16 0.056,0.288 0.092,0.467 m 28.951,-22.598 c -0.127,-0.713 -0.647,-1.099 -1.561,-1.114 -0.333,0.649 -0.682,1.327 -1.038,2.023 0.494,0.707 1.134,0.916 1.808,0.629 0.563,-0.239 0.906,-0.903 0.791,-1.538 m -3.54,3.06 c -1.652,3.888 -2.836,7.868 -3.718,11.944 2.356,0.698 3.017,1.529 3.062,3.864 1.65,0.973 3.328,1.964 5.105,3.014 0.124,-1.063 0.242,-2.048 0.351,-3.031 0.144,-1.305 0.291,-2.608 0.413,-3.914 0.054,-0.583 0.213,-1.107 0.666,-1.496 1.179,-1.016 1.445,-2.481 1.904,-3.848 0.316,-0.941 0.617,-1.731 0.617,-1.731 -1.331,-1.375 -3.133,-3.235 -4.428,-4.572 -1.473,0.735 -2.717,0.549 -3.972,-0.23 m 13.59,2.994 c -0.249,-0.343 -0.478,-0.66 -0.723,-0.998 -0.363,-0.047 -0.73,-0.096 -1.228,-0.161 -0.757,2.16 -1.515,4.326 -2.289,6.541 0.3,0.141 0.466,0.222 0.735,0.349 1.168,-1.911 2.334,-3.817 3.505,-5.731 m 2.107,-1.893 c -0.196,-0.507 -0.379,-0.987 -0.584,-1.524 -0.178,-0.013 -0.4,-0.028 -0.647,-0.047 -0.145,0.183 -0.282,0.356 -0.441,0.556 0.392,0.384 0.746,0.729 1.145,1.119 0.179,-0.034 0.336,-0.065 0.527,-0.104 m -4.6,10.015 c 0.817,1.607 -0.338,2.986 -0.807,4.473 -0.382,1.207 -0.894,2.372 -1.333,3.56 -0.06,0.162 -0.098,0.385 -0.035,0.533 0.855,1.963 0.377,3.975 0.236,5.974 -0.041,0.58 -0.165,1.161 -0.139,1.736 0.021,0.475 0.105,1.001 0.34,1.401 0.547,0.93 0.667,1.868 0.536,2.93 -0.251,2.021 -0.395,4.056 -0.584,6.097 0.045,0.07 0.077,0.151 0.136,0.202 1.099,0.982 1.375,2.214 1.3,3.649 -0.091,1.746 -0.022,3.501 -0.022,4.935 0.962,1.622 1.486,3.042 1.733,4.575 0.249,1.54 0.483,3.085 0.824,4.604 0.104,0.466 0.507,0.883 0.825,1.279 0.808,1.005 1.645,1.988 2.384,2.872 1.089,0.079 2.104,0.151 3.384,0.243 1.415,-1.044 3.082,-2.276 4.786,-3.534 0.598,-1.892 1.161,-3.895 1.874,-5.843 0.534,-1.459 0.735,-2.931 0.675,-4.461 -0.014,-0.375 0.001,-0.751 -0.023,-1.125 -0.098,-1.473 0.089,-2.893 0.633,-4.279 0.189,-0.483 0.209,-1.046 0.235,-1.578 0.138,-2.852 0.256,-5.707 0.372,-8.56 0.009,-0.202 -0.021,-0.413 -0.073,-0.611 -0.511,-1.972 -1.01,-3.949 -1.556,-5.913 -0.189,-0.678 -0.086,-1.207 0.43,-1.693 0.375,-0.356 0.691,-0.772 1.05,-1.178 -0.753,-1.385 -1.415,-2.804 -2.265,-4.103 -0.729,-1.118 -0.782,-2.229 -0.506,-3.446 0.092,-0.404 0.138,-0.819 0.214,-1.287 -0.955,-1.287 -1.878,-2.57 -2.846,-3.819 -0.435,-0.562 -0.622,-1.145 -0.555,-1.849 0.047,-0.494 0.009,-0.996 0.009,-1.732 -0.804,-0.7 -1.762,-1.536 -2.962,-2.582 -0.911,0.151 -2.192,0.364 -3.399,0.565 -1.649,2.698 -3.233,5.286 -4.871,7.965 m 28.527,39.878 c -1.172,0.073 -2.234,-0.053 -3.085,-0.922 -0.851,-0.868 -1.057,-1.898 -0.901,-3.082 -0.908,-0.472 -1.807,-0.937 -2.782,-1.443 -0.177,1.011 -0.38,1.941 -0.495,2.884 -0.381,3.115 -1.3,6.087 -2.314,9.039 -0.121,0.352 -0.19,0.73 -0.357,1.059 -0.212,0.417 -0.498,0.795 -0.79,1.248 0.931,0.674 1.986,1.44 3.079,2.231 1.437,-0.919 2.848,-0.904 4.281,0.267 1.479,-3.656 2.542,-7.391 3.364,-11.281 m 0.359,-3.238 c -0.007,-0.64 -0.507,-1.136 -1.147,-1.139 -0.624,-0.002 -1.151,0.52 -1.154,1.14 -0.003,0.651 0.544,1.193 1.19,1.177 0.633,-0.015 1.117,-0.529 1.111,-1.178 M 0.649,13.976 c 0.009,-0.608 -0.53,-1.181 -1.123,-1.196 -0.609,-0.013 -1.157,0.527 -1.166,1.151 -0.009,0.662 0.472,1.168 1.12,1.176 0.637,0.01 1.161,-0.497 1.169,-1.131 m 0.272,3.036 c -2.536,0.467 -3.626,-0.076 -4.623,-2.255 h -1.75 -1.893 c 0.039,0.773 0.021,1.602 0.139,2.412 0.172,1.184 0.046,2.321 -0.294,3.449 -0.248,0.82 -0.4,1.635 -0.304,2.508 0.081,0.738 0.017,1.492 0.017,2.258 1.292,0.669 2.563,1.327 3.846,1.99 1.244,-0.865 2.527,-0.921 3.982,-0.123 0.298,-3.469 0.586,-6.814 0.88,-10.239 m 1.695,5.451 c -0.406,4.756 -1.154,9.456 -2.329,14.09 -1.611,6.353 -3.881,12.426 -7.562,17.895 -2.186,3.245 -4.785,6.096 -8.227,8.072 -2.032,1.166 -4.214,1.99 -6.547,2.056 -3.912,0.114 -7.83,0.031 -11.746,0.031 v -0.032 c -3.815,0 -7.631,0.022 -11.446,-0.013 -0.973,-0.009 -1.964,-0.108 -2.912,-0.318 -4.255,-0.942 -7.5,-3.479 -10.275,-6.698 -3.22,-3.736 -5.462,-8.057 -7.26,-12.608 -1.801,-4.556 -3.048,-9.282 -3.898,-14.105 -0.85,-4.827 -1.314,-9.693 -1.411,-14.6 -0.158,-7.946 0.479,-15.811 2.281,-23.566 1.419,-6.109 3.45,-11.985 6.666,-17.408 1.852,-3.123 4.038,-5.974 6.872,-8.273 3.089,-2.504 6.567,-3.906 10.622,-3.864 6.503,0.066 13.007,0.023 19.511,0.01 0.531,-0.002 1.062,-0.162 1.596,-0.186 0.636,-0.025 1.284,-0.05 1.908,0.048 0.649,0.102 1.27,0.371 1.911,0.529 3.537,0.873 6.396,2.857 8.886,5.428 2.573,2.657 4.564,5.722 6.223,9.014 0.84,1.668 1.258,2.563 1.946,4.268 1.742,4.319 3.049,8.771 3.835,13.35 0.605,3.523 1.024,7.084 1.396,10.643 0.565,5.408 0.423,10.827 -0.04,16.237"
       style="fill:#ffffff;fill-opacity:1;fill-rule:nonzero;stroke:none"
       transform="matrix(0.35277776,0,0,-0.35277776,116.93701,153.46116)"
       clip-path="url(#clipPath2008)" />
    <path
       id="path2009"
       d="m 0,0 c 1.467,4.199 2.34,8.532 2.813,12.961 0.624,5.847 0.361,11.661 -0.462,17.458 -0.624,4.393 -1.627,8.71 -2.992,12.935 -0.45,1.396 -0.97,2.767 -1.507,4.287 C -2.705,46.888 -3.159,46.273 -3.544,45.753 2.304,29.129 3.311,12.652 -3.839,-3.838 -3.412,-4.481 -2.957,-5.169 -2.388,-6.026 -1.54,-3.902 -0.691,-1.979 0,0"
       style="fill:#ffffff;fill-opacity:1;fill-rule:nonzero;stroke:none"
       transform="matrix(0.35277776,0,0,-0.35277776,109.43167,156.0763)"
       clip-path="url(#clipPath2010)" />
    <path
       id="path2011"
       d="m 0,0 c -0.02,1.792 -0.281,3.593 -0.281,5.379 -0.068,0.705 -0.146,1.407 -0.237,2.108 -0.382,2.957 -0.971,5.879 -1.71,8.773 -0.451,1.766 -1.04,3.499 -1.616,5.407 C -4.959,18.09 -6.017,14.56 -6.659,10.854 -7.314,7.076 -7.656,3.245 -7.687,-0.587 c -0.06,-7.664 1.126,-15.343 3.551,-22.616 0.095,-0.282 0.184,-0.434 0.384,-0.811 C -1.686,-16.077 0.089,-8.257 0,0"
       style="fill:#ffffff;fill-opacity:1;fill-rule:nonzero;stroke:none"
       transform="matrix(0.35277776,0,0,-0.35277776,109.13216,148.60306)"
       clip-path="url(#clipPath2012)" />
  </g>
</svg>
