<?xml version="1.0" encoding="UTF-8" standalone="no"?>
<!-- Created with Inkscape (http://www.inkscape.org/) -->

<svg
   width="295.37988"
   height="146.2388"
   viewBox="0 0 78.152592 38.692349"
   version="1.1"
   id="svg292"
   xml:space="preserve"
   inkscape:version="1.2.1 (9c6d41e410, 2022-07-14)"
   sodipodi:docname="Indian_Road_Sign_I-I-3.svg"
   xmlns:inkscape="http://www.inkscape.org/namespaces/inkscape"
   xmlns:sodipodi="http://sodipodi.sourceforge.net/DTD/sodipodi-0.dtd"
   xmlns="http://www.w3.org/2000/svg"
   xmlns:svg="http://www.w3.org/2000/svg"><sodipodi:namedview
     id="namedview294"
     pagecolor="#505050"
     bordercolor="#eeeeee"
     borderopacity="1"
     inkscape:showpageshadow="0"
     inkscape:pageopacity="0"
     inkscape:pagecheckerboard="0"
     inkscape:deskcolor="#505050"
     inkscape:document-units="mm"
     showgrid="false"
     inkscape:zoom="1.6819304"
     inkscape:cx="239.60563"
     inkscape:cy="53.212665"
     inkscape:window-width="1920"
     inkscape:window-height="991"
     inkscape:window-x="-9"
     inkscape:window-y="-9"
     inkscape:window-maximized="1"
     inkscape:current-layer="layer1"
     showguides="true"><sodipodi:guide
       position="213.44874,15.439728"
       orientation="1,0"
       id="guide2243"
       inkscape:locked="false" /></sodipodi:namedview><defs
     id="defs289" /><g
     inkscape:label="Layer 1"
     inkscape:groupmode="layer"
     id="layer1"
     transform="translate(-95.295132,-27.5112)"><g
       id="g4843"
       transform="matrix(1.3595929,0,0,1.3595929,-76.122967,31.058787)"><rect
         style="opacity:1;fill:#ffffff;stroke:#000000;stroke-width:1.32292;stroke-opacity:1"
         id="rect2849"
         width="56.159428"
         height="27.135857"
         x="126.74192"
         y="-1.9478413" /><path
         id="path3218"
         style="opacity:1;fill:#000000;fill-opacity:1;stroke:none;stroke-width:1.32292;stroke-opacity:1"
         d="m 147.74283,0.3333945 c -2.91502,1.2363196 -2.45946,10.2262035 -3.02824,14.2363405 0.32169,0.889904 0.25339,1.797485 0,2.713529 l -0.0785,2.163176 h 21.59041 v -2.084628 c -0.34065,-0.946966 -0.43553,-1.882072 0,-2.792077 -0.65786,-3.394409 0.27068,-12.9323826 -3.22461,-14.2363405 z m 2.36472,0.64698894 h 10.76213 V 3.3719687 h -10.76213 z m 4.47724,2.94762366 v 6.9246419 h -8.84287 l 0.75034,-6.4238972 z m 1.64073,0 8.09253,0.5007447 0.75086,6.4238972 h -8.84339 z m -8.84339,10.0391809 a 0.97330177,0.97330177 0 0 1 0.83819,0.478007 0.97330177,0.97330177 0 0 1 0.83768,-0.478007 0.97330177,0.97330177 0 0 1 0.97307,0.973067 0.97330177,0.97330177 0 0 1 -0.97307,0.973584 0.97330177,0.97330177 0 0 1 -0.83768,-0.478524 0.97330177,0.97330177 0 0 1 -0.83819,0.478524 0.97330177,0.97330177 0 0 1 -0.97307,-0.973584 0.97330177,0.97330177 0 0 1 0.97307,-0.973067 z m 0.83819,1.468127 a 0.97330177,0.97330177 0 0 0 0.1354,-0.49506 0.97330177,0.97330177 0 0 0 -0.1354,-0.49506 0.97330177,0.97330177 0 0 0 -0.13591,0.49506 0.97330177,0.97330177 0 0 0 0.13591,0.49506 z m 13.79193,-1.468127 a 0.97330177,0.97330177 0 0 1 0.83405,0.483691 0.97330177,0.97330177 0 0 1 0.8413,-0.483691 0.97330177,0.97330177 0 0 1 0.97306,0.973067 0.97330177,0.97330177 0 0 1 -0.97306,0.973584 0.97330177,0.97330177 0 0 1 -0.8382,-0.479041 0.97330177,0.97330177 0 0 1 -0.83715,0.479041 0.97330177,0.97330177 0 0 1 -0.97359,-0.973584 0.97330177,0.97330177 0 0 1 0.97359,-0.973067 z m 0.83715,1.46761 a 0.97330177,0.97330177 0 0 0 0.13591,-0.494543 0.97330177,0.97330177 0 0 0 -0.13901,-0.489376 0.97330177,0.97330177 0 0 0 -0.13177,0.489376 0.97330177,0.97330177 0 0 0 0.13487,0.494543 z" /><rect
         style="opacity:1;fill:#ffffff;fill-opacity:1;stroke:none;stroke-width:1.28152;stroke-opacity:1"
         id="rect3290"
         width="18.267544"
         height="0.4915916"
         x="146.36626"
         y="17.361877" /><rect
         style="opacity:1;fill:#000000;fill-opacity:1;stroke:none;stroke-width:1.32292;stroke-opacity:1"
         id="rect3292"
         width="3.5038865"
         height="2.8364794"
         x="146.40907"
         y="18.694458" /><rect
         style="opacity:1;fill:#000000;fill-opacity:1;stroke:none;stroke-width:1.32292;stroke-opacity:1"
         id="rect3294"
         width="3.5038865"
         height="2.8364794"
         x="160.86955"
         y="18.694458" /><rect
         style="opacity:1;fill:#ffffff;fill-opacity:1;stroke:none;stroke-width:1.32428;stroke-opacity:1"
         id="rect3364"
         width="0.59482586"
         height="0.99013031"
         x="147.9229"
         y="14.445185" /><rect
         style="opacity:1;fill:#ffffff;fill-opacity:1;stroke:none;stroke-width:1.32428;stroke-opacity:1"
         id="rect3366"
         width="0.59482586"
         height="0.99013031"
         x="162.54555"
         y="14.445185" /></g></g></svg>
