<?xml version="1.0" encoding="UTF-8" standalone="no"?>
<!-- Created with Inkscape (http://www.inkscape.org/) -->

<svg
   width="360"
   height="360"
   viewBox="0 0 95.249996 95.25"
   version="1.1"
   id="svg370"
   inkscape:version="1.2.1 (9c6d41e410, 2022-07-14)"
   sodipodi:docname="7.svg"
   xml:space="preserve"
   xmlns:inkscape="http://www.inkscape.org/namespaces/inkscape"
   xmlns:sodipodi="http://sodipodi.sourceforge.net/DTD/sodipodi-0.dtd"
   xmlns="http://www.w3.org/2000/svg"
   xmlns:svg="http://www.w3.org/2000/svg"><sodipodi:namedview
     id="namedview372"
     pagecolor="#505050"
     bordercolor="#eeeeee"
     borderopacity="1"
     inkscape:showpageshadow="0"
     inkscape:pageopacity="0"
     inkscape:pagecheckerboard="0"
     inkscape:deskcolor="#505050"
     inkscape:document-units="mm"
     showgrid="false"
     inkscape:zoom="0.84096521"
     inkscape:cx="48.753503"
     inkscape:cy="-12.485653"
     inkscape:window-width="1920"
     inkscape:window-height="991"
     inkscape:window-x="-9"
     inkscape:window-y="-9"
     inkscape:window-maximized="1"
     inkscape:current-layer="layer1" /><defs
     id="defs367" /><g
     inkscape:label="Layer 1"
     inkscape:groupmode="layer"
     id="layer1"><path
       style="fill:#dc0a14;fill-opacity:1;stroke:none;stroke-width:0.09525"
       d="M 27.898071,95.250003 2.6000006e-5,67.351965 2e-6,27.898094 27.898047,-1.1400003e-5 67.351905,2.9400007e-5 95.249928,27.898053 95.25,67.351925 67.351905,95.250011 Z"
       id="path2113"
       inkscape:connector-curvature="0"
       sodipodi:nodetypes="ccccccccc" /><path
       style="fill:none;fill-opacity:1;stroke:#ffffff;stroke-width:3.175;stroke-dasharray:none;stroke-opacity:1"
       d="M 30.046777,90.062574 5.1874536,65.203256 5.1874324,30.046797 30.046755,5.1874202 l 35.156449,3.68e-5 24.859303,24.859303 6.4e-5,35.15646 -24.859367,24.859358 z"
       id="path1331"
       inkscape:connector-curvature="0"
       sodipodi:nodetypes="ccccccccc" /><path
       d="m 29.585215,47.191144 q -0.929085,0.87188 -1.574288,2.615653 l -2.219486,-3.367269 q -0.02581,2.10454 -1.006512,3.367269 -0.980704,1.262716 -2.503374,1.262716 -0.877473,0 -1.54848,-0.541168 l 6.710077,11.544922 -3.509887,2.826101 -11.04582,-19.722569 3.251807,-2.94636 1.754943,2.94636 q 1.290401,2.164677 2.219489,2.164677 0.748431,0 1.109743,-0.511112 0.38712,-0.541168 0.38712,-1.593437 v -6.914919 h -9.548956 v -4.389481 h 29.679187 v 4.389481 H 25.791441 v 7.39596 q 2.374335,-4.209081 6.606841,-4.209081 2.632415,0 4.41317,2.10454 1.780754,2.074473 1.780754,5.291421 0,5.682258 -4.903523,10.462575 l -3.045344,-3.547657 q 3.509886,-2.886229 3.509886,-6.554138 0,-1.112408 -0.72262,-2.014348 -0.722621,-0.932016 -1.70333,-0.932016 -1.212974,0 -2.14206,0.87188 z"
       id="path292"
       style="font-weight:bold;font-size:56.4246px;line-height:0.95;font-family:Utsaah;-inkscape-font-specification:'Utsaah Bold';fill:#ffffff;stroke-width:1.4262" /><path
       d="m 48.19278,58.164831 q -2.993733,0 -4.903525,-2.435261 -1.909785,-2.435253 -1.909785,-5.982909 0,-3.938497 2.167865,-6.37375 2.167868,-2.465329 5.574529,-2.465329 1.677517,0 2.890493,0.601305 l -0.929084,4.088821 q -0.877473,-0.481037 -1.806557,-0.481037 -1.909796,0 -2.864692,1.142469 -0.954897,1.112396 -0.954897,3.367268 0,1.894081 0.954897,3.156809 0.980708,1.232661 2.554988,1.232661 1.058136,0 2.064645,-0.571237 1.006512,-0.601296 1.961408,-1.773832 V 38.322008 H 39.779369 v -4.389481 h 32.001913 v 4.389481 H 57.122346 v 5.772455 q 1.987217,-2.645712 4.955137,-2.645712 2.735641,0 4.464781,2.074484 1.729133,2.044413 1.729133,5.381613 0,6.764594 -5.161601,11.785431 L 60.064451,57.44327 q 3.716349,-3.697977 3.716349,-8.478298 0,-1.202588 -0.696808,-2.014344 -0.671009,-0.811752 -1.625905,-0.811752 -1.41944,0 -2.503372,0.781684 -1.083937,0.781688 -1.832369,2.345068 V 63.99742 h -4.129281 v -8.057394 q -2.116256,2.224805 -4.800285,2.224805 z"
       id="path294"
       style="font-weight:bold;font-size:56.4246px;line-height:0.95;font-family:Utsaah;-inkscape-font-specification:'Utsaah Bold';fill:#ffffff;stroke-width:1.4262" /><path
       d="M 83.188409,38.322008 H 77.717116 V 63.99742 H 73.587839 V 38.322008 H 69.819874 V 33.932527 H 83.188409 Z M 77.510652,33.932527 H 73.742691 L 62.954951,21.726189 65.690596,18.96022 Z"
       id="path296"
       style="font-weight:bold;font-size:56.4246px;line-height:0.95;font-family:Utsaah;-inkscape-font-specification:'Utsaah Bold';fill:#ffffff;stroke-width:1.4262" /></g></svg>
