<?xml version="1.0" encoding="UTF-8" standalone="no"?>
<svg
   version="1.1"
   x="0px"
   y="0px"
   width="360px"
   height="360px"
   viewBox="797 802 360 360"
   enable-background="new 797 802 360 360"
   xml:space="preserve"
   id="svg3121"
   inkscape:version="1.2.1 (9c6d41e410, 2022-07-14)"
   sodipodi:docname="Indian_Road_Sign_I-II-14.svg"
   xmlns:inkscape="http://www.inkscape.org/namespaces/inkscape"
   xmlns:sodipodi="http://sodipodi.sourceforge.net/DTD/sodipodi-0.dtd"
   xmlns="http://www.w3.org/2000/svg"
   xmlns:svg="http://www.w3.org/2000/svg"
   xmlns:rdf="http://www.w3.org/1999/02/22-rdf-syntax-ns#"
   xmlns:cc="http://creativecommons.org/ns#"
   xmlns:dc="http://purl.org/dc/elements/1.1/"><metadata
   id="metadata3135"><rdf:RDF><cc:Work
       rdf:about=""><dc:format>image/svg+xml</dc:format><dc:type
         rdf:resource="http://purl.org/dc/dcmitype/StillImage" /><dc:title /></cc:Work></rdf:RDF></metadata><defs
   id="defs3133"><inkscape:path-effect
     effect="fillet_chamfer"
     id="path-effect1250"
     is_visible="true"
     lpeversion="1"
     nodesatellites_param="F,0,0,1,0,3.86627,0,1 @ F,0,0,1,0,3.8662696,0,1 @ F,0,0,1,0,3.8662703,0,1 @ F,0,0,1,0,3.8662703,0,1"
     unit="px"
     method="auto"
     mode="F"
     radius="0"
     chamfer_steps="1"
     flexible="false"
     use_knot_distance="true"
     apply_no_radius="true"
     apply_with_radius="true"
     only_selected="false"
     hide_knots="false" /><inkscape:path-effect
     effect="fillet_chamfer"
     id="path-effect2969"
     is_visible="true"
     lpeversion="1"
     nodesatellites_param="F,0,0,1,0,5.0787595,0,1 @ F,0,0,1,0,5.078762,0,1 @ F,0,0,1,0,5.078762,0,1 @ F,0,0,1,0,5.078762,0,1"
     unit="px"
     method="auto"
     mode="F"
     radius="0"
     chamfer_steps="1"
     flexible="false"
     use_knot_distance="true"
     apply_no_radius="true"
     apply_with_radius="true"
     only_selected="false"
     hide_knots="false" /><inkscape:path-effect
     effect="fillet_chamfer"
     id="path-effect2963"
     is_visible="true"
     lpeversion="1"
     nodesatellites_param="F,0,0,1,0,5.0787595,0,1 @ F,0,0,1,0,5.078762,0,1 @ F,0,0,1,0,5.078762,0,1 @ F,0,0,1,0,5.078762,0,1"
     unit="px"
     method="auto"
     mode="F"
     radius="0"
     chamfer_steps="1"
     flexible="false"
     use_knot_distance="true"
     apply_no_radius="true"
     apply_with_radius="true"
     only_selected="false"
     hide_knots="false" /><inkscape:path-effect
     effect="fillet_chamfer"
     id="path-effect2888"
     is_visible="true"
     lpeversion="1"
     nodesatellites_param="F,0,0,1,0,5.0787595,0,1 @ F,0,0,1,0,5.078762,0,1 @ F,0,0,1,0,5.078762,0,1 @ F,0,0,1,0,5.078762,0,1"
     unit="px"
     method="auto"
     mode="F"
     radius="0"
     chamfer_steps="1"
     flexible="false"
     use_knot_distance="true"
     apply_no_radius="true"
     apply_with_radius="true"
     only_selected="false"
     hide_knots="false" /><inkscape:path-effect
     effect="fillet_chamfer"
     id="path-effect1250-3"
     is_visible="true"
     lpeversion="1"
     nodesatellites_param="F,0,0,1,0,3.86627,0,1 @ F,0,0,1,0,3.8662696,0,1 @ F,0,0,1,0,3.8662703,0,1 @ F,0,0,1,0,3.8662703,0,1"
     unit="px"
     method="auto"
     mode="F"
     radius="0"
     chamfer_steps="1"
     flexible="false"
     use_knot_distance="true"
     apply_no_radius="true"
     apply_with_radius="true"
     only_selected="false"
     hide_knots="false" /><inkscape:path-effect
     effect="fillet_chamfer"
     id="path-effect2969-8"
     is_visible="true"
     lpeversion="1"
     nodesatellites_param="F,0,0,1,0,5.0787595,0,1 @ F,0,0,1,0,5.078762,0,1 @ F,0,0,1,0,5.078762,0,1 @ F,0,0,1,0,5.078762,0,1"
     unit="px"
     method="auto"
     mode="F"
     radius="0"
     chamfer_steps="1"
     flexible="false"
     use_knot_distance="true"
     apply_no_radius="true"
     apply_with_radius="true"
     only_selected="false"
     hide_knots="false" /><inkscape:path-effect
     effect="fillet_chamfer"
     id="path-effect2963-9"
     is_visible="true"
     lpeversion="1"
     nodesatellites_param="F,0,0,1,0,5.0787595,0,1 @ F,0,0,1,0,5.078762,0,1 @ F,0,0,1,0,5.078762,0,1 @ F,0,0,1,0,5.078762,0,1"
     unit="px"
     method="auto"
     mode="F"
     radius="0"
     chamfer_steps="1"
     flexible="false"
     use_knot_distance="true"
     apply_no_radius="true"
     apply_with_radius="true"
     only_selected="false"
     hide_knots="false" /><inkscape:path-effect
     effect="fillet_chamfer"
     id="path-effect2888-3"
     is_visible="true"
     lpeversion="1"
     nodesatellites_param="F,0,0,1,0,5.0787595,0,1 @ F,0,0,1,0,5.078762,0,1 @ F,0,0,1,0,5.078762,0,1 @ F,0,0,1,0,5.078762,0,1"
     unit="px"
     method="auto"
     mode="F"
     radius="0"
     chamfer_steps="1"
     flexible="false"
     use_knot_distance="true"
     apply_no_radius="true"
     apply_with_radius="true"
     only_selected="false"
     hide_knots="false" /></defs><sodipodi:namedview
   pagecolor="#ffffff"
   bordercolor="#666666"
   borderopacity="1"
   objecttolerance="10"
   gridtolerance="10"
   guidetolerance="10"
   inkscape:pageopacity="0"
   inkscape:pageshadow="2"
   inkscape:window-width="1920"
   inkscape:window-height="991"
   id="namedview3131"
   showgrid="false"
   inkscape:zoom="1.0449467"
   inkscape:cx="73.209476"
   inkscape:cy="155.51032"
   inkscape:window-x="-9"
   inkscape:window-y="-9"
   inkscape:window-maximized="1"
   inkscape:current-layer="svg3121"
   inkscape:showpageshadow="0"
   inkscape:pagecheckerboard="0"
   inkscape:deskcolor="#d1d1d1"
   showguides="true" />
<g
   id="p1">
	<path
   d="M977.155,1145.256c-89.99,0-163.247-73.214-163.302-163.205v-0.211   c-0.027-43.63,16.935-84.65,47.76-115.514s71.825-47.875,115.445-47.902h0.103c89.99,0,163.249,73.214,163.304,163.206v0.21   c0.026,43.631-16.935,84.65-47.761,115.514c-30.825,30.864-71.824,47.876-115.445,47.902H977.155z"
   id="path3124"
   fill="#fff" /><circle
   style="opacity:1;fill:#ed1e24;fill-opacity:1;fill-rule:nonzero;stroke:none;stroke-width:1.10465;stroke-linecap:square;stroke-linejoin:round;stroke-miterlimit:4;stroke-dasharray:none;stroke-opacity:1;paint-order:stroke fill markers"
   id="path17"
   cx="977"
   cy="982"
   r="180" /><circle
   style="fill:#ffffff;fill-opacity:1;fill-rule:nonzero;stroke:none;stroke-width:0.980674;stroke-linecap:square;stroke-linejoin:round;stroke-miterlimit:4;stroke-dasharray:none;stroke-opacity:1;paint-order:stroke fill markers"
   id="circle821"
   cx="977"
   cy="982"
   r="144.00002"
   inkscape:label="Circle" />
	
</g>


<path
   style="fill:#000000;fill-opacity:1;fill-rule:nonzero;stroke:none;stroke-width:2.99318"
   d="m 951.98336,915.21012 c -3.74783,0.10344 -7.35628,1.73456 -9.92281,4.61926 -3.42481,3.84404 -4.42893,9.27547 -2.60834,14.09193 l -14.68323,36.37782 c -6.59974,-4.01694 -14.15565,-6.1931 -21.8806,-6.30004 v 1.82186 c -19.62943,-0.28344 -36.76563,13.25671 -41.04825,32.43395 -4.28155,19.1782 5.46531,38.7329 23.34852,46.8409 17.88321,8.1073 38.99775,2.5442 50.57474,-13.3265 l 1.47082,1.0685 c 13.84432,-18.9799 10.03655,-45.54851 -8.57832,-59.87032 l 2.51537,-6.23109 45.4512,39.55041 c -2.04481,4.2267 -1.6325,9.2336 1.07449,13.0685 2.70899,3.835 7.28284,5.8929 11.94597,5.3755 l 2.69823,8.8333 h -2.8304 v 4.6074 h 11.73595 v -4.6074 h -4.09106 l -3.10055,-10.1508 c 3.89091,-1.9774 6.51781,-5.7904 6.98141,-10.1331 v 0 l 7.7737,-0.5105 c 2.8109,21.158 21.2013,36.7308 42.5129,35.9967 21.3116,-0.7342 38.5875,-17.5343 39.9375,-38.8361 l 1.8129,0.1353 c 0.7634,-11.94073 -3.4422,-23.6665 -11.6217,-32.3949 -8.1786,-8.72675 -19.6001,-13.67774 -31.5546,-13.67774 -6.7167,0 -13.3454,1.56954 -19.3533,4.57727 l -11.8289,-20.51209 4.3882,-9.86284 12.0088,-5.48068 c 1.7214,-0.78503 2.6668,-2.66259 2.2693,-4.51421 -0.3974,-1.85108 -2.0312,-3.17645 -3.9229,-3.18457 -9.9342,-0.33339 -19.8744,-0.47977 -29.8137,-0.44724 -1.3677,-0.0621 -2.5922,0.84056 -2.9475,2.16408 -0.3546,1.32393 0.2579,2.71703 1.4707,3.35268 5.2129,2.86426 10.5523,5.49131 16.0009,7.87586 l -4.3041,9.67671 h -74.98585 l 5.59778,-13.8668 c -1.92079,-3.19933 -1.72363,-7.24144 0.49821,-10.238 2.22322,-2.99687 6.03284,-4.35685 9.64682,-3.4427 l 0.0339,0.0122 8.11298,2.06502 2.23014,0.56745 1.13459,-4.46623 -2.23014,-0.56745 -8.14603,-2.074 h -0.0153 c -1.24677,-0.3148 -2.51151,-0.45188 -3.76089,-0.41702 z m -14.9623,37.03817 h 74.79674 l -20.92335,47.04209 c -1.39921,-0.29622 -2.83946,-0.35604 -4.25897,-0.18005 l -2.5633,-8.3921 h 3.59877 v -4.61028 h -11.73573 v 4.61028 h 3.32261 l 2.98346,9.76677 c -1.05453,0.5553 -2.02683,1.2507 -2.89049,2.071 l -46.35465,-40.33678 z m 79.38284,1.01452 10.1421,17.58258 c -10.1637,6.52401 -17.1391,17.00427 -19.2455,28.90418 -0.4997,2.82093 -0.7204,5.68153 -0.6544,8.54523 l -5.9429,0.3902 c -0.81613,-3.1615 -2.79808,-5.8965 -5.54657,-7.6537 l 20.73707,-46.62184 z m -113.86974,19.32348 c 6.53811,0.0407 13.13431,1.92792 18.96923,5.81383 l -8.21196,20.34099 c -2.04773,4.14669 -6.37538,6.65899 -10.98841,6.39009 -0.82032,0 -1.57779,0.4333 -1.98994,1.1436 -0.41278,0.7092 -0.41538,1.5838 0,2.2961 0.40893,0.7112 1.1667,1.1527 1.98703,1.1527 6.76463,0.2758 12.98143,-3.7127 15.55656,-9.98 v 0.006 l 7.43773,-18.43197 c 13.99045,12.40405 15.64538,33.67357 3.74277,48.09557 -11.90339,14.4224 -33.08232,16.8101 -47.89156,5.3996 -14.81002,-11.4095 -17.92286,-32.5149 -7.04142,-47.72339 6.80092,-9.50589 17.53899,-14.57011 28.43596,-14.50308 z m 148.18564,0.0122 c 8.9442,0.21374 17.6899,3.88528 24.183,10.64626 10.3897,10.81802 12.6583,27.09325 5.6246,40.34575 -7.0343,13.2511 -21.7775,20.4821 -36.5489,17.9188 -14.7707,-2.5608 -26.226,-14.3347 -28.394,-29.1832 l 30.402,-1.993 c 1.4073,1.8216 3.8836,2.4331 5.9759,1.4737 2.0914,-0.9591 3.2456,-3.2363 2.7853,-5.4928 -0.4599,-2.258 -2.4123,-3.8986 -4.7122,-3.9619 l -15.1844,-26.32289 c 5.0642,-2.44205 10.5022,-3.55903 15.8687,-3.43072 z m -19.8758,5.69982 15.0525,26.09489 -0.6993,1.3746 -29.9759,1.966 c -0.1459,-11.83604 5.7441,-22.93118 15.6227,-29.43549 z"
   id="path19"
   inkscape:connector-curvature="0" /><rect
   transform="matrix(-0.70710678,-0.70710678,-0.70710678,0.70710678,0,0)"
   style="opacity:1;fill:#ed1e24;fill-opacity:1;fill-rule:nonzero;stroke:none;stroke-width:6.47255;stroke-linecap:square;stroke-linejoin:round;stroke-miterlimit:4;stroke-dasharray:none;stroke-opacity:1;paint-order:stroke fill markers"
   id="rect1947"
   width="44.585682"
   height="357.08212"
   x="-1407.515"
   y="-175.00552" /></svg>
