<?xml version="1.0" encoding="UTF-8" standalone="no"?>
<!-- Created with Inkscape (http://www.inkscape.org/) -->

<svg
   width="360"
   height="360"
   viewBox="0 0 95.249996 95.25"
   version="1.1"
   id="svg370"
   inkscape:version="1.2.1 (9c6d41e410, 2022-07-14)"
   sodipodi:docname="1.svg"
   xml:space="preserve"
   xmlns:inkscape="http://www.inkscape.org/namespaces/inkscape"
   xmlns:sodipodi="http://sodipodi.sourceforge.net/DTD/sodipodi-0.dtd"
   xmlns="http://www.w3.org/2000/svg"
   xmlns:svg="http://www.w3.org/2000/svg"><sodipodi:namedview
     id="namedview372"
     pagecolor="#505050"
     bordercolor="#eeeeee"
     borderopacity="1"
     inkscape:showpageshadow="0"
     inkscape:pageopacity="0"
     inkscape:pagecheckerboard="0"
     inkscape:deskcolor="#505050"
     inkscape:document-units="mm"
     showgrid="false"
     inkscape:zoom="0.84096521"
     inkscape:cx="43.997064"
     inkscape:cy="221.76898"
     inkscape:window-width="1920"
     inkscape:window-height="991"
     inkscape:window-x="-9"
     inkscape:window-y="-9"
     inkscape:window-maximized="1"
     inkscape:current-layer="layer1" /><defs
     id="defs367" /><g
     inkscape:label="Layer 1"
     inkscape:groupmode="layer"
     id="layer1"><path
       style="fill:#dc0a14;fill-opacity:1;stroke:none;stroke-width:0.09525"
       d="M 27.898076,95.249991 3.7731448e-5,67.35196 1.4118374e-5,27.898099 27.898051,0 67.351899,4.1978798e-5 95.249916,27.898058 95.249988,67.351919 67.351899,95.25 Z"
       id="path2113"
       inkscape:connector-curvature="0"
       sodipodi:nodetypes="ccccccccc" /><path
       style="fill:none;fill-opacity:1;stroke:#ffffff;stroke-width:3.175;stroke-dasharray:none;stroke-opacity:1"
       d="M 30.046781,90.062563 5.187464,65.203252 5.1874431,30.046801 30.046759,5.1874316 65.2032,5.1874683 90.062496,30.046764 90.06256,65.203216 65.2032,90.062567 Z"
       id="path1331"
       inkscape:connector-curvature="0"
       sodipodi:nodetypes="ccccccccc" /><g
       aria-label="STOP"
       id="text1387"
       style="font-size:72.3388px;line-height:0.95;fill:#ffffff;stroke-width:1.80847"
       transform="matrix(0.4,0,0,0.4,1e-6,0)"><path
         d="m 24.206133,128.0872 10.172644,-0.98901 q 0.918363,5.12164 3.708776,7.52352 2.825734,2.40187 7.594161,2.40187 5.051,0 7.594161,-2.1193 2.578483,-2.15462 2.578483,-5.01568 0,-1.83672 -1.094972,-3.1083 -1.059651,-1.30691 -3.744098,-2.26059 -1.836728,-0.63579 -8.371238,-2.26059 -8.40656,-2.08398 -11.797441,-5.12164 -4.768427,-4.27393 -4.768427,-10.4199 0,-3.95603 2.225266,-7.382229 2.260587,-3.461525 6.463867,-5.26293 4.238602,-1.801406 10.207966,-1.801406 9.748783,0 14.658496,4.273923 4.945035,4.273922 5.192287,11.408902 l -10.455217,0.45918 q -0.671112,-3.99135 -2.896378,-5.72211 -2.189944,-1.76608 -6.605154,-1.76608 -4.556496,0 -7.134979,1.87205 -1.660119,1.20093 -1.660119,3.21427 0,1.83673 1.554154,3.14363 1.978014,1.66012 9.607497,3.46152 7.629483,1.80141 11.267616,3.7441 3.673454,1.90737 5.722112,5.26293 2.083979,3.32024 2.083979,8.22995 0,4.45053 -2.472518,8.33592 -2.472517,3.88538 -6.993692,5.79275 -4.521175,1.87205 -11.267616,1.87205 -9.819427,0 -15.082357,-4.52117 -5.26293,-4.5565 -6.287259,-13.24563 z"
         style="font-weight:bold;font-family:Arial;-inkscape-font-specification:'Arial Bold'"
         id="path1522" /><path
         d="M 86.760826,144.93564 V 101.91383 H 71.395895 v -8.759773 h 41.149755 v 8.759773 H 97.216043 v 43.02181 z"
         style="font-weight:bold;font-family:Arial;-inkscape-font-specification:'Arial Bold'"
         id="path1524" /><path
         d="m 115.86589,119.36274 q 0,-7.91205 2.36655,-13.28095 1.76608,-3.95603 4.80375,-7.099656 3.07298,-3.143629 6.71112,-4.662462 4.83907,-2.048657 11.16165,-2.048657 11.44422,0 18.29663,7.099658 6.88772,7.099657 6.88772,19.744817 0,12.5392 -6.81708,19.63885 -6.81708,7.06434 -18.22599,7.06434 -11.55018,0 -18.36727,-7.02901 -6.81708,-7.06434 -6.81708,-19.42693 z m 10.77311,-0.35321 q 0,8.79509 4.06199,13.35159 4.062,4.52118 10.31393,4.52118 6.25194,0 10.24329,-4.48586 4.02667,-4.52117 4.02667,-13.5282 0,-8.90106 -3.92071,-13.28095 -3.88538,-4.37989 -10.34925,-4.37989 -6.46386,0 -10.41989,4.45053 -3.95603,4.41521 -3.95603,13.3516 z"
         style="font-weight:bold;font-family:Arial;-inkscape-font-specification:'Arial Bold'"
         id="path1526" /><path
         d="M 174.25263,144.93564 V 93.154057 h 16.7778 q 9.53685,0 12.43323,0.777077 4.45053,1.165615 7.45287,5.086322 3.00234,3.885384 3.00234,10.066674 0,4.76843 -1.73076,8.01803 -1.73076,3.24959 -4.41521,5.12164 -2.64912,1.83673 -5.40421,2.43719 -3.7441,0.74176 -10.84376,0.74176 h -6.81708 v 19.53289 z m 10.45522,-43.02181 v 14.69382 h 5.72211 q 6.18129,0 8.26527,-0.8124 2.08398,-0.8124 3.24959,-2.54316 1.20094,-1.73076 1.20094,-4.02667 0,-2.82573 -1.66012,-4.66246 -1.66012,-1.83673 -4.20328,-2.29591 -1.87205,-0.35322 -7.52351,-0.35322 z"
         style="font-weight:bold;font-family:Arial;-inkscape-font-specification:'Arial Bold'"
         id="path1528" /></g></g></svg>
