<?xml version="1.0" encoding="UTF-8" standalone="no"?>
<!-- Created with Inkscape (http://www.inkscape.org/) -->

<svg
   width="220.13857"
   height="86.823059"
   viewBox="0 0 58.244992 22.971934"
   version="1.1"
   id="svg5"
   xml:space="preserve"
   inkscape:version="1.2.1 (9c6d41e410, 2022-07-14)"
   sodipodi:docname="Indian_Road_Sign_parking 1C.svg"
   xmlns:inkscape="http://www.inkscape.org/namespaces/inkscape"
   xmlns:sodipodi="http://sodipodi.sourceforge.net/DTD/sodipodi-0.dtd"
   xmlns="http://www.w3.org/2000/svg"
   xmlns:svg="http://www.w3.org/2000/svg"><sodipodi:namedview
     id="namedview7"
     pagecolor="#505050"
     bordercolor="#eeeeee"
     borderopacity="1"
     inkscape:showpageshadow="0"
     inkscape:pageopacity="0"
     inkscape:pagecheckerboard="0"
     inkscape:deskcolor="#505050"
     inkscape:document-units="mm"
     showgrid="false"
     showguides="true"
     inkscape:zoom="2.0000001"
     inkscape:cx="-9.7499997"
     inkscape:cy="50.249999"
     inkscape:window-width="1920"
     inkscape:window-height="991"
     inkscape:window-x="-9"
     inkscape:window-y="-9"
     inkscape:window-maximized="1"
     inkscape:current-layer="layer1"><sodipodi:guide
       position="88.394486,3.6447189"
       orientation="1,0"
       id="guide2412"
       inkscape:locked="false" /></sodipodi:namedview><defs
     id="defs2"><inkscape:path-effect
       effect="fillet_chamfer"
       id="path-effect1250"
       is_visible="true"
       lpeversion="1"
       nodesatellites_param="F,0,0,1,0,4.4119731,0,1 @ F,0,1,1,0,4.4119731,0,1 @ F,0,1,1,0,4.4119731,0,1 @ F,0,1,1,0,4.4119731,0,1"
       unit="px"
       method="auto"
       mode="F"
       radius="0"
       chamfer_steps="1"
       flexible="false"
       use_knot_distance="true"
       apply_no_radius="true"
       apply_with_radius="true"
       only_selected="false"
       hide_knots="false" /><inkscape:path-effect
       effect="fillet_chamfer"
       id="path-effect2969"
       is_visible="true"
       lpeversion="1"
       nodesatellites_param="F,0,0,1,0,5.0787595,0,1 @ F,0,0,1,0,5.078762,0,1 @ F,0,0,1,0,5.078762,0,1 @ F,0,0,1,0,5.078762,0,1"
       unit="px"
       method="auto"
       mode="F"
       radius="0"
       chamfer_steps="1"
       flexible="false"
       use_knot_distance="true"
       apply_no_radius="true"
       apply_with_radius="true"
       only_selected="false"
       hide_knots="false" /><inkscape:path-effect
       effect="fillet_chamfer"
       id="path-effect2963"
       is_visible="true"
       lpeversion="1"
       nodesatellites_param="F,0,0,1,0,5.0787595,0,1 @ F,0,0,1,0,5.078762,0,1 @ F,0,0,1,0,5.078762,0,1 @ F,0,0,1,0,5.078762,0,1"
       unit="px"
       method="auto"
       mode="F"
       radius="0"
       chamfer_steps="1"
       flexible="false"
       use_knot_distance="true"
       apply_no_radius="true"
       apply_with_radius="true"
       only_selected="false"
       hide_knots="false" /><inkscape:path-effect
       effect="fillet_chamfer"
       id="path-effect2888"
       is_visible="true"
       lpeversion="1"
       nodesatellites_param="F,0,0,1,0,5.0787595,0,1 @ F,0,0,1,0,5.078762,0,1 @ F,0,0,1,0,5.078762,0,1 @ F,0,0,1,0,5.078762,0,1"
       unit="px"
       method="auto"
       mode="F"
       radius="0"
       chamfer_steps="1"
       flexible="false"
       use_knot_distance="true"
       apply_no_radius="true"
       apply_with_radius="true"
       only_selected="false"
       hide_knots="false" /><inkscape:path-effect
       effect="fillet_chamfer"
       id="path-effect1250-3"
       is_visible="true"
       lpeversion="1"
       nodesatellites_param="F,0,0,1,0,3.86627,0,1 @ F,0,0,1,0,3.8662696,0,1 @ F,0,0,1,0,3.8662703,0,1 @ F,0,0,1,0,3.8662703,0,1"
       unit="px"
       method="auto"
       mode="F"
       radius="0"
       chamfer_steps="1"
       flexible="false"
       use_knot_distance="true"
       apply_no_radius="true"
       apply_with_radius="true"
       only_selected="false"
       hide_knots="false" /><inkscape:path-effect
       effect="fillet_chamfer"
       id="path-effect2969-8"
       is_visible="true"
       lpeversion="1"
       nodesatellites_param="F,0,0,1,0,5.0787595,0,1 @ F,0,0,1,0,5.078762,0,1 @ F,0,0,1,0,5.078762,0,1 @ F,0,0,1,0,5.078762,0,1"
       unit="px"
       method="auto"
       mode="F"
       radius="0"
       chamfer_steps="1"
       flexible="false"
       use_knot_distance="true"
       apply_no_radius="true"
       apply_with_radius="true"
       only_selected="false"
       hide_knots="false" /><inkscape:path-effect
       effect="fillet_chamfer"
       id="path-effect2963-9"
       is_visible="true"
       lpeversion="1"
       nodesatellites_param="F,0,0,1,0,5.0787595,0,1 @ F,0,0,1,0,5.078762,0,1 @ F,0,0,1,0,5.078762,0,1 @ F,0,0,1,0,5.078762,0,1"
       unit="px"
       method="auto"
       mode="F"
       radius="0"
       chamfer_steps="1"
       flexible="false"
       use_knot_distance="true"
       apply_no_radius="true"
       apply_with_radius="true"
       only_selected="false"
       hide_knots="false" /><inkscape:path-effect
       effect="fillet_chamfer"
       id="path-effect2888-3"
       is_visible="true"
       lpeversion="1"
       nodesatellites_param="F,0,0,1,0,5.0787595,0,1 @ F,0,0,1,0,5.078762,0,1 @ F,0,0,1,0,5.078762,0,1 @ F,0,0,1,0,5.078762,0,1"
       unit="px"
       method="auto"
       mode="F"
       radius="0"
       chamfer_steps="1"
       flexible="false"
       use_knot_distance="true"
       apply_no_radius="true"
       apply_with_radius="true"
       only_selected="false"
       hide_knots="false" /><inkscape:path-effect
       effect="fillet_chamfer"
       id="path-effect1250-0"
       is_visible="true"
       lpeversion="1"
       nodesatellites_param="F,0,0,1,0,3.86627,0,1 @ F,0,0,1,0,3.8662696,0,1 @ F,0,0,1,0,3.8662703,0,1 @ F,0,0,1,0,3.8662703,0,1"
       unit="px"
       method="auto"
       mode="F"
       radius="0"
       chamfer_steps="1"
       flexible="false"
       use_knot_distance="true"
       apply_no_radius="true"
       apply_with_radius="true"
       only_selected="false"
       hide_knots="false" /><inkscape:path-effect
       effect="fillet_chamfer"
       id="path-effect2969-4"
       is_visible="true"
       lpeversion="1"
       nodesatellites_param="F,0,0,1,0,5.0787595,0,1 @ F,0,0,1,0,5.078762,0,1 @ F,0,0,1,0,5.078762,0,1 @ F,0,0,1,0,5.078762,0,1"
       unit="px"
       method="auto"
       mode="F"
       radius="0"
       chamfer_steps="1"
       flexible="false"
       use_knot_distance="true"
       apply_no_radius="true"
       apply_with_radius="true"
       only_selected="false"
       hide_knots="false" /><inkscape:path-effect
       effect="fillet_chamfer"
       id="path-effect2963-6"
       is_visible="true"
       lpeversion="1"
       nodesatellites_param="F,0,0,1,0,5.0787595,0,1 @ F,0,0,1,0,5.078762,0,1 @ F,0,0,1,0,5.078762,0,1 @ F,0,0,1,0,5.078762,0,1"
       unit="px"
       method="auto"
       mode="F"
       radius="0"
       chamfer_steps="1"
       flexible="false"
       use_knot_distance="true"
       apply_no_radius="true"
       apply_with_radius="true"
       only_selected="false"
       hide_knots="false" /><inkscape:path-effect
       effect="fillet_chamfer"
       id="path-effect2888-7"
       is_visible="true"
       lpeversion="1"
       nodesatellites_param="F,0,0,1,0,5.0787595,0,1 @ F,0,0,1,0,5.078762,0,1 @ F,0,0,1,0,5.078762,0,1 @ F,0,0,1,0,5.078762,0,1"
       unit="px"
       method="auto"
       mode="F"
       radius="0"
       chamfer_steps="1"
       flexible="false"
       use_knot_distance="true"
       apply_no_radius="true"
       apply_with_radius="true"
       only_selected="false"
       hide_knots="false" /><inkscape:path-effect
       effect="fillet_chamfer"
       id="path-effect1250-3-2"
       is_visible="true"
       lpeversion="1"
       nodesatellites_param="F,0,0,1,0,3.86627,0,1 @ F,0,0,1,0,3.8662696,0,1 @ F,0,0,1,0,3.8662703,0,1 @ F,0,0,1,0,3.8662703,0,1"
       unit="px"
       method="auto"
       mode="F"
       radius="0"
       chamfer_steps="1"
       flexible="false"
       use_knot_distance="true"
       apply_no_radius="true"
       apply_with_radius="true"
       only_selected="false"
       hide_knots="false" /><inkscape:path-effect
       effect="fillet_chamfer"
       id="path-effect2969-8-8"
       is_visible="true"
       lpeversion="1"
       nodesatellites_param="F,0,0,1,0,5.0787595,0,1 @ F,0,0,1,0,5.078762,0,1 @ F,0,0,1,0,5.078762,0,1 @ F,0,0,1,0,5.078762,0,1"
       unit="px"
       method="auto"
       mode="F"
       radius="0"
       chamfer_steps="1"
       flexible="false"
       use_knot_distance="true"
       apply_no_radius="true"
       apply_with_radius="true"
       only_selected="false"
       hide_knots="false" /><inkscape:path-effect
       effect="fillet_chamfer"
       id="path-effect2963-9-4"
       is_visible="true"
       lpeversion="1"
       nodesatellites_param="F,0,0,1,0,5.0787595,0,1 @ F,0,0,1,0,5.078762,0,1 @ F,0,0,1,0,5.078762,0,1 @ F,0,0,1,0,5.078762,0,1"
       unit="px"
       method="auto"
       mode="F"
       radius="0"
       chamfer_steps="1"
       flexible="false"
       use_knot_distance="true"
       apply_no_radius="true"
       apply_with_radius="true"
       only_selected="false"
       hide_knots="false" /><inkscape:path-effect
       effect="fillet_chamfer"
       id="path-effect2888-3-9"
       is_visible="true"
       lpeversion="1"
       nodesatellites_param="F,0,0,1,0,5.0787595,0,1 @ F,0,0,1,0,5.078762,0,1 @ F,0,0,1,0,5.078762,0,1 @ F,0,0,1,0,5.078762,0,1"
       unit="px"
       method="auto"
       mode="F"
       radius="0"
       chamfer_steps="1"
       flexible="false"
       use_knot_distance="true"
       apply_no_radius="true"
       apply_with_radius="true"
       only_selected="false"
       hide_knots="false" /></defs><g
     inkscape:label="Sign"
     inkscape:groupmode="layer"
     id="layer1"
     transform="translate(0.13677423,0.12795649)"><g
       id="g329"
       inkscape:label="BG"><rect
         style="fill:#000000;fill-opacity:1;stroke:none;stroke-width:0.480467"
         id="rect629"
         width="58.244995"
         height="22.971935"
         x="-0.13677423"
         y="-0.12795649" /><path
         id="rect1394"
         style="fill:#ffcb00;fill-opacity:1;stroke-width:0.445888"
         d="M 1.0935178,1.0763653 H 56.877934 V 21.733203 H 1.0935178 Z" /></g><g
       inkscape:label="No Parking"
       id="layer1-6"
       transform="matrix(0.10419182,0,0,0.10419182,24.023588,2.3225855)"><circle
         style="opacity:1;fill:#ed1e24;fill-opacity:1;fill-rule:nonzero;stroke:none;stroke-width:0.292273;stroke-linecap:square;stroke-linejoin:round;stroke-miterlimit:4;stroke-dasharray:none;stroke-opacity:1;paint-order:stroke fill markers"
         id="path17"
         cx="47.625"
         cy="47.625"
         r="47.625" /><circle
         style="fill:#008ad8;fill-opacity:1;fill-rule:nonzero;stroke:none;stroke-width:0.25947;stroke-linecap:square;stroke-linejoin:round;stroke-miterlimit:4;stroke-dasharray:none;stroke-opacity:1;paint-order:stroke fill markers"
         id="circle821"
         cx="47.625"
         cy="47.625"
         r="38.100002"
         inkscape:label="Circle" /><rect
         transform="matrix(-0.70710678,-0.70710678,-0.70710678,0.70710678,0,0)"
         style="opacity:1;fill:#ed1e24;fill-opacity:1;fill-rule:nonzero;stroke:none;stroke-width:1.71253;stroke-linecap:square;stroke-linejoin:round;stroke-miterlimit:4;stroke-dasharray:none;stroke-opacity:1;paint-order:stroke fill markers"
         id="rect1947"
         width="11.796628"
         height="94.477974"
         x="-73.250237"
         y="-47.238987" /></g><g
       aria-label="8 am - 6 pm"
       id="text9777"
       style="font-size:8.78554px;line-height:0.95;stroke-width:0.219638"
       inkscape:label="Text"><path
         d="M 6.3312167,15.798823 Q 5.8636269,15.601492 5.6491362,15.258307 5.4389353,14.910832 5.4389353,14.499009 q 0,-0.703529 0.4890389,-1.162539 0.4933286,-0.45901 1.3984794,-0.45901 0.8965712,0 1.3898998,0.45901 0.4976185,0.45901 0.4976185,1.162539 0,0.437561 -0.2273602,0.780747 -0.2273601,0.338895 -0.6391823,0.519067 0.5233573,0.210201 0.7936156,0.613444 0.2745482,0.403242 0.2745482,0.930889 0,0.870833 -0.5576759,1.415639 -0.553386,0.544806 -1.4756961,0.544806 -0.8579629,0 -1.4285082,-0.45043 -0.6735008,-0.531937 -0.6735008,-1.458537 0,-0.510488 0.253099,-0.935179 0.2530991,-0.428982 0.7979055,-0.660632 z m 0.2488092,-1.214017 q 0,0.360344 0.2016213,0.561965 0.2059111,0.201622 0.5448064,0.201622 0.3431852,0 0.5490962,-0.201622 0.2059111,-0.205911 0.2059111,-0.566255 0,-0.338895 -0.2059111,-0.540517 -0.2016212,-0.205911 -0.5362267,-0.205911 -0.347475,0 -0.5533861,0.205911 -0.2059111,0.205911 -0.2059111,0.544807 z m -0.1115351,2.694003 q 0,0.497618 0.253099,0.776456 0.2573889,0.278838 0.6391823,0.278838 0.3732139,0 0.6177333,-0.265968 0.2445194,-0.270258 0.2445194,-0.776457 0,-0.44185 -0.2488092,-0.707819 -0.2488093,-0.270258 -0.6306027,-0.270258 -0.4418509,0 -0.6606314,0.304577 -0.2144907,0.304576 -0.2144907,0.660631 z"
         style="font-weight:bold;font-family:Arial;-inkscape-font-specification:'Arial Bold'"
         id="path312" /><path
         d="m 13.782624,16.026183 -1.093903,-0.197331 q 0.184462,-0.660632 0.634893,-0.978078 0.45043,-0.317446 1.338422,-0.317446 0.806485,0 1.201148,0.193042 0.394663,0.188751 0.553386,0.484749 0.163013,0.291707 0.163013,1.076743 l -0.01287,1.407059 q 0,0.600574 0.05577,0.887992 0.06006,0.283127 0.21878,0.609153 h -1.192568 q -0.04719,-0.120115 -0.115825,-0.356054 -0.03003,-0.107246 -0.0429,-0.141564 -0.308867,0.300287 -0.660631,0.45043 -0.351765,0.150144 -0.750718,0.150144 -0.70353,0 -1.111062,-0.381794 -0.403242,-0.381793 -0.403242,-0.965208 0,-0.386083 0.184462,-0.68637 0.184462,-0.304577 0.514777,-0.4633 0.334606,-0.163013 0.960919,-0.283128 0.845093,-0.158723 1.171119,-0.295997 V 16.09911 q 0,-0.347475 -0.171593,-0.493329 -0.171592,-0.150143 -0.647762,-0.150143 -0.321736,0 -0.501908,0.128694 -0.180172,0.124405 -0.291707,0.441851 z m 1.61297,0.978078 q -0.23165,0.07722 -0.733558,0.184462 -0.501909,0.107245 -0.656342,0.210201 -0.23594,0.167303 -0.23594,0.424691 0,0.253099 0.188752,0.437561 0.188752,0.184463 0.480459,0.184463 0.326026,0 0.622023,-0.214491 0.218781,-0.163013 0.287418,-0.398953 0.04719,-0.154433 0.04719,-0.587704 z"
         style="font-weight:bold;font-family:Arial;-inkscape-font-specification:'Arial Bold'"
         id="path314" /><path
         d="m 17.677776,14.636283 h 1.111062 v 0.622024 q 0.596284,-0.724979 1.419928,-0.724979 0.437561,0 0.759297,0.180172 0.321736,0.180172 0.527647,0.544807 0.300287,-0.364635 0.647762,-0.544807 0.347475,-0.180172 0.742138,-0.180172 0.501908,0 0.849383,0.205911 0.347475,0.201621 0.519068,0.596284 0.124404,0.291708 0.124404,0.943759 v 2.912784 h -1.205437 v -2.603917 q 0,-0.677791 -0.124405,-0.875122 -0.167303,-0.257389 -0.514778,-0.257389 -0.253099,0 -0.476169,0.154433 -0.22307,0.154434 -0.321736,0.454721 -0.09867,0.295997 -0.09867,0.939469 v 2.187805 h -1.205438 v -2.496672 q 0,-0.664921 -0.06435,-0.857963 -0.06435,-0.193041 -0.201621,-0.287417 -0.132984,-0.09438 -0.364634,-0.09438 -0.278838,0 -0.501909,0.150143 -0.22307,0.150144 -0.321736,0.433272 -0.09438,0.283127 -0.09438,0.939469 v 2.213544 h -1.205437 z"
         style="font-weight:bold;font-family:Arial;-inkscape-font-specification:'Arial Bold'"
         id="path316" /><path
         d="m 27.883244,17.514749 v -1.205438 h 2.367977 v 1.205438 z"
         style="font-weight:bold;font-family:Arial;-inkscape-font-specification:'Arial Bold'"
         id="path318" /><path
         d="m 37.21359,14.443242 -1.166829,0.128694 q -0.0429,-0.360344 -0.223071,-0.531937 -0.180172,-0.171592 -0.467589,-0.171592 -0.381794,0 -0.647762,0.343185 -0.261679,0.343185 -0.330316,1.428508 0.45043,-0.531937 1.119641,-0.531937 0.755008,0 1.291234,0.574835 0.540517,0.574835 0.540517,1.484276 0,0.965208 -0.566255,1.548623 -0.566256,0.583415 -1.454247,0.583415 -0.952339,0 -1.565783,-0.737849 -0.613443,-0.742137 -0.613443,-2.428034 0,-1.728796 0.639182,-2.492382 0.639183,-0.763587 1.660158,-0.763587 0.716399,0 1.183989,0.403242 0.47188,0.398953 0.600574,1.16254 z m -2.732612,2.629656 q 0,0.587704 0.270259,0.909441 0.270258,0.317446 0.617733,0.317446 0.334605,0 0.557676,-0.261679 0.22307,-0.261679 0.22307,-0.857963 0,-0.613443 -0.240229,-0.896571 -0.24023,-0.287417 -0.600574,-0.287417 -0.347475,0 -0.587705,0.274548 -0.24023,0.270258 -0.24023,0.802195 z"
         style="font-weight:bold;font-family:Arial;-inkscape-font-specification:'Arial Bold'"
         id="path320" /><path
         d="m 40.679759,14.636283 h 1.123931 v 0.669211 q 0.218781,-0.343185 0.591995,-0.557675 0.373213,-0.214491 0.827934,-0.214491 0.793615,0 1.347001,0.622023 0.553386,0.622023 0.553386,1.733085 0,1.141091 -0.557675,1.775983 -0.557676,0.630603 -1.351292,0.630603 -0.377504,0 -0.68637,-0.150144 -0.304577,-0.150143 -0.643472,-0.514777 v 2.29505 h -1.205438 z m 1.192568,2.200675 q 0,0.767877 0.304577,1.136801 0.304577,0.364634 0.742138,0.364634 0.420402,0 0.69924,-0.334605 0.278838,-0.338896 0.278838,-1.106772 0,-0.716399 -0.287418,-1.063874 -0.287418,-0.347475 -0.712109,-0.347475 -0.441851,0 -0.733558,0.343185 -0.291708,0.338895 -0.291708,1.008106 z"
         style="font-weight:bold;font-family:Arial;-inkscape-font-specification:'Arial Bold'"
         id="path322" /><path
         d="m 45.990549,14.636283 h 1.111062 v 0.622024 q 0.596284,-0.724979 1.419929,-0.724979 0.437561,0 0.759297,0.180172 0.321736,0.180172 0.527647,0.544807 0.300287,-0.364635 0.647762,-0.544807 0.347475,-0.180172 0.742138,-0.180172 0.501908,0 0.849383,0.205911 0.347475,0.201621 0.519068,0.596284 0.124404,0.291708 0.124404,0.943759 v 2.912784 h -1.205438 v -2.603917 q 0,-0.677791 -0.124404,-0.875122 -0.167303,-0.257389 -0.514778,-0.257389 -0.253099,0 -0.476169,0.154433 -0.223071,0.154434 -0.321736,0.454721 -0.09867,0.295997 -0.09867,0.939469 v 2.187805 H 48.74461 v -2.496672 q 0,-0.664921 -0.06435,-0.857963 -0.06435,-0.193041 -0.201621,-0.287417 -0.132985,-0.09438 -0.364635,-0.09438 -0.278838,0 -0.501908,0.150143 -0.22307,0.150144 -0.321736,0.433272 -0.09438,0.283127 -0.09438,0.939469 v 2.213544 h -1.205438 z"
         style="font-weight:bold;font-family:Arial;-inkscape-font-specification:'Arial Bold'"
         id="path324" /></g></g></svg>
