<?xml version="1.0" encoding="utf-8"?>
<!-- Generator: Adobe Illustrator 15.0.2, SVG Export Plug-In . SVG Version: 6.00 Build 0)  -->
<!DOCTYPE svg PUBLIC "-//W3C//DTD SVG 1.1//EN" "http://www.w3.org/Graphics/SVG/1.1/DTD/svg11.dtd">
<svg version="1.1" xmlns="http://www.w3.org/2000/svg" xmlns:xlink="http://www.w3.org/1999/xlink" x="0px" y="0px" width="360px"
	 height="360px" viewBox="0 0 360 360" enable-background="new 0 0 360 360" xml:space="preserve">
<g id="L1">
	<g id="sign">
		<circle fill="#008AD8" cx="180" cy="180" r="180"/>
	</g>
</g>
<g id="horn">
	<path fill="#fff" d="M283.969,165.517c-12.971,0-23.838,8.983-26.735,21.067c-7.052,0-19.721,0-20.833,0
		c-4.629-13.86-4.612-22.941-22.975-23.859c-18.36-0.918-94.696-9.168-103.02-9.745c-49.669-3.444-38.215-32.25-51.51-32.113
		c-15.489,0.161-15.288,90.833,0,90.961c13.174,0.11,2.514-31.907,51.578-35.06c45.674-4.36,96.25-2.19,103.055-1.606
		c-0.104,7.911-0.104,9.201-0.104,12.874c-3.672-0.23-65.539-0.228-69.212-0.124c-9.64,0-13.542,34.989,2.065,34.989
		c0,0,63.924-0.003,67.147-0.025c18.346-0.129,18.385-4.001,22.975-23.511c8.271,0.207,17.703-0.056,20.83,0.073
		c2.893,12.089,13.763,21.078,26.738,21.078c15.188,0,27.5-12.312,27.5-27.499C311.469,177.829,299.156,165.517,283.969,165.517z
		 M208.525,208.924c0,2.762-2.238,7-5,7h-48.194c-2.762,0-5-4.238-5-7v-5.854c0-2.762,2.238-7,5-7h48.194c2.762,0,5,4.238,5,7
		V208.924z"/>
</g>
</svg>
