<?xml version="1.0" encoding="UTF-8" standalone="no"?>
<!-- Created with Inkscape (http://www.inkscape.org/) -->

<svg
   width="276"
   height="189"
   viewBox="0 0 73.024998 50.00625"
   version="1.1"
   id="svg5"
   xml:space="preserve"
   inkscape:version="1.2.1 (9c6d41e410, 2022-07-14)"
   sodipodi:docname="Indian_Road_Sign_parking 1A.svg"
   xmlns:inkscape="http://www.inkscape.org/namespaces/inkscape"
   xmlns:sodipodi="http://sodipodi.sourceforge.net/DTD/sodipodi-0.dtd"
   xmlns="http://www.w3.org/2000/svg"
   xmlns:svg="http://www.w3.org/2000/svg"><sodipodi:namedview
     id="namedview7"
     pagecolor="#505050"
     bordercolor="#eeeeee"
     borderopacity="1"
     inkscape:showpageshadow="0"
     inkscape:pageopacity="0"
     inkscape:pagecheckerboard="0"
     inkscape:deskcolor="#505050"
     inkscape:document-units="mm"
     showgrid="false"
     showguides="true"
     inkscape:zoom="2.8284271"
     inkscape:cx="121.09204"
     inkscape:cy="87.150911"
     inkscape:window-width="1920"
     inkscape:window-height="991"
     inkscape:window-x="-9"
     inkscape:window-y="-9"
     inkscape:window-maximized="1"
     inkscape:current-layer="layer1"><sodipodi:guide
       position="88.394488,30.679034"
       orientation="1,0"
       id="guide2412"
       inkscape:locked="false" /></sodipodi:namedview><defs
     id="defs2"><inkscape:path-effect
       effect="fillet_chamfer"
       id="path-effect1250"
       is_visible="true"
       lpeversion="1"
       nodesatellites_param="F,0,0,1,0,4.4119731,0,1 @ F,0,1,1,0,4.4119731,0,1 @ F,0,1,1,0,4.4119731,0,1 @ F,0,1,1,0,4.4119731,0,1"
       unit="px"
       method="auto"
       mode="F"
       radius="0"
       chamfer_steps="1"
       flexible="false"
       use_knot_distance="true"
       apply_no_radius="true"
       apply_with_radius="true"
       only_selected="false"
       hide_knots="false" /><inkscape:path-effect
       effect="fillet_chamfer"
       id="path-effect2969"
       is_visible="true"
       lpeversion="1"
       nodesatellites_param="F,0,0,1,0,5.0787595,0,1 @ F,0,0,1,0,5.078762,0,1 @ F,0,0,1,0,5.078762,0,1 @ F,0,0,1,0,5.078762,0,1"
       unit="px"
       method="auto"
       mode="F"
       radius="0"
       chamfer_steps="1"
       flexible="false"
       use_knot_distance="true"
       apply_no_radius="true"
       apply_with_radius="true"
       only_selected="false"
       hide_knots="false" /><inkscape:path-effect
       effect="fillet_chamfer"
       id="path-effect2963"
       is_visible="true"
       lpeversion="1"
       nodesatellites_param="F,0,0,1,0,5.0787595,0,1 @ F,0,0,1,0,5.078762,0,1 @ F,0,0,1,0,5.078762,0,1 @ F,0,0,1,0,5.078762,0,1"
       unit="px"
       method="auto"
       mode="F"
       radius="0"
       chamfer_steps="1"
       flexible="false"
       use_knot_distance="true"
       apply_no_radius="true"
       apply_with_radius="true"
       only_selected="false"
       hide_knots="false" /><inkscape:path-effect
       effect="fillet_chamfer"
       id="path-effect2888"
       is_visible="true"
       lpeversion="1"
       nodesatellites_param="F,0,0,1,0,5.0787595,0,1 @ F,0,0,1,0,5.078762,0,1 @ F,0,0,1,0,5.078762,0,1 @ F,0,0,1,0,5.078762,0,1"
       unit="px"
       method="auto"
       mode="F"
       radius="0"
       chamfer_steps="1"
       flexible="false"
       use_knot_distance="true"
       apply_no_radius="true"
       apply_with_radius="true"
       only_selected="false"
       hide_knots="false" /><inkscape:path-effect
       effect="fillet_chamfer"
       id="path-effect1250-3"
       is_visible="true"
       lpeversion="1"
       nodesatellites_param="F,0,0,1,0,3.86627,0,1 @ F,0,0,1,0,3.8662696,0,1 @ F,0,0,1,0,3.8662703,0,1 @ F,0,0,1,0,3.8662703,0,1"
       unit="px"
       method="auto"
       mode="F"
       radius="0"
       chamfer_steps="1"
       flexible="false"
       use_knot_distance="true"
       apply_no_radius="true"
       apply_with_radius="true"
       only_selected="false"
       hide_knots="false" /><inkscape:path-effect
       effect="fillet_chamfer"
       id="path-effect2969-8"
       is_visible="true"
       lpeversion="1"
       nodesatellites_param="F,0,0,1,0,5.0787595,0,1 @ F,0,0,1,0,5.078762,0,1 @ F,0,0,1,0,5.078762,0,1 @ F,0,0,1,0,5.078762,0,1"
       unit="px"
       method="auto"
       mode="F"
       radius="0"
       chamfer_steps="1"
       flexible="false"
       use_knot_distance="true"
       apply_no_radius="true"
       apply_with_radius="true"
       only_selected="false"
       hide_knots="false" /><inkscape:path-effect
       effect="fillet_chamfer"
       id="path-effect2963-9"
       is_visible="true"
       lpeversion="1"
       nodesatellites_param="F,0,0,1,0,5.0787595,0,1 @ F,0,0,1,0,5.078762,0,1 @ F,0,0,1,0,5.078762,0,1 @ F,0,0,1,0,5.078762,0,1"
       unit="px"
       method="auto"
       mode="F"
       radius="0"
       chamfer_steps="1"
       flexible="false"
       use_knot_distance="true"
       apply_no_radius="true"
       apply_with_radius="true"
       only_selected="false"
       hide_knots="false" /><inkscape:path-effect
       effect="fillet_chamfer"
       id="path-effect2888-3"
       is_visible="true"
       lpeversion="1"
       nodesatellites_param="F,0,0,1,0,5.0787595,0,1 @ F,0,0,1,0,5.078762,0,1 @ F,0,0,1,0,5.078762,0,1 @ F,0,0,1,0,5.078762,0,1"
       unit="px"
       method="auto"
       mode="F"
       radius="0"
       chamfer_steps="1"
       flexible="false"
       use_knot_distance="true"
       apply_no_radius="true"
       apply_with_radius="true"
       only_selected="false"
       hide_knots="false" /><inkscape:path-effect
       effect="fillet_chamfer"
       id="path-effect1250-0"
       is_visible="true"
       lpeversion="1"
       nodesatellites_param="F,0,0,1,0,3.86627,0,1 @ F,0,0,1,0,3.8662696,0,1 @ F,0,0,1,0,3.8662703,0,1 @ F,0,0,1,0,3.8662703,0,1"
       unit="px"
       method="auto"
       mode="F"
       radius="0"
       chamfer_steps="1"
       flexible="false"
       use_knot_distance="true"
       apply_no_radius="true"
       apply_with_radius="true"
       only_selected="false"
       hide_knots="false" /><inkscape:path-effect
       effect="fillet_chamfer"
       id="path-effect2969-4"
       is_visible="true"
       lpeversion="1"
       nodesatellites_param="F,0,0,1,0,5.0787595,0,1 @ F,0,0,1,0,5.078762,0,1 @ F,0,0,1,0,5.078762,0,1 @ F,0,0,1,0,5.078762,0,1"
       unit="px"
       method="auto"
       mode="F"
       radius="0"
       chamfer_steps="1"
       flexible="false"
       use_knot_distance="true"
       apply_no_radius="true"
       apply_with_radius="true"
       only_selected="false"
       hide_knots="false" /><inkscape:path-effect
       effect="fillet_chamfer"
       id="path-effect2963-6"
       is_visible="true"
       lpeversion="1"
       nodesatellites_param="F,0,0,1,0,5.0787595,0,1 @ F,0,0,1,0,5.078762,0,1 @ F,0,0,1,0,5.078762,0,1 @ F,0,0,1,0,5.078762,0,1"
       unit="px"
       method="auto"
       mode="F"
       radius="0"
       chamfer_steps="1"
       flexible="false"
       use_knot_distance="true"
       apply_no_radius="true"
       apply_with_radius="true"
       only_selected="false"
       hide_knots="false" /><inkscape:path-effect
       effect="fillet_chamfer"
       id="path-effect2888-7"
       is_visible="true"
       lpeversion="1"
       nodesatellites_param="F,0,0,1,0,5.0787595,0,1 @ F,0,0,1,0,5.078762,0,1 @ F,0,0,1,0,5.078762,0,1 @ F,0,0,1,0,5.078762,0,1"
       unit="px"
       method="auto"
       mode="F"
       radius="0"
       chamfer_steps="1"
       flexible="false"
       use_knot_distance="true"
       apply_no_radius="true"
       apply_with_radius="true"
       only_selected="false"
       hide_knots="false" /><inkscape:path-effect
       effect="fillet_chamfer"
       id="path-effect1250-3-2"
       is_visible="true"
       lpeversion="1"
       nodesatellites_param="F,0,0,1,0,3.86627,0,1 @ F,0,0,1,0,3.8662696,0,1 @ F,0,0,1,0,3.8662703,0,1 @ F,0,0,1,0,3.8662703,0,1"
       unit="px"
       method="auto"
       mode="F"
       radius="0"
       chamfer_steps="1"
       flexible="false"
       use_knot_distance="true"
       apply_no_radius="true"
       apply_with_radius="true"
       only_selected="false"
       hide_knots="false" /><inkscape:path-effect
       effect="fillet_chamfer"
       id="path-effect2969-8-8"
       is_visible="true"
       lpeversion="1"
       nodesatellites_param="F,0,0,1,0,5.0787595,0,1 @ F,0,0,1,0,5.078762,0,1 @ F,0,0,1,0,5.078762,0,1 @ F,0,0,1,0,5.078762,0,1"
       unit="px"
       method="auto"
       mode="F"
       radius="0"
       chamfer_steps="1"
       flexible="false"
       use_knot_distance="true"
       apply_no_radius="true"
       apply_with_radius="true"
       only_selected="false"
       hide_knots="false" /><inkscape:path-effect
       effect="fillet_chamfer"
       id="path-effect2963-9-4"
       is_visible="true"
       lpeversion="1"
       nodesatellites_param="F,0,0,1,0,5.0787595,0,1 @ F,0,0,1,0,5.078762,0,1 @ F,0,0,1,0,5.078762,0,1 @ F,0,0,1,0,5.078762,0,1"
       unit="px"
       method="auto"
       mode="F"
       radius="0"
       chamfer_steps="1"
       flexible="false"
       use_knot_distance="true"
       apply_no_radius="true"
       apply_with_radius="true"
       only_selected="false"
       hide_knots="false" /><inkscape:path-effect
       effect="fillet_chamfer"
       id="path-effect2888-3-9"
       is_visible="true"
       lpeversion="1"
       nodesatellites_param="F,0,0,1,0,5.0787595,0,1 @ F,0,0,1,0,5.078762,0,1 @ F,0,0,1,0,5.078762,0,1 @ F,0,0,1,0,5.078762,0,1"
       unit="px"
       method="auto"
       mode="F"
       radius="0"
       chamfer_steps="1"
       flexible="false"
       use_knot_distance="true"
       apply_no_radius="true"
       apply_with_radius="true"
       only_selected="false"
       hide_knots="false" /></defs><g
     inkscape:label="Sign"
     inkscape:groupmode="layer"
     id="layer1"
     transform="translate(0.13677423,0.12795649)"><g
       id="g347"><rect
         style="fill:#000000;fill-opacity:1;stroke:none;stroke-width:0.79375"
         id="rect629"
         width="73.025002"
         height="50.006248"
         x="-0.13677423"
         y="-0.12795649" /><path
         id="rect1394"
         style="fill:#ffcb00;fill-opacity:1;stroke-width:0.761241"
         d="M 1.0935178,1.0763653 H 71.657939 V 48.673971 H 1.0935178 Z" /><path
         id="rect5081"
         style="stroke:#000000;stroke-width:0.79375"
         d="M 1.0935179,34.951168 H 36.375725 V 48.673969 H 1.0935179 Z" /><path
         id="rect5291"
         style="fill:#ffffff;stroke:#000000;stroke-width:0.79375"
         d="M 36.375725,34.951168 H 71.657932 V 48.673969 H 36.375725 Z" /></g><g
       inkscape:label="No Parking"
       id="layer1-6"
       transform="matrix(0.1336546,0,0,0.1336546,30.010428,3.0670679)"><circle
         style="opacity:1;fill:#ed1e24;fill-opacity:1;fill-rule:nonzero;stroke:none;stroke-width:0.292273;stroke-linecap:square;stroke-linejoin:round;stroke-miterlimit:4;stroke-dasharray:none;stroke-opacity:1;paint-order:stroke fill markers"
         id="path17"
         cx="47.625"
         cy="47.625"
         r="47.625" /><circle
         style="fill:#008ad8;fill-opacity:1;fill-rule:nonzero;stroke:none;stroke-width:0.25947;stroke-linecap:square;stroke-linejoin:round;stroke-miterlimit:4;stroke-dasharray:none;stroke-opacity:1;paint-order:stroke fill markers"
         id="circle821"
         cx="47.625"
         cy="47.625"
         r="38.100002"
         inkscape:label="Circle" /><rect
         transform="matrix(-0.70710678,-0.70710678,-0.70710678,0.70710678,0,0)"
         style="opacity:1;fill:#ed1e24;fill-opacity:1;fill-rule:nonzero;stroke:none;stroke-width:1.71253;stroke-linecap:square;stroke-linejoin:round;stroke-miterlimit:4;stroke-dasharray:none;stroke-opacity:1;paint-order:stroke fill markers"
         id="rect1947"
         width="11.796628"
         height="94.477974"
         x="-73.250237"
         y="-47.238987" /></g><g
       id="g1026"
       inkscape:label="Text"><g
         aria-label="KEEP CLEAR"
         id="text4910"
         style="font-size:7.46176px;line-height:0.95;stroke-width:0.186544"><path
           d="m 12.695198,24.172277 v -5.341279 h 1.078458 v 2.371878 l 2.178776,-2.371878 h 1.450088 l -2.011178,2.080403 2.120481,3.260876 h -1.395437 l -1.468305,-2.506685 -0.874425,0.892643 v 1.614042 z"
           style="font-weight:bold;font-family:Arial;-inkscape-font-specification:'Arial Bold'"
           id="path904" /><path
           d="m 18.069269,24.172277 v -5.341279 h 3.960417 v 0.903573 h -2.88196 v 1.184117 h 2.68157 v 0.899929 h -2.68157 v 1.453731 h 2.983976 v 0.899929 z"
           style="font-weight:bold;font-family:Arial;-inkscape-font-specification:'Arial Bold'"
           id="path906" /><path
           d="m 23.046204,24.172277 v -5.341279 h 3.960417 v 0.903573 h -2.881959 v 1.184117 h 2.68157 v 0.899929 h -2.68157 v 1.453731 h 2.983975 v 0.899929 z"
           style="font-weight:bold;font-family:Arial;-inkscape-font-specification:'Arial Bold'"
           id="path908" /><path
           d="m 28.023141,24.172277 v -5.341279 h 1.730632 q 0.983729,0 1.28249,0.08016 0.459074,0.120233 0.768766,0.524655 0.309692,0.400778 0.309692,1.038379 0,0.491864 -0.178528,0.827061 -0.178529,0.335196 -0.45543,0.528298 -0.273258,0.189459 -0.557446,0.251397 -0.386204,0.07651 -1.118535,0.07651 h -0.703184 v 2.01482 z m 1.078457,-4.437706 v 1.51567 h 0.590237 q 0.637602,0 0.852564,-0.0838 0.214963,-0.0838 0.335197,-0.262327 0.123877,-0.178528 0.123877,-0.415352 0,-0.291475 -0.171242,-0.480934 -0.171242,-0.189458 -0.433569,-0.236823 -0.193102,-0.03643 -0.776052,-0.03643 z"
           style="font-weight:bold;font-family:Arial;-inkscape-font-specification:'Arial Bold'"
           id="path910" /><path
           d="m 38.35593,22.208465 1.045667,0.331552 q -0.240467,0.874425 -0.801557,1.300708 -0.557446,0.422638 -1.417297,0.422638 -1.063884,0 -1.74885,-0.725044 -0.684966,-0.728687 -0.684966,-1.989317 0,-1.333498 0.68861,-2.069472 0.688609,-0.739618 1.810788,-0.739618 0.980085,0 1.592182,0.579307 0.364344,0.342483 0.546516,0.983728 l -1.067527,0.25504 q -0.09473,-0.415351 -0.397135,-0.655818 -0.298762,-0.240467 -0.728687,-0.240467 -0.593881,0 -0.965511,0.426282 -0.367988,0.426282 -0.367988,1.380863 0,1.012875 0.364344,1.442801 0.364344,0.429926 0.947294,0.429926 0.429926,0 0.739618,-0.273258 0.309692,-0.273258 0.444499,-0.859851 z"
           style="font-weight:bold;font-family:Arial;-inkscape-font-specification:'Arial Bold'"
           id="path912" /><path
           d="m 40.356176,24.172277 v -5.297558 h 1.078458 v 4.397629 h 2.68157 v 0.899929 z"
           style="font-weight:bold;font-family:Arial;-inkscape-font-specification:'Arial Bold'"
           id="path914" /><path
           d="m 44.88497,24.172277 v -5.341279 h 3.960417 v 0.903573 h -2.881959 v 1.184117 h 2.68157 v 0.899929 h -2.68157 v 1.453731 h 2.983975 v 0.899929 z"
           style="font-weight:bold;font-family:Arial;-inkscape-font-specification:'Arial Bold'"
           id="path916" /><path
           d="m 54.678531,24.172277 h -1.173187 l -0.46636,-1.213264 H 50.90393 l -0.440856,1.213264 h -1.144039 l 2.080402,-5.341279 h 1.140396 z m -1.985673,-2.113193 -0.735975,-1.98203 -0.7214,1.98203 z"
           style="font-weight:bold;font-family:Arial;-inkscape-font-specification:'Arial Bold'"
           id="path918" /><path
           d="m 55.254192,24.172277 v -5.341279 h 2.269861 q 0.856208,0 1.242412,0.145738 0.389848,0.142094 0.623028,0.510081 0.23318,0.367987 0.23318,0.841634 0,0.601167 -0.353413,0.994658 -0.353414,0.389848 -1.056597,0.491864 0.34977,0.204033 0.575663,0.448143 0.229537,0.244111 0.615741,0.867138 l 0.652175,1.042023 H 58.766465 L 57.98677,23.010021 q -0.415352,-0.623028 -0.568377,-0.783339 -0.153024,-0.163955 -0.324265,-0.22225 -0.171242,-0.06194 -0.542873,-0.06194 h -0.218606 v 2.229783 z m 1.078457,-3.082348 h 0.797913 q 0.776052,0 0.969154,-0.06558 0.193102,-0.06558 0.302406,-0.225893 0.109303,-0.160311 0.109303,-0.400778 0,-0.269614 -0.145738,-0.433569 -0.142094,-0.167598 -0.404421,-0.211319 -0.131164,-0.01822 -0.786983,-0.01822 h -0.841634 z"
           style="font-weight:bold;font-family:Arial;-inkscape-font-specification:'Arial Bold'"
           id="path920" /></g><g
         aria-label="MONDAY TO FRIDAY"
         id="text4964"
         style="font-size:5.4548px;line-height:0.95;stroke-width:0.136371"><path
           d="m 10.118293,31.391468 v -3.904657 h 1.17992 l 0.708485,2.663477 0.700494,-2.663477 h 1.182584 v 3.904657 H 13.15732 v -3.073652 l -0.775072,3.073652 h -0.759091 l -0.772408,-3.073652 v 3.073652 z"
           style="font-weight:bold;font-family:Arial;-inkscape-font-specification:'Arial Bold'"
           id="path923" /><path
           d="m 14.513029,29.463111 q 0,-0.596619 0.178453,-1.001467 0.133174,-0.29831 0.362233,-0.535359 0.231723,-0.237049 0.506061,-0.351579 0.364896,-0.154482 0.841658,-0.154482 0.862967,0 1.379681,0.535359 0.519378,0.535359 0.519378,1.488884 0,0.945534 -0.514051,1.480893 -0.514051,0.532695 -1.374354,0.532695 -0.870957,0 -1.385008,-0.530032 -0.514051,-0.532695 -0.514051,-1.464912 z m 0.812361,-0.02664 q 0,0.663206 0.3063,1.006794 0.306299,0.340925 0.777735,0.340925 0.471435,0 0.772408,-0.338261 0.303636,-0.340925 0.303636,-1.020112 0,-0.671196 -0.295646,-1.001467 -0.292982,-0.330271 -0.780398,-0.330271 -0.487416,0 -0.785726,0.335598 -0.298309,0.332935 -0.298309,1.006794 z"
           style="font-weight:bold;font-family:Arial;-inkscape-font-specification:'Arial Bold'"
           id="path925" /><path
           d="m 18.923747,31.391468 v -3.904657 h 0.767082 l 1.598086,2.607544 v -2.607544 h 0.732456 v 3.904657 h -0.791053 l -1.574115,-2.546284 v 2.546284 z"
           style="font-weight:bold;font-family:Arial;-inkscape-font-specification:'Arial Bold'"
           id="path927" /><path
           d="m 22.852375,27.486811 h 1.440941 q 0.487416,0 0.74311,0.07458 0.343588,0.101212 0.588628,0.359569 0.24504,0.258357 0.372887,0.633907 0.127847,0.372887 0.127847,0.921563 0,0.48209 -0.119857,0.831005 -0.146491,0.426156 -0.418166,0.689841 -0.205087,0.19976 -0.554003,0.311626 -0.26102,0.08257 -0.697831,0.08257 h -1.483556 z m 0.788389,0.660543 v 2.586235 h 0.588628 q 0.330271,0 0.476763,-0.03729 0.19177,-0.04794 0.316953,-0.162472 0.127847,-0.11453 0.207752,-0.375551 0.0799,-0.263684 0.0799,-0.716475 0,-0.452791 -0.0799,-0.695167 -0.07991,-0.242377 -0.223732,-0.378214 -0.143828,-0.135837 -0.364897,-0.18378 -0.165135,-0.03729 -0.647225,-0.03729 z"
           style="font-weight:bold;font-family:Arial;-inkscape-font-specification:'Arial Bold'"
           id="path929" /><path
           d="M 30.315436,31.391468 H 29.457797 L 29.116872,30.50453 h -1.560798 l -0.32228,0.886938 h -0.836332 l 1.520845,-3.904657 h 0.833668 z m -1.451595,-1.544816 -0.538022,-1.448932 -0.527368,1.448932 z"
           style="font-weight:bold;font-family:Arial;-inkscape-font-specification:'Arial Bold'"
           id="path931" /><path
           d="m 31.258307,31.391468 v -1.643365 l -1.430286,-2.261292 h 0.924226 l 0.918899,1.544817 0.900255,-1.544817 h 0.908246 l -1.435614,2.266619 v 1.638038 z"
           style="font-weight:bold;font-family:Arial;-inkscape-font-specification:'Arial Bold'"
           id="path933" /><path
           d="m 36.167095,31.391468 v -3.244114 h -1.158612 v -0.660543 h 3.10295 v 0.660543 h -1.155949 v 3.244114 z"
           style="font-weight:bold;font-family:Arial;-inkscape-font-specification:'Arial Bold'"
           id="path935" /><path
           d="m 38.361799,29.463111 q 0,-0.596619 0.178453,-1.001467 0.133173,-0.29831 0.362232,-0.535359 0.231723,-0.237049 0.506061,-0.351579 0.364896,-0.154482 0.841659,-0.154482 0.862966,0 1.37968,0.535359 0.519378,0.535359 0.519378,1.488884 0,0.945534 -0.514051,1.480893 -0.514051,0.532695 -1.374354,0.532695 -0.870956,0 -1.385007,-0.530032 -0.514051,-0.532695 -0.514051,-1.464912 z m 0.81236,-0.02664 q 0,0.663206 0.3063,1.006794 0.3063,0.340925 0.777735,0.340925 0.471435,0 0.772408,-0.338261 0.303637,-0.340925 0.303637,-1.020112 0,-0.671196 -0.295646,-1.001467 -0.292983,-0.330271 -0.780399,-0.330271 -0.487416,0 -0.785726,0.335598 -0.298309,0.332935 -0.298309,1.006794 z"
           style="font-weight:bold;font-family:Arial;-inkscape-font-specification:'Arial Bold'"
           id="path937" /><path
           d="m 44.28537,31.391468 v -3.904657 h 2.676794 v 0.660543 h -1.888405 v 0.924226 h 1.630048 v 0.660542 h -1.630048 v 1.659346 z"
           style="font-weight:bold;font-family:Arial;-inkscape-font-specification:'Arial Bold'"
           id="path939" /><path
           d="m 47.614719,31.391468 v -3.904657 h 1.659346 q 0.625917,0 0.908246,0.106539 0.284992,0.103876 0.455454,0.372887 0.170463,0.269011 0.170463,0.615263 0,0.439474 -0.258358,0.727129 -0.258357,0.284992 -0.772408,0.35957 0.255694,0.149154 0.420829,0.327607 0.167799,0.178453 0.450128,0.633908 l 0.476762,0.761754 h -0.94287 L 49.612327,30.541819 Q 49.30869,30.086365 49.196824,29.969172 49.084958,29.849315 48.959775,29.806699 48.834591,29.76142 48.562917,29.76142 h -0.159809 v 1.630048 z m 0.788389,-2.253301 h 0.583302 q 0.56732,0 0.708484,-0.04794 0.141165,-0.04794 0.221069,-0.165135 0.0799,-0.117193 0.0799,-0.292983 0,-0.197097 -0.106539,-0.316953 -0.103875,-0.12252 -0.295646,-0.154482 -0.09589,-0.01332 -0.575311,-0.01332 h -0.615263 z"
           style="font-weight:bold;font-family:Arial;-inkscape-font-specification:'Arial Bold'"
           id="path941" /><path
           d="m 51.527366,31.391468 v -3.904657 h 0.788389 v 3.904657 z"
           style="font-weight:bold;font-family:Arial;-inkscape-font-specification:'Arial Bold'"
           id="path943" /><path
           d="m 53.064192,27.486811 h 1.440941 q 0.487416,0 0.74311,0.07458 0.343588,0.101212 0.588628,0.359569 0.24504,0.258357 0.372887,0.633907 0.127847,0.372887 0.127847,0.921563 0,0.48209 -0.119857,0.831005 -0.146491,0.426156 -0.418166,0.689841 -0.205087,0.19976 -0.554003,0.311626 -0.261021,0.08257 -0.697831,0.08257 h -1.483556 z m 0.788389,0.660543 v 2.586235 h 0.588628 q 0.330271,0 0.476762,-0.03729 0.191771,-0.04794 0.316954,-0.162472 0.127847,-0.11453 0.207751,-0.375551 0.07991,-0.263684 0.07991,-0.716475 0,-0.452791 -0.07991,-0.695167 -0.0799,-0.242377 -0.223732,-0.378214 -0.143827,-0.135837 -0.364896,-0.18378 -0.165136,-0.03729 -0.647225,-0.03729 z"
           style="font-weight:bold;font-family:Arial;-inkscape-font-specification:'Arial Bold'"
           id="path945" /><path
           d="m 60.527253,31.391468 h -0.85764 L 59.328688,30.50453 h -1.560797 l -0.322281,0.886938 h -0.836331 l 1.520845,-3.904657 h 0.833668 z m -1.451595,-1.544816 -0.538022,-1.448932 -0.527369,1.448932 z"
           style="font-weight:bold;font-family:Arial;-inkscape-font-specification:'Arial Bold'"
           id="path947" /><path
           d="m 61.470124,31.391468 v -1.643365 l -1.430287,-2.261292 h 0.924227 l 0.918899,1.544817 0.900255,-1.544817 h 0.908246 L 62.25585,29.75343 v 1.638038 z"
           style="font-weight:bold;font-family:Arial;-inkscape-font-specification:'Arial Bold'"
           id="path949" /></g><g
         aria-label="AM
8:00 - 9:30"
         transform="scale(0.95384717,1.048386)"
         id="text5295"
         style="font-size:5.53702px;line-height:0.95;stroke-width:0.138425"><path
           d="M 19.336957,39.174072 H 18.46639 l -0.346063,-0.900306 h -1.584324 l -0.327138,0.900306 h -0.848938 l 1.543769,-3.963511 H 17.74993 Z M 17.863482,37.605971 17.317351,36.1352 16.782033,37.605971 Z"
           style="font-weight:bold;font-family:Arial;-inkscape-font-specification:'Arial Bold';text-align:center;text-anchor:middle;fill:#ffffff"
           id="path952" /><path
           d="m 19.750611,39.174072 v -3.963511 h 1.197705 l 0.719164,2.703623 0.711053,-2.703623 h 1.200409 v 3.963511 h -0.743497 v -3.119981 l -0.786754,3.119981 h -0.770533 l -0.78405,-3.119981 v 3.119981 z"
           style="font-weight:bold;font-family:Arial;-inkscape-font-specification:'Arial Bold';text-align:center;text-anchor:middle;fill:#ffffff"
           id="path954" /><path
           d="M 7.0097873,42.346177 Q 6.7150924,42.221811 6.5799112,42.005521 6.4474337,41.786527 6.4474337,41.52698 q 0,-0.443395 0.308213,-0.732682 0.3109167,-0.289288 0.8813812,-0.289288 0.5650572,0 0.8759739,0.289288 0.3136202,0.289287 0.3136202,0.732682 0,0.275769 -0.143292,0.492059 -0.143292,0.213586 -0.4028398,0.327138 0.329842,0.132478 0.5001702,0.386618 0.1730319,0.254141 0.1730319,0.586687 0,0.548835 -0.351471,0.892195 -0.3487674,0.34336 -0.9300463,0.34336 -0.5407247,0 -0.9003066,-0.28388 -0.4244688,-0.335249 -0.4244688,-0.919232 0,-0.321731 0.1595138,-0.58939 0.1595137,-0.270362 0.5028739,-0.416358 z m 0.1568101,-0.765125 q 0,0.227104 0.1270703,0.354175 0.1297739,0.12707 0.3433602,0.12707 0.2162898,0 0.3460637,-0.12707 0.1297739,-0.129774 0.1297739,-0.356879 0,-0.213586 -0.1297739,-0.340656 -0.1270703,-0.129774 -0.3379529,-0.129774 -0.2189935,0 -0.3487674,0.129774 -0.1297739,0.129774 -0.1297739,0.34336 z m -0.070294,1.697875 q 0,0.313621 0.1595138,0.489356 0.1622174,0.175736 0.4028398,0.175736 0.2352153,0 0.3893218,-0.167625 0.1541065,-0.170328 0.1541065,-0.489356 0,-0.278473 -0.1568102,-0.446098 -0.1568101,-0.170328 -0.3974326,-0.170328 -0.2784731,0 -0.4163579,0.191957 -0.1351812,0.191958 -0.1351812,0.416358 z"
           style="font-weight:bold;font-family:Arial;-inkscape-font-specification:'Arial Bold';text-align:center;text-anchor:middle;fill:#ffffff"
           id="path956" /><path
           d="m 9.7458539,42.373214 v -0.759719 h 0.7597181 v 0.759719 z m 0,2.111529 v -0.759718 h 0.7597181 v 0.759718 z"
           style="font-weight:bold;font-family:Arial;-inkscape-font-specification:'Arial Bold';text-align:center;text-anchor:middle;fill:#ffffff"
           id="path958" /><path
           d="m 12.565733,40.50501 q 0.575872,0 0.900306,0.410951 0.386619,0.486652 0.386619,1.614063 0,1.124707 -0.389322,1.616766 -0.321731,0.405544 -0.897603,0.405544 -0.578575,0 -0.93275,-0.443394 -0.354175,-0.446098 -0.354175,-1.587027 0,-1.1193 0.389322,-1.61136 0.321731,-0.405543 0.897603,-0.405543 z m 0,0.629944 q -0.137885,0 -0.24603,0.08922 -0.108145,0.08652 -0.167624,0.31362 -0.07841,0.294695 -0.07841,0.99223 0,0.697534 0.07029,0.959786 0.07029,0.259548 0.175735,0.346064 0.108145,0.08652 0.24603,0.08652 0.137885,0 0.24603,-0.08652 0.108145,-0.08922 0.167624,-0.316324 0.07841,-0.291992 0.07841,-0.989526 0,-0.697535 -0.07029,-0.957083 -0.07029,-0.262251 -0.178439,-0.348767 -0.105441,-0.08922 -0.243326,-0.08922 z"
           style="font-weight:bold;font-family:Arial;-inkscape-font-specification:'Arial Bold';text-align:center;text-anchor:middle;fill:#ffffff"
           id="path960" /><path
           d="m 15.64516,40.50501 q 0.575871,0 0.900306,0.410951 0.386618,0.486652 0.386618,1.614063 0,1.124707 -0.389321,1.616766 -0.321732,0.405544 -0.897603,0.405544 -0.578576,0 -0.93275,-0.443394 -0.354175,-0.446098 -0.354175,-1.587027 0,-1.1193 0.389322,-1.61136 0.321731,-0.405543 0.897603,-0.405543 z m 0,0.629944 q -0.137885,0 -0.24603,0.08922 -0.108145,0.08652 -0.167625,0.31362 -0.07841,0.294695 -0.07841,0.99223 0,0.697534 0.07029,0.959786 0.07029,0.259548 0.175735,0.346064 0.108145,0.08652 0.24603,0.08652 0.137885,0 0.246029,-0.08652 0.108145,-0.08922 0.167625,-0.316324 0.07841,-0.291992 0.07841,-0.989526 0,-0.697535 -0.07029,-0.957083 -0.07029,-0.262251 -0.178439,-0.348767 -0.105441,-0.08922 -0.243326,-0.08922 z"
           style="font-weight:bold;font-family:Arial;-inkscape-font-specification:'Arial Bold';text-align:center;text-anchor:middle;fill:#ffffff"
           id="path962" /><path
           d="m 19.054429,43.427627 v -0.759719 h 1.492399 v 0.759719 z"
           style="font-weight:bold;font-family:Arial;-inkscape-font-specification:'Arial Bold';text-align:center;text-anchor:middle;fill:#ffffff"
           id="path964" /><path
           d="m 22.377181,43.568215 0.735385,-0.08111 q 0.02704,0.224401 0.140588,0.332546 0.113553,0.108145 0.300103,0.108145 0.235215,0 0.400136,-0.21629 0.164921,-0.21629 0.210882,-0.897603 -0.286584,0.332546 -0.71646,0.332546 -0.467727,0 -0.808383,-0.359582 -0.337953,-0.362286 -0.337953,-0.940861 0,-0.602908 0.356878,-0.970601 0.359582,-0.370396 0.913825,-0.370396 0.602908,0 0.989526,0.467727 0.386618,0.465023 0.386618,1.532954 0,1.086857 -0.40284,1.568102 -0.40284,0.481244 -1.049006,0.481244 -0.465023,0 -0.751607,-0.246029 -0.286584,-0.248734 -0.367692,-0.740793 z m 1.719504,-1.660025 q 0,-0.367692 -0.170328,-0.570464 -0.167625,-0.202772 -0.389322,-0.202772 -0.210883,0 -0.351471,0.167625 -0.137885,0.164921 -0.137885,0.543428 0,0.383915 0.151403,0.565057 0.151403,0.178439 0.378507,0.178439 0.218994,0 0.367693,-0.173031 0.151403,-0.173032 0.151403,-0.508282 z"
           style="font-weight:bold;font-family:Arial;-inkscape-font-specification:'Arial Bold';text-align:center;text-anchor:middle;fill:#ffffff"
           id="path966" /><path
           d="m 25.7486,42.373214 v -0.759719 h 0.759718 v 0.759719 z m 0,2.111529 v -0.759718 h 0.759718 v 0.759718 z"
           style="font-weight:bold;font-family:Arial;-inkscape-font-specification:'Arial Bold';text-align:center;text-anchor:middle;fill:#ffffff"
           id="path968" /><path
           d="m 27.25722,43.433034 0.735386,-0.08922 q 0.03515,0.281177 0.189254,0.429876 0.154106,0.1487 0.3731,0.1487 0.235215,0 0.394729,-0.17844 0.162217,-0.178439 0.162217,-0.481244 0,-0.286584 -0.154107,-0.454209 -0.154106,-0.167625 -0.375803,-0.167625 -0.145996,0 -0.348768,0.05678 l 0.08381,-0.619129 q 0.308213,0.0081 0.47043,-0.132478 0.162218,-0.143292 0.162218,-0.378507 0,-0.200068 -0.11896,-0.319028 -0.118959,-0.118959 -0.316324,-0.118959 -0.194661,0 -0.332545,0.135181 -0.137885,0.135181 -0.167625,0.394729 l -0.700238,-0.118959 q 0.073,-0.359582 0.218993,-0.573168 0.148699,-0.21629 0.410951,-0.337953 0.264955,-0.124367 0.592093,-0.124367 0.55965,0 0.897603,0.356878 0.278473,0.291992 0.278473,0.659684 0,0.5218 -0.570464,0.832716 0.340656,0.073 0.543428,0.327139 0.205475,0.25414 0.205475,0.613722 0,0.521799 -0.38121,0.889492 -0.381211,0.367693 -0.948972,0.367693 -0.538021,0 -0.892196,-0.308213 -0.354174,-0.310917 -0.410951,-0.811087 z"
           style="font-weight:bold;font-family:Arial;-inkscape-font-specification:'Arial Bold';text-align:center;text-anchor:middle;fill:#ffffff"
           id="path970" /><path
           d="m 31.647905,40.50501 q 0.575872,0 0.900307,0.410951 0.386618,0.486652 0.386618,1.614063 0,1.124707 -0.389322,1.616766 -0.321731,0.405544 -0.897603,0.405544 -0.578575,0 -0.93275,-0.443394 -0.354174,-0.446098 -0.354174,-1.587027 0,-1.1193 0.389321,-1.61136 0.321732,-0.405543 0.897603,-0.405543 z m 0,0.629944 q -0.137884,0 -0.246029,0.08922 -0.108145,0.08652 -0.167625,0.31362 -0.07841,0.294695 -0.07841,0.99223 0,0.697534 0.07029,0.959786 0.07029,0.259548 0.175736,0.346064 0.108145,0.08652 0.246029,0.08652 0.137885,0 0.24603,-0.08652 0.108145,-0.08922 0.167625,-0.316324 0.0784,-0.291992 0.0784,-0.989526 0,-0.697535 -0.07029,-0.957083 -0.07029,-0.262251 -0.17844,-0.348767 -0.105441,-0.08922 -0.243326,-0.08922 z"
           style="font-weight:bold;font-family:Arial;-inkscape-font-specification:'Arial Bold';text-align:center;text-anchor:middle;fill:#ffffff"
           id="path972" /></g><g
         aria-label="PM
4:30 - 6:30"
         transform="scale(0.95384716,1.048386)"
         id="text5303"
         style="font-size:5.53702px;line-height:0.95;stroke-width:0.138425"><path
           d="m 52.904894,39.174072 v -3.963511 h 1.284221 q 0.729978,0 0.951676,0.05948 0.340656,0.08922 0.570464,0.389322 0.229808,0.297399 0.229808,0.770533 0,0.364989 -0.132478,0.613722 -0.132477,0.248734 -0.337952,0.392026 -0.202772,0.140588 -0.413655,0.18655 -0.286584,0.05678 -0.830012,0.05678 h -0.521799 v 1.495103 z m 0.800273,-3.293013 v 1.124708 h 0.437987 q 0.473134,0 0.632647,-0.06218 0.159514,-0.06218 0.248734,-0.194661 0.09192,-0.132477 0.09192,-0.308213 0,-0.21629 -0.12707,-0.356878 -0.127071,-0.140588 -0.321732,-0.175735 -0.143292,-0.02704 -0.575871,-0.02704 z"
           style="font-weight:bold;font-family:Arial;-inkscape-font-specification:'Arial Bold';text-align:center;text-anchor:middle"
           id="path322" /><path
           d="m 56.587229,39.174072 v -3.963511 h 1.197705 l 0.719164,2.703623 0.711053,-2.703623 h 1.200408 v 3.963511 h -0.743496 v -3.119981 l -0.786754,3.119981 h -0.770533 l -0.784051,-3.119981 v 3.119981 z"
           style="font-weight:bold;font-family:Arial;-inkscape-font-specification:'Arial Bold';text-align:center;text-anchor:middle"
           id="path324" /><path
           d="m 44.837283,44.484743 v -0.797569 h -1.622174 v -0.665091 l 1.719504,-2.517073 h 0.638055 v 2.514369 h 0.49206 v 0.667795 h -0.49206 v 0.797569 z m 0,-1.465364 v -1.354515 l -0.911121,1.354515 z"
           style="font-weight:bold;font-family:Arial;-inkscape-font-specification:'Arial Bold';text-align:center;text-anchor:middle"
           id="path326" /><path
           d="m 46.735226,42.373214 v -0.759719 h 0.759718 v 0.759719 z m 0,2.111529 v -0.759718 h 0.759718 v 0.759718 z"
           style="font-weight:bold;font-family:Arial;-inkscape-font-specification:'Arial Bold';text-align:center;text-anchor:middle"
           id="path328" /><path
           d="m 48.243848,43.433034 0.735386,-0.08922 q 0.03515,0.281177 0.189253,0.429876 0.154107,0.1487 0.3731,0.1487 0.235215,0 0.394729,-0.17844 0.162217,-0.178439 0.162217,-0.481244 0,-0.286584 -0.154106,-0.454209 -0.154107,-0.167625 -0.375804,-0.167625 -0.145995,0 -0.348767,0.05678 l 0.08381,-0.619129 q 0.308213,0.0081 0.470431,-0.132478 0.162217,-0.143292 0.162217,-0.378507 0,-0.200068 -0.118959,-0.319028 -0.11896,-0.118959 -0.316324,-0.118959 -0.194661,0 -0.332546,0.135181 -0.137885,0.135181 -0.167625,0.394729 l -0.700238,-0.118959 q 0.073,-0.359582 0.218994,-0.573168 0.148699,-0.21629 0.41095,-0.337953 0.264955,-0.124367 0.592094,-0.124367 0.55965,0 0.897603,0.356878 0.278473,0.291992 0.278473,0.659684 0,0.5218 -0.570465,0.832716 0.340657,0.073 0.543429,0.327139 0.205475,0.25414 0.205475,0.613722 0,0.521799 -0.381211,0.889492 -0.381211,0.367693 -0.948972,0.367693 -0.538021,0 -0.892195,-0.308213 -0.354175,-0.310917 -0.410951,-0.811087 z"
           style="font-weight:bold;font-family:Arial;-inkscape-font-specification:'Arial Bold';text-align:center;text-anchor:middle"
           id="path330" /><path
           d="m 52.634532,40.50501 q 0.575872,0 0.900307,0.410951 0.386618,0.486652 0.386618,1.614063 0,1.124707 -0.389322,1.616766 -0.321731,0.405544 -0.897603,0.405544 -0.578575,0 -0.93275,-0.443394 -0.354175,-0.446098 -0.354175,-1.587027 0,-1.1193 0.389322,-1.61136 0.321731,-0.405543 0.897603,-0.405543 z m 0,0.629944 q -0.137885,0 -0.24603,0.08922 -0.108145,0.08652 -0.167624,0.31362 -0.0784,0.294695 -0.0784,0.99223 0,0.697534 0.07029,0.959786 0.07029,0.259548 0.175735,0.346064 0.108145,0.08652 0.24603,0.08652 0.137885,0 0.24603,-0.08652 0.108145,-0.08922 0.167624,-0.316324 0.0784,-0.291992 0.0784,-0.989526 0,-0.697535 -0.07029,-0.957083 -0.07029,-0.262251 -0.178439,-0.348767 -0.105441,-0.08922 -0.243326,-0.08922 z"
           style="font-weight:bold;font-family:Arial;-inkscape-font-specification:'Arial Bold';text-align:center;text-anchor:middle"
           id="path332" /><path
           d="m 56.043801,43.427627 v -0.759719 h 1.4924 v 0.759719 z"
           style="font-weight:bold;font-family:Arial;-inkscape-font-specification:'Arial Bold';text-align:center;text-anchor:middle"
           id="path334" /><path
           d="m 61.92418,41.491832 -0.735385,0.08111 q -0.02704,-0.227104 -0.140589,-0.335249 -0.113552,-0.108145 -0.294695,-0.108145 -0.240622,0 -0.408247,0.21629 -0.164921,0.21629 -0.208179,0.900306 0.283881,-0.335249 0.705646,-0.335249 0.475838,0 0.813791,0.362285 0.340656,0.362286 0.340656,0.935454 0,0.608315 -0.356878,0.976008 -0.356878,0.367693 -0.916528,0.367693 -0.600205,0 -0.986823,-0.465023 -0.386618,-0.467727 -0.386618,-1.530251 0,-1.08956 0.40284,-1.570805 0.40284,-0.481245 1.046302,-0.481245 0.451505,0 0.7462,0.254141 0.297399,0.251436 0.378507,0.732681 z m -1.722208,1.657321 q 0,0.370397 0.170329,0.573169 0.170328,0.200068 0.389321,0.200068 0.210883,0 0.351471,-0.164921 0.140589,-0.164921 0.140589,-0.540725 0,-0.386618 -0.151403,-0.565057 -0.151403,-0.181143 -0.378507,-0.181143 -0.218994,0 -0.370397,0.173032 -0.151403,0.170328 -0.151403,0.505577 z"
           style="font-weight:bold;font-family:Arial;-inkscape-font-specification:'Arial Bold';text-align:center;text-anchor:middle"
           id="path336" /><path
           d="m 62.737972,42.373214 v -0.759719 h 0.759718 v 0.759719 z m 0,2.111529 v -0.759718 h 0.759718 v 0.759718 z"
           style="font-weight:bold;font-family:Arial;-inkscape-font-specification:'Arial Bold';text-align:center;text-anchor:middle"
           id="path338" /><path
           d="m 64.246593,43.433034 0.735385,-0.08922 q 0.03515,0.281177 0.189254,0.429876 0.154106,0.1487 0.3731,0.1487 0.235215,0 0.394729,-0.17844 0.162217,-0.178439 0.162217,-0.481244 0,-0.286584 -0.154106,-0.454209 -0.154107,-0.167625 -0.375804,-0.167625 -0.145996,0 -0.348767,0.05678 l 0.08381,-0.619129 q 0.308213,0.0081 0.47043,-0.132478 0.162218,-0.143292 0.162218,-0.378507 0,-0.200068 -0.11896,-0.319028 -0.118959,-0.118959 -0.316324,-0.118959 -0.19466,0 -0.332545,0.135181 -0.137885,0.135181 -0.167625,0.394729 l -0.700238,-0.118959 q 0.073,-0.359582 0.218993,-0.573168 0.1487,-0.21629 0.410951,-0.337953 0.264955,-0.124367 0.592093,-0.124367 0.55965,0 0.897603,0.356878 0.278473,0.291992 0.278473,0.659684 0,0.5218 -0.570464,0.832716 0.340657,0.073 0.543428,0.327139 0.205476,0.25414 0.205476,0.613722 0,0.521799 -0.381211,0.889492 -0.381211,0.367693 -0.948972,0.367693 -0.538021,0 -0.892196,-0.308213 -0.354174,-0.310917 -0.41095,-0.811087 z"
           style="font-weight:bold;font-family:Arial;-inkscape-font-specification:'Arial Bold';text-align:center;text-anchor:middle"
           id="path340" /><path
           d="m 68.637278,40.50501 q 0.575871,0 0.900306,0.410951 0.386618,0.486652 0.386618,1.614063 0,1.124707 -0.389321,1.616766 -0.321732,0.405544 -0.897603,0.405544 -0.578576,0 -0.93275,-0.443394 -0.354175,-0.446098 -0.354175,-1.587027 0,-1.1193 0.389322,-1.61136 0.321731,-0.405543 0.897603,-0.405543 z m 0,0.629944 q -0.137885,0 -0.24603,0.08922 -0.108145,0.08652 -0.167625,0.31362 -0.07841,0.294695 -0.07841,0.99223 0,0.697534 0.07029,0.959786 0.0703,0.259548 0.175736,0.346064 0.108145,0.08652 0.24603,0.08652 0.137884,0 0.246029,-0.08652 0.108145,-0.08922 0.167625,-0.316324 0.07841,-0.291992 0.07841,-0.989526 0,-0.697535 -0.07029,-0.957083 -0.07029,-0.262251 -0.178439,-0.348767 -0.105442,-0.08922 -0.243326,-0.08922 z"
           style="font-weight:bold;font-family:Arial;-inkscape-font-specification:'Arial Bold';text-align:center;text-anchor:middle"
           id="path342" /></g></g></g></svg>
