<?xml version="1.0" encoding="UTF-8" standalone="no"?>
<!-- Created with Inkscape (http://www.inkscape.org/) -->

<svg
   width="360"
   height="360"
   viewBox="0 0 95.249998 95.249999"
   version="1.1"
   id="svg859"
   xml:space="preserve"
   inkscape:version="1.2.1 (9c6d41e410, 2022-07-14)"
   sodipodi:docname="Indian_Road_Sign_I-VI-12.svg"
   xmlns:inkscape="http://www.inkscape.org/namespaces/inkscape"
   xmlns:sodipodi="http://sodipodi.sourceforge.net/DTD/sodipodi-0.dtd"
   xmlns="http://www.w3.org/2000/svg"
   xmlns:svg="http://www.w3.org/2000/svg"><sodipodi:namedview
     id="namedview861"
     pagecolor="#505050"
     bordercolor="#eeeeee"
     borderopacity="1"
     inkscape:showpageshadow="0"
     inkscape:pageopacity="0"
     inkscape:pagecheckerboard="0"
     inkscape:deskcolor="#505050"
     inkscape:document-units="mm"
     showgrid="false"
     showguides="true"
     inkscape:zoom="1.4142136"
     inkscape:cx="143.54268"
     inkscape:cy="173.59471"
     inkscape:window-width="1920"
     inkscape:window-height="991"
     inkscape:window-x="-9"
     inkscape:window-y="-9"
     inkscape:window-maximized="1"
     inkscape:current-layer="layer1-7"><sodipodi:guide
       position="127.42055,94.778071"
       orientation="1,0"
       id="guide2227"
       inkscape:locked="false" /></sodipodi:namedview><defs
     id="defs856"><inkscape:path-effect
       effect="fillet_chamfer"
       id="path-effect1250"
       is_visible="true"
       lpeversion="1"
       nodesatellites_param="F,0,0,1,0,3.86627,0,1 @ F,0,0,1,0,3.8662696,0,1 @ F,0,0,1,0,3.8662703,0,1 @ F,0,0,1,0,3.8662703,0,1"
       unit="px"
       method="auto"
       mode="F"
       radius="0"
       chamfer_steps="1"
       flexible="false"
       use_knot_distance="true"
       apply_no_radius="true"
       apply_with_radius="true"
       only_selected="false"
       hide_knots="false" /><inkscape:path-effect
       effect="fillet_chamfer"
       id="path-effect2969"
       is_visible="true"
       lpeversion="1"
       nodesatellites_param="F,0,0,1,0,5.0787595,0,1 @ F,0,0,1,0,5.078762,0,1 @ F,0,0,1,0,5.078762,0,1 @ F,0,0,1,0,5.078762,0,1"
       unit="px"
       method="auto"
       mode="F"
       radius="0"
       chamfer_steps="1"
       flexible="false"
       use_knot_distance="true"
       apply_no_radius="true"
       apply_with_radius="true"
       only_selected="false"
       hide_knots="false" /><inkscape:path-effect
       effect="fillet_chamfer"
       id="path-effect2963"
       is_visible="true"
       lpeversion="1"
       nodesatellites_param="F,0,0,1,0,5.0787595,0,1 @ F,0,0,1,0,5.078762,0,1 @ F,0,0,1,0,5.078762,0,1 @ F,0,0,1,0,5.078762,0,1"
       unit="px"
       method="auto"
       mode="F"
       radius="0"
       chamfer_steps="1"
       flexible="false"
       use_knot_distance="true"
       apply_no_radius="true"
       apply_with_radius="true"
       only_selected="false"
       hide_knots="false" /><inkscape:path-effect
       effect="fillet_chamfer"
       id="path-effect2888"
       is_visible="true"
       lpeversion="1"
       nodesatellites_param="F,0,0,1,0,5.0787595,0,1 @ F,0,0,1,0,5.078762,0,1 @ F,0,0,1,0,5.078762,0,1 @ F,0,0,1,0,5.078762,0,1"
       unit="px"
       method="auto"
       mode="F"
       radius="0"
       chamfer_steps="1"
       flexible="false"
       use_knot_distance="true"
       apply_no_radius="true"
       apply_with_radius="true"
       only_selected="false"
       hide_knots="false" /><inkscape:path-effect
       effect="fillet_chamfer"
       id="path-effect1250-3"
       is_visible="true"
       lpeversion="1"
       nodesatellites_param="F,0,0,1,0,3.86627,0,1 @ F,0,0,1,0,3.8662696,0,1 @ F,0,0,1,0,3.8662703,0,1 @ F,0,0,1,0,3.8662703,0,1"
       unit="px"
       method="auto"
       mode="F"
       radius="0"
       chamfer_steps="1"
       flexible="false"
       use_knot_distance="true"
       apply_no_radius="true"
       apply_with_radius="true"
       only_selected="false"
       hide_knots="false" /><inkscape:path-effect
       effect="fillet_chamfer"
       id="path-effect2969-8"
       is_visible="true"
       lpeversion="1"
       nodesatellites_param="F,0,0,1,0,5.0787595,0,1 @ F,0,0,1,0,5.078762,0,1 @ F,0,0,1,0,5.078762,0,1 @ F,0,0,1,0,5.078762,0,1"
       unit="px"
       method="auto"
       mode="F"
       radius="0"
       chamfer_steps="1"
       flexible="false"
       use_knot_distance="true"
       apply_no_radius="true"
       apply_with_radius="true"
       only_selected="false"
       hide_knots="false" /><inkscape:path-effect
       effect="fillet_chamfer"
       id="path-effect2963-9"
       is_visible="true"
       lpeversion="1"
       nodesatellites_param="F,0,0,1,0,5.0787595,0,1 @ F,0,0,1,0,5.078762,0,1 @ F,0,0,1,0,5.078762,0,1 @ F,0,0,1,0,5.078762,0,1"
       unit="px"
       method="auto"
       mode="F"
       radius="0"
       chamfer_steps="1"
       flexible="false"
       use_knot_distance="true"
       apply_no_radius="true"
       apply_with_radius="true"
       only_selected="false"
       hide_knots="false" /><inkscape:path-effect
       effect="fillet_chamfer"
       id="path-effect2888-3"
       is_visible="true"
       lpeversion="1"
       nodesatellites_param="F,0,0,1,0,5.0787595,0,1 @ F,0,0,1,0,5.078762,0,1 @ F,0,0,1,0,5.078762,0,1 @ F,0,0,1,0,5.078762,0,1"
       unit="px"
       method="auto"
       mode="F"
       radius="0"
       chamfer_steps="1"
       flexible="false"
       use_knot_distance="true"
       apply_no_radius="true"
       apply_with_radius="true"
       only_selected="false"
       hide_knots="false" /><clipPath
       id="clipPath2832"><path
         d="M -0.24,595.138 H 317.24 V -0.138 H -0.24 Z"
         id="path2834"
         inkscape:connector-curvature="0" /></clipPath><clipPath
       id="clipPath2840"><path
         d="M 0.03,595.32 H 317.49 V 0 H 0.03 Z"
         id="path2842"
         inkscape:connector-curvature="0" /></clipPath><clipPath
       id="clipPath2858"><path
         d="M -0.24,595.138 H 317.24 V -0.138 H -0.24 Z"
         id="path2860"
         inkscape:connector-curvature="0" /></clipPath><clipPath
       id="clipPath2864"><path
         d="M 0.03,595.32 H 317.49 V 0 H 0.03 Z"
         id="path2866"
         inkscape:connector-curvature="0" /></clipPath><clipPath
       id="clipPath3306"><path
         d="m 199.238,472.977 v -29.74 h 29.744 v 29.74"
         id="path3308"
         inkscape:connector-curvature="0" /></clipPath><clipPath
       id="clipPath3322"><path
         d="M -0.24,595.138 H 317.24 V -0.138 H -0.24 Z"
         id="path3324"
         inkscape:connector-curvature="0" /></clipPath><clipPath
       id="clipPath3330"><path
         d="M 0.03,595.32 H 317.49 V 0 H 0.03 Z"
         id="path3332"
         inkscape:connector-curvature="0" /></clipPath><clipPath
       id="clipPath3344"><path
         d="m 88.233,387.221 v -28.335 h 32.08 v 28.335"
         id="path3346"
         inkscape:connector-curvature="0" /></clipPath><clipPath
       id="clipPath3462"><path
         d="M -0.24,595.138 H 317.24 V -0.138 H -0.24 Z"
         id="path3464"
         inkscape:connector-curvature="0" /></clipPath><clipPath
       id="clipPath3470"><path
         d="M 0.03,595.32 H 317.49 V 0 H 0.03 Z"
         id="path3472"
         inkscape:connector-curvature="0" /></clipPath><clipPath
       id="clipPath3490"><path
         d="M -0.24,595.138 H 317.24 V -0.138 H -0.24 Z"
         id="path3492"
         inkscape:connector-curvature="0" /></clipPath><clipPath
       id="clipPath3496"><path
         d="M 0.03,595.32 H 317.49 V 0 H 0.03 Z"
         id="path3498"
         inkscape:connector-curvature="0" /></clipPath><clipPath
       id="clipPath3520"><path
         d="m 254.788,326.215 v -28.309 h 28.326 v 28.309"
         id="path3522"
         inkscape:connector-curvature="0" /></clipPath><clipPath
       id="clipPath3544"><path
         d="m 145.049,326.142 v -28.333 h 28.342 v 28.333"
         id="path3546"
         inkscape:connector-curvature="0" /></clipPath><clipPath
       id="clipPath3682"><path
         d="M -0.24,595.138 H 317.24 V -0.138 H -0.24 Z"
         id="path3684"
         inkscape:connector-curvature="0" /></clipPath><clipPath
       id="clipPath3690"><path
         d="M 0.03,595.32 H 317.49 V 0 H 0.03 Z"
         id="path3692"
         inkscape:connector-curvature="0" /></clipPath><clipPath
       id="clipPath3980"><path
         d="M -0.24,595.138 H 317.24 V -0.138 H -0.24 Z"
         id="path3982"
         inkscape:connector-curvature="0" /></clipPath><clipPath
       id="clipPath3988"><path
         d="M 0.03,595.32 H 317.49 V 0 H 0.03 Z"
         id="path3990"
         inkscape:connector-curvature="0" /></clipPath><clipPath
       id="clipPath4010"><path
         d="M -0.24,595.138 H 317.24 V -0.138 H -0.24 Z"
         id="path4012"
         inkscape:connector-curvature="0" /></clipPath><clipPath
       id="clipPath4016"><path
         d="M 0.03,595.32 H 317.49 V 0 H 0.03 Z"
         id="path4018"
         inkscape:connector-curvature="0" /></clipPath><clipPath
       id="clipPath4062"><path
         d="m 200.163,177.773 v -28.284 h 28.283 v 28.284"
         id="path4064"
         inkscape:connector-curvature="0" /></clipPath><clipPath
       id="clipPath4090"><path
         d="m 34.886,177.515 v -51.632 h 30.367 v 51.632"
         id="path4092"
         inkscape:connector-curvature="0" /></clipPath><clipPath
       id="clipPath4106"><path
         d="m 34.886,177.515 v -51.632 h 30.367 v 51.632"
         id="path4108"
         inkscape:connector-curvature="0" /></clipPath><clipPath
       id="clipPath4272"><path
         d="m 34.886,177.515 v -51.632 h 30.367 v 51.632"
         id="path4274"
         inkscape:connector-curvature="0" /></clipPath><clipPath
       id="clipPath4304"><path
         d="m 254.653,176.442 v -48.167 h 28.317 v 48.167"
         id="path4306"
         inkscape:connector-curvature="0" /></clipPath><clipPath
       id="clipPath4310"><path
         d="m 253.565,177.983 h 31.181 V 128.8 h -31.181 z"
         id="path4312"
         inkscape:connector-curvature="0" /></clipPath><clipPath
       id="clipPath4316"><path
         d="M -0.24,595.138 H 317.24 V -0.138 H -0.24 Z"
         id="path4318"
         inkscape:connector-curvature="0" /></clipPath><clipPath
       id="clipPath4322"><path
         d="M 0.03,595.32 H 317.49 V 0 H 0.03 Z"
         id="path4324"
         inkscape:connector-curvature="0" /></clipPath><clipPath
       id="clipPath4456"><path
         d="M -0.24,595.138 H 317.24 V -0.138 H -0.24 Z"
         id="path4458"
         inkscape:connector-curvature="0" /></clipPath><clipPath
       id="clipPath4464"><path
         d="M 0.03,595.32 H 317.49 V 0 H 0.03 Z"
         id="path4466"
         inkscape:connector-curvature="0" /></clipPath></defs><g
     inkscape:label="Sign"
     inkscape:groupmode="layer"
     id="layer1"><circle
       style="fill:#008ad8;fill-opacity:1;fill-rule:nonzero;stroke:none;stroke-width:0.324338;stroke-linecap:square;stroke-linejoin:round;stroke-miterlimit:4;stroke-dasharray:none;stroke-opacity:1;paint-order:stroke fill markers"
       id="circle821"
       cx="47.625"
       cy="47.625"
       r="47.625"
       inkscape:label="Circle" /><g
       inkscape:label="Layer 1"
       id="layer1-7"
       transform="translate(-32.862282,-17.7098)"><g
         id="g9240"
         inkscape:label="Cycle"
         transform="matrix(1.5877265,0,0,1.5877265,5.2375772,-36.401082)"
         style="fill:#ffffff;fill-opacity:1"><path
           id="path8881"
           style="opacity:1;fill:#ffffff;fill-opacity:1;stroke:none;stroke-width:0.132292;stroke-opacity:1"
           d="m 37.44879,51.135978 c -0.793109,0.05587 -1.498592,3.554014 0.077,4.366659 0.423038,0.218192 -2.919719,10.894942 -2.919719,10.894942 l -1.885673,1.885673 c -0.273348,1.389542 0.190378,1.864784 1.601453,1.765267 l 2.350244,-2.385384 1.709456,-5.637382 8.100798,6.175334 1.333252,-1.870687 -8.747787,-6.577377 0.146762,-0.485241 h 12.43645 l 0.468705,0.81132 -1.864638,5.339868 1.642443,0.615329 1.925967,-5.450319 h 1.265039 l 1.354439,2.345594 -3.108337,5.383134 -0.04929,1.779736 h 9.567576 l -7.1453,-12.375472 -0.543636,-0.331763 0.403592,-1.385445 -1.968872,-0.527099 -0.583943,1.483113 c 0,0 -12.62587,0.22596 -12.756328,0 -0.130457,-0.225959 -0.894002,-3.335714 -0.894002,-3.335714 h 2.547648 c 0.473321,-0.826134 0.495892,-1.652267 0,-2.478401 h -4.386295 c -0.02569,-0.0056 -0.05141,-0.0075 -0.077,-0.0057 z m 20.239075,14.210502 1.702738,2.949691 h -3.257166 z"
           sodipodi:nodetypes="csccccccccccccccccccccccccsccccsccccc" /><path
           id="path9200"
           style="opacity:1;fill:#ffffff;fill-opacity:1;stroke-width:0.15372"
           d="m 33.503294,61.582886 a 7.7174077,7.7174077 0 0 0 -7.717358,7.717358 7.7174077,7.7174077 0 0 0 7.717358,7.717359 7.7174077,7.7174077 0 0 0 7.717359,-7.717359 7.7174077,7.7174077 0 0 0 -7.717359,-7.717358 z m 0,2.572453 a 5.1449384,5.1449384 0 0 1 5.144906,5.144905 5.1449384,5.1449384 0 0 1 -5.144906,5.144906 5.1449384,5.1449384 0 0 1 -5.144905,-5.144906 5.1449384,5.1449384 0 0 1 5.144905,-5.144905 z" /><path
           id="path9210"
           style="opacity:1;fill:#ffffff;fill-opacity:1;stroke-width:0.15372"
           d="m 61.285961,61.582886 a 7.7174077,7.7174077 0 0 0 -7.717358,7.717358 7.7174077,7.7174077 0 0 0 7.717358,7.717359 7.7174077,7.7174077 0 0 0 7.717359,-7.717359 7.7174077,7.7174077 0 0 0 -7.717359,-7.717358 z m 0,2.572453 a 5.1449384,5.1449384 0 0 1 5.144906,5.144905 5.1449384,5.1449384 0 0 1 -5.144906,5.144906 5.1449384,5.1449384 0 0 1 -5.144905,-5.144906 5.1449384,5.1449384 0 0 1 5.144905,-5.144905 z" /><path
           id="circle9214"
           style="opacity:1;fill:#ffffff;fill-opacity:1;stroke-width:0.272072"
           d="m 49.849583,65.39609 a 3.604948,3.604948 0 0 0 -3.604948,3.604948 3.604948,3.604948 0 0 0 3.604948,3.604948 3.604948,3.604948 0 0 0 3.604948,-3.604948 3.604948,3.604948 0 0 0 -3.604948,-3.604948 z m 0,1.554427 a 2.0505207,2.0505207 0 0 1 2.050521,2.050521 2.0505207,2.0505207 0 0 1 -2.050521,2.050521 2.0505207,2.0505207 0 0 1 -2.050521,-2.050521 2.0505207,2.0505207 0 0 1 2.050521,-2.050521 z" /><path
           style="opacity:1;fill:#ffffff;fill-opacity:1;stroke:none;stroke-width:0.132292;stroke-opacity:1"
           d="m 58.117097,54.099267 c -0.969758,0.598789 -1.555916,1.315608 -1.95398,2.090303 -0.08675,0.101729 -0.1986,0.04043 -0.324025,0.022 L 53.446228,55.859949 53.018934,55.22179 51.19482,55.011314 c -0.556947,-0.167553 -0.672023,-0.505927 -0.708915,-0.818672 -0.08827,-1.181365 0.817558,-1.147902 2.034316,-1.028829 1.390299,0.664859 2.238568,0.349896 3.067513,0 0.767578,-0.225246 3.037366,0.06496 2.529366,0.935445 z"
           id="path9224"
           sodipodi:nodetypes="ccccccccccc" /><path
           style="opacity:1;fill:#ffffff;fill-opacity:1;stroke:none;stroke-width:0.132292;stroke-opacity:1"
           d="m 50.347351,72.571454 0.233221,1.419573 c 0.279672,0.459757 0.402845,0.43845 0.960502,0.436374 l 2.097591,-0.239489 V 73.112151 L 52.199133,72.281039 V 71.73513 Z"
           id="path9226"
           sodipodi:nodetypes="cccccccc" /><path
           style="opacity:1;fill:#ffffff;fill-opacity:1;stroke:none;stroke-width:0.132292;stroke-opacity:1"
           d="m 49.365525,65.428737 -0.233221,-1.419573 c -0.279672,-0.459757 -0.402845,-0.43845 -0.960502,-0.436374 l -2.097591,0.239489 v 0.859439 l 1.439532,1.047434 v 0.545909 z"
           id="path9228"
           sodipodi:nodetypes="cccccccc" /></g></g></g></svg>
