<?xml version="1.0" encoding="UTF-8" standalone="no"?>
<!-- Created with Inkscape (http://www.inkscape.org/) -->

<svg
   width="360"
   height="360"
   viewBox="0 0 95.249996 95.25"
   version="1.1"
   id="svg370"
   inkscape:version="1.2.1 (9c6d41e410, 2022-07-14)"
   sodipodi:docname="Indian Road Sign I-I-1 (PA).svg"
   xml:space="preserve"
   xmlns:inkscape="http://www.inkscape.org/namespaces/inkscape"
   xmlns:sodipodi="http://sodipodi.sourceforge.net/DTD/sodipodi-0.dtd"
   xmlns="http://www.w3.org/2000/svg"
   xmlns:svg="http://www.w3.org/2000/svg"><sodipodi:namedview
     id="namedview372"
     pagecolor="#505050"
     bordercolor="#eeeeee"
     borderopacity="1"
     inkscape:showpageshadow="0"
     inkscape:pageopacity="0"
     inkscape:pagecheckerboard="0"
     inkscape:deskcolor="#505050"
     inkscape:document-units="mm"
     showgrid="false"
     inkscape:zoom="0.5946522"
     inkscape:cx="80.719452"
     inkscape:cy="249.72581"
     inkscape:window-width="1920"
     inkscape:window-height="991"
     inkscape:window-x="-9"
     inkscape:window-y="-9"
     inkscape:window-maximized="1"
     inkscape:current-layer="layer1" /><defs
     id="defs367" /><g
     inkscape:label="Sign"
     inkscape:groupmode="layer"
     id="layer1"><path
       style="fill:#dc0a14;fill-opacity:1;stroke:none;stroke-width:0.09525"
       d="M 27.898071,95.250003 2.6000006e-5,67.351965 2e-6,27.898094 27.898047,-1.1400003e-5 67.351905,2.9400007e-5 95.249928,27.898053 95.25,67.351925 67.351905,95.250011 Z"
       id="path2113"
       inkscape:connector-curvature="0"
       sodipodi:nodetypes="ccccccccc" /><path
       style="fill:none;fill-opacity:1;stroke:#ffffff;stroke-width:3.175;stroke-dasharray:none;stroke-opacity:1"
       d="M 30.046777,90.062574 5.1874536,65.203256 5.1874324,30.046797 30.046755,5.1874202 l 35.156449,3.68e-5 24.859303,24.859303 6.4e-5,35.15646 -24.859367,24.859358 z"
       id="path1331"
       inkscape:connector-curvature="0"
       sodipodi:nodetypes="ccccccccc" /><g
       id="g316"
       inkscape:label="Text"
       transform="matrix(0.4000001,0,0,0.4000001,-1.1600003e-5,-1.1400003e-5)"><path
         d="m 274.82159,290.81612 q -7.28789,0 -13.31445,-3.08334 -6.02653,-3.22347 -10.65155,-8.54927 -4.48488,-5.32577 -7.00761,-12.05309 -2.52272,-6.72729 -2.52272,-13.73488 0,-5.3258 1.82198,-8.96973 1.96212,-3.64396 4.90532,-6.02656 3.22349,-2.52274 8.1288,-3.78409 4.90534,-1.26138 13.73491,-1.26138 h 13.59475 v -18.50006 h -47.37139 v -11.21217 h 70.63662 v 11.21217 h -10.79171 v 54.51914 q 0,6.58718 -2.24241,11.35236 -2.1023,4.76512 -6.86745,7.42802 -4.62502,2.66288 -12.05309,2.66288 z m -0.14027,-11.35231 q 2.24244,0 3.78412,-0.56057 1.68181,-0.56065 2.80303,-1.68187 1.12122,-1.26133 1.68182,-3.22347 0.56062,-2.10228 0.56062,-6.72729 v -22.70464 h -12.19322 q -6.30686,0 -9.53036,0.70076 -3.08333,0.56062 -4.90531,2.10228 -1.40152,1.26138 -2.24244,3.08336 -0.70076,1.68181 -0.70076,4.34471 0,4.76515 1.68182,9.25003 1.82198,4.34472 4.62504,7.84851 2.94317,3.5038 6.58713,5.60608 3.78412,1.96211 7.84851,1.96211 z"
         style="font-weight:500;font-stretch:condensed;font-size:53.5561px;line-height:0.95;font-family:'Noto Sans Gurmukhi Condensed';-inkscape-font-specification:'Noto Sans Gurmukhi Condensed,  Medium Condensed';fill:#ffffff;stroke-width:3.50382"
         id="path292"
         transform="translate(-189.11527,-126.82396)" /><path
         d="m 270.19654,316.60412 q -7.84851,0 -13.7349,-1.68182 -6.02654,-1.68184 -10.23109,-3.92428 l 2.94317,-10.65152 q 4.06442,2.24244 9.39019,3.64395 5.3258,1.4015 11.63263,1.4015 6.447,0 11.77277,-1.4015 5.32577,-1.40151 9.39019,-3.64395 l 2.80304,10.65152 q -4.20456,2.24244 -10.23109,3.92428 -6.02656,1.68182 -13.73491,1.68182 z"
         style="font-weight:500;font-stretch:condensed;font-size:53.5561px;line-height:0.95;font-family:'Noto Sans Gurmukhi Condensed';-inkscape-font-specification:'Noto Sans Gurmukhi Condensed,  Medium Condensed';fill:#ffffff;stroke-width:3.50382"
         id="path294"
         transform="translate(-189.11527,-126.82396)" /><path
         d="m 360.73477,290.81612 q -0.42046,-8.40911 -1.68181,-16.39776 -1.26139,-7.9887 -3.64396,-14.57583 l -0.84092,-2.6629 q -3.2235,-7.56818 -7.98868,-12.05304 -4.76515,-4.48487 -11.3523,-4.48487 -5.46594,0 -9.25003,3.22349 -3.64396,3.22347 -3.64396,10.23112 0,7.28788 3.5038,10.37122 3.64395,3.08333 8.68943,3.08333 7.70835,0 12.47352,-4.90531 4.76518,-5.04548 7.28792,-12.61366 l 0.5606,-3.36366 q 1.26138,-4.34472 1.68184,-9.25003 0.42043,-4.90531 0.42043,-9.39019 0,-3.64396 -0.2803,-7.00759 -0.28029,-3.36366 -0.98105,-6.1667 h -50.87521 v -11.21217 h 75.40182 v 11.21217 h -11.77279 q 0.42046,2.10228 0.70079,6.02654 0.42043,3.92425 0.42043,6.86745 0,7.70838 -1.68182,15.97735 -1.54168,8.12881 -5.46593,15.27656 l -2.10228,2.9432 q -3.92425,7.70835 -10.65155,12.33339 -6.58715,4.62501 -15.83718,4.62501 -6.72732,0 -12.33339,-2.80304 -5.46594,-2.80306 -8.68943,-8.26897 -3.08334,-5.6061 -3.08334,-14.0152 0,-7.84854 3.08334,-13.31445 3.22349,-5.46594 8.68943,-8.40913 5.46594,-2.9432 12.05309,-2.9432 8.96973,0 15.1364,4.06442 6.1667,4.06439 11.21217,11.77276 l 2.24244,2.52274 q 3.64396,5.8864 5.8864,13.17428 2.38257,7.28792 3.64395,14.99627 1.26136,7.56821 1.82196,15.1364 z"
         style="font-weight:500;font-stretch:condensed;font-size:53.5561px;line-height:0.95;font-family:'Noto Sans Gurmukhi Condensed';-inkscape-font-specification:'Noto Sans Gurmukhi Condensed,  Medium Condensed';fill:#ffffff;stroke-width:3.50382"
         id="path296"
         transform="translate(-189.11527,-126.82396)" /><path
         d="m 354.56797,204.62261 q -0.56062,-6.02654 -1.54168,-9.39017 -1.12122,-3.50382 -2.80303,-4.90534 -1.82198,-1.40152 -4.62502,-1.40152 -1.26138,0 -2.9432,0.2803 -1.82197,0.14027 -3.36366,0.14027 -4.76517,0 -8.4091,-1.82198 -3.64396,-1.96211 -6.1667,-6.58713 -2.6629,-4.76518 -4.76517,-13.03415 l 11.072,-2.52274 q 1.26139,4.62502 2.52274,7.42806 1.12122,2.80306 2.9432,4.06441 1.82198,1.26138 4.48485,1.26138 1.68184,0 3.64396,-0.14026 1.96214,-0.14027 3.50382,-0.14027 4.90531,0 8.82957,2.38258 3.92425,2.24244 6.44699,8.12881 2.38258,5.74623 2.6629,16.25764 z"
         style="font-weight:500;font-stretch:condensed;font-size:53.5561px;line-height:0.95;font-family:'Noto Sans Gurmukhi Condensed';-inkscape-font-specification:'Noto Sans Gurmukhi Condensed,  Medium Condensed';fill:#ffffff;stroke-width:3.50382"
         id="path298"
         transform="translate(-189.11527,-126.82396)" /></g></g></svg>
