<?xml version="1.0" encoding="UTF-8" standalone="no"?>
<svg
   version="1.1"
   x="0px"
   y="0px"
   width="360px"
   height="360px"
   viewBox="797 802 360 360"
   enable-background="new 797 802 360 360"
   xml:space="preserve"
   id="svg3121"
   inkscape:version="1.2.1 (9c6d41e410, 2022-07-14)"
   sodipodi:docname="Indian Road Sign all motor vehicles prohibited.svg"
   xmlns:inkscape="http://www.inkscape.org/namespaces/inkscape"
   xmlns:sodipodi="http://sodipodi.sourceforge.net/DTD/sodipodi-0.dtd"
   xmlns="http://www.w3.org/2000/svg"
   xmlns:svg="http://www.w3.org/2000/svg"
   xmlns:rdf="http://www.w3.org/1999/02/22-rdf-syntax-ns#"
   xmlns:cc="http://creativecommons.org/ns#"
   xmlns:dc="http://purl.org/dc/elements/1.1/"><metadata
   id="metadata3135"><rdf:RDF><cc:Work
       rdf:about=""><dc:format>image/svg+xml</dc:format><dc:type
         rdf:resource="http://purl.org/dc/dcmitype/StillImage" /></cc:Work></rdf:RDF></metadata><defs
   id="defs3133"><inkscape:path-effect
     effect="fillet_chamfer"
     id="path-effect1250"
     is_visible="true"
     lpeversion="1"
     nodesatellites_param="F,0,0,1,0,3.86627,0,1 @ F,0,0,1,0,3.8662696,0,1 @ F,0,0,1,0,3.8662703,0,1 @ F,0,0,1,0,3.8662703,0,1"
     unit="px"
     method="auto"
     mode="F"
     radius="0"
     chamfer_steps="1"
     flexible="false"
     use_knot_distance="true"
     apply_no_radius="true"
     apply_with_radius="true"
     only_selected="false"
     hide_knots="false" /><inkscape:path-effect
     effect="fillet_chamfer"
     id="path-effect2969"
     is_visible="true"
     lpeversion="1"
     nodesatellites_param="F,0,0,1,0,5.0787595,0,1 @ F,0,0,1,0,5.078762,0,1 @ F,0,0,1,0,5.078762,0,1 @ F,0,0,1,0,5.078762,0,1"
     unit="px"
     method="auto"
     mode="F"
     radius="0"
     chamfer_steps="1"
     flexible="false"
     use_knot_distance="true"
     apply_no_radius="true"
     apply_with_radius="true"
     only_selected="false"
     hide_knots="false" /><inkscape:path-effect
     effect="fillet_chamfer"
     id="path-effect2963"
     is_visible="true"
     lpeversion="1"
     nodesatellites_param="F,0,0,1,0,5.0787595,0,1 @ F,0,0,1,0,5.078762,0,1 @ F,0,0,1,0,5.078762,0,1 @ F,0,0,1,0,5.078762,0,1"
     unit="px"
     method="auto"
     mode="F"
     radius="0"
     chamfer_steps="1"
     flexible="false"
     use_knot_distance="true"
     apply_no_radius="true"
     apply_with_radius="true"
     only_selected="false"
     hide_knots="false" /><inkscape:path-effect
     effect="fillet_chamfer"
     id="path-effect2888"
     is_visible="true"
     lpeversion="1"
     nodesatellites_param="F,0,0,1,0,5.0787595,0,1 @ F,0,0,1,0,5.078762,0,1 @ F,0,0,1,0,5.078762,0,1 @ F,0,0,1,0,5.078762,0,1"
     unit="px"
     method="auto"
     mode="F"
     radius="0"
     chamfer_steps="1"
     flexible="false"
     use_knot_distance="true"
     apply_no_radius="true"
     apply_with_radius="true"
     only_selected="false"
     hide_knots="false" /><inkscape:path-effect
     effect="fillet_chamfer"
     id="path-effect1250-3"
     is_visible="true"
     lpeversion="1"
     nodesatellites_param="F,0,0,1,0,3.86627,0,1 @ F,0,0,1,0,3.8662696,0,1 @ F,0,0,1,0,3.8662703,0,1 @ F,0,0,1,0,3.8662703,0,1"
     unit="px"
     method="auto"
     mode="F"
     radius="0"
     chamfer_steps="1"
     flexible="false"
     use_knot_distance="true"
     apply_no_radius="true"
     apply_with_radius="true"
     only_selected="false"
     hide_knots="false" /><inkscape:path-effect
     effect="fillet_chamfer"
     id="path-effect2969-8"
     is_visible="true"
     lpeversion="1"
     nodesatellites_param="F,0,0,1,0,5.0787595,0,1 @ F,0,0,1,0,5.078762,0,1 @ F,0,0,1,0,5.078762,0,1 @ F,0,0,1,0,5.078762,0,1"
     unit="px"
     method="auto"
     mode="F"
     radius="0"
     chamfer_steps="1"
     flexible="false"
     use_knot_distance="true"
     apply_no_radius="true"
     apply_with_radius="true"
     only_selected="false"
     hide_knots="false" /><inkscape:path-effect
     effect="fillet_chamfer"
     id="path-effect2963-9"
     is_visible="true"
     lpeversion="1"
     nodesatellites_param="F,0,0,1,0,5.0787595,0,1 @ F,0,0,1,0,5.078762,0,1 @ F,0,0,1,0,5.078762,0,1 @ F,0,0,1,0,5.078762,0,1"
     unit="px"
     method="auto"
     mode="F"
     radius="0"
     chamfer_steps="1"
     flexible="false"
     use_knot_distance="true"
     apply_no_radius="true"
     apply_with_radius="true"
     only_selected="false"
     hide_knots="false" /><inkscape:path-effect
     effect="fillet_chamfer"
     id="path-effect2888-3"
     is_visible="true"
     lpeversion="1"
     nodesatellites_param="F,0,0,1,0,5.0787595,0,1 @ F,0,0,1,0,5.078762,0,1 @ F,0,0,1,0,5.078762,0,1 @ F,0,0,1,0,5.078762,0,1"
     unit="px"
     method="auto"
     mode="F"
     radius="0"
     chamfer_steps="1"
     flexible="false"
     use_knot_distance="true"
     apply_no_radius="true"
     apply_with_radius="true"
     only_selected="false"
     hide_knots="false" /></defs><sodipodi:namedview
   pagecolor="#ffffff"
   bordercolor="#666666"
   borderopacity="1"
   objecttolerance="10"
   gridtolerance="10"
   guidetolerance="10"
   inkscape:pageopacity="0"
   inkscape:pageshadow="2"
   inkscape:window-width="1920"
   inkscape:window-height="991"
   id="namedview3131"
   showgrid="false"
   inkscape:zoom="1.4777778"
   inkscape:cx="209.09774"
   inkscape:cy="194.54887"
   inkscape:window-x="-9"
   inkscape:window-y="-9"
   inkscape:window-maximized="1"
   inkscape:current-layer="svg3121"
   inkscape:showpageshadow="0"
   inkscape:pagecheckerboard="0"
   inkscape:deskcolor="#d1d1d1"
   showguides="true" />
<g
   id="p1">
	<path
   d="M977.155,1145.256c-89.99,0-163.247-73.214-163.302-163.205v-0.211   c-0.027-43.63,16.935-84.65,47.76-115.514s71.825-47.875,115.445-47.902h0.103c89.99,0,163.249,73.214,163.304,163.206v0.21   c0.026,43.631-16.935,84.65-47.761,115.514c-30.825,30.864-71.824,47.876-115.445,47.902H977.155z"
   id="path3124"
   fill="#fff" /><circle
   style="opacity:1;fill:#ed1e24;fill-opacity:1;fill-rule:nonzero;stroke:none;stroke-width:1.10465;stroke-linecap:square;stroke-linejoin:round;stroke-miterlimit:4;stroke-dasharray:none;stroke-opacity:1;paint-order:stroke fill markers"
   id="path17"
   cx="977"
   cy="982"
   r="180" /><circle
   style="fill:#ffffff;fill-opacity:1;fill-rule:nonzero;stroke:none;stroke-width:0.980674;stroke-linecap:square;stroke-linejoin:round;stroke-miterlimit:4;stroke-dasharray:none;stroke-opacity:1;paint-order:stroke fill markers"
   id="circle821"
   cx="977"
   cy="982"
   r="144.00002"
   inkscape:label="Circle" />
	
</g>


<rect
   transform="matrix(-0.70710678,-0.70710678,-0.70710678,0.70710678,0,0)"
   style="opacity:1;fill:#ed1e24;fill-opacity:1;fill-rule:nonzero;stroke:none;stroke-width:6.47255;stroke-linecap:square;stroke-linejoin:round;stroke-miterlimit:4;stroke-dasharray:none;stroke-opacity:1;paint-order:stroke fill markers"
   id="rect1947"
   width="44.585682"
   height="357.08212"
   x="-1407.515"
   y="-175.00552" /><g
   inkscape:label="Layer 1"
   id="layer1"
   transform="matrix(3.6259991,0,0,3.6259991,1308.204,13.62036)"><g
     id="g1493"
     transform="matrix(1.1693594,0,0,1.1693594,16.070632,-9.711147)"><path
       id="path823"
       style="fill:#000000;fill-opacity:1;fill-rule:nonzero;stroke:none;stroke-width:0.211325"
       d="m -90.235444,238.78455 c -2.932781,0.0259 -5.264144,0.28468 -6.969601,0.44907 -1.433794,0.1511 -3.080985,1.19424 -3.570325,3.14503 l -1.55443,6.02288 c -0.77785,0.34082 -1.81734,1.53669 -1.84536,3.52175 l 0.48524,5.73144 c 0.1156,1.07362 0.50619,2.33792 1.33635,2.82928 v 3.8008 h 3.764114 v -3.76411 c 2.424561,0.17499 9.598016,0.24944 10.564213,0.24236 0.966197,0.007 8.140158,-0.0672 10.564729,-0.24236 v 3.76411 h 3.763595 v -3.8008 c 0.830157,-0.49136 1.220236,-1.75566 1.335836,-2.82928 l 0.485758,-5.73144 c -0.0281,-1.98506 -1.067498,-3.18093 -1.845365,-3.52175 l -1.554427,-6.02288 c -0.48935,-1.95079 -2.136518,-2.99393 -3.570325,-3.14503 -1.705454,-0.16439 -4.037336,-0.42366 -6.970117,-0.44907 z m 2.210201,1.82004 c 1.662394,0.007 4.771518,0.0719 6.095235,0.21808 l 3.084566,0.29197 c 0.705707,0.1136 1.482136,0.64909 1.711523,1.55339 l 1.153418,5.41569 c -4.721955,-0.41363 -9.192651,-0.50654 -12.044742,-0.5581 -2.852114,0.0525 -7.323304,0.14447 -12.045257,0.5581 l 1.153415,-5.41569 c 0.22938,-0.9043 1.00686,-1.43979 1.712557,-1.55339 l 3.084049,-0.29197 c 1.323727,-0.14545 4.432859,-0.21086 6.095236,-0.21808 z m -12.142927,10.20145 h 24.285855 v 1.09295 h -24.285855 z m 0,2.18539 h 24.285855 v 1.09296 h -24.285855 z" /><path
       id="circle831"
       style="opacity:1;stroke-width:16.7746;stroke-linecap:square;stroke-linejoin:round;paint-order:stroke fill markers"
       d="m -97.557511,252.20201 a 3.0357199,3.0357199 0 0 1 -3.035719,3.03572 3.0357199,3.0357199 0 0 1 -3.03572,-3.03572 3.0357199,3.0357199 0 0 1 3.03572,-3.03572 3.0357199,3.0357199 0 0 1 3.035719,3.03572 z" /><path
       id="circle833"
       style="opacity:1;fill:#ffffff;fill-opacity:1;stroke-width:11.0713;stroke-linecap:square;stroke-linejoin:round;paint-order:stroke fill markers"
       d="m -98.589655,252.20201 a 2.0035765,2.0035765 0 0 1 -2.003575,2.00358 2.0035765,2.0035765 0 0 1 -2.00358,-2.00358 2.0035765,2.0035765 0 0 1 2.00358,-2.00358 2.0035765,2.0035765 0 0 1 2.003575,2.00358 z" /><circle
       r="3.0357199"
       cy="252.20201"
       cx="-75.457588"
       id="circle835"
       style="opacity:1;fill:#000000;fill-opacity:1;fill-rule:nonzero;stroke:none;stroke-width:16.7746;stroke-linecap:square;stroke-linejoin:round;stroke-miterlimit:4;stroke-dasharray:none;stroke-opacity:1;paint-order:stroke fill markers" /><path
       id="circle837"
       style="opacity:1;fill:#ffffff;stroke-width:11.0713;stroke-linecap:square;stroke-linejoin:round;paint-order:stroke fill markers"
       d="m -73.454012,252.20201 a 2.0035765,2.0035765 0 0 1 -2.003576,2.00358 2.0035765,2.0035765 0 0 1 -2.003577,-2.00358 2.0035765,2.0035765 0 0 1 2.003577,-2.00358 2.0035765,2.0035765 0 0 1 2.003576,2.00358 z" /></g></g><g
   id="g1500"
   transform="matrix(1.1297444,0,0,1.1297444,219.21686,-199.77233)"><g
     inkscape:label="Layer 1"
     id="layer1-7"
     transform="matrix(3.7795276,0,0,3.7795276,871.87477,-15.770423)"><path
       id="path822"
       style="fill:#000000;fill-opacity:1;fill-rule:nonzero;stroke:none;stroke-width:0.224144"
       d="m -58.929151,250.89209 -0.49767,0.0672 -0.468395,0.17474 -0.414419,0.26667 -0.38789,0.38789 -0.309214,0.45467 -0.242431,0.48212 -0.172446,0.52237 -0.08051,0.53106 h 0.629864 l 0.08051,0.90981 0.06724,0.29366 0.132194,0.28268 0.199434,0.22597 0.255696,0.17519 0.282226,0.1052 0.307384,0.038 h 0.282227 l 0.201721,0.75108 -3.9315,4.07924 -0.912089,-0.28223 -0.923525,-0.18616 -0.9528,-0.0805 h -0.9528 l -0.950055,0.10749 -0.925812,0.19944 -0.912547,0.28222 0.562623,3.55734 1.423482,0.62757 -0.777609,1.05801 -0.686125,-0.30739 -0.724092,-0.24197 -0.737356,-0.13219 -0.764344,-0.0535 -0.750621,0.027 -0.791331,0.13219 v 0.64313 l -0.724092,0.23968 -0.683838,0.33392 -0.643128,0.41488 -0.575888,0.49309 -0.509106,0.57589 -0.416706,0.62758 -0.347637,0.68383 -0.241974,0.72181 -0.159181,0.73507 -0.05398,0.76205 0.05398,0.76206 0.147746,0.74879 0.240143,0.72135 0.333915,0.68155 0.416707,0.62986 0.509105,0.57361 0.575888,0.49538 0.63215,0.42814 0.683839,0.33163 0.723633,0.24243 0.737814,0.14774 0.762057,0.0517 0.764344,-0.0517 0.750621,-0.14774 0.713113,-0.24243 0.683381,-0.3449 0.643586,-0.41487 0.562623,-0.50865 0.49767,-0.5736 0.428142,-0.62986 0.336201,-0.68156 h 0.667829 l 0.214986,-0.7465 0.134481,-0.74833 0.04025,-0.77807 -0.05352,-0.77532 -0.148203,-0.74879 -0.241974,-0.73507 -0.320649,-0.70809 -0.41442,-0.65685 -0.482118,-0.60058 0.858572,-0.84302 3.001571,2.6338 -0.09423,0.53564 v 0.53335 l 0.0805,0.53335 0.175191,0.5091 0.13448,0.52191 0.226422,0.49539 0.309214,0.44186 0.376454,0.38743 0.441407,0.3051 0.493553,0.24197 0.605163,0.15918 8.972692,0.0403 -4.57e-4,0.002 0.336659,0.68155 0.427685,0.64313 0.511392,0.57406 0.575888,0.49538 0.627576,0.42814 0.683839,0.33391 0.739643,0.25524 0.751079,0.14592 0.764344,0.038 0.764343,-0.0494 0.750622,-0.14774 0.724091,-0.2557 0.683838,-0.34718 0.632151,-0.42814 0.562165,-0.50865 0.506818,-0.58732 0.416707,-0.6413 0.320649,-0.68109 0.241974,-0.73507 h 0.643586 l 0.120758,-0.74879 0.04071,-0.76206 -0.06724,-0.75108 -0.148203,-0.74833 -0.226422,-0.72181 -0.322479,-0.69481 -0.387889,-0.64313 -0.470683,-0.59876 -0.54707,-0.53564 -0.591898,-0.46839 0.327511,-0.52237 -1.959117,-1.95226 -6.211266,-0.0942 -1.181051,0.62987 0.120758,-0.67012 v -0.69482 l -0.120758,-0.66782 -0.724091,-1.38964 -0.791331,-1.33794 -0.88556,-1.28443 -0.963778,-1.23045 -1.133936,-1.29129 -0.997627,-0.98162 0.159181,-0.49538 0.08051,-0.50865 -0.01326,-0.52237 -0.09423,-0.50636 -0.118929,-0.41259 -0.187998,-0.40115 -0.282684,-0.34993 -0.333914,-0.2932 -0.376454,-0.21316 -0.417165,-0.14774 -0.441407,-0.0672 z m -12.22081,17.26109 0.52237,0.065 0.52237,0.14591 -0.681551,0.95006 h -0.0018 l -0.470682,-0.0672 -0.468853,0.0403 -0.443694,0.12122 -0.41442,0.21269 -0.376911,0.29367 -0.293662,0.3609 -0.225964,0.40344 -0.134938,0.45513 -0.05352,0.45056 0.04025,0.46839 0.147745,0.45467 0.215444,0.40162 0.306927,0.36044 0.360902,0.29595 0.414877,0.21316 0.456959,0.13448 0.45513,0.027 0.470683,-0.054 0.441864,-0.14775 0.416707,-0.22642 0.34535,-0.30921 0.282226,-0.37463 0.201721,-0.41442 0.121216,-0.45513 0.0247,-0.46382 -0.06724,-0.46839 -0.156894,-0.44187 -0.242431,-0.40115 0.789044,-0.77532 0.309672,0.4414 0.226421,0.47983 0.161011,0.50636 0.08096,0.53564 -0.01372,0.53563 -0.08051,0.52009 -0.172904,0.50865 -0.255239,0.48211 -0.309213,0.42586 -0.385603,0.37417 -0.430429,0.32064 -0.482118,0.24198 -0.510935,0.15918 -0.535635,0.0942 h -0.533348 l -0.524658,-0.081 -0.509105,-0.17244 -0.483947,-0.24198 -0.441407,-0.30692 -0.390177,-0.37463 -0.306927,-0.42814 -0.253409,-0.46839 -0.174733,-0.50636 -0.09423,-0.53335 -0.01372,-0.53564 0.08096,-0.53609 0.161468,-0.50865 0.226422,-0.47983 0.306927,-0.43912 0.363189,-0.39018 0.430429,-0.32019 0.468395,-0.25341 0.508648,-0.18845 0.537922,-0.0892 z m 28.175973,1.17648 0.414877,0.46153 0.147746,0.47755 0.228709,0.66371 0.06724,0.56216 -0.02699,0.54708 -0.121215,0.53563 -0.201721,0.52237 -0.268961,0.47983 -0.360902,0.41671 -0.41442,0.37417 -0.468395,0.29137 -0.509105,0.21544 -0.537923,0.11847 -0.562623,0.0403 -0.551187,-0.0403 -0.535635,-0.13219 -0.509106,-0.2127 -0.470682,-0.30738 -0.41259,-0.36045 -0.349466,-0.42814 -0.268962,-0.48212 0.939077,-0.58915 0.215444,0.40115 0.282226,0.36091 0.347637,0.29549 0.403442,0.21315 0.428142,0.13449 0.45696,0.0512 0.439578,-0.0265 0.443694,-0.11893 0.414877,-0.19944 0.349467,-0.28268 0.309214,-0.33391 0.226421,-0.40116 0.148203,-0.42814 0.06495,-0.44141 -0.02699,-0.45513 -0.105206,-0.44141 -0.188456,-0.41259 -0.320649,-0.42814 z" /><path
       style="fill:#ffffff;fill-opacity:1;fill-rule:nonzero;stroke:none;stroke-width:0.224144"
       d="m -61.065115,261.62159 2.174245,-1.4838 1.849243,2.29967 -1.232826,0.85621 -2.790662,-1.67208"
       id="path824"
       inkscape:connector-curvature="0" /></g></g></svg>
