<?xml version="1.0" encoding="UTF-8" standalone="no"?>
<!-- Created with Inkscape (http://www.inkscape.org/) -->

<svg
   width="360"
   height="360"
   viewBox="0 0 95.249998 95.249999"
   version="1.1"
   id="svg859"
   xml:space="preserve"
   inkscape:version="1.2.1 (9c6d41e410, 2022-07-14)"
   sodipodi:docname="Indian Road Sign overtaking prohibited.svg"
   xmlns:inkscape="http://www.inkscape.org/namespaces/inkscape"
   xmlns:sodipodi="http://sodipodi.sourceforge.net/DTD/sodipodi-0.dtd"
   xmlns="http://www.w3.org/2000/svg"
   xmlns:svg="http://www.w3.org/2000/svg"><sodipodi:namedview
     id="namedview861"
     pagecolor="#505050"
     bordercolor="#eeeeee"
     borderopacity="1"
     inkscape:showpageshadow="0"
     inkscape:pageopacity="0"
     inkscape:pagecheckerboard="0"
     inkscape:deskcolor="#505050"
     inkscape:document-units="mm"
     showgrid="false"
     showguides="true"
     inkscape:zoom="1"
     inkscape:cx="82.5"
     inkscape:cy="100.5"
     inkscape:window-width="1920"
     inkscape:window-height="991"
     inkscape:window-x="-9"
     inkscape:window-y="-9"
     inkscape:window-maximized="1"
     inkscape:current-layer="layer1"><sodipodi:guide
       position="127.42055,94.778071"
       orientation="1,0"
       id="guide2227"
       inkscape:locked="false" /><sodipodi:guide
       position="54.779881,13.58688"
       orientation="0,-1"
       id="guide293"
       inkscape:locked="false" /></sodipodi:namedview><defs
     id="defs856"><inkscape:perspective
       sodipodi:type="inkscape:persp3d"
       inkscape:vp_x="0 : 47.625 : 1"
       inkscape:vp_y="0 : 1000 : 0"
       inkscape:vp_z="95.249998 : 47.625 : 1"
       inkscape:persp3d-origin="47.624999 : 31.75 : 1"
       id="perspective2757" /><inkscape:path-effect
       effect="fillet_chamfer"
       id="path-effect1250"
       is_visible="true"
       lpeversion="1"
       nodesatellites_param="F,0,0,1,0,3.86627,0,1 @ F,0,0,1,0,3.8662696,0,1 @ F,0,0,1,0,3.8662703,0,1 @ F,0,0,1,0,3.8662703,0,1"
       unit="px"
       method="auto"
       mode="F"
       radius="0"
       chamfer_steps="1"
       flexible="false"
       use_knot_distance="true"
       apply_no_radius="true"
       apply_with_radius="true"
       only_selected="false"
       hide_knots="false" /><inkscape:path-effect
       effect="fillet_chamfer"
       id="path-effect2969"
       is_visible="true"
       lpeversion="1"
       nodesatellites_param="F,0,0,1,0,5.0787595,0,1 @ F,0,0,1,0,5.078762,0,1 @ F,0,0,1,0,5.078762,0,1 @ F,0,0,1,0,5.078762,0,1"
       unit="px"
       method="auto"
       mode="F"
       radius="0"
       chamfer_steps="1"
       flexible="false"
       use_knot_distance="true"
       apply_no_radius="true"
       apply_with_radius="true"
       only_selected="false"
       hide_knots="false" /><inkscape:path-effect
       effect="fillet_chamfer"
       id="path-effect2963"
       is_visible="true"
       lpeversion="1"
       nodesatellites_param="F,0,0,1,0,5.0787595,0,1 @ F,0,0,1,0,5.078762,0,1 @ F,0,0,1,0,5.078762,0,1 @ F,0,0,1,0,5.078762,0,1"
       unit="px"
       method="auto"
       mode="F"
       radius="0"
       chamfer_steps="1"
       flexible="false"
       use_knot_distance="true"
       apply_no_radius="true"
       apply_with_radius="true"
       only_selected="false"
       hide_knots="false" /><inkscape:path-effect
       effect="fillet_chamfer"
       id="path-effect2888"
       is_visible="true"
       lpeversion="1"
       nodesatellites_param="F,0,0,1,0,5.0787595,0,1 @ F,0,0,1,0,5.078762,0,1 @ F,0,0,1,0,5.078762,0,1 @ F,0,0,1,0,5.078762,0,1"
       unit="px"
       method="auto"
       mode="F"
       radius="0"
       chamfer_steps="1"
       flexible="false"
       use_knot_distance="true"
       apply_no_radius="true"
       apply_with_radius="true"
       only_selected="false"
       hide_knots="false" /><inkscape:path-effect
       effect="fillet_chamfer"
       id="path-effect1250-3"
       is_visible="true"
       lpeversion="1"
       nodesatellites_param="F,0,0,1,0,3.86627,0,1 @ F,0,0,1,0,3.8662696,0,1 @ F,0,0,1,0,3.8662703,0,1 @ F,0,0,1,0,3.8662703,0,1"
       unit="px"
       method="auto"
       mode="F"
       radius="0"
       chamfer_steps="1"
       flexible="false"
       use_knot_distance="true"
       apply_no_radius="true"
       apply_with_radius="true"
       only_selected="false"
       hide_knots="false" /><inkscape:path-effect
       effect="fillet_chamfer"
       id="path-effect2969-8"
       is_visible="true"
       lpeversion="1"
       nodesatellites_param="F,0,0,1,0,5.0787595,0,1 @ F,0,0,1,0,5.078762,0,1 @ F,0,0,1,0,5.078762,0,1 @ F,0,0,1,0,5.078762,0,1"
       unit="px"
       method="auto"
       mode="F"
       radius="0"
       chamfer_steps="1"
       flexible="false"
       use_knot_distance="true"
       apply_no_radius="true"
       apply_with_radius="true"
       only_selected="false"
       hide_knots="false" /><inkscape:path-effect
       effect="fillet_chamfer"
       id="path-effect2963-9"
       is_visible="true"
       lpeversion="1"
       nodesatellites_param="F,0,0,1,0,5.0787595,0,1 @ F,0,0,1,0,5.078762,0,1 @ F,0,0,1,0,5.078762,0,1 @ F,0,0,1,0,5.078762,0,1"
       unit="px"
       method="auto"
       mode="F"
       radius="0"
       chamfer_steps="1"
       flexible="false"
       use_knot_distance="true"
       apply_no_radius="true"
       apply_with_radius="true"
       only_selected="false"
       hide_knots="false" /><inkscape:path-effect
       effect="fillet_chamfer"
       id="path-effect2888-3"
       is_visible="true"
       lpeversion="1"
       nodesatellites_param="F,0,0,1,0,5.0787595,0,1 @ F,0,0,1,0,5.078762,0,1 @ F,0,0,1,0,5.078762,0,1 @ F,0,0,1,0,5.078762,0,1"
       unit="px"
       method="auto"
       mode="F"
       radius="0"
       chamfer_steps="1"
       flexible="false"
       use_knot_distance="true"
       apply_no_radius="true"
       apply_with_radius="true"
       only_selected="false"
       hide_knots="false" /></defs><g
     inkscape:label="Sign"
     inkscape:groupmode="layer"
     id="layer1"><circle
       style="opacity:1;fill:#ed1e24;fill-opacity:1;fill-rule:nonzero;stroke:none;stroke-width:0.292273;stroke-linecap:square;stroke-linejoin:round;stroke-miterlimit:4;stroke-dasharray:none;stroke-opacity:1;paint-order:stroke fill markers"
       id="path17"
       cx="47.625"
       cy="47.625"
       r="47.625" /><circle
       style="fill:#ffffff;fill-opacity:1;fill-rule:nonzero;stroke:none;stroke-width:0.25947;stroke-linecap:square;stroke-linejoin:round;stroke-miterlimit:4;stroke-dasharray:none;stroke-opacity:1;paint-order:stroke fill markers"
       id="circle821"
       cx="47.625"
       cy="47.625"
       r="38.100002"
       inkscape:label="Circle" /><path
       sodipodi:nodetypes="cccccccccccccccccccccc"
       inkscape:connector-curvature="0"
       id="path2764"
       d="m 22.568933,38.058921 c -2.200084,0.0186 -3.949081,0.212979 -5.228485,0.336016 -1.075626,0.113098 -2.311552,0.895443 -2.678934,2.358787 L 13.49461,45.27158 c -0.583564,0.255663 -1.363621,1.152437 -1.38494,2.641481 l 0.363503,4.299747 c 0.08657,0.805317 0.379083,1.753976 1.001773,2.122725 l -5.51e-4,2.851231 2.82393,5.97e-4 5.99e-4,-2.823922 c 1.818812,0.131658 7.19993,0.188932 7.924755,0.183736 0.724817,0.0056 6.106427,-0.04973 7.925293,-0.180621 l -5.62e-4,2.823926 2.823456,5.99e-4 5.63e-4,-2.851232 c 0.622773,-0.368552 0.915665,-1.317096 1.002545,-2.122378 L 36.34017,47.917823 C 36.31942,46.42877 35.53972,45.531686 34.956261,45.275797 l -1.165113,-4.518313 c -0.3668,-1.463489 -1.602429,-2.246311 -2.678009,-2.359838 -1.279352,-0.12354 -3.028266,-0.31861 -5.228357,-0.338075 z"
       style="fill:#000000;fill-opacity:1;fill-rule:nonzero;stroke:none;stroke-width:0.15853" /><path
       inkscape:connector-curvature="0"
       id="path2766"
       d="m 15.189308,45.034977 0.866002,-4.062724 c 0.172222,-0.678376 0.755425,-1.080121 1.284861,-1.165287 l 2.313695,-0.218424 c 0.99307,-0.108934 3.325595,-0.157699 4.572726,-0.162921 1.247136,0.0057 3.579636,0.05536 4.572668,0.164721 l 2.314083,0.219339 c 0.5294,0.08536 1.111969,0.487346 1.283922,1.165782 l 0.864406,4.063059 c -3.542371,-0.310997 -6.89645,-0.381629 -9.036102,-0.420728 -2.139677,0.03829 -5.49377,0.107575 -9.036261,0.417183 z"
       style="fill:#ffffff;fill-opacity:1;fill-rule:nonzero;stroke:none;stroke-width:0.15853" /><rect
       transform="matrix(-0.70710679,-0.70710679,-0.70710679,0.70710679,0,0)"
       style="opacity:1;fill:#ed1e24;fill-opacity:1;fill-rule:nonzero;stroke:none;stroke-width:1.71253;stroke-linecap:square;stroke-linejoin:round;stroke-miterlimit:4;stroke-dasharray:none;stroke-opacity:1;paint-order:stroke fill markers"
       id="rect1947"
       width="11.796628"
       height="94.477974"
       x="-73.250237"
       y="-47.238987" /><path
       sodipodi:nodetypes="cccccccccccccccccccccc"
       inkscape:connector-curvature="0"
       id="path4522"
       d="m 69.3411,38.058921 c -2.200084,0.0186 -3.949081,0.212979 -5.228485,0.336016 -1.075626,0.113098 -2.311552,0.895443 -2.678934,2.358787 l -1.166904,4.517856 c -0.583564,0.255663 -1.363621,1.152437 -1.38494,2.641481 l 0.363503,4.299747 c 0.08657,0.805317 0.379083,1.753976 1.001773,2.122725 l -5.51e-4,2.851231 2.82393,5.97e-4 5.99e-4,-2.823922 c 1.818812,0.131658 7.19993,0.188932 7.924755,0.183736 0.724817,0.0056 6.106427,-0.04973 7.925293,-0.180621 l -5.62e-4,2.823926 2.823456,5.99e-4 5.63e-4,-2.851232 c 0.622773,-0.368552 0.915665,-1.317096 1.002545,-2.122378 l 0.365196,-4.299646 c -0.02075,-1.489053 -0.80045,-2.386137 -1.383909,-2.642026 l -1.165113,-4.518313 c -0.3668,-1.463489 -1.602429,-2.246311 -2.678009,-2.359838 -1.279352,-0.12354 -3.028266,-0.31861 -5.228357,-0.338075 z"
       style="fill:#000000;fill-opacity:1;fill-rule:nonzero;stroke:none;stroke-width:0.15853" /><path
       inkscape:connector-curvature="0"
       id="path4524"
       d="m 61.961475,45.034977 0.866002,-4.062724 c 0.172222,-0.678376 0.755425,-1.080121 1.284861,-1.165287 l 2.313695,-0.218424 c 0.99307,-0.108934 3.325595,-0.157699 4.572726,-0.162921 1.247136,0.0057 3.579636,0.05536 4.572668,0.164721 l 2.314083,0.219339 c 0.5294,0.08536 1.111969,0.487346 1.283922,1.165782 l 0.864406,4.063059 c -3.542371,-0.310997 -6.89645,-0.381629 -9.036102,-0.420728 -2.139677,0.03829 -5.49377,0.107575 -9.036261,0.417183 z"
       style="fill:#ffffff;fill-opacity:1;fill-rule:nonzero;stroke:none;stroke-width:0.15853" /></g></svg>
