<?xml version="1.0" encoding="UTF-8" standalone="no"?>
<!-- Created with Inkscape (http://www.inkscape.org/) -->

<svg
   width="220.13857"
   height="86.823059"
   viewBox="0 0 58.244992 22.971934"
   version="1.1"
   id="svg5"
   xml:space="preserve"
   inkscape:version="1.2.1 (9c6d41e410, 2022-07-14)"
   sodipodi:docname="Indian_Road_Sign_parking 1B.svg"
   xmlns:inkscape="http://www.inkscape.org/namespaces/inkscape"
   xmlns:sodipodi="http://sodipodi.sourceforge.net/DTD/sodipodi-0.dtd"
   xmlns="http://www.w3.org/2000/svg"
   xmlns:svg="http://www.w3.org/2000/svg"><sodipodi:namedview
     id="namedview7"
     pagecolor="#505050"
     bordercolor="#eeeeee"
     borderopacity="1"
     inkscape:showpageshadow="0"
     inkscape:pageopacity="0"
     inkscape:pagecheckerboard="0"
     inkscape:deskcolor="#505050"
     inkscape:document-units="mm"
     showgrid="false"
     showguides="true"
     inkscape:zoom="1.4142136"
     inkscape:cx="-109.9551"
     inkscape:cy="78.842404"
     inkscape:window-width="1920"
     inkscape:window-height="991"
     inkscape:window-x="-9"
     inkscape:window-y="-9"
     inkscape:window-maximized="1"
     inkscape:current-layer="layer1"><sodipodi:guide
       position="88.394486,3.6447189"
       orientation="1,0"
       id="guide2412"
       inkscape:locked="false" /></sodipodi:namedview><defs
     id="defs2"><inkscape:path-effect
       effect="fillet_chamfer"
       id="path-effect1250"
       is_visible="true"
       lpeversion="1"
       nodesatellites_param="F,0,0,1,0,4.4119731,0,1 @ F,0,1,1,0,4.4119731,0,1 @ F,0,1,1,0,4.4119731,0,1 @ F,0,1,1,0,4.4119731,0,1"
       unit="px"
       method="auto"
       mode="F"
       radius="0"
       chamfer_steps="1"
       flexible="false"
       use_knot_distance="true"
       apply_no_radius="true"
       apply_with_radius="true"
       only_selected="false"
       hide_knots="false" /><inkscape:path-effect
       effect="fillet_chamfer"
       id="path-effect2969"
       is_visible="true"
       lpeversion="1"
       nodesatellites_param="F,0,0,1,0,5.0787595,0,1 @ F,0,0,1,0,5.078762,0,1 @ F,0,0,1,0,5.078762,0,1 @ F,0,0,1,0,5.078762,0,1"
       unit="px"
       method="auto"
       mode="F"
       radius="0"
       chamfer_steps="1"
       flexible="false"
       use_knot_distance="true"
       apply_no_radius="true"
       apply_with_radius="true"
       only_selected="false"
       hide_knots="false" /><inkscape:path-effect
       effect="fillet_chamfer"
       id="path-effect2963"
       is_visible="true"
       lpeversion="1"
       nodesatellites_param="F,0,0,1,0,5.0787595,0,1 @ F,0,0,1,0,5.078762,0,1 @ F,0,0,1,0,5.078762,0,1 @ F,0,0,1,0,5.078762,0,1"
       unit="px"
       method="auto"
       mode="F"
       radius="0"
       chamfer_steps="1"
       flexible="false"
       use_knot_distance="true"
       apply_no_radius="true"
       apply_with_radius="true"
       only_selected="false"
       hide_knots="false" /><inkscape:path-effect
       effect="fillet_chamfer"
       id="path-effect2888"
       is_visible="true"
       lpeversion="1"
       nodesatellites_param="F,0,0,1,0,5.0787595,0,1 @ F,0,0,1,0,5.078762,0,1 @ F,0,0,1,0,5.078762,0,1 @ F,0,0,1,0,5.078762,0,1"
       unit="px"
       method="auto"
       mode="F"
       radius="0"
       chamfer_steps="1"
       flexible="false"
       use_knot_distance="true"
       apply_no_radius="true"
       apply_with_radius="true"
       only_selected="false"
       hide_knots="false" /><inkscape:path-effect
       effect="fillet_chamfer"
       id="path-effect1250-3"
       is_visible="true"
       lpeversion="1"
       nodesatellites_param="F,0,0,1,0,3.86627,0,1 @ F,0,0,1,0,3.8662696,0,1 @ F,0,0,1,0,3.8662703,0,1 @ F,0,0,1,0,3.8662703,0,1"
       unit="px"
       method="auto"
       mode="F"
       radius="0"
       chamfer_steps="1"
       flexible="false"
       use_knot_distance="true"
       apply_no_radius="true"
       apply_with_radius="true"
       only_selected="false"
       hide_knots="false" /><inkscape:path-effect
       effect="fillet_chamfer"
       id="path-effect2969-8"
       is_visible="true"
       lpeversion="1"
       nodesatellites_param="F,0,0,1,0,5.0787595,0,1 @ F,0,0,1,0,5.078762,0,1 @ F,0,0,1,0,5.078762,0,1 @ F,0,0,1,0,5.078762,0,1"
       unit="px"
       method="auto"
       mode="F"
       radius="0"
       chamfer_steps="1"
       flexible="false"
       use_knot_distance="true"
       apply_no_radius="true"
       apply_with_radius="true"
       only_selected="false"
       hide_knots="false" /><inkscape:path-effect
       effect="fillet_chamfer"
       id="path-effect2963-9"
       is_visible="true"
       lpeversion="1"
       nodesatellites_param="F,0,0,1,0,5.0787595,0,1 @ F,0,0,1,0,5.078762,0,1 @ F,0,0,1,0,5.078762,0,1 @ F,0,0,1,0,5.078762,0,1"
       unit="px"
       method="auto"
       mode="F"
       radius="0"
       chamfer_steps="1"
       flexible="false"
       use_knot_distance="true"
       apply_no_radius="true"
       apply_with_radius="true"
       only_selected="false"
       hide_knots="false" /><inkscape:path-effect
       effect="fillet_chamfer"
       id="path-effect2888-3"
       is_visible="true"
       lpeversion="1"
       nodesatellites_param="F,0,0,1,0,5.0787595,0,1 @ F,0,0,1,0,5.078762,0,1 @ F,0,0,1,0,5.078762,0,1 @ F,0,0,1,0,5.078762,0,1"
       unit="px"
       method="auto"
       mode="F"
       radius="0"
       chamfer_steps="1"
       flexible="false"
       use_knot_distance="true"
       apply_no_radius="true"
       apply_with_radius="true"
       only_selected="false"
       hide_knots="false" /><inkscape:path-effect
       effect="fillet_chamfer"
       id="path-effect1250-0"
       is_visible="true"
       lpeversion="1"
       nodesatellites_param="F,0,0,1,0,3.86627,0,1 @ F,0,0,1,0,3.8662696,0,1 @ F,0,0,1,0,3.8662703,0,1 @ F,0,0,1,0,3.8662703,0,1"
       unit="px"
       method="auto"
       mode="F"
       radius="0"
       chamfer_steps="1"
       flexible="false"
       use_knot_distance="true"
       apply_no_radius="true"
       apply_with_radius="true"
       only_selected="false"
       hide_knots="false" /><inkscape:path-effect
       effect="fillet_chamfer"
       id="path-effect2969-4"
       is_visible="true"
       lpeversion="1"
       nodesatellites_param="F,0,0,1,0,5.0787595,0,1 @ F,0,0,1,0,5.078762,0,1 @ F,0,0,1,0,5.078762,0,1 @ F,0,0,1,0,5.078762,0,1"
       unit="px"
       method="auto"
       mode="F"
       radius="0"
       chamfer_steps="1"
       flexible="false"
       use_knot_distance="true"
       apply_no_radius="true"
       apply_with_radius="true"
       only_selected="false"
       hide_knots="false" /><inkscape:path-effect
       effect="fillet_chamfer"
       id="path-effect2963-6"
       is_visible="true"
       lpeversion="1"
       nodesatellites_param="F,0,0,1,0,5.0787595,0,1 @ F,0,0,1,0,5.078762,0,1 @ F,0,0,1,0,5.078762,0,1 @ F,0,0,1,0,5.078762,0,1"
       unit="px"
       method="auto"
       mode="F"
       radius="0"
       chamfer_steps="1"
       flexible="false"
       use_knot_distance="true"
       apply_no_radius="true"
       apply_with_radius="true"
       only_selected="false"
       hide_knots="false" /><inkscape:path-effect
       effect="fillet_chamfer"
       id="path-effect2888-7"
       is_visible="true"
       lpeversion="1"
       nodesatellites_param="F,0,0,1,0,5.0787595,0,1 @ F,0,0,1,0,5.078762,0,1 @ F,0,0,1,0,5.078762,0,1 @ F,0,0,1,0,5.078762,0,1"
       unit="px"
       method="auto"
       mode="F"
       radius="0"
       chamfer_steps="1"
       flexible="false"
       use_knot_distance="true"
       apply_no_radius="true"
       apply_with_radius="true"
       only_selected="false"
       hide_knots="false" /><inkscape:path-effect
       effect="fillet_chamfer"
       id="path-effect1250-3-2"
       is_visible="true"
       lpeversion="1"
       nodesatellites_param="F,0,0,1,0,3.86627,0,1 @ F,0,0,1,0,3.8662696,0,1 @ F,0,0,1,0,3.8662703,0,1 @ F,0,0,1,0,3.8662703,0,1"
       unit="px"
       method="auto"
       mode="F"
       radius="0"
       chamfer_steps="1"
       flexible="false"
       use_knot_distance="true"
       apply_no_radius="true"
       apply_with_radius="true"
       only_selected="false"
       hide_knots="false" /><inkscape:path-effect
       effect="fillet_chamfer"
       id="path-effect2969-8-8"
       is_visible="true"
       lpeversion="1"
       nodesatellites_param="F,0,0,1,0,5.0787595,0,1 @ F,0,0,1,0,5.078762,0,1 @ F,0,0,1,0,5.078762,0,1 @ F,0,0,1,0,5.078762,0,1"
       unit="px"
       method="auto"
       mode="F"
       radius="0"
       chamfer_steps="1"
       flexible="false"
       use_knot_distance="true"
       apply_no_radius="true"
       apply_with_radius="true"
       only_selected="false"
       hide_knots="false" /><inkscape:path-effect
       effect="fillet_chamfer"
       id="path-effect2963-9-4"
       is_visible="true"
       lpeversion="1"
       nodesatellites_param="F,0,0,1,0,5.0787595,0,1 @ F,0,0,1,0,5.078762,0,1 @ F,0,0,1,0,5.078762,0,1 @ F,0,0,1,0,5.078762,0,1"
       unit="px"
       method="auto"
       mode="F"
       radius="0"
       chamfer_steps="1"
       flexible="false"
       use_knot_distance="true"
       apply_no_radius="true"
       apply_with_radius="true"
       only_selected="false"
       hide_knots="false" /><inkscape:path-effect
       effect="fillet_chamfer"
       id="path-effect2888-3-9"
       is_visible="true"
       lpeversion="1"
       nodesatellites_param="F,0,0,1,0,5.0787595,0,1 @ F,0,0,1,0,5.078762,0,1 @ F,0,0,1,0,5.078762,0,1 @ F,0,0,1,0,5.078762,0,1"
       unit="px"
       method="auto"
       mode="F"
       radius="0"
       chamfer_steps="1"
       flexible="false"
       use_knot_distance="true"
       apply_no_radius="true"
       apply_with_radius="true"
       only_selected="false"
       hide_knots="false" /></defs><g
     inkscape:label="Sign"
     inkscape:groupmode="layer"
     id="layer1"
     transform="translate(0.13677423,0.12795649)"><g
       id="g352"
       inkscape:label="BG"><rect
         style="fill:#000000;fill-opacity:1;stroke:none;stroke-width:0.480467"
         id="rect629"
         width="58.244995"
         height="22.971935"
         x="-0.13677423"
         y="-0.12795649" /><path
         id="rect1394"
         style="fill:#ffcb00;fill-opacity:1;stroke-width:0.445888"
         d="M 1.0935178,1.0763653 H 56.877934 V 21.733203 H 1.0935178 Z" /></g><g
       inkscape:label="No Parking"
       id="layer1-6"
       transform="matrix(0.10419182,0,0,0.10419182,44.560039,2.3225855)"><circle
         style="opacity:1;fill:#ed1e24;fill-opacity:1;fill-rule:nonzero;stroke:none;stroke-width:0.292273;stroke-linecap:square;stroke-linejoin:round;stroke-miterlimit:4;stroke-dasharray:none;stroke-opacity:1;paint-order:stroke fill markers"
         id="path17"
         cx="47.625"
         cy="47.625"
         r="47.625" /><circle
         style="fill:#008ad8;fill-opacity:1;fill-rule:nonzero;stroke:none;stroke-width:0.25947;stroke-linecap:square;stroke-linejoin:round;stroke-miterlimit:4;stroke-dasharray:none;stroke-opacity:1;paint-order:stroke fill markers"
         id="circle821"
         cx="47.625"
         cy="47.625"
         r="38.100002"
         inkscape:label="Circle" /><rect
         transform="matrix(-0.70710678,-0.70710678,-0.70710678,0.70710678,0,0)"
         style="opacity:1;fill:#ed1e24;fill-opacity:1;fill-rule:nonzero;stroke:none;stroke-width:1.71253;stroke-linecap:square;stroke-linejoin:round;stroke-miterlimit:4;stroke-dasharray:none;stroke-opacity:1;paint-order:stroke fill markers"
         id="rect1947"
         width="11.796628"
         height="94.477974"
         x="-73.250237"
         y="-47.238987" /></g><g
       aria-label="Mon - Sat"
       id="text4910"
       style="font-size:7.46176px;line-height:0.95;stroke-width:0.186544"><path
         d="M 3.6583572,9.9535389 V 4.6122595 H 5.2724 L 6.2415544,8.255697 7.1997785,4.6122595 H 8.8174647 V 9.9535389 H 7.8155194 V 5.749012 L 6.7552791,9.9535389 H 5.7168994 L 4.6603025,5.749012 v 4.2045269 z"
         style="font-weight:bold;font-family:Arial;-inkscape-font-specification:'Arial Bold'"
         id="path335" /><path
         d="m 9.6445251,7.964222 q 0,-0.5100812 0.2513972,-0.9873716 0.2513967,-0.4772903 0.7104707,-0.7286875 0.462716,-0.2513972 1.031092,-0.2513972 0.878069,0 1.439158,0.5720197 0.56109,0.5683763 0.56109,1.4391579 0,0.8780684 -0.568377,1.457375 -0.564732,0.5756627 -1.424584,0.5756627 -0.531942,0 -1.016519,-0.2404665 Q 10.147319,9.5600476 9.8959223,9.0973311 9.6445251,8.6309711 9.6445251,7.964222 Z m 1.0493099,0.054652 q 0,0.5756631 0.273258,0.8817119 0.273258,0.3060487 0.674036,0.3060487 0.400778,0 0.670392,-0.3060487 0.273258,-0.3060488 0.273258,-0.8889988 0,-0.5683763 -0.273258,-0.874425 -0.269614,-0.3060488 -0.670392,-0.3060488 -0.400778,0 -0.674036,0.3060488 -0.273258,0.3060487 -0.273258,0.8817119 z"
         style="font-weight:bold;font-family:Arial;-inkscape-font-specification:'Arial Bold'"
         id="path337" /><path
         d="M 17.95885,9.9535389 H 16.935044 V 7.9787958 q 0,-0.6266713 -0.06558,-0.8088432 -0.06558,-0.1858153 -0.214963,-0.2878315 -0.145737,-0.1020163 -0.353413,-0.1020163 -0.265971,0 -0.47729,0.1457375 -0.21132,0.1457375 -0.291475,0.3862044 -0.07651,0.2404669 -0.07651,0.8889987 V 9.9535389 H 14.432003 V 6.0842082 h 0.950937 v 0.5683763 q 0.506438,-0.6558188 1.275203,-0.6558188 0.33884,0 0.619384,0.1238769 0.280545,0.1202335 0.422639,0.3096922 0.145738,0.1894588 0.200389,0.4299256 0.0583,0.2404669 0.0583,0.6886097 z"
         style="font-weight:bold;font-family:Arial;-inkscape-font-specification:'Arial Bold'"
         id="path339" /><path
         d="M 20.953755,8.5289548 V 7.5051489 h 2.011178 v 1.0238059 z"
         style="font-weight:bold;font-family:Arial;-inkscape-font-specification:'Arial Bold'"
         id="path341" /><path
         d="m 25.362316,8.2156192 1.04931,-0.1020163 q 0.09473,0.5282985 0.382561,0.7760522 0.291475,0.2477538 0.783339,0.2477538 0.521011,0 0.783339,-0.2186063 0.265971,-0.2222497 0.265971,-0.5173681 0,-0.1894587 -0.112947,-0.3206225 Q 28.404586,7.9460048 28.127685,7.847632 27.938226,7.7820501 27.26419,7.614452 26.397052,7.3994892 26.047282,7.0861536 25.555418,6.6452976 25.555418,6.0113395 q 0,-0.408065 0.229537,-0.7614784 0.23318,-0.3570569 0.666749,-0.5428722 0.437212,-0.1858153 1.052953,-0.1858153 1.005589,0 1.512027,0.4408559 0.510081,0.4408559 0.535585,1.1768303 l -1.078458,0.047365 Q 28.404586,5.7745161 28.17505,5.5959876 27.949156,5.4138157 27.493727,5.4138157 q -0.470004,0 -0.735975,0.1931022 -0.171241,0.1238769 -0.171241,0.3315528 0,0.1894588 0.160311,0.324266 0.204033,0.1712415 0.991015,0.3570569 0.786983,0.1858153 1.162257,0.3862043 0.378917,0.1967457 0.590237,0.5428722 0.214962,0.3424832 0.214962,0.848921 0,0.4590731 -0.25504,0.8598512 -0.255041,0.4007782 -0.721401,0.5975238 -0.46636,0.1931019 -1.162256,0.1931019 -1.012876,0 -1.555748,-0.4663597 -0.542873,-0.4700035 -0.648532,-1.3662891 z"
         style="font-weight:bold;font-family:Arial;-inkscape-font-specification:'Arial Bold'"
         id="path343" /><path
         d="M 31.370343,7.264682 30.441266,7.0970839 q 0.156668,-0.5610894 0.539229,-0.8307038 0.382561,-0.2696144 1.136753,-0.2696144 0.684966,0 1.020162,0.1639547 0.335197,0.1603113 0.470004,0.4117085 0.13845,0.2477537 0.13845,0.9145028 l -0.01093,1.1950475 q 0,0.5100813 0.04736,0.7541916 0.05101,0.2404668 0.185815,0.5173681 h -1.012876 q -0.04008,-0.1020163 -0.09837,-0.3024053 -0.0255,-0.091086 -0.03643,-0.1202335 -0.262327,0.2550407 -0.561089,0.382561 -0.298762,0.1275199 -0.637602,0.1275199 -0.597524,0 -0.94365,-0.3242655 -0.342483,-0.324266 -0.342483,-0.8197735 0,-0.3279094 0.156668,-0.58295 0.156667,-0.2586841 0.437212,-0.3934912 0.284188,-0.1384507 0.81613,-0.2404669 0.717757,-0.1348072 0.994659,-0.2513972 V 7.3266204 q 0,-0.2951184 -0.145738,-0.4189953 -0.145737,-0.1275203 -0.550159,-0.1275203 -0.273258,0 -0.426282,0.1093031 -0.153025,0.1056597 -0.247754,0.3752741 z m 1.369933,0.8307038 q -0.196746,0.065582 -0.623028,0.1566678 -0.426282,0.091086 -0.557446,0.1785284 -0.200389,0.1420941 -0.200389,0.3607003 0,0.2149628 0.160311,0.3716307 0.160311,0.1566678 0.408065,0.1566678 0.276901,0 0.528298,-0.1821719 0.185816,-0.1384506 0.244111,-0.3388397 0.04008,-0.1311638 0.04008,-0.4991509 z"
         style="font-weight:bold;font-family:Arial;-inkscape-font-specification:'Arial Bold'"
         id="path345" /><path
         d="m 36.529451,6.0842082 v 0.8161301 h -0.69954 v 1.5593912 q 0,0.4736469 0.01822,0.5538025 0.02186,0.076512 0.09109,0.1275203 0.07287,0.051008 0.174885,0.051008 0.142094,0 0.411708,-0.098373 l 0.08744,0.7942694 q -0.357057,0.153024 -0.808843,0.153024 -0.276901,0 -0.499151,-0.091086 Q 35.083006,9.8551661 34.977347,9.7094286 34.87533,9.5600476 34.835252,9.3086505 34.802462,9.130122 34.802462,8.5872498 V 6.9003383 H 34.332458 V 6.0842082 h 0.470004 V 5.3154429 l 1.027449,-0.5975237 v 1.366289 z"
         style="font-weight:bold;font-family:Arial;-inkscape-font-specification:'Arial Bold'"
         id="path347" /></g><g
       aria-label="8 am - 6:30 pm"
       id="text9777"
       style="font-size:7.46176px;line-height:0.95;stroke-width:0.186544"><path
         d="M 4.3251063,15.303483 Q 3.9279716,15.135885 3.7457997,14.84441 3.5672713,14.549291 3.5672713,14.199521 q 0,-0.597523 0.4153518,-0.987371 0.4189954,-0.389848 1.1877607,-0.389848 0.7614784,0 1.1804737,0.389848 0.4226388,0.389848 0.4226388,0.987371 0,0.371631 -0.1931022,0.663106 -0.1931022,0.287832 -0.5428722,0.440856 0.4444994,0.178528 0.6740359,0.521011 0.2331801,0.342484 0.2331801,0.790626 0,0.739618 -0.4736469,1.202335 -0.4700035,0.462716 -1.2533425,0.462716 -0.7286875,0 -1.2132647,-0.382561 -0.5720197,-0.451786 -0.5720197,-1.238768 0,-0.433569 0.2149628,-0.79427 0.2149628,-0.364343 0.6776794,-0.561089 z M 4.5364256,14.27239 q 0,0.306049 0.1712416,0.47729 0.174885,0.171242 0.4627166,0.171242 0.291475,0 0.46636,-0.171242 0.174885,-0.174885 0.174885,-0.480933 0,-0.287832 -0.174885,-0.459073 -0.1712416,-0.174885 -0.4554297,-0.174885 -0.2951184,0 -0.4700035,0.174885 -0.174885,0.174885 -0.174885,0.462716 z m -0.094729,2.288079 q 0,0.422639 0.2149628,0.659462 0.2186062,0.236823 0.5428722,0.236823 0.316979,0 0.524655,-0.225893 0.2076759,-0.229536 0.2076759,-0.659462 0,-0.375274 -0.2113194,-0.601167 -0.2113193,-0.229537 -0.5355853,-0.229537 -0.375274,0 -0.5610894,0.258684 -0.1821718,0.258685 -0.1821718,0.56109 z"
         style="font-weight:bold;font-family:Arial;-inkscape-font-specification:'Arial Bold'"
         id="path260" /><path
         d="M 10.653757,15.496585 9.7246804,15.328987 q 0.1566678,-0.561089 0.5392286,-0.830704 0.382561,-0.269614 1.136753,-0.269614 0.684966,0 1.020162,0.163955 0.335196,0.160311 0.470004,0.411708 0.13845,0.247754 0.13845,0.914503 l -0.01093,1.195047 q 0,0.510082 0.04737,0.754192 0.05101,0.240467 0.185815,0.517368 h -1.012876 q -0.04008,-0.102016 -0.09837,-0.302405 -0.0255,-0.09109 -0.03643,-0.120234 -0.262327,0.255041 -0.561089,0.382561 -0.298762,0.12752 -0.637602,0.12752 -0.597524,0 -0.9436502,-0.324265 -0.3424831,-0.324266 -0.3424831,-0.819774 0,-0.327909 0.1566678,-0.58295 0.1566678,-0.258684 0.4372125,-0.393491 0.284188,-0.138451 0.81613,-0.240467 0.717757,-0.134807 0.994658,-0.251397 v -0.102016 q 0,-0.295119 -0.145737,-0.418996 -0.145738,-0.12752 -0.550159,-0.12752 -0.273258,0 -0.426282,0.109303 -0.153025,0.10566 -0.247754,0.375274 z m 1.369932,0.830704 q -0.196745,0.06558 -0.623027,0.156668 -0.426283,0.09109 -0.557446,0.178528 -0.200389,0.142094 -0.200389,0.3607 0,0.214963 0.160311,0.371631 0.160311,0.156668 0.408065,0.156668 0.276901,0 0.528298,-0.182172 0.185816,-0.138451 0.244111,-0.33884 0.04008,-0.131163 0.04008,-0.499151 z"
         style="font-weight:bold;font-family:Arial;-inkscape-font-specification:'Arial Bold'"
         id="path262" /><path
         d="m 13.961999,14.316111 h 0.94365 v 0.528299 q 0.506438,-0.615741 1.205978,-0.615741 0.37163,0 0.644888,0.153024 0.273258,0.153025 0.448143,0.462717 0.255041,-0.309692 0.550159,-0.462717 0.295118,-0.153024 0.630315,-0.153024 0.426282,0 0.7214,0.174885 0.295119,0.171241 0.440856,0.506438 0.10566,0.247753 0.10566,0.801556 v 2.473894 h -1.023806 v -2.211567 q 0,-0.575663 -0.10566,-0.743261 -0.142094,-0.218606 -0.437212,-0.218606 -0.214963,0 -0.404422,0.131164 -0.189459,0.131163 -0.273258,0.386204 -0.0838,0.251397 -0.0838,0.797913 v 1.858153 h -1.023806 v -2.120481 q 0,-0.564732 -0.05465,-0.728687 -0.05465,-0.163955 -0.171242,-0.24411 -0.112946,-0.08016 -0.309692,-0.08016 -0.236823,0 -0.426282,0.12752 -0.189459,0.127521 -0.273258,0.367987 -0.08016,0.240467 -0.08016,0.797913 v 1.880014 h -1.023805 z"
         style="font-weight:bold;font-family:Arial;-inkscape-font-specification:'Arial Bold'"
         id="path264" /><path
         d="m 22.629737,16.760858 v -1.023806 h 2.011177 v 1.023806 z"
         style="font-weight:bold;font-family:Arial;-inkscape-font-specification:'Arial Bold'"
         id="path266" /><path
         d="m 30.554213,14.152157 -0.991015,0.109303 q -0.03644,-0.306049 -0.189459,-0.451786 -0.153024,-0.145738 -0.397135,-0.145738 -0.324266,0 -0.550159,0.291475 -0.22225,0.291475 -0.280545,1.213265 0.382561,-0.451787 0.950938,-0.451787 0.641245,0 1.096674,0.488221 0.459073,0.488221 0.459073,1.260629 0,0.819774 -0.480933,1.315281 -0.480934,0.495508 -1.235126,0.495508 -0.808843,0 -1.329854,-0.626671 -0.521012,-0.630315 -0.521012,-2.062186 0,-1.468305 0.542872,-2.116837 0.542872,-0.648532 1.410011,-0.648532 0.608454,0 1.005588,0.342483 0.400779,0.33884 0.510082,0.987372 z m -2.32087,2.233427 q 0,0.499151 0.229536,0.772409 0.229537,0.269614 0.524655,0.269614 0.284189,0 0.473647,-0.22225 0.189459,-0.222249 0.189459,-0.728687 0,-0.521012 -0.204032,-0.761479 -0.204033,-0.24411 -0.510082,-0.24411 -0.295118,0 -0.499151,0.23318 -0.204032,0.229537 -0.204032,0.681323 z"
         style="font-weight:bold;font-family:Arial;-inkscape-font-specification:'Arial Bold'"
         id="path268" /><path
         d="m 31.650888,15.339917 v -1.023806 h 1.023806 v 1.023806 z m 0,2.845525 v -1.023806 h 1.023806 v 1.023806 z"
         style="font-weight:bold;font-family:Arial;-inkscape-font-specification:'Arial Bold'"
         id="path270" /><path
         d="m 33.683927,16.768145 0.991015,-0.120234 q 0.04736,0.378918 0.25504,0.579307 0.207676,0.200389 0.502795,0.200389 0.316979,0 0.531941,-0.240467 0.218607,-0.240467 0.218607,-0.648532 0,-0.386204 -0.207676,-0.612097 -0.207676,-0.225893 -0.506438,-0.225893 -0.196746,0 -0.470004,0.07651 l 0.112947,-0.834347 q 0.415352,0.01093 0.633958,-0.178529 0.218606,-0.193102 0.218606,-0.510081 0,-0.269614 -0.160311,-0.429926 -0.160311,-0.160311 -0.426282,-0.160311 -0.262328,0 -0.448143,0.182172 -0.185815,0.182172 -0.225893,0.531942 l -0.94365,-0.160311 q 0.09837,-0.484578 0.295118,-0.772409 0.200389,-0.291475 0.553803,-0.45543 0.357057,-0.167598 0.797912,-0.167598 0.754192,0 1.209622,0.480934 0.375274,0.393491 0.375274,0.888998 0,0.703184 -0.768766,1.122179 0.459074,0.09837 0.732331,0.440856 0.276902,0.342483 0.276902,0.82706 0,0.703184 -0.513725,1.198691 -0.513725,0.495508 -1.278847,0.495508 -0.725044,0 -1.202334,-0.415352 -0.47729,-0.418995 -0.553802,-1.093031 z"
         style="font-weight:bold;font-family:Arial;-inkscape-font-specification:'Arial Bold'"
         id="path272" /><path
         d="m 39.600869,12.822302 q 0.776053,0 1.213265,0.553802 0.521012,0.655819 0.521012,2.175133 0,1.51567 -0.524655,2.178775 -0.433569,0.546516 -1.209622,0.546516 -0.779695,0 -1.256986,-0.597524 -0.47729,-0.601167 -0.47729,-2.138698 0,-1.508383 0.524655,-2.171488 0.433569,-0.546516 1.209621,-0.546516 z m 0,0.848921 q -0.185815,0 -0.331552,0.120233 -0.145738,0.11659 -0.225894,0.422639 -0.105659,0.397135 -0.105659,1.337142 0,0.940007 0.09473,1.29342 0.09473,0.34977 0.236824,0.46636 0.145737,0.11659 0.331552,0.11659 0.185816,0 0.331553,-0.11659 0.145738,-0.120233 0.225893,-0.426282 0.10566,-0.393491 0.10566,-1.333498 0,-0.940007 -0.09473,-1.289777 -0.09473,-0.353414 -0.240467,-0.470004 -0.142094,-0.120233 -0.32791,-0.120233 z"
         style="font-weight:bold;font-family:Arial;-inkscape-font-specification:'Arial Bold'"
         id="path274" /><path
         d="m 44.282683,14.316111 h 0.954581 v 0.568377 q 0.185815,-0.291475 0.502794,-0.473647 0.316979,-0.182172 0.703184,-0.182172 0.674036,0 1.144039,0.528298 0.470004,0.528299 0.470004,1.471949 0,0.969154 -0.473647,1.508383 -0.473647,0.535585 -1.147683,0.535585 -0.320623,0 -0.58295,-0.12752 -0.258684,-0.12752 -0.546516,-0.437212 v 1.949239 h -1.023806 z m 1.012876,1.869084 q 0,0.652175 0.258684,0.965511 0.258684,0.309692 0.630315,0.309692 0.357057,0 0.59388,-0.284188 0.236824,-0.287832 0.236824,-0.940007 0,-0.608454 -0.244111,-0.903573 -0.24411,-0.295118 -0.60481,-0.295118 -0.375274,0 -0.623028,0.291475 -0.247754,0.287832 -0.247754,0.856208 z"
         style="font-weight:bold;font-family:Arial;-inkscape-font-specification:'Arial Bold'"
         id="path276" /><path
         d="m 48.79326,14.316111 h 0.94365 v 0.528299 q 0.506438,-0.615741 1.205978,-0.615741 0.371631,0 0.644889,0.153024 0.273258,0.153025 0.448143,0.462717 0.25504,-0.309692 0.550159,-0.462717 0.295118,-0.153024 0.630314,-0.153024 0.426282,0 0.721401,0.174885 0.295118,0.171241 0.440856,0.506438 0.10566,0.247753 0.10566,0.801556 v 2.473894 h -1.023806 v -2.211567 q 0,-0.575663 -0.10566,-0.743261 -0.142094,-0.218606 -0.437213,-0.218606 -0.214962,0 -0.404421,0.131164 -0.189459,0.131163 -0.273258,0.386204 -0.0838,0.251397 -0.0838,0.797913 v 1.858153 h -1.023806 v -2.120481 q 0,-0.564732 -0.05465,-0.728687 -0.05465,-0.163955 -0.171241,-0.24411 -0.112947,-0.08016 -0.309692,-0.08016 -0.236824,0 -0.426282,0.12752 -0.189459,0.127521 -0.273258,0.367987 -0.08016,0.240467 -0.08016,0.797913 v 1.880014 H 48.79326 Z"
         style="font-weight:bold;font-family:Arial;-inkscape-font-specification:'Arial Bold'"
         id="path278" /></g></g></svg>
