<?xml version="1.0" encoding="UTF-8" standalone="no"?>
<!-- Created with Inkscape (http://www.inkscape.org/) -->

<svg
   width="50.078217mm"
   height="50.078217mm"
   viewBox="0 0 50.078217 50.078217"
   version="1.1"
   id="svg1"
   inkscape:version="1.4 (86a8ad7, 2024-10-11)"
   sodipodi:docname="c minimum.svg"
   xmlns:inkscape="http://www.inkscape.org/namespaces/inkscape"
   xmlns:sodipodi="http://sodipodi.sourceforge.net/DTD/sodipodi-0.dtd"
   xmlns="http://www.w3.org/2000/svg"
   xmlns:svg="http://www.w3.org/2000/svg">
  <sodipodi:namedview
     id="namedview1"
     pagecolor="#ffffff"
     bordercolor="#000000"
     borderopacity="0.25"
     inkscape:showpageshadow="2"
     inkscape:pageopacity="0.0"
     inkscape:pagecheckerboard="0"
     inkscape:deskcolor="#d1d1d1"
     inkscape:document-units="mm"
     inkscape:zoom="2.8756734"
     inkscape:cx="119.27641"
     inkscape:cy="95.455903"
     inkscape:window-width="1920"
     inkscape:window-height="1009"
     inkscape:window-x="-8"
     inkscape:window-y="-8"
     inkscape:window-maximized="1"
     inkscape:current-layer="layer1" />
  <defs
     id="defs1">
    <clipPath
       clipPathUnits="userSpaceOnUse"
       id="clipPath42">
      <path
         d="M 0,841.89 H 595.276 V 0 H 0 Z"
         transform="translate(-393.95501,-709.95402)"
         id="path42" />
    </clipPath>
    <clipPath
       clipPathUnits="userSpaceOnUse"
       id="clipPath44">
      <path
         d="M 0,841.89 H 595.276 V 0 H 0 Z"
         transform="translate(-393.95501,-572.94701)"
         id="path44" />
    </clipPath>
    <clipPath
       clipPathUnits="userSpaceOnUse"
       id="clipPath46">
      <path
         d="M 0,841.89 H 595.276 V 0 H 0 Z"
         transform="translate(-354.52201,-670.46501)"
         id="path46" />
    </clipPath>
    <clipPath
       clipPathUnits="userSpaceOnUse"
       id="clipPath24">
      <path
         d="M 0,841.89 H 595.276 V 0 H 0 Z"
         transform="translate(-344.16101,-340.87601)"
         id="path24" />
    </clipPath>
    <clipPath
       clipPathUnits="userSpaceOnUse"
       id="clipPath26">
      <path
         d="M 0,841.89 H 595.276 V 0 H 0 Z"
         transform="translate(-441.04001,-437.75501)"
         id="path26" />
    </clipPath>
    <clipPath
       clipPathUnits="userSpaceOnUse"
       id="clipPath28">
      <path
         d="M 0,841.89 H 595.276 V 0 H 0 Z"
         transform="translate(-369.21601,-438.31201)"
         id="path28" />
    </clipPath>
    <clipPath
       clipPathUnits="userSpaceOnUse"
       id="clipPath14">
      <path
         d="M 0,841.89 H 595.276 V 0 H 0 Z"
         transform="translate(-116.524,-213.499)"
         id="path14" />
    </clipPath>
    <clipPath
       clipPathUnits="userSpaceOnUse"
       id="clipPath16">
      <path
         d="M 0,841.89 H 595.276 V 0 H 0 Z"
         transform="translate(-116.524,-76.490627)"
         id="path16" />
    </clipPath>
    <clipPath
       clipPathUnits="userSpaceOnUse"
       id="clipPath18">
      <path
         d="M 0,841.89 H 595.276 V 0 H 0 Z"
         transform="translate(-121.43001,-180.369)"
         id="path18" />
    </clipPath>
    <clipPath
       clipPathUnits="userSpaceOnUse"
       id="clipPath20">
      <path
         d="M 0,841.89 H 595.276 V 0 H 0 Z"
         transform="translate(-111.618,-180.369)"
         id="path20" />
    </clipPath>
    <clipPath
       clipPathUnits="userSpaceOnUse"
       id="clipPath4">
      <path
         d="M 0,841.89 H 595.276 V 0 H 0 Z"
         transform="translate(-394.22401,-213.60901)"
         id="path4" />
    </clipPath>
    <clipPath
       clipPathUnits="userSpaceOnUse"
       id="clipPath6">
      <path
         d="M 0,841.89 H 595.276 V 0 H 0 Z"
         transform="translate(-394.22401,-76.601027)"
         id="path6" />
    </clipPath>
    <clipPath
       clipPathUnits="userSpaceOnUse"
       id="clipPath8">
      <path
         d="M 0,841.89 H 595.276 V 0 H 0 Z"
         transform="translate(-358.74601,-171.922)"
         id="path8" />
    </clipPath>
    <clipPath
       clipPathUnits="userSpaceOnUse"
       id="clipPath10">
      <path
         d="M 0,841.89 H 595.276 V 0 H 0 Z"
         transform="translate(-410.09801,-142.94301)"
         id="path10" />
    </clipPath>
  </defs>
  <g
     inkscape:label="Layer 1"
     inkscape:groupmode="layer"
     id="layer1"
     transform="translate(-147.6375,-122.2375)">
    <path
       id="path3"
       d="m 0,0 c 39.139,0 70.866,-31.729 70.866,-70.866 0,-39.138 -31.727,-70.866 -70.866,-70.866 -39.138,0 -70.865,31.728 -70.865,70.866 C -70.865,-31.729 -39.138,0 0,0"
       style="fill:#ffffff;fill-opacity:1;fill-rule:nonzero;stroke:#231f20;stroke-width:0.222;stroke-linecap:butt;stroke-linejoin:miter;stroke-miterlimit:4;stroke-dasharray:none;stroke-opacity:1"
       transform="matrix(0.35277776,0,0,-0.35277776,172.67643,122.27666)"
       clip-path="url(#clipPath4)" />
    <path
       id="path5"
       d="m 0,0 c -8.931,0 -17.592,1.748 -25.743,5.196 -7.876,3.331 -14.949,8.1 -21.026,14.177 -6.076,6.075 -10.845,13.148 -14.176,21.024 -3.449,8.152 -5.197,16.813 -5.197,25.745 0,8.931 1.748,17.592 5.197,25.743 3.331,7.876 8.1,14.949 14.176,21.026 6.077,6.075 13.15,10.845 21.026,14.176 8.151,3.448 16.812,5.196 25.743,5.196 8.932,0 17.593,-1.748 25.744,-5.196 7.876,-3.331 14.949,-8.101 21.026,-14.176 6.076,-6.077 10.845,-13.15 14.176,-21.026 3.449,-8.151 5.197,-16.812 5.197,-25.743 0,-8.932 -1.748,-17.593 -5.197,-25.745 C 57.615,32.521 52.846,25.448 46.77,19.373 40.693,13.296 33.62,8.527 25.744,5.196 17.593,1.748 8.932,0 0,0"
       style="fill:#4467a5;fill-opacity:1;fill-rule:nonzero;stroke:none"
       transform="matrix(0.35277776,0,0,-0.35277776,172.67643,170.61003)"
       clip-path="url(#clipPath6)" />
    <path
       id="path7"
       d="M 0,0 H 30.983 V -12.956 H 9.981 l -1.105,-8.742 c 1.453,0.847 2.89,1.484 4.312,1.909 1.42,0.425 2.826,0.637 4.214,0.637 4.701,0 8.516,-1.766 11.444,-5.297 2.926,-3.531 4.39,-7.979 4.39,-13.342 0,-3.77 -0.752,-7.394 -2.257,-10.871 -1.505,-3.478 -3.64,-6.133 -6.406,-7.964 -2.764,-1.832 -6.303,-2.749 -10.615,-2.749 -3.097,0 -5.75,0.366 -7.959,1.096 -2.209,0.728 -4.089,1.816 -5.636,3.262 -1.549,1.448 -2.802,3.085 -3.762,4.916 -0.962,1.831 -1.762,4.114 -2.403,6.846 l 13.182,1.794 c 0.32,-2.631 1.068,-4.632 2.244,-6.002 1.177,-1.37 2.577,-2.053 4.201,-2.053 1.818,0 3.32,0.858 4.506,2.573 1.187,1.714 1.78,4.272 1.78,7.675 0,3.483 -0.599,6.035 -1.797,7.656 -1.197,1.621 -2.791,2.432 -4.78,2.432 -1.262,0 -2.482,-0.385 -3.658,-1.157 C 9,-30.895 8.036,-31.904 6.989,-33.366 l -11.101,1.992 z"
       style="fill:#ffffff;fill-opacity:1;fill-rule:nonzero;stroke:none"
       transform="matrix(0.35277776,0,0,-0.35277776,160.16059,136.98291)"
       clip-path="url(#clipPath8)" />
    <path
       id="path9"
       d="m 0,0 c 0,-7.448 0.528,-12.536 1.585,-15.264 1.056,-2.725 2.587,-4.09 4.592,-4.09 1.323,0 2.469,0.58 3.44,1.737 0.971,1.156 1.686,2.985 2.145,5.485 0.458,2.501 0.688,6.4 0.688,11.694 0,7.767 -0.528,12.988 -1.585,15.662 -1.055,2.673 -2.64,4.01 -4.752,4.01 -2.155,0 -3.714,-1.363 -4.673,-4.089 C 0.48,12.417 0,7.369 0,0 m -12.899,0.039 c 0,11.101 1.603,18.868 4.811,23.303 3.208,4.433 8.095,6.652 14.66,6.652 3.156,0 5.745,-0.485 7.771,-1.454 2.024,-0.971 3.677,-2.231 4.956,-3.785 1.278,-1.554 2.286,-3.187 3.021,-4.9 0.737,-1.711 1.327,-3.71 1.776,-5.995 0.873,-4.354 1.31,-8.895 1.31,-13.622 0,-10.595 -1.439,-18.35 -4.316,-23.263 -2.878,-4.913 -7.834,-7.37 -14.868,-7.37 -3.945,0 -7.132,0.785 -9.561,2.35 -2.431,1.567 -4.423,3.863 -5.979,6.892 -1.13,2.151 -2.011,5.091 -2.639,8.823 -0.629,3.73 -0.942,7.853 -0.942,12.369"
       style="fill:#ffffff;fill-opacity:1;fill-rule:nonzero;stroke:none"
       transform="matrix(0.35277776,0,0,-0.35277776,178.27643,147.20606)"
       clip-path="url(#clipPath10)" />
  </g>
</svg>
