<?xml version="1.0" encoding="UTF-8" standalone="no"?>
<!-- Created with Inkscape (http://www.inkscape.org/) -->

<svg
   width="50.139835mm"
   height="50.192158mm"
   viewBox="0 0 50.139835 50.192158"
   version="1.1"
   id="svg1"
   inkscape:version="1.4 (86a8ad7, 2024-10-11)"
   sodipodi:docname="No Entry.svg"
   xmlns:inkscape="http://www.inkscape.org/namespaces/inkscape"
   xmlns:sodipodi="http://sodipodi.sourceforge.net/DTD/sodipodi-0.dtd"
   xmlns="http://www.w3.org/2000/svg"
   xmlns:svg="http://www.w3.org/2000/svg">
  <sodipodi:namedview
     id="namedview1"
     pagecolor="#ffffff"
     bordercolor="#000000"
     borderopacity="0.25"
     inkscape:showpageshadow="2"
     inkscape:pageopacity="0.0"
     inkscape:pagecheckerboard="0"
     inkscape:deskcolor="#d1d1d1"
     inkscape:document-units="mm"
     inkscape:zoom="2.0334082"
     inkscape:cx="10.573381"
     inkscape:cy="172.37071"
     inkscape:window-width="1920"
     inkscape:window-height="1009"
     inkscape:window-x="-8"
     inkscape:window-y="-8"
     inkscape:window-maximized="1"
     inkscape:current-layer="layer1" />
  <defs
     id="defs1">
    <clipPath
       clipPathUnits="userSpaceOnUse"
       id="clipPath2">
      <path
         d="M 0,0 H 595.275 V 841.89 H 0 Z"
         transform="translate(-113.386,-213.28201)"
         id="path2" />
    </clipPath>
    <clipPath
       clipPathUnits="userSpaceOnUse"
       id="clipPath4">
      <path
         d="M 0,0 H 595.275 V 841.89 H 0 Z"
         transform="translate(-113.386,-210.36301)"
         id="path4" />
    </clipPath>
    <clipPath
       clipPathUnits="userSpaceOnUse"
       id="clipPath6">
      <path
         d="M 0,0 H 595.275 V 841.89 H 0 Z"
         transform="translate(-56.339101,-153.04701)"
         id="path6" />
    </clipPath>
  </defs>
  <g
     inkscape:label="Layer 1"
     inkscape:groupmode="layer"
     id="layer1"
     transform="translate(-79.904167,-123.456)">
    <g
       id="g7"
       transform="translate(-14.312998,13.922644)">
      <g
         id="g8">
        <ellipse
           style="fill:#ffffff;stroke:#ffffff;stroke-width:0.199815"
           id="path7"
           cx="119.28709"
           cy="134.62944"
           rx="24.944094"
           ry="24.944092" />
        <g
           id="g4057"
           transform="matrix(0.26458333,0,0,0.26458333,85.543706,-94.831866)">
          <path
             id="path1"
             d="m 0,0 c 39.138,0 70.865,-31.728 70.865,-70.865 0,-39.139 -31.727,-70.866 -70.865,-70.866 -39.139,0 -70.866,31.727 -70.866,70.866 C -70.866,-31.728 -39.139,0 0,0"
             style="fill:#ffffff;fill-opacity:1;fill-rule:nonzero;stroke:#231f20;stroke-width:0.25;stroke-linecap:butt;stroke-linejoin:miter;stroke-miterlimit:4;stroke-dasharray:none;stroke-opacity:1"
             transform="matrix(1.3333333,0,0,-1.3333333,127.53469,772.76799)"
             clip-path="url(#clipPath2)" />
          <path
             id="path3"
             d="m 0,0 c 37.524,0 67.946,-30.421 67.946,-67.947 0,-37.526 -30.422,-67.947 -67.946,-67.947 -37.525,0 -67.946,30.421 -67.946,67.947 C -67.946,-30.421 -37.525,0 0,0"
             style="fill:#e01f26;fill-opacity:1;fill-rule:nonzero;stroke:none"
             transform="matrix(1.3333333,0,0,-1.3333333,127.53469,776.65999)"
             clip-path="url(#clipPath4)" />
          <path
             id="path5"
             d="m 0,0 h 114.095 c 1.565,0 2.834,-1.271 2.834,-2.835 v -15.59 c 0,-1.566 -1.269,-2.835 -2.834,-2.835 H 0 c -1.565,0 -2.835,1.269 -2.835,2.835 v 15.59 C -2.835,-1.271 -1.565,0 0,0"
             style="fill:#ffffff;fill-opacity:1;fill-rule:nonzero;stroke:none"
             transform="matrix(1.3333333,0,0,-1.3333333,51.472157,853.08132)"
             clip-path="url(#clipPath6)" />
        </g>
      </g>
    </g>
  </g>
</svg>
