<?xml version="1.0"?>
<svg width="1088" height="1074" xmlns="http://www.w3.org/2000/svg" xmlns:svg="http://www.w3.org/2000/svg" clip-rule="evenodd" fill-rule="evenodd" version="1.1">
 <g class="layer">
  <title>Layer 1</title>
  <g id="svg_7">
   <circle cx="543.67" cy="536.42" fill="#ed1e24" fill-rule="nonzero" id="svg_5" r="534.5" stroke-linecap="square" stroke-linejoin="round" stroke-miterlimit="4" stroke-width="0.29"/>
   <g id="svg_9">
    <path d="m731,321.5c-1.98,-2.82 -4.15,-5.48 -6.5,-8c-5.82,-3.98 -10.98,-8.65 -15.5,-14c13.29,-14.79 27.12,-29.12 41.5,-43c0.48,-0.95 0.65,-1.95 0.5,-3c-70.28,-12.61 -140.62,-24.94 -211,-37c10.67,72 21.33,144 32,216c1.05,0.15 2.05,-0.02 3,-0.5c16.03,-16.36 32.36,-32.36 49,-48c1,-0.67 2,-0.67 3,0c6.87,6.7 13.54,13.54 20,20.5c0.15,1.05 -0.02,2.05 -0.5,3c-12.51,13.18 -25.68,25.68 -39.5,37.5c-129.87,129.04 -259.54,258.21 -389,387.5c-78.14,-85.04 -116.81,-185.7 -116,-302c1.78,-113.86 41.45,-212.2 119,-295c109.17,-109.56 240.5,-152.39 394,-128.5c83.62,15.73 156.46,52.23 218.5,109.5c0.67,0.67 0.67,1.33 0,2c-34.46,33.12 -67.46,67.45 -99,103c-1.14,1.18 -2.31,1.18 -3.5,0z" fill="#fefdfe" id="svg_10"/>
   </g>
   <g id="svg_11">
    <path d="m731,321.5c-21.97,23.48 -44.64,46.64 -68,69.5c-5.23,4.73 -10.56,9.23 -16,13.5c-6.46,-6.96 -13.13,-13.8 -20,-20.5c-1,-0.67 -2,-0.67 -3,0c-16.64,15.64 -32.97,31.64 -49,48c-0.95,0.48 -1.95,0.65 -3,0.5c-10.67,-72 -21.33,-144 -32,-216c70.38,12.06 140.72,24.39 211,37c0.15,1.05 -0.02,2.05 -0.5,3c-14.38,13.88 -28.21,28.21 -41.5,43c4.52,5.35 9.68,10.02 15.5,14c2.35,2.52 4.52,5.18 6.5,8z" fill="#000000" id="svg_12"/>
   </g>
   <g id="svg_13">
    <path d="m435,549.5c0.16,-2.69 0,-5.35 -0.5,-8c-0.5,5.99 -0.67,11.99 -0.5,18c-34,0 -68,0 -102,0c0.33,-63.5 0,-126.84 -1,-190c-0.33,0 -0.67,0 -1,0c-19.67,0.17 -39.34,0 -59,-0.5c-1.66,-0.73 -2.16,-1.89 -1.5,-3.5c36.09,-42.75 71.42,-86.09 106,-130c2.69,-2.77 5.35,-5.44 8,-8c39.18,46.53 77.68,93.69 115.5,141.5c-20.66,0.5 -41.33,0.67 -62,0.5c-0.4,60.17 -1.07,120.17 -2,180z" fill="#000000" id="svg_14"/>
   </g>
   <g id="svg_15">
    <path d="m698,488.5c9.7,48.11 6.86,95.44 -8.5,142c-19.12,51.59 -45.45,98.93 -79,142c-8.67,10.67 -17.33,21.33 -26,32c-17.68,18.18 -35.18,36.51 -52.5,55c23.81,28.31 47.81,56.48 72,84.5c1.79,0.52 3.46,0.19 5,-1c64.97,-59.93 118.13,-128.77 159.5,-206.5c27.05,-52.54 43.38,-108.21 49,-167c4.05,-48.45 -2.28,-95.45 -19,-141c-4.33,-9.5 -8.17,-19.17 -11.5,-29c34.96,-38.13 71.46,-74.8 109.5,-110c58.38,84.86 83.38,178.86 75,282c-13.05,127.64 -69.55,231.14 -169.5,310.5c-111.33,81.54 -234.66,107.2 -370,77c-51.25,-13.13 -98.58,-34.63 -142,-64.5c134.85,-135.68 270.18,-270.85 406,-405.5c0.59,-0.46 1.26,-0.63 2,-0.5z" fill="#fefdfe" id="svg_16"/>
   </g>
   <g id="svg_17">
    <path d="m787,399.5c3.33,9.83 7.17,19.5 11.5,29c16.72,45.55 23.05,92.55 19,141c-5.62,58.79 -21.95,114.46 -49,167c-41.37,77.73 -94.53,146.57 -159.5,206.5c-1.54,1.19 -3.21,1.52 -5,1c-24.19,-28.02 -48.19,-56.19 -72,-84.5c17.32,-18.49 34.82,-36.82 52.5,-55c8.67,-10.67 17.33,-21.33 26,-32c33.55,-43.07 59.88,-90.41 79,-142c15.36,-46.56 18.2,-93.89 8.5,-142c0.57,-1.75 1.41,-3.42 2.5,-5c28.46,-27.49 56.62,-55.32 84.5,-83.5c0.59,-0.46 1.26,-0.63 2,-0.5z" fill="#000000" id="svg_18"/>
   </g>
   <g id="svg_19">
    <path d="m331,369.5c1,63.16 1.33,126.5 1,190c34,0 68,0 102,0c-0.17,-6.01 0,-12.01 0.5,-18c0.5,2.65 0.66,5.31 0.5,8c0,3.67 0,7.33 0,11c-26.33,0 -52.67,0 -79,0c-8.33,0 -16.67,0 -25,0c0,-63.67 0,-127.33 0,-191z" fill="#050301" id="svg_20"/>
   </g>
   <g id="svg_21">
    <path d="m330,369.5c0.33,0 0.67,0 1,0c0,63.67 0,127.33 0,191c8.33,0 16.67,0 25,0c-8.48,0.99 -17.15,1.33 -26,1c0,-64 0,-128 0,-192z" fill="#858483" id="svg_22"/>
   </g>
  </g>
 </g>
</svg>