<?xml version="1.0" encoding="UTF-8" standalone="no"?>
<!-- Created with Inkscape (http://www.inkscape.org/) -->

<svg
   width="57.898239mm"
   height="40.282986mm"
   viewBox="0 0 57.898239 40.282986"
   version="1.1"
   id="svg1"
   inkscape:version="1.4 (86a8ad7, 2024-10-11)"
   sodipodi:docname="parking 2.svg"
   xmlns:inkscape="http://www.inkscape.org/namespaces/inkscape"
   xmlns:sodipodi="http://sodipodi.sourceforge.net/DTD/sodipodi-0.dtd"
   xmlns="http://www.w3.org/2000/svg"
   xmlns:svg="http://www.w3.org/2000/svg">
  <sodipodi:namedview
     id="namedview1"
     pagecolor="#ffffff"
     bordercolor="#000000"
     borderopacity="0.25"
     inkscape:showpageshadow="2"
     inkscape:pageopacity="0.0"
     inkscape:pagecheckerboard="0"
     inkscape:deskcolor="#d1d1d1"
     inkscape:document-units="mm"
     inkscape:zoom="8.1336329"
     inkscape:cx="75.427549"
     inkscape:cy="32.888133"
     inkscape:window-width="1920"
     inkscape:window-height="1009"
     inkscape:window-x="-8"
     inkscape:window-y="-8"
     inkscape:window-maximized="1"
     inkscape:current-layer="layer1" />
  <defs
     id="defs1">
    <clipPath
       clipPathUnits="userSpaceOnUse"
       id="clipPath15">
      <rect
         style="fill:none;stroke:#000000;stroke-linecap:butt;stroke-linejoin:bevel;paint-order:stroke markers fill;stop-color:#000000"
         id="rect15-7"
         width="45.034248"
         height="38.955639"
         x="262.48285"
         y="121.00073" />
    </clipPath>
    <inkscape:path-effect
       effect="fillet_chamfer"
       id="path-effect4"
       is_visible="true"
       lpeversion="1"
       nodesatellites_param="F,0,0,1,0,0,0,1 @ F,0,0,1,0,0,0,1 @ F,0,0,1,0,0,0,1 @ F,0,0,1,0,7.5000005,0,1"
       radius="10"
       unit="px"
       method="auto"
       mode="F"
       chamfer_steps="1"
       flexible="false"
       use_knot_distance="true"
       apply_no_radius="true"
       apply_with_radius="true"
       only_selected="false"
       hide_knots="false" />
    <inkscape:path-effect
       effect="fillet_chamfer"
       id="path-effect3"
       is_visible="true"
       lpeversion="1"
       nodesatellites_param="F,0,0,1,0,0,0,1 @ F,0,0,1,0,0,0,1 @ F,0,0,1,0,7.5000005,0,1 @ F,0,0,1,0,0,0,1"
       radius="10"
       unit="px"
       method="auto"
       mode="F"
       chamfer_steps="1"
       flexible="false"
       use_knot_distance="true"
       apply_no_radius="true"
       apply_with_radius="true"
       only_selected="false"
       hide_knots="false" />
    <inkscape:path-effect
       effect="fillet_chamfer"
       id="path-effect2"
       is_visible="true"
       lpeversion="1"
       nodesatellites_param="F,0,0,1,0,0,0,1 @ F,0,0,1,0,0,0,1 @ F,0,0,1,0,6.7500004,0,1 @ F,0,0,1,0,6.7500004,0,1"
       radius="10"
       unit="px"
       method="auto"
       mode="F"
       chamfer_steps="1"
       flexible="false"
       use_knot_distance="true"
       apply_no_radius="true"
       apply_with_radius="true"
       only_selected="false"
       hide_knots="false" />
    <inkscape:path-effect
       effect="fillet_chamfer"
       id="path-effect1"
       is_visible="true"
       lpeversion="1"
       nodesatellites_param="F,0,0,1,0,7.5000005,0,1 @ F,0,0,1,0,7.5000005,0,1 @ F,0,0,1,0,7.5000005,0,1 @ F,0,0,1,0,7.5000005,0,1"
       radius="10"
       unit="px"
       method="auto"
       mode="F"
       chamfer_steps="1"
       flexible="false"
       use_knot_distance="true"
       apply_no_radius="true"
       apply_with_radius="true"
       only_selected="false"
       hide_knots="false" />
    <clipPath
       clipPathUnits="userSpaceOnUse"
       id="clipPath3068">
      <path
         d="M 0,841.89 H 595.276 V 0 H 0 Z"
         id="path3068" />
    </clipPath>
    <clipPath
       clipPathUnits="userSpaceOnUse"
       id="clipPath3070">
      <path
         d="M 0,841.89 H 595.276 V 0 H 0 Z"
         id="path3070" />
    </clipPath>
    <clipPath
       clipPathUnits="userSpaceOnUse"
       id="clipPath3074">
      <path
         d="M 0,841.89 H 595.276 V 0 H 0 Z"
         id="path3074" />
    </clipPath>
    <clipPath
       clipPathUnits="userSpaceOnUse"
       id="clipPath3076">
      <path
         d="M 0,841.89 H 595.276 V 0 H 0 Z"
         transform="translate(-128.758,-390.60301)"
         id="path3076" />
    </clipPath>
    <clipPath
       clipPathUnits="userSpaceOnUse"
       id="clipPath3078">
      <path
         d="M 0,841.89 H 595.276 V 0 H 0 Z"
         transform="translate(-136.885,-368.68301)"
         id="path3078" />
    </clipPath>
    <clipPath
       clipPathUnits="userSpaceOnUse"
       id="clipPath3080">
      <path
         d="M 0,841.89 H 595.276 V 0 H 0 Z"
         transform="translate(-125.904,-368.96201)"
         id="path3080" />
    </clipPath>
    <clipPath
       clipPathUnits="userSpaceOnUse"
       id="clipPath3082">
      <path
         d="M 0,841.89 H 595.276 V 0 H 0 Z"
         transform="translate(-125.899,-368.95001)"
         id="path3082" />
    </clipPath>
    <clipPath
       clipPathUnits="userSpaceOnUse"
       id="clipPath3084">
      <path
         d="M 0,841.89 H 595.276 V 0 H 0 Z"
         transform="translate(-120.63,-367.05701)"
         id="path3084" />
    </clipPath>
    <clipPath
       clipPathUnits="userSpaceOnUse"
       id="clipPath3108">
      <path
         d="M 0,841.89 H 595.276 V 0 H 0 Z"
         id="path3108" />
    </clipPath>
    <clipPath
       clipPathUnits="userSpaceOnUse"
       id="clipPath3084-2">
      <path
         d="M 0,841.89 H 595.276 V 0 H 0 Z"
         transform="translate(-120.63,-367.05701)"
         id="path3084-4" />
    </clipPath>
  </defs>
  <g
     inkscape:label="Layer 1"
     inkscape:groupmode="layer"
     id="layer1"
     transform="translate(-76.199999,-128.32292)">
    <path
       id="path3067"
       d="M 209.985,315.966 H 128.758 V 282.62 h 73.727 a 7.5000005,7.5000005 45 0 1 7.5,7.5 z"
       style="fill:#ffffff;fill-opacity:1;fill-rule:nonzero;stroke:none"
       transform="matrix(0.35277776,0,0,-0.35277776,59.72616,268.01392)"
       clip-path="url(#clipPath3068)"
       inkscape:path-effect="#path-effect4"
       inkscape:original-d="M 209.985,315.966 H 128.758 V 282.62 h 81.227 z" />
    <g
       id="text3068"
       style="font-size:4.23333px;font-family:'Transport Heavy';-inkscape-font-specification:'Transport Heavy, Normal';stroke-width:0.352778"
       aria-label="       PM&#10;4.30 - 6.30">
      <path
         d="m 115.73758,157.89007 h 0.0662 0.0248 0.0248 0.25631 0.0579 0.0496 0.0579 0.0496 0.0413 0.0496 0.0331 0.14883 0.0909 0.0331 0.0331 0.0331 0.0331 0.14056 0.0248 0.0992 0.0248 l 0.0165,0.008 h 0.0248 l 0.0579,0.008 0.0248,0.008 0.11575,0.0248 q 0.77515,0.37207 0.65319,1.17409 -0.27698,0.94877 -1.26503,0.82682 h -0.0331 -0.091 -0.0413 -0.0248 -0.0331 -0.0248 -0.16536 v 1.10794 h -0.10749 -0.0331 -0.14883 -0.0331 -0.0331 -0.0331 -0.14056 -0.0248 -0.0992 v -0.0248 -0.0331 -0.0248 -0.0331 -0.14882 -0.0661 -0.0662 -0.0248 -0.16536 -0.0331 -0.0413 -0.0331 -0.0413 -0.10749 -0.0331 -0.14056 -0.0248 -0.0992 -0.0331 -0.0413 -0.10749 -0.0331 -0.14056 -0.0248 -0.0992 -0.0579 -0.0661 -0.0661 -0.0661 -0.0248 -0.0248 -0.25631 -0.0579 -0.0496 -0.0579 -0.0496 -0.0413 -0.0496 -0.0331 -0.14883 -0.091 -0.0331 -0.0331 -0.0331 -0.0331 -0.14056 -0.0248 -0.0992 z m 0.58705,1.45521 h 0.0331 0.0331 0.0331 0.091 0.0909 0.14883 0.0248 0.0248 0.0331 0.14883 0.0331 q 0.0517,-0.0207 0.091,-0.0248 0.34519,-0.20464 0.23151,-0.56224 -0.0765,-0.17776 -0.23978,-0.24804 h -0.0248 q -0.12815,-0.0372 -0.23151,-0.0248 h -0.0413 -0.0331 -0.0413 -0.10749 -0.0331 -0.14056 -0.0248 -0.0992 z m 2.38124,-1.44694 h 0.0248 0.16536 0.0331 0.0248 0.14883 0.10748 0.0331 0.14056 0.0248 0.0992 l 0.0331,0.0496 0.0165,0.0248 0.0165,0.0248 0.0331,0.0496 q 0.0641,0.0744 0.0909,0.1323 0.0186,0.0207 0.0248,0.0413 l 0.0248,0.0331 0.0331,0.0331 0.0165,0.0331 0.0248,0.0413 0.0165,0.0165 0.008,0.0248 q 0.0434,0.0413 0.0661,0.0827 l 0.0165,0.0331 0.0331,0.0331 0.0248,0.0413 0.008,0.0248 q 0.0434,0.0455 0.0661,0.0827 l 0.008,0.0165 q 0.0289,0.0372 0.0413,0.0661 l 0.0165,0.0165 0.0331,0.0579 0.0165,0.008 0.008,0.0248 q 0.0517,0.0599 0.0744,0.10749 l 0.0248,-0.008 0.008,-0.0248 0.13229,-0.1819 0.0248,-0.0413 0.0827,-0.12403 q 0.0475,-0.0558 0.0661,-0.0992 l 0.0248,-0.0331 0.0248,-0.0248 0.0248,-0.0496 0.0248,-0.0165 0.0165,-0.0331 q 0.0269,-0.0496 0.0579,-0.0744 l 0.0165,-0.0413 q 0.0331,-0.0455 0.0579,-0.0661 l 0.008,-0.0248 0.0165,-0.0248 0.0165,-0.0165 0.008,-0.0248 q 0.0289,-0.0269 0.0413,-0.0496 l 0.0165,-0.0248 0.0744,-0.11575 h 0.0248 0.16536 0.10749 0.0331 0.14883 0.0331 0.0331 0.0331 0.14056 0.0248 0.0992 v 3.15846 h -0.14056 -0.0331 -0.0413 -0.10749 -0.0331 -0.14056 -0.0248 -0.0992 q -0.0496,-0.008 -0.0331,-0.0579 v -0.0248 -0.0331 -0.14056 -0.0248 -0.0992 -0.16537 -0.0579 -0.0496 -0.0331 -0.0248 -0.0413 -0.0248 -0.0331 -0.0248 -0.16537 -0.25631 -0.0496 -0.14056 -0.0496 -0.0331 -0.0248 -0.16536 -0.0331 -0.14056 -0.11575 -0.0248 -0.0248 -0.0661 q 0.004,-0.0765 -0.008,-0.13229 l -0.0413,0.0496 q -0.0145,0.0289 -0.0331,0.0496 -0.0434,0.0765 -0.0827,0.12402 l -0.0331,0.0496 -0.0331,0.0496 -0.0331,0.0496 -0.0992,0.14056 -0.0744,0.11576 -0.0248,0.0331 q -0.0413,0.06 -0.0744,0.0909 l -0.0165,0.0331 q -0.0537,0.0889 -0.0992,0.14056 l -0.0165,0.0331 -0.0248,0.0248 -0.008,0.0248 q -0.0413,0.0599 -0.0744,0.0909 -0.0269,0.0579 -0.0496,0.0909 -0.0785,0.11162 -0.13229,0.16536 -0.0331,-0.0537 -0.0579,-0.0827 l -0.008,-0.0248 -0.0248,-0.0248 -0.0165,-0.0248 -0.008,-0.0248 -0.0248,-0.0331 -0.0331,-0.0496 q -0.0145,-0.008 -0.0165,-0.0165 -0.0289,-0.0455 -0.0579,-0.0744 l -0.0248,-0.0496 -0.0331,-0.0496 q -0.0103,-0.008 -0.008,-0.0165 -0.0434,-0.0413 -0.0662,-0.0827 -0.0579,-0.0785 -0.0827,-0.13229 l -0.0331,-0.0413 -0.0248,-0.0331 -0.0165,-0.0331 q -0.0434,-0.0434 -0.0661,-0.0909 l -0.0248,-0.0248 -0.0413,-0.0744 -0.0248,-0.0248 q -0.0331,-0.0538 -0.0579,-0.0827 l -0.008,-0.0248 -0.0248,-0.0248 -0.008,-0.0248 q -0.0124,-0.0103 -0.0165,-0.0248 -0.0145,-0.008 -0.0165,-0.0165 -0.0103,-0.008 -0.008,-0.0165 l -0.10749,-0.14056 v 2.2655 h -0.008 0.008 -0.0165 0.008 -0.0165 0.008 -0.0165 0.008 -0.0165 0.008 -0.0165 0.008 -0.0165 0.008 -0.0165 0.008 -0.0165 0.008 -0.0165 0.008 -0.0165 0.008 -0.0165 0.008 -0.0165 0.008 -0.0165 0.008 -0.0165 0.008 -0.0165 0.008 -0.0165 0.008 -0.0165 0.008 -0.0165 0.008 -0.0165 0.008 -0.0165 0.008 -0.0165 0.008 -0.0165 0.008 -0.0165 0.008 -0.0165 0.008 -0.0165 0.008 -0.0165 0.008 -0.0165 0.008 -0.0165 0.008 -0.0165 0.008 -0.0165 0.008 -0.0165 0.008 -0.0165 0.008 -0.0165 0.008 -0.0165 0.008 -0.0165 0.008 -0.0165 0.008 -0.0165 0.008 -0.0165 0.008 -0.0165 0.008 -0.0165 0.008 -0.0165 0.008 -0.0165 0.008 -0.0165 0.008 -0.0165 0.008 -0.0165 0.008 -0.0165 0.008 -0.0165 0.008 -0.0165 0.008 -0.0165 0.008 -0.0165 0.008 -0.0165 0.008 -0.0165 0.008 -0.0165 0.008 -0.0165 0.008 -0.0165 0.008 -0.0165 0.008 -0.0165 0.008 -0.0165 0.008 -0.0165 0.008 -0.0165 0.008 -0.0165 0.008 -0.0165 0.008 -0.0165 0.008 -0.0165 0.008 -0.0165 0.008 -0.0165 0.008 -0.0165 0.008 -0.0165 0.008 -0.0165 0.008 -0.0165 0.008 -0.0165 0.008 -0.0165 0.008 -0.0165 0.008 -0.0165 0.008 -0.0165 0.008 -0.0165 0.008 -0.0165 0.008 -0.008 v -0.0248 -0.0331 -0.0248 -0.0331 -0.14883 -0.0661 -0.0661 -0.0248 -0.16537 -0.0331 -0.0413 -0.0331 -0.0413 -0.10749 -0.0331 -0.14056 -0.0248 -0.0992 -0.0331 -0.0413 -0.10749 -0.0331 -0.14056 -0.0248 -0.0992 -0.0579 -0.0662 -0.0661 -0.0661 -0.0248 -0.0248 -0.25631 -0.0579 -0.0496 -0.0579 -0.0496 -0.0413 -0.0496 -0.0331 -0.14883 -0.0909 -0.0331 -0.0331 -0.0331 -0.0331 -0.14056 -0.0248 -0.0992 z"
         id="path40" />
      <path
         d="m 108.10601,163.19 h 0.0248 0.16536 0.0331 0.0248 0.14883 0.10748 0.0331 0.14056 0.0248 0.0992 v 2.02571 h 0.10749 0.0331 0.14056 0.0248 0.0992 v 0.57878 q -0.008,0.0145 -0.0248,0.0165 h -0.091 -0.0413 -0.0248 -0.0331 -0.0248 -0.16536 v 0.53743 h -0.10749 -0.0331 -0.14883 -0.0331 -0.0331 -0.0331 -0.14056 -0.0248 -0.0992 v -0.0909 -0.0413 -0.10749 -0.0331 -0.14056 -0.0248 -0.0992 h -0.0662 -0.11575 -0.0248 -0.0414 -0.0248 -0.0331 -0.0248 -0.16536 -0.14056 -0.0248 -0.0992 -0.10748 -0.0331 -0.14056 -0.0248 -0.0992 -0.091 -0.0413 -0.10749 -0.0331 -0.0248 -0.0331 -0.0248 -0.0331 -0.14882 v -0.0165 -0.0165 -0.0165 -0.0165 -0.0165 -0.0165 -0.0165 -0.0165 -0.0165 -0.0165 -0.0165 -0.0165 -0.0165 -0.0248 0.008 -0.0165 0.008 -0.0165 0.008 -0.0165 0.008 -0.0165 0.008 -0.0165 0.008 -0.0165 0.008 -0.0165 0.008 -0.0165 0.008 -0.0165 0.008 -0.0165 0.008 -0.0165 0.008 -0.0165 0.008 -0.0165 0.008 -0.0165 0.008 -0.0165 0.008 -0.0165 0.008 -0.0165 0.008 -0.0165 0.008 -0.0165 0.008 -0.0165 0.008 -0.0165 0.008 -0.0165 0.008 -0.0165 0.008 -0.0165 0.008 -0.0165 0.008 -0.0165 0.008 -0.0165 0.008 -0.0165 0.008 -0.0165 0.008 -0.0165 0.008 -0.0165 0.008 -0.0165 0.008 -0.0165 0.008 -0.0165 0.008 -0.0165 0.008 -0.0165 0.008 -0.0165 0.008 -0.0165 0.008 -0.0165 0.008 -0.0165 0.008 -0.0165 0.008 -0.0165 0.008 -0.0165 0.008 -0.0165 0.008 -0.008 l 0.0331,-0.0413 0.11575,-0.14882 0.0331,-0.0496 0.0165,-0.0248 0.0248,-0.0331 0.0248,-0.0165 0.0165,-0.0331 0.0165,-0.0248 0.0248,-0.0248 q 0.008,-0.0145 0.0165,-0.0165 l 0.0165,-0.0248 0.008,-0.0248 0.0248,-0.0165 q 0.0744,-0.13023 0.14882,-0.19844 l 0.0331,-0.0579 0.0413,-0.0413 0.008,-0.0248 0.0165,-0.0165 0.0827,-0.11575 0.0248,-0.0165 q 0.0744,-0.13022 0.14883,-0.19844 0.0496,-0.0889 0.0992,-0.14056 l 0.0248,-0.0331 0.0165,-0.0248 0.008,-0.0165 q 0.0455,-0.0475 0.0661,-0.0827 l 0.0744,-0.091 0.0165,-0.0248 0.0744,-0.10749 0.0165,-0.0248 q 0.0538,-0.0579 0.0827,-0.0992 0.008,-0.0145 0.0165,-0.0165 l 0.008,-0.0248 0.0248,-0.0165 0.0331,-0.0579 0.0827,-0.10749 z m 0.14056,0.73587 -0.0331,0.0579 -0.0496,0.0496 -0.0331,0.0579 q -0.0289,0.0269 -0.0413,0.0496 l -0.0331,0.0496 q -0.0289,0.0269 -0.0413,0.0496 l -0.0331,0.0413 q -0.0269,0.0393 -0.0496,0.0662 -0.008,0.0145 -0.0165,0.0165 l -0.008,0.0165 -0.0165,0.0248 -0.008,0.0165 -0.0165,0.008 -0.008,0.0165 q -0.008,0.0145 -0.0165,0.0165 l -0.008,0.0165 -0.008,0.0165 -0.0165,0.008 -0.0579,0.0909 -0.0165,0.0165 -0.0579,0.0744 -0.0248,0.0248 -0.0248,0.0413 -0.0248,0.0248 q -0.0413,0.0723 -0.0744,0.11575 l -0.0496,0.0496 -0.008,0.0248 -0.0248,0.0248 q -0.008,0.0145 -0.0165,0.0165 l -0.008,0.0248 -0.0248,0.0165 -0.0331,0.0579 -0.0827,0.10748 h 0.0579 0.0496 0.0579 0.0496 0.0414 0.0496 0.0331 0.14883 0.0909 0.0331 0.0331 0.0331 0.0331 0.14056 0.0248 0.0992 v -0.0579 -0.16537 -0.0496 -0.0248 -0.0331 -0.0248 -0.0413 -0.0248 -0.0331 -0.0248 -0.16537 -0.0331 -0.0331 -0.0248 -0.14883 -0.10748 -0.0331 -0.14056 -0.0248 -0.0992 h -0.008 0.008 z m 1.9513,1.85208 q 0.28319,0.0269 0.34727,0.27285 0.0351,0.27286 -0.19017,0.38034 -0.38447,0.10129 -0.47956,-0.26458 0.0124,-0.33693 0.32246,-0.38861 z m 2.02572,-2.66237 q 0.88263,-0.0289 1.17408,0.678 0.091,0.27698 0.0248,0.5209 -0.0579,0.30385 -0.32246,0.40514 0.45682,0.21497 0.37207,0.76894 -0.0207,0.57258 -0.47129,0.81856 -0.0868,0.0558 -0.1571,0.0744 -1.53789,0.30179 -1.80247,-0.95911 0.004,-0.0227 0.0248,-0.0248 l 0.0496,-0.008 h 0.0331 q 0.0269,-0.008 0.0496,-0.008 0.0124,-0.008 0.0248,-0.008 h 0.0248 q 0.0806,-0.0227 0.14056,-0.0248 l 0.0248,-0.008 h 0.0413 q 0.14883,-0.0393 0.24805,-0.0413 0.0951,0.46715 0.52917,0.53743 0.5767,0.0351 0.59531,-0.45475 -0.0227,-0.21084 -0.19017,-0.30593 h -0.0248 l -0.0165,-0.008 -0.0744,-0.0165 h -0.0331 l -0.0413,-0.008 h -0.0331 -0.0248 -0.0331 l -0.0165,-0.008 h -0.0331 -0.0248 -0.0579 -0.0331 l -0.14882,-0.0165 v -0.0248 -0.14883 -0.10748 -0.0331 -0.14056 -0.0248 -0.0992 q 0.3762,0.006 0.64492,-0.13229 0.0393,-0.0475 0.0744,-0.0744 0.13849,-0.45888 -0.3886,-0.52089 -0.59738,-0.0227 -0.66973,0.46302 -0.0765,-0.004 -0.13229,-0.0165 h -0.0496 q -0.11162,-0.0227 -0.1819,-0.0248 l -0.0331,-0.008 h -0.0331 l -0.0248,-0.008 h -0.0248 l -0.1819,-0.0248 q 0.23771,-0.92191 1.18236,-0.97566 z m 3.32589,-0.008 q 1.30224,0.0496 1.37252,1.52135 0.0289,0.77928 -0.34726,1.36426 l -0.0248,0.0165 q -0.008,0.0145 -0.0165,0.0165 -0.0289,0.0393 -0.0496,0.0579 l -0.0165,0.008 q -0.0558,0.0599 -0.0992,0.091 -0.65525,0.39274 -1.30638,0.13229 -0.67386,-0.29766 -0.76067,-1.05007 -0.13643,-0.7338 0.0992,-1.35599 0.31212,-0.78548 1.14928,-0.80201 z m -0.0579,0.60358 q -0.57257,0.17156 -0.5457,0.81855 l -0.008,0.0248 v 0.0496 q -0.0103,0.091 -0.008,0.14883 v 0.0248 0.0909 l 0.008,0.0165 q 0,0.0785 0.008,0.1323 l 0.008,0.12402 -0.008,0.0248 0.008,0.0248 q 0.008,0.0475 0.008,0.0661 0.008,0.0124 0.008,0.0248 0.0269,0.0599 0.0331,0.10749 0.0103,0.008 0.008,0.0165 0.0289,0.062 0.0413,0.10749 0.0145,0.008 0.0165,0.0165 0.0475,0.0806 0.0992,0.12402 l 0.0165,0.0165 0.0165,0.0165 0.0165,0.008 0.0248,0.0165 0.008,0.0165 q 0.0662,0.0289 0.10749,0.0579 1.04593,0.22531 0.86816,-1.45521 -0.13229,-0.64285 -0.73587,-0.62011 z m 3.1564,1.03352 h 0.0413 0.0496 0.0248 0.16537 0.10748 0.0331 0.14882 0.0331 0.0331 0.0331 0.14056 0.0248 0.0992 v 0.47956 h -0.0331 -0.14056 -0.091 -0.0331 -0.14056 -0.0248 -0.0992 -0.0248 -0.0331 -0.0331 -0.0331 -0.0331 -0.14056 -0.0248 -0.0992 v -0.0331 -0.0413 -0.10749 -0.0331 -0.14056 -0.0248 -0.0992 z m 4.02869,-1.6123 q 0.95498,-0.0496 1.14101,0.68626 l -0.10748,0.0331 -0.0248,0.0165 -0.0331,0.008 -0.0331,0.008 q -0.0455,0.0248 -0.0909,0.0331 -0.0124,0.008 -0.0248,0.008 -0.0124,0.008 -0.0248,0.008 l -0.0165,0.0165 h -0.0248 q -0.0124,0.008 -0.0248,0.008 -0.0124,0.008 -0.0248,0.008 -0.008,0.0103 -0.0165,0.008 l -0.14056,0.0579 q -0.17777,-0.39068 -0.58705,-0.30593 -0.45475,0.12403 -0.47955,0.66973 0.72553,-0.46302 1.38079,-0.0165 0.45889,0.44649 0.32246,1.11621 -0.0992,0.71314 -0.74414,0.86817 -1.49448,0.24184 -1.6123,-1.43867 -0.0744,-1.70326 1.16582,-1.79421 z m 0.0827,1.60404 q -0.45889,0.0496 -0.53743,0.46302 -0.0103,0.48576 0.42167,0.58704 0.38654,0.06 0.53744,-0.27285 0.1819,-0.52917 -0.28112,-0.76068 h -0.0248 q -0.0661,-0.0186 -0.11575,-0.0165 z m 1.9575,1.04179 q 0.28319,0.0269 0.34727,0.27285 0.0351,0.27286 -0.19017,0.38034 -0.38448,0.10129 -0.47956,-0.26458 0.0124,-0.33693 0.32246,-0.38861 z m 2.02572,-2.66237 q 0.88263,-0.0289 1.17408,0.678 0.091,0.27698 0.0248,0.5209 -0.0579,0.30385 -0.32246,0.40514 0.45682,0.21497 0.37207,0.76894 -0.0207,0.57258 -0.47129,0.81856 -0.0868,0.0558 -0.1571,0.0744 -1.53789,0.30179 -1.80247,-0.95911 0.004,-0.0227 0.0248,-0.0248 l 0.0496,-0.008 h 0.0331 q 0.0269,-0.008 0.0496,-0.008 0.0124,-0.008 0.0248,-0.008 h 0.0248 q 0.0806,-0.0227 0.14056,-0.0248 l 0.0248,-0.008 h 0.0413 q 0.14883,-0.0393 0.24805,-0.0413 0.0951,0.46715 0.52916,0.53743 0.57671,0.0351 0.59532,-0.45475 -0.0227,-0.21084 -0.19017,-0.30593 h -0.0248 l -0.0165,-0.008 -0.0744,-0.0165 h -0.0331 l -0.0413,-0.008 h -0.0331 -0.0248 -0.0331 l -0.0165,-0.008 h -0.0331 -0.0248 -0.0579 -0.0331 l -0.14882,-0.0165 v -0.0248 -0.14883 -0.10748 -0.0331 -0.14056 -0.0248 -0.0992 q 0.3762,0.006 0.64492,-0.13229 0.0393,-0.0475 0.0744,-0.0744 0.13849,-0.45888 -0.38861,-0.52089 -0.59737,-0.0227 -0.66972,0.46302 -0.0765,-0.004 -0.13229,-0.0165 h -0.0496 q -0.11162,-0.0227 -0.1819,-0.0248 l -0.0331,-0.008 h -0.0331 l -0.0248,-0.008 h -0.0248 l -0.1819,-0.0248 q 0.23771,-0.92191 1.18236,-0.97566 z m 3.32589,-0.008 q 1.30224,0.0496 1.37252,1.52135 0.0289,0.77928 -0.34726,1.36426 l -0.0248,0.0165 q -0.008,0.0145 -0.0165,0.0165 -0.0289,0.0393 -0.0496,0.0579 l -0.0165,0.008 q -0.0558,0.0599 -0.0992,0.091 -0.65525,0.39274 -1.30638,0.13229 -0.67386,-0.29766 -0.76067,-1.05007 -0.13643,-0.7338 0.0992,-1.35599 0.31212,-0.78548 1.14928,-0.80201 z m -0.0579,0.60358 q -0.57257,0.17156 -0.5457,0.81855 l -0.008,0.0248 v 0.0496 q -0.0103,0.091 -0.008,0.14883 v 0.0248 0.0909 l 0.008,0.0165 q 0,0.0785 0.008,0.1323 l 0.008,0.12402 -0.008,0.0248 0.008,0.0248 q 0.008,0.0475 0.008,0.0661 0.008,0.0124 0.008,0.0248 0.0269,0.0599 0.0331,0.10749 0.0103,0.008 0.008,0.0165 0.0289,0.062 0.0414,0.10749 0.0145,0.008 0.0165,0.0165 0.0475,0.0806 0.0992,0.12402 l 0.0165,0.0165 0.0165,0.0165 0.0165,0.008 0.0248,0.0165 0.008,0.0165 q 0.0662,0.0289 0.10749,0.0579 1.04593,0.22531 0.86816,-1.45521 -0.13229,-0.64285 -0.73587,-0.62011 z"
         id="path41" />
    </g>
    <path
       id="path3069"
       d="M 128.758,315.966 H 47.53 V 290.12 a 7.5000005,7.5000005 135 0 1 7.5,-7.5 h 73.728 z"
       style="fill:#000000;fill-opacity:1;fill-rule:nonzero;stroke:none"
       transform="matrix(0.35277776,0,0,-0.35277776,59.72616,268.01392)"
       clip-path="url(#clipPath3070)"
       inkscape:path-effect="#path-effect3"
       inkscape:original-d="M 128.758,315.966 H 47.53 V 282.62 h 81.228 z" />
    <g
       id="text3070"
       style="font-size:4.23333px;font-family:'Transport Heavy';-inkscape-font-specification:'Transport Heavy, Normal';fill:#ffffff;stroke-width:0.352778"
       aria-label="        AM&#10;8.00 - 9.30">
      <path
         d="m 88.992844,157.76823 h 0.107487 0.256314 0.115756 0.0248 0.04134 0.02481 0.03307 0.02481 0.165364 v 0.0248 q 0.03514,0.0744 0.04961,0.13229 l 0.01654,0.0579 0.0083,0.0331 q 0.0083,0.0124 0.0083,0.0248 0.0083,0.0124 0.0083,0.0248 0.0083,0.0124 0.0083,0.0248 0.02067,0.0331 0.0248,0.0661 l 0.04961,0.13229 v 0.0248 q 0.03927,0.0765 0.04961,0.14056 0.03927,0.091 0.04961,0.15709 0.0124,0.0248 0.01654,0.0496 l 0.01654,0.0331 q 0.0124,0.0413 0.02481,0.0661 v 0.0248 q 0.0083,0.0124 0.0083,0.0248 0.02067,0.0331 0.02481,0.0661 l 0.04961,0.13229 0.0083,0.0331 0.0083,0.0165 0.01654,0.0744 0.01654,0.0331 0.01654,0.0413 0.0083,0.0248 0.0083,0.0331 0.01654,0.0496 q 0.0124,0.0413 0.0248,0.0661 v 0.0248 q 0.0083,0.0124 0.0083,0.0248 0.02067,0.0331 0.0248,0.0661 l 0.04961,0.1323 0.0083,0.0496 0.02481,0.0496 0.01654,0.0496 v 0.0248 l 0.01654,0.0248 0.0083,0.0331 0.0083,0.0413 q 0.06408,0.14676 0.08268,0.24804 0.0083,0.0124 0.0083,0.0248 0.06408,0.14676 0.08268,0.24804 l 0.01654,0.0248 0.0083,0.0331 0.0083,0.0331 0.0083,0.0248 0.0083,0.0331 q 0.0083,0.0124 0.0083,0.0248 0.0083,0.0124 0.0083,0.0248 0.0083,0.0124 0.0083,0.0248 l 0.01654,0.0248 v 0.0248 q 0.0083,0.0124 0.0083,0.0248 0.02067,0.0331 0.02481,0.0662 0.02687,0.062 0.03307,0.0992 l 0.01654,0.0496 h -0.04961 -0.03307 -0.148828 -0.09095 -0.03307 -0.03307 -0.03307 -0.03307 -0.14056 -0.0248 -0.09922 l -0.01654,-0.0496 v -0.0331 l -0.01654,-0.0248 v -0.0248 q -0.02481,-0.0455 -0.02481,-0.0827 l -0.01654,-0.0248 v -0.0248 l -0.0083,-0.0331 -0.02481,-0.0579 -0.05788,-0.2067 h -0.148828 -0.165364 -0.05788 -0.04961 -0.04134 -0.04961 -0.03307 -0.148828 -0.09095 -0.03307 -0.03307 -0.03307 -0.03307 -0.14056 -0.02481 -0.09922 l -0.0083,0.0413 -0.0083,0.0413 -0.01654,0.0331 q -0.01033,0.0455 -0.02481,0.0827 l -0.0083,0.0413 -0.0083,0.0165 -0.02481,0.0827 -0.0083,0.0331 -0.0083,0.0248 q -0.01447,0.0434 -0.02481,0.0661 l -0.02481,0.0992 h -0.03307 -0.03307 -0.0248 -0.165365 -0.0248 -0.148828 -0.02481 -0.256315 l 0.01654,-0.0661 0.0248,-0.0827 0.0083,-0.0248 0.0083,-0.0248 0.0083,-0.0248 0.0083,-0.0165 0.04134,-0.1323 0.0083,-0.0248 0.0083,-0.0248 0.0083,-0.0331 0.01654,-0.0331 0.02481,-0.0909 0.0083,-0.0248 0.0083,-0.0248 0.0083,-0.0248 0.0083,-0.0165 q 0.02481,-0.0951 0.04961,-0.14883 l 0.01654,-0.0579 0.0083,-0.0165 q 0.02481,-0.0951 0.04961,-0.14883 0.01034,-0.0413 0.02481,-0.0661 l 0.01654,-0.0661 0.0248,-0.0579 0.01654,-0.0661 0.0083,-0.0165 q 0.0248,-0.0951 0.04961,-0.14883 l 0.01654,-0.0662 0.06615,-0.1819 0.01654,-0.0579 0.0083,-0.0248 0.0083,-0.0248 q 0.02481,-0.0786 0.04961,-0.1323 l 0.01654,-0.0496 0.0083,-0.0248 v -0.0248 l 0.0083,-0.0248 0.05788,-0.14883 0.0083,-0.0496 0.01654,-0.0413 0.01654,-0.0331 q 0.01654,-0.0786 0.04134,-0.13229 l 0.0083,-0.0413 0.0083,-0.0248 0.0083,-0.0165 q 0.0248,-0.0951 0.04961,-0.14883 l 0.0083,-0.0331 0.0083,-0.0331 q 0.02274,-0.0475 0.03307,-0.091 l 0.02481,-0.0827 0.0083,-0.0248 0.06615,-0.19016 z m 0.355533,0.7276 -0.0248,0.0909 -0.0083,0.0165 -0.04134,0.14882 -0.04961,0.14056 -0.0083,0.0165 -0.04961,0.1819 -0.0083,0.0331 -0.04961,0.14056 -0.01654,0.0413 q -0.0083,0.0662 -0.03307,0.11576 -0.0062,0.0475 -0.0248,0.0909 l -0.0083,0.0331 q -0.01654,0.0496 -0.03307,0.0827 l -0.04961,0.1819 h 0.02481 0.03307 0.03307 0.03307 0.03307 0.140559 0.02481 0.09922 0.03307 0.09095 0.04134 0.02481 0.03307 0.0248 0.165365 l -0.01654,-0.0662 -0.04961,-0.1571 -0.04134,-0.14056 q -0.03101,-0.0785 -0.04134,-0.13229 l -0.0083,-0.0165 q -0.01654,-0.06 -0.03307,-0.0992 l -0.0083,-0.0331 -0.0083,-0.0331 -0.01654,-0.0413 -0.0083,-0.0496 -0.0083,-0.0331 -0.01654,-0.0248 -0.0083,-0.0496 -0.0083,-0.0331 q -0.0124,-0.0248 -0.01654,-0.0496 l -0.0083,-0.0331 q -0.03101,-0.062 -0.04134,-0.11576 l -0.0083,-0.0248 -0.0083,-0.0165 -0.01654,-0.0744 -0.0083,-0.0248 -0.04134,-0.10748 z m 2.133202,-0.7276 h 0.0248 0.165365 0.03307 0.0248 0.148828 0.107487 0.03307 0.14056 0.02481 0.09922 l 0.03307,0.0496 0.01654,0.0248 0.01654,0.0248 0.03307,0.0496 q 0.06408,0.0744 0.09095,0.13229 0.0186,0.0207 0.02481,0.0413 l 0.02481,0.0331 0.03307,0.0331 0.01654,0.0331 0.02481,0.0413 0.01654,0.0165 0.0083,0.0248 q 0.04341,0.0413 0.06615,0.0827 l 0.01654,0.0331 0.03307,0.0331 0.02481,0.0413 0.0083,0.0248 q 0.04341,0.0455 0.06615,0.0827 l 0.0083,0.0165 q 0.02894,0.0372 0.04134,0.0661 l 0.01654,0.0165 0.03307,0.0579 0.01654,0.008 0.0083,0.0248 q 0.05168,0.0599 0.07441,0.10749 l 0.02481,-0.008 0.0083,-0.0248 0.132292,-0.18191 0.02481,-0.0413 0.08268,-0.12402 q 0.04754,-0.0558 0.06615,-0.0992 l 0.0248,-0.0331 0.02481,-0.0248 0.02481,-0.0496 0.0248,-0.0165 0.01654,-0.0331 q 0.02687,-0.0496 0.05788,-0.0744 l 0.01654,-0.0413 q 0.03307,-0.0455 0.05788,-0.0661 l 0.0083,-0.0248 0.01654,-0.0248 0.01654,-0.0165 0.0083,-0.0248 q 0.02894,-0.0269 0.04134,-0.0496 l 0.01654,-0.0248 0.07441,-0.11575 h 0.02481 0.165364 0.107487 0.03307 0.148828 0.03307 0.03307 0.03307 0.140559 0.02481 0.09922 v 3.15846 h -0.14056 -0.03307 -0.04134 -0.107487 -0.03307 -0.14056 -0.0248 -0.09922 q -0.04961,-0.008 -0.03307,-0.0579 v -0.0248 -0.0331 -0.14056 -0.0248 -0.0992 -0.16537 -0.0579 -0.0496 -0.0331 -0.0248 -0.0413 -0.0248 -0.0331 -0.0248 -0.16537 -0.25631 -0.0496 -0.14056 -0.0496 -0.0331 -0.0248 -0.16536 -0.0331 -0.14056 -0.11575 -0.0248 -0.0248 -0.0661 q 0.0041,-0.0765 -0.0083,-0.13229 l -0.04134,0.0496 q -0.01447,0.0289 -0.03307,0.0496 -0.04341,0.0765 -0.08268,0.12402 l -0.03307,0.0496 -0.03307,0.0496 -0.03307,0.0496 -0.09922,0.14056 -0.07441,0.11576 -0.0248,0.0331 q -0.04134,0.0599 -0.07441,0.091 l -0.01654,0.0331 q -0.05374,0.0889 -0.09922,0.14056 l -0.01654,0.0331 -0.0248,0.0248 -0.0083,0.0248 q -0.04134,0.06 -0.07441,0.0909 -0.02687,0.0579 -0.04961,0.091 -0.07855,0.11162 -0.132292,0.16536 -0.03307,-0.0537 -0.05788,-0.0827 l -0.0083,-0.0248 -0.02481,-0.0248 -0.01654,-0.0248 -0.0083,-0.0248 -0.0248,-0.0331 -0.03307,-0.0496 q -0.01447,-0.008 -0.01654,-0.0165 -0.02894,-0.0455 -0.05788,-0.0744 l -0.02481,-0.0496 -0.03307,-0.0496 q -0.01033,-0.008 -0.0083,-0.0165 -0.04341,-0.0413 -0.06615,-0.0827 -0.05788,-0.0786 -0.08268,-0.13229 l -0.03307,-0.0413 -0.02481,-0.0331 -0.01654,-0.0331 q -0.04341,-0.0434 -0.06615,-0.0909 l -0.0248,-0.0248 -0.04134,-0.0744 -0.0248,-0.0248 q -0.03307,-0.0538 -0.05788,-0.0827 l -0.0083,-0.0248 -0.02481,-0.0248 -0.0083,-0.0248 q -0.0124,-0.0103 -0.01654,-0.0248 -0.01447,-0.008 -0.01654,-0.0165 -0.01033,-0.008 -0.0083,-0.0165 l -0.107487,-0.14056 v 2.2655 h -0.0083 0.0083 -0.01654 0.0083 -0.01654 0.0083 -0.01654 0.0083 -0.01654 0.0083 -0.01654 0.0083 -0.01654 0.0083 -0.01654 0.0083 -0.01654 0.0083 -0.01654 0.0083 -0.01654 0.0083 -0.01654 0.0083 -0.01654 0.0083 -0.01654 0.0083 -0.01654 0.0083 -0.01654 0.0083 -0.01654 0.0083 -0.01654 0.0083 -0.01654 0.0083 -0.01654 0.0083 -0.01654 0.0083 -0.01654 0.0083 -0.01654 0.0083 -0.01654 0.0083 -0.01654 0.0083 -0.01654 0.0083 -0.01654 0.0083 -0.01654 0.0083 -0.01654 0.0083 -0.01654 0.0083 -0.01654 0.0083 -0.01654 0.0083 -0.01654 0.0083 -0.01654 0.0083 -0.01654 0.0083 -0.01654 0.0083 -0.01654 0.0083 -0.01654 0.0083 -0.01654 0.0083 -0.01654 0.0083 -0.01654 0.0083 -0.01654 0.0083 -0.01654 0.0083 -0.01654 0.0083 -0.01654 0.0083 -0.01654 0.0083 -0.01654 0.0083 -0.01654 0.0083 -0.01654 0.0083 -0.01654 0.0083 -0.01654 0.0083 -0.01654 0.0083 -0.01654 0.0083 -0.01654 0.0083 -0.01654 0.0083 -0.01654 0.0083 -0.01654 0.0083 -0.01654 0.0083 -0.01654 0.0083 -0.01654 0.0083 -0.01654 0.0083 -0.01654 0.0083 -0.01654 0.0083 -0.01654 0.0083 -0.01654 0.0083 -0.01654 0.0083 -0.01654 0.0083 -0.01654 0.0083 -0.01654 0.0083 -0.01654 0.0083 -0.01654 0.0083 -0.01654 0.0083 -0.01654 0.0083 -0.01654 0.0083 -0.01654 0.0083 -0.01654 0.0083 -0.01654 0.0083 -0.01654 0.0083 -0.0083 v -0.0248 -0.0331 -0.0248 -0.0331 -0.14883 -0.0661 -0.0661 -0.0248 -0.16537 -0.0331 -0.0413 -0.0331 -0.0413 -0.10748 -0.0331 -0.14056 -0.0248 -0.0992 -0.0331 -0.0413 -0.10749 -0.0331 -0.14056 -0.0248 -0.0992 -0.0579 -0.0662 -0.0661 -0.0661 -0.0248 -0.0248 -0.25631 -0.0579 -0.0496 -0.0579 -0.0496 -0.0413 -0.0496 -0.0331 -0.14883 -0.0909 -0.0331 -0.0331 -0.0331 -0.0331 -0.14056 -0.0248 -0.0992 z"
         id="path38" />
      <path
         d="m 79.40584,163.00201 q 0.882633,-0.0372 1.182356,0.65319 0.200504,0.62425 -0.314192,0.91777 0.429947,0.23151 0.421679,0.678 0.01447,0.48575 -0.322461,0.76894 -0.599446,0.40514 -1.281574,0.20671 -0.67386,-0.17364 -0.760677,-0.81856 -0.05994,-0.60151 0.42168,-0.81855 -0.49196,-0.32866 -0.338997,-0.8599 0.233577,-0.67179 0.992186,-0.7276 z m 0.04134,0.59531 q -0.250113,0.0351 -0.37207,0.22324 -0.09302,0.47749 0.388607,0.51263 0.504361,0.0289 0.51263,-0.42994 -0.138493,-0.34727 -0.529167,-0.30593 z m -0.01654,1.28984 q -0.448551,0.0476 -0.438216,0.44649 0.07235,0.35967 0.446484,0.35553 0.628385,0.0558 0.595312,-0.50436 -0.144694,-0.33693 -0.60358,-0.29766 z m 2.129067,0.76068 q 0.283187,0.0269 0.347266,0.27285 0.03514,0.27285 -0.19017,0.38034 -0.384472,0.10129 -0.479556,-0.26458 0.0124,-0.33693 0.32246,-0.38861 z m 2.292365,-2.67063 q 1.302245,0.0496 1.372524,1.52135 0.02894,0.77928 -0.347265,1.36425 l -0.02481,0.0165 q -0.0083,0.0145 -0.01654,0.0165 -0.02894,0.0393 -0.04961,0.0579 l -0.01654,0.008 q -0.05581,0.06 -0.09922,0.0909 -0.655257,0.39274 -1.30638,0.1323 -0.67386,-0.29766 -0.760676,-1.05007 -0.136426,-0.7338 0.09922,-1.35599 0.312125,-0.78548 1.149283,-0.80201 z m -0.05788,0.60358 q -0.572574,0.17156 -0.545703,0.81855 l -0.0083,0.0248 v 0.0496 q -0.01033,0.0909 -0.0083,0.14883 v 0.0248 0.0909 l 0.0083,0.0165 q 0,0.0785 0.0083,0.13229 l 0.0083,0.12403 -0.0083,0.0248 0.0083,0.0248 q 0.0083,0.0475 0.0083,0.0661 0.0083,0.0124 0.0083,0.0248 0.02687,0.0599 0.03307,0.10748 0.01033,0.008 0.0083,0.0165 0.02894,0.062 0.04134,0.10749 0.01447,0.008 0.01654,0.0165 0.04754,0.0806 0.09922,0.12403 l 0.01654,0.0165 0.01654,0.0165 0.01654,0.008 0.0248,0.0165 0.0083,0.0165 q 0.06614,0.0289 0.107486,0.0579 1.045931,0.22531 0.868164,-1.45521 -0.132292,-0.64285 -0.735872,-0.62011 z m 3.307289,-0.60358 q 1.302245,0.0496 1.372525,1.52135 0.02894,0.77928 -0.347265,1.36425 l -0.02481,0.0165 q -0.0083,0.0145 -0.01654,0.0165 -0.02894,0.0393 -0.04961,0.0579 l -0.01654,0.008 q -0.05581,0.06 -0.09922,0.0909 -0.655256,0.39274 -1.306379,0.1323 -0.67386,-0.29766 -0.760676,-1.05007 -0.136426,-0.7338 0.09922,-1.35599 0.312126,-0.78548 1.149283,-0.80201 z m -0.05788,0.60358 q -0.572575,0.17156 -0.545703,0.81855 l -0.0083,0.0248 v 0.0496 q -0.01034,0.0909 -0.0083,0.14883 v 0.0248 0.0909 l 0.0083,0.0165 q 0,0.0785 0.0083,0.13229 l 0.0083,0.12403 -0.0083,0.0248 0.0083,0.0248 q 0.0083,0.0475 0.0083,0.0661 0.0083,0.0124 0.0083,0.0248 0.02687,0.0599 0.03307,0.10748 0.01033,0.008 0.0083,0.0165 0.02894,0.062 0.04134,0.10749 0.01447,0.008 0.01654,0.0165 0.04754,0.0806 0.09922,0.12403 l 0.01654,0.0165 0.01654,0.0165 0.01654,0.008 0.02481,0.0165 0.0083,0.0165 q 0.06615,0.0289 0.107487,0.0579 1.04593,0.22531 0.868163,-1.45521 -0.132291,-0.64285 -0.735871,-0.62011 z m 3.156394,1.03352 h 0.04134 0.04961 0.02481 0.165364 0.107487 0.03307 0.148828 0.03307 0.03307 0.03307 0.14056 0.0248 0.09922 v 0.47956 h -0.03307 -0.14056 -0.09095 -0.03307 -0.14056 -0.02481 -0.09922 -0.02481 -0.03307 -0.03307 -0.03307 -0.03307 -0.14056 -0.02481 -0.09922 v -0.0331 -0.0413 -0.10749 -0.0331 -0.14056 -0.0248 -0.0992 z m 3.917069,-1.60403 q 0.99012,-0.0186 1.223697,0.84336 l 0.02481,0.0165 0.0083,0.0413 0.0083,0.0331 0.0083,0.0331 0.0083,0.0165 0.01654,0.0744 v 0.0413 q 0.0083,0.0124 0.0083,0.0248 l 0.01654,0.0909 0.01654,0.14056 0.01654,0.13229 q 0.07028,1.54616 -1.008723,1.75286 -1.058333,0.14883 -1.298111,-0.66146 l 0.173632,-0.0579 q 0.0083,-0.0103 0.01654,-0.008 l 0.07441,-0.0331 q 0.05168,-0.0145 0.08268,-0.0331 l 0.02481,-0.008 h 0.0248 q 0.0083,-0.0103 0.01654,-0.008 l 0.0248,-0.008 0.132292,-0.0579 h 0.03307 q 0.134358,0.37207 0.537434,0.30592 0.427881,-0.0971 0.504362,-0.53743 l 0.0083,-0.13229 q -0.553971,0.35553 -1.11621,0.15709 -0.560172,-0.24391 -0.595312,-0.81028 -0.117822,-1.25057 1.008723,-1.34772 z m 0.06615,0.59531 q -0.324528,0.0806 -0.421679,0.37207 -0.08475,0.59738 0.454752,0.69453 0.566373,-0.0579 0.545703,-0.60358 -0.109554,-0.47542 -0.578776,-0.46302 z m 2.08566,2.04225 q 0.283187,0.0269 0.347266,0.27285 0.03514,0.27285 -0.19017,0.38034 -0.384472,0.10129 -0.479556,-0.26458 0.0124,-0.33693 0.32246,-0.38861 z m 2.025714,-2.66237 q 0.882633,-0.0289 1.174087,0.678 0.09095,0.27698 0.02481,0.5209 -0.05788,0.30385 -0.322461,0.40514 0.45682,0.21497 0.37207,0.76894 -0.02067,0.57258 -0.471288,0.81856 -0.08682,0.0558 -0.157096,0.0744 -1.53789,0.30179 -1.802473,-0.95911 0.0041,-0.0227 0.02481,-0.0248 l 0.04961,-0.008 h 0.03307 q 0.02687,-0.008 0.04961,-0.008 0.0124,-0.008 0.02481,-0.008 h 0.02481 q 0.08061,-0.0227 0.140559,-0.0248 l 0.02481,-0.008 h 0.04134 q 0.148828,-0.0393 0.248047,-0.0413 0.09508,0.46716 0.529166,0.53744 0.576709,0.0351 0.595312,-0.45475 -0.02274,-0.21084 -0.190169,-0.30593 H 98.6832 l -0.01654,-0.008 -0.07441,-0.0165 h -0.03307 l -0.04134,-0.008 h -0.03307 -0.02481 -0.03307 l -0.01654,-0.008 h -0.03307 -0.02481 -0.05788 -0.03307 l -0.148828,-0.0165 v -0.0248 -0.14883 -0.10749 -0.0331 -0.14056 -0.0248 -0.0992 q 0.376204,0.006 0.644921,-0.13229 0.03927,-0.0475 0.07441,-0.0744 0.138493,-0.45888 -0.388606,-0.52089 -0.597379,-0.0227 -0.669726,0.46302 -0.07648,-0.004 -0.132292,-0.0165 h -0.04961 q -0.111621,-0.0227 -0.181901,-0.0248 l -0.03307,-0.008 h -0.03307 l -0.0248,-0.008 h -0.02481 l -0.181901,-0.0248 q 0.237712,-0.9219 1.182356,-0.97565 z m 3.325896,-0.008 q 1.30224,0.0496 1.37252,1.52135 0.0289,0.77928 -0.34726,1.36425 l -0.0248,0.0165 q -0.008,0.0145 -0.0165,0.0165 -0.0289,0.0393 -0.0496,0.0579 l -0.0165,0.008 q -0.0558,0.06 -0.0992,0.0909 -0.65526,0.39274 -1.30638,0.1323 -0.67386,-0.29766 -0.76068,-1.05007 -0.13642,-0.7338 0.0992,-1.35599 0.31213,-0.78548 1.14929,-0.80201 z m -0.0579,0.60358 q -0.57258,0.17156 -0.5457,0.81855 l -0.008,0.0248 v 0.0496 q -0.0103,0.0909 -0.008,0.14883 v 0.0248 0.0909 l 0.008,0.0165 q 0,0.0785 0.008,0.13229 l 0.008,0.12403 -0.008,0.0248 0.008,0.0248 q 0.008,0.0475 0.008,0.0661 0.008,0.0124 0.008,0.0248 0.0269,0.0599 0.0331,0.10748 0.0103,0.008 0.008,0.0165 0.0289,0.062 0.0413,0.10749 0.0145,0.008 0.0165,0.0165 0.0475,0.0806 0.0992,0.12403 l 0.0165,0.0165 0.0165,0.0165 0.0165,0.008 0.0248,0.0165 0.008,0.0165 q 0.0662,0.0289 0.10749,0.0579 1.04593,0.22531 0.86816,-1.45521 -0.13229,-0.64285 -0.73587,-0.62011 z"
         id="path39" />
    </g>
    <path
       id="path3073"
       d="M 209.985,315.966 H 47.531 l 0,72.425 a 6.7500004,6.7500004 45 0 0 6.75,6.75 h 148.954 a 6.7500004,6.7500004 135 0 0 6.75,-6.75 z"
       style="fill:#fed402;fill-opacity:1;fill-rule:nonzero;stroke:none"
       transform="matrix(0.35277776,0,0,-0.35277776,59.72616,268.01392)"
       clip-path="url(#clipPath3074)"
       inkscape:path-effect="#path-effect2"
       inkscape:original-d="M 209.985,315.966 H 47.531 v 79.175 h 162.454 z" />
    <path
       d="m 103.09862,138.11361 h 0.0386 0.17363 0.0386 0.0386 0.0386 0.16398 0.0289 0.11576 v 1.25401 l 0.0579,-0.0482 0.01,-0.0289 0.0675,-0.0579 q 0.01,-0.0169 0.0193,-0.0193 l 0.01,-0.0193 0.12541,-0.14469 0.0482,-0.0386 0.0289,-0.0482 0.0193,-0.0193 0.0193,-0.0193 0.0193,-0.0193 0.0193,-0.0193 0.0193,-0.0289 0.0193,-0.01 0.1254,-0.1447 0.0386,-0.0289 0.0289,-0.0386 0.0289,-0.0386 0.0386,-0.0289 0.0289,-0.0386 q 0.01,-0.0169 0.0193,-0.0193 l 0.0289,-0.0289 0.01,-0.0193 q 0.0338,-0.0434 0.0675,-0.0675 0.0651,-0.0941 0.13505,-0.14469 0.0579,-0.0844 0.10611,-0.13505 h 0.0482 0.0289 0.19292 0.1254 0.0386 0.17363 0.0386 0.0386 0.0386 0.16398 0.0289 0.11576 l -0.0193,0.0289 -0.0193,0.0289 -0.0289,0.0289 -0.0193,0.0193 q -0.0482,0.0579 -0.0868,0.0868 -0.0289,0.0434 -0.0579,0.0675 l -0.01,0.0193 -0.0193,0.01 q -0.0699,0.0941 -0.1254,0.14469 l -0.0482,0.0482 -0.1254,0.1447 -0.0386,0.0386 -0.0289,0.0386 -0.0482,0.0386 -0.0193,0.0386 -0.0289,0.0289 -0.10611,0.11575 -0.0386,0.0386 -0.0289,0.0386 -0.0386,0.0289 -0.0193,0.0289 q -0.0362,0.0506 -0.0772,0.0772 -0.01,0.0169 -0.0193,0.0193 l -0.01,0.0289 -0.0289,0.0289 -0.0193,0.0193 -0.0193,0.0193 -0.0193,0.0193 -0.0193,0.0289 -0.15434,0.15434 q 0.0145,0.041 0.0386,0.0675 l 0.0289,0.0675 0.0386,0.0579 q 0.0217,0.0241 0.0289,0.0482 0.0289,0.0241 0.0482,0.0579 l 0.01,0.0289 q 0.0627,0.0796 0.0965,0.14469 l 0.0386,0.0579 0.01,0.0289 0.0193,0.01 0.0868,0.15434 0.0193,0.0193 0.0386,0.0675 q 0.041,0.0555 0.0579,0.0965 l 0.0386,0.0482 0.17363,0.27974 q 0.0555,0.0748 0.0772,0.13505 0.0169,0.01 0.0193,0.0193 l 0.0868,0.1254 0.0675,0.11576 0.0289,0.0386 0.0193,0.0482 q 0.0145,0.0121 0.0193,0.0289 l 0.0193,0.0289 q 0.0603,0.0748 0.0868,0.13505 l 0.0386,0.0675 0.0193,0.01 0.01,0.0289 q 0.0121,0.01 0.01,0.0193 0.0844,0.0941 0.11575,0.19292 h -0.13505 -0.1254 -0.0386 -0.17363 -0.0386 -0.0386 -0.0386 -0.16399 -0.0289 -0.11575 l -0.0289,-0.0579 q -0.0145,-0.0121 -0.0193,-0.0289 -0.0169,-0.01 -0.0193,-0.0193 l -0.01,-0.0289 q -0.0145,-0.0121 -0.0193,-0.0289 -0.0386,-0.0362 -0.0482,-0.0772 -0.0169,-0.01 -0.0193,-0.0193 l -0.01,-0.0193 -0.0772,-0.10611 -0.01,-0.0289 -0.10611,-0.16398 q -0.0193,-0.0314 -0.0289,-0.0579 -0.0169,-0.01 -0.0193,-0.0193 l -0.0868,-0.1254 -0.0289,-0.0579 -0.0289,-0.0386 -0.01,-0.0289 q -0.0627,-0.0724 -0.0868,-0.13505 l -0.0289,-0.0289 -0.0675,-0.1254 q -0.0145,-0.0121 -0.0193,-0.0289 l -0.0482,-0.0579 -0.0193,-0.0289 -0.01,-0.0386 -0.0193,-0.01 -0.01,-0.0289 -0.0386,-0.0675 q -0.0627,-0.0675 -0.0868,-0.13505 l -0.0386,-0.0289 -0.0193,0.0386 -0.0289,0.0193 -0.0193,0.0289 -0.0193,0.0193 -0.0193,0.0289 -0.0289,0.0193 -0.01,0.0193 q -0.0531,0.0506 -0.0772,0.0868 l -0.0772,0.0772 v 1.28295 h -0.1254 -0.0386 -0.17363 -0.0386 -0.0386 -0.0386 -0.16398 -0.0289 -0.11576 v -0.0289 -0.0386 -0.0289 -0.0386 -0.17364 -0.0772 -0.0772 -0.0289 -0.19292 -0.0386 -0.0482 -0.0386 -0.0482 -0.1254 -0.0386 -0.16399 -0.0289 -0.11575 -0.0386 -0.0482 -0.1254 -0.0386 -0.16399 -0.0289 -0.11575 -0.0675 -0.0772 -0.0772 -0.0772 -0.0289 -0.0289 -0.29903 -0.0675 -0.0579 -0.0675 -0.0579 -0.0482 -0.0579 -0.0386 -0.17363 -0.10611 -0.0386 -0.0386 -0.0386 -0.0386 -0.16399 -0.0289 -0.11575 z m 3.54983,-0.01 h 0.0386 0.16398 0.0289 0.11576 0.19292 0.0386 0.17363 0.0289 0.0289 0.29903 0.16399 0.0772 0.0675 0.0386 0.0289 0.19292 0.0386 0.0289 0.17363 0.1254 0.0386 0.16398 0.0289 0.11576 v 0.73312 h -0.19293 -0.0579 -0.16398 -0.0289 -0.11576 -0.1254 -0.0386 -0.16399 -0.0289 -0.11575 -0.10611 -0.0482 -0.1254 -0.0386 -0.16399 -0.0289 -0.11575 v 0.74276 h 0.0289 0.19292 0.1254 0.0386 0.17363 0.0386 0.0386 0.0386 0.16398 0.0772 0.0675 0.0482 0.1254 0.0386 0.16398 0.0289 0.11576 v 0.68489 h -0.13505 -0.0289 -0.0482 -0.0289 -0.0386 -0.0289 -0.19293 -0.1254 -0.0675 -0.13504 -0.0289 -0.17364 -0.1254 -0.0386 -0.16399 -0.0289 -0.11575 v 0.7717 q 0.0193,0.041 0.0675,0.0289 h 0.0772 0.19293 0.0579 0.16399 0.0289 0.11576 0.1254 0.0386 0.16399 0.0289 0.11575 0.10611 0.0482 0.1254 0.0386 0.16399 0.0289 0.11576 v 0.73311 h -0.0289 -0.0386 -0.16399 -0.0289 -0.11575 -0.19293 -0.0772 -0.0772 -0.0772 -0.0772 -0.19293 -0.0289 -0.0289 -0.29904 -0.0675 -0.0579 -0.0675 -0.0579 -0.0482 -0.0579 -0.0386 -0.17364 -0.10611 -0.0386 -0.0386 -0.0386 -0.0386 -0.16398 -0.0289 -0.11576 v -0.0386 -0.17363 -0.0772 -0.0772 -0.0289 -0.0386 -0.17363 -0.0289 -0.19292 -0.0772 -0.0386 -0.17363 -0.0289 -0.0289 -0.29903 -0.0675 -0.0289 -0.0386 -0.17364 -0.13504 -0.0289 -0.0482 -0.0289 -0.0386 -0.0289 -0.19292 -0.16399 -0.0289 -0.11575 -0.1254 -0.0386 -0.16399 -0.0289 -0.11576 -0.10611 -0.0482 -0.1254 -0.0386 -0.16398 -0.0289 -0.11576 z m 3.55948,0 h 0.0386 0.16399 0.0289 0.11575 0.19293 0.0386 0.17363 0.0289 0.0289 0.29904 0.16398 0.0772 0.0675 0.0386 0.0289 0.19293 0.0386 0.0289 0.17363 0.1254 0.0386 0.16399 0.0289 0.11576 v 0.73312 h -0.19293 -0.0579 -0.16399 -0.0289 -0.11575 -0.12541 -0.0386 -0.16399 -0.0289 -0.11575 -0.10611 -0.0482 -0.1254 -0.0386 -0.16398 -0.0289 -0.11576 v 0.74276 h 0.0289 0.19293 0.1254 0.0386 0.17364 0.0386 0.0386 0.0386 0.16399 0.0772 0.0675 0.0482 0.1254 0.0386 0.16399 0.0289 0.11576 v 0.68489 h -0.13505 -0.0289 -0.0482 -0.0289 -0.0386 -0.0289 -0.19293 -0.1254 -0.0675 -0.13505 -0.0289 -0.17363 -0.1254 -0.0386 -0.16398 -0.0289 -0.11576 v 0.7717 q 0.0193,0.041 0.0675,0.0289 h 0.0772 0.19292 0.0579 0.16399 0.0289 0.11576 0.1254 0.0386 0.16398 0.0289 0.11576 0.10611 0.0482 0.1254 0.0386 0.16399 0.0289 0.11575 v 0.73311 h -0.0289 -0.0386 -0.16399 -0.0289 -0.11575 -0.19293 -0.0772 -0.0772 -0.0772 -0.0772 -0.19292 -0.0289 -0.0289 -0.29903 -0.0675 -0.0579 -0.0675 -0.0579 -0.0482 -0.0579 -0.0386 -0.17363 -0.10611 -0.0386 -0.0386 -0.0386 -0.0386 -0.16399 -0.0289 -0.11575 v -0.0386 -0.17363 -0.0772 -0.0772 -0.0289 -0.0386 -0.17363 -0.0289 -0.19292 -0.0772 -0.0386 -0.17363 -0.0289 -0.0289 -0.29903 -0.0675 -0.0289 -0.0386 -0.17364 -0.13504 -0.0289 -0.0482 -0.0289 -0.0386 -0.0289 -0.19292 -0.16399 -0.0289 -0.11575 -0.1254 -0.0386 -0.16399 -0.0289 -0.11576 -0.10611 -0.0482 -0.1254 -0.0386 -0.16398 -0.0289 -0.11576 z m 3.62699,-0.01 h 0.0772 0.0289 0.0289 0.29903 0.0675 0.0579 0.0675 0.0579 0.0482 0.0579 0.0386 0.17363 0.10611 0.0386 0.0386 0.0386 0.0386 0.16399 0.0289 0.11575 0.0289 l 0.0193,0.01 h 0.0289 l 0.0675,0.01 0.0289,0.01 0.13504,0.0289 q 0.90434,0.43409 0.76206,1.36977 -0.32315,1.10691 -1.47588,0.96463 h -0.0386 -0.10611 -0.0482 -0.0289 -0.0386 -0.0289 -0.19292 v 1.2926 h -0.1254 -0.0386 -0.17363 -0.0386 -0.0386 -0.0386 -0.16398 -0.0289 -0.11576 v -0.0289 -0.0386 -0.0289 -0.0386 -0.17363 -0.0772 -0.0772 -0.0289 -0.19292 -0.0386 -0.0482 -0.0386 -0.0482 -0.1254 -0.0386 -0.16399 -0.0289 -0.11575 -0.0386 -0.0482 -0.1254 -0.0386 -0.16398 -0.0289 -0.11576 -0.0675 -0.0772 -0.0772 -0.0772 -0.0289 -0.0289 -0.29903 -0.0675 -0.0579 -0.0675 -0.0579 -0.0482 -0.0579 -0.0386 -0.17363 -0.10611 -0.0386 -0.0386 -0.0386 -0.0386 -0.16399 -0.0289 -0.11575 z m 0.68489,1.69774 h 0.0386 0.0386 0.0386 0.10611 0.10611 0.17363 0.0289 0.0289 0.0386 0.17363 0.0386 q 0.0603,-0.0241 0.10611,-0.0289 0.40273,-0.23874 0.2701,-0.65594 -0.0892,-0.2074 -0.27974,-0.28939 h -0.0289 q -0.14952,-0.0434 -0.2701,-0.0289 h -0.0482 -0.0386 -0.0482 -0.1254 -0.0386 -0.16399 -0.0289 -0.11575 z m 5.67924,-1.76527 q 1.40594,-0.0723 1.85208,1.14791 l -0.0386,0.0289 -0.16399,0.0579 -0.0386,0.0193 -0.0386,0.01 q -0.0699,0.041 -0.1254,0.0579 l -0.0482,0.01 -0.0193,0.0193 h -0.0289 l -0.0193,0.0193 h -0.0289 l -0.0193,0.0193 h -0.0289 l -0.0193,0.0193 -0.0386,0.01 -0.10611,0.0386 q -0.24116,-0.8754 -1.11897,-0.70418 -0.68006,0.26286 -0.66559,1.01286 -0.0892,0.77894 0.3762,1.17685 0.38344,0.26044 0.80064,0.13504 0.52572,-0.17122 0.59807,-0.68488 0.0916,0.0169 0.15434,0.0579 0.0989,0.0265 0.16399,0.0579 l 0.0386,0.0193 0.0579,0.0193 0.0289,0.01 0.0675,0.0289 0.0386,0.01 0.0289,0.0193 q 0.0482,0.0121 0.0772,0.0289 l 0.11575,0.0386 q -0.38585,1.07073 -1.43729,1.15755 -1.0635,0.0772 -1.61093,-0.72347 -0.5836,-1.02974 -0.17363,-2.03536 0.41479,-0.9574 1.36977,-1.08039 z m 2.58761,0.0772 h 0.0386 0.17364 0.0386 0.0386 0.0386 0.16399 0.0289 0.11575 v 2.95176 h 0.0289 0.0289 0.0289 0.1254 0.16399 0.0289 0.11575 0.1254 0.0386 0.16399 0.0289 0.11576 0.10611 0.0482 0.1254 0.0386 0.16398 0.0289 0.11576 v 0.73312 h -0.0675 -0.0579 -0.0675 -0.19292 -0.0772 -0.0772 -0.0772 -0.0772 -0.19293 -0.0289 -0.0289 -0.29903 -0.0675 -0.0579 -0.0675 -0.0579 -0.0482 -0.0579 -0.0386 -0.17363 -0.10611 -0.0386 -0.0386 -0.0386 -0.0386 -0.16399 -0.0289 -0.11575 v -0.0289 -0.0386 -0.0289 -0.0386 -0.17363 -0.0772 -0.0772 -0.0289 -0.19293 -0.0386 -0.0482 -0.0386 -0.0482 -0.1254 -0.0386 -0.16398 -0.0289 -0.11576 -0.0386 -0.0482 -0.1254 -0.0386 -0.16399 -0.0289 -0.11575 -0.0675 -0.0772 -0.0772 -0.0772 -0.0289 -0.0289 -0.29904 -0.0675 -0.0579 -0.0675 -0.0579 -0.0482 -0.0579 -0.0386 -0.17364 -0.10611 -0.0386 -0.0386 -0.0386 -0.0386 -0.16398 -0.0289 -0.11576 z m 2.9807,0 h 0.0386 0.16399 0.0289 0.11575 0.19293 0.0386 0.17364 0.0289 0.0289 0.29904 0.16398 0.0772 0.0675 0.0386 0.0289 0.19293 0.0386 0.0289 0.17363 0.12541 0.0386 0.16399 0.0289 0.11575 v 0.73312 h -0.19292 -0.0579 -0.16399 -0.0289 -0.11575 -0.1254 -0.0386 -0.16399 -0.0289 -0.11576 -0.10611 -0.0482 -0.1254 -0.0386 -0.16398 -0.0289 -0.11576 v 0.74276 h 0.0289 0.19293 0.1254 0.0386 0.17364 0.0386 0.0386 0.0386 0.16399 0.0772 0.0675 0.0482 0.12541 0.0386 0.16399 0.0289 0.11575 v 0.68489 h -0.13505 -0.0289 -0.0482 -0.0289 -0.0386 -0.0289 -0.19293 -0.1254 -0.0675 -0.13505 -0.0289 -0.17363 -0.1254 -0.0386 -0.16398 -0.0289 -0.11576 v 0.7717 q 0.0193,0.041 0.0675,0.0289 h 0.0772 0.19292 0.0579 0.16399 0.0289 0.11575 0.1254 0.0386 0.16398 0.0289 0.11576 0.10611 0.0482 0.1254 0.0386 0.16399 0.0289 0.11576 v 0.73311 h -0.0289 -0.0386 -0.16399 -0.0289 -0.11576 -0.19292 -0.0772 -0.0772 -0.0772 -0.0772 -0.19292 -0.0289 -0.0289 -0.29903 -0.0675 -0.0579 -0.0675 -0.0579 -0.0482 -0.0579 -0.0386 -0.17363 -0.10611 -0.0386 -0.0386 -0.0386 -0.0386 -0.16399 -0.0289 -0.11575 v -0.0386 -0.17363 -0.0772 -0.0772 -0.0289 -0.0386 -0.17363 -0.0289 -0.19292 -0.0772 -0.0386 -0.17363 -0.0289 -0.0289 -0.29903 -0.0675 -0.0289 -0.0386 -0.17364 -0.13504 -0.0289 -0.0482 -0.0289 -0.0386 -0.0289 -0.19292 -0.16399 -0.0289 -0.11575 -0.1254 -0.0386 -0.16399 -0.0289 -0.11576 -0.10611 -0.0482 -0.1254 -0.0386 -0.16398 -0.0289 -0.11576 z m 4.38905,0 h 0.1254 0.29904 0.13504 0.0289 0.0482 0.0289 0.0386 0.0289 0.19292 v 0.0289 q 0.041,0.0868 0.0579,0.15434 l 0.0193,0.0675 0.01,0.0386 q 0.01,0.0145 0.01,0.0289 0.01,0.0145 0.01,0.0289 0.01,0.0145 0.01,0.0289 0.0241,0.0386 0.0289,0.0772 l 0.0579,0.15434 v 0.0289 q 0.0458,0.0892 0.0579,0.16398 0.0458,0.10611 0.0579,0.18328 0.0145,0.0289 0.0193,0.0579 l 0.0193,0.0386 q 0.0145,0.0482 0.0289,0.0772 v 0.0289 q 0.01,0.0145 0.01,0.0289 0.0241,0.0386 0.0289,0.0772 l 0.0579,0.15434 0.01,0.0386 0.01,0.0193 0.0193,0.0868 0.0193,0.0386 0.0193,0.0482 0.01,0.0289 0.01,0.0386 0.0193,0.0579 q 0.0145,0.0482 0.0289,0.0772 v 0.0289 q 0.01,0.0145 0.01,0.0289 0.0241,0.0386 0.0289,0.0772 l 0.0579,0.15434 0.01,0.0579 0.0289,0.0579 0.0193,0.0579 v 0.0289 l 0.0193,0.0289 0.01,0.0386 0.01,0.0482 q 0.0747,0.17122 0.0965,0.28939 0.01,0.0145 0.01,0.0289 0.0748,0.17122 0.0965,0.28939 l 0.0193,0.0289 0.01,0.0386 0.01,0.0386 0.01,0.0289 0.01,0.0386 q 0.01,0.0145 0.01,0.0289 0.01,0.0145 0.01,0.0289 0.01,0.0145 0.01,0.0289 l 0.0193,0.0289 v 0.0289 q 0.01,0.0145 0.01,0.0289 0.0241,0.0386 0.0289,0.0772 0.0314,0.0724 0.0386,0.11576 l 0.0193,0.0579 h -0.0579 -0.0386 -0.17364 -0.10611 -0.0386 -0.0386 -0.0386 -0.0386 -0.16398 -0.0289 -0.11576 l -0.0193,-0.0579 v -0.0386 l -0.0193,-0.0289 v -0.0289 q -0.0289,-0.053 -0.0289,-0.0965 l -0.0193,-0.0289 v -0.0289 l -0.01,-0.0386 -0.0289,-0.0675 -0.0675,-0.24115 h -0.17364 -0.19292 -0.0675 -0.0579 -0.0482 -0.0579 -0.0386 -0.17363 -0.10611 -0.0386 -0.0386 -0.0386 -0.0386 -0.16398 -0.0289 -0.11576 l -0.01,0.0482 -0.01,0.0482 -0.0193,0.0386 q -0.0121,0.053 -0.0289,0.0965 l -0.01,0.0482 -0.01,0.0193 -0.0289,0.0965 -0.01,0.0386 -0.01,0.0289 q -0.0169,0.0506 -0.0289,0.0772 l -0.0289,0.11575 h -0.0386 -0.0386 -0.0289 -0.19293 -0.0289 -0.17363 -0.0289 -0.29903 l 0.0193,-0.0772 0.0289,-0.0965 0.01,-0.0289 0.01,-0.0289 0.01,-0.0289 0.01,-0.0193 0.0482,-0.15434 0.01,-0.0289 0.01,-0.0289 0.01,-0.0386 0.0193,-0.0386 0.0289,-0.1061 0.01,-0.0289 0.01,-0.0289 0.01,-0.0289 0.01,-0.0193 q 0.0289,-0.11094 0.0579,-0.17364 l 0.0193,-0.0675 0.01,-0.0193 q 0.0289,-0.11093 0.0579,-0.17364 0.0121,-0.0482 0.0289,-0.0772 l 0.0193,-0.0772 0.0289,-0.0675 0.0193,-0.0772 0.01,-0.0193 q 0.0289,-0.11093 0.0579,-0.17364 l 0.0193,-0.0772 0.0772,-0.21221 0.0193,-0.0675 0.01,-0.0289 0.01,-0.0289 q 0.0289,-0.0916 0.0579,-0.15435 l 0.0193,-0.0579 0.01,-0.0289 v -0.0289 l 0.01,-0.0289 0.0675,-0.17363 0.01,-0.0579 0.0193,-0.0482 0.0193,-0.0386 q 0.0193,-0.0916 0.0482,-0.15434 l 0.01,-0.0482 0.01,-0.0289 0.01,-0.0193 q 0.0289,-0.11093 0.0579,-0.17363 l 0.01,-0.0386 0.01,-0.0386 q 0.0265,-0.0555 0.0386,-0.10611 l 0.0289,-0.0965 0.01,-0.0289 0.0772,-0.22187 z m 0.41479,0.84888 -0.0289,0.1061 -0.01,0.0193 -0.0482,0.17363 -0.0579,0.16399 -0.01,0.0193 -0.0579,0.21222 -0.01,0.0386 -0.0579,0.16399 -0.0193,0.0482 q -0.01,0.0772 -0.0386,0.13505 -0.007,0.0555 -0.0289,0.10611 l -0.01,0.0386 q -0.0193,0.0579 -0.0386,0.0965 l -0.0579,0.21222 h 0.0289 0.0386 0.0386 0.0386 0.0386 0.16399 0.0289 0.11575 0.0386 0.10611 0.0482 0.0289 0.0386 0.0289 0.19293 l -0.0193,-0.0772 -0.0579,-0.18328 -0.0482,-0.16398 q -0.0362,-0.0916 -0.0482,-0.15434 l -0.01,-0.0193 q -0.0193,-0.0699 -0.0386,-0.11575 l -0.01,-0.0386 -0.01,-0.0386 -0.0193,-0.0482 -0.01,-0.0579 -0.01,-0.0386 -0.0193,-0.0289 -0.01,-0.0579 -0.01,-0.0386 q -0.0145,-0.0289 -0.0193,-0.0579 l -0.01,-0.0386 q -0.0362,-0.0724 -0.0482,-0.13505 l -0.01,-0.0289 -0.01,-0.0193 -0.0193,-0.0868 -0.01,-0.0289 -0.0482,-0.12541 z m 2.51768,-0.85852 h 0.0772 0.19292 0.0289 0.0289 0.29903 0.0675 0.0289 0.1254 0.16398 0.0386 0.0386 0.17364 0.13505 0.0289 0.0289 0.0289 0.0675 0.0386 0.0289 0.0289 q 0.0699,0.012 0.11575,0.01 l 0.11576,0.0193 0.0193,0.01 h 0.0289 l 0.0193,0.01 0.1447,0.0482 q 0.44373,0.23392 0.58842,0.6463 0.28456,1.01768 -0.66559,1.45659 l 0.0193,0.01 q 0.0458,0.094 0.0868,0.15434 l 0.0289,0.0579 q 0.0193,0.0313 0.0289,0.0579 l 0.0386,0.0579 q 0.0579,0.0868 0.0868,0.15434 0.0579,0.0723 0.0772,0.13504 0.0603,0.0772 0.0868,0.13505 0.0338,0.0555 0.0482,0.0965 l 0.0193,0.0289 0.0193,0.0386 0.0289,0.0289 0.0675,0.1254 q 0.0314,0.0506 0.0482,0.0868 l 0.0193,0.0289 0.01,0.0193 0.0193,0.0193 0.01,0.0289 q 0.0892,0.13263 0.1254,0.23151 h -0.0675 -0.13505 -0.0289 -0.17363 -0.1254 -0.0386 -0.16399 -0.0289 -0.11576 l -0.01,-0.0193 -0.0193,-0.0193 -0.01,-0.0193 -0.0675,-0.11575 -0.01,-0.0289 q -0.0458,-0.0555 -0.0579,-0.10611 -0.0579,-0.0603 -0.0772,-0.1254 -0.0579,-0.0724 -0.0772,-0.13505 l -0.0289,-0.0386 -0.0289,-0.0579 -0.0193,-0.0386 q -0.0603,-0.0724 -0.0868,-0.1254 -0.0338,-0.0748 -0.0675,-0.1254 l -0.01,-0.0289 q -0.0555,-0.0603 -0.0772,-0.1254 l -0.0193,-0.0289 -0.01,-0.0289 -0.0193,-0.01 -0.0289,-0.0675 q -0.0121,-0.01 -0.01,-0.0193 -0.0723,-0.0941 -0.10611,-0.17364 h -0.0386 -0.10611 -0.0482 -0.0289 -0.0386 -0.0289 -0.19293 v 1.4373 h -0.1254 -0.0386 -0.17363 -0.0386 -0.0386 -0.0386 -0.16399 -0.0289 -0.11575 v -0.0386 -0.17363 -0.0772 -0.0772 -0.0289 -0.0386 -0.17364 -0.0289 -0.19292 -0.0772 -0.0386 -0.17363 -0.0289 -0.0289 -0.29903 -0.0675 -0.0289 -0.0386 -0.17363 -0.13505 -0.0289 -0.0482 -0.0289 -0.0386 -0.0289 -0.19293 -0.16398 -0.0289 -0.11576 -0.1254 -0.0386 -0.16399 -0.0289 -0.11576 -0.1061 -0.0482 -0.1254 -0.0386 -0.16399 -0.0289 -0.11575 z m 0.68488,1.56269 h 0.0482 0.0675 0.13504 0.0289 0.17364 0.1254 0.0386 0.16399 0.0289 0.11575 l 0.11576,-0.0289 q 0.28698,-0.17845 0.2508,-0.48231 -0.0699,-0.21704 -0.2508,-0.31833 h -0.0289 l -0.0193,-0.01 -0.1254,-0.0289 h -0.0482 -0.13504 -0.0482 -0.0386 -0.17363 -0.0386 -0.0386 -0.0386 -0.16398 -0.0289 -0.11576 z m -40.861596,4.62057 h 0.02894 0.192925 0.03858 0.02894 0.173633 0.125401 0.03858 0.163987 0.02894 0.115755 l 0.03858,0.0579 0.01929,0.0289 0.01929,0.0289 0.03858,0.0579 q 0.07476,0.0868 0.106109,0.15434 0.0217,0.0241 0.02894,0.0482 l 0.02894,0.0386 0.03858,0.0386 0.01929,0.0386 0.02894,0.0482 0.01929,0.0193 0.0096,0.0289 q 0.05064,0.0482 0.07717,0.0965 l 0.01929,0.0386 0.03859,0.0386 0.02894,0.0482 0.0096,0.0289 q 0.05064,0.0531 0.07717,0.0965 l 0.0096,0.0193 q 0.03376,0.0434 0.04823,0.0772 l 0.01929,0.0193 0.03859,0.0675 0.01929,0.01 0.0096,0.0289 q 0.06029,0.0699 0.08682,0.12541 l 0.02894,-0.01 0.0096,-0.0289 0.15434,-0.21222 0.02894,-0.0482 0.09646,-0.14469 q 0.05547,-0.0651 0.07717,-0.11576 l 0.02894,-0.0386 0.02894,-0.0289 0.02894,-0.0579 0.02894,-0.0193 0.01929,-0.0386 q 0.03135,-0.0579 0.06752,-0.0868 l 0.01929,-0.0482 q 0.03858,-0.0531 0.06752,-0.0772 l 0.0096,-0.0289 0.01929,-0.0289 0.01929,-0.0193 0.0096,-0.0289 q 0.03376,-0.0314 0.04823,-0.0579 l 0.01929,-0.0289 0.08682,-0.13505 h 0.02894 0.192926 0.125401 0.03858 0.173633 0.03858 0.03858 0.03859 0.163987 0.02894 0.115755 v 3.68488 h -0.163987 -0.03858 -0.04823 -0.125402 -0.03858 -0.163986 -0.02894 -0.115755 q -0.05788,-0.01 -0.03859,-0.0675 v -0.0289 -0.0386 -0.16399 -0.0289 -0.11575 -0.19293 -0.0675 -0.0579 -0.0386 -0.0289 -0.0482 -0.0289 -0.0386 -0.0289 -0.19292 -0.29904 -0.0579 -0.16399 -0.0579 -0.0386 -0.0289 -0.19293 -0.0386 -0.16399 -0.13505 -0.0289 -0.0289 -0.0772 q 0.0048,-0.0892 -0.0096,-0.15434 l -0.04823,0.0579 q -0.01688,0.0338 -0.03859,0.0579 -0.05064,0.0892 -0.09646,0.1447 l -0.03858,0.0579 -0.03858,0.0579 -0.03858,0.0579 -0.115755,0.16398 -0.08682,0.13505 -0.02894,0.0386 q -0.04823,0.0699 -0.08682,0.10611 l -0.01929,0.0386 q -0.0627,0.1037 -0.115756,0.16399 l -0.01929,0.0386 -0.02894,0.0289 -0.0096,0.0289 q -0.04823,0.0699 -0.08682,0.10611 -0.03135,0.0675 -0.05788,0.10611 -0.09164,0.13022 -0.154341,0.19292 -0.03858,-0.0627 -0.06752,-0.0965 l -0.0096,-0.0289 -0.02894,-0.0289 -0.01929,-0.0289 -0.0096,-0.0289 -0.02894,-0.0386 -0.03859,-0.0579 q -0.01688,-0.01 -0.01929,-0.0193 -0.03376,-0.0531 -0.06752,-0.0868 l -0.02894,-0.0579 -0.03859,-0.0579 q -0.01206,-0.01 -0.0096,-0.0193 -0.05064,-0.0482 -0.07717,-0.0965 -0.06752,-0.0916 -0.09646,-0.15434 l -0.03859,-0.0482 -0.02894,-0.0386 -0.01929,-0.0386 q -0.05064,-0.0506 -0.07717,-0.10611 l -0.02894,-0.0289 -0.04823,-0.0868 -0.02894,-0.0289 q -0.03858,-0.0627 -0.06752,-0.0965 l -0.0096,-0.0289 -0.02894,-0.0289 -0.0096,-0.0289 q -0.01447,-0.0121 -0.01929,-0.0289 -0.01688,-0.01 -0.01929,-0.0193 -0.01206,-0.01 -0.0096,-0.0193 l -0.125401,-0.16399 v 2.64308 h -0.0096 0.0096 -0.01929 0.0096 -0.01929 0.0096 -0.01929 0.0096 -0.01929 0.0096 -0.01929 0.0096 -0.01929 0.0096 -0.01929 0.0096 -0.01929 0.0096 -0.01929 0.0096 -0.01929 0.0096 -0.01929 0.0096 -0.01929 0.0096 -0.01929 0.0096 -0.01929 0.0096 -0.01929 0.0096 -0.01929 0.0096 -0.01929 0.0096 -0.01929 0.0096 -0.01929 0.0096 -0.01929 0.0096 -0.01929 0.0096 -0.01929 0.0096 -0.01929 0.0096 -0.01929 0.0096 -0.01929 0.0096 -0.01929 0.0096 -0.01929 0.0096 -0.01929 0.0096 -0.01929 0.0096 -0.01929 0.0096 -0.01929 0.0096 -0.01929 0.0096 -0.01929 0.0096 -0.01929 0.0096 -0.01929 0.0096 -0.01929 0.0096 -0.01929 0.0096 -0.01929 0.0096 -0.01929 0.0096 -0.01929 0.0096 -0.01929 0.0096 -0.01929 0.0096 -0.01929 0.0096 -0.01929 0.0096 -0.01929 0.0096 -0.01929 0.0096 -0.01929 0.0096 -0.01929 0.0096 -0.01929 0.0096 -0.01929 0.0096 -0.01929 0.0096 -0.01929 0.0096 -0.01929 0.0096 -0.01929 0.0096 -0.01929 0.0096 -0.01929 0.0096 -0.01929 0.0096 -0.01929 0.0096 -0.01929 0.0096 -0.01929 0.0096 -0.01929 0.0096 -0.01929 0.0096 -0.01929 0.0096 -0.01929 0.0096 -0.01929 0.0096 -0.01929 0.0096 -0.01929 0.0096 -0.01929 0.0096 -0.01929 0.0096 -0.01929 0.0096 -0.01929 0.0096 -0.01929 0.0096 -0.01929 0.0096 -0.01929 0.0096 -0.01929 0.0096 -0.01929 0.0096 -0.01929 0.0096 -0.0096 v -0.0289 -0.0386 -0.0289 -0.0386 -0.17363 -0.0772 -0.0772 -0.0289 -0.19293 -0.0386 -0.0482 -0.0386 -0.0482 -0.1254 -0.0386 -0.16398 -0.0289 -0.11576 -0.0386 -0.0482 -0.12541 -0.0386 -0.16399 -0.0289 -0.11575 -0.0675 -0.0772 -0.0772 -0.0772 -0.0289 -0.0289 -0.29904 -0.0675 -0.0579 -0.0675 -0.0579 -0.0482 -0.0579 -0.0386 -0.17364 -0.10611 -0.0386 -0.0386 -0.0386 -0.0386 -0.16398 -0.0289 -0.11576 z m 6.467824,-0.0965 q 1.637452,0.0121 1.871372,1.67845 0.1037,1.49517 -1.05144,2.04501 -1.116555,0.40514 -1.900315,-0.31833 -0.834402,-0.94051 -0.463021,-2.16076 0.405144,-1.15997 1.543404,-1.24437 z m 0.01929,0.73312 q -0.926042,0.17604 -0.848872,1.35047 0.03617,0.69454 0.56913,0.98392 h 0.02894 q 0.04582,0.0265 0.08682,0.0289 l 0.01929,0.01 0.115755,0.0289 q 1.017679,-0.01 1.061089,-1.0418 0.0892,-1.32636 -1.03215,-1.36012 z m 2.5225,-0.6463 h 0.13505 0.0482 0.0386 0.17364 0.0386 0.0386 0.0386 0.16399 0.0289 0.11575 l 0.0386,0.0675 0.0386,0.0579 0.0386,0.0579 0.0386,0.0579 0.0386,0.0579 0.0289,0.0289 0.01,0.0289 q 0.0121,0.01 0.01,0.0193 0.0699,0.0748 0.0965,0.14469 0.0699,0.0748 0.0965,0.1447 l 0.0386,0.0482 0.0386,0.0579 q 0.0265,0.0434 0.0482,0.0675 l 0.01,0.0289 q 0.0362,0.0386 0.0482,0.0772 0.0965,0.10852 0.13505,0.20257 l 0.0386,0.0579 q 0.0121,0.01 0.01,0.0193 0.0724,0.082 0.10611,0.1447 l 0.0386,0.0579 0.0289,0.0579 0.0386,0.0579 0.0386,0.0386 0.0289,0.0482 0.0193,0.0482 q 0.0627,0.0627 0.0868,0.1254 l 0.0289,0.0386 0.0193,0.0386 0.0289,0.0289 q 0.0458,0.0675 0.0675,0.11575 l 0.0289,0.0289 0.0193,0.0289 0.01,0.0289 0.0193,0.01 q 0.0314,0.0699 0.0675,0.1061 l 0.01,0.0289 q 0.0121,0.01 0.01,0.0193 0.0892,0.0989 0.12541,0.18327 l 0.01,-0.0675 v -0.0675 -0.0772 -0.0386 -0.17363 -0.10611 -0.0386 -0.0386 -0.0386 -0.0386 -0.16399 -0.0289 -0.11575 -0.0579 -0.16398 -0.0289 -0.11576 -0.1254 -0.0386 -0.16398 -0.0289 -0.11576 -0.10611 -0.0482 -0.1254 -0.0386 -0.16399 -0.0289 -0.11575 h 0.1254 0.0386 0.17363 0.0386 0.0386 0.0386 0.16398 0.0289 0.11576 v 3.68487 h -0.0289 -0.11576 -0.0965 -0.0675 -0.0579 -0.0482 -0.0386 -0.0386 -0.0386 -0.0289 -0.0289 -0.0289 -0.0193 0.0193 -0.0193 -0.0772 -0.0289 -0.1254 l -0.01,-0.0193 q -0.0338,-0.0434 -0.0482,-0.0772 -0.0121,-0.01 -0.01,-0.0193 -0.0892,-0.0989 -0.1254,-0.18328 -0.0121,-0.01 -0.01,-0.0193 l -0.0386,-0.0579 q -0.0507,-0.0579 -0.0772,-0.11576 l -0.0482,-0.0579 -0.0386,-0.0675 -0.0386,-0.0675 q -0.0651,-0.0724 -0.0965,-0.13505 l -0.0193,-0.0193 q -0.0386,-0.0844 -0.0868,-0.13505 l -0.01,-0.0193 -0.0193,-0.0289 -0.0868,-0.13505 q -0.0338,-0.0434 -0.0482,-0.0772 -0.0121,-0.01 -0.01,-0.0193 l -0.0193,-0.01 -0.0386,-0.0675 -0.01,-0.0193 q -0.0338,-0.0434 -0.0482,-0.0772 -0.0217,-0.0241 -0.0289,-0.0482 l -0.0386,-0.0386 -0.0386,-0.0579 -0.0193,-0.0482 -0.0193,-0.01 -0.0386,-0.0675 -0.0868,-0.1254 -0.0193,-0.0386 -0.0193,-0.0386 -0.0289,-0.0289 -0.0193,-0.0289 -0.01,-0.0289 q -0.0482,-0.053 -0.0772,-0.0965 l -0.0193,-0.0386 q -0.041,-0.0555 -0.0579,-0.0965 -0.0169,-0.01 -0.0193,-0.0193 l -0.0193,-0.0193 -0.01,-0.0193 -0.0386,-0.0675 -0.0868,-0.1254 v 2.46944 h -0.1254 -0.0386 -0.17364 -0.0386 -0.0386 -0.0386 -0.16399 -0.0289 -0.11575 v -0.0289 -0.0386 -0.0289 -0.0386 -0.17363 -0.0772 -0.0772 -0.0289 -0.19292 -0.0386 -0.0482 -0.0386 -0.0482 -0.1254 -0.0386 -0.16399 -0.0289 -0.11575 -0.0386 -0.0482 -0.1254 -0.0386 -0.16398 -0.0289 -0.11576 -0.0675 -0.0772 -0.0772 -0.0772 -0.0289 -0.0289 -0.29903 -0.0675 -0.0579 -0.0675 -0.0579 -0.0482 -0.0579 -0.0386 -0.17363 -0.10611 -0.0386 -0.0386 -0.0386 -0.0386 -0.16399 -0.0289 -0.11575 z m 4.40834,0.01 h 0.0482 0.0386 0.0482 0.0386 0.0482 0.1254 0.0386 0.16398 0.0289 0.11576 0.0386 0.0386 0.1254 0.0386 0.0386 0.0965 0.10611 0.0289 0.10611 0.0772 0.0482 l 0.0289,0.01 h 0.0386 0.0386 l 0.0193,0.01 0.15434,0.0193 q 1.46865,0.48472 1.27331,2.13182 -0.29421,1.70739 -2.29581,1.52411 h -0.0386 -0.0482 -0.0386 -0.0482 -0.0386 -0.0482 -0.1254 -0.0386 -0.16399 -0.0289 -0.11575 v -0.0386 -0.17363 -0.0772 -0.0772 -0.0289 -0.0386 -0.17363 -0.0289 -0.19293 -0.0772 -0.0386 -0.17363 -0.0289 -0.0289 -0.29904 -0.0675 -0.0289 -0.0386 -0.17364 -0.13504 -0.0289 -0.0482 -0.0289 -0.0386 -0.0289 -0.19292 -0.16399 -0.0289 -0.11575 -0.1254 -0.0386 -0.16399 -0.0289 -0.11576 -0.10611 -0.0482 -0.1254 -0.0386 -0.16398 -0.0289 -0.11576 z m 0.71383,2.94211 h 0.13505 0.0289 0.0772 0.0289 0.0289 0.1254 0.0386 0.0289 0.19292 l 0.0675,-0.01 q 0.0892,-0.01 0.15434,-0.0386 l 0.0579,-0.01 q 0.63665,-0.3545 0.56913,-1.10932 -0.0941,-1.11897 -1.17685,-1.02251 h -0.0289 -0.0289 -0.29903 z m 4.01285,-2.94211 h 0.1254 0.29903 0.13505 0.0289 0.0482 0.0289 0.0386 0.0289 0.19293 v 0.0289 q 0.041,0.0868 0.0579,0.15434 l 0.0193,0.0675 0.01,0.0386 q 0.01,0.0145 0.01,0.0289 0.01,0.0145 0.01,0.0289 0.01,0.0145 0.01,0.0289 0.0241,0.0386 0.0289,0.0772 l 0.0579,0.15434 v 0.0289 q 0.0458,0.0892 0.0579,0.16398 0.0458,0.10611 0.0579,0.18328 0.0145,0.0289 0.0193,0.0579 l 0.0193,0.0386 q 0.0145,0.0482 0.0289,0.0772 v 0.0289 q 0.01,0.0145 0.01,0.0289 0.0241,0.0386 0.0289,0.0772 l 0.0579,0.15434 0.01,0.0386 0.01,0.0193 0.0193,0.0868 0.0193,0.0386 0.0193,0.0482 0.01,0.0289 0.01,0.0386 0.0193,0.0579 q 0.0145,0.0482 0.0289,0.0772 v 0.0289 q 0.01,0.0145 0.01,0.0289 0.0241,0.0386 0.0289,0.0772 l 0.0579,0.15434 0.01,0.0579 0.0289,0.0579 0.0193,0.0579 v 0.0289 l 0.0193,0.0289 0.01,0.0386 0.01,0.0482 q 0.0748,0.17122 0.0965,0.28939 0.01,0.0145 0.01,0.0289 0.0748,0.17122 0.0965,0.28939 l 0.0193,0.0289 0.01,0.0386 0.01,0.0386 0.01,0.0289 0.01,0.0386 q 0.01,0.0145 0.01,0.0289 0.01,0.0145 0.01,0.0289 0.01,0.0145 0.01,0.0289 l 0.0193,0.0289 v 0.0289 q 0.01,0.0145 0.01,0.0289 0.0241,0.0386 0.0289,0.0772 0.0313,0.0724 0.0386,0.11576 l 0.0193,0.0579 h -0.0579 -0.0386 -0.17363 -0.10611 -0.0386 -0.0386 -0.0386 -0.0386 -0.16399 -0.0289 -0.11576 l -0.0193,-0.0579 v -0.0386 l -0.0193,-0.0289 v -0.0289 q -0.0289,-0.053 -0.0289,-0.0965 l -0.0193,-0.0289 v -0.0289 l -0.01,-0.0386 -0.0289,-0.0675 -0.0675,-0.24115 h -0.17363 -0.19292 -0.0675 -0.0579 -0.0482 -0.0579 -0.0386 -0.17363 -0.10611 -0.0386 -0.0386 -0.0386 -0.0386 -0.16399 -0.0289 -0.11575 l -0.01,0.0482 -0.01,0.0482 -0.0193,0.0386 q -0.0121,0.053 -0.0289,0.0965 l -0.01,0.0482 -0.01,0.0193 -0.0289,0.0965 -0.01,0.0386 -0.01,0.0289 q -0.0169,0.0506 -0.0289,0.0772 l -0.0289,0.11575 h -0.0386 -0.0386 -0.0289 -0.19292 -0.0289 -0.17363 -0.0289 -0.29904 l 0.0193,-0.0772 0.0289,-0.0965 0.01,-0.0289 0.01,-0.0289 0.01,-0.0289 0.01,-0.0193 0.0482,-0.15434 0.01,-0.0289 0.01,-0.0289 0.01,-0.0386 0.0193,-0.0386 0.0289,-0.10611 0.01,-0.0289 0.01,-0.0289 0.01,-0.0289 0.01,-0.0193 q 0.0289,-0.11094 0.0579,-0.17364 l 0.0193,-0.0675 0.01,-0.0193 q 0.0289,-0.11094 0.0579,-0.17364 0.0121,-0.0482 0.0289,-0.0772 l 0.0193,-0.0772 0.0289,-0.0675 0.0193,-0.0772 0.01,-0.0193 q 0.0289,-0.11094 0.0579,-0.17364 l 0.0193,-0.0772 0.0772,-0.21221 0.0193,-0.0675 0.01,-0.0289 0.01,-0.0289 q 0.0289,-0.0916 0.0579,-0.15434 l 0.0193,-0.0579 0.01,-0.0289 v -0.0289 l 0.01,-0.0289 0.0675,-0.17363 0.01,-0.0579 0.0193,-0.0482 0.0193,-0.0386 q 0.0193,-0.0916 0.0482,-0.15434 l 0.01,-0.0482 0.01,-0.0289 0.01,-0.0193 q 0.0289,-0.11093 0.0579,-0.17363 l 0.01,-0.0386 0.01,-0.0386 q 0.0265,-0.0555 0.0386,-0.10611 l 0.0289,-0.0965 0.01,-0.0289 0.0772,-0.22187 z m 0.41479,0.84887 -0.0289,0.10611 -0.01,0.0193 -0.0482,0.17363 -0.0579,0.16399 -0.01,0.0193 -0.0579,0.21222 -0.01,0.0386 -0.0579,0.16399 -0.0193,0.0482 q -0.01,0.0772 -0.0386,0.13505 -0.007,0.0555 -0.0289,0.10611 l -0.01,0.0386 q -0.0193,0.0579 -0.0386,0.0965 l -0.0579,0.21222 h 0.0289 0.0386 0.0386 0.0386 0.0386 0.16399 0.0289 0.11576 0.0386 0.10611 0.0482 0.0289 0.0386 0.0289 0.19292 l -0.0193,-0.0772 -0.0579,-0.18328 -0.0482,-0.16398 q -0.0362,-0.0916 -0.0482,-0.15435 l -0.01,-0.0193 q -0.0193,-0.0699 -0.0386,-0.11575 l -0.01,-0.0386 -0.01,-0.0386 -0.0193,-0.0482 -0.01,-0.0579 -0.01,-0.0386 -0.0193,-0.0289 -0.01,-0.0579 -0.01,-0.0386 q -0.0145,-0.0289 -0.0193,-0.0579 l -0.01,-0.0386 q -0.0362,-0.0724 -0.0482,-0.13505 l -0.01,-0.0289 -0.01,-0.0193 -0.0193,-0.0868 -0.01,-0.0289 -0.0482,-0.1254 z m 1.97507,-0.83922 h 0.13505 0.0482 0.0386 0.17364 0.0386 0.0386 0.0386 0.16399 0.0772 0.0675 l 0.0193,0.0289 0.0386,0.0675 0.0965,0.17363 0.0289,0.0579 0.0289,0.0482 0.0193,0.0482 0.0193,0.0193 0.01,0.0289 q 0.0121,0.01 0.01,0.0193 0.0603,0.0844 0.0868,0.15434 0.0434,0.0579 0.0579,0.10611 l 0.0289,0.0386 0.01,0.0289 0.0289,0.0386 0.01,0.0289 0.0289,0.0386 0.0193,0.0386 0.0193,0.0289 0.01,0.0289 0.0289,0.0386 0.01,0.0193 0.0193,0.0579 q 0.0169,0.01 0.0193,0.0193 0.0531,0.11093 0.10611,0.17363 l 0.0289,-0.0675 0.0965,-0.16399 0.0289,-0.0579 0.0289,-0.0482 0.0289,-0.0579 0.0772,-0.13505 0.0386,-0.0579 0.0193,-0.0579 0.0193,-0.0193 0.01,-0.0193 0.01,-0.0289 q 0.0434,-0.0627 0.0675,-0.11576 l 0.0193,-0.0386 0.0289,-0.0386 0.0193,-0.0386 0.01,-0.0289 0.0289,-0.0386 0.0193,-0.0289 0.01,-0.0289 0.0193,-0.0289 0.01,-0.0289 0.0193,-0.0289 0.0965,-0.17363 h 0.0675 0.13505 0.0289 0.17363 0.1254 0.0386 0.16399 0.0289 0.11576 l -0.0868,0.15434 -0.0193,0.0289 -0.0193,0.0482 -0.0193,0.0289 -0.0193,0.0289 -0.01,0.0289 -0.0193,0.0289 -0.01,0.0289 -0.0193,0.01 q -0.0265,0.0796 -0.0675,0.13505 l -0.01,0.0193 -0.0965,0.17363 -0.01,0.0193 -0.01,0.0193 -0.10611,0.17363 -0.0289,0.0675 -0.01,0.0193 q -0.0289,0.0482 -0.0386,0.0772 -0.0313,0.0386 -0.0386,0.0675 l -0.0289,0.0482 -0.0772,0.13505 -0.01,0.0193 -0.01,0.0193 -0.01,0.0193 -0.0193,0.0193 q -0.0362,0.0941 -0.0868,0.15434 l -0.0193,0.0386 -0.0193,0.0386 -0.0193,0.0482 -0.0289,0.0289 -0.01,0.0193 q -0.0627,0.15193 -0.13505,0.24116 l -0.01,0.0193 q -0.0555,0.13264 -0.11575,0.21222 v 1.46623 h -0.1254 -0.0386 -0.17363 -0.0386 -0.0386 -0.0386 -0.16398 -0.0289 -0.11576 v -0.0289 -0.0289 -0.12541 -0.16398 -0.0289 -0.11576 -0.0386 -0.0289 -0.19293 -0.0386 -0.0289 -0.17363 -0.1254 -0.0386 -0.16399 -0.0289 -0.11576 q -0.082,-0.11575 -0.11575,-0.19292 l -0.0386,-0.0675 q -0.0482,-0.082 -0.0675,-0.13505 l -0.0386,-0.0675 q -0.0675,-0.094 -0.0965,-0.17363 l -0.0386,-0.0675 -0.0386,-0.0579 -0.0386,-0.0675 -0.01,-0.0386 q -0.0458,-0.0482 -0.0579,-0.0965 l -0.0193,-0.0289 -0.0579,-0.0965 -0.10611,-0.21222 -0.0193,-0.01 -0.0193,-0.0579 q -0.0627,-0.082 -0.0868,-0.15434 l -0.0289,-0.0289 -0.0193,-0.0386 -0.0289,-0.0482 -0.01,-0.0386 -0.0289,-0.0386 q -0.0289,-0.0482 -0.0386,-0.0868 -0.0145,-0.0121 -0.0193,-0.0289 l -0.0193,-0.0289 -0.01,-0.0289 q -0.0724,-0.0844 -0.0965,-0.17363 -0.0675,-0.0796 -0.0868,-0.15434 z m 4.84484,-0.0193 h 0.0386 0.0289 0.0386 0.17363 0.0386 0.17363 0.0579 0.0675 0.19293 0.0772 0.0772 0.0772 0.0772 0.19292 0.0289 0.0289 0.29903 0.0675 0.0579 0.0675 0.0579 0.0482 0.0579 0.0386 0.17363 0.10611 0.0386 0.0386 0.0386 0.0386 0.16399 0.0289 0.11575 v 0.73311 h -0.0579 -0.0289 -0.19293 -0.1254 -0.0386 -0.17364 -0.0386 -0.0386 -0.0386 -0.16399 -0.0289 -0.11575 v 2.96141 h -0.1254 -0.0386 -0.17363 -0.0386 -0.0386 -0.0386 -0.16398 -0.0289 -0.11576 v -0.0675 -0.0289 -0.0482 -0.0289 -0.0386 -0.0289 -0.19292 -0.0386 -0.17363 -0.0579 -0.0675 -0.19293 -0.0772 -0.0772 -0.0772 -0.0772 -0.19293 -0.0289 -0.0289 -0.29904 -0.0675 -0.0579 -0.0675 -0.0579 -0.0482 -0.0579 -0.0386 -0.17364 -0.10611 -0.0386 -0.0386 -0.0386 -0.0386 -0.16398 -0.0289 -0.11576 h -0.0579 -0.0289 -0.19293 -0.1254 -0.0386 -0.17363 -0.0386 -0.0386 -0.0386 -0.16399 -0.0289 -0.11576 v -0.19292 -0.0482 -0.0289 -0.0386 -0.0386 -0.0386 -0.0386 -0.16399 -0.0289 -0.11575 z m 5.13664,-0.0868 q 1.63745,0.0121 1.87137,1.67845 0.1037,1.49517 -1.05144,2.04501 -1.11655,0.40514 -1.90031,-0.31833 -0.83441,-0.94051 -0.46303,-2.16076 0.40515,-1.15997 1.54341,-1.24437 z m 0.0193,0.73312 q -0.92604,0.17604 -0.84887,1.35047 0.0362,0.69454 0.56913,0.98392 h 0.0289 q 0.0458,0.0265 0.0868,0.0289 l 0.0193,0.01 0.11575,0.0289 q 1.01768,-0.01 1.06109,-1.0418 0.0892,-1.32636 -1.03215,-1.36012 z m 4.10449,-0.63666 h 0.0675 0.0289 0.0289 0.1254 0.0772 0.13505 0.0289 0.0482 0.0289 0.0386 0.0289 0.19293 0.16398 0.0289 0.11576 0.1254 0.0386 0.16398 0.0772 0.0675 0.1061 0.0482 0.1254 0.0386 0.16399 0.0289 0.11575 v 0.73312 h -0.0289 -0.19292 -0.0675 -0.0675 -0.0386 -0.0482 -0.12541 -0.0386 -0.16399 -0.0289 -0.11575 -0.0386 -0.0386 -0.0289 -0.17363 -0.12541 -0.0386 -0.16399 -0.0289 -0.11575 v 0.74276 h 0.0675 0.19293 0.0579 0.0289 0.0386 0.0289 0.0482 0.0289 0.0386 0.0289 0.19293 0.0386 0.0386 0.0289 0.17363 0.1254 0.0386 0.16398 0.0289 0.11576 v 0.69453 h -0.13505 -0.0289 -0.0482 -0.0289 -0.0386 -0.0289 -0.19293 -0.1254 -0.0675 -0.13505 -0.0289 -0.17363 -0.12541 -0.0386 -0.16399 -0.0289 -0.11575 v 1.52411 h -0.01 0.01 -0.0193 0.01 -0.0193 0.01 -0.0193 0.01 -0.0193 0.01 -0.0193 0.01 -0.0193 0.01 -0.0193 0.01 -0.0193 0.01 -0.0193 0.01 -0.0193 0.01 -0.0193 0.01 -0.0193 0.01 -0.0193 0.01 -0.0193 0.01 -0.0193 0.01 -0.0193 0.01 -0.0193 0.01 -0.0193 0.01 -0.0193 0.01 -0.0193 0.01 -0.0193 0.01 -0.0193 0.01 -0.0193 0.01 -0.0193 0.01 -0.0193 0.01 -0.0193 0.01 -0.0193 0.01 -0.0193 0.01 -0.0193 0.01 -0.0193 0.01 -0.0193 0.01 -0.0193 0.01 -0.0193 0.01 -0.0193 0.01 -0.0193 0.01 -0.0193 0.01 -0.0193 0.01 -0.0193 0.01 -0.0193 0.01 -0.0193 0.01 -0.0193 0.01 -0.0193 0.01 -0.0193 0.01 -0.0193 0.01 -0.0193 0.01 -0.0193 0.01 -0.0193 0.01 -0.0193 0.01 -0.0193 0.01 -0.0193 0.01 -0.0193 0.01 -0.0193 0.01 -0.0193 0.01 -0.0193 0.01 -0.0193 0.01 -0.0193 0.01 -0.0193 0.01 -0.0193 0.01 -0.0193 0.01 -0.0193 0.01 -0.0193 0.01 -0.0193 0.01 -0.0193 0.01 -0.0193 0.01 -0.0193 0.01 -0.0193 0.01 -0.0193 0.01 -0.0193 0.01 -0.0193 0.01 -0.0193 0.01 -0.0193 0.01 -0.0193 0.01 -0.0193 0.01 -0.0193 0.01 -0.0193 0.01 -0.0193 0.01 -0.0193 0.01 -0.0193 0.01 -0.01 v -0.0386 -0.17363 -0.0772 -0.0772 -0.0289 -0.0386 -0.17363 -0.0289 -0.19293 -0.0772 -0.0386 -0.17363 -0.0289 -0.0289 -0.29904 -0.0675 -0.0289 -0.0386 -0.17364 -0.13504 -0.0289 -0.0482 -0.0289 -0.0386 -0.0289 -0.19292 -0.16399 -0.0289 -0.11575 -0.1254 -0.0386 -0.16399 -0.0289 -0.11576 -0.10611 -0.0482 -0.1254 -0.0386 -0.16398 -0.0289 -0.11576 z m 3.05786,-0.01 h 0.0772 0.19293 0.0289 0.0289 0.29903 0.0675 0.0289 0.12541 0.16398 0.0386 0.0386 0.17364 0.13504 0.0289 0.0289 0.0289 0.0675 0.0386 0.0289 0.0289 q 0.0699,0.012 0.11575,0.01 l 0.11576,0.0193 0.0193,0.01 h 0.0289 l 0.0193,0.01 0.1447,0.0482 q 0.44372,0.23392 0.58842,0.6463 0.28456,1.01768 -0.6656,1.45659 l 0.0193,0.01 q 0.0458,0.094 0.0868,0.15434 l 0.0289,0.0579 q 0.0193,0.0313 0.0289,0.0579 l 0.0386,0.0579 q 0.0579,0.0868 0.0868,0.15434 0.0579,0.0723 0.0772,0.13504 0.0603,0.0772 0.0868,0.13505 0.0338,0.0555 0.0482,0.0965 l 0.0193,0.0289 0.0193,0.0386 0.0289,0.0289 0.0675,0.1254 q 0.0314,0.0506 0.0482,0.0868 l 0.0193,0.0289 0.01,0.0193 0.0193,0.0193 0.01,0.0289 q 0.0892,0.13263 0.1254,0.23151 h -0.0675 -0.13505 -0.0289 -0.17363 -0.12541 -0.0386 -0.16399 -0.0289 -0.11575 l -0.01,-0.0193 -0.0193,-0.0193 -0.01,-0.0193 -0.0675,-0.11576 -0.01,-0.0289 q -0.0458,-0.0555 -0.0579,-0.10611 -0.0579,-0.0603 -0.0772,-0.1254 -0.0579,-0.0724 -0.0772,-0.13505 l -0.0289,-0.0386 -0.0289,-0.0579 -0.0193,-0.0386 q -0.0603,-0.0724 -0.0868,-0.1254 -0.0338,-0.0748 -0.0675,-0.1254 l -0.01,-0.0289 q -0.0555,-0.0603 -0.0772,-0.1254 l -0.0193,-0.0289 -0.01,-0.0289 -0.0193,-0.01 -0.0289,-0.0675 q -0.0121,-0.01 -0.01,-0.0193 -0.0723,-0.0941 -0.10611,-0.17364 h -0.0386 -0.10611 -0.0482 -0.0289 -0.0386 -0.0289 -0.19293 v 1.4373 h -0.1254 -0.0386 -0.17363 -0.0386 -0.0386 -0.0386 -0.16399 -0.0289 -0.11576 v -0.0386 -0.17363 -0.0772 -0.0772 -0.0289 -0.0386 -0.17364 -0.0289 -0.19292 -0.0772 -0.0386 -0.17363 -0.0289 -0.0289 -0.29903 -0.0675 -0.0289 -0.0386 -0.17363 -0.13505 -0.0289 -0.0482 -0.0289 -0.0386 -0.0289 -0.19293 -0.16398 -0.0289 -0.11576 -0.1254 -0.0386 -0.16398 -0.0289 -0.11576 -0.10611 -0.0482 -0.1254 -0.0386 -0.16399 -0.0289 -0.11575 z m 0.68489,1.56269 h 0.0482 0.0675 0.13504 0.0289 0.17363 0.12541 0.0386 0.16399 0.0289 0.11575 l 0.11576,-0.0289 q 0.28697,-0.17845 0.2508,-0.48231 -0.0699,-0.21704 -0.2508,-0.31833 h -0.0289 l -0.0193,-0.01 -0.12541,-0.0289 h -0.0482 -0.13505 -0.0482 -0.0386 -0.17363 -0.0386 -0.0386 -0.0386 -0.16399 -0.0289 -0.11576 z m 3.2315,-1.5434 h 0.0386 0.17364 0.0386 0.0386 0.0386 0.16399 0.0289 0.11575 v 3.68487 h -0.1254 -0.0386 -0.17364 -0.0386 -0.0386 -0.0386 -0.16399 -0.0289 -0.11575 v -0.0289 -0.0386 -0.0289 -0.0386 -0.17364 -0.0772 -0.0772 -0.0289 -0.19292 -0.0386 -0.0482 -0.0386 -0.0482 -0.12541 -0.0386 -0.16399 -0.0289 -0.11575 -0.0386 -0.0482 -0.1254 -0.0386 -0.16399 -0.0289 -0.11576 -0.0675 -0.0772 -0.0772 -0.0772 -0.0289 -0.0289 -0.29903 -0.0675 -0.0579 -0.0675 -0.0579 -0.0482 -0.0579 -0.0386 -0.17363 -0.10611 -0.0386 -0.0386 -0.0386 -0.0386 -0.16399 -0.0289 -0.11575 z m 1.83279,-0.01 h 0.0482 0.0386 0.0482 0.0386 0.0482 0.1254 0.0386 0.16399 0.0289 0.11575 0.0386 0.0386 0.12541 0.0386 0.0386 0.0965 0.10611 0.0289 0.10611 0.0772 0.0482 l 0.0289,0.01 h 0.0386 0.0386 l 0.0193,0.01 0.15434,0.0193 q 1.46864,0.48472 1.27331,2.13182 -0.29421,1.70739 -2.29582,1.52411 h -0.0386 -0.0482 -0.0386 -0.0482 -0.0386 -0.0482 -0.12541 -0.0386 -0.16399 -0.0289 -0.11575 v -0.0386 -0.17363 -0.0772 -0.0772 -0.0289 -0.0386 -0.17363 -0.0289 -0.19293 -0.0772 -0.0386 -0.17363 -0.0289 -0.0289 -0.29904 -0.0675 -0.0289 -0.0386 -0.17364 -0.13504 -0.0289 -0.0482 -0.0289 -0.0386 -0.0289 -0.19292 -0.16399 -0.0289 -0.11575 -0.1254 -0.0386 -0.16399 -0.0289 -0.11576 -0.10611 -0.0482 -0.1254 -0.0386 -0.16398 -0.0289 -0.11576 z m 0.71383,2.94211 h 0.13504 0.0289 0.0772 0.0289 0.0289 0.1254 0.0386 0.0289 0.19292 l 0.0675,-0.01 q 0.0892,-0.01 0.15434,-0.0386 l 0.0579,-0.01 q 0.63666,-0.3545 0.56913,-1.10932 -0.094,-1.11897 -1.17684,-1.02251 h -0.0289 -0.0289 -0.29903 z m 4.01284,-2.94211 h 0.1254 0.29904 0.13505 0.0289 0.0482 0.0289 0.0386 0.0289 0.19292 v 0.0289 q 0.041,0.0868 0.0579,0.15434 l 0.0193,0.0675 0.01,0.0386 q 0.01,0.0145 0.01,0.0289 0.01,0.0145 0.01,0.0289 0.01,0.0145 0.01,0.0289 0.0241,0.0386 0.0289,0.0772 l 0.0579,0.15434 v 0.0289 q 0.0458,0.0892 0.0579,0.16398 0.0458,0.10611 0.0579,0.18328 0.0145,0.0289 0.0193,0.0579 l 0.0193,0.0386 q 0.0145,0.0482 0.0289,0.0772 v 0.0289 q 0.01,0.0145 0.01,0.0289 0.0241,0.0386 0.0289,0.0772 l 0.0579,0.15434 0.01,0.0386 0.01,0.0193 0.0193,0.0868 0.0193,0.0386 0.0193,0.0482 0.01,0.0289 0.01,0.0386 0.0193,0.0579 q 0.0145,0.0482 0.0289,0.0772 v 0.0289 q 0.01,0.0145 0.01,0.0289 0.0241,0.0386 0.0289,0.0772 l 0.0579,0.15434 0.01,0.0579 0.0289,0.0579 0.0193,0.0579 v 0.0289 l 0.0193,0.0289 0.01,0.0386 0.01,0.0482 q 0.0748,0.17122 0.0965,0.28939 0.01,0.0145 0.01,0.0289 0.0747,0.17122 0.0965,0.28939 l 0.0193,0.0289 0.01,0.0386 0.01,0.0386 0.01,0.0289 0.01,0.0386 q 0.01,0.0145 0.01,0.0289 0.01,0.0145 0.01,0.0289 0.01,0.0145 0.01,0.0289 l 0.0193,0.0289 v 0.0289 q 0.01,0.0145 0.01,0.0289 0.0241,0.0386 0.0289,0.0772 0.0314,0.0724 0.0386,0.11576 l 0.0193,0.0579 h -0.0579 -0.0386 -0.17363 -0.10611 -0.0386 -0.0386 -0.0386 -0.0386 -0.16399 -0.0289 -0.11575 l -0.0193,-0.0579 v -0.0386 l -0.0193,-0.0289 v -0.0289 q -0.0289,-0.053 -0.0289,-0.0965 l -0.0193,-0.0289 v -0.0289 l -0.01,-0.0386 -0.0289,-0.0675 -0.0675,-0.24115 h -0.17363 -0.19293 -0.0675 -0.0579 -0.0482 -0.0579 -0.0386 -0.17364 -0.10611 -0.0386 -0.0386 -0.0386 -0.0386 -0.16398 -0.0289 -0.11576 l -0.01,0.0482 -0.01,0.0482 -0.0193,0.0386 q -0.0121,0.053 -0.0289,0.0965 l -0.01,0.0482 -0.01,0.0193 -0.0289,0.0965 -0.01,0.0386 -0.01,0.0289 q -0.0169,0.0506 -0.0289,0.0772 l -0.0289,0.11575 h -0.0386 -0.0386 -0.0289 -0.19293 -0.0289 -0.17363 -0.0289 -0.29903 l 0.0193,-0.0772 0.0289,-0.0965 0.01,-0.0289 0.01,-0.0289 0.01,-0.0289 0.01,-0.0193 0.0482,-0.15434 0.01,-0.0289 0.01,-0.0289 0.01,-0.0386 0.0193,-0.0386 0.0289,-0.10611 0.01,-0.0289 0.01,-0.0289 0.01,-0.0289 0.01,-0.0193 q 0.0289,-0.11094 0.0579,-0.17364 l 0.0193,-0.0675 0.01,-0.0193 q 0.0289,-0.11094 0.0579,-0.17364 0.012,-0.0482 0.0289,-0.0772 l 0.0193,-0.0772 0.0289,-0.0675 0.0193,-0.0772 0.01,-0.0193 q 0.0289,-0.11094 0.0579,-0.17364 l 0.0193,-0.0772 0.0772,-0.21221 0.0193,-0.0675 0.01,-0.0289 0.01,-0.0289 q 0.0289,-0.0916 0.0579,-0.15434 l 0.0193,-0.0579 0.01,-0.0289 v -0.0289 l 0.01,-0.0289 0.0675,-0.17363 0.01,-0.0579 0.0193,-0.0482 0.0193,-0.0386 q 0.0193,-0.0916 0.0482,-0.15434 l 0.01,-0.0482 0.01,-0.0289 0.01,-0.0193 q 0.0289,-0.11093 0.0579,-0.17363 l 0.01,-0.0386 0.01,-0.0386 q 0.0265,-0.0555 0.0386,-0.10611 l 0.0289,-0.0965 0.01,-0.0289 0.0772,-0.22187 z m 0.41479,0.84887 -0.0289,0.10611 -0.01,0.0193 -0.0482,0.17363 -0.0579,0.16399 -0.01,0.0193 -0.0579,0.21222 -0.01,0.0386 -0.0579,0.16399 -0.0193,0.0482 q -0.01,0.0772 -0.0386,0.13505 -0.007,0.0555 -0.0289,0.10611 l -0.01,0.0386 q -0.0193,0.0579 -0.0386,0.0965 l -0.0579,0.21222 h 0.0289 0.0386 0.0386 0.0386 0.0386 0.16399 0.0289 0.11575 0.0386 0.10611 0.0482 0.0289 0.0386 0.0289 0.19293 l -0.0193,-0.0772 -0.0579,-0.18328 -0.0482,-0.16398 q -0.0362,-0.0916 -0.0482,-0.15435 l -0.01,-0.0193 q -0.0193,-0.0699 -0.0386,-0.11575 l -0.01,-0.0386 -0.01,-0.0386 -0.0193,-0.0482 -0.01,-0.0579 -0.01,-0.0386 -0.0193,-0.0289 -0.01,-0.0579 -0.01,-0.0386 q -0.0145,-0.0289 -0.0193,-0.0579 l -0.01,-0.0386 q -0.0362,-0.0724 -0.0482,-0.13505 l -0.01,-0.0289 -0.01,-0.0193 -0.0193,-0.0868 -0.01,-0.0289 -0.0482,-0.1254 z m 1.97508,-0.83922 h 0.13504 0.0482 0.0386 0.17363 0.0386 0.0386 0.0386 0.16398 0.0772 0.0675 l 0.0193,0.0289 0.0386,0.0675 0.0965,0.17363 0.0289,0.0579 0.0289,0.0482 0.0193,0.0482 0.0193,0.0193 0.01,0.0289 q 0.0121,0.01 0.01,0.0193 0.0603,0.0844 0.0868,0.15434 0.0434,0.0579 0.0579,0.10611 l 0.0289,0.0386 0.01,0.0289 0.0289,0.0386 0.01,0.0289 0.0289,0.0386 0.0193,0.0386 0.0193,0.0289 0.01,0.0289 0.0289,0.0386 0.01,0.0193 0.0193,0.0579 q 0.0169,0.01 0.0193,0.0193 0.053,0.11093 0.10611,0.17363 l 0.0289,-0.0675 0.0965,-0.16399 0.0289,-0.0579 0.0289,-0.0482 0.0289,-0.0579 0.0772,-0.13505 0.0386,-0.0579 0.0193,-0.0579 0.0193,-0.0193 0.01,-0.0193 0.01,-0.0289 q 0.0434,-0.0627 0.0675,-0.11576 l 0.0193,-0.0386 0.0289,-0.0386 0.0193,-0.0386 0.01,-0.0289 0.0289,-0.0386 0.0193,-0.0289 0.01,-0.0289 0.0193,-0.0289 0.01,-0.0289 0.0193,-0.0289 0.0965,-0.17363 h 0.0675 0.13505 0.0289 0.17364 0.1254 0.0386 0.16399 0.0289 0.11575 l -0.0868,0.15434 -0.0193,0.0289 -0.0193,0.0482 -0.0193,0.0289 -0.0193,0.0289 -0.01,0.0289 -0.0193,0.0289 -0.01,0.0289 -0.0193,0.01 q -0.0265,0.0796 -0.0675,0.13505 l -0.01,0.0193 -0.0965,0.17363 -0.01,0.0193 -0.01,0.0193 -0.10611,0.17363 -0.0289,0.0675 -0.01,0.0193 q -0.0289,0.0482 -0.0386,0.0772 -0.0314,0.0386 -0.0386,0.0675 l -0.0289,0.0482 -0.0772,0.13505 -0.01,0.0193 -0.01,0.0193 -0.01,0.0193 -0.0193,0.0193 q -0.0362,0.0941 -0.0868,0.15434 l -0.0193,0.0386 -0.0193,0.0386 -0.0193,0.0482 -0.0289,0.0289 -0.01,0.0193 q -0.0627,0.15193 -0.13505,0.24116 l -0.01,0.0193 q -0.0555,0.13264 -0.11576,0.21222 v 1.46623 h -0.1254 -0.0386 -0.17364 -0.0386 -0.0386 -0.0386 -0.16399 -0.0289 -0.11575 v -0.0289 -0.0289 -0.12541 -0.16398 -0.0289 -0.11576 -0.0386 -0.0289 -0.19293 -0.0386 -0.0289 -0.17363 -0.1254 -0.0386 -0.16399 -0.0289 -0.11576 q -0.082,-0.11575 -0.11576,-0.19292 l -0.0386,-0.0675 q -0.0482,-0.082 -0.0675,-0.13505 l -0.0386,-0.0675 q -0.0675,-0.094 -0.0965,-0.17363 l -0.0386,-0.0675 -0.0386,-0.0579 -0.0386,-0.0675 -0.01,-0.0386 q -0.0458,-0.0482 -0.0579,-0.0965 l -0.0193,-0.0289 -0.0579,-0.0965 -0.10611,-0.21222 -0.0193,-0.01 -0.0193,-0.0579 q -0.0627,-0.082 -0.0868,-0.15434 l -0.0289,-0.0289 -0.0193,-0.0386 -0.0289,-0.0482 -0.01,-0.0386 -0.0289,-0.0386 q -0.0289,-0.0482 -0.0386,-0.0868 -0.0145,-0.0121 -0.0193,-0.0289 l -0.0193,-0.0289 -0.01,-0.0289 q -0.0723,-0.0844 -0.0965,-0.17363 -0.0675,-0.0796 -0.0868,-0.15434 z"
       id="text3074"
       style="font-size:4.93889px;font-family:'Transport Heavy';-inkscape-font-specification:'Transport Heavy, Normal';white-space:pre;inline-size:55.6708;stroke-width:0.363169"
       transform="matrix(0.97138619,0,0,1.0294567,-11.176031,0)"
       aria-label="       KEEP CLEAR&#10;MONDAY TO FRIDAY" />
    <path
       id="path3075"
       d="m 0,0 c -7.618,0 -13.793,-6.175 -13.793,-13.793 0,-7.617 6.175,-13.793 13.793,-13.793 7.617,0 13.793,6.176 13.793,13.793 C 13.793,-6.175 7.617,0 0,0"
       style="fill:#e01f26;fill-opacity:1;fill-rule:nonzero;stroke:none"
       transform="matrix(0.35277776,0,0,-0.35277776,105.14912,130.21786)"
       clip-path="url(#clipPath3076)" />
    <path
       id="path3077"
       d="m 0,0 c -1.056,-1.057 -2.285,-1.886 -3.654,-2.465 -1.415,-0.598 -2.92,-0.902 -4.473,-0.902 -1.553,0 -3.058,0.304 -4.474,0.902 -1.368,0.579 -2.597,1.408 -3.654,2.465 -1.057,1.057 -1.886,2.285 -2.464,3.654 -0.598,1.415 -0.902,2.92 -0.902,4.473 0,1.553 0.304,3.059 0.902,4.474 0.578,1.368 1.407,2.597 2.464,3.654 1.057,1.057 2.286,1.886 3.654,2.464 1.416,0.599 2.921,0.902 4.474,0.902 1.553,0 3.058,-0.303 4.473,-0.902 C -2.285,18.141 -1.056,17.312 0,16.255 1.057,15.198 1.886,13.969 2.465,12.601 3.063,11.186 3.367,9.68 3.367,8.127 3.367,6.574 3.063,5.069 2.465,3.654 1.886,2.285 1.057,1.057 0,0"
       style="fill:#4467a5;fill-opacity:1;fill-rule:nonzero;stroke:none"
       transform="matrix(0.35277776,0,0,-0.35277776,108.01614,137.95075)"
       clip-path="url(#clipPath3078)" />
    <path
       id="path3079"
       d="M 0,0 C -0.001,-0.004 -0.003,-0.008 -0.005,-0.012 -0.003,-0.008 -0.001,-0.004 0,0"
       style="fill:#ffffff;fill-opacity:1;fill-rule:nonzero;stroke:none"
       transform="matrix(0.35277776,0,0,-0.35277776,104.14229,137.85232)"
       clip-path="url(#clipPath3080)" />
    <path
       id="path3081"
       d="M 0,0 C -0.001,-0.003 -0.003,-0.006 -0.004,-0.009 -0.003,-0.006 -0.001,-0.003 0,0 Z"
       style="fill:none;stroke:#ffffff;stroke-width:0.004;stroke-linecap:butt;stroke-linejoin:miter;stroke-miterlimit:2.613;stroke-dasharray:none;stroke-opacity:1"
       transform="matrix(0.35277776,0,0,-0.35277776,104.14053,137.85656)"
       clip-path="url(#clipPath3082)" />
    <path
       id="path3083"
       d="m 0,0 -1.625,1.626 17.88,17.881 1.626,-1.626 z"
       style="fill:#e01f26;fill-opacity:1;fill-rule:nonzero;stroke:none"
       transform="matrix(0.35277776,0,0,-0.35277776,102.28174,138.52437)"
       clip-path="url(#clipPath3084)" />
    <path
       id="path3107"
       d="m 55.031001,395.141 147.453999,0 a 7.5000005,7.5000005 135 0 0 7.5,-7.5 V 290.12 a 7.5000005,7.5000005 45 0 0 -7.5,-7.5 H 55.031001 a 7.5000005,7.5000005 135 0 0 -7.500001,7.5 v 97.521 a 7.5000005,7.5000005 45 0 0 7.500001,7.5 z"
       style="fill:none;stroke:#000000;stroke-width:1.667;stroke-linecap:butt;stroke-linejoin:miter;stroke-miterlimit:10;stroke-dasharray:none;stroke-opacity:1;fill-opacity:1"
       transform="matrix(0.35277776,0,0,-0.35277776,59.72616,268.01392)"
       clip-path="url(#clipPath3108)"
       inkscape:path-effect="#path-effect1"
       inkscape:original-d="M 47.531,395.141 H 209.985 V 282.62 H 47.531 Z" />
    <text
       xml:space="preserve"
       style="font-style:normal;font-variant:normal;font-weight:normal;font-stretch:normal;font-size:4.23333px;font-family:'Transport Heavy';-inkscape-font-specification:'Transport Heavy, Normal';font-variant-ligatures:normal;font-variant-caps:normal;font-variant-numeric:normal;font-variant-east-asian:normal;text-align:start;writing-mode:lr-tb;direction:ltr;text-anchor:start;fill:#ffffff;fill-opacity:0;stroke-width:0.264583"
       x="114.71497"
       y="161.8934"
       id="text38"><tspan
         sodipodi:role="line"
         id="tspan38"
         style="stroke-width:0.264583"
         x="114.71497"
         y="161.8934"> </tspan></text>
    <path
       id="path3083-5"
       d="m 0,0 -1.625,1.626 17.88,17.881 1.626,-1.626 z"
       style="fill:#e01f26;fill-opacity:1;fill-rule:nonzero;stroke:none"
       transform="matrix(0.35277776,0,0,0.35277776,102.16203,131.68411)"
       clip-path="url(#clipPath3084-2)" />
  </g>
</svg>
