<?xml version="1.0" encoding="UTF-8" standalone="no"?>
<svg
   version="1.1"
   x="0px"
   y="0px"
   width="360px"
   height="360px"
   viewBox="797 802 360 360"
   enable-background="new 797 802 360 360"
   xml:space="preserve"
   id="svg3121"
   inkscape:version="1.4 (86a8ad7, 2024-10-11)"
   sodipodi:docname="Parking Not Allowed On Footpath.svg"
   xmlns:inkscape="http://www.inkscape.org/namespaces/inkscape"
   xmlns:sodipodi="http://sodipodi.sourceforge.net/DTD/sodipodi-0.dtd"
   xmlns="http://www.w3.org/2000/svg"
   xmlns:svg="http://www.w3.org/2000/svg"
   xmlns:rdf="http://www.w3.org/1999/02/22-rdf-syntax-ns#"
   xmlns:cc="http://creativecommons.org/ns#"
   xmlns:dc="http://purl.org/dc/elements/1.1/"><metadata
   id="metadata3135"><rdf:RDF><cc:Work
       rdf:about=""><dc:format>image/svg+xml</dc:format><dc:type
         rdf:resource="http://purl.org/dc/dcmitype/StillImage" /><dc:title /></cc:Work></rdf:RDF></metadata><defs
   id="defs3133"><inkscape:path-effect
   effect="fillet_chamfer"
   id="path-effect1250"
   is_visible="true"
   lpeversion="1"
   nodesatellites_param="F,0,0,1,0,3.86627,0,1 @ F,0,0,1,0,3.8662696,0,1 @ F,0,0,1,0,3.8662703,0,1 @ F,0,0,1,0,3.8662703,0,1"
   unit="px"
   method="auto"
   mode="F"
   radius="0"
   chamfer_steps="1"
   flexible="false"
   use_knot_distance="true"
   apply_no_radius="true"
   apply_with_radius="true"
   only_selected="false"
   hide_knots="false" /><inkscape:path-effect
   effect="fillet_chamfer"
   id="path-effect2969"
   is_visible="true"
   lpeversion="1"
   nodesatellites_param="F,0,0,1,0,5.0787595,0,1 @ F,0,0,1,0,5.078762,0,1 @ F,0,0,1,0,5.078762,0,1 @ F,0,0,1,0,5.078762,0,1"
   unit="px"
   method="auto"
   mode="F"
   radius="0"
   chamfer_steps="1"
   flexible="false"
   use_knot_distance="true"
   apply_no_radius="true"
   apply_with_radius="true"
   only_selected="false"
   hide_knots="false" /><inkscape:path-effect
   effect="fillet_chamfer"
   id="path-effect2963"
   is_visible="true"
   lpeversion="1"
   nodesatellites_param="F,0,0,1,0,5.0787595,0,1 @ F,0,0,1,0,5.078762,0,1 @ F,0,0,1,0,5.078762,0,1 @ F,0,0,1,0,5.078762,0,1"
   unit="px"
   method="auto"
   mode="F"
   radius="0"
   chamfer_steps="1"
   flexible="false"
   use_knot_distance="true"
   apply_no_radius="true"
   apply_with_radius="true"
   only_selected="false"
   hide_knots="false" /><inkscape:path-effect
   effect="fillet_chamfer"
   id="path-effect2888"
   is_visible="true"
   lpeversion="1"
   nodesatellites_param="F,0,0,1,0,5.0787595,0,1 @ F,0,0,1,0,5.078762,0,1 @ F,0,0,1,0,5.078762,0,1 @ F,0,0,1,0,5.078762,0,1"
   unit="px"
   method="auto"
   mode="F"
   radius="0"
   chamfer_steps="1"
   flexible="false"
   use_knot_distance="true"
   apply_no_radius="true"
   apply_with_radius="true"
   only_selected="false"
   hide_knots="false" /><inkscape:path-effect
   effect="fillet_chamfer"
   id="path-effect1250-3"
   is_visible="true"
   lpeversion="1"
   nodesatellites_param="F,0,0,1,0,3.86627,0,1 @ F,0,0,1,0,3.8662696,0,1 @ F,0,0,1,0,3.8662703,0,1 @ F,0,0,1,0,3.8662703,0,1"
   unit="px"
   method="auto"
   mode="F"
   radius="0"
   chamfer_steps="1"
   flexible="false"
   use_knot_distance="true"
   apply_no_radius="true"
   apply_with_radius="true"
   only_selected="false"
   hide_knots="false" /><inkscape:path-effect
   effect="fillet_chamfer"
   id="path-effect2969-8"
   is_visible="true"
   lpeversion="1"
   nodesatellites_param="F,0,0,1,0,5.0787595,0,1 @ F,0,0,1,0,5.078762,0,1 @ F,0,0,1,0,5.078762,0,1 @ F,0,0,1,0,5.078762,0,1"
   unit="px"
   method="auto"
   mode="F"
   radius="0"
   chamfer_steps="1"
   flexible="false"
   use_knot_distance="true"
   apply_no_radius="true"
   apply_with_radius="true"
   only_selected="false"
   hide_knots="false" /><inkscape:path-effect
   effect="fillet_chamfer"
   id="path-effect2963-9"
   is_visible="true"
   lpeversion="1"
   nodesatellites_param="F,0,0,1,0,5.0787595,0,1 @ F,0,0,1,0,5.078762,0,1 @ F,0,0,1,0,5.078762,0,1 @ F,0,0,1,0,5.078762,0,1"
   unit="px"
   method="auto"
   mode="F"
   radius="0"
   chamfer_steps="1"
   flexible="false"
   use_knot_distance="true"
   apply_no_radius="true"
   apply_with_radius="true"
   only_selected="false"
   hide_knots="false" /><inkscape:path-effect
   effect="fillet_chamfer"
   id="path-effect2888-3"
   is_visible="true"
   lpeversion="1"
   nodesatellites_param="F,0,0,1,0,5.0787595,0,1 @ F,0,0,1,0,5.078762,0,1 @ F,0,0,1,0,5.078762,0,1 @ F,0,0,1,0,5.078762,0,1"
   unit="px"
   method="auto"
   mode="F"
   radius="0"
   chamfer_steps="1"
   flexible="false"
   use_knot_distance="true"
   apply_no_radius="true"
   apply_with_radius="true"
   only_selected="false"
   hide_knots="false" />
	
	
</defs><sodipodi:namedview
   pagecolor="#ffffff"
   bordercolor="#666666"
   borderopacity="1"
   objecttolerance="10"
   gridtolerance="10"
   guidetolerance="10"
   inkscape:pageopacity="0"
   inkscape:pageshadow="2"
   inkscape:window-width="1920"
   inkscape:window-height="1009"
   id="namedview3131"
   showgrid="false"
   inkscape:zoom="1.4777778"
   inkscape:cx="179.66165"
   inkscape:cy="269.66165"
   inkscape:window-x="-8"
   inkscape:window-y="-8"
   inkscape:window-maximized="1"
   inkscape:current-layer="svg3121"
   inkscape:showpageshadow="0"
   inkscape:pagecheckerboard="0"
   inkscape:deskcolor="#d1d1d1"
   showguides="true" />
<path
   d="m 977.155,1145.256 c -89.99,0 -163.247,-73.214 -163.302,-163.205 v -0.211 c -0.027,-43.63 16.935,-84.65 47.76,-115.514 30.825,-30.864 71.825,-47.875 115.445,-47.902 h 0.103 c 89.99,0 163.249,73.214 163.304,163.206 v 0.21 c 0.026,43.631 -16.935,84.65 -47.761,115.514 -30.825,30.864 -71.824,47.876 -115.445,47.902 z"
   id="path3124"
   fill="#ffffff" /><circle
   style="fill:#ed1e24;fill-opacity:1;fill-rule:nonzero;stroke:none;stroke-width:1.10465;stroke-linecap:square;stroke-linejoin:round;stroke-miterlimit:4;stroke-dasharray:none;stroke-opacity:1;paint-order:stroke fill markers"
   id="path17"
   cx="977"
   cy="982"
   r="180" /><circle
   style="fill:#3a53a4;fill-opacity:1;fill-rule:nonzero;stroke:none;stroke-width:0.980674;stroke-linecap:square;stroke-linejoin:round;stroke-miterlimit:4;stroke-dasharray:none;stroke-opacity:1;paint-order:stroke fill markers"
   id="circle821"
   cx="977"
   cy="982"
   r="144.00002"
   inkscape:label="Circle" />


<g
   id="g7"
   transform="matrix(0.28401651,0,0,0.27970662,841.07346,856.28062)"
   style="clip-rule:evenodd;fill-rule:evenodd;image-rendering:optimizeQuality;shape-rendering:geometricPrecision;text-rendering:geometricPrecision"><path
     style="opacity:1;fill:#4552a4;fill-opacity:1"
     fill="#fcfcfc"
     d="m 662.5,711.5 c -8.333,0 -16.667,0 -25,0 -13.004,-7.346 -17.837,-18.346 -14.5,-33 9.638,-19.574 24.138,-24.407 43.5,-14.5 4.378,4.595 7.878,9.762 10.5,15.5 1.001,6.331 0.501,12.498 -1.5,18.5 -2.265,2.589 -4.098,5.423 -5.5,8.5 -2.382,1.889 -4.882,3.555 -7.5,5 z"
     id="path7" /></g><g
   id="g11"
   transform="matrix(0.28401651,0,0,0.27970662,841.07346,856.28062)"
   style="clip-rule:evenodd;fill-rule:evenodd;image-rendering:optimizeQuality;shape-rendering:geometricPrecision;text-rendering:geometricPrecision"><path
     style="opacity:1"
     fill="#525353"
     d="m 374.5,752.5 c -11.488,0.995 -23.155,1.328 -35,1 0,1.667 0,3.333 0,5 -0.961,-1.765 -1.295,-3.765 -1,-6 12,0 24,0 36,0 z"
     id="path11" /></g><g
   id="g2"
   transform="matrix(0.32039778,0,0,0.29901519,818.71719,843.20352)"
   style="clip-rule:evenodd;fill-rule:evenodd;image-rendering:optimizeQuality;shape-rendering:geometricPrecision;text-rendering:geometricPrecision;fill:#ffffff;fill-opacity:1"><path
     style="opacity:1;fill:#ffffff;fill-opacity:1"
     fill="#000000"
     d="m 325.5,46.5 c 64.668,-0.1667 129.334,0 194,0.5 23.792,0.7241 47.125,4.3908 70,11 45.366,23.0933 69.532,60.26 72.5,111.5 1.475,24.075 -1.859,47.409 -10,70 -19.835,44.478 -54.002,69.978 -102.5,76.5 -14.877,1.273 -29.71,2.773 -44.5,4.5 -30.136,-0.495 -60.303,-0.495 -90.5,0 0,55 0,110 0,165 -29.666,0.36 -59.333,0.36 -89,0 0,-146.333 0,-292.667 0,-439 z"
     id="path2" /></g><g
   id="g3"
   transform="matrix(0.32039778,0,0,0.29901519,818.71719,843.20352)"
   style="clip-rule:evenodd;fill:#3a53a4;fill-opacity:1;fill-rule:evenodd;image-rendering:optimizeQuality;shape-rendering:geometricPrecision;text-rendering:geometricPrecision"><path
     style="opacity:1;fill:#3a53a4;fill-opacity:1"
     fill="#fdfdfd"
     d="m 414.5,120.5 c 23.985,0.103 47.985,0.27 72,0.5 10.341,0.549 20.674,1.216 31,2 40.926,9.031 58.093,34.198 51.5,75.5 -5.05,17.375 -15.55,30.208 -31.5,38.5 -14.177,5.209 -28.843,7.876 -44,8 -26.352,0.104 -52.685,0.271 -79,0.5 0,-41.667 0,-83.333 0,-125 z"
     id="path3" /></g><g
   id="g4"
   transform="matrix(0.32039778,0,0,0.29901519,818.71719,843.20352)"
   style="clip-rule:evenodd;fill-rule:evenodd;image-rendering:optimizeQuality;shape-rendering:geometricPrecision;text-rendering:geometricPrecision;fill:#ffffff;fill-opacity:1"><path
     style="opacity:1;fill:#ffffff;fill-opacity:1"
     fill="#000000"
     d="m 420.5,514.5 c 60.627,0.638 121.294,0.805 182,0.5 10.704,0.896 19.704,5.229 27,13 4.572,8.311 8.739,16.811 12.5,25.5 10.095,29.892 20.262,59.726 30.5,89.5 5.702,4.695 11.702,9.028 18,13 4.028,3.887 7.194,8.387 9.5,13.5 0.199,14.692 0.699,29.359 1.5,44 -0.772,7.972 -1.272,15.972 -1.5,24 -3.387,3.946 -7.554,6.78 -12.5,8.5 -6.688,1.838 -13.354,3.671 -20,5.5 1.508,9.244 2.174,18.577 2,28 -0.009,6.577 -0.343,13.077 -1,19.5 12.996,0.5 25.996,0.667 39,0.5 0,17.667 0,35.333 0,53 -155,0 -310,0 -465,0 0,-17.667 0,-35.333 0,-53 11.338,0.167 22.672,0 34,-0.5 -0.813,-7.598 -1.479,-15.265 -2,-23 0.528,-8.068 1.195,-16.068 2,-24 -7.431,-2.256 -14.764,-4.923 -22,-8 -1.877,-2.251 -3.377,-4.751 -4.5,-7.5 -0.667,-21.667 -0.667,-43.333 0,-65 2.169,-3.851 4.336,-7.685 6.5,-11.5 7,-5.822 14.666,-10.655 23,-14.5 5.644,-28.697 11.144,-57.363 16.5,-86 2.819,-14.812 9.652,-27.312 20.5,-37.5 4.031,-2.455 8.364,-4.121 13,-5 30.473,-1.11 60.806,-1.944 91,-2.5 z"
     id="path4" /></g><g
   id="g5"
   transform="matrix(0.32039778,0,0,0.29901519,818.71719,843.20352)"
   style="clip-rule:evenodd;fill:#3a53a4;fill-opacity:1;fill-rule:evenodd;image-rendering:optimizeQuality;shape-rendering:geometricPrecision;text-rendering:geometricPrecision"><path
     style="opacity:1;fill:#3a53a4;fill-opacity:1"
     fill="#fdfdfd"
     d="m 645.5,634.5 c -3.873,1.93 -8.206,2.597 -13,2 -28.346,0.261 -56.68,0.261 -85,0 -25.321,0.696 -50.654,1.362 -76,2 -56.002,-0.158 -112.002,-0.491 -168,-1 0.525,-2.488 1.358,-4.821 2.5,-7 3.065,-22.743 7.065,-45.076 12,-67 1.419,-9.673 5.586,-17.84 12.5,-24.5 16.666,-1.671 33.332,-1.838 50,-0.5 34.813,-0.798 69.647,-1.464 104.5,-2 39.877,0.476 79.71,0.642 119.5,0.5 3.062,1.061 5.562,2.894 7.5,5.5 1.173,3.837 3.173,7.171 6,10 9.317,27.359 18.484,54.692 27.5,82 z"
     id="path5" /></g><g
   id="g9"
   transform="matrix(0.32039778,0,0,0.29901519,818.71719,843.20352)"
   style="clip-rule:evenodd;fill:#3a53a4;fill-opacity:1;fill-rule:evenodd;image-rendering:optimizeQuality;shape-rendering:geometricPrecision;text-rendering:geometricPrecision"><path
     style="opacity:1;fill:#3a53a4;fill-opacity:1"
     fill="#fbfbfb"
     d="m 401.5,674.5 c 57.38,0.231 114.713,0.398 172,0.5 11.597,6.121 13.764,14.621 6.5,25.5 -2.469,2.152 -5.302,3.652 -8.5,4.5 -35.846,0.526 -71.68,0.359 -107.5,-0.5 -25.157,0.701 -50.323,1.368 -75.5,2 -7.66,-0.598 -15.327,-1.098 -23,-1.5 -7.976,-3.655 -11.142,-9.821 -9.5,-18.5 1.406,-5.073 4.572,-8.573 9.5,-10.5 12.174,-0.169 24.174,-0.669 36,-1.5 z"
     id="path9" /></g><g
   id="g12"
   transform="matrix(0.32039778,0,0,0.29901519,818.71719,843.20352)"
   style="clip-rule:evenodd;fill:#3a53a4;fill-opacity:1;fill-rule:evenodd;image-rendering:optimizeQuality;shape-rendering:geometricPrecision;text-rendering:geometricPrecision"><path
     style="opacity:1;fill:#3a53a4;fill-opacity:1"
     fill="#fdfdfd"
     d="m 339.5,758.5 c 0,-1.667 0,-3.333 0,-5 11.845,0.328 23.512,-0.005 35,-1 77.087,-0.815 154.087,-1.148 231,-1 -0.928,14.45 -1.261,28.95 -1,43.5 0.667,1.333 1.333,2.667 2,4 -88.999,0.5 -177.999,0.667 -267,0.5 1.276,-13.69 1.276,-27.357 0,-41 z"
     id="path12" /></g><ellipse
   style="clip-rule:evenodd;fill:#3a53a4;fill-opacity:1;fill-rule:evenodd;stroke-width:0.337511;image-rendering:optimizeQuality;shape-rendering:geometricPrecision;text-rendering:geometricPrecision"
   id="path13"
   cx="1026.8336"
   cy="1048.6772"
   rx="9.0401096"
   ry="8.4672518" /><ellipse
   style="clip-rule:evenodd;fill:#3a53a4;fill-opacity:1;fill-rule:evenodd;stroke-width:0.337511;image-rendering:optimizeQuality;shape-rendering:geometricPrecision;text-rendering:geometricPrecision"
   id="path13-0"
   cx="916.32996"
   cy="1048.9091"
   rx="9.0401096"
   ry="8.4672518" /><rect
   transform="matrix(-0.70155532,-0.71261499,-0.69035149,0.72347415,10e-6,0)"
   style="clip-rule:evenodd;fill-rule:nonzero;image-rendering:optimizeQuality;shape-rendering:geometricPrecision;text-rendering:geometricPrecision;opacity:1;fill:#ed1e24;fill-opacity:1;stroke:none;stroke-width:6.0162;stroke-linecap:square;stroke-linejoin:round;stroke-miterlimit:4;stroke-dasharray:none;stroke-opacity:1;paint-order:stroke fill markers"
   id="rect1947"
   width="39.8452"
   height="345.20865"
   x="-1404.2906"
   y="-185.40126" /></svg>
