<?xml version="1.0" encoding="UTF-8" standalone="no"?>
<!-- Created with Inkscape (http://www.inkscape.org/) -->

<svg
   width="50.078217mm"
   height="50.078217mm"
   viewBox="0 0 50.078217 50.078217"
   version="1.1"
   id="svg1"
   inkscape:version="1.4 (86a8ad7, 2024-10-11)"
   sodipodi:docname="c keep either side.svg"
   xmlns:inkscape="http://www.inkscape.org/namespaces/inkscape"
   xmlns:sodipodi="http://sodipodi.sourceforge.net/DTD/sodipodi-0.dtd"
   xmlns="http://www.w3.org/2000/svg"
   xmlns:svg="http://www.w3.org/2000/svg">
  <sodipodi:namedview
     id="namedview1"
     pagecolor="#ffffff"
     bordercolor="#000000"
     borderopacity="0.25"
     inkscape:showpageshadow="2"
     inkscape:pageopacity="0.0"
     inkscape:pagecheckerboard="0"
     inkscape:deskcolor="#d1d1d1"
     inkscape:document-units="mm"
     inkscape:zoom="2.8756734"
     inkscape:cx="119.27641"
     inkscape:cy="95.455903"
     inkscape:window-width="1920"
     inkscape:window-height="1009"
     inkscape:window-x="-8"
     inkscape:window-y="-8"
     inkscape:window-maximized="1"
     inkscape:current-layer="layer1" />
  <defs
     id="defs1">
    <clipPath
       clipPathUnits="userSpaceOnUse"
       id="clipPath42">
      <path
         d="M 0,841.89 H 595.276 V 0 H 0 Z"
         transform="translate(-393.95501,-709.95402)"
         id="path42" />
    </clipPath>
    <clipPath
       clipPathUnits="userSpaceOnUse"
       id="clipPath44">
      <path
         d="M 0,841.89 H 595.276 V 0 H 0 Z"
         transform="translate(-393.95501,-572.94701)"
         id="path44" />
    </clipPath>
    <clipPath
       clipPathUnits="userSpaceOnUse"
       id="clipPath46">
      <path
         d="M 0,841.89 H 595.276 V 0 H 0 Z"
         transform="translate(-354.52201,-670.46501)"
         id="path46" />
    </clipPath>
    <clipPath
       clipPathUnits="userSpaceOnUse"
       id="clipPath24">
      <path
         d="M 0,841.89 H 595.276 V 0 H 0 Z"
         transform="translate(-344.16101,-340.87601)"
         id="path24" />
    </clipPath>
    <clipPath
       clipPathUnits="userSpaceOnUse"
       id="clipPath26">
      <path
         d="M 0,841.89 H 595.276 V 0 H 0 Z"
         transform="translate(-441.04001,-437.75501)"
         id="path26" />
    </clipPath>
    <clipPath
       clipPathUnits="userSpaceOnUse"
       id="clipPath28">
      <path
         d="M 0,841.89 H 595.276 V 0 H 0 Z"
         transform="translate(-369.21601,-438.31201)"
         id="path28" />
    </clipPath>
    <clipPath
       clipPathUnits="userSpaceOnUse"
       id="clipPath14">
      <path
         d="M 0,841.89 H 595.276 V 0 H 0 Z"
         transform="translate(-116.524,-213.499)"
         id="path14" />
    </clipPath>
    <clipPath
       clipPathUnits="userSpaceOnUse"
       id="clipPath16">
      <path
         d="M 0,841.89 H 595.276 V 0 H 0 Z"
         transform="translate(-116.524,-76.490627)"
         id="path16" />
    </clipPath>
    <clipPath
       clipPathUnits="userSpaceOnUse"
       id="clipPath18">
      <path
         d="M 0,841.89 H 595.276 V 0 H 0 Z"
         transform="translate(-121.43001,-180.369)"
         id="path18" />
    </clipPath>
    <clipPath
       clipPathUnits="userSpaceOnUse"
       id="clipPath20">
      <path
         d="M 0,841.89 H 595.276 V 0 H 0 Z"
         transform="translate(-111.618,-180.369)"
         id="path20" />
    </clipPath>
  </defs>
  <g
     inkscape:label="Layer 1"
     inkscape:groupmode="layer"
     id="layer1"
     transform="translate(-147.6375,-122.2375)">
    <path
       id="path13"
       d="m 0,0 c 39.138,0 70.866,-31.729 70.866,-70.866 0,-39.138 -31.728,-70.866 -70.866,-70.866 -39.138,0 -70.866,31.728 -70.866,70.866 C -70.866,-31.729 -39.138,0 0,0"
       style="fill:#ffffff;fill-opacity:1;fill-rule:nonzero;stroke:#231f20;stroke-width:0.222;stroke-linecap:butt;stroke-linejoin:miter;stroke-miterlimit:4;stroke-dasharray:none;stroke-opacity:1"
       transform="matrix(0.35277776,0,0,-0.35277776,172.67661,122.27666)"
       clip-path="url(#clipPath14)" />
    <path
       id="path15"
       d="m 0,0 c -8.931,0 -17.593,1.749 -25.744,5.196 -7.875,3.331 -14.949,8.102 -21.026,14.177 -6.075,6.076 -10.845,13.15 -14.176,21.025 -3.448,8.152 -5.196,16.813 -5.196,25.745 0,8.93 1.748,17.591 5.196,25.744 3.331,7.875 8.101,14.948 14.176,21.024 6.077,6.076 13.151,10.847 21.026,14.178 8.151,3.447 16.813,5.195 25.744,5.195 8.931,0 17.593,-1.748 25.743,-5.195 7.876,-3.331 14.95,-8.102 21.027,-14.178 6.075,-6.076 10.844,-13.149 14.176,-21.024 3.448,-8.153 5.196,-16.814 5.196,-25.744 0,-8.932 -1.748,-17.593 -5.196,-25.745 C 57.614,32.523 52.845,25.449 46.77,19.373 40.693,13.298 33.619,8.527 25.743,5.196 17.593,1.749 8.931,0 0,0"
       style="fill:#4467a5;fill-opacity:1;fill-rule:nonzero;stroke:none"
       transform="matrix(0.35277776,0,0,-0.35277776,172.67661,170.61017)"
       clip-path="url(#clipPath16)" />
    <path
       id="path17"
       d="m 0,0 24.195,-63.8 -5.299,-1.42 17.43,-17.353 6.419,23.743 -5.3,-1.42 L 26.499,7.1 Z"
       style="fill:#ffffff;fill-opacity:1;fill-rule:nonzero;stroke:none"
       transform="matrix(0.35277776,0,0,-0.35277776,174.40734,133.96419)"
       clip-path="url(#clipPath18)" />
    <path
       id="path19"
       d="m 0,0 -24.195,-63.8 5.299,-1.42 -17.43,-17.353 -6.419,23.743 5.3,-1.42 10.946,67.35 z"
       style="fill:#ffffff;fill-opacity:1;fill-rule:nonzero;stroke:none"
       transform="matrix(0.35277776,0,0,-0.35277776,170.94588,133.96419)"
       clip-path="url(#clipPath20)" />
  </g>
</svg>
