<?xml version="1.0" encoding="UTF-8" standalone="no"?>
<!-- Created with Inkscape (http://www.inkscape.org/) -->

<svg
   width="50.078217mm"
   height="50.078217mm"
   viewBox="0 0 50.078217 50.078217"
   version="1.1"
   id="svg1"
   inkscape:version="1.4 (86a8ad7, 2024-10-11)"
   sodipodi:docname="pedestrian.svg"
   xmlns:inkscape="http://www.inkscape.org/namespaces/inkscape"
   xmlns:sodipodi="http://sodipodi.sourceforge.net/DTD/sodipodi-0.dtd"
   xmlns="http://www.w3.org/2000/svg"
   xmlns:svg="http://www.w3.org/2000/svg">
  <sodipodi:namedview
     id="namedview1"
     pagecolor="#ffffff"
     bordercolor="#000000"
     borderopacity="0.25"
     inkscape:showpageshadow="2"
     inkscape:pageopacity="0.0"
     inkscape:pagecheckerboard="0"
     inkscape:deskcolor="#d1d1d1"
     inkscape:document-units="mm"
     inkscape:zoom="2.8756734"
     inkscape:cx="103.28016"
     inkscape:cy="110.06118"
     inkscape:window-width="1920"
     inkscape:window-height="1009"
     inkscape:window-x="-8"
     inkscape:window-y="-8"
     inkscape:window-maximized="1"
     inkscape:current-layer="layer1" />
  <defs
     id="defs1">
    <clipPath
       clipPathUnits="userSpaceOnUse"
       id="clipPath4">
      <path
         d="M 0,841.89 H 595.276 V 0 H 0 Z"
         transform="translate(-113.21901,-710.32402)"
         id="path4" />
    </clipPath>
    <clipPath
       clipPathUnits="userSpaceOnUse"
       id="clipPath6">
      <path
         d="M 0,841.89 H 595.276 V 0 H 0 Z"
         transform="translate(-113.21901,-573.31601)"
         id="path6" />
    </clipPath>
    <clipPath
       clipPathUnits="userSpaceOnUse"
       id="clipPath8">
      <path
         d="M 0,841.89 H 595.276 V 0 H 0 Z"
         transform="translate(-143.964,-644.94101)"
         id="path8" />
    </clipPath>
    <clipPath
       clipPathUnits="userSpaceOnUse"
       id="clipPath982">
      <path
         d="M 0,841.89 H 595.276 V 0 H 0 Z"
         transform="translate(-391.22801,-710.00702)"
         id="path982" />
    </clipPath>
    <clipPath
       clipPathUnits="userSpaceOnUse"
       id="clipPath984">
      <path
         d="M 0,841.89 H 595.276 V 0 H 0 Z"
         transform="translate(-391.22801,-572.99902)"
         id="path984" />
    </clipPath>
    <clipPath
       clipPathUnits="userSpaceOnUse"
       id="clipPath986">
      <path
         d="M 0,841.89 H 595.276 V 0 H 0 Z"
         transform="translate(-443.75101,-642.12502)"
         id="path986" />
    </clipPath>
    <clipPath
       clipPathUnits="userSpaceOnUse"
       id="clipPath988">
      <path
         d="M 0,841.89 H 595.276 V 0 H 0 Z"
         transform="translate(-337.61401,-643.11902)"
         id="path988" />
    </clipPath>
    <clipPath
       clipPathUnits="userSpaceOnUse"
       id="clipPath990">
      <path
         d="M 0,841.89 H 595.276 V 0 H 0 Z"
         transform="translate(-357.12801,-673.39702)"
         id="path990" />
    </clipPath>
    <clipPath
       clipPathUnits="userSpaceOnUse"
       id="clipPath992">
      <path
         d="M 0,841.89 H 595.276 V 0 H 0 Z"
         id="path992" />
    </clipPath>
    <clipPath
       clipPathUnits="userSpaceOnUse"
       id="clipPath2055">
      <path
         d="M 0,841.89 H 595.276 V 0 H 0 Z"
         transform="translate(-113.383,-461.85101)"
         id="path2055" />
    </clipPath>
    <clipPath
       clipPathUnits="userSpaceOnUse"
       id="clipPath2057">
      <path
         d="M 0,841.89 H 595.276 V 0 H 0 Z"
         transform="translate(-113.383,-324.84301)"
         id="path2057" />
    </clipPath>
    <clipPath
       clipPathUnits="userSpaceOnUse"
       id="clipPath2059">
      <path
         d="M 0,841.89 H 595.276 V 0 H 0 Z"
         transform="translate(-84.8503,-398.56101)"
         id="path2059" />
    </clipPath>
    <clipPath
       clipPathUnits="userSpaceOnUse"
       id="clipPath2061">
      <path
         d="M 0,841.89 H 595.276 V 0 H 0 Z"
         transform="translate(-114.12,-443.97801)"
         id="path2061" />
    </clipPath>
  </defs>
  <g
     inkscape:label="Layer 1"
     inkscape:groupmode="layer"
     id="layer1"
     transform="translate(-79.904167,-123.56042)">
    <path
       id="path2054"
       d="m 0,0 c -39.138,0 -70.866,-31.729 -70.866,-70.865 0,-39.139 31.728,-70.866 70.866,-70.866 39.138,0 70.866,31.727 70.866,70.866 C 70.866,-31.729 39.138,0 0,0"
       style="fill:#ffffff;fill-opacity:1;fill-rule:nonzero;stroke:#231f20;stroke-width:0.222;stroke-linecap:butt;stroke-linejoin:miter;stroke-miterlimit:4;stroke-dasharray:none;stroke-opacity:1"
       transform="matrix(0.35277776,0,0,-0.35277776,104.94328,123.59976)"
       clip-path="url(#clipPath2055)" />
    <path
       id="path2056"
       d="m 0,0 c 8.932,0 17.593,1.748 25.744,5.196 7.875,3.331 14.949,8.102 21.026,14.177 6.076,6.076 10.845,13.149 14.176,21.025 3.448,8.152 5.197,16.814 5.197,25.745 0,8.93 -1.749,17.591 -5.197,25.743 -3.331,7.876 -8.1,14.949 -14.176,21.025 -6.077,6.076 -13.151,10.846 -21.026,14.177 -8.151,3.447 -16.812,5.196 -25.744,5.196 -8.931,0 -17.592,-1.749 -25.743,-5.196 -7.876,-3.331 -14.949,-8.101 -21.026,-14.177 -6.076,-6.076 -10.845,-13.149 -14.176,-21.025 -3.449,-8.152 -5.197,-16.813 -5.197,-25.743 0,-8.931 1.748,-17.593 5.197,-25.745 3.331,-7.876 8.1,-14.949 14.176,-21.025 6.077,-6.075 13.15,-10.846 21.026,-14.177 C -17.592,1.748 -8.931,0 0,0"
       style="fill:#4467a5;fill-opacity:1;fill-rule:nonzero;stroke:none"
       transform="matrix(0.35277776,0,0,-0.35277776,104.94328,171.93313)"
       clip-path="url(#clipPath2057)" />
    <path
       id="path2058"
       d="m 0,0 26.273,25.992 c 2.953,2.269 6.06,2.362 9.324,0.282 L 47.744,13.561 c 4.07,-5.5 3.069,-12.644 3.319,-19.178 l -3.709,0.074 C 46.448,-1.059 45.903,6.873 44.637,7.911 l -4.31,3.532 c 0,0 -0.775,-15.964 -0.211,-18.505 0.566,-2.543 3.391,-20.059 5.368,-23.449 1.978,-3.39 11.583,-23.167 11.583,-23.167 l -3.955,-3.672 -12.713,19.211 c 0,0 -4.802,7.063 -7.063,14.69 -2.26,7.628 -1.273,5.937 -1.273,5.937 L 14.408,-57.068 H 8.475 L 22.601,-11.3 c 0,0 1.977,5.085 0.847,10.735 -0.64,3.205 0.126,13.94 -4.802,10.169 C 13.843,5.933 3.39,-2.26 3.39,-2.26 Z"
       style="fill:#ffffff;fill-opacity:1;fill-rule:evenodd;stroke:none"
       transform="matrix(0.35277776,0,0,-0.35277776,94.877573,145.92706)"
       clip-path="url(#clipPath2059)" />
    <path
       id="path2060"
       d="m 0,0 c 4.489,0 8.151,-3.662 8.151,-8.151 0,-4.49 -3.662,-8.152 -8.151,-8.152 -4.489,0 -8.151,3.662 -8.151,8.152 C -8.151,-3.662 -4.489,0 0,0"
       style="fill:#ffffff;fill-opacity:1;fill-rule:evenodd;stroke:none"
       transform="matrix(0.35277776,0,0,-0.35277776,105.20327,129.90495)"
       clip-path="url(#clipPath2061)" />
  </g>
</svg>
