<?xml version="1.0" encoding="UTF-8" standalone="no"?>
<!-- Created with Inkscape (http://www.inkscape.org/) -->

<svg
   width="50.078213mm"
   height="62.29023mm"
   viewBox="0 0 50.078213 62.29023"
   version="1.1"
   id="svg1"
   inkscape:version="1.4 (86a8ad7, 2024-10-11)"
   sodipodi:docname="c prority to the right.svg"
   xmlns:inkscape="http://www.inkscape.org/namespaces/inkscape"
   xmlns:sodipodi="http://sodipodi.sourceforge.net/DTD/sodipodi-0.dtd"
   xmlns="http://www.w3.org/2000/svg"
   xmlns:svg="http://www.w3.org/2000/svg">
  <sodipodi:namedview
     id="namedview1"
     pagecolor="#ffffff"
     bordercolor="#000000"
     borderopacity="0.25"
     inkscape:showpageshadow="2"
     inkscape:pageopacity="0.0"
     inkscape:pagecheckerboard="0"
     inkscape:deskcolor="#d1d1d1"
     inkscape:document-units="mm"
     inkscape:zoom="2.8756734"
     inkscape:cx="77.025437"
     inkscape:cy="111.45216"
     inkscape:window-width="1920"
     inkscape:window-height="1009"
     inkscape:window-x="-8"
     inkscape:window-y="-8"
     inkscape:window-maximized="1"
     inkscape:current-layer="layer1" />
  <defs
     id="defs1">
    <clipPath
       clipPathUnits="userSpaceOnUse"
       id="clipPath42">
      <path
         d="M 0,841.89 H 595.276 V 0 H 0 Z"
         transform="translate(-393.95501,-709.95402)"
         id="path42" />
    </clipPath>
    <clipPath
       clipPathUnits="userSpaceOnUse"
       id="clipPath44">
      <path
         d="M 0,841.89 H 595.276 V 0 H 0 Z"
         transform="translate(-393.95501,-572.94701)"
         id="path44" />
    </clipPath>
    <clipPath
       clipPathUnits="userSpaceOnUse"
       id="clipPath46">
      <path
         d="M 0,841.89 H 595.276 V 0 H 0 Z"
         transform="translate(-354.52201,-670.46501)"
         id="path46" />
    </clipPath>
    <clipPath
       clipPathUnits="userSpaceOnUse"
       id="clipPath24">
      <path
         d="M 0,841.89 H 595.276 V 0 H 0 Z"
         transform="translate(-344.16101,-340.87601)"
         id="path24" />
    </clipPath>
    <clipPath
       clipPathUnits="userSpaceOnUse"
       id="clipPath26">
      <path
         d="M 0,841.89 H 595.276 V 0 H 0 Z"
         transform="translate(-441.04001,-437.75501)"
         id="path26" />
    </clipPath>
    <clipPath
       clipPathUnits="userSpaceOnUse"
       id="clipPath28">
      <path
         d="M 0,841.89 H 595.276 V 0 H 0 Z"
         transform="translate(-369.21601,-438.31201)"
         id="path28" />
    </clipPath>
    <clipPath
       clipPathUnits="userSpaceOnUse"
       id="clipPath14">
      <path
         d="M 0,841.89 H 595.276 V 0 H 0 Z"
         transform="translate(-116.524,-213.499)"
         id="path14" />
    </clipPath>
    <clipPath
       clipPathUnits="userSpaceOnUse"
       id="clipPath16">
      <path
         d="M 0,841.89 H 595.276 V 0 H 0 Z"
         transform="translate(-116.524,-76.490627)"
         id="path16" />
    </clipPath>
    <clipPath
       clipPathUnits="userSpaceOnUse"
       id="clipPath18">
      <path
         d="M 0,841.89 H 595.276 V 0 H 0 Z"
         transform="translate(-121.43001,-180.369)"
         id="path18" />
    </clipPath>
    <clipPath
       clipPathUnits="userSpaceOnUse"
       id="clipPath20">
      <path
         d="M 0,841.89 H 595.276 V 0 H 0 Z"
         transform="translate(-111.618,-180.369)"
         id="path20" />
    </clipPath>
    <clipPath
       clipPathUnits="userSpaceOnUse"
       id="clipPath210">
      <path
         d="M 0,841.89 H 595.276 V 0 H 0 Z"
         transform="translate(-354.32201,-195.088)"
         id="path210" />
    </clipPath>
    <clipPath
       clipPathUnits="userSpaceOnUse"
       id="clipPath212">
      <path
         d="M 0,841.89 H 595.276 V 0 H 0 Z"
         transform="translate(-407.66601,-225.718)"
         id="path212" />
    </clipPath>
    <clipPath
       clipPathUnits="userSpaceOnUse"
       id="clipPath214">
      <path
         d="M 0,841.89 H 595.276 V 0 H 0 Z"
         transform="translate(-408.00501,-164.38701)"
         id="path214" />
    </clipPath>
  </defs>
  <g
     inkscape:label="Layer 1"
     inkscape:groupmode="layer"
     id="layer1"
     transform="translate(-147.6375,-122.2375)">
    <g
       id="g2">
      <path
         id="path13"
         d="m 0,0 c 39.138,0 70.866,-31.729 70.866,-70.866 0,-39.138 -31.728,-70.866 -70.866,-70.866 -39.138,0 -70.866,31.728 -70.866,70.866 C -70.866,-31.729 -39.138,0 0,0"
         style="fill:#ffffff;fill-opacity:1;fill-rule:nonzero;stroke:#231f20;stroke-width:0.222;stroke-linecap:butt;stroke-linejoin:miter;stroke-miterlimit:4;stroke-dasharray:none;stroke-opacity:1"
         transform="matrix(0.35277776,0,0,-0.35277776,172.67661,122.27666)"
         clip-path="url(#clipPath14)" />
      <path
         id="path15"
         d="m 0,0 c -8.931,0 -17.593,1.749 -25.744,5.196 -7.875,3.331 -14.949,8.102 -21.026,14.177 -6.075,6.076 -10.845,13.15 -14.176,21.025 -3.448,8.152 -5.196,16.813 -5.196,25.745 0,8.93 1.748,17.591 5.196,25.744 3.331,7.875 8.101,14.948 14.176,21.024 6.077,6.076 13.151,10.847 21.026,14.178 8.151,3.447 16.813,5.195 25.744,5.195 8.931,0 17.593,-1.748 25.743,-5.195 7.876,-3.331 14.95,-8.102 21.027,-14.178 6.075,-6.076 10.844,-13.149 14.176,-21.024 3.448,-8.153 5.196,-16.814 5.196,-25.744 0,-8.932 -1.748,-17.593 -5.196,-25.745 C 57.614,32.523 52.845,25.449 46.77,19.373 40.693,13.298 33.619,8.527 25.743,5.196 17.593,1.749 8.931,0 0,0"
         style="fill:#4467a5;fill-opacity:1;fill-rule:nonzero;stroke:none"
         transform="matrix(0.35277776,0,0,-0.35277776,172.67661,170.61003)"
         clip-path="url(#clipPath16)" />
      <g
         id="g1"
         transform="translate(3.9009806,-2.073729)">
        <path
           id="path209"
           d="m 0,0 c 0,11.613 5.565,21.926 14.172,28.421 l 1.687,-5.274 10.104,11.12 8.132,8.948 -17.744,3.856 -8.753,1.904 1.736,-5.428 C 5.821,41.429 2.577,38.889 -0.361,35.95 -5.026,31.286 -8.689,25.851 -11.251,19.794 -13.906,13.517 -15.253,6.856 -15.253,0 c 0,-5.164 0.934,-9.792 1.65,-12.895 L 1.258,-9.314 C 0.505,-6.736 0,-3.278 0,0"
           style="fill:#ffffff;fill-opacity:1;fill-rule:nonzero;stroke:none"
           transform="matrix(0.35277776,0,0,-0.35277776,156.19342,149.03979)"
           clip-path="url(#clipPath210)" />
        <path
           id="path211"
           d="m 0,0 c 10.126,-5.687 16.391,-15.59 17.839,-26.275 l -5.424,1.112 4.746,-14.255 3.819,-11.473 12.053,13.581 5.946,6.701 -5.582,1.144 c -0.127,4.1 -0.753,8.173 -1.876,12.173 -1.782,6.352 -4.727,12.208 -8.753,17.407 -4.173,5.39 -9.32,9.825 -15.298,13.183 -4.502,2.529 -8.994,3.981 -12.05,4.876 L -8.736,3.465 C -6.12,2.858 -2.858,1.605 0,0"
           style="fill:#ffffff;fill-opacity:1;fill-rule:nonzero;stroke:none"
           transform="matrix(0.35277776,0,0,-0.35277776,175.01199,138.2342)"
           clip-path="url(#clipPath212)" />
        <path
           id="path213"
           d="m 0,0 c -9.995,-5.915 -21.703,-6.379 -31.677,-2.279 l 3.679,4.137 -14.715,3.033 -11.842,2.44 5.718,-17.234 2.82,-8.502 3.787,4.258 c 3.612,-1.944 7.451,-3.442 11.475,-4.474 6.39,-1.639 12.934,-2.024 19.45,-1.144 6.755,0.913 13.172,3.147 19.073,6.639 4.444,2.63 7.951,5.79 10.256,7.987 L 7.374,5.826 C 5.539,3.865 2.821,1.669 0,0"
           style="fill:#ffffff;fill-opacity:1;fill-rule:nonzero;stroke:none"
           transform="matrix(0.35277776,0,0,-0.35277776,175.13159,159.87042)"
           clip-path="url(#clipPath214)" />
      </g>
      <g
         id="g73"
         style="clip-rule:evenodd;fill-rule:evenodd;image-rendering:optimizeQuality;shape-rendering:geometricPrecision;text-rendering:geometricPrecision"
         transform="matrix(0.03108413,0,0,0.03012994,147.71891,174.62816)">
        <g
           id="g3">
          <path
             style="opacity:1"
             fill="#090909"
             d="m 1576.5,24.5 c 6.57,7.1351 11.07,15.4684 13.5,25 0.67,80.667 0.67,161.333 0,242 -5.06,20.398 -17.9,32.565 -38.5,36.5 -500.33,0.5 -1000.667,0.667 -1501,0.5 -11.7419,-2.362 -21.4086,-8.029 -29,-17 -5.3492,-6.707 -8.5158,-14.373 -9.5,-23 -0.6667,-80.333 -0.6667,-160.667 0,-241 1.7762,-3.0969 2.9429,-6.4302 3.5,-10 1.8264,-1.6475 3.1597,-3.6475 4,-6 7.7741,-9.5751 17.7741,-15.7417 30,-18.5 500.333,-0.6667 1000.67,-0.6667 1501,0 9.81,1.4077 18.48,5.2411 26,11.5 z"
             id="path3" />
        </g>
        <g
           id="g4">
          <path
             style="opacity:1"
             fill="#fefefe"
             d="m 49.5,26.5 c 500.667,-0.1667 1001.33,0 1502,0.5 15.44,4.4315 23.94,14.5982 25.5,30.5 0.98,77.693 0.65,155.36 -1,233 -3.93,12.264 -12.1,20.097 -24.5,23.5 -500.33,0.667 -1000.667,0.667 -1501,0 C 37.2315,310.398 29.0649,301.898 26,288.5 25.3333,209.167 25.3333,129.833 26,50.5 30.0179,38.6498 37.8512,30.6498 49.5,26.5 Z"
             id="path4" />
        </g>
        <g
           id="g40">
          <path
             style="opacity:1"
             fill="#fcfcfc"
             d="m 1135.5,127.5 c 8.67,-0.166 17.34,0 26,0.5 1.03,0.513 2.03,1.013 3,1.5 0.87,2.577 1.87,5.077 3,7.5 -0.58,2.137 -0.91,4.304 -1,6.5 -1.4,2.877 -3.74,4.544 -7,5 -8,0 -16,0 -24,0 0,-7 0,-14 0,-21 z"
             id="path40" />
        </g>
        <path
           style="font-size:133.333px;font-family:'Transport Heavy';-inkscape-font-specification:'Transport Heavy, Normal'"
           d="m 81.746661,118.33808 h 0.781248 5.20832 1.041664 0.781248 4.687491 3.3854 1.04167 4.427068 0.78125 3.12499 l 1.04166,1.5625 0.52084,0.78124 0.52083,0.78125 1.04166,1.5625 q 2.01823,2.34374 2.86458,4.16665 0.58593,0.65104 0.78125,1.30208 l 0.78124,1.04167 1.04167,1.04166 0.52083,1.04167 0.78125,1.30208 0.52083,0.52083 0.26042,0.78125 q 1.36718,1.30208 2.08332,2.60416 l 0.52084,1.04166 1.04166,1.04166 0.78125,1.30208 0.26041,0.78125 q 1.36719,1.43229 2.08333,2.60416 l 0.26042,0.52083 q 0.91145,1.17188 1.30208,2.08333 l 0.52083,0.52083 1.04166,1.82292 0.52084,0.26041 0.26041,0.78125 q 1.6276,1.88802 2.34375,3.38541 l 0.78124,-0.26042 0.26042,-0.78125 4.16666,-5.72915 0.78124,-1.30208 2.60416,-3.90624 q 1.49739,-1.75781 2.08333,-3.12499 l 0.78125,-1.04166 0.78125,-0.78125 0.78124,-1.5625 0.78125,-0.52083 0.52083,-1.04166 q 0.84636,-1.5625 1.82292,-2.34375 l 0.52083,-1.30208 q 1.04166,-1.43229 1.82291,-2.08333 l 0.26042,-0.78124 0.52083,-0.78125 0.52083,-0.52083 0.26042,-0.78125 q 0.91145,-0.84635 1.30208,-1.5625 l 0.52083,-0.78125 2.34374,-3.64582 h 0.78125 5.20832 3.38541 1.04166 4.68749 1.04166 1.04167 1.04166 4.42707 0.78125 3.12499 v 99.47891 h -4.42707 -1.04166 -1.30208 -3.38541 -1.04166 -4.42708 -0.78124 -3.125 q -1.56249,-0.26041 -1.04166,-1.82291 v -0.78125 -1.04166 -4.42707 -0.78125 -3.12499 -5.20832 -1.82292 -1.56249 -1.04167 -0.78124 -1.30208 -0.78125 -1.04167 -0.78124 -5.20832 -8.0729 -1.5625 -4.42707 -1.56249 -1.04167 -0.78125 -5.20832 -1.04166 -4.42707 -3.64583 -0.78124 -0.78125 -2.08333 q 0.13021,-2.40885 -0.26042,-4.16666 l -1.30208,1.5625 q -0.45572,0.91146 -1.04166,1.5625 -1.36718,2.40884 -2.60416,3.90624 l -1.04166,1.56249 -1.04167,1.5625 -1.04166,1.56249 -3.12499,4.42708 -2.34375,3.64582 -0.78125,1.04166 q -1.30208,1.88802 -2.34374,2.86458 l -0.52083,1.04166 q -1.69271,2.79948 -3.12499,4.42708 l -0.52084,1.04166 -0.78124,0.78125 -0.26042,0.78125 q -1.30208,1.88801 -2.34374,2.86457 -0.84635,1.82291 -1.5625,2.86458 -2.47395,3.51561 -4.16665,5.20832 -1.04167,-1.69271 -1.82292,-2.60416 l -0.26041,-0.78125 -0.78125,-0.78125 -0.52083,-0.78125 -0.26042,-0.78124 -0.78125,-1.04167 -1.04166,-1.56249 q -0.45573,-0.26042 -0.52083,-0.52084 -0.91146,-1.43228 -1.82291,-2.34374 l -0.78125,-1.5625 -1.04167,-1.56249 q -0.32552,-0.26042 -0.26041,-0.52083 -1.36719,-1.30208 -2.08333,-2.60416 -1.82291,-2.47396 -2.60416,-4.16666 l -1.04166,-1.30208 -0.78125,-1.04166 -0.52083,-1.04167 q -1.36719,-1.36718 -2.08333,-2.86457 l -0.78125,-0.78125 -1.30208,-2.34375 -0.78125,-0.78124 q -1.04166,-1.69271 -1.82291,-2.60416 l -0.26042,-0.78125 -0.78124,-0.78125 -0.26042,-0.78125 q -0.39062,-0.32552 -0.52083,-0.78125 -0.45573,-0.26041 -0.52083,-0.52083 -0.32552,-0.26041 -0.26042,-0.52083 l -3.38541,-4.42707 v 71.35398 h -0.26041 0.26041 -0.52083 0.26042 -0.52084 0.26042 -0.520828 0.260408 -0.520828 0.26042 -0.52083 0.26041 -0.52083 0.26042 -0.52084 0.26042 -0.52083 0.26041 -0.52083 0.26042 -0.52083 0.26041 -0.52083 0.26042 -0.52084 0.26042 -0.52083 0.26041 -0.52083 0.26042 -0.52083 0.26041 -0.52083 0.26042 -0.52084 0.26042 -0.52083 0.26041 -0.52083 0.26042 -0.52083 0.26041 -0.52083 0.26042 -0.52084 0.26042 -0.52083 0.26041 -0.52083 0.26042 -0.52083 0.26041 -0.52083 0.26042 -0.52084 0.26042 -0.52083 0.26041 -0.52083 0.26042 -0.52083 0.26041 -0.52083 0.26042 -0.52084 0.26042 -0.52083 0.26041 -0.52083 0.26042 -0.52083 0.26041 -0.52083 0.26042 -0.52084 0.26042 -0.52083 0.26041 -0.520827 0.260417 -0.520833 0.260416 -0.520832 0.260416 -0.520832 0.260416 -0.520832 0.260416 -0.520832 0.260416 -0.520832 0.260416 -0.520832 0.260416 -0.520832 0.260416 -0.520832 0.260416 -0.520832 0.260416 -0.520832 0.260416 -0.520832 0.260416 -0.520832 0.260416 -0.520832 0.260416 -0.520832 0.260416 -0.520832 0.260416 -0.520832 0.260416 -0.520832 0.260416 -0.520832 0.260416 -0.520832 0.260416 -0.520832 0.260416 -0.520832 0.260416 -0.520832 0.260416 -0.520832 0.260416 -0.520832 0.260416 -0.520832 0.260416 -0.520832 0.260416 -0.520832 0.260416 -0.520832 0.260416 -0.520832 0.260416 -0.520832 0.260416 -0.520832 0.260416 -0.520832 0.260416 -0.520832 0.260416 -0.520832 0.260416 -0.520832 0.260416 -0.520832 0.260416 -0.520832 0.260416 -0.260416 v -0.78125 -1.04166 -0.78125 -1.04166 -4.68749 -2.08333 -2.08333 -0.78124 -5.20832 -1.04167 -1.30208 -1.04166 -1.30208 -3.38541 -1.04166 -4.42708 -0.78124 -3.125 -1.04166 -1.30208 -3.38541 -1.04166 -4.42707 -0.78125 -3.12499 -1.82292 -2.08332 -2.08333 -2.08333 -0.78125 -0.78125 -8.07289 -1.82291 -1.5625 -1.82291 -1.5625 -1.30208 -1.56249 -1.04167 -4.68749 -2.86457 -1.04167 -1.04166 -1.04166 -1.04167 -4.42707 -0.78125 -3.12499 z m 133.853819,0.26042 h 1.04166 4.68749 1.04166 1.04167 1.04166 4.42707 0.78125 3.12499 v 99.47891 h -3.38541 -1.04166 -4.68749 -1.04166 -1.04167 -1.04166 -4.42707 -0.78125 -3.12499 v -0.78125 -1.04166 -0.78125 -1.04167 -4.68748 -2.08333 -2.08333 -0.78125 -5.20832 -1.04166 -1.30208 -1.04167 -1.30208 -3.3854 -1.04167 -4.42707 -0.78125 -3.12499 -1.04166 -1.30208 -3.38541 -1.04167 -4.42707 -0.78125 -3.12499 -1.82291 -2.08333 -2.08333 -2.08332 -0.78125 -0.78125 -8.0729 -1.82291 -1.56249 -1.82292 -1.56249 -1.30208 -1.5625 -1.04166 -4.68749 -2.86458 -1.04166 -1.04166 -1.04167 -1.04166 -4.42707 -0.78125 -3.12499 z m 49.21862,-0.52084 h 3.64583 1.30208 1.04166 4.68749 1.04166 1.04167 1.04166 4.42707 0.78125 3.12499 l 1.04167,1.82292 1.04166,1.56249 1.04167,1.5625 1.04166,1.56249 1.04166,1.5625 0.78125,0.78125 0.26042,0.78125 q 0.32552,0.26041 0.26041,0.52083 1.88802,2.01822 2.60416,3.90624 1.88802,2.01822 2.60416,3.90624 l 1.04167,1.30208 1.04166,1.56249 q 0.71615,1.17188 1.30208,1.82292 l 0.26042,0.78124 q 0.97656,1.04167 1.30208,2.08333 2.60416,2.92968 3.64582,5.46874 l 1.04167,1.56249 q 0.32552,0.26042 0.26041,0.52084 1.95312,2.21353 2.86458,3.90624 l 1.04166,1.56249 0.78125,1.5625 1.04166,1.56249 1.04167,1.04167 0.78125,1.30208 0.52083,1.30208 q 1.6927,1.6927 2.34374,3.38541 l 0.78125,1.04166 0.52083,1.04166 0.78125,0.78125 q 1.23698,1.82291 1.82291,3.12499 l 0.78125,0.78125 0.52083,0.78125 0.26042,0.78125 0.52083,0.26041 q 0.84635,1.88802 1.82291,2.86458 l 0.26042,0.78125 q 0.32552,0.26041 0.26041,0.52083 2.40885,2.66926 3.38541,4.9479 l 0.26042,-1.82291 v -1.82291 -2.08333 -1.04166 -4.68749 -2.86458 -1.04166 -1.04166 -1.04167 -1.04166 -4.42707 -0.78125 -3.12499 -1.5625 -4.42707 -0.78125 -3.12499 -3.38541 -1.04166 -4.42708 -0.78124 -3.125 -2.86457 -1.30208 -3.38541 -1.04166 -4.42708 -0.78124 -3.125 h 3.38541 1.04166 4.68749 1.04166 1.04167 1.04166 4.42707 0.78125 3.12499 v 99.47892 h -0.78125 -3.12499 -2.60416 -1.82291 -1.5625 -1.30208 -1.04166 -1.04166 -1.04167 -0.78125 -0.78124 -0.78125 -0.52083 0.52083 -0.52083 -2.08333 -0.78125 -3.38541 l -0.26041,-0.52084 q -0.91146,-1.17187 -1.30208,-2.08332 -0.32552,-0.26042 -0.26042,-0.52084 -2.40885,-2.66926 -3.38541,-4.9479 -0.32552,-0.26042 -0.26041,-0.52083 l -1.04167,-1.5625 q -1.36718,-1.56249 -2.08333,-3.12499 l -1.30208,-1.5625 -1.04166,-1.82291 -1.04166,-1.82291 q -1.75781,-1.95312 -2.60416,-3.64582 l -0.52084,-0.52084 q -1.04166,-2.27864 -2.34374,-3.64582 l -0.26042,-0.52083 -0.52083,-0.78125 -2.34374,-3.64582 q -0.91146,-1.17188 -1.30208,-2.08333 -0.32552,-0.26042 -0.26042,-0.52083 l -0.52083,-0.26042 -1.04166,-1.82291 -0.26042,-0.52083 q -0.91146,-1.17188 -1.30208,-2.08333 -0.58594,-0.65104 -0.78125,-1.30208 l -1.04166,-1.04167 -1.04167,-1.56249 -0.52083,-1.30208 -0.52083,-0.26042 -1.04166,-1.82291 -2.34375,-3.38541 -0.52083,-1.04166 -0.52083,-1.04167 -0.78125,-0.78124 -0.52083,-0.78125 -0.26042,-0.78125 q -1.30208,-1.43229 -2.08333,-2.60416 l -0.52083,-1.04166 q -1.10677,-1.4974 -1.56249,-2.60416 -0.45573,-0.26042 -0.52084,-0.52084 l -0.52083,-0.52083 -0.26041,-0.52083 -1.04167,-1.82291 -2.34374,-3.38541 v 66.6665 h -3.38541 -1.04166 -4.68749 -1.04167 -1.04166 -1.04166 -4.42708 -0.78124 -3.125 v -0.78125 -1.04167 -0.78124 -1.04167 -4.68749 -2.08332 -2.08333 -0.78125 -5.20832 -1.04166 -1.30208 -1.04167 -1.30208 -3.38541 -1.04166 -4.42707 -0.78125 -3.12499 -1.04167 -1.30208 -3.3854 -1.04167 -4.42707 -0.78125 -3.12499 -1.82291 -2.08333 -2.08333 -2.08333 -0.78124 -0.78125 -8.0729 -1.82291 -1.5625 -1.82291 -1.56249 -1.30208 -1.5625 -1.04166 -4.68749 -2.86458 -1.04166 -1.04167 -1.04166 -1.04166 -4.42708 -0.78124 -3.125 z m 120.83303,0.52084 h 1.04166 4.68749 1.04166 1.04167 1.04166 4.42707 0.78125 3.12499 v 99.47891 h -3.3854 -1.04167 -4.68749 -1.04166 -1.04166 -1.04167 -4.42707 -0.78125 -3.12499 v -0.78125 -1.04166 -0.78125 -1.04167 -4.68748 -2.08333 -2.08333 -0.78125 -5.20832 -1.04166 -1.30208 -1.04167 -1.30208 -3.3854 -1.04167 -4.42707 -0.78125 -3.12499 -1.04166 -1.30208 -3.38541 -1.04167 -4.42707 -0.78125 -3.12499 -1.82291 -2.08333 -2.08333 -2.08332 -0.78125 -0.78125 -8.0729 -1.82291 -1.56249 -1.82292 -1.56249 -1.30208 -1.5625 -1.04166 -4.68749 -2.86458 -1.04166 -1.04166 -1.04167 -1.04166 -4.42707 -0.78125 -3.12499 z m 89.06227,-0.52084 h 2.08332 5.20832 0.78125 0.78125 8.0729 1.82291 0.78125 3.3854 4.42708 1.04166 1.04166 4.68749 3.64583 0.78124 0.78125 0.78125 1.82291 1.04167 0.78124 0.78125 q 1.88802,0.32552 3.125,0.26042 l 3.12499,0.52083 0.52083,0.26042 h 0.78125 l 0.52083,0.26041 3.90624,1.30208 q 11.97914,6.31509 15.88538,17.44788 7.68227,27.47388 -17.96871,39.32281 l 0.52083,0.26042 q 1.23698,2.53905 2.34375,4.16665 l 0.78125,1.5625 q 0.52083,0.84635 0.78124,1.5625 l 1.04167,1.56249 q 1.56249,2.34375 2.34374,4.16666 1.5625,1.95312 2.08333,3.64582 1.6276,2.08333 2.34374,3.64583 0.91146,1.49739 1.30208,2.60416 l 0.52084,0.78124 0.52083,1.04167 0.78125,0.78125 1.82291,3.3854 q 0.84635,1.36719 1.30208,2.34375 l 0.52083,0.78125 0.26042,0.52083 0.52083,0.52083 0.26041,0.78125 q 2.40885,3.58072 3.38541,6.24998 h -1.82291 -3.64582 -0.78125 -4.68749 -3.38541 -1.04166 -4.42707 -0.78125 -3.12499 l -0.26042,-0.52083 -0.52083,-0.52083 -0.26042,-0.52083 -1.82291,-3.125 -0.26042,-0.78124 q -1.23697,-1.4974 -1.56249,-2.86458 -1.5625,-1.6276 -2.08333,-3.38541 -1.5625,-1.95312 -2.08333,-3.64582 l -0.78125,-1.04167 -0.78125,-1.56249 -0.52083,-1.04167 q -1.6276,-1.95312 -2.34374,-3.3854 -0.91146,-2.01823 -1.82291,-3.38541 l -0.26042,-0.78125 q -1.49739,-1.6276 -2.08333,-3.38541 l -0.52083,-0.78125 -0.26042,-0.78124 -0.52083,-0.26042 -0.78125,-1.82291 q -0.32552,-0.26042 -0.26041,-0.52083 -1.95312,-2.53906 -2.86458,-4.68749 h -1.04166 -2.86458 -1.30208 -0.78125 -1.04166 -0.78125 -5.20832 v 38.80198 h -3.38541 -1.04166 -4.68749 -1.04166 -1.04167 -1.04166 -4.42707 -0.78125 -3.12499 v -1.04166 -4.68749 -2.08333 -2.08333 -0.78124 -1.04167 -4.68749 -0.78124 -5.20832 -2.08333 -1.04167 -4.68748 -0.78125 -0.78125 -8.0729 -1.82291 -0.78125 -1.04166 -4.68749 -3.64582 -0.78125 -1.30208 -0.78125 -1.04166 -0.78125 -5.20832 -4.42707 -0.78125 -3.12499 -3.38541 -1.04166 -4.42708 -0.78124 -3.125 -2.86457 -1.30208 -3.38541 -1.04166 -4.42708 -0.78124 -3.125 z m 18.48953,42.1874 h 1.30208 1.82291 3.64583 0.78125 4.68748 3.38541 1.04167 4.42707 0.78125 3.12499 l 3.12499,-0.78125 q 7.74738,-4.8177 6.77082,-13.0208 -1.88802,-5.85936 -6.77082,-8.59373 h -0.78125 l -0.52083,-0.26042 -3.38541,-0.78124 h -1.30208 -3.64582 -1.30208 -1.04167 -4.68748 -1.04167 -1.04166 -1.04167 -4.42707 -0.78125 -3.12499 z M 621.1984,115.73392 q 44.20562,0.32552 50.5207,45.31238 2.79948,40.36448 -28.38534,55.2082 -30.14315,10.93747 -51.30195,-8.59373 -22.52599,-25.39056 -12.49997,-58.33319 10.93747,-31.31502 41.66656,-33.59366 z m 0.52083,19.79162 q -24.99993,4.75259 -22.91661,36.45824 0.97656,18.74995 15.36455,26.56243 h 0.78125 q 1.23697,0.71614 2.34374,0.78125 l 0.52083,0.26041 3.12499,0.78125 q 27.47389,-0.26042 28.64576,-28.12493 2.40885,-35.8072 -27.86451,-36.71865 z m 70.37742,-16.66663 h 1.30208 1.04166 4.42707 2.86458 1.04166 4.42707 2.08333 1.82291 l 0.26042,62.76026 1.5625,5.72915 q 6.5755,11.52341 18.48953,12.23955 12.82549,-0.97656 18.74995,-11.19789 v -0.78124 q 1.95312,-3.97135 2.08333,-7.81248 0.39063,-2.99479 0.26042,-5.20832 v -2.08333 -2.08333 -3.64582 -0.78125 -1.30208 -0.78125 -1.04166 -0.78125 -5.20832 -4.42707 -0.78125 -3.12499 -3.38541 -1.04167 -4.42707 -0.78125 -3.12499 -2.86457 -1.30208 -3.38541 -1.04167 -4.42707 -0.78125 -3.12499 h 1.04166 1.04167 0.78124 4.68749 3.38541 1.04166 4.42708 0.78124 3.125 v 64.06234 q -0.26042,1.23697 -0.26042,2.08333 l -0.26042,0.52083 q -0.32552,3.45051 -1.04166,5.72915 -5.98957,16.3411 -19.5312,23.69786 -16.66662,8.72393 -32.81242,3.12499 -32.48689,-12.36976 -28.38534,-52.0832 v -3.64583 -2.86457 -1.30208 -0.78125 -1.04166 -0.78125 -5.20832 -1.5625 -1.82291 -1.5625 -1.82291 -3.38541 -8.07289 -3.64583 -0.78124 -1.30208 -0.78125 -1.04167 -0.78124 -5.20832 z m 108.65855,-0.78125 h 3.64582 1.30208 1.04167 4.68749 1.04166 1.04166 1.04167 4.42707 0.78125 3.12499 l 1.04166,1.82292 1.04167,1.56249 1.04166,1.5625 1.04167,1.56249 1.04166,1.5625 0.78125,0.78125 0.26041,0.78125 q 0.32552,0.26041 0.26042,0.52083 1.88802,2.01822 2.60416,3.90624 1.88802,2.01822 2.60416,3.90624 l 1.04166,1.30208 1.04167,1.56249 q 0.71614,1.17188 1.30208,1.82292 l 0.26041,0.78124 q 0.97656,1.04167 1.30208,2.08333 2.60416,2.92968 3.64583,5.46874 l 1.04166,1.56249 q 0.32552,0.26042 0.26042,0.52084 1.95312,2.21353 2.86458,3.90624 l 1.04166,1.56249 0.78125,1.5625 1.04166,1.56249 1.04167,1.04167 0.78124,1.30208 0.52084,1.30208 q 1.6927,1.6927 2.34374,3.38541 l 0.78125,1.04166 0.52083,1.04166 0.78125,0.78125 q 1.23697,1.82291 1.82291,3.12499 l 0.78125,0.78125 0.52083,0.78125 0.26042,0.78125 0.52083,0.26041 q 0.84635,1.88802 1.82291,2.86458 l 0.26042,0.78125 q 0.32552,0.26041 0.26041,0.52083 2.40885,2.66926 3.38541,4.9479 l 0.26042,-1.82291 v -1.82291 -2.08333 -1.04166 -4.68749 -2.86458 -1.04166 -1.04166 -1.04167 -1.04166 -4.42707 -0.78125 -3.12499 -1.5625 -4.42707 -0.78125 -3.12499 -3.38541 -1.04166 -4.42708 -0.78124 -3.125 -2.86457 -1.30208 -3.38541 -1.04166 -4.42708 -0.78124 -3.125 h 3.3854 1.04167 4.68749 1.04166 1.04166 1.04167 4.42707 0.78125 3.12499 v 99.47892 h -0.78125 -3.12499 -2.60416 -1.82291 -1.5625 -1.30208 -1.04166 -1.04167 -1.04166 -0.78125 -0.78125 -0.78124 -0.52084 0.52084 -0.52084 -2.08332 -0.78125 -3.38541 l -0.26042,-0.52084 q -0.91145,-1.17187 -1.30208,-2.08332 -0.32552,-0.26042 -0.26041,-0.52084 -2.40885,-2.66926 -3.38541,-4.9479 -0.32552,-0.26042 -0.26042,-0.52083 l -1.04166,-1.5625 q -1.36718,-1.56249 -2.08333,-3.12499 l -1.30208,-1.5625 -1.04166,-1.82291 -1.04167,-1.82291 q -1.7578,-1.95312 -2.60416,-3.64582 l -0.52083,-0.52084 q -1.04166,-2.27864 -2.34374,-3.64582 l -0.26042,-0.52083 -0.52083,-0.78125 -2.34375,-3.64582 q -0.91145,-1.17188 -1.30208,-2.08333 -0.32552,-0.26042 -0.26041,-0.52083 l -0.52083,-0.26042 -1.04167,-1.82291 -0.26041,-0.52083 q -0.91146,-1.17188 -1.30208,-2.08333 -0.58594,-0.65104 -0.78125,-1.30208 l -1.04167,-1.04167 -1.04166,-1.56249 -0.52083,-1.30208 -0.52083,-0.26042 -1.04167,-1.82291 -2.34374,-3.38541 -0.52083,-1.04166 -0.52084,-1.04167 -0.78124,-0.78124 -0.52084,-0.78125 -0.26041,-0.78125 q -1.30208,-1.43229 -2.08333,-2.60416 l -0.52083,-1.04166 q -1.10677,-1.4974 -1.5625,-2.60416 -0.45573,-0.26042 -0.52083,-0.52084 l -0.52083,-0.52083 -0.26042,-0.52083 -1.04166,-1.82291 -2.34375,-3.38541 v 66.6665 h -3.3854 -1.04167 -4.68749 -1.04166 -1.04166 -1.04167 -4.42707 -0.78125 -3.12499 v -0.78125 -1.04167 -0.78124 -1.04167 -4.68749 -2.08332 -2.08333 -0.78125 -5.20832 -1.04166 -1.30208 -1.04167 -1.30208 -3.38541 -1.04166 -4.42707 -0.78125 -3.12499 -1.04167 -1.30208 -3.3854 -1.04167 -4.42707 -0.78125 -3.12499 -1.82291 -2.08333 -2.08333 -2.08333 -0.78124 -0.78125 -8.0729 -1.82291 -1.5625 -1.82291 -1.56249 -1.30208 -1.5625 -1.04166 -4.68749 -2.86458 -1.04166 -1.04167 -1.04166 -1.04166 -4.42708 -0.78124 -3.125 z m 119.01017,0.26042 h 1.30208 1.04167 1.30208 1.04166 1.30208 3.38541 1.04166 4.42707 0.78125 3.12499 1.04167 1.04166 3.38541 1.04166 1.04167 2.60416 2.86457 0.78125 2.86458 2.08333 1.30208 l 0.78124,0.26042 h 1.04167 1.04166 l 0.52083,0.26041 4.16666,0.52083 q 39.64838,13.08591 34.37488,57.55194 -7.9427,46.09363 -61.97898,41.14573 h -1.04166 -1.30208 -1.04166 -1.30208 -1.04167 -1.30208 -3.38541 -1.04166 -4.42707 -0.78125 -3.12499 v -1.04167 -4.68748 -2.08333 -2.08333 -0.78125 -1.04166 -4.68749 -0.78125 -5.20832 -2.08333 -1.04166 -4.68749 -0.78125 -0.78124 -8.0729 -1.82291 -0.78125 -1.04166 -4.68749 -3.64583 -0.78124 -1.30208 -0.78125 -1.04167 -0.78124 -5.20832 -4.42708 -0.78124 -3.125 -3.3854 -1.04167 -4.42707 -0.78125 -3.12499 -2.86458 -1.30208 -3.3854 -1.04167 -4.42707 -0.78125 -3.12499 z m 19.27079,79.42688 h 3.64582 0.78125 2.08333 0.78124 0.78125 3.38541 1.04166 0.78125 5.20832 l 1.82291,-0.26042 q 2.40885,-0.26041 4.16666,-1.04166 l 1.5625,-0.26042 q 17.18745,-9.57028 15.36454,-29.94784 -2.53906,-30.20825 -31.77075,-27.60409 h -0.78125 -0.78125 -8.07289 z m 108.33294,-79.42688 h 3.3854 8.0729 3.6459 0.7812 1.3021 0.7812 1.0417 0.7813 5.2083 v 0.78125 q 1.1067,2.34374 1.5625,4.16665 l 0.5208,1.82292 0.2604,1.04166 q 0.2604,0.39062 0.2604,0.78125 0.2605,0.39062 0.2605,0.78125 0.2604,0.39062 0.2604,0.78124 0.651,1.04167 0.7812,2.08333 l 1.5625,4.16666 v 0.78125 q 1.237,2.40884 1.5625,4.42707 1.237,2.86457 1.5625,4.9479 0.3906,0.78125 0.5208,1.5625 l 0.5209,1.04166 q 0.3906,1.30208 0.7812,2.08333 v 0.78125 q 0.2604,0.39062 0.2604,0.78125 0.6511,1.04166 0.7813,2.08332 l 1.5625,4.16666 0.2604,1.04166 0.2604,0.52084 0.5208,2.34374 0.5209,1.04166 0.5208,1.30208 0.2604,0.78125 0.2604,1.04167 0.5209,1.56249 q 0.3906,1.30208 0.7812,2.08333 v 0.78125 q 0.2604,0.39062 0.2604,0.78125 0.6511,1.04166 0.7813,2.08332 l 1.5625,4.16666 0.2604,1.5625 0.7812,1.56249 0.5209,1.5625 v 0.78125 l 0.5208,0.78124 0.2604,1.04167 0.2604,1.30208 q 2.0183,4.62238 2.6042,7.81248 0.2604,0.39062 0.2604,0.78125 2.0182,4.62238 2.6042,7.81248 l 0.5208,0.78124 0.2604,1.04167 0.2604,1.04166 0.2605,0.78125 0.2604,1.04166 q 0.2604,0.39063 0.2604,0.78125 0.2604,0.39063 0.2604,0.78125 0.2604,0.39062 0.2604,0.78125 l 0.5208,0.78125 v 0.78124 q 0.2605,0.39063 0.2605,0.78125 0.651,1.04167 0.7812,2.08333 0.8464,1.95312 1.0417,3.12499 l 0.5208,1.5625 h -1.5625 -1.0417 -4.6874 -2.8646 -1.0417 -1.0416 -1.0417 -1.0417 -4.427 -0.7813 -3.125 l -0.5208,-1.5625 v -1.04166 l -0.5208,-0.78125 v -0.78125 q -0.7813,-1.43229 -0.7813,-2.60416 l -0.5208,-0.78125 v -0.78124 l -0.2604,-1.04167 -0.7813,-1.82291 -1.8229,-6.5104 h -4.6875 -5.2083 -1.8229 -1.5625 -1.3021 -1.5625 -1.0417 -4.6874 -2.8646 -1.0417 -1.0417 -1.0416 -1.0417 -4.4271 -0.7812 -3.125 l -0.2604,1.30208 -0.2604,1.30208 -0.5209,1.04166 q -0.3255,1.43229 -0.7812,2.60416 l -0.2604,1.30208 -0.2604,0.52084 -0.7813,2.60416 -0.2604,1.04166 -0.2604,0.78125 q -0.4557,1.36718 -0.7812,2.08333 l -0.7813,3.12499 h -1.0417 -1.0416 -0.7813 -5.2083 -0.7812 -4.6875 -0.7813 -8.0729 l 0.5209,-2.08333 0.7812,-2.60416 0.2604,-0.78125 0.2604,-0.78125 0.2605,-0.78124 0.2604,-0.52084 1.3021,-4.16665 0.2604,-0.78125 0.2604,-0.78125 0.2604,-1.04166 0.5208,-1.04167 0.7813,-2.86457 0.2604,-0.78125 0.2604,-0.78125 0.2604,-0.78125 0.2605,-0.52083 q 0.7812,-2.99478 1.5624,-4.68749 l 0.5209,-1.82291 0.2604,-0.52083 q 0.7812,-2.99478 1.5625,-4.68749 0.3255,-1.30208 0.7812,-2.08333 l 0.5209,-2.08332 0.7812,-1.82292 0.5209,-2.08332 0.2604,-0.52084 q 0.7812,-2.99478 1.5625,-4.68748 l 0.5208,-2.08333 2.0833,-5.72915 0.5209,-1.82292 0.2604,-0.78124 0.2604,-0.78125 q 0.7812,-2.47395 1.5625,-4.16666 l 0.5208,-1.56249 0.2604,-0.78125 v -0.78125 l 0.2604,-0.78125 1.823,-4.68749 0.2604,-1.56249 0.5208,-1.30208 0.5208,-1.04167 q 0.5209,-2.47395 1.3021,-4.16665 l 0.2604,-1.30208 0.2605,-0.78125 0.2603,-0.52083 q 0.7813,-2.99479 1.5625,-4.68749 l 0.2605,-1.04166 0.2604,-1.04167 q 0.7161,-1.49739 1.0416,-2.86457 l 0.7813,-2.60416 0.2604,-0.78125 2.0833,-5.98957 z m 11.1979,22.91661 -0.7812,2.86457 -0.2604,0.52084 -1.3021,4.68748 -1.5625,4.42708 -0.2604,0.52083 -1.5625,5.72915 -0.2604,1.04166 -1.5625,4.42708 -0.5209,1.30208 q -0.2604,2.08332 -1.0416,3.64582 -0.1953,1.49739 -0.7813,2.86458 l -0.2604,1.04166 q -0.5208,1.5625 -1.0417,2.60416 l -1.5625,5.72915 h 0.7813 1.0417 1.0416 1.0417 1.0416 4.4271 0.7813 3.125 1.0416 2.8646 1.3021 0.7812 1.0417 0.7812 5.2084 l -0.5209,-2.08333 -1.5625,-4.9479 -1.302,-4.42707 q -0.9766,-2.47395 -1.3021,-4.16666 l -0.2604,-0.52083 q -0.5209,-1.88802 -1.0417,-3.12499 l -0.2604,-1.04167 -0.2604,-1.04166 -0.5209,-1.30208 -0.2604,-1.5625 -0.2604,-1.04166 -0.5208,-0.78125 -0.2605,-1.56249 -0.2604,-1.04167 q -0.3906,-0.78125 -0.5208,-1.56249 l -0.2604,-1.04167 q -0.9766,-1.95312 -1.3021,-3.64582 l -0.2604,-0.78125 -0.2604,-0.52083 -0.5209,-2.34375 -0.2604,-0.78124 -1.3021,-3.38541 z m 69.8566,-22.91661 h 0.7812 1.3021 0.7813 1.0416 0.7813 5.2083 1.8229 5.2083 1.8229 1.5625 1.3021 1.5625 1.0417 4.6875 2.8645 1.0417 1.0417 1.0416 1.0417 4.4271 2.0833 1.8229 l 0.7813,0.26042 h 0.7812 l 2.0833,0.26041 4.1667,1.04167 q 11.1328,4.8828 15.8854,14.58329 7.8124,18.48954 -7.5521,29.42701 11.0677,5.20832 13.5416,15.88538 4.4271,26.1718 -17.9687,35.9374 h -0.7812 q -3.0599,1.43229 -5.7292,1.5625 l -1.8229,0.52083 h -0.7812 l -6.5104,0.26042 h -1.8229 -1.823 -0.7812 -0.7812 -8.0729 -1.823 -1.5625 -1.8229 -1.5625 -1.302 -1.5625 -1.0417 -4.6875 -2.8646 -1.0416 -1.0417 -1.0417 -1.0416 -4.4271 -0.7812 -3.125 v -1.04167 -4.68748 -2.08333 -2.08333 -0.78125 -1.04166 -4.68749 -0.78125 -5.20832 -2.08333 -1.04166 -4.68749 -0.78125 -0.78124 -8.0729 -1.82291 -0.78125 -1.04166 -4.68749 -3.64583 -0.78124 -1.30208 -0.78125 -1.04167 -0.78124 -5.20832 -4.42708 -0.78124 -3.125 -3.3854 -1.04167 -4.42707 -0.78125 -3.12499 -2.86458 -1.30208 -3.3854 -1.04167 -4.42707 -0.78125 -3.12499 z m 16.6666,40.10406 h 1.5625 1.3021 3.3854 1.0417 4.6875 3.6458 2.0833 0.7813 0.7812 0.7812 0.7813 3.125 l 1.5625,-0.26041 q 8.5937,-4.36197 6.7708,-13.0208 -1.4974,-3.77603 -4.4271,-5.98957 -1.3672,-0.39062 -2.3437,-1.04166 l -1.0417,-0.26042 h -0.7812 -0.7813 q -1.237,-0.26042 -2.0833,-0.26042 h -1.3021 -4.4271 -1.0416 -1.3021 -3.3854 -1.0417 -4.427 -0.7813 -3.125 z m 0,40.10407 h 4.4271 1.3021 0.7812 0.7813 3.3854 2.6041 0.7813 0.7812 2.6042 4.4271 q 3.4505,0 5.7291,-0.52083 9.0495,-4.7526 7.8125,-14.06247 -1.9531,-6.38019 -7.2917,-9.11456 -2.0182,-0.32552 -3.3854,-0.78125 h -4.427 -1.0417 -1.0417 -0.7812 -4.6875 -3.3854 -1.0417 -4.427 -0.7813 -3.125 z m 126.6273,-82.81229 q 44.2056,0.32552 50.5207,45.31238 2.7995,40.36448 -28.3853,55.2082 -30.1432,10.93747 -51.302,-8.59373 -22.526,-25.39056 -12.4999,-58.33319 10.9374,-31.31502 41.6665,-33.59366 z m 0.5208,19.79162 q -24.9999,4.75259 -22.9166,36.45824 0.9766,18.74995 15.3646,26.56243 h 0.7812 q 1.237,0.71614 2.3438,0.78125 l 0.5208,0.26041 3.125,0.78125 q 27.4739,-0.26042 28.6458,-28.12493 2.4088,-35.8072 -27.8646,-36.71865 z m 70.3776,-16.66663 h 1.302 1.0417 4.4271 2.8645 1.0417 4.4271 2.0833 1.8229 l 0.2604,62.76026 1.5625,5.72915 q 6.5755,11.52341 18.4896,12.23955 12.8255,-0.97656 18.7499,-11.19789 v -0.78124 q 1.9531,-3.97135 2.0833,-7.81248 0.3907,-2.99479 0.2605,-5.20832 v -2.08333 -2.08333 -3.64582 -0.78125 -1.30208 -0.78125 -1.04166 -0.78125 -5.20832 -4.42707 -0.78125 -3.12499 -3.38541 -1.04167 -4.42707 -0.78125 -3.12499 -2.86457 -1.30208 -3.38541 -1.04167 -4.42707 -0.78125 -3.12499 h 1.0416 1.0417 0.7812 4.6875 3.3854 1.0417 4.4271 0.7812 3.125 v 64.06234 q -0.2604,1.23697 -0.2604,2.08333 l -0.2604,0.52083 q -0.3255,3.45051 -1.0417,5.72915 -5.9896,16.3411 -19.5312,23.69786 -16.6666,8.72393 -32.8124,3.12499 -32.4869,-12.36976 -28.3853,-52.0832 v -3.64583 -2.86457 -1.30208 -0.78125 -1.04166 -0.78125 -5.20832 -1.5625 -1.82291 -1.5625 -1.82291 -3.38541 -8.07289 -3.64583 -0.78124 -1.30208 -0.78125 -1.04167 -0.78124 -5.20832 z m 95.8981,-0.78125 h 1.0416 0.7813 1.0416 4.6875 1.0417 4.6875 1.5625 1.8229 5.2083 2.0833 2.0834 2.0833 2.0833 5.2083 0.7813 0.7812 8.0729 1.8229 1.5625 1.823 1.5624 1.3021 1.5625 1.0417 4.6875 2.8646 1.0416 1.0417 1.0416 1.0417 4.4271 0.7812 3.125 v 19.79162 h -1.5625 -0.7812 -5.2083 -3.3855 -1.0416 -4.6875 -1.0417 -1.0416 -1.0417 -4.4271 -0.7812 -3.125 v 79.94771 h -3.3854 -1.0417 -4.6875 -1.0416 -1.0417 -1.0417 -4.427 -0.7813 -3.125 v -1.82291 -0.78125 -1.30208 -0.78125 -1.04166 -0.78125 -5.20832 -1.04166 -4.68749 -1.5625 -1.82291 -5.20832 -2.08333 -2.08332 -2.08333 -2.08333 -5.20832 -0.78125 -0.78125 -8.07289 -1.82291 -1.5625 -1.82291 -1.5625 -1.30208 -1.56249 -1.04167 -4.68749 -2.86457 -1.04167 -1.04166 -1.04166 -1.04167 -4.42707 -0.78125 -3.12499 h -1.5625 -0.7812 -5.2083 -3.3854 -1.0417 -4.6875 -1.0417 -1.0416 -1.0417 -4.4271 -0.7812 -3.125 v -5.20832 -1.30208 -0.78125 -1.04166 -1.04167 -1.04166 -1.04166 -4.42708 -0.78124 -3.125 z"
           id="text73"
           aria-label="MINI ROUNDABOUT" />
      </g>
    </g>
  </g>
</svg>
