<?xml version="1.0" encoding="UTF-8" standalone="no"?>
<svg
   version="1.1"
   x="0px"
   y="0px"
   width="360px"
   height="360px"
   viewBox="797 802 360 360"
   enable-background="new 797 802 360 360"
   xml:space="preserve"
   id="svg3121"
   inkscape:version="1.4 (86a8ad7, 2024-10-11)"
   sodipodi:docname="police stop.svg"
   xmlns:inkscape="http://www.inkscape.org/namespaces/inkscape"
   xmlns:sodipodi="http://sodipodi.sourceforge.net/DTD/sodipodi-0.dtd"
   xmlns="http://www.w3.org/2000/svg"
   xmlns:svg="http://www.w3.org/2000/svg"
   xmlns:rdf="http://www.w3.org/1999/02/22-rdf-syntax-ns#"
   xmlns:cc="http://creativecommons.org/ns#"
   xmlns:dc="http://purl.org/dc/elements/1.1/"><metadata
   id="metadata3135"><rdf:RDF><cc:Work
       rdf:about=""><dc:format>image/svg+xml</dc:format><dc:type
         rdf:resource="http://purl.org/dc/dcmitype/StillImage" /></cc:Work></rdf:RDF></metadata><defs
   id="defs3133"><inkscape:path-effect
     effect="fillet_chamfer"
     id="path-effect1250"
     is_visible="true"
     lpeversion="1"
     nodesatellites_param="F,0,0,1,0,3.86627,0,1 @ F,0,0,1,0,3.8662696,0,1 @ F,0,0,1,0,3.8662703,0,1 @ F,0,0,1,0,3.8662703,0,1"
     unit="px"
     method="auto"
     mode="F"
     radius="0"
     chamfer_steps="1"
     flexible="false"
     use_knot_distance="true"
     apply_no_radius="true"
     apply_with_radius="true"
     only_selected="false"
     hide_knots="false" /><inkscape:path-effect
     effect="fillet_chamfer"
     id="path-effect2969"
     is_visible="true"
     lpeversion="1"
     nodesatellites_param="F,0,0,1,0,5.0787595,0,1 @ F,0,0,1,0,5.078762,0,1 @ F,0,0,1,0,5.078762,0,1 @ F,0,0,1,0,5.078762,0,1"
     unit="px"
     method="auto"
     mode="F"
     radius="0"
     chamfer_steps="1"
     flexible="false"
     use_knot_distance="true"
     apply_no_radius="true"
     apply_with_radius="true"
     only_selected="false"
     hide_knots="false" /><inkscape:path-effect
     effect="fillet_chamfer"
     id="path-effect2963"
     is_visible="true"
     lpeversion="1"
     nodesatellites_param="F,0,0,1,0,5.0787595,0,1 @ F,0,0,1,0,5.078762,0,1 @ F,0,0,1,0,5.078762,0,1 @ F,0,0,1,0,5.078762,0,1"
     unit="px"
     method="auto"
     mode="F"
     radius="0"
     chamfer_steps="1"
     flexible="false"
     use_knot_distance="true"
     apply_no_radius="true"
     apply_with_radius="true"
     only_selected="false"
     hide_knots="false" /><inkscape:path-effect
     effect="fillet_chamfer"
     id="path-effect2888"
     is_visible="true"
     lpeversion="1"
     nodesatellites_param="F,0,0,1,0,5.0787595,0,1 @ F,0,0,1,0,5.078762,0,1 @ F,0,0,1,0,5.078762,0,1 @ F,0,0,1,0,5.078762,0,1"
     unit="px"
     method="auto"
     mode="F"
     radius="0"
     chamfer_steps="1"
     flexible="false"
     use_knot_distance="true"
     apply_no_radius="true"
     apply_with_radius="true"
     only_selected="false"
     hide_knots="false" /><inkscape:path-effect
     effect="fillet_chamfer"
     id="path-effect1250-3"
     is_visible="true"
     lpeversion="1"
     nodesatellites_param="F,0,0,1,0,3.86627,0,1 @ F,0,0,1,0,3.8662696,0,1 @ F,0,0,1,0,3.8662703,0,1 @ F,0,0,1,0,3.8662703,0,1"
     unit="px"
     method="auto"
     mode="F"
     radius="0"
     chamfer_steps="1"
     flexible="false"
     use_knot_distance="true"
     apply_no_radius="true"
     apply_with_radius="true"
     only_selected="false"
     hide_knots="false" /><inkscape:path-effect
     effect="fillet_chamfer"
     id="path-effect2969-8"
     is_visible="true"
     lpeversion="1"
     nodesatellites_param="F,0,0,1,0,5.0787595,0,1 @ F,0,0,1,0,5.078762,0,1 @ F,0,0,1,0,5.078762,0,1 @ F,0,0,1,0,5.078762,0,1"
     unit="px"
     method="auto"
     mode="F"
     radius="0"
     chamfer_steps="1"
     flexible="false"
     use_knot_distance="true"
     apply_no_radius="true"
     apply_with_radius="true"
     only_selected="false"
     hide_knots="false" /><inkscape:path-effect
     effect="fillet_chamfer"
     id="path-effect2963-9"
     is_visible="true"
     lpeversion="1"
     nodesatellites_param="F,0,0,1,0,5.0787595,0,1 @ F,0,0,1,0,5.078762,0,1 @ F,0,0,1,0,5.078762,0,1 @ F,0,0,1,0,5.078762,0,1"
     unit="px"
     method="auto"
     mode="F"
     radius="0"
     chamfer_steps="1"
     flexible="false"
     use_knot_distance="true"
     apply_no_radius="true"
     apply_with_radius="true"
     only_selected="false"
     hide_knots="false" /><inkscape:path-effect
     effect="fillet_chamfer"
     id="path-effect2888-3"
     is_visible="true"
     lpeversion="1"
     nodesatellites_param="F,0,0,1,0,5.0787595,0,1 @ F,0,0,1,0,5.078762,0,1 @ F,0,0,1,0,5.078762,0,1 @ F,0,0,1,0,5.078762,0,1"
     unit="px"
     method="auto"
     mode="F"
     radius="0"
     chamfer_steps="1"
     flexible="false"
     use_knot_distance="true"
     apply_no_radius="true"
     apply_with_radius="true"
     only_selected="false"
     hide_knots="false" /></defs><sodipodi:namedview
   pagecolor="#ffffff"
   bordercolor="#666666"
   borderopacity="1"
   objecttolerance="10"
   gridtolerance="10"
   guidetolerance="10"
   inkscape:pageopacity="0"
   inkscape:pageshadow="2"
   inkscape:window-width="1920"
   inkscape:window-height="1009"
   id="namedview3131"
   showgrid="false"
   inkscape:zoom="1.0449467"
   inkscape:cx="119.62333"
   inkscape:cy="154.55334"
   inkscape:window-x="-8"
   inkscape:window-y="-8"
   inkscape:window-maximized="1"
   inkscape:current-layer="svg3121"
   inkscape:showpageshadow="0"
   inkscape:pagecheckerboard="0"
   inkscape:deskcolor="#d1d1d1"
   showguides="true" />



<g
   id="p1">
	<path
   d="m 977.155,1145.256 c -89.99,0 -163.247,-73.214 -163.302,-163.205 v -0.211 c -0.027,-43.63 16.935,-84.65 47.76,-115.514 30.825,-30.864 71.825,-47.875 115.445,-47.902 h 0.103 c 89.99,0 163.249,73.214 163.304,163.206 v 0.21 c 0.026,43.631 -16.935,84.65 -47.761,115.514 -30.825,30.864 -71.824,47.876 -115.445,47.902 z"
   id="path3124"
   fill="#ffffff" /><circle
   style="opacity:1;fill:#ed1e24;fill-opacity:1;fill-rule:nonzero;stroke:none;stroke-width:1.10465;stroke-linecap:square;stroke-linejoin:round;stroke-miterlimit:4;stroke-dasharray:none;stroke-opacity:1;paint-order:stroke fill markers"
   id="path17"
   cx="977"
   cy="982"
   r="180" /><circle
   style="fill:#ffffff;fill-opacity:1;fill-rule:nonzero;stroke:none;stroke-width:0.980674;stroke-linecap:square;stroke-linejoin:round;stroke-miterlimit:4;stroke-dasharray:none;stroke-opacity:1;paint-order:stroke fill markers"
   id="circle821"
   cx="977"
   cy="982"
   r="144.00002"
   inkscape:label="Circle" />
	
</g><g
   id="g22"
   transform="matrix(0.16886742,0,0,0.16335829,867.20827,892.59726)"
   style="clip-rule:evenodd;fill-rule:evenodd;image-rendering:optimizeQuality;shape-rendering:geometricPrecision;text-rendering:geometricPrecision"><g
     id="g2"
     transform="translate(-191.86478,18.671152)"><path
       style="opacity:1"
       fill="#000000"
       d="m 337.5,65.5 c 26.829,-1.5246 52.829,2.3087 78,11.5 36.401,17.6064 54.401,46.773 54,87.5 -22.673,0.884 -45.34,1.884 -68,3 -1.351,-26.252 -15.018,-40.752 -41,-43.5 -16.853,-2.165 -32.853,0.502 -48,8 -10.792,7.814 -12.959,17.647 -6.5,29.5 6.673,6.423 14.507,10.923 23.5,13.5 20.869,6.134 41.869,11.801 63,17 16.938,4.47 32.938,11.137 48,20 30.984,23.588 43.15,54.755 36.5,93.5 -8.502,39.503 -32.336,64.336 -71.5,74.5 -35.418,8.882 -70.752,8.549 -106,-1 -35.978,-12.726 -59.145,-37.56 -69.5,-74.5 -2.216,-9.472 -4.05,-18.972 -5.5,-28.5 22.181,-2.622 44.348,-5.122 66.5,-7.5 7.326,45.293 33.826,64.459 79.5,57.5 18.393,-2.102 31.226,-11.602 38.5,-28.5 3.458,-13.969 -1.042,-24.469 -13.5,-31.5 -5.777,-2.888 -11.777,-5.221 -18,-7 -22.672,-6.001 -45.338,-12.001 -68,-18 -13.787,-4.812 -26.787,-11.145 -39,-19 C 236.699,193.63 227.865,158.797 244,117.5 254.46,97.376 270.293,83.2094 291.5,75 c 15.052,-5.1012 30.385,-8.2678 46,-9.5 z"
       id="path2" /></g><g
     id="g3"
     transform="translate(-191.86478,18.671152)"><path
       style="opacity:1"
       fill="#000000"
       d="m 943.5,65.5 c 40.134,-2.7217 76.47,7.4449 109,30.5 31.66,27.152 49.16,61.652 52.5,103.5 4.43,36.9 -0.24,72.567 -14,107 -23.81,47.353 -62.31,73.52 -115.5,78.5 -30.356,2.999 -59.69,-1.001 -88,-12 -48.553,-24.87 -75.386,-64.703 -80.5,-119.5 -3.516,-32.963 -0.516,-65.296 9,-97 23.522,-57.0342 66.022,-87.3675 127.5,-91 z"
       id="path3" /></g><g
     id="g4"
     transform="translate(-191.86478,18.671152)"><path
       style="opacity:1"
       fill="#000000"
       d="m 522.5,70.5 c 83,0 166,0 249,0 0,20 0,40 0,60 -29.667,0 -59.333,0 -89,0 0,83.667 0,167.333 0,251 -23.333,0 -46.667,0 -70,0 0,-83.667 0,-167.333 0,-251 -30,0 -60,0 -90,0 0,-20 0,-40 0,-60 z"
       id="path4" /></g><g
     id="g5"
     transform="translate(-191.86478,18.671152)"><path
       style="opacity:1"
       fill="#000000"
       d="m 1169.5,70.5 c 49.34,-0.3512 98.68,0.1488 148,1.5 41.58,0.8399 70.08,20.3399 85.5,58.5 9.29,31.444 6.62,61.777 -8,91 -12.58,19.565 -30.08,32.731 -52.5,39.5 -19.47,3.798 -39.14,5.632 -59,5.5 -15.33,0 -30.67,0 -46,0 0,38 0,76 0,114 -22.67,0 -45.33,0 -68,0 0,-103.333 0,-206.667 0,-310 z"
       id="path5" /></g><g
     id="g6"
     transform="translate(-191.86478,18.671152)"><path
       style="opacity:1"
       fill="#fdfdfd"
       d="m 943.5,125.5 c 55.279,-2.564 85.78,23.769 91.5,79 0.89,16.036 0.55,32.036 -1,48 -7.69,49.037 -36.187,73.537 -85.5,73.5 -34.881,-5.194 -57.381,-24.694 -67.5,-58.5 -7.292,-28.332 -7.292,-56.665 0,-85 9.646,-31.487 30.479,-50.487 62.5,-57 z"
       id="path6" /></g><g
     id="g8"
     transform="translate(-191.86478,18.671152)"><path
       style="opacity:1"
       fill="#fdfdfd"
       d="m 1294.5,130.5 c 26.18,-0.482 40.84,12.185 44,38 -1.87,21.705 -13.54,34.205 -35,37.5 -21.64,1.392 -43.3,1.892 -65,1.5 0,-25.667 0,-51.333 0,-77 18.67,0 37.33,0 56,0 z"
       id="path8" /></g><g
     id="g11"
     transform="translate(-191.86478,18.671152)"><path
       style="opacity:1"
       fill="#000000"
       d="m 126.5,415.5 c 466.333,-0.167 932.67,0 1399,0.5 9.72,2.055 15.89,7.888 18.5,17.5 0.67,61.333 0.67,122.667 0,184 -2.73,11.396 -9.9,17.896 -21.5,19.5 -464.33,0.667 -928.667,0.667 -1393,0 -12.5,-1.833 -19.667,-9 -21.5,-21.5 -0.667,-60 -0.667,-120 0,-180 2.605,-10.1 8.772,-16.767 18.5,-20 z"
       id="path11" /></g><g
     id="g12"
     transform="translate(-191.86478,18.671152)"><path
       style="opacity:1"
       fill="#000000"
       d="m 526.5,671.5 c 41.541,-2.979 78.874,7.854 112,32.5 31.194,28.533 48.028,64.033 50.5,106.5 3.574,35.647 -1.426,69.981 -15,103 -23.988,47.102 -62.488,72.935 -115.5,77.5 -34.865,3.893 -67.865,-2.107 -99,-18 -43.262,-27.31 -66.428,-66.81 -69.5,-118.5 -2.92,-32.803 0.746,-64.803 11,-96 24.174,-54.347 66.007,-83.347 125.5,-87 z"
       id="path12" /></g><path
     style="clip-rule:evenodd;fill-rule:evenodd;image-rendering:optimizeQuality;shape-rendering:geometricPrecision;text-rendering:geometricPrecision"
     fill="#000000"
     d="m 951.63516,690.17115 c 34.26,-2.437 65.59004,5.73 94.00004,24.5 22.29,17.72 36.62,40.553 43,68.5 -0.11,0.942 -0.44,1.775 -1,2.5 -21.56,4.931 -43.06,10.098 -64.5,15.5 -14.54,-44.356 -44.37004,-59.856 -89.5,-46.5 -20.71,9.048 -33.88,24.548 -39.5,46.5 -7.57,33.747 -7.23,67.414 1,101 13.89,38.696 41.04996,54.196 81.49996,46.5 18.25,-5.92 31.09004,-17.753 38.50004,-35.5 2.78,-9.339 6.11,-18.339 10,-27 21.38,7.182 42.88,13.849 64.5,20 -6.53,33.247 -22.86,60.414 -49,81.49996 -29.95,18.79299 -62.61004,26.12599 -98.00004,21.99999 -57.70996,-7.947 -96.20996,-39.44695 -115.49994,-94.49995 -10.59,-40.147 -11.26,-80.48 -2,-121 15.16,-53.498 49.65998,-86.998 103.49998,-100.5 7.77996,-1.41 15.44996,-2.576 22.99996,-3.5 z"
     id="path13" /><g
     id="g14"
     transform="translate(-191.86478,18.671152)"><path
       style="opacity:1"
       fill="#000000"
       d="m 260.5,872.5 c -14.667,0 -29.333,0 -44,0 0,38 0,76 0,114 -23,0 -46,0 -69,0 0,-103.333 0,-206.667 0,-310 41.001,-0.167 82.001,0 123,0.5 15.061,0.156 30.061,1.156 45,3 31.795,6.124 53.629,24.29 65.5,54.5 5.178,17.979 6.845,36.313 5,55 -4.879,36.54 -24.379,61.707 -58.5,75.5 -7.494,2.432 -15.161,4.099 -23,5 -14.627,1.564 -29.294,2.397 -44,2.5 z"
       id="path14" /></g><g
     id="g15"
     transform="translate(-191.86478,18.671152)"><path
       style="opacity:1"
       fill="#000000"
       d="m 929.5,676.5 c 23.333,0 46.667,0 70,0 0,103.667 0,207.333 0,311 -23.333,0 -46.667,0 -70,0 0,-103.667 0,-207.333 0,-311 z"
       id="path15" /></g><g
     id="g16"
     transform="translate(-191.86478,18.671152)"><path
       style="opacity:1"
       fill="#000000"
       d="m 1297.5,676.5 c 77.67,0 155.33,0 233,0 0,20 0,40 0,60 -54.33,0 -108.67,0 -163,0 0,19.333 0,38.667 0,58 50.33,0 100.67,0 151,0 0,20 0,40 0,60 -50.33,0 -100.67,0 -151,0 0,24.333 0,48.667 0,73 56.33,0 112.67,0 169,0 0,20 0,40 0,60 -79.67,0 -159.33,0 -239,0 0,-103.667 0,-207.333 0,-311 z"
       id="path16" /></g><g
     id="g17"
     transform="translate(-191.86478,18.671152)"><path
       style="opacity:1"
       fill="#000000"
       d="m 702.5,678.5 c 23.333,0 46.667,0 70,0 0,83 0,166 0,249 50.667,0 101.333,0 152,0 0,20 0,40 0,60 -74,0 -148,0 -222,0 0,-103 0,-206 0,-309 z"
       id="path17-0" /></g><g
     id="g18"
     transform="translate(-191.86478,18.671152)"><path
       style="opacity:1"
       fill="#fdfdfd"
       d="m 526.5,731.5 c 53.446,-3.058 83.946,21.942 91.5,75 3.083,24.364 1.417,48.364 -5,72 -18.027,44.101 -50.527,60.934 -97.5,50.5 -25.391,-9.726 -42.225,-27.559 -50.5,-53.5 -7.314,-29.658 -7.314,-59.325 0,-89 9.737,-30.58 30.237,-48.913 61.5,-55 z"
       id="path18" /></g><g
     id="g20"
     transform="translate(-191.86478,18.671152)"><path
       style="opacity:1"
       fill="#fdfdfd"
       d="m 273.5,736.5 c 32.607,1.106 46.441,17.773 41.5,50 -8.155,18.015 -22.321,26.849 -42.5,26.5 -18.33,0.5 -36.664,0.667 -55,0.5 0,-25.667 0,-51.333 0,-77 18.667,0 37.333,0 56,0 z"
       id="path20" /></g></g></svg>
