<?xml version="1.0" encoding="UTF-8" standalone="no"?>
<svg
   version="1.1"
   x="0px"
   y="0px"
   width="360px"
   height="360px"
   viewBox="797 802 360 360"
   enable-background="new 797 802 360 360"
   xml:space="preserve"
   id="svg3121"
   inkscape:version="1.4 (86a8ad7, 2024-10-11)"
   sodipodi:docname="U turn prohibited.svg"
   xmlns:inkscape="http://www.inkscape.org/namespaces/inkscape"
   xmlns:sodipodi="http://sodipodi.sourceforge.net/DTD/sodipodi-0.dtd"
   xmlns="http://www.w3.org/2000/svg"
   xmlns:svg="http://www.w3.org/2000/svg"
   xmlns:rdf="http://www.w3.org/1999/02/22-rdf-syntax-ns#"
   xmlns:cc="http://creativecommons.org/ns#"
   xmlns:dc="http://purl.org/dc/elements/1.1/"><metadata
   id="metadata3135"><rdf:RDF><cc:Work
       rdf:about=""><dc:format>image/svg+xml</dc:format><dc:type
         rdf:resource="http://purl.org/dc/dcmitype/StillImage" /></cc:Work></rdf:RDF></metadata><defs
   id="defs3133"><inkscape:path-effect
     effect="fillet_chamfer"
     id="path-effect1250"
     is_visible="true"
     lpeversion="1"
     nodesatellites_param="F,0,0,1,0,3.86627,0,1 @ F,0,0,1,0,3.8662696,0,1 @ F,0,0,1,0,3.8662703,0,1 @ F,0,0,1,0,3.8662703,0,1"
     unit="px"
     method="auto"
     mode="F"
     radius="0"
     chamfer_steps="1"
     flexible="false"
     use_knot_distance="true"
     apply_no_radius="true"
     apply_with_radius="true"
     only_selected="false"
     hide_knots="false" /><inkscape:path-effect
     effect="fillet_chamfer"
     id="path-effect2969"
     is_visible="true"
     lpeversion="1"
     nodesatellites_param="F,0,0,1,0,5.0787595,0,1 @ F,0,0,1,0,5.078762,0,1 @ F,0,0,1,0,5.078762,0,1 @ F,0,0,1,0,5.078762,0,1"
     unit="px"
     method="auto"
     mode="F"
     radius="0"
     chamfer_steps="1"
     flexible="false"
     use_knot_distance="true"
     apply_no_radius="true"
     apply_with_radius="true"
     only_selected="false"
     hide_knots="false" /><inkscape:path-effect
     effect="fillet_chamfer"
     id="path-effect2963"
     is_visible="true"
     lpeversion="1"
     nodesatellites_param="F,0,0,1,0,5.0787595,0,1 @ F,0,0,1,0,5.078762,0,1 @ F,0,0,1,0,5.078762,0,1 @ F,0,0,1,0,5.078762,0,1"
     unit="px"
     method="auto"
     mode="F"
     radius="0"
     chamfer_steps="1"
     flexible="false"
     use_knot_distance="true"
     apply_no_radius="true"
     apply_with_radius="true"
     only_selected="false"
     hide_knots="false" /><inkscape:path-effect
     effect="fillet_chamfer"
     id="path-effect2888"
     is_visible="true"
     lpeversion="1"
     nodesatellites_param="F,0,0,1,0,5.0787595,0,1 @ F,0,0,1,0,5.078762,0,1 @ F,0,0,1,0,5.078762,0,1 @ F,0,0,1,0,5.078762,0,1"
     unit="px"
     method="auto"
     mode="F"
     radius="0"
     chamfer_steps="1"
     flexible="false"
     use_knot_distance="true"
     apply_no_radius="true"
     apply_with_radius="true"
     only_selected="false"
     hide_knots="false" /><inkscape:path-effect
     effect="fillet_chamfer"
     id="path-effect1250-3"
     is_visible="true"
     lpeversion="1"
     nodesatellites_param="F,0,0,1,0,3.86627,0,1 @ F,0,0,1,0,3.8662696,0,1 @ F,0,0,1,0,3.8662703,0,1 @ F,0,0,1,0,3.8662703,0,1"
     unit="px"
     method="auto"
     mode="F"
     radius="0"
     chamfer_steps="1"
     flexible="false"
     use_knot_distance="true"
     apply_no_radius="true"
     apply_with_radius="true"
     only_selected="false"
     hide_knots="false" /><inkscape:path-effect
     effect="fillet_chamfer"
     id="path-effect2969-8"
     is_visible="true"
     lpeversion="1"
     nodesatellites_param="F,0,0,1,0,5.0787595,0,1 @ F,0,0,1,0,5.078762,0,1 @ F,0,0,1,0,5.078762,0,1 @ F,0,0,1,0,5.078762,0,1"
     unit="px"
     method="auto"
     mode="F"
     radius="0"
     chamfer_steps="1"
     flexible="false"
     use_knot_distance="true"
     apply_no_radius="true"
     apply_with_radius="true"
     only_selected="false"
     hide_knots="false" /><inkscape:path-effect
     effect="fillet_chamfer"
     id="path-effect2963-9"
     is_visible="true"
     lpeversion="1"
     nodesatellites_param="F,0,0,1,0,5.0787595,0,1 @ F,0,0,1,0,5.078762,0,1 @ F,0,0,1,0,5.078762,0,1 @ F,0,0,1,0,5.078762,0,1"
     unit="px"
     method="auto"
     mode="F"
     radius="0"
     chamfer_steps="1"
     flexible="false"
     use_knot_distance="true"
     apply_no_radius="true"
     apply_with_radius="true"
     only_selected="false"
     hide_knots="false" /><inkscape:path-effect
     effect="fillet_chamfer"
     id="path-effect2888-3"
     is_visible="true"
     lpeversion="1"
     nodesatellites_param="F,0,0,1,0,5.0787595,0,1 @ F,0,0,1,0,5.078762,0,1 @ F,0,0,1,0,5.078762,0,1 @ F,0,0,1,0,5.078762,0,1"
     unit="px"
     method="auto"
     mode="F"
     radius="0"
     chamfer_steps="1"
     flexible="false"
     use_knot_distance="true"
     apply_no_radius="true"
     apply_with_radius="true"
     only_selected="false"
     hide_knots="false" /></defs><sodipodi:namedview
   pagecolor="#ffffff"
   bordercolor="#666666"
   borderopacity="1"
   objecttolerance="10"
   gridtolerance="10"
   guidetolerance="10"
   inkscape:pageopacity="0"
   inkscape:pageshadow="2"
   inkscape:window-width="1920"
   inkscape:window-height="1009"
   id="namedview3131"
   showgrid="false"
   inkscape:zoom="1.0449467"
   inkscape:cx="152.16087"
   inkscape:cy="74.166462"
   inkscape:window-x="-8"
   inkscape:window-y="-8"
   inkscape:window-maximized="1"
   inkscape:current-layer="svg3121"
   inkscape:showpageshadow="0"
   inkscape:pagecheckerboard="0"
   inkscape:deskcolor="#d1d1d1"
   showguides="true" />



<g
   id="g1"><g
     id="p1">
	<path
   d="M977.155,1145.256c-89.99,0-163.247-73.214-163.302-163.205v-0.211   c-0.027-43.63,16.935-84.65,47.76-115.514s71.825-47.875,115.445-47.902h0.103c89.99,0,163.249,73.214,163.304,163.206v0.21   c0.026,43.631-16.935,84.65-47.761,115.514c-30.825,30.864-71.824,47.876-115.445,47.902H977.155z"
   id="path3124"
   fill="#fff" /><circle
   style="opacity:1;fill:#ed1e24;fill-opacity:1;fill-rule:nonzero;stroke:none;stroke-width:1.10465;stroke-linecap:square;stroke-linejoin:round;stroke-miterlimit:4;stroke-dasharray:none;stroke-opacity:1;paint-order:stroke fill markers"
   id="path17"
   cx="977"
   cy="982"
   r="180" /><circle
   style="fill:#ffffff;fill-opacity:1;fill-rule:nonzero;stroke:none;stroke-width:0.980674;stroke-linecap:square;stroke-linejoin:round;stroke-miterlimit:4;stroke-dasharray:none;stroke-opacity:1;paint-order:stroke fill markers"
   id="circle821"
   cx="977"
   cy="982"
   r="144.00002"
   inkscape:label="Circle" />
	
</g><g
     id="g2"
     transform="matrix(1.0387894,0,0,1.0235249,461.04122,430.56062)"
     style="clip-rule:evenodd;fill-rule:evenodd;image-rendering:optimizeQuality;shape-rendering:geometricPrecision;text-rendering:geometricPrecision"><path
       style="opacity:1;stroke-width:0.304882"
       fill="#000000"
       d="m 574.89751,529.94593 c 0,9.36982 0,18.73964 0,28.10946 4.12692,0 8.25386,0 12.38079,0 2.9879,-0.0677 5.95072,0.12766 8.88878,0.58561 -0.095,1.05557 -0.46508,2.03179 -1.1111,2.92808 -13.75634,21.863 -27.51298,43.72572 -41.26932,65.58873 -0.52919,0.58562 -1.05808,1.17122 -1.58728,1.75685 -2.48632,-3.21884 -4.81423,-6.53722 -6.98404,-9.95544 -11.77128,-19.47019 -23.62287,-38.89325 -35.5551,-58.26857 -0.15809,-0.87314 -0.21111,-1.75157 -0.15874,-2.63526 6.35009,0.0489 12.69921,0 19.04739,-0.1464 0.50825,-0.08 0.98442,-0.22634 1.42855,-0.43921 0.21175,-27.42635 0.21175,-54.8524 0,-82.27873 -0.36921,-6.0983 -3.06758,-11.12461 -8.09514,-15.07956 -8.3637,-6.13811 -17.88739,-8.48057 -28.57107,-7.02737 -10.81826,1.29597 -18.59595,6.42009 -23.33303,15.37237 -0.66158,1.80545 -1.08475,3.66008 -1.26982,5.56333 -0.32635,4.97332 -0.53809,9.95104 -0.63492,14.93315 -0.35714,55.73227 -0.83332,111.46337 -1.42855,167.19272 -14.28553,0 -28.57107,0 -42.8566,0 -0.36571,-50.26293 -0.41872,-100.52792 -0.15872,-150.79554 0.10576,-11.12842 0.31746,-22.25507 0.63491,-33.37998 2.70981,-24.34894 15.88424,-41.96605 39.5233,-52.85164 7.81546,-2.87569 15.85758,-5.02296 24.12668,-6.44175 20.05245,-2.1899 38.67665,1.519 55.87231,11.12667 17.0474,10.59591 27.36473,25.28504 30.95198,44.06743 0.15874,20.69148 0.21174,41.38326 0.15874,62.07505 z"
       id="path2" /></g><rect
     transform="matrix(-0.70710678,-0.70710678,-0.70710678,0.70710678,0,0)"
     style="fill:#ed1e24;fill-opacity:1;fill-rule:nonzero;stroke:none;stroke-width:6.47255;stroke-linecap:square;stroke-linejoin:round;stroke-miterlimit:4;stroke-dasharray:none;stroke-opacity:1;paint-order:stroke fill markers"
     id="rect1947"
     width="44.585682"
     height="357.08212"
     x="-1405.4851"
     y="-175.34779" /></g></svg>
